<svg xmlns="http://www.w3.org/2000/svg" version="1.1" width="600px" height="600px" viewBox="0 0 200 200" style="overflow:hidden!important;"><defs id="SvgjsDefs60976"></defs><g id="svga-group-wrapper"><g id="svga-group-backs-single"></g><g id="svga-group-humanwrap-move" transform="matrix(1,0,0,1,0,0)"><g id="svga-group-humanwrap" transform="matrix(1,0,0,1,0,0)"><g id="svga-group-hair-back-move" transform="matrix(1,0,0,1,0,0)"><g id="svga-group-hair-back" transform="matrix(1,0,0,1,0,0)"><path id="SvgjsPath61623" d="M70.8 101.8c-.7-3.5-5.9-3.2-6.7 0-.4 1.5-.7 3.1-.9 4.7-.6.1-1.2.4-1.6 1-3.5 4.3-5 10.4-6.3 15.7-1.3 5.3-2.2 10.9-1.1 16.3.3 1.4 2.1 1.1 2.5 0 1.8-4.8 2.6-9.9 4.2-14.7.3-1 .7-2 1.2-3-1 6-3 12-3.3 18.1-.1 2.3 2.9 2.8 4.1 1.1 3.7-5.6 5-12.9 6.3-19.4 1.1-6.2 2.9-13.5 1.6-19.8zm7.9 11.7c-.6 2.1-1.2 4.2-1.8 6.4.5-3.8.7-7.6-.5-10.9-.6-1.6-2.9-2.2-3.9-.5-3 5.6-2.7 13.4-3.8 19.6-1.1 6.2-3.6 12.7-3 19.1.4 4.2 6.3 4.3 6.6 0 .2-3.6.9-7.2 1.6-10.8-.4 4.6-.4 9.2.1 13.8.2 1.7 2.9 2.5 3.3.4 2.3-11.9 3.9-23.7 7.6-35.3 1.4-4.1-5-5.9-6.2-1.8zm45 33.2c-.3-2.9-.2-5.8-.2-8.7 0-4.9.3-10.3-2-14.7-.5-1-2.1-1-2.6 0-2.7 5.3-1.9 11.9-1.9 17.7 0 4.8-.5 11.1 3.5 14.5 1.6 1.4 4.6.6 4.5-1.9-.2-2.4-1-4.5-1.3-6.9zm6.8-15.6c-.4-6.2-.4-12.7-1.7-18.8-.8-3.6-5.9-2.6-6.1.8-.3 6.2.9 12.7 1.5 18.9.6 5.9 1.2 11.9 3.1 17.5.5 1.4 2.9 1.7 3.2 0 .9-6.1.5-12.3 0-18.4zm11.6-13.9c-.7-4.5-.1-10.9-2.9-14.6-1.1-1.5-3.4-1.8-4.5 0s-1.4 3.9-1.4 6.1c-1.1-.5-2.4-.3-3.1.9-2.2 4.3.5 9.8 1.1 14.3.9 6.2-.6 12.5.6 18.7.3 1.7 3.1 2.1 3.8.5 1.8-3.9 2.6-8.5 2.7-13.1.7 1.2 1.4 2.4 2.3 3.4 1.2 1.4 3.2.2 3.3-1.4.5-4.7-1.1-10-1.9-14.8z" fill="#000000" stroke-width="none" opacity="1"></path></g></g><g id="svga-group-humanbody-back"><path id="SvgjsPath61386" d="M77.6 118.3c0 19.3 3.4 44.1-10 51.9-13.4 7.9-31.9 11.3-37.8 22s-4.4 25.3-4.4 25.3h149.3s.7-18.9-5.1-26.4c-8.1-10.4-27.8-15.5-37.7-20.9s-13.4-25.1-13.4-52.4l-40.9.5z" fill="#ffffff" stroke-width="none" opacity="1"></path><path id="SvgjsPath61387" d="M175.8 218.7H24.4l-.1-1c-.1-.6-1.5-15.1 4.5-26 4.1-7.4 13.5-11.3 23.5-15.5 5-2.1 10.2-4.3 14.8-6.9 10.6-6.2 10.1-23.9 9.6-41-.1-3.5-.2-6.8-.2-10v-1.1l43.2-.4v1.1c0 29.9 4.2 46.7 12.8 51.4 2.9 1.6 6.7 3.2 10.8 4.9 10 4.1 21.3 8.8 27.2 16.3 6.1 7.7 5.4 26.4 5.4 27.1l-.1 1.1zm-149.3-2.2h147.1c0-4.1-.2-18.5-4.9-24.6-5.5-7-16.6-11.6-26.3-15.6-4.1-1.7-8-3.3-11-5-5.1-2.8-8.7-8.9-10.9-18.7-2-8.4-2.9-19.4-3-33.5l-38.6.4c0 2.8.1 5.7.2 8.8.5 17.8 1 36.1-10.7 43-4.7 2.7-9.9 4.9-15 7.1-9.6 4-18.7 7.8-22.4 14.5-5 8.6-4.7 20.1-4.5 23.6z" fill="#000000" stroke-width="none" opacity="1"></path><path id="SvgjsPath61388" d="M93.9 153.8c-.5 1.8-.4 3.4.5 5.2.8 1.6 2.1 2.7 3.9 2.9.4 0 .7-.5.5-.8-1.6-2.2-3.5-4.2-3.7-7.1 0-.7-1-.9-1.2-.2zm18.6 33.7c8.8.5 18.1-.7 26.6-2.9.7-.2.6-1.4-.2-1.3-8.8 1.1-17.7 2-26.5 3.3-.5.1-.3.9.1.9zm-49.4-5c3.8.9 7.6 1.9 11.5 2.8 3.6.8 7.4 2 11.1 2.1.7 0 .8-.9.2-1.2-3.5-1.4-7.5-1.7-11.2-2.5-3.8-.7-7.5-1.3-11.3-2-.5 0-.7.7-.3.8z" fill="#000000" stroke-width="none" opacity="1"></path></g><g id="svga-group-chinshadow-single"></g><g id="svga-group-humanbody-front"></g><g id="svga-group-clothes-single"><path id="SvgjsPath61516" d="M63.33 170.93s-12.22 5.29-16.7 6.92c-4.48 1.63-12.63 5.91-17.11 11.2-4.48 5.29-5.09 12.63-5.7 17.92-.61 5.29.58 11.73.58 11.73h152.36s.2-14.17-2.65-22.32-5.7-9.78-14.87-15.48c-9.16-5.7-18.53-7.94-26.07-11.61 0 0-3.05 12.83-30.55 14.26-27.48 1.43-34-6.92-39.29-12.62z" fill="#ffffff" stroke-width="none" opacity="1"></path><path id="SvgjsPath61517" d="M175.06 196.05c-2.9-8.3-5.87-10.15-14.69-15.63l-.6-.37c-5.81-3.62-11.81-5.9-17.1-7.91-3.23-1.23-6.28-2.39-9.06-3.75a1.02 1.02 0 0 0-.87 0c-.27.13-.47.38-.54.67-.03.12-3.19 12.12-29.63 13.49-11.02.58-18.6-.45-24.07-2.24-.04-.14-.21-.21-.31-.1-.46-.16-.91-.31-1.34-.48.01-.02.01-.04.02-.06.08-.25-.3-.35-.39-.11 0 .01 0 .01-.01.02-6.05-2.41-9.18-5.81-11.8-8.66l-.63-.68c-.29-.31-.74-.4-1.13-.24-.12.05-12.24 5.3-16.64 6.9-3.9 1.42-12.58 5.64-17.53 11.49-4.44 5.25-5.25 12.38-5.83 17.59l-.1.86c-.62 5.38.54 11.76.59 12.02.09.47.5.82.98.82h152.36a1 1 0 0 0 1-.99c.03-.56.19-14.42-2.68-22.64zm-4.34-4.67c-.51-.5-1.02-1-1.52-1.51.1-.08.19-.16.26-.22.46.55.87 1.12 1.26 1.73zm-1.89-1.17c.98 1.01 1.94 2.08 2.94 3.08.48 1 .94 2.12 1.4 3.42l.03.11c-1.74-1.87-3.76-3.55-5.68-5.25.51-.59.95-1.04 1.31-1.36zm-66.15-5.66c23.41-1.21 29.59-10.57 31.06-13.88.7.33 1.42.64 2.15.95-1.03 1.47-3.85 5.21-8.22 8.8-3.79 3.11-12.73 6.36-23.97 7.02.1-.66.16-1.34.25-2 .03-.19-.28-.19-.3 0-.08.66-.2 1.34-.27 2.01-.68.04-1.37.06-2.07.08.11-.96.07-1.97.08-2.92l1.29-.06zm-4.2 2.99c-.61-.01-1.22-.03-1.83-.05.07-.92.03-1.87.04-2.79.62 0 1.25 0 1.9-.02-.05.93-.14 1.92-.11 2.86zm.5-2.86c.67-.01 1.35-.03 2.04-.06-.08.95-.2 1.95-.18 2.92-.6.01-1.2.02-1.82.01.06-.95-.01-1.94-.04-2.87zm-2.73.03c-.03.91-.09 1.85-.06 2.76a65.89 65.89 0 0 1-3.39-.24c.04-.87.02-1.74.01-2.6 1.1.04 2.25.07 3.44.08zm-18.35-2.47c.39.13.8.25 1.21.37-.18.58-.36 1.18-.48 1.77-.35-.11-.7-.23-1.04-.34.11-.45.11-.94.2-1.4.04-.15.08-.27.11-.4zm1.71.51c.27.07.55.15.83.22-.1.6-.25 1.24-.31 1.86-.32-.09-.63-.18-.94-.28.18-.58.31-1.19.42-1.8zm1.26.33c1.02.25 2.11.48 3.26.67-.15.66-.3 1.35-.36 2.02a66.49 66.49 0 0 1-3.1-.79c.12-.62.14-1.29.2-1.9zm3.79.76c.58.09 1.17.18 1.78.26-.23.71-.39 1.46-.38 2.16-.43-.08-.87-.17-1.3-.26l-.39-.09c.15-.67.23-1.39.29-2.07zm2.14 1.07c.05-.25.12-.5.19-.75.45.06.92.11 1.39.15-.11.77-.22 1.55-.21 2.32-.51-.08-1.03-.17-1.55-.27.07-.48.08-.98.18-1.45zm2.02-.55c.48.05.97.09 1.47.12-.21.76-.38 1.63-.34 2.42-.46-.06-.92-.13-1.38-.2.16-.75.21-1.55.25-2.34zm1.67 1.71c.05-.53.15-1.04.28-1.55l1.56.09c-.03.85-.07 1.71-.06 2.57-.6-.06-1.2-.13-1.81-.21.01-.3 0-.6.03-.9zm-13.05-3.99c-.03.09-.07.18-.09.28-.11.45-.26 1-.24 1.5-.48-.17-.95-.34-1.41-.51.21-.55.4-1.11.57-1.68.38.14.77.28 1.17.41zm-2.2 1.08c-.4-.16-.8-.32-1.18-.48.22-.56.4-1.11.61-1.67.36.16.74.32 1.13.47-.21.56-.4 1.12-.56 1.68zm-6.64-5.73c-.52.46-.95 1.02-1.3 1.62-.5-.34-.96-.67-1.4-1 .55-.48 1.12-.97 1.64-1.48.34.28.69.57 1.06.86zm.33.25c.4.3.82.6 1.26.89-.36.33-.68.72-1 1.09l-.33.39c-.45-.27-.88-.54-1.29-.82.4-.57.86-1.07 1.36-1.55zm.65 2.22c.32-.36.66-.72.93-1.12.3.19.61.39.93.58-.46.42-.86.94-1.18 1.49a30.4 30.4 0 0 1-1.01-.57c.1-.13.22-.25.33-.38zm2.29-.29c.72.41 1.49.8 2.31 1.18-.27.54-.49 1.11-.59 1.69-1.06-.47-2.05-.95-2.96-1.43.38-.52.8-.97 1.24-1.44zm-4.71-3.37c-.55.49-1.08 1.03-1.6 1.55-.67-.52-1.26-1.03-1.78-1.51.27-.35.56-.67.89-.96.27-.23.56-.42.85-.61.51.5 1.05 1.01 1.64 1.53zm-1.98-1.88c-.66.4-1.24 1.03-1.68 1.65-.67-.64-1.21-1.23-1.63-1.74.33-.23.65-.47.97-.71.31-.23.63-.45.94-.68.44.49.91.98 1.4 1.48zm-2.11-2.24.14.16c.07.08.14.15.21.23-.36.26-.71.54-1.06.8l-.81.6c-.26-.33-.48-.63-.64-.87.92-.38 1.67-.7 2.16-.92zm-34.94 21.39c3.3 2.32 6.88 4.55 10.66 6 .42.86.84 1.79 1.24 2.78-3.8-2.44-8.08-4.62-12.15-6.46-.21-.09-.38.18-.18.31 3.94 2.51 8.31 5 12.62 6.88.35.91.69 1.86 1.01 2.87-4.79-2.96-10-5.52-15.06-8.01.58-2.22 1.42-4.4 2.68-6.38 2.36 1.56 4.76 3.26 7.31 4.42.17.08.4-.15.22-.29-2.21-1.75-4.8-3.12-7.27-4.52.24-.35.49-.69.75-1.02 1.39.84 2.81 1.74 4.29 2.36 1.28 1.53 2.75 3.62 4.15 6.34-3.39-1.84-6.81-3.56-10.08-5.64-.21-.17-.41.2-.19.36zm2.17-3.83c.17-.2.36-.4.54-.6.43.32 1.27 1.01 2.32 2.12-.93-.55-1.9-1.04-2.86-1.52zm-5.05 28.02c-.09-.6-.22-1.5-.33-2.57.27.18.53.37.83.48.19.07.33-.2.2-.34-.29-.29-.68-.47-1.03-.69a.21.21 0 0 1-.06-.04c-.06-.64-.11-1.33-.15-2.05 2.35 1.98 4.97 3.93 7.81 5 .17.06.25-.19.12-.28-2.66-1.83-5.42-3.37-7.96-5.37-.05-1.15-.05-2.35.03-3.51 5.06 3.02 10.09 6.25 15.34 8.91.21.11.39-.19.19-.32-4.95-3.29-10.31-6.1-15.47-9.05-.01-.01-.02 0-.03 0 .02-.27.05-.53.08-.79l.1-.86c.28-2.47.59-5.22 1.27-7.94 4.87 2.8 9.89 5.66 15.01 7.97.1.05.2 0 .25-.07.53 1.69 1 3.52 1.41 5.51-5.55-3.1-11.15-6.03-16.6-9.31-.25-.15-.47.23-.23.39 5.33 3.59 11.04 7.02 16.97 9.57.23 1.19.43 2.43.61 3.73-5.98-3.51-12.01-6.6-17.65-10.69-.21-.15-.4.19-.2.35 5.39 4.15 11.38 8.26 17.81 10.59.03.01.05 0 .07 0 .06.46.12.92.17 1.39H25.25zm20.56 0c-2.15-19.99-10.98-28.11-13.53-30.06 4.49-4.18 10.97-7.49 14.7-8.85 2.71-.99 8.13-3.26 12.08-4.94 1.5 2.4 7.65 10.32 25.28 14.1a73.48 73.48 0 0 0 15.4 1.63c13.64 0 24.62-3.84 29.22-7.62 5-4.11 8-8.31 8.84-9.57 1.36.54 2.75 1.07 4.18 1.62 5.46 2.08 11.11 4.23 16.75 7.74l.6.37c4.04 2.51 6.74 4.2 8.76 6.08-.7.55-1.94 1.69-3.35 3.62-.1.03-.18.12-.17.23-3.01 4.21-6.75 12.03-7.84 25.65H45.81zm119.12 0c-1.79-1.72-3.73-3.28-5.65-4.85.14-.98.3-1.93.47-2.84 2.53 2.85 5.37 5.59 8.57 7.69h-3.39zm-3.55 0c-.74-.73-1.62-1.34-2.47-1.94.09-.83.19-1.64.3-2.42 1.71 1.5 3.43 3 5.24 4.36h-3.07zm-2.52-1.47c.61.52 1.24 1.03 1.9 1.47h-2.04c.04-.5.09-.99.14-1.47zm10.35 1.47c-3.34-2.56-6.52-5.13-9.35-8.27.19-.97.4-1.9.62-2.78 3.51 4.03 7.52 7.91 12.05 10.78.21.13.47-.19.27-.35-4.28-3.46-8.43-6.85-12.19-10.89-.01-.01-.01 0-.02-.01a49 49 0 0 1 .96-3.3c4 3.23 7.92 6.59 12.08 9.62.16.12.37-.15.22-.28-3.91-3.39-8.09-6.46-12.16-9.65-.01-.01-.02 0-.03-.01.5-1.48 1.02-2.81 1.56-4 3.48 3.92 7.31 7.78 11.67 10.7.18.12.39-.15.23-.29-3.99-3.56-8.02-6.94-11.7-10.83.39-.85.79-1.62 1.19-2.33 3.09 3.13 6.11 6.5 9.53 9.22.18.14.4-.07.25-.25-2.82-3.39-6.3-6.35-9.53-9.39.39-.66.76-1.26 1.13-1.79 2.55 2.64 5.08 5.41 7.93 7.66.17.13.37-.07.24-.24-2.31-2.84-5.16-5.34-7.87-7.85.32-.45.63-.85.93-1.21 2.02 1.95 4.01 4.01 6.25 5.68 2.06 6.71 2.29 16.89 2.3 20.08h-6.56z" fill="#000000" stroke-width="none" opacity="1"></path></g><g id="svga-group-head" transform="matrix(1,0,0,1,0,0)"><g id="svga-group-ears-left-move" transform="matrix(1,0,0,1,0,0)"><g id="svga-group-ears-left" transform="matrix(1,0,0,1,0,0)"><path id="SvgjsPath61526" d="M60.8 80.5c-.2-.3-3.3-4.3-5.9-6.7s-3.4-2.4-4.6-.9c-1.3 1.5-2.9 9.1-2.5 12.4.4 3.4 3.6 8.7 5.2 11.7 1.7 3 3.3 6.7 5.1 6.3 1.9-.4 4.4-4.6 5.7-7.7 1.2-3.1.6-10.9-3-15.1z" fill="#ffffff" stroke-width="none" opacity="1"></path><path id="SvgjsPath61527" d="M52.9 98.9c-.3-.5-.5-1-.8-1.4l-.6-1c-1.8-3.1-4.4-7.8-4.8-11-.4-3.5 1.2-11.4 2.7-13.2.6-.7 1.2-1.3 2.2-1.4 1.2-.1 2.3.7 3.9 2.2 1.6 1.4 3.5 3.6 5.8 6.5l.2.3c3.9 4.6 4.5 12.8 3.2 16.1-1.1 3-3.9 7.8-6.4 8.3h-.5c-2 .1-3.4-2.6-4.9-5.4zm7.2-17.8s-.1-.1-.2-.3c-2.2-2.8-4.1-5-5.6-6.3-1.2-1.1-2.1-1.7-2.4-1.7-.2 0-.4.2-.8.7-1 1.2-2.6 8.4-2.3 11.7.3 2.8 2.8 7.3 4.5 10.3l.6 1c.3.5.5 1 .8 1.4.9 1.7 2.5 4.6 3.3 4.4 1.2-.2 3.6-3.7 4.9-7.1 1.1-2.8.4-10.2-2.8-14.1z" fill="#000000" stroke-width="none" opacity="1"></path><path id="SvgjsPath61528" d="M50 87c-.3-2.3-.5-7.8.8-9.6 2.2-2.9 6 6.4 6.9 9.3 0 .1.1.2.1.3.2.3-.1.7-.4.6-.4-.2-.9-.6-1.3-.8-1.1-.5-1.6.5-1.3 1.8.4 1.8 1.4 2.9 2.2 4.3.1.2 0 .4-.2.3-1.6-.9-3.5-4.5-3.1-6.6.3-2 1.9-1.8 3.1-.8-.7-1.7-1.5-3.3-2.5-4.8-.6-.9-1.2-2-2.2-2.2-1.2-.2-1 .3-1.2 1.8-.8 4.8-.3 10.4 2.5 14.5.1.1 0 .2-.1.1-1.7-2.3-2.9-4.9-3.3-8.2z" fill="#000000" stroke-width="none" opacity="1"></path></g></g><g id="svga-group-ears-right-move" transform="matrix(1,0,0,1,0,0)"><g id="svga-group-ears-right" transform="matrix(1,0,0,1,0,0)"><path id="SvgjsPath61529" d="M139.2 80.5c.2-.3 3.3-4.3 5.9-6.7 2.6-2.4 3.4-2.4 4.6-.9s2.9 9.1 2.5 12.4c-.4 3.4-3.6 8.7-5.2 11.7-1.7 3-3.3 6.7-5.1 6.3s-4.4-4.6-5.7-7.7c-1.2-3.1-.6-10.9 3-15.1z" fill="#ffffff" stroke-width="none" opacity="1"></path><path id="SvgjsPath61530" d="M142.1 104.4h-.5c-2.5-.5-5.2-5.4-6.4-8.3-1.3-3.4-.7-11.5 3.2-16.1l.2-.3c2.3-2.9 4.2-5.1 5.8-6.5 1.6-1.4 2.7-2.2 3.9-2.2 1 .1 1.6.7 2.2 1.4 1.5 1.8 3.1 9.7 2.7 13.2-.4 3.2-3 7.9-4.8 11l-.6 1c-.3.5-.5.9-.8 1.4-1.4 2.7-2.8 5.4-4.9 5.4zm-2.2-23.3c-3.2 3.9-3.9 11.2-2.8 14.1 1.3 3.4 3.7 6.9 4.9 7.1.8.2 2.4-2.7 3.3-4.4.3-.5.5-1 .8-1.4l.6-1c1.7-3 4.2-7.5 4.5-10.3.4-3.3-1.3-10.5-2.3-11.7-.4-.4-.6-.7-.8-.7-.3 0-1.2.5-2.4 1.7-1.5 1.4-3.3 3.5-5.6 6.3 0 .2-.1.3-.2.3z" fill="#000000" stroke-width="none" opacity="1"></path><path id="SvgjsPath61531" d="M150 87c.3-2.3.5-7.8-.8-9.6-2.2-2.9-6 6.4-6.9 9.3 0 .1-.1.2-.1.3-.2.3.1.7.4.6.4-.2.9-.6 1.3-.8 1.1-.5 1.6.5 1.3 1.8-.4 1.8-1.4 2.9-2.2 4.3-.1.2 0 .4.2.3 1.6-.9 3.5-4.5 3.1-6.6-.3-2-1.9-1.8-3.1-.8.7-1.7 1.5-3.3 2.5-4.8.6-.9 1.2-2 2.2-2.2 1.2-.2 1 .3 1.2 1.8.8 4.8.3 10.4-2.5 14.5-.1.1 0 .2.1.1 1.7-2.3 2.9-4.9 3.3-8.2z" fill="#000000" stroke-width="none" opacity="1"></path></g></g><g id="svga-group-faceshape-wrap" transform="matrix(1,0,0,1,0,0)"><g id="svga-group-faceshape-single"><path id="SvgjsPath61600" d="M143.8 67.9c-.1-3.3-.3-8.9-1.4-14.2-2.3-11.4-15.1-28.8-42.4-28.8S63.6 38.3 59.5 48.2c-2.5 6.2-3.2 15.2-3.4 19.7 0 0 2.7 50.9 7.7 59.6 8.7 15.2 57.9 15.9 69.6 5.2 7.4-6.7 10.5-45 10.4-64.8z" fill="#ffffff" stroke-width="none" opacity="1"></path><path id="SvgjsPath61601" d="M102.1 141.8c-6.1 0-12.2-.4-17.7-1.3-8.9-1.4-17.6-5.7-21.5-12.5-5.1-8.9-7.9-58-7.9-60.2.2-4.8.9-13.8 3.4-20.1 6.6-16.2 20.1-24 41.5-24 12.3 0 23.2 3.6 31.3 10.4 6.3 5.2 10.9 12.5 12.2 19.3 1.1 5.5 1.3 11.4 1.4 14.4v4.1c.2 28-4.1 55.4-10.7 61.5-5.7 5.4-17 8.4-32 8.4zM57.3 67.9c0 18 3.7 52.4 7.6 59 2.7 4.7 7.9 9.6 19.9 11.4 20.3 3.1 41.1-.2 48-6.5 6.4-5.9 10.1-40.8 9.9-59.8v-4.1c0-3-.3-8.7-1.4-14-1.3-6.4-5.6-13.1-11.5-18-7.7-6.5-18-9.9-29.9-9.9-20.3 0-33.2 7.4-39.4 22.6-2.3 5.9-3 14.6-3.2 19.3z" fill="#000000" stroke-width="none" opacity="1"></path></g></g><g id="svga-group-mouth-single-move" transform="matrix(1,0,0,1,0,0)"><g id="svga-group-mouth-single" transform="matrix(1,0,0,1,0,0)"><path id="SvgjsPath61494" d="M114.1 114.2c0-.7-1.2-.6-1.1.1.2 5.2-10.1 3.8-13.2 3.8-2.2 0-4.3.1-6.4.1-1.8 0-8.2-.3-8.1-3.2 0-.7-1.1-.9-1.1-.2-.1 2.3 2.3 4.5 4.3 4.6 3.6.2 7.3-.1 11-.1 3.4 0 7.3.4 10.6-.4 2.2-.5 4.1-2.1 4-4.7zm-7.8 8.2c-4.7 2.9-10.5 2.6-14.8-.9-.6-.5-1.3.4-.7.9 4.8 3.8 11.1 4.1 16.3.9.6-.4-.1-1.3-.8-.9z" fill="#000000" stroke-width="none" opacity="1"></path></g></g><g id="svga-group-eyes-left-move" transform="matrix(1,0,0,1,0,0)"><g id="svga-group-eyes-left" transform="matrix(1,0,0,1,0,0)"><g id="svga-group-eyesback-left"></g><g id="svga-group-eyesiriswrapper-left"><g id="svga-group-eyesiriscontrol-left" transform="matrix(1,0,0,1,0,0)"><g id="svga-group-eyesiris-left" transform="matrix(1,0,0,1,0,0)"><path id="SvgjsPath61653" d="M74.4 87.5c.3 1.2 1 2.2 1.9 2.9.2.2.5.3.7.5s.5.3.8.3c.5.2 1.1.3 1.7.2.6 0 1.1-.2 1.7-.4.5-.2 1-.6 1.4-1.1.4-.4.7-1 .8-1.5.2-.6.2-1.2.1-1.7-.2-1.2-.8-2.2-1.7-2.9-.4-.4-.9-.6-1.5-.8-.6-.1-1.1-.2-1.7-.2s-1.1.2-1.7.4c-.5.2-.9.6-1.3 1-.2.2-.4.4-.6.7-.2.2-.3.5-.4.8-.1.3-.2.6-.2.9.1.3 0 .6 0 .9-.1-.7-.1-1.3 0-1.9l.3-.9c.2-.3.3-.5.5-.8.2-.2.4-.5.6-.7.2-.2.5-.4.8-.5.6-.3 1.2-.4 1.8-.5.6-.1 1.3 0 1.9.2.6.2 1.2.5 1.7.9s.9.9 1.2 1.5c.3.6.4 1.2.5 1.8v.9c0 .3-.1.6-.2.9-.2.6-.5 1.1-.9 1.6s-.9.9-1.4 1.2-1.1.8-1.7.8c-.6.1-1.3 0-1.9-.2-.6-.2-1.2-.6-1.6-1s-.8-.9-1.1-1.5c-.4-.5-.5-1.1-.5-1.8zm5.5.6c.2-.2.3-.5.3-.8 0-.7-.5-1.2-1.2-1.2h-.1c.1.2.1.4.1.5 0 .4-.4.6-.8.4 0 0-.2-.1-.2-.2-.1.1-.1.3-.1.4 0 .7.5 1.2 1.2 1.2.2 0 .3 0 .4-.1.1-.1.2-.2.4-.2zm-1.1-2.4c0 .1 0 .1.1.2h.2c.8 0 1.5.7 1.5 1.5 0 .3-.1.6-.2.8.1.1.2.1.2.2.2-.3.3-.7.3-1 0-1-.8-1.8-1.8-1.8h-.3v.1zm.6 3h-.3c-.8 0-1.5-.7-1.5-1.5 0-.2.1-.5.2-.7-.1-.1-.1-.2-.2-.3-.2.3-.3.6-.3 1 0 1 .8 1.8 1.8 1.8.2 0 .3 0 .4-.1-.1 0-.1-.1-.1-.2z" fill="#000000" stroke-width="none" opacity="1"></path></g></g></g><g id="svga-group-eyesfront-left"><path id="SvgjsPath61564" d="M79.02 72.12c-8.18 0-14.81 6.63-14.81 14.81s6.63 14.81 14.81 14.81 14.81-6.63 14.81-14.81-6.63-14.81-14.81-14.81zm9.11 18.2c-.44.44-7.93 2.84-9.02 2.97-1.09.14-5.74 1.16-8.41.41-2.67-.74-4.27-1.7-4.27-1.7s2.9-3.76 4.78-5.26c1.88-1.5 4.58-3.55 5.13-3.55s4.68.1 6.25.65c1.57.55 4.14 2.29 4.82 3.32.68 1.01 1.16 2.72.72 3.16z" fill="#ffffff" stroke-width="none" opacity="1"></path><path id="SvgjsPath61565" d="M89.35 93c-.19-.29-.44-.54-.7-.78.05-.06.1-.11.11-.13.01-.01.02-.03.03-.05.06.04.11.08.18.11.16.07.39-.09.26-.26-.27-.38-.6-.7-.87-1.08.24-.16.4-.32.48-.47.77-1.54-1.72-5.07-3.98-6.3-.38-.21-.86-.38-1.39-.53.12-.23.23-.45.36-.66.09-.14-.13-.32-.24-.18-.18.23-.39.47-.58.72-1.08-.26-2.3-.42-3.37-.51.36-.38.66-.86.94-1.27.02-.03.02-.06.02-.09.4-.07.83-.13 1.26-.18-.16.35-.36.7-.51 1.06-.05.11.09.25.18.14.28-.33.46-.71.61-1.12.02-.04.01-.08-.02-.11 2.35-.24 4.82-.17 5.16-.12.28.05.57-.14.63-.42.06-.28-.1-.56-.39-.63-.5-.12-7.76-.35-9.99 1.35-.31.24-.77.56-1.33.96-3.3 2.33-9.45 6.67-10.89 10.65-.1.28.04.59.32.69.06.02.12.03.18.03.07 0 .14-.04.21-.06.35.29.77.53 1.13.78.5.34 1.01.71 1.57.94.19.08.32-.2.19-.33-.42-.43-.97-.77-1.47-1.11-.35-.24-.69-.51-1.06-.71.1-.25.22-.5.36-.76 1.23.98 5.02 1.97 7.57 1.97.28 0 .55-.01.8-.04 1.64-.17 10.04-1.93 12.85-3.44.04.08.08.16.12.23-.05.03-.1.06-.14.11-.04.04-3.8 4.44-6.43 5.43-.28.1-.42.42-.31.69.08.21.29.35.5.35.06 0 .13-.01.19-.04 1.19-.45 2.52-1.46 3.69-2.51.04.06.08.12.12.17.1.12.31-.01.26-.15-.03-.09-.07-.18-.12-.26l.44-.41c.13.19.27.37.47.51.11.08.22-.07.17-.17-.1-.21-.23-.41-.35-.61.17-.17.34-.33.49-.49.14.17.29.32.49.46.08.05.19-.05.13-.13-.13-.19-.24-.4-.36-.6.13-.13.26-.27.37-.39.12.19.25.37.42.51.16.14.37-.03.29-.22-.1-.23-.25-.42-.41-.61.1-.11.21-.22.29-.31.24.28.51.52.85.65.16.04.3-.14.22-.27zM79.33 81.81c.26-.08.54-.15.84-.21-.33.42-.69.82-1 1.25l-.56-.03c.27-.31.51-.67.72-1.01zm8.53 8.06c-.65.84-9.58 3.22-12.87 3.56-2.82.3-7.26-1.18-7.67-1.76 0-.01-.01-.01-.02-.02 2.18-3.1 6.7-6.35 9.25-8.15v.03c.09.27.37.42.64.35.44-.06 3.27.02 5.43.52.03.03.08.04.12.03.61.15 1.16.33 1.58.56 2.07 1.13 3.92 4.13 3.54 4.88z" fill="#000000" stroke-width="none" opacity="1"></path></g></g></g><g id="svga-group-eyes-right-move" transform="matrix(1,0,0,1,0,0)"><g id="svga-group-eyes-right" transform="matrix(1,0,0,1,0,0)"><g id="svga-group-eyesback-right"></g><g id="svga-group-eyesiriswrapper-right"><g id="svga-group-eyesiriscontrol-right" transform="matrix(1,0,0,1,0,0)"><g id="svga-group-eyesiris-right" transform="matrix(1,0,0,1,0,0)"><path id="SvgjsPath61654" d="M116.3 87.5c.3 1.2 1 2.2 1.9 2.9.2.2.5.3.7.5s.5.3.8.3c.5.2 1.1.3 1.7.2.6 0 1.1-.2 1.7-.4.5-.2 1-.6 1.4-1.1.4-.4.7-1 .8-1.5.2-.6.2-1.2.1-1.7-.2-1.2-.8-2.2-1.7-2.9-.4-.4-.9-.6-1.5-.8-.6-.1-1.1-.2-1.7-.2s-1.1.2-1.7.4c-.5.2-.9.6-1.3 1-.2.2-.4.4-.6.7-.2.2-.3.5-.4.8-.1.3-.2.6-.2.9.1.3.1.6 0 .9-.1-.7-.1-1.3 0-1.9l.3-.9c.2-.3.3-.5.5-.8.2-.2.4-.5.6-.7.2-.2.5-.4.8-.5.6-.3 1.2-.4 1.8-.5.6-.1 1.3 0 1.9.2.6.2 1.2.5 1.7.9s.9.9 1.2 1.5c.3.6.4 1.2.5 1.8v.9c0 .3-.1.6-.2.9-.2.6-.5 1.1-.9 1.6s-.9.9-1.4 1.2-1.1.8-1.7.8c-.6.1-1.3 0-1.9-.2-.6-.2-1.2-.6-1.6-1s-.8-.9-1.1-1.5c-.3-.5-.5-1.1-.5-1.8zm5.5.6c.2-.2.3-.5.3-.8 0-.7-.5-1.2-1.2-1.2h-.1c.1.2.1.4.1.5 0 .4-.4.6-.8.4-.1-.1-.2-.2-.3-.2-.1.1-.1.3-.1.4 0 .7.5 1.2 1.2 1.2.2 0 .3 0 .4-.1.2-.1.4-.2.5-.2zm-1.1-2.4c0 .1 0 .1.1.2h.2c.8 0 1.5.7 1.5 1.5 0 .3-.1.6-.2.8.1.1.2.1.2.2.2-.3.3-.7.3-1 0-1-.8-1.8-1.8-1.8h-.3v.1zm.6 3h-.3c-.8 0-1.5-.7-1.5-1.5 0-.2.1-.5.2-.7-.1-.1-.1-.2-.2-.3-.2.3-.3.6-.3 1 0 1 .8 1.8 1.8 1.8.2 0 .3 0 .4-.1 0 0-.1-.1-.1-.2z" fill="#000000" stroke-width="none" opacity="1"></path></g></g></g><g id="svga-group-eyesfront-right"><path id="SvgjsPath61566" d="M120.98 72.12c-8.18 0-14.81 6.63-14.81 14.81s6.63 14.81 14.81 14.81 14.81-6.63 14.81-14.81-6.63-14.81-14.81-14.81zm7.55 21.59c-2.67.75-7.31-.27-8.41-.41-1.09-.14-8.58-2.53-9.02-2.97-.44-.44.03-2.15.72-3.18.68-1.03 3.25-2.77 4.82-3.32 1.57-.55 5.71-.65 6.25-.65s3.25 2.05 5.13 3.55 4.78 5.26 4.78 5.26-1.6.97-4.27 1.72z" fill="#ffffff" stroke-width="none" opacity="1"></path><path id="SvgjsPath61569" d="M133.93 93.1c-1.44-3.99-7.59-8.32-10.89-10.65-.56-.4-1.02-.72-1.33-.96-2.23-1.7-9.49-1.47-9.99-1.35-.28.07-.44.35-.38.63s.34.47.63.42c.17-.03.86-.06 1.79-.05.01.02.01.05.03.06.83.69 1.84 1.56 2.91 2.08-.15.03-.29.07-.43.1-.51-.28-1.07-.53-1.62-.76-.52-.28-1.07-.51-1.59-.77-.12-.06-.22 0-.27.09-.07.05-.1.15 0 .21.02.01.04.02.05.03.01 0 0 .01.01.01.59.41 1.2.83 1.87 1.1.21.12.42.24.63.35-.36.12-.69.25-.96.4-.04.02-.08.05-.12.07-.22-.15-.45-.28-.68-.42-.46-.27-.91-.54-1.37-.82-.22-.13-.4.2-.2.34.44.3.88.61 1.31.92.15.1.29.2.44.3-.17.12-.34.25-.51.4-.21-.16-.44-.3-.65-.44-.51-.34-1.03-.67-1.54-1.01-.2-.13-.46.19-.26.34.48.38.96.77 1.44 1.14.17.13.34.27.52.41-.16.16-.32.32-.47.49-.21-.11-.43-.22-.63-.34-.51-.28-1.02-.55-1.53-.83-.16-.09-.37.15-.21.27.45.35.89.68 1.37.98.2.12.4.26.6.38-.13.16-.26.31-.38.47-.16-.07-.32-.14-.48-.22-.37-.18-.73-.4-1.12-.53-.25-.08-.43.26-.25.43.31.3.73.51 1.12.71.12.06.23.12.35.17-.11.18-.21.35-.3.53-.34-.21-.75-.34-1.13-.45-.11-.03-.19.13-.08.19.35.18.69.41 1.03.61-.08.17-.16.35-.21.52-.12-.05-.24-.1-.37-.15-.08-.03-.14.1-.06.15.13.07.25.13.37.19-.17.58-.19 1.1.01 1.49.09.18.31.37.63.56-.03.1-.05.2-.08.31-.15-.02-.3.01-.42.12-.23.19-.25.53-.06.76.16.19 3.98 4.65 6.87 5.74.06.02.13.04.19.04.22 0 .42-.13.5-.35a.525.525 0 0 0-.31-.69c-1.03-.39-2.23-1.3-3.31-2.27 0-.04.01-.09.01-.13l.15-1.32c.03-.27-.43-.33-.47-.06-.06.36-.11.72-.17 1.07-.25-.23-.5-.47-.73-.7.02-.16.04-.33.07-.49.06-.33.15-.65.26-.97 3.64 1.23 9.28 2.39 10.59 2.53.25.03.51.04.8.04 2.56 0 6.34-.99 7.58-1.97.17.31.32.61.43.91.08.22.29.35.51.35a.518.518 0 0 0 .49-.71zm-12.87-10.75c.17.13.38.28.62.46h-.43c-.4-.34-.91-.56-1.38-.79-.26-.13-.51-.27-.77-.4.83.16 1.54.4 1.96.73zm-5.06-.21c-.56-.3-1.1-.64-1.62-1 .47.01.99.03 1.52.06.49.29.96.59 1.44.9.42.27.87.61 1.36.75.24.07.46-.26.26-.44-.38-.34-.9-.54-1.36-.75-.29-.13-.57-.27-.85-.4.44.04.88.09 1.31.15.69.44 1.46 1.05 2.26 1.41-.74.04-1.61.12-2.49.25-.56-.35-1.24-.61-1.83-.93zm-3.87 9.31c-.04.24-.09.48-.13.73-.24-.25-.43-.47-.54-.6.02-.14.03-.28.04-.41.19.09.4.18.63.28zm.67 1.45c-.01.03-.01.07-.02.1-.16-.16-.31-.32-.45-.46.06-.32.1-.64.15-.95.18.07.38.14.58.22-.11.35-.2.72-.26 1.09zm19.1-1.23c-.4.58-4.85 2.05-7.67 1.76-3.29-.34-12.21-2.71-12.87-3.56-.25-.5.51-2.02 1.66-3.31.01-.01.02-.02.03-.04.55-.61 1.18-1.17 1.84-1.53.53-.29 1.28-.51 2.09-.67.01 0 .01 0 .02.01.08.02.13-.01.17-.04 2.05-.39 4.45-.45 4.84-.4.27.07.55-.09.64-.35v-.03c2.55 1.8 7.07 5.04 9.25 8.15.02 0 .01 0 0 .01z" fill="#000000" stroke-width="none" opacity="1"></path></g></g></g><g id="svga-group-facehighlight-single"></g><g id="svga-group-eyebrows-left-move" transform="matrix(1,0,0,1,0,0)"><g id="svga-group-eyebrows-left-rotate" transform="matrix(1,0,0,1,0,0)"><g id="svga-group-eyebrows-left" transform="matrix(1,0,0,1,0,0)"><path id="SvgjsPath61506" d="M86.9 72.3c.2-.2.5-.1.6.1.8 1.3 2.4 4.7 2.5 4.9.1.2 0 .6-.2.7-.1 0-.1.1-.2.1-.2 0-.3-.1-.4-.3 0 0-1.7-3.5-2.4-4.8-.2-.2-.1-.5.1-.7zm-3.1-.5c.2-.2.5-.2.6 0 .9 1 2.8 3.6 2.9 3.7.2.2.1.5-.1.7-.1.1-.2.1-.3.1-.1 0-.3-.1-.3-.2 0 0-1.9-2.6-2.8-3.6-.1-.2-.1-.5 0-.7zm-5.4-1c-.2-.2-.3-.5-.2-.7.1-.2.4-.3.6-.2 1.7 1.2 5.2 5.9 5.4 6.1.2.2.1.5-.1.7-.1.1-.2.1-.3.1-.1 0-.2-.1-.3-.2 0 .1-3.5-4.6-5.1-5.8zm-4.3-.8c.1-.2.4-.4.6-.2 1.3.7 5.3 3.4 5.4 3.5.2.1.3.5.2.7-.1.2-.2.2-.4.2-.1 0-.2 0-.2-.1 0 0-4.1-2.8-5.4-3.5-.2 0-.3-.3-.2-.6zm-.7 1.8c.1-.2.4-.3.6-.2.1.1 3.5 2.4 3.9 2.7.2.2.3.5.1.7-.1.2-.2.2-.4.2-.1 0-.2 0-.2-.1-.3-.2-2.7-1.8-3.8-2.6-.2-.2-.3-.5-.2-.7zm-5.2-.2c.1-.3.3-.4.6-.3 2.7 1 5.5 2.8 5.6 2.8.2.1.3.4.2.7-.1.2-.2.3-.4.3-.1 0-.2 0-.2-.1 0 0-2.8-1.8-5.5-2.8-.2-.1-.3-.4-.3-.6zm1 2.4c1.1.2 3.6 1.3 3.7 1.3.2.1.3.4.2.7-.1.2-.2.3-.4.3h-.2c-.7-.3-2.7-1.2-3.5-1.3-.2 0-.4-.3-.4-.6.2-.2.4-.4.6-.4zm-1.1 2.3c-.4-.1-3.6-.5-4.4-.3-.2.1-.5-.1-.6-.3s.1-.6.3-.6c1-.3 4.4.1 4.9.3.2.1.4.4.3.6-.1.2-.2.3-.4.3h-.1zm-5.3 1.3c.8-.3 4.3-.6 5.1-.6.2 0 .4.2.4.5s-.1.5-.4.5c-.8 0-4.2.3-4.7.6H63c-.2 0-.3-.1-.4-.3-.1-.3 0-.6.2-.7zm27.8-3.4c.2-.1.5.1.5.4.3 1.3.6 4.5.7 4.6 0 .3-.1.5-.4.6h-.1c-.2 0-.4-.2-.4-.4 0 0-.4-3.2-.6-4.5-.1-.4.1-.7.3-.7zM83 73.1c-.1 0-.3-.1-.3-.2l-1.9-2.6c-.2-.2-.1-.5.1-.7.2-.2.5-.2.6.1l1.9 2.6c.2.2.1.5-.1.7-.1.1-.2.1-.3.1zm6.8 2.1h-.1c-.2 0-.4-.1-.4-.3l-1.2-4c-.1-.3.1-.6.3-.7.2-.1.5.1.6.3l1.2 4c0 .3-.1.6-.4.7z" fill="#000000" stroke-width="none" opacity="1"></path></g></g></g><g id="svga-group-eyebrows-right-move" transform="matrix(1,0,0,1,0,0)"><g id="svga-group-eyebrows-right-rotate" transform="matrix(1,0,0,1,0,0)"><g id="svga-group-eyebrows-right" transform="matrix(1,0,0,1,0,0)"><path id="SvgjsPath61507" d="M113.1 72.3c-.2-.2-.5-.1-.6.1-.8 1.3-2.4 4.7-2.5 4.9-.1.2 0 .6.2.7.1 0 .1.1.2.1.2 0 .3-.1.4-.3 0 0 1.7-3.5 2.4-4.8.2-.2.1-.5-.1-.7zm3.1-.5c-.2-.2-.5-.2-.6 0-.9 1-2.8 3.6-2.9 3.7-.2.2-.1.5.1.7.1.1.2.1.3.1.1 0 .3-.1.3-.2 0 0 1.9-2.6 2.8-3.6.1-.2.1-.5 0-.7zm5.4-1c.2-.2.3-.5.2-.7-.1-.2-.4-.3-.6-.2-1.7 1.2-5.2 5.9-5.4 6.1-.2.2-.1.5.1.7.1.1.2.1.3.1.1 0 .2-.1.3-.2 0 .1 3.5-4.6 5.1-5.8zm4.3-.8c-.1-.2-.4-.4-.6-.2-1.3.7-5.3 3.4-5.4 3.5-.2.1-.3.5-.2.7.1.2.2.2.4.2.1 0 .2 0 .2-.1 0 0 4.1-2.8 5.4-3.5.2 0 .3-.3.2-.6zm.7 1.8c-.1-.2-.4-.3-.6-.2-.1.1-3.5 2.4-3.9 2.7-.2.2-.3.5-.1.7.1.2.2.2.4.2.1 0 .2 0 .2-.1.3-.2 2.7-1.8 3.8-2.6.2-.2.3-.5.2-.7zm5.2-.2c-.1-.3-.3-.4-.6-.3-2.7 1-5.5 2.8-5.6 2.8-.2.1-.3.4-.2.7.1.2.2.3.4.3.1 0 .2 0 .2-.1 0 0 2.8-1.8 5.5-2.8.2-.1.3-.4.3-.6zm-1 2.4c-1.1.2-3.6 1.3-3.7 1.3-.2.1-.3.4-.2.7.1.2.2.3.4.3h.2c.7-.3 2.7-1.2 3.5-1.3.2 0 .4-.3.4-.6s-.4-.4-.6-.4zm1.1 2.3c.4-.1 3.6-.5 4.4-.3.2.1.5-.1.6-.3.1-.3-.1-.6-.3-.6-1-.3-4.4.1-4.9.3-.2.1-.4.4-.3.6.1.2.2.3.4.3h.1zm5.3 1.3c-.8-.3-4.3-.6-5.1-.6-.2 0-.4.2-.4.5s.2.5.4.5c.8 0 4.2.3 4.7.6h.2c.2 0 .4-.1.4-.3.1-.3 0-.6-.2-.7zm-27.8-3.4c-.2-.1-.5.1-.5.4-.3 1.3-.6 4.5-.7 4.6 0 .3.1.5.4.6h.1c.2 0 .4-.2.4-.4 0 0 .4-3.2.6-4.5.1-.4-.1-.7-.3-.7zm7.6-1.1c.1 0 .3-.1.3-.2l1.9-2.6c.2-.2.1-.5-.1-.7-.2-.2-.5-.2-.6.1l-1.9 2.6c-.2.2-.1.5.1.7.1.1.2.1.3.1zm-6.8 2.1h.1c.2 0 .4-.1.4-.3l1.2-4c.1-.3-.1-.6-.3-.7-.2-.1-.5.1-.6.3l-1.2 4c0 .3.1.6.4.7z" fill="#000000" stroke-width="none" opacity="1"></path></g></g></g><g id="svga-group-beardwrap" transform="matrix(1,0,0,1,0,0)"><g id="svga-group-beard-single-move" transform="matrix(1,0,0,1,0,0)"><g id="svga-group-beard-single" transform="matrix(1,0,0,1,0,0)"></g></g></g><g id="svga-group-mustache-single-move" transform="matrix(1,0,0,1,0,0)"><g id="svga-group-mustache-single" transform="matrix(1,0,0,1,0,0)"></g></g><g id="svga-group-nose-single-move" transform="matrix(1,0,0,1,0,0)"><g id="svga-group-nose-single" transform="matrix(1,0,0,1,0,0)"><path id="SvgjsPath61694" d="M94.63 99.18s-5.25 4.01-4.56 7.12c.69 3.11 5.39-.14 5.39-.14s1.04 2.49 3.59 2.9c2.56.41 4.15-3.11 4.15-3.11s4.84 2 6.08 1.04c1.24-.97-.07-3.04-1.17-4.84-1.11-1.79-6.3-6.98-13.48-2.97z" fill="#ffffff" stroke-width="none" opacity="1"></path><path id="SvgjsPath61695" d="M103.12 103.76c-.77 1.94-1.89 4.64-4.41 4.3-2.57-.35-2.86-3.32-3.01-5.42-.26-3.59-.31-7.2-.24-10.8.14-7.65.97-15.27 2.43-22.78.18-.95-1.27-1.36-1.46-.4-1.97 10.17-2.81 20.54-2.4 30.9.05 1.32.04 2.95.25 4.53-.33-.24-.82-.26-1.08.2-.01.02-.03.04-.04.06a.748.748 0 0 0-.56-.12c-.86.15-1.85.42-2.33 1.23-.39.65-.35 1.58.17 2.15 1.56 1.72 3.34-1.29 4.02-2.48.41 1.93 1.28 3.64 3.22 4.36 3.62 1.35 5.81-2.56 6.9-5.31.36-.93-1.1-1.32-1.46-.42zm-11.6 2.8c-.09-.04.09-.4.17-.47.13-.12.31-.19.5-.25-.22.29-.57.76-.67.72z" fill="#000000" stroke-width="none" opacity="1"></path><path id="SvgjsPath61696" d="M109.87 106.3c-.42-1.58-1.78-2.62-3.32-2.79-.34-.38-.98-.43-1.19.05-.63.19-.54 1.01-.04 1.31.34 1.78 2.09 3.04 4.02 2.36.39-.14.64-.51.53-.93zm-2.95-1.21c.4.15.76.4 1.04.74-.45-.1-.83-.35-1.04-.74z" fill="#000000" stroke-width="none" opacity="1"></path></g></g><g id="svga-group-hair-front" transform="matrix(1,0,0,1,0,0)"><path id="SvgjsPath61620" d="M56.1 135.7c-.8-1.8-1.2-3.5-1.5-5.4 0-.2-.4-.3-.5-.1-.4 2 .2 4.2 1.4 5.8.3.2.7 0 .6-.3zm1.3-3.6c-.7-1.5-.8-3.2-.7-4.8 0-.2-.3-.2-.3 0-.7 1.7-.4 3.6.6 5.1.2.2.5 0 .4-.3zm.9-9.3c0-.2-.3-.2-.3 0-.4 1.3-.3 2.8.1 4 .1.3.5.2.4-.1-.3-1.3-.3-2.6-.2-3.9zm1.1-2.9c-.2.5-.3 1.1-.5 1.6-.1.3.4.4.4.1.1-.5.4-1.1.4-1.7.1-.1-.2-.1-.3 0zm2.1 11.5c0-.2-.4-.3-.4-.1-.6 2.6-.4 5.3.2 7.9.1.4.6.2.5-.1-.4-2.6-.4-5.1-.3-7.7zm2.8 2.8c-.4-2.1-.7-4.3-1.1-6.4-.1-.3-.4-.2-.4.1-.1 2.2.4 4.4 1 6.5.1.4.6.2.5-.2zm1.7-7.1c-.1-.4-.2-.8-.3-1.1 0-.3 0-.7-.1-1-.1-.2-.4-.3-.6-.1-.4.7-.1 1.7.1 2.5.3.4 1.1.2.9-.3zm4.7 16.4c-.3 1.5-1.2 2.8-2.5 3.6-.3.1-.1.6.2.5 1.7-.7 2.8-2.2 2.8-4 0-.3-.4-.4-.5-.1zm.1-4.8c-.9 1.8-1.6 3.7-2.9 5.3-.2.2.1.5.3.3 1.5-1.5 2.9-3.3 3.1-5.5 0-.2-.4-.3-.5-.1zm.1-5.3c-.7 2-1.3 3.9-2.3 5.8-.2.3.3.6.5.3 1.2-1.7 2.3-3.8 2.3-6 0-.4-.4-.4-.5-.1zm6.1 14.3c-.1-.4-.5-.7-.7-1-.3-.4-.5-.8-.6-1.3-.1-.4-.7-.2-.6.2.1.5.3 1 .5 1.4s.5.9.9 1.1c.3 0 .6-.1.5-.4zm.4-4.1c-.2-.5-.6-1-.9-1.5-.3-.6-.5-1.2-.5-1.9 0-.5-.8-.5-.8 0 .1 1.3.6 3.2 2 3.7.1.1.2-.2.2-.3zm-.9-7.8c-.2-.4-.5-.9-.7-1.3-.3-.4-1 0-.7.4.2.4.5.8.6 1.2.2.4.3.9.6 1.2.3.3.6 0 .7-.3 0-.3-.3-.8-.5-1.2zm46.8 16.4c-.3.5-.7 1-.9 1.5-.1.2.2.4.4.2.4-.4.6-1 .9-1.5.1-.2-.3-.5-.4-.2zm-1-4.3c-.3.6-.8 1.2-1 1.9 0 .1.1.2.2.2.7-.3 1-1.3 1.2-1.9 0-.4-.3-.5-.4-.2zm-.8-4.3c-.2.6-.5 1-.7 1.5-.1.2.2.5.4.3.5-.4.7-1.1.8-1.7 0-.2-.4-.3-.5-.1zm-.2-5.8c-.3.8-1 1.3-1.5 2-.2.2.1.6.4.5.9-.4 1.4-1.4 1.6-2.3 0-.4-.4-.5-.5-.2zm8.3 3.4c-.1-.3-.5-.3-.6 0-.4 1.9-1.6 4-.9 5.9.1.4.8.2.7-.2-.6-1.9 1.2-3.7.8-5.7zm-1.5-4.4c-.9.9-1.4 2.4-1.7 3.6-.1.3.4.4.5.1.2-.7.5-1.3.8-1.9.3-.5.6-1 .8-1.6.1-.2-.2-.4-.4-.2zm-.3-4.4c-.3.3-.5.8-.8 1.2s-.5.9-.7 1.3c-.1.2.2.4.3.2.3-.4.6-.8.9-1.3.2-.4.5-.8.7-1.2 0-.2-.3-.3-.4-.2zm7.8 2.4c-.5 1.5-1.2 3-2.3 4.2-.3.3.2.8.5.5 1.3-1.3 2.1-2.8 2.3-4.6 0-.3-.4-.3-.5-.1zm.2-4.2c-.6 1.4-1.3 2.9-2.3 4.1-.2.2.1.5.3.3 1.3-1.2 2.1-2.6 2.3-4.3 0-.2-.2-.2-.3-.1zm-.7-3.8c-.3.4-.6.9-.8 1.3-.3.5-.6.9-.9 1.4-.1.2.2.5.4.3.4-.4.7-.8 1-1.3.3-.4.7-.9.7-1.4.1-.2-.2-.5-.4-.3zm-.3-3.3c-.4.5-.6 1.1-.9 1.6-.1.3.3.5.4.3.3-.5.7-1.1.9-1.7.1-.2-.3-.3-.4-.2zm7.7 2.4c0-.5-.8-.5-.8 0 0 .7-.1 1.4-.4 2.1-.2.6-.6 1.1-.8 1.8-.1.2.2.4.4.3 1.4-.8 1.7-2.9 1.6-4.2zm-1.4-2c-.1.5-.3 1-.5 1.4s-.5.8-.7 1.2c-.1.3.2.5.5.4.9-.6 1.2-1.9 1.3-2.9 0-.4-.5-.4-.6-.1zm-1.4-3.4c-.1.4-.3.8-.5 1.2-.2.3-.6.5-.8.9-.1.1 0 .3.2.3 1 0 1.6-1.4 1.7-2.2 0-.4-.6-.5-.6-.2zm-.6-2.6c-.6.7-1.3.9-2.1 1.4-.1.1-.1.4.1.4 1 .2 1.9-.6 2.5-1.4.2-.3-.2-.7-.5-.4z" fill="#ffffff" stroke-width="none" opacity="1"></path><path id="SvgjsPath61621" d="M147.6 64.2c-.1-.5-.4-.9-.8-1.3.3-1.3.3-2.6 0-3.7-.1-.4-.3-.7-.6-1 .6-1.7.9-3.7.4-5.3-.4-1.2-1.3-1.9-2.2-2.1.1-.8.1-1.6 0-2.4-.2-1.4-1.2-2.4-2.4-2.8.1-.6.1-1.2.1-1.8 0-2.1-1.6-3.1-3.3-3 .1-.9.1-1.8-.2-2.7s-1.1-1.5-2-1.7l.3-1.8c.3-2.8-3.4-3.6-5-1.9-.3-1.4-1-2.6-2.1-3.6-.7-.6-1.9-.6-2.4.3-.1.3-.2.5-.3.8-.4-1.7-1.2-3.3-2.5-4.6-.9-.9-2.2-.4-2.6.7-.1.2-.1.4-.2.6-.5-1.3-1.2-2.5-2.1-3.5-.7-.8-2.3-.6-2.8.4-.1.2-.2.5-.3.7-.3-.6-.6-1.1-1-1.6-.6-.8-1.9-1-2.4 0-.3.5-.5 1-.7 1.5-.4-.8-.9-1.6-1.6-2.4-.9-.9-2.4-.4-2.7.7 0 .1-.1.2-.1.3-.4-.7-.8-1.4-1.3-2-.6-.7-2-.6-2.4.3-.3.6-.5 1.2-.7 1.7-.2-.7-.4-1.3-.7-2-.9-2-4.2-1.8-5.1.1-.3 0-.7.1-1 .3-1.2-2.2-4.5-1.7-5.5.6-.6-1-2.2-1.4-3.1-.7-.9.6-1.5 1.4-1.9 2.3 0-.1-.1-.1-.1-.2-.5-.9-1.6-1.1-2.4-.6-.6.3-1.2.8-1.7 1.3-.6-.7-1.4-.9-2.3-.4-1.3.7-2.3 1.9-3 3.3-.1-.1-.2-.3-.3-.4-.5-.6-1.5-.6-2.1-.3-1.4.9-2.3 2.4-2.8 3.9-.1-.2-.1-.3-.2-.5-.5-.9-1.7-1.2-2.6-.7-1.8 1.1-2.7 2.8-3.2 4.9-.6-.5-1.3-.4-2 .1-1.6 1.3-2.3 3.5-2.6 5.7-.6-.2-1.3-.1-1.8.5-1.6 2.1-2.4 4.8-2.5 7.6-.5-.1-1.1.1-1.4.7-1.3 3-1.1 6.1-.5 9.2-.9-.9-2.3-.4-2.7.8-1.1 3.2.1 6.7 1.9 9.7-.9-.2-1.7.4-1.7 1.4-.1 2.2.3 4.1 1.5 5.9 1.1 1.7 2.6 3.7 4.7 4.1 1.4.2 2.8-.2 3.6-1.5.7-1.1.6-3-.5-3.9-.8-.6-1.4-1.2-2.1-1.8.6-.2 1.1-.4 1.4-.8 1.3-1.3 1.1-3.2 0-4.5-.2-.3-.5-.6-.7-.9 2.6.3 4.1-3.5 2.3-5.4-.6-.6-1-1.5-1.3-2.5 1.9-.1 3.8-2 3.4-4.3-.1-.4-.2-.9-.3-1.3.1 0 .1.1.2.1 1.6.7 3.6.2 4-1.6.3-1.1.2-2.1-.1-3.2 2.4 1.1 5.8-.6 5.1-3.6 1.7.6 3.9-.1 4.4-2.1 0-.2.1-.4.1-.6 1.9.8 4.4.1 5-1.9 1.7.2 3.4-.5 3.7-2.5v-.1c.1.1.2.2.3.2 1.2.7 2.8.5 3.8-.5.6-.6 1-1.3 1.2-2 .2.6.5 1.2.8 1.7.6 1 1.7 1 2.5.5.9.8 2.4.8 3.4.1.4.3.9.5 1.3.7.5.2 1.2.3 1.7.1.1 0 .2-.1.3-.1.4-.1.8-.3 1.2-.6 1.1 1.3 3.1 1.6 4.4.6.8 1 2.2 1.3 3.3.9.4 2.4 3.1 3.1 4.9 2 1.1 1.2 3.1 1.6 4.5.9.6.7 1.5 1.1 2.4 1.2-.6 2.9 3.3 4.8 5.3 3 .3 1 1.6 1.6 2.7.7.3-.3.6-.5.9-.8-.3 1.5-.5 2.9-.7 4.4-.3 1.8 1.9 2.8 3 1.2.2-.2.3-.4.4-.7-.2.9-.5 1.8-.7 2.8-.3 1.5 1.4 3.3 2.8 2.2-.3 1.1-.7 2.2-1.1 3.3-.6 1.5 1.1 2.4 2.3 2-.4 1-.7 2.1-.6 3.4.1 1.1 1.2 1.8 2.2 1.4-.7 1.4-1.3 2.6-1.4 4.2-.1 1 .8 1.7 1.7 1.7-.6 1.2-1.2 2.4-1.3 3.7-.1 1.2 1.4 2.3 2.5 1.9 4.6-1.5 7.8-8.9 6.8-13.1z" fill="#000000" stroke-width="none" opacity="1"></path><path id="SvgjsPath61622" d="M92.7 28.1c-.1-1.5 0-3.1.1-4.6 0-.4-.6-.5-.7-.1-.7 2.9-.8 6.7.6 9.4.1.2.5.1.5-.1 0-1.5-.4-3-.5-4.6zm-6.3 2.7c-.2-1.5-.2-3-.3-4.5 0-.4-.6-.4-.6 0-.3 2.8-.2 6.4 1 9 .1.2.4.1.4-.1 0-1.5-.4-3-.5-4.4zm-7.3-2.6c0-.4-.6-.5-.7-.1-1.1 3.5-.3 7.7 1.4 10.9.2.4.6.1.6-.2-.6-3.7-1.6-6.9-1.3-10.6zM74.7 40c-1-2.8-1.8-5.2-1.5-8.2 0-.4-.6-.5-.7-.1-.6 2.8-.4 6.3 1.5 8.6.2.4.8.2.7-.3zm-7.2.5c-.5-1.5-.6-3.1-.6-4.7 0-.3-.5-.4-.6-.1-.7 2.8 0 7.1 2.3 9 .2.2.6 0 .5-.3-.4-1.3-1.2-2.5-1.6-3.9zm-6.2 2.8c0-.3-.6-.2-.6.1 0 3 .7 6.2 2.7 8.6.2.2.6 0 .5-.3-1-2.8-2.2-5.4-2.6-8.4zm.6 21.5c-1.1-.9-2.2-1.7-3-3s-1.4-2.9-2-4.3c-.1-.3-.6-.2-.5.1.7 2.8 1.9 6.9 5.1 7.7.4.1.7-.3.4-.5zm-3.2 4.7c-.4-.5-.9-.9-1.3-1.4-.4-.5-.8-1.1-1.1-1.7-.2-.3-.7-.1-.6.2.5 1.3 1.4 2.8 2.7 3.3.2.1.5-.2.3-.4zm2.1-15c-.7-1.1-1.4-2-1.7-3.3-.1-.2-.3-.1-.3.1.3 1.2.8 2.6 1.7 3.5.2.1.4-.1.3-.3zm38.4-30.8c0-.3-.5-.2-.5.1-.2 3 0 6.3.7 9.3.1.3.5.2.5-.1.1-3-.2-6.2-.7-9.3zm7.1.3c-.1-.2-.4-.2-.4.1.3 3.6.2 7.2.2 10.8 0 .3.5.4.6.1.8-3.5.5-7.5-.4-11zm8.3 2.1c-.1-.5-.8-.5-.7 0 .2 3.9-.2 7.8-.3 11.7 0 .3.5.4.6.1.8-3.8.8-7.9.4-11.8zm7.7 2.9c-.1-.2-.4-.2-.4.1-.2 3.3-.6 6.4-1 9.6-.1.5.6.5.8.1 1.2-3 1.3-6.7.6-9.8zm5.6 3c-.1-.3-.5-.2-.5.1.2 3.3-.6 6.2-1.3 9.4-.1.3.4.6.6.2 1.6-2.8 1.8-6.5 1.2-9.7zm5.7 3.8c0-.2-.4-.3-.4-.1-.5 3.1-1.5 5.5-3 8.2-.2.3.2.6.4.3 2.2-2 3.3-5.4 3-8.4zm3.8 6.5c0-.2-.4-.3-.4-.1-.6 2.4-.9 4.6-2 6.9-.2.4.3.7.5.3 1.3-2 2.2-4.6 1.9-7.1zm3.7 7.1c-.6.7-.9 1.5-1.4 2.3s-1 1.6-1.6 2.3c-.3.3.3.8.6.5.6-.7 1.2-1.4 1.7-2.2s1.1-1.6 1.3-2.5c.1-.4-.3-.7-.6-.4zm2.2 6.4c-.7.6-1 1.5-1.6 2.2s-1.2 1.3-1.9 2c-.2.2.1.6.4.5.9-.5 1.6-1.2 2.3-2 .5-.7 1.2-1.5 1.2-2.4 0-.4-.2-.4-.4-.3zm.7 5.8c-.9.9-1.5 1.9-2.5 2.8-.3.3.1.7.5.5 1-.8 2-1.8 2.5-3 0-.3-.4-.5-.5-.3zm.1 7.2c-.8 1-1.4 2.1-2.3 3.1-.3.3.2.8.5.5.9-.9 1.9-2 2.3-3.3 0-.2-.3-.5-.5-.3zM83.7 35.7c-.5-.4-1.2-.5-1.7-.9s-.9-1-1.2-1.6c-.1-.2-.4-.1-.4.1.2.7.6 1.4 1.2 1.9.5.5 1.2 1 1.9.9.4.1.4-.3.2-.4zm0-3.1c-.4-.5-.9-.8-1.3-1.3-.5-.5-.8-1.2-1.1-1.9-.1-.3-.6-.2-.5.1.3 1.3 1.1 3.1 2.5 3.5.3.1.6-.2.4-.4zm5.7-2.6c-.4.9-.5 2-.8 3-.1.2.3.4.4.2.5-.9 1-2 .9-3-.1-.3-.4-.5-.5-.2zm.1-3c-.3.6-.4 1.2-.7 1.8-.3.6-.6 1.2-.9 1.7-.2.3.3.6.5.3.7-1 1.7-2.4 1.7-3.6 0-.3-.5-.5-.6-.2zm7.6 4.8c-1.1-1.4-2-2.7-1.9-4.5 0-.3-.5-.4-.5-.1-.2 1.8.3 4.1 2.1 5 .2.1.5-.1.3-.4zm-.6-5.8c-.1-.3-.2-.7-.2-1.1 0-.3-.4-.3-.5 0 0 .7.1 1.7.6 2.2.2.2.5 0 .5-.3-.1-.2-.3-.5-.4-.8zm8.7 3.6c-.3 1.4-1.1 2.5-2 3.6-.1.1 0 .3.2.2 1.2-.9 1.9-2.2 2.3-3.7 0-.3-.5-.4-.5-.1zm-1.6-3.1c-.3.9-.6 1.7-.6 2.6 0 .2.3.3.4.1.4-.8.6-1.6.9-2.5 0-.5-.6-.6-.7-.2zm7.7 5.5c-.3-.6-.7-1.2-.9-1.9-.1-.3-.6-.2-.5.1.2.7.6 1.5 1.2 2 .1.2.3 0 .2-.2zm-34.6 4.6c-.3-.4-.8-.7-1.1-1.1-.3-.5-.6-1-.7-1.6-.1-.3-.5-.2-.5.1 0 .7.2 1.3.5 1.9.3.5.8 1.1 1.4 1.3.3 0 .6-.3.4-.6zm-6 4.7c-.3-.4-.7-.6-1.1-1s-.7-.8-1-1.2c-.2-.3-.7 0-.5.3.5.9 1.3 1.9 2.4 2.2.2.1.4-.1.2-.3zm-2.1-5.4c-.2-.2-.6.1-.3.3.4.3.6.8.9 1.1.2.2.4 0 .4-.2-.2-.4-.7-.9-1-1.2zm-2.8 9.8c0-.2-.2-.2-.3 0-.2.7-.1 1.5-.2 2.2 0 .2.4.2.4 0 0-.7.1-1.5.1-2.2zm-1.6-1c-.3.5-.2 1.3-.2 1.9 0 .4.6.4.6 0 0-.6.1-1.2.1-1.8 0-.2-.3-.3-.5-.1zm-5.2 14c-.3-.5-.7-1-.9-1.5-.2-.6-.4-1.2-.4-1.9 0-.3-.5-.3-.5 0-.1 1.3.3 3 1.4 3.7.3.3.5-.1.4-.3zm58.4-24.9c-.7 1.4-1 2.9-1.7 4.3-.2.3.3.6.5.3.7-1.4 1.5-2.9 1.6-4.5 0-.2-.3-.3-.4-.1zm-1-3.4c-.5.6-.6 1.6-.7 2.4 0 .3.3.4.4.1.2-.8.6-1.5.8-2.3-.1-.3-.4-.4-.5-.2zm9 4.5c-.8 1.8-1.4 3.6-2.4 5.3-.1.2.2.4.4.2 1.2-1.5 2.3-3.4 2.5-5.4 0-.2-.4-.3-.5-.1zm-.5-2.6c-.3.5-.4 1.2-.5 1.8-.1.4.5.5.6.2.2-.6.5-1.2.4-1.8-.1-.3-.4-.4-.5-.2zm4.3 7.1c0-.3-.5-.2-.5.1v1.2c0 .4-.1.8-.1 1.2 0 .2.4.4.5.1.4-.8.2-1.9.1-2.6zm.9-3.8c-.1-.3-.6-.2-.5.1.2 1.1.2 2.4.5 3.5.1.2.5.3.5 0 .3-1.2-.1-2.5-.5-3.6zm3.9 9.3c-.2-.4-.8-.3-.7.2.2.6.2 1.3.4 1.9.1.3.4.3.5 0 .2-.7 0-1.5-.2-2.1zm5.6 2.1c-.1-.2-.4-.2-.4 0-.1 1-.8 1.8-1.3 2.6-.6.9-.3 1.6-.6 2.6 0 .2.2.2.2.1.2-.6.2-1.3.5-2 .2-.5.6-.9.9-1.3.6-.6 1-1.2.7-2zm.7 7.5c-.5 1.2-.9 2.4-1.5 3.5-.2.4.3.7.6.3.7-1.1 1.4-2.4 1.4-3.7 0-.2-.4-.3-.5-.1zm2.4-2.6c-.4.6-.5 1.4-.7 2.1-.1.4.5.6.6.2.2-.7.5-1.4.6-2.1 0-.3-.4-.4-.5-.2zm.7 13.9c-.4.4-.6 1-1.1 1.4-.3.3.1.6.4.4.4-.4 1-1 1.1-1.6.1-.2-.2-.4-.4-.2z" fill="#ffffff" stroke-width="none" opacity="1"></path></g><g id="svga-group-glasses-single-move" transform="matrix(1,0,0,1,0,0)"><g id="svga-group-glasses-single" transform="matrix(1,0,0,1,0,0)"></g></g></g></g></g><rect id="svga-credit-rect" width="200" height="15" x="0" y="185" fill="#ecf0f1" opacity="0.5" style="display: none;"></rect><text id="svga-credit-text" font-family="Avenir Next, Roboto, Helvetica, Arial, sans-serif" font-size="10px" text-anchor="start" font-weight="400" size="10px" anchor="start" weight="400" fill="#333333" x="33.402061462402344" y="182.71133995056152" style="display: none;"><tspan id="SvgjsTspan61029" dy="13" x="33.402061462402344">Created on AvatarMaker.com</tspan></text></g></svg>