<svg xmlns="http://www.w3.org/2000/svg" version="1.1" width="600px" height="600px" viewBox="0 0 200 200" style="overflow:hidden!important;"><defs id="SvgjsDefs21637"></defs><g id="svga-group-wrapper"><g id="svga-group-backs-single"></g><g id="svga-group-humanwrap-move" transform="matrix(1,0,0,1,0,0)"><g id="svga-group-humanwrap" transform="matrix(1,0,0,1,0,0)"><g id="svga-group-hair-back-move" transform="matrix(1,0,0,1,0,0)"><g id="svga-group-hair-back" transform="matrix(1,0,0,1,0,0)"><path id="SvgjsPath22317" d="M106.94 24.3S82.78 4.67 52.57 33.86s-1.01 74.5 4.03 84.57-5.79 22.15-13.59 18.88c0 0 4.03 10.32 16.11 7.8 0 0 5.54 4.28 12.84 1.51 0 0 4.28 7.55 17.12 4.03 0 0 6.8 6.29 17.12 1.76 0 0 13.34 4.53 19.88-.76 0 0 12.33 2.77 18.12-4.28 0 0 12.33 2.27 17.87-8.05 0 0-10.32 1.01-12.58-9.06-2.27-10.07 3.02-16.61 9.31-29.45s7.63-43.21-6.72-60.67C138 23.03 120.78 21.03 106.94 24.3z" fill="#ffffff" stroke-width="none" opacity="1"></path><path id="SvgjsPath22318" d="M161.96 138.33c-.39.03-9.46.82-11.51-8.29-1.74-7.73 1.21-13.35 5.68-21.85 1.14-2.17 2.31-4.4 3.56-6.94 6.69-13.64 7.34-44.48-6.85-61.75-15.98-19.44-35.29-18.63-45.67-16.28-3.35-2.4-26.93-17.49-55.29 9.92-28.04 27.11-6.24 67.17 1.97 82.25.76 1.4 1.42 2.6 1.86 3.49 2.75 5.51.28 11.15-2.68 14.32-2.95 3.15-6.73 4.41-9.63 3.19a.983.983 0 0 0-1.08.21.99.99 0 0 0-.23 1.08c.04.11 4.38 10.84 16.81 8.5 1.39.92 6.33 3.71 12.67 1.64 1.47 1.89 6.41 6.72 17.26 3.93 1.7 1.34 8.17 5.6 17.41 1.73 1.34.42 5.95 1.75 10.81 1.75 3.28 0 6.68-.6 9.27-2.5 2.35.44 12.66 1.94 18.28-4.29 2.61.3 13.24.87 18.35-8.64a1.003 1.003 0 0 0-.99-1.47zm-35.68 12.35h-.02c-8.79-14.39-6.01-29.95 2.94-43.53 7.69-11.65 15.47-22.65 17.27-36.9 1.48-11.68-1.38-24.28-9.42-33.15-7.63-8.42-19.33-12.32-30.4-9.51-.78.2-.45 1.4.33 1.21 14.01-3.56 27.96 4.17 34.33 16.77 6.95 13.75 4.71 29.92-1.98 43.29-5.44 10.87-14.63 19.83-18.29 31.59-3.22 10.34-1.51 21.51 4.03 30.7-6.17 4.46-18.46.37-18.59.33a.86.86 0 0 0-.32-.05c-.14 0-.27.03-.4.08-9.56 4.2-15.78-1.34-16.03-1.58a.983.983 0 0 0-.94-.23c-9.6 2.64-14.02-1.15-15.45-2.83 19.14-18.95-7.66-49.08-15.14-67.15-5.88-14.2-5.58-29.87 5.1-41.76 10.02-11.16 26.18-14.06 39.85-8.51.74.3 1.07-.91.33-1.21-23.15-9.4-49.66 6.65-50.6 32.05-.51 14.29 7.37 27.01 14.22 38.95 7.52 13.09 18.3 33.52 5.47 46.6a.988.988 0 0 0-.98-.16c-6.66 2.52-11.66-1.21-11.87-1.37-.04-.03-.09-.04-.13-.06 9.1-4.79 10.11-16.67 6.76-25.9-2.5-6.88-6.88-12.89-10.48-19.21-4.19-7.36-7.76-15.14-9.67-23.42-3.66-15.89-.1-32.51 12.3-43.64 12.69-11.4 31.22-13.18 46.26-5.51.13.21.36.35.67.29 13.89-2.92 28.34.72 37.68 11.81 10.11 12 10.67 27.28 6.25 41.76-6.36 20.83-22.78 46.64-6.54 66.96-5.55 5.65-16.43 3.31-16.54 3.29zm18.09-4.29c-.23-.04-.47.01-.67.12-20.55-25.64 11.36-57.88 9.71-85.41-.67-11.08-6.17-21.72-14.87-28.63-9.34-7.42-21.53-9.2-32.99-6.9l-.03-.03C81.36 13.16 50.88 26.11 44.65 53c-3.42 14.76 1.17 29.85 8.02 42.9 4.12 7.85 9.87 15.12 12.74 23.57 3.15 9.26 1.75 21.37-8.96 24.75-.16.05-.27.15-.34.27-6.23.27-9.63-3.34-11.16-5.67 3.19.32 6.67-1.2 9.53-4.26 3.4-3.63 6.22-10.15 3.01-16.58-.46-.92-1.12-2.14-1.89-3.55-8.01-14.71-29.29-53.8-2.34-79.85 29.18-28.2 52.08-10.28 53.04-9.51.24.19.56.27.86.2 11.98-2.83 29.38-2.45 44.12 15.5 13.69 16.67 13.05 46.43 6.6 59.6-1.23 2.51-2.4 4.74-3.53 6.89-4.51 8.58-7.76 14.77-5.86 23.22 1.82 8.08 8.5 9.58 11.79 9.82-5.41 7.89-15.47 6.17-15.91 6.09z" fill="#000000" stroke-width="none" opacity="1"></path></g></g><g id="svga-group-humanbody-back"><path id="SvgjsPath21895" d="M86.5 122c0 18.8 2.7 50.3-8.1 58s-31.8 13.9-36.7 24.4-3.6 14.4-3.6 14.4h124.1s.6-8.1-4.2-15.4c-6.6-10.1-28.5-17.7-36.5-22.9-8.1-5.2-10.9-32.2-10.9-58.8l-24.1.3z" fill="#ffffff" stroke-width="none" opacity="1"></path></g><g id="svga-group-chinshadow-single"></g><g id="svga-group-humanbody-front"><path id="SvgjsPath21896" d="M163.4 220.1H37.2l-.3-.9c-.1-.5-1.3-4.7 3.6-15.3 3.4-7.3 13.6-12.4 23.5-17.4 5.1-2.5 9.9-5 13.6-7.5 8.6-6 8.1-29.8 7.7-47.1-.1-3.5-.1-6.8-.1-9.8v-1.3l26.7-.4v1.3c0 32 3.8 53.5 10.3 57.7 2.4 1.6 6 3.3 10.2 5.4 9.7 4.7 21.9 10.6 26.7 18 5 7.6 4.4 15.9 4.4 16.2l-.1 1.1zm-124.1-2.6h121.6c-.1-2.4-.6-8.2-4-13.4-4.4-6.7-16.2-12.5-25.6-17-4.3-2.1-8-3.9-10.5-5.5-9.8-6.3-11.4-38.8-11.5-58.6l-21.5.4c0 2.6.1 5.5.1 8.5.4 18.9.9 42.4-8.8 49.3-3.8 2.7-8.7 5.1-13.9 7.7-9.5 4.8-19.4 9.7-22.3 16.1-3.3 6.9-3.7 10.9-3.6 12.5z" fill="#000000" stroke-width="none" opacity="1"></path><path id="SvgjsPath21897" d="M76.8 188.7c4.8 2.3 10.4 3.9 15.7 2.9.4-.1.4-.7 0-.8-5.1-.9-10.2-1.4-15.2-3.2-.6-.2-1.1.8-.5 1.1z" fill="#000000" stroke-width="none" opacity="1"></path><path id="SvgjsPath21898" d="M108.3 191.1c2.4.3 4.9-.4 7.1-1.2 2.1-.8 4.3-1.7 5.8-3.4.5-.5-.1-1.2-.7-.9-2.1.9-3.9 2.3-6.1 3-2 .7-4.1 1-6.2 1.5-.6.1-.4.9.1 1z" fill="#000000" stroke-width="none" opacity="1"></path></g><g id="svga-group-clothes-single"><path id="SvgjsPath22237" d="M77.4 202.5c-6.6-9.8-9.7-17.7-9.7-17.7-1-.8-2.8-.5-3.3.5s-2.8 0-3.6 1.3c-.8 1.3-2.5.3-3.5 1.8 0 0-2.8-.6-2.8 2.3S61 202 61 219.2h33.7s-10.7-7-17.3-16.7z" fill="#ffffff" stroke-width="none" opacity="1"></path><path id="SvgjsPath22238" d="M141.9 188.4c-1-1.5-2.6-.5-3.4-1.8-.8-1.3-3.1-.3-3.6-1.3s-2.3-1.3-3.3-.5c0 0-3.1 8-9.7 17.7s-17.3 16.7-17.3 16.7h33.7c0-17.2 6.4-25.7 6.4-28.6 0-2.9-2.8-2.2-2.8-2.2z" fill="#ffffff" stroke-width="none" opacity="1"></path><path id="SvgjsPath22239" d="M95.2 218.4c-.1-.1-10.6-7-17-16.5s-9.6-17.4-9.6-17.5c-.1-.2-.2-.3-.3-.4-.7-.6-1.8-.8-2.8-.6-.9.2-1.6.7-2 1.3-.2 0-.5.1-.7.1-.9 0-2.2.1-2.9 1.2-.1.2-.3.3-.9.4-.6.1-1.4.2-2.1.9-.6 0-1.5.1-2.3.6-.5.4-1.1 1.2-1.1 2.7 0 1.1.6 2.4 1.4 4.4 1.9 4.6 5 12.2 5 24.2 0 .6.5 1 1 1h33.7c.4 0 .8-.3 1-.7.2-.4 0-.9-.4-1.1zm-34.4-11.8c1.2.8 2.5 1.3 3.9 1.2.2 0 .3-.3.1-.4-1.5-.4-2.8-.8-4.1-1.6-.1-.6-.3-1.2-.4-1.8 1.2.8 2.6 1.4 4 1.3.2 0 .3-.3.1-.4-1.6-.6-3-1-4.3-1.9-.2-.6-.3-1.2-.5-1.8 1.2.8 2.5 1.3 3.9 1.1h.1c1.2 3.4 2.4 6.6 3.1 8.7-1.9-.4-3.6-.8-5.2-1.7-.4-.9-.5-1.8-.7-2.7zm1.4-7.5c.4 1 .7 1.9 1.1 2.9-1.6-.4-3-.9-4.2-1.8-.3-.9-.6-1.7-.9-2.5 1.1.8 2.5 1.4 4 1.4zm-.1-.4c-1.6-.5-3-1.1-4.3-2.1-.3-.8-.7-1.6-.9-2.3-.3-.6-.5-1.2-.7-1.8 1.2 1.3 2.8 2.4 4.6 2.6.4 1.1.8 2.3 1.3 3.6zm-6.2-9.2c.2-.2.6-.2.9-.2.7.5 1.4 1 2.2 1.3.2.4.3.9.5 1.3-1.3-.6-2.6-1.2-3.6-2.4zm2.3-.6c0-.1.1-.1.2-.2.1.3.3.7.4 1.2-.3-.2-.6-.5-.9-.7l.3-.3zm-2.5 1.2c1 1.3 2.5 2.3 4.1 2.4.2.6.5 1.3.8 2-1.7-.6-3.3-1.4-4.5-2.8-.1-.1-.1-.1-.2-.1-.1-.4-.2-.8-.2-1-.1-.2-.1-.4 0-.5zm6.2 26.1c1.3 1 2.8 1.7 4.5 2H62c0-.7 0-1.3-.1-2zm8.1 2c0-.1 0-.2-.1-.2-3.1-.1-5.4-.9-8-2.4 0-.8-.1-1.5-.2-2.2 2 1.2 4.3 2 6.6 1.7.2 0 .2-.3 0-.3-2.4-.3-4.6-.8-6.7-2-.1-.9-.2-1.9-.3-2.8 1.6 1 3.5 1.7 5.3 1.5.2.6.3 1.1.4 1.5.1.4.5.7 1 .7h.3c.1 0 .2-.1.3-.1 1.5 1.2 3.4 2.2 5.3 2.2.2 0 .2-.2 0-.3-1.8-.5-3.5-1.1-5.1-2.2.2-.2.2-.5.1-.8-.1-.2-.1-.5-.2-.7.9.6 2 1 3 1 .2 0 .2-.2 0-.3-1.2-.3-2.2-.6-3.2-1.3-.1-.4-.3-.9-.5-1.4.6.3 1.3.6 1.9.6.3 0 .3-.3.1-.4-.8-.3-1.5-.6-2.2-1l-.6-1.8c.8.4 1.6.7 2.4.6.2 0 .2-.3.1-.4-1-.4-1.9-.6-2.8-1.1-.2-.5-.3-.9-.5-1.4.8.5 1.6.8 2.4.7.2 0 .3-.3.1-.4-.7-.3-1.5-.5-2.2-.9-.2-.1-.4-.3-.6-.4-.2-.4-.3-.9-.5-1.4.9.5 1.8.9 2.8 1.1.2 0 .3-.2.1-.3-1.1-.5-2.2-1-3.3-1.6-.2-.4-.3-.9-.5-1.4.7.3 1.4.5 2.1.5.2 0 .2-.3.1-.4-.9-.2-1.7-.4-2.4-.8-.3-.8-.6-1.5-.8-2.3.9.8 2 1.3 3.1 1.3.2 0 .3-.3.1-.4-1.3-.5-2.5-1-3.5-1.9-.2-.4-.3-.8-.4-1.2.8.8 1.9 1.3 3 1.2.2 0 .2-.3.1-.4-1.5-.6-2.7-1.1-3.6-2.4-.2-.5-.4-1-.5-1.5.8.8 2 1.5 3.1 1.5.2 0 .2-.2.1-.3-.6-.3-1.3-.5-1.9-.9-.7-.4-1.2-.9-1.7-1.5-.1-.2-.2-.4-.2-.7.8.5 1.8.9 2.7.8.2 0 .2-.2 0-.3-1.1-.4-2.1-.8-3.1-1.4-.2-.5-.3-.9-.5-1.2.1 0 .1 0 .2-.1.8.5 1.8 1 2.7 1.1.2 0 .2-.2.1-.3-.7-.4-1.5-.7-2.2-1.1l.3-.3c.3.1.6.2.9.2.2 0 .3-.3.1-.4-.2-.1-.4-.1-.6-.2.2-.2.6-.2 1.2-.3.3 0 .6 0 .9-.1 1.4 4.4 6.6 19.8 15.9 30.2.2.2.5.3.7.3.1 0 .2 0 .3-.1 2.2 1 4.7 1.4 7.1.6.1 0 .1-.3 0-.3-2.3.1-4.4 0-6.6-.7.2-.3.3-.6.2-.9 1.7.5 3.4.7 5.1.4.2 0 .1-.3-.1-.3-1.9-.1-3.8-.2-5.6-.8-.3-.3-.6-.7-.9-1 1.5.5 3 .8 4.5.5.2 0 .2-.3 0-.3-1.8-.3-3.5-.5-5.2-1.1l-.9-1.2c1.1.4 2.3.6 3.5.6.2 0 .2-.2 0-.3-1.4-.4-2.8-.7-4.2-1.1-.2-.3-.4-.6-.7-.9 1.1.4 2.3.6 3.5.5.2 0 .2-.4 0-.4-1.5-.2-2.8-.5-4.1-1-.4-.6-.8-1.3-1.2-1.9.8.4 1.7.6 2.7.6.2 0 .2-.3.1-.3-1.1-.3-2.1-.5-3.1-1-.4-.6-.7-1.3-1.1-1.9.8.5 1.7.8 2.6.8.2 0 .2-.3.1-.3-1.2-.4-2.2-.8-3.2-1.4-.2-.4-.4-.8-.7-1.3.7.4 1.5.7 2.3.6.2 0 .2-.3.1-.4-1.1-.3-2-.6-2.8-1.2-.2-.4-.4-.8-.6-1.1.6.2 1.2.3 1.8.2.2 0 .2-.3 0-.4-.5-.1-1.1-.2-1.6-.4-.2-.1-.3-.1-.5-.2-.2-.5-.4-.9-.7-1.4.4.2.8.3 1.2.2.2 0 .2-.2.1-.3-.4-.2-.8-.3-1.2-.5-.1-.1-.3-.1-.4-.2-.2-.3-.3-.7-.4-1 .3.1.5.2.8.2.2 0 .2-.2.1-.3-.4-.2-.8-.4-1.2-.5-2.2-5-3.5-9.1-3.9-10.5.1-.1.2-.1.4-.2.3-.1.7 0 .9.1.6 1.6 3.8 8.8 9.7 17.6 4.7 7 11.3 12.5 15 15.2l-21.9.2zm74.6-30.3c-.8-.6-1.7-.7-2.3-.6-.7-.7-1.5-.8-2.1-.9-.6-.1-.8-.1-.9-.4-.7-1.1-2-1.2-2.9-1.2-.2 0-.6 0-.7-.1-.4-.7-1.1-1.1-2-1.3-1-.2-2.1 0-2.8.6-.1.1-.2.2-.3.4 0 .1-3.2 8-9.6 17.5-6.4 9.5-16.9 16.4-17 16.5-.4.2-.5.7-.4 1.1s.5.7 1 .7h33.7c.6 0 1-.4 1-1 0-12 3.1-19.6 5-24.2.8-2 1.4-3.4 1.4-4.4 0-1.5-.6-2.3-1.1-2.7zm-21.1 13.9c.2 1 .6 2 1.4 2.5.2.1.3-.1.2-.2-.2-.5-.6-.9-.8-1.4-.2-.5-.3-1-.4-1.5.2-.3.4-.6.6-1 .2.8.6 1.5 1.2 2 .2.1.4-.1.3-.3-.5-.8-.9-1.4-1.1-2.2.2-.4.4-.7.6-1 .2.5.4 1 .8 1.3.2.1.4 0 .3-.2-.2-.4-.5-.8-.6-1.2-.1-.1-.1-.3-.1-.4.2-.4.4-.7.7-1.1.2.4.5.8.8 1 .1.1.3-.1.2-.2-.2-.4-.5-.7-.7-1.1 0-.1 0-.1-.1-.1.2-.4.5-.8.7-1.2.2.3.4.5.7.7.1.1.3-.1.2-.2-.2-.3-.4-.7-.6-1 .4-.7.8-1.4 1.1-2 .1 0 .1 0 .2-.1s.1-.2 0-.2c1.9-3.6 3-6.1 3.3-6.9.2-.1.6-.2.9-.1.2 0 .3.1.4.2-.9 3.1-6.2 19.5-15.7 30-.4.4-.3 1 .1 1.4.2.2.4.3.7.3.3 0 .5-.1.7-.3.3.5.7 1 1.2 1.4h-7.6c.1-.1.2-.2.1-.3-.6-.5-1.2-.9-1.7-1.5-.2-.2-.4-.5-.6-.8.2-.2.5-.4.8-.6.7 1.3 1.8 2.5 3.2 2.8.2 0 .3-.2.1-.3-.7-.5-1.5-1-2.1-1.6l-.9-1.2c.2-.2.4-.4.7-.6 1 1.3 2.4 2.5 4 2.9.2 0 .3-.2.1-.3-1.4-.8-2.8-1.6-3.8-2.9.4-.4.9-.8 1.3-1.2.8 1.3 1.9 2.6 3.3 3.2.2.1.4-.1.2-.3-1.2-1.1-2.2-2-3.1-3.2l1.1-1.1c.5 1.1 1.2 2 2.3 2.5.2.1.4-.1.2-.3-.9-.8-1.6-1.7-2.1-2.7l.9-.9c.4.9 1.2 1.8 2.2 2.1.2.1.3-.2.2-.3-.8-.7-1.5-1.4-1.9-2.2.3-.4.7-.7 1-1.1.4 1.2 1.1 2.3 2.2 2.7.2.1.3-.2.2-.3-.5-.6-1.1-1.1-1.5-1.7l-.6-1.2c.3-.4.6-.7.9-1.1.3 1.1 1 2.2 2.1 2.7.1 0 .3-.1.2-.2-.4-.6-.9-1.1-1.3-1.7-.2-.4-.4-.9-.5-1.3.3-.3.5-.7.8-1 .3.7.7 1.4 1.3 1.9.2.1.4 0 .3-.2-.4-.7-.9-1.4-1.2-2.1.3-.3.5-.7.8-1 .2.7.6 1.4 1.2 1.9.2.1.4 0 .3-.2-.4-.8-.8-1.4-1.1-2.2l.2-.2c.1-1 .3-1.4.6-1.8zm-12.2 16.4c-.4-.3-.8-.5-1.2-.8-.2-.2-.4-.4-.6-.7.3-.2.6-.5.9-.7.6 1 1.5 1.8 2.5 2.2h-1.6zm-2.2 0c-.3-.2-.5-.4-.7-.6.2-.2.5-.4.8-.6.2.3.4.5.6.7.2.1.3.3.5.4l-1.2.1zm-1-.3.3.3h-.6c0-.1.2-.2.3-.3zm34.4-23.6c-1.9 4.6-5 12.1-5.2 23.9h-.6c0-.1-.1-.2-.2-.2-2 .2-3.8.2-5.8-.3-.2-.1-.3.2-.1.3.2.1.3.1.5.2h-9.7c0-.1 0-.1-.1-.1-.3-.3-.7-.5-.9-.9-.2-.2-.4-.5-.6-.8.2-.3.5-.6.7-.8.6 1.1 1.6 2.1 2.8 2.3.2 0 .3-.2.1-.3-.5-.4-1.1-.7-1.6-1.1-.4-.4-.7-.8-1-1.3.3-.4.6-.7.8-1.1.6 1.3 1.6 2.5 3 3 .2.1.4-.2.2-.4-.6-.5-1.3-.9-1.8-1.5-.4-.5-.8-1-1-1.6.3-.4.6-.8.9-1.3.8 1.4 2 2.8 3.5 3.4.1.1.2-.1.1-.2-1.3-1.2-2.5-2.1-3.3-3.6.3-.4.6-.9.9-1.3.8 1.3 1.9 2.4 3.2 3.2.2.1.4-.1.2-.3-1.2-1-2.3-2-3.2-3.3l.6-.9c.7 1.2 1.8 2.3 3 2.7.2.1.4-.2.2-.4-.6-.5-1.3-1-1.9-1.6-.4-.4-.7-.8-1-1.3.2-.4.4-.7.7-1.1.6 1.2 1.7 2.3 3.1 2.6.2 0 .3-.2.1-.3-1.2-.7-2.3-1.5-3-2.7.2-.4.5-.8.7-1.2.9 1.3 2.1 2.5 3.6 2.9.2.1.3-.2.2-.4-.8-.6-1.6-1-2.3-1.7-.4-.4-.8-.9-1.2-1.4.3-.5.6-1 .8-1.5.7 1.2 1.8 2.3 3.2 2.6.2.1.3-.2.1-.3-1.2-.9-2.2-1.7-3-2.9.3-.6.6-1.2.9-1.7.7 1 1.5 1.9 2.6 2.4.2.1.4-.1.2-.3-.9-.9-1.8-1.7-2.5-2.7.2-.3.3-.7.5-1 .5.7 1.2 1.2 2 1.5.2.1.3-.2.2-.3-.7-.6-1.3-1.2-1.8-1.8.1-.2.2-.5.3-.8.5.7 1.2 1.4 2 1.7.2.1.3-.2.2-.3-.7-.6-1.4-1.1-1.9-1.9.2-.4.3-.8.5-1.1.5.9 1.2 1.8 2.2 2 .2.1.4-.2.2-.4-.4-.4-.9-.7-1.4-1.1-.3-.4-.6-.8-.7-1.2.2-.6.5-1.1.7-1.7.4 1 1.1 1.9 2.1 2.1.1 0 .2-.1.1-.2-.4-.5-.9-.8-1.3-1.3-.3-.4-.5-.8-.7-1.3.1-.3.3-.7.4-1 .1.3.2.5.4.7.3.4.8 1 1.3 1.1.1 0 .2-.1.2-.2-.3-.4-.8-.7-1.1-1.2-.2-.3-.4-.7-.6-1 .1-.2.1-.4.2-.6.2.3.5.5.8.6.2.1.3-.2.2-.3-.3-.3-.6-.6-.8-.9l.3-.9c.1.2.3.3.5.4.2.1.4-.1.3-.3-.2-.3-.4-.5-.6-.8.5-1.4.9-2.5 1.1-3.3.3.1.6.1.9.1.7 0 1.1.1 1.3.3.4.6.9.9 1.4 1.1-1.6 4.4-7.7 20.6-8.7 24.3-.1.5.2 1.1.7 1.2h.5c1.5 1.1 3.4 1.9 5.3 1.7.1 0 .2-.2 0-.3-1.8-.4-3.3-.7-4.8-1.6.1-.1.2-.3.3-.5.1-.3.2-.8.4-1.3 1.1.9 2.4 1.6 3.7 1.8.2 0 .2-.3.1-.4-.7-.4-1.5-.6-2.2-1-.5-.3-1-.6-1.4-1 .1-.4.3-.9.4-1.3.8.8 1.8 1.4 2.9 1.6.2 0 .3-.2.1-.4-.6-.4-1.2-.6-1.8-1-.4-.2-.7-.5-1.1-.8.1-.3.2-.7.4-1.1.7.8 1.5 1.5 2.5 1.8.2.1.4-.2.2-.4-.5-.4-1.1-.8-1.7-1.2-.3-.2-.6-.5-.8-.8.1-.4.3-.9.5-1.3.6.6 1.2 1.1 2 1.3.2.1.3-.2.1-.3-.5-.4-1-.6-1.5-1-.2-.1-.3-.3-.5-.4.2-.5.3-1 .5-1.4.5.7 1.3 1.4 2.2 1.4.2 0 .2-.2.1-.4-.5-.3-1-.5-1.4-.9-.2-.2-.4-.4-.6-.7.2-.6.4-1.2.6-1.7.4.6 1 1.2 1.8 1.3.1 0 .2-.1.1-.2-.3-.3-.8-.6-1.1-.9-.2-.2-.4-.5-.6-.8.2-.6.4-1.1.6-1.7.4.6.9 1.2 1.6 1.4.1 0 .2-.1.1-.2-.3-.3-.6-.5-.9-.8-.3-.3-.5-.6-.6-.9.1-.4.3-.8.4-1.2.4.5.7 1 1.2 1.3.1.1.3-.1.3-.2-.2-.6-.8-1.1-1.2-1.6l.3-.9c.1.2.3.3.6.3.1 0 .1-.1 0-.2-.2-.2-.3-.3-.4-.6l-.1-.1c.1-.3.2-.7.4-1 .1.1.2.1.2.2.1.1.2 0 .1-.1s-.2-.2-.3-.4c1-2.6 1.8-4.8 2.2-6 .1.1.1.1.1.2.2.3.6.5 1.1.4.1 0 .8-.1 1.2.2.2.2.4.6.4 1.1.4 1.1-.2 2.4-.8 4.1zm-7.3-5c-.1-.2-.1-.3-.2-.5-.1-.1-.2 0-.2.1.1.2.3.3.4.4 0 .1 0 0 0 0zm1.5 27.9c-2-.4-3.9-.9-5.6-1.9-.3-.1-.5.3-.2.4 1.8 1 3.8 1.8 5.8 1.8.2.1.2-.2 0-.3z" fill="#000000" stroke-width="none" opacity="1"></path></g><g id="svga-group-head" transform="matrix(1,0,0,1,0,0)"><g id="svga-group-ears-left-move" transform="matrix(1,0,0,1,0,0)"><g id="svga-group-ears-left" transform="matrix(1,0,0,1,0,0)"><path id="SvgjsPath22120" d="M62.9 81.4s-3-4.7-6.1-5.6-6.6 2.1-6.1 7.8c.6 5.7 8.7 18.9 15.9 19.7 6.2.7-1.1-18.5-3.7-21.9z" fill="#ffffff" stroke-width="none" opacity="1"></path><path id="SvgjsPath22121" d="M66.5 104.2c-7.7-.8-16.1-14.5-16.7-20.4-.3-3.4.8-6.4 3-7.9 1.3-.9 2.9-1.2 4.4-.8 3.3.9 6.2 5.3 6.6 5.9 2.1 2.7 8.5 18 5.5 22-.5.7-1.4 1.1-2.3 1.1-.3.1-.4.1-.5.1zM53.9 77.1c-1.7 1.1-2.5 3.6-2.3 6.4.5 5.4 8.5 18.3 15 18.9.4 0 .7 0 .9-.3 2.1-2.9-3.2-17.2-5.5-20.3v-.1c-.8-1.2-3.3-4.6-5.5-5.2-.2-.1-.5-.1-.7-.1-.7.2-1.3.4-1.9.7z" fill="#000000" stroke-width="none" opacity="1"></path><path id="SvgjsPath22122" d="M55.5 79.3c2.6 1.4 5 5.6 6.2 9.6v.1c0 .3-.2.4-.3.1-.4-1.2-1-1.2-1.7 0-.2.7-.1 1.5.1 2.3.2.7.5 1.4.8 1.9.6 1.2 1.4 2 2.1 3 .2.3 0 .7-.2.5-1.6-1-3.9-4.6-3.4-7.6.2-1.4 1.1-2.2 1.8-1.7-.9-2.1-1.9-3.9-3.2-5.4-.7-.8-2.3-2.7-3.1-2.3-1.5.6-.7 4.6-.5 6.4 0 .3-.2.4-.3.1-1-2.9-1.1-8.5 1.7-7z" fill="#000000" stroke-width="none" opacity="1"></path><path id="SvgjsPath22123" d="M61.9 97.8c-2.8-.9-4.8-4.6-6-8.8-.7-2.5-2.1-8.3.6-8.2.2 0 .3.5.1.6-2.5 1.1.2 8.9 1 10.7 1.1 2.6 2.5 4.3 4.3 5.2.2.2.2.6 0 .5z" fill="#000000" stroke-width="none" opacity="1"></path></g></g><g id="svga-group-ears-right-move" transform="matrix(1,0,0,1,0,0)"><g id="svga-group-ears-right" transform="matrix(1,0,0,1,0,0)"><path id="SvgjsPath22124" d="M137.1 81.4s3-4.7 6.1-5.6 6.6 2.1 6.1 7.8c-.6 5.7-8.7 18.9-15.9 19.7-6.2.7 1.1-18.5 3.7-21.9z" fill="#ffffff" stroke-width="none" opacity="1"></path><path id="SvgjsPath22125" d="M133.1 104.2c-1 0-1.8-.4-2.3-1.1-2.9-4 3.4-19.3 5.5-22 .4-.6 3.3-5.1 6.6-5.9 1.5-.4 3-.1 4.4.8 2.2 1.5 3.3 4.4 3 7.9-.6 5.9-9 19.6-16.7 20.4-.2-.1-.3-.1-.5-.1zm11.1-27.6c-.2 0-.5 0-.7.1-2.2.6-4.7 3.9-5.5 5.2v.1c-2.4 3-7.7 17.4-5.5 20.3.2.3.4.4.9.3 6.5-.7 14.5-13.6 15-18.9.3-2.9-.6-5.3-2.3-6.4-.6-.5-1.2-.7-1.9-.7z" fill="#000000" stroke-width="none" opacity="1"></path><path id="SvgjsPath22126" d="M144.5 79.3c-2.6 1.4-5 5.6-6.2 9.6v.1c0 .3.2.4.3.1.4-1.2 1-1.2 1.7 0 .2.7.1 1.5-.1 2.3-.2.7-.5 1.4-.8 1.9-.6 1.2-1.4 2-2.1 3-.2.3 0 .7.2.5 1.6-1 3.9-4.6 3.4-7.6-.2-1.4-1.1-2.2-1.8-1.7.9-2.1 1.9-3.9 3.2-5.4.7-.8 2.3-2.7 3.1-2.3 1.5.6.7 4.6.5 6.4 0 .3.2.4.3.1 1-2.9 1.1-8.5-1.7-7z" fill="#000000" stroke-width="none" opacity="1"></path><path id="SvgjsPath22127" d="M138.1 97.8c2.8-.9 4.8-4.6 6-8.8.7-2.5 2.1-8.3-.6-8.2-.2 0-.3.5-.1.6 2.5 1.1-.2 8.9-1 10.7-1.1 2.6-2.5 4.3-4.3 5.2-.2.2-.2.6 0 .5z" fill="#000000" stroke-width="none" opacity="1"></path></g></g><g id="svga-group-faceshape-wrap" transform="matrix(1,0,0,1,0,0)"><g id="svga-group-faceshape-single"><path id="SvgjsPath22107" d="M143.9 93.1s-3.1-6.2-4.5-18.8c0 0 .2-8.5-1.2-16.1-2-10.8-13.3-27.4-37.2-27.4-23.9 0-31.9 12.7-35.5 22.2-3 8.1-3 21.3-3 21.3s.4 15.1-2.4 20.5c-3.8 7.2-9.3 31.9 5.3 38.6 14.7 6.7 24.8 1.2 24.8 1.2s9.8 7.6 17.7.6c0 0 17.5 6 26.2.9s20.2-17.4 9.8-43z" fill="#ffffff" stroke-width="none" opacity="1"></path><path id="SvgjsPath22108" d="M124.8 139.5c-7 0-14.2-2.1-16.5-2.8-7.2 5.8-15.7 1-18.1-.6-2.7 1.2-12.2 4.4-25.2-1.5-4.2-1.9-7.2-5.3-8.8-10.2-3.6-10.5.1-24.8 2.9-30.2 2.2-4.1 2.3-15.7 2.2-19.8 0-.6 0-13.6 3.1-21.8 5.8-15.5 17.8-23 36.7-23 10.9 0 20.5 3.4 27.7 10 5.5 5 9.6 11.9 10.8 18.5 1.4 7.4 1.2 15.3 1.2 16.3 1.4 12.1 4.3 18.2 4.3 18.3v.1c11.6 28.4-3.2 40.7-10.2 44.6-2.8 1.5-6.5 2.1-10.1 2.1zm-34.4-6.4.7.5c.4.3 9.1 6.9 16.1.7l.6-.5.7.2c.2.1 17 5.7 25.2 1 6.3-3.6 19.9-14.9 9.1-41.4-.3-.6-3.2-6.9-4.6-19.2v-.2c0-.1.2-8.4-1.2-15.9-1.1-6-4.8-12.4-10-17-6.7-6.1-15.7-9.3-26-9.3-17.7 0-28.9 7-34.3 21.3-2.9 7.8-2.9 20.8-2.9 20.9 0 .6.4 15.5-2.5 21.1-2.5 4.8-6 18.5-2.7 28.1 1.4 4.1 3.9 7 7.5 8.7 13.8 6.3 23.6 1.3 23.6 1.3l.7-.3z" fill="#000000" stroke-width="none" opacity="1"></path></g></g><g id="svga-group-mouth-single-move" transform="matrix(1,0,0,1,0,0)"><g id="svga-group-mouth-single" transform="matrix(1,0,0,1,0,0)"><path id="SvgjsPath22190" d="M114.35 121.31c-.22.11-.44.19-.66.28-3.57-1.77-7.08-3.68-10.51-5.71-.04-.14-.18-.26-.34-.17-1.1.6-2.21 1.19-3.31 1.79-.02-.01-.02-.03-.04-.04l-2.43-.99c.06-.18-.13-.41-.35-.29a43.686 43.686 0 0 0-7.65 5.34c-.83-.16-1.65-.38-2.46-.67-.59-.21-.85.73-.26.94 1.15.41 2.32.7 3.5.86 2.82 2.94 6.19 6.18 10.56 6.03 4.15-.15 7.24-3.51 10.51-5.65 1.31 0 2.62-.23 3.94-.88.56-.27.06-1.12-.5-.84zM96.6 116.8c.92.38 1.84.75 2.76 1.13.06.03.11.01.16-.01.07.04.14.06.23.01 1.04-.56 2.07-1.12 3.11-1.68 3.32 1.97 6.72 3.82 10.18 5.54-4.09 1.13-8.32-1.32-12.49-1.26-1.98.03-3.86.66-5.79 1.02-1.71.32-3.4.33-5.07.07 2.13-1.83 4.44-3.44 6.91-4.82zm-6 5.94c.96.09 1.93.09 2.9-.01 2.62-.27 5.1-1.32 7.77-1.19 3 .14 5.9 1.28 8.8 1.47-2.76 1.93-5.4 4.57-8.82 5.09-4.36.66-7.81-2.44-10.65-5.36z" fill="#000000" stroke-width="none" opacity="1"></path></g></g><g id="svga-group-eyes-left-move" transform="matrix(1,0,0,1,0,0)"><g id="svga-group-eyes-left" transform="matrix(1,0,0,1,0,0)"><g id="svga-group-eyesback-left"></g><g id="svga-group-eyesiriswrapper-left"><g id="svga-group-eyesiriscontrol-left" transform="matrix(1,0,0,1,0,0)"><g id="svga-group-eyesiris-left" transform="matrix(1,0,0,1,0,0)"><path id="SvgjsPath22158" d="M77.3 84.3c-1.4 1.8-1.2 4.1.4 5.5 1.7 1.5 4.5 1.9 6.5.1 1-1 1.7-2.4 1.4-3.7-.1-.4-.3-.9-.5-1.3-.2-.5-.5-1-.9-1.4-2-1.7-5.2-1.3-6.9.8z" fill="#ffffff" stroke-width="none" opacity="1"></path><path id="SvgjsPath22159" d="M81.8 89c0-.1-.1-.1-.1-.2 0-.2 0-.3.1-.5s.4-.4.7-.4c.2 0 .3.1.5.2l.2.2c.3-.3.5-.8.5-1.3s-.2-.9-.5-1.2c-.2-.6-.7-1.1-1.4-1.3-.4-.1-.8-.1-1.2 0 .3.7 0 1.7-1 1.7-.3 0-.5-.1-.7-.2-.4.9-.2 2 .6 2.7.6.5 1.5.6 2.3.3zm-.7 2.4c-1.3 0-2.7-.5-3.6-1.4-1.7-1.5-1.8-4.1-.4-5.9.9-1.1 2.2-1.8 3.7-1.9 1.3-.1 2.6.3 3.5 1.1.4.4.8.9 1 1.4.2.4.4.9.6 1.3.3 1.3-.3 2.9-1.4 4-1.2 1-2.3 1.4-3.4 1.4zm-3.6-6.9c-1.3 1.6-1.1 3.8.3 5.1 1.6 1.4 4.2 1.8 6.1.1 1-1 1.5-2.4 1.3-3.5-.1-.4-.3-.8-.5-1.2v-.1c-.2-.5-.5-.9-.8-1.2-.8-.7-1.9-1.1-3.1-1-1.3.2-2.5.8-3.3 1.8z" fill="#000000" stroke-width="none" opacity="1"></path></g></g></g><g id="svga-group-eyesfront-left"><path id="SvgjsPath22259" d="M81 74.4c-6.9 0-12.5 5.6-12.5 12.5S74.1 99.4 81 99.4s12.5-5.6 12.5-12.5S87.9 74.4 81 74.4zm8.6 14.9c-.4.4-6.8 2.4-7.8 2.6-.9.1-4.9 1-7.2.3s-3.7-1.5-3.7-1.5 2.5-3.2 4.1-4.5c1.6-1.3 3.9-3.1 4.4-3.1s4 .1 5.4.6c1.3.5 3.6 2 4.2 2.9.6.9 1 2.3.6 2.7z" fill="#ffffff" stroke-width="none" opacity="1"></path><path id="SvgjsPath22260" d="M83.9 95.1c2.3-.9 5.6-4.7 5.6-4.8.1-.1.2-.1.3 0s.1.2 0 .3c-.1.2-3.4 4-5.8 4.9h-.1c-.1 0-.2-.1-.2-.2l.2-.2zm6.5-12.5c-.3-.6-.6-1.2-1.1-1.7 0-.2-.1-.3-.3-.4-.4-.1-6.7-.3-8.6 1.2-.3.2-.7.5-1.2.8-1.2.8-2.8 2-4.4 3.3-.8-.3-1.6-.8-1.7-1-.1-.2-.4-.3-.6-.2-.2.1-.3.4-.2.6.2.5 1.1.9 1.7 1.2-.2.2-.4.4-.7.6-1 .2-2.6.2-3-.2-.2-.2-.5-.2-.7 0s-.2.5 0 .7c.5.5 1.4.7 2.2.7h.4c-.3.3-.7.7-.9 1.1-.4.2-1.1.4-2.4 0-.2-.1-.5.1-.6.3-.1.2.1.5.3.6.6.2 1.2.3 1.6.3h.2c-.3.4-.5.9-.7 1.4-.1.2 0 .5.3.6h.2c.2 0 .4-.1.4-.3.1-.3.2-.5.4-.8 1.1.8 4.3 1.7 6.5 1.7h.7c1.6-.2 11.1-2.2 11.8-3.6.7-1.3-1.5-4.4-3.4-5.4-1.6-.9-4.9-1.1-6.3-1.1.2-.2.4-.3.5-.4 1.6-1.2 7.3-1.1 7.8-1 .2.5.5 1 .8 1.5.3.7.7 1.5 1.1 2.2.1.2.5.1.5-.1.1-1-.2-1.8-.6-2.6zm-4.2 2.1c1.8 1 3.4 3.6 3 4.2-.6.8-8.5 2.8-11.1 3.1-2.4.2-6.3-1-6.6-1.5 1.9-2.7 5.8-5.5 8-7 .1.2.3.4.6.3.5-.1 4.5 0 6.1.9z" fill="#000000" stroke-width="none" opacity="1"></path></g></g></g><g id="svga-group-eyes-right-move" transform="matrix(1,0,0,1,0,0)"><g id="svga-group-eyes-right" transform="matrix(1,0,0,1,0,0)"><g id="svga-group-eyesback-right"></g><g id="svga-group-eyesiriswrapper-right"><g id="svga-group-eyesiriscontrol-right" transform="matrix(1,0,0,1,0,0)"><g id="svga-group-eyesiris-right" transform="matrix(1,0,0,1,0,0)"><path id="SvgjsPath22160" d="M115.8 84.3c-1.4 1.8-1.2 4.1.4 5.5 1.7 1.5 4.5 1.9 6.5.1 1-1 1.7-2.4 1.4-3.7-.1-.4-.3-.9-.5-1.3-.2-.5-.5-1-.9-1.4-2.1-1.7-5.3-1.3-6.9.8z" fill="#ffffff" stroke-width="none" opacity="1"></path><path id="SvgjsPath22161" d="M120.2 89c0-.1-.1-.1-.1-.2 0-.2 0-.3.1-.5s.4-.4.7-.4c.2 0 .3.1.5.2l.2.2c.3-.3.5-.8.5-1.3s-.2-.9-.5-1.2c-.2-.6-.7-1.1-1.4-1.3-.4-.1-.8-.1-1.2 0 .3.7 0 1.7-1 1.7-.3 0-.5-.1-.7-.2-.4.9-.2 2 .6 2.7.7.5 1.6.6 2.3.3zm-.7 2.4c-1.3 0-2.7-.5-3.6-1.4-1.7-1.5-1.8-4.1-.4-5.9.9-1.1 2.2-1.8 3.7-1.9 1.3-.1 2.6.3 3.5 1.1.4.4.8.9 1 1.4.2.4.4.9.6 1.3.3 1.3-.3 2.9-1.4 4-1.1 1-2.2 1.4-3.4 1.4zm-3.5-6.9c-1.3 1.6-1.1 3.8.3 5.1 1.6 1.4 4.2 1.8 6.1.1 1-1 1.5-2.4 1.3-3.5-.1-.4-.3-.8-.5-1.2v-.1c-.2-.5-.5-.9-.8-1.2-.8-.7-1.9-1.1-3.1-1-1.3.2-2.5.8-3.3 1.8z" fill="#000000" stroke-width="none" opacity="1"></path></g></g></g><g id="svga-group-eyesfront-right"><path id="SvgjsPath22261" d="M119 74.4c-6.9 0-12.5 5.6-12.5 12.5s5.6 12.5 12.5 12.5 12.5-5.6 12.5-12.5-5.6-12.5-12.5-12.5zm6 17.8c-2.3.7-6.3-.2-7.2-.3-.9-.1-7.4-2.2-7.8-2.6s0-1.8.6-2.7c.6-.9 2.8-2.4 4.2-2.9 1.3-.5 4.9-.6 5.4-.6s2.8 1.8 4.4 3.1c1.6 1.3 4.1 4.5 4.1 4.5s-1.4.9-3.7 1.5z" fill="#ffffff" stroke-width="none" opacity="1"></path><path id="SvgjsPath22264" d="M115.7 95.1c-2.3-.9-5.6-4.7-5.6-4.8-.1-.1-.2-.1-.3 0s-.1.2 0 .3c.1.2 3.4 4 5.8 4.9h.1c.1 0 .2-.1.2-.2l-.2-.2zm15.5-5.6c-.1-.2-.3-.4-.6-.3-1.3.4-2 .2-2.4 0-.3-.4-.6-.7-.9-1.1h.4c.8 0 1.8-.1 2.2-.7.2-.2.1-.5 0-.7-.2-.2-.5-.2-.6 0-.4.4-2 .4-3 .2-.2-.2-.4-.4-.7-.6.7-.3 1.5-.8 1.7-1.2.1-.2 0-.5-.2-.6-.2-.1-.5 0-.6.2-.1.2-.9.6-1.7 1-1.6-1.3-3.2-2.5-4.4-3.3-.5-.3-.9-.6-1.2-.8-1.9-1.5-8.2-1.3-8.6-1.2-.2.1-.4.3-.3.5.1.2.3.4.5.4.5-.1 6.3-.2 7.8 1 .1.1.3.2.5.4-1.3 0-4.7.2-6.3 1.1-1.9 1.1-4.1 4.1-3.4 5.4.7 1.4 10.2 3.4 11.8 3.6h.7c2.2 0 5.5-.8 6.5-1.7.1.3.3.5.4.8.1.2.2.3.4.3h.2c.2-.1.4-.3.3-.6-.2-.4-.4-.9-.7-1.4h.2c.5 0 1-.1 1.6-.3.3.1.5-.2.4-.4zm-3.2 1c-.3.5-4.2 1.8-6.6 1.5-2.6-.3-10.5-2.3-11.1-3.1-.3-.6 1.3-3.2 3-4.2 1.6-.9 5.7-1 6.1-.9.2.1.5-.1.6-.3 2.3 1.5 6.2 4.3 8 7z" fill="#000000" stroke-width="none" opacity="1"></path></g></g></g><g id="svga-group-facehighlight-single"></g><g id="svga-group-eyebrows-left-move" transform="matrix(1,0,0,1,0,0)"><g id="svga-group-eyebrows-left-rotate" transform="matrix(1,0,0,1,0,0)"><g id="svga-group-eyebrows-left" transform="matrix(1,0,0,1,0,0)"><path id="SvgjsPath22215" d="M91.6 74.24c0 1.8-.36 3.43-1.86 3.5s-19.06-.07-20.48-.36-1.07-4.57-.71-4.92 18.41-.93 20.98-.57c2.57.35 2.07 1.2 2.07 2.35z" fill="#ffffff" stroke-width="none" opacity="1"></path><path id="SvgjsPath22216" d="M68.06 76.5c.28.92.76 1.2 1.12 1.27 1.21.24 13.33.38 18.44.38 1.09 0 1.86-.01 2.14-.02 1.49-.07 2.24-1.38 2.24-3.9 0-.16.01-.31.02-.45.02-.37.02-.7-.07-1v-.01c-.19-.62-.76-1.07-2.37-1.29-1.4-.19-7.01-.11-11.39.01-9.54.28-9.82.55-9.94.67-.42.44-.61 2.97-.19 4.34zm.76-3.71c.17-.03.51-.07.95-.1l1.5 4.42c-.37-.01-.69-.03-.97-.04-.32-.84-1.32-3.39-1.55-3.97.02-.14.05-.24.07-.31zm7.45 4.44c-.37-.01-.73-.01-1.08-.02l-1.07-4.76 1.44-.06.71 4.84zm-.16-4.85.91-.03c.22 1.79.51 4.15.59 4.91-.27 0-.53-.01-.79-.01l-.71-4.87zm-1.47 4.82-1.22-.03-1.43-4.62c.5-.03 1.03-.05 1.59-.07l1.06 4.72zm-1.8-.04-.99-.03-1.52-4.48c.33-.02.7-.04 1.1-.07l1.41 4.58zm6.89-4.89.28 5.02-1.85-.03c-.09-.84-.44-3.69-.59-4.94.71-.01 1.43-.03 2.16-.05zm6.41-.1c.62 0 1.18.01 1.67.02l-.72 5.15H85.8l.34-5.17zm-.88 5.17c-.5 0-1.02-.01-1.56-.01l.07-5.14c.64-.01 1.25-.01 1.83-.01l-.34 5.16zm-2.1-.02c-.35 0-.71-.01-1.08-.01l-.1-5.1c.42-.01.84-.02 1.25-.02l-.07 5.13zm-1.61-.01c-.33 0-.66-.01-1-.01l-.28-5.04 1.17-.03.11 5.08zm9.67-4.03-1.8 4.06c-.15 0-.34.01-.56.01l1.38-4.92c.77.19.96.45.98.85zm-1.18 3.99 1.13-2.55c-.08 1.86-.61 2.41-1.13 2.55zm-2.4.08.72-5.14c.49.02.88.04 1.12.08.09.01.16.03.24.04l-1.42 5.02h-.66zm-19-3.07c.4 1.03.83 2.13 1.07 2.74-.16-.01-.29-.03-.37-.04-.15-.03-.29-.17-.4-.43-.26-.58-.33-1.48-.3-2.27z" fill="#000000" stroke-width="none" opacity="1"></path></g></g></g><g id="svga-group-eyebrows-right-move" transform="matrix(1,0,0,1,0,0)"><g id="svga-group-eyebrows-right-rotate" transform="matrix(1,0,0,1,0,0)"><g id="svga-group-eyebrows-right" transform="matrix(1,0,0,1,0,0)"><path id="SvgjsPath22217" d="M108.4 74.24c0 1.8.36 3.43 1.86 3.5s19.06-.07 20.48-.36 1.07-4.57.71-4.92-18.41-.93-20.98-.57c-2.57.35-2.07 1.2-2.07 2.35z" fill="#ffffff" stroke-width="none" opacity="1"></path><path id="SvgjsPath22218" d="M131.74 72.17c-.12-.12-.39-.39-9.94-.67-4.38-.13-9.99-.21-11.39-.01-1.6.22-2.18.68-2.37 1.29v.01c-.09.3-.1.63-.07 1 .01.15.02.3.02.45 0 2.52.75 3.83 2.24 3.9.28.01 1.05.02 2.14.02 5.11 0 17.23-.14 18.44-.38.36-.07.84-.35 1.12-1.27.43-1.38.24-3.91-.19-4.34zm-.49.92c-.23.58-1.23 3.14-1.55 3.98-.28.02-.6.03-.97.04l1.5-4.42c.45.04.78.07.95.1.02.07.05.17.07.3zm-6.82-.69 1.44.06-1.07 4.76c-.35.01-.71.01-1.08.02l.71-4.84zm-1.25 4.84c-.26 0-.53.01-.79.01.08-.76.37-3.12.59-4.91l.91.03-.71 4.87zm3.24-4.76c.57.02 1.1.05 1.59.07l-1.43 4.62-1.22.03 1.06-4.72zm2.15.1c.4.02.77.04 1.1.07l-1.52 4.48-.99.03 1.41-4.58zm-6.13-.25c-.15 1.24-.51 4.1-.59 4.94l-1.85.03.28-5.02c.72.01 1.44.03 2.16.05zm-8.25 5.01h-1.29l-.72-5.15c.49-.01 1.05-.02 1.67-.02l.34 5.17zm.21-5.16c.58 0 1.18.01 1.83.01l.07 5.14c-.54 0-1.06.01-1.56.01l-.34-5.16zm2.37.02c.41.01.82.01 1.25.02l-.1 5.1c-.36 0-.72.01-1.08.01l-.07-5.13zm1.79.03 1.17.03-.28 5.04c-.33 0-.67.01-1 .01l.11-5.08zm-8.8.2 1.38 4.92c-.23 0-.41 0-.56-.01l-1.8-4.06c.02-.4.21-.66.98-.85zm-.93 2.3 1.13 2.55c-.52-.15-1.05-.7-1.13-2.55zm2.87 2.62-1.42-5.02c.08-.01.15-.03.24-.04.24-.03.63-.06 1.12-.08l.72 5.14h-.66zm19.36-.8c-.12.25-.25.4-.4.43-.07.01-.2.03-.37.04.24-.61.67-1.71 1.07-2.74.03.79-.04 1.69-.3 2.27z" fill="#000000" stroke-width="none" opacity="1"></path></g></g></g><g id="svga-group-nose-single-move" transform="matrix(1,0,0,1,0,0)"><g id="svga-group-nose-single" transform="matrix(1,0,0,1,0,0)"><path id="SvgjsPath22205" d="M96.5 90.5c-1.9 4.4-3.5 8.8-4.7 13.5-.4 1.6-.7 3.4.9 4.4.7.4 1.4.3 2.2.4 1.4.1 2.1 1.1 3.1 1.9 1.1 1 2.4 1.4 3.7.5.7-.5 1.2-1.4 1.9-1.9.9-.6 2-.4 2.8-1 2.9-2 .3-6.1-1.1-8.2-.4-.5-1.2 0-.8.5.8 1.1 1.5 2.3 2 3.5.3.7.4 1.5.2 2.3-.4 1.2-1.4 1.4-2.4 1.6-1.2.3-1.8 1.1-2.7 2-1.8 1.8-3.1-.5-4.5-1.6-.4-.3-.8-.5-1.4-.6-.8-.1-1.7.1-2.4-.3-1.2-.8-.7-2.3-.5-3.4.2-.9.4-1.8.7-2.7 1-3.6 2.4-7.1 3.9-10.5.1-.5-.7-1-.9-.4z" fill="#000000" stroke-width="none" opacity="1"></path></g></g><g id="svga-group-hair-front" transform="matrix(1,0,0,1,0,0)"><path id="SvgjsPath22315" d="M107.37 39.87s-5.95 18.57-21.67 22.38-24.53 11.91-20 30.96c0 0-8.57-13.1-7.86-29.29.71-16.19 12.14-41.91 50.48-35.48 0 0 14.53-1.67 26.43 13.1s8.33 39.05.71 55.96c0 0 4.52-23.34-5.71-28.1-10.23-4.76-23.57-13.34-22.38-29.53z" fill="#ffffff" stroke-width="none" opacity="1"></path><path id="SvgjsPath22316" d="M135.53 40.91c-11.61-14.39-25.5-13.63-27.18-13.48-15.71-2.61-28.35-.15-37.55 7.3-12.19 9.86-13.76 24.81-13.95 29.15-.05 1.21-.05 2.4-.01 3.58-.01.16-.04.3-.05.46-.01.14.03.25.08.34.72 14.22 7.68 25.01 8 25.51a1 1 0 0 0 1.81-.78c-3.95-16.62 1.81-25.52 19.26-29.75 11.28-2.73 17.63-12.6 20.5-18.51 1.11 10.55 8.65 18.96 22.89 25.59 9.41 4.38 5.2 26.78 5.16 27-.1.5.2.99.68 1.14.1.03.2.05.3.05.38 0 .75-.22.91-.59 7.46-16.57 11.72-41.43-.85-57.01zm5.22 34.93c-1.85-4.77-6.33-8.43-10.91-11.14-4.87-2.89-9.87-5.42-13.68-9.74-3.13-3.55-5.25-7.71-6.49-12.2 6.71 11.37 29.65 12.43 31.63 27.68-.11 1.79-.29 3.59-.55 5.4zm-10.09-20.42c-8.54-4.85-22.81-9.2-21.49-21.46.01-.08 0-.15-.02-.21.15-.88.29-1.77.42-2.66 3.71 14.61 25.03 14.01 31.13 26.8.47 2.7.7 5.5.72 8.35-2.01-4.69-6.15-8.21-10.76-10.82zm3.32-13.25c2.86 3.54 4.8 7.72 5.98 12.27-8.1-10.18-27.26-10.58-29.47-25.02 4.32.17 14.68 1.83 23.49 12.75zm-75.14 21.8c.01-.14.01-.29.02-.45 5.57-17.57 35.77-15.35 39.81-35.04.81.03 1.63.07 2.46.13-3.58 12.07-12.02 21.05-23.46 26.26-7.28 3.32-15.72 6.84-18.75 14.33-.12-1.7-.16-3.45-.08-5.23zm29.01-13.56c7.12-5.49 12.09-13.14 14.58-21.72.89.08 1.79.18 2.7.3-1.08 6.11-2.26 12.51-5.59 17.84-4.47 7.15-12.17 10.08-19.63 13.06-8.39 3.35-17.65 8.12-19.69 17.29-.38-1.54-.7-3.17-.94-4.86 2.3-12.9 19.59-14.99 28.57-21.91zM72.06 36.28c5.92-4.79 13.37-7.38 22.26-7.79-5.28 11.47-21.06 9.63-30.05 16.9 1.88-3.2 4.4-6.37 7.79-9.11zm-9.79 13.06C70.18 38 89.78 42.27 95.68 28.45c.57-.01 1.14-.03 1.73-.02-3.95 17.78-29.81 17.23-38.12 31.21.45-2.83 1.31-6.48 2.98-10.3zm23.2 11.94C69.23 65.22 62.31 73.3 63.65 87.15c-.85-1.89-1.77-4.22-2.58-6.85.6-16.2 20.62-18.01 31.48-24.87 9.36-5.91 11.97-16 13.81-26.27.6.09 1.19.17 1.8.27.09.01.19.02.28.01.01 0 .05-.01.12-.01-.45 3.31-.98 6.58-1.91 9.78-.1.1-.18.22-.22.36-.07.18-5.97 18.08-20.96 21.71zm44.71 7.21c-14.41-6.7-21.58-15.21-21.86-25.95 1.73 6.64 5.4 12.63 10.85 16.97 6.84 5.45 19.8 9.38 21.15 18.98-.7 3.89-1.7 7.74-2.95 11.42.44-7.5-.25-18.19-7.19-21.42z" fill="#000000" stroke-width="none" opacity="1"></path></g><g id="svga-group-glasses-single-move" transform="matrix(1,0,0,1,0,0)"><g id="svga-group-glasses-single" transform="matrix(1,0,0,1,0,0)"><path id="SvgjsPath22293" d="M96.15 86.78c0-1.12-1.09-2.89-7.19-3.75-6.1-.86-16.18.31-17.51.63-1.33.31-2.5 2.5-2.5 4.06 0 1.56.86 6.41 5.39 8.44 4.53 2.03 12.43 1.09 15.55-.31 3.13-1.41 6.26-3.68 6.26-9.07z" fill="#ffffff" stroke-width="none" opacity="0.44"></path><path id="SvgjsPath22294" d="M104.06 86.78c0-1.12 1.09-2.89 7.19-3.75 6.1-.86 16.18.31 17.51.63 1.33.31 2.5 2.5 2.5 4.06 0 1.56-.86 6.41-5.39 8.44-4.53 2.03-12.43 1.09-15.55-.31-3.14-1.41-6.26-3.68-6.26-9.07z" fill="#ffffff" stroke-width="none" opacity="0.44"></path><path id="SvgjsPath22295" d="M133.56 85.38c-.06-.18-1.59-.1-2.25-.06-.55-1.12-1.41-2.09-2.4-2.32-1.41-.33-11.5-1.52-17.76-.64-5.69.8-7.39 2.46-7.71 3.88-2.61-.88-5.35-.41-6.7-.06-.35-1.41-2.1-3.03-7.69-3.81-6.25-.89-16.35.29-17.75.63-.98.23-1.85 1.2-2.4 2.32-.65-.04-2.19-.12-2.25.06-.08.23-.08 1.62.08 1.93.11.22.96.13 1.58.06-.01.12-.03.24-.03.35 0 2.23 1.21 7 5.79 9.06 1.95.87 4.51 1.22 7.08 1.22 3.54 0 7.09-.67 9.02-1.54 2.96-1.33 6.32-3.55 6.62-8.9 1.09-.3 4.05-.94 6.63.11.34 5.27 3.68 7.47 6.62 8.79 1.94.87 5.48 1.54 9.02 1.54 2.57 0 5.13-.35 7.08-1.22 4.58-2.05 5.79-6.82 5.79-9.06 0-.11-.02-.24-.03-.35.62.07 1.47.16 1.58-.06.15-.31.15-1.7.08-1.93zm-43.94 9.85c-3.15 1.42-10.84 2.18-15 .31-4.1-1.84-5-6.27-5-7.83 0-1.38 1.06-3.19 1.98-3.41.98-.23 6.69-.92 12.02-.92 1.87 0 3.69.08 5.24.3 6.14.86 6.61 2.58 6.61 3.09.01 5.13-2.95 7.16-5.85 8.46zm35.97.31c-4.16 1.86-11.85 1.11-15-.31-2.9-1.3-5.86-3.33-5.86-8.45 0-.51.48-2.22 6.61-3.09 1.55-.22 3.37-.3 5.24-.3 5.33 0 11.04.69 12.02.92.93.22 1.98 2.03 1.98 3.41.01 1.55-.89 5.99-4.99 7.82z" fill="#000000" stroke-width="none" opacity="1"></path></g></g></g></g></g><rect id="svga-credit-rect" width="200" height="15" x="0" y="185" fill="#ecf0f1" opacity="0.5" style="display: none;"></rect><text id="svga-credit-text" font-family="Avenir Next, Roboto, Helvetica, Arial, sans-serif" font-size="10px" text-anchor="start" font-weight="400" size="10px" anchor="start" weight="400" fill="#333333" x="33.402061462402344" y="182.71133995056152" style="display: none;"><tspan id="SvgjsTspan21685" dy="13" x="33.402061462402344">Created on AvatarMaker.com</tspan></text></g></svg>