<svg xmlns="http://www.w3.org/2000/svg" version="1.1" width="600px" height="600px" viewBox="0 0 200 200" style="overflow:hidden!important;"><defs id="SvgjsDefs12281"></defs><g id="svga-group-wrapper"><g id="svga-group-backs-single"></g><g id="svga-group-humanwrap-move" transform="matrix(1,0,0,1,0,0)"><g id="svga-group-humanwrap" transform="matrix(1,0,0,1,0,0)"><g id="svga-group-hair-back-move" transform="matrix(1,0,0,1,0,0)"><g id="svga-group-hair-back" transform="matrix(1,0,0,1,0,0)"><path id="SvgjsPath12948" d="M119.8 26.1s4.5-17-22.8-16.6c0 0-18.4-9.8-34.6 10.5 0 0-15.6 3.8-15.6 30.5 0 0-3.8 14.9 5.4 39.1s-7 38.7-9.5 52.4c-2.5 13.6 8.3 19.1 16.5 27.3 8.3 8.3 4.8 15.2 1 17.5 0 0 14.6-6 14-16.2s-2.2-14.3.6-16.5 14.9-10.2 15.9-21.6c.9-11.4 27.2-99.4 27.2-99.4l1.9-7z" fill="#ffffff" stroke-width="none" opacity="1"></path><path id="SvgjsPath12949" d="M118.3 15.5c-3.7-4.8-10.9-7.1-21.2-7-2.3-1.1-20-8.5-35.4 10.6H61.4c-.2 0-.4.1-.5.2-3.7 1.4-15.2 7.7-15.2 31-.4 1.6-3.4 16.3 5.5 39.5 6.2 16.4.6 28.2-4.5 38.6-2.2 4.6-4.3 9-5.1 13.3-2.1 11.4 4.5 17.3 11.6 23.5 1.7 1.5 3.5 3.1 5.2 4.7 4.4 4.4 5 8.1 4.7 10.4-.4 2.8-2.1 4.6-3.5 5.5-.5.3-.6.8-.4 1.3.2.4.5.6.9.6.1 0 .3 0 .4-.1.4-.2 5.9-2.5 10.1-6.7.1 0 .2-.1.3-.2.2-.2.4-.5.6-.7 2.3-2.6 3.9-5.8 3.7-9.6-.2-2.8-.4-5.2-.6-7.1-.6-5.4-.7-7.4.9-8.6.2-.2.6-.4.9-.7 3.9-2.9 14.4-10.7 15.3-21.6.9-11.2 26.9-98.3 27.1-99.2l2-6.9c0-.2 1.4-5.8-2.5-10.8zM86 8c5.9 0 10.1 2.1 10.5 2.3.2.1.3.1.5.1h.2c1.8 1.6 3 3.6 3.7 5.8-1.7-.1-3.4 0-5 .2-2.6-4.2-6.8-7.2-11.9-8.3.6-.1 1.3-.1 2-.1zm-10.3 2.2c1.2-.6 2.4-1 3.6-1.3 6.4-.1 11.9 2.9 15.1 7.7-.6.1-1.1.2-1.6.4-4.1-4.9-10.5-7.5-17.1-6.8zM47.8 49.4c4.3-6.9 12.1-9.4 19.4-6.5-7.3-1.9-14.7.6-19.4 6.5 0 .1 0 0 0 0zm6.1-21.9c6.8-4.1 14.6-3.1 19.9 2-4.3-1.3-9.6 0-13.6 1.9-5.1 2.4-9.2 6.3-11.9 11.2.9-7.1 3.2-11.9 5.6-15.1zm12.5 74.7c.3 13.8-8.5 25-13.5 37.4-3.3 8.1-2.8 15.4.5 22.3-3.5-5.7-5.2-12.4-4.6-19.2.8-8.6 5.2-16.2 9-23.8 3.2-6.4 6-13.5 6.1-20.5.8 1.2 1.7 2.5 2.5 3.8zm-6.6 66.3c-.9-.9-1.8-1.7-2.7-2.5-3.4-4.9-5.8-10.4-5.5-16.5.4-6.9 4.1-13.4 7.2-19.4 4.2-8.2 8.4-16.6 8.8-25.8.1.1.2.3.2.4 4.7 8.7 4.5 16.7-1.2 24.8-3.9 5.5-9 10.4-10.7 17.2-1.3 5.2.2 9.8 3.4 14.1 2.1 2.9 4.8 5.3 6.7 8.3 2.7 4.2 3.7 11.1-1.4 13.7.2-.7.5-1.4.6-2.2.2-2.8-.4-7.2-5.4-12.1zm59-142.7-2 6.8c-1.1 3.6-26.2 88.2-27.2 99.6-.8 10-10.8 17.4-14.5 20.2-.4.3-.7.5-1 .7-2.5 2-2.2 4.9-1.6 10.4.1 1.4.3 2.9.4 4.6-.4-1.2-1-2.4-1.6-3.6-2.4-4.8-4.2-9.1-2.8-14.5 1-4.1 3.4-7.7 6.1-10.9 7.7-9 19.6-16.9 18.1-30.3-.1-.8-1.3-.8-1.2 0 1.7 15-13.7 22.4-20.8 33.4-2.6 4-4.4 8.9-3.8 13.7.6 5.5 5.1 10.3 5.8 15.7-.2-.7-.4-1.3-.7-2-3.2-7.3-8.9-11.7-7.1-20.6 2.8-13.5 16.6-21.3 20.4-34.5.2-.8-1-1.1-1.2-.3-3.6 12.2-15.2 19.4-19.5 31.2-1.6 4.4-2 9.2-.4 13.6 1.9 5.1 8.5 10.9 7.7 16.7-.8 1.5-1.9 2.9-3.1 4.1.4-.9.7-1.9.8-3 .5-5.3-3.2-9.6-6.4-13.4-3-3.5-6-6.9-6.4-11.7-.5-5.2 2.1-9.8 5-13.9 3.7-5.2 8.6-9.9 10.3-16.2 2-7.2-.6-13.7-4.4-19.6 0-.9-.1-1.8-.2-2.6s-1.3-.8-1.2 0c0 .2 0 .4.1.6-.8-1.2-1.6-2.3-2.5-3.4-.2-3.9-1.4-7.7-3.9-11.3-.5-.7-1.5 0-1.1.6 2 2.9 3.2 5.9 3.7 8.9-1.7-2.3-3.3-4.6-4.7-6.8-4.7-7.7-6.3-16.6-2.2-24.9 3.5-7.1 10.2-11.5 17.9-12.8.8-.1.5-1.3-.3-1.2-10.8 1.8-19.5 10.1-21 21.1-1.5 10.9 4.8 18.6 10.6 26.7.7 11.8-8 23.9-12.3 34.7-4 10-3.8 20.4 1 29.5-5.5-5-9.5-10.1-7.9-18.8.8-4 2.8-8.3 5-12.8 4.9-10.2 11.1-23 4.5-40.2-.4-1-.8-2-1.1-3 .5.3 1.2-.3.8-.9-3.6-7.2-4.6-15.2-2.5-23 2.3-8.3 9.1-16.8 18.7-13.8.8.2 1.1-1 .3-1.2-8.5-2.7-15.6 3.2-18.9 10.8C48.7 62.3 48 66.7 48 71c-1.6-9.4-1-16-.6-18.7C52.7 43.5 63 41 71.8 46.2c.7.4 1.3-.7.6-1.1-.7-.4-1.4-.8-2.2-1.1.3-.2.4-.8-.1-1-7.8-4.5-17-2.7-22.3 4.1v-.8c2-5.3 5.6-9.7 10.5-12.6 4.7-2.8 12.3-5.2 17.3-2 .3.5.7 1 1 1.5.2.4.7.4.9.1.5.6 1.4-.3.9-.9-.6-.7-1.3-1.3-2-1.8-4.8-6.4-13-8.6-20.4-5.6 3.2-3.2 6.3-4 6.5-4.1.2 0 .4-.2.5-.4l.1-.1c6.4.9 11.9 4.6 15.2 10.2.4.7 1.5.1 1.1-.6-3.3-5.7-8.9-9.5-15.3-10.6 2.6-3 5.2-5.3 7.8-7 7.4-2.5 14.9-.3 19.6 5-1.5.5-2.7 1-3.6 1.5-4.7 2.9-5.1 5.5-5.1 5.5H84l3.7-1.4 5.9-2.7c1 1.8 1.8 3.7 2.3 5.9.2.8 1.4.5 1.2-.3-.4-2.1-1.2-4-2.1-5.7h1.3c.7 1.9 1.2 4 1.2 6.2 0 .8 1.3.8 1.2 0 0-2.2-.4-4.2-1.1-6.1l3.8.1c0 .5-.1 1.1-.1 1.7-.1.8 1.1 1.1 1.2.3.1-.7.2-1.3.2-2h1L113 25c-2-5.6-6.3-7.9-10.9-8.6-.6-2.2-1.7-4.2-3.2-5.9h.6c.1.1.2.1.3.1 10.1.6 17.2 9.3 15.6 19.3-.1.8 1.1 1.1 1.2.3 1.3-8-2.5-15.2-9-18.7 4.2 1 7.2 2.8 9.2 5.2 3.1 4.1 2.1 8.8 2 9.1zm-5.3.5c0 .1.1.2.1.3 0-.1 0-.2-.1-.3zM113 25c.1.1.1.3.2.4-.1-.3-.2-.4-.2-.4zm1 2.6c0 .1.1.2.1.3 0-.1-.1-.2-.1-.3zm.8 2.2c.4 1.1.3.8 0 0zm-.7-1.9c.2.7.5 1.4.7 1.9-.1-.4-.4-1-.7-1.9zm-.9-2.5c.1.2.2.5.3.9l-.3-.9zm.4 1.2c.1.3.2.7.4 1-.1-.3-.2-.7-.4-1z" fill="#000000" stroke-width="none" opacity="1"></path></g></g><g id="svga-group-humanbody-back"><path id="SvgjsPath12539" d="M86.5 122c0 18.8 2.7 50.3-8.1 58s-31.8 13.9-36.7 24.4-3.6 14.4-3.6 14.4h124.1s.6-8.1-4.2-15.4c-6.6-10.1-28.5-17.7-36.5-22.9-8.1-5.2-10.9-32.2-10.9-58.8l-24.1.3z" fill="#ffffff" stroke-width="none" opacity="1"></path></g><g id="svga-group-chinshadow-single"></g><g id="svga-group-humanbody-front"><path id="SvgjsPath12540" d="M163.4 220.1H37.2l-.3-.9c-.1-.5-1.3-4.7 3.6-15.3 3.4-7.3 13.6-12.4 23.5-17.4 5.1-2.5 9.9-5 13.6-7.5 8.6-6 8.1-29.8 7.7-47.1-.1-3.5-.1-6.8-.1-9.8v-1.3l26.7-.4v1.3c0 32 3.8 53.5 10.3 57.7 2.4 1.6 6 3.3 10.2 5.4 9.7 4.7 21.9 10.6 26.7 18 5 7.6 4.4 15.9 4.4 16.2l-.1 1.1zm-124.1-2.6h121.6c-.1-2.4-.6-8.2-4-13.4-4.4-6.7-16.2-12.5-25.6-17-4.3-2.1-8-3.9-10.5-5.5-9.8-6.3-11.4-38.8-11.5-58.6l-21.5.4c0 2.6.1 5.5.1 8.5.4 18.9.9 42.4-8.8 49.3-3.8 2.7-8.7 5.1-13.9 7.7-9.5 4.8-19.4 9.7-22.3 16.1-3.3 6.9-3.7 10.9-3.6 12.5z" fill="#000000" stroke-width="none" opacity="1"></path><path id="SvgjsPath12541" d="M76.8 188.7c4.8 2.3 10.4 3.9 15.7 2.9.4-.1.4-.7 0-.8-5.1-.9-10.2-1.4-15.2-3.2-.6-.2-1.1.8-.5 1.1z" fill="#000000" stroke-width="none" opacity="1"></path><path id="SvgjsPath12542" d="M108.3 191.1c2.4.3 4.9-.4 7.1-1.2 2.1-.8 4.3-1.7 5.8-3.4.5-.5-.1-1.2-.7-.9-2.1.9-3.9 2.3-6.1 3-2 .7-4.1 1-6.2 1.5-.6.1-.4.9.1 1z" fill="#000000" stroke-width="none" opacity="1"></path></g><g id="svga-group-clothes-single"><path id="SvgjsPath12876" d="M159.2 200.9c-4.8-5.4-15.5-11.4-21.3-14.4l.3-1.7 3.4 2.6-2.9-11.7 3 1.1-7.4-8 4.3-1.3-6.7-1.8 2.4-2.2-8.3-.6 4.5-2.4-13.1-.6 3.8-3.2-8.5.2 2.4 8.6-2.1 8.1 3.2-2.7s-3.5 8.6-3 8.5c.5-.2 3.2-.8 3.2-.8l-7.7 5.9 3.4.6-5.9 3 3.4.6-6.4 2.7-7.7-7.7h4.2l-12-5.4 3.7-1.3-6.7-2.6 3.7-1.3-3.2-5.3s2.1 1.1 1.9.6-1.3-8.1-1.3-8.1l-.5-4.3s-2.7-1.4-9.3-1l1.4 3-13.9 5 3.5 1.3-5.3 5.1 2.9.2-6.9 10.1 4.3-1.6-1.8 7.7 3-2.7-.2 2.9c-.6.3-4 1.8-9 4.1-5.5 2.6-9.2 3.9-11.8 7.5s-6.1 9.9-6.4 14.7.3 7.7.3 7.7H164c.4.1 1.9-11.5-4.8-19.1z" fill="#ffffff" stroke-width="none" opacity="1"></path><path id="SvgjsPath12877" d="M159.9 200.2c-3.9-4.5-11.6-9.2-17.6-12.5.1-.2.1-.4.1-.7l-2.4-9.8 1.3.5c.4.2.9 0 1.2-.4s.2-.9-.1-1.2l-6.3-6.8 2.8-.8c.4-.1.7-.5.7-1 0-.4-.3-.8-.8-.9l-5-1.3 1.1-1c.3-.3.4-.7.3-1.1s-.5-.6-.9-.7l-4.9-.4 1.5-.8c.4-.2.6-.7.5-1.1s-.5-.8-.9-.8l-10.6-.5 1.9-1.6c.3-.3.4-.7.3-1.1-.2-.4-.5-.6-1-.6l-8.5.2c-.3 0-.6.1-.8.4s-.2.6-.2.9l2.3 8.4-2 7.9c-.1.4.1.9.4 1.1.4.2.8.2 1.2-.1l.1-.1c-2 5.1-1.8 5.3-1.4 5.8l.2.2-4.5 3.5c-.3.2-.4.6-.4 1s.4.7.8.8l.5.1-3.3 1.7c-.4.2-.6.6-.5 1s.4.8.8.8h.1l-2.8 1.2-5.5-5.5h1.7c.5 0 .9-.3 1-.8.1-.5-.1-.9-.6-1.1l-9.7-4.4 1.3-.5c.4-.1.7-.5.7-.9s-.2-.8-.6-.9l-4.2-1.6 1.1-.4c.3-.1.5-.3.6-.6.1-.3.1-.6-.1-.9l-1.8-3.1c.1 0 .2-.1.3-.2.3-.3.5-.8.3-1.1-.1-.4-.7-4.4-1.2-8l-.5-4.3c0-.3-.2-.6-.5-.8-.1-.1-3.1-1.6-9.8-1.1-.3 0-.6.2-.8.5-.2.3-.2.6 0 .9l1 2-12.9 4.6c-.4.1-.7.5-.7.9s.3.8.7.9l2 .7-4.1 4c-.3.3-.4.7-.2 1.1.1.4.5.6.9.6l1.1.1-5.9 8.6c-.2.4-.2.8 0 1.2s.7.5 1.1.3l2.6-1-1.3 5.9c-.1.4 0 .7.3.9-1.5.7-3.5 1.6-5.8 2.7-.7.3-1.4.7-2.1 1-4.5 2-7.7 3.5-10.1 6.9-3 4.2-6.3 10.5-6.5 15.3-.2 4.9.3 7.8.4 7.9.1.5.5.8 1 .8h127.9c.5 0 .9-.4 1-.9.2-.4 1.7-12-5.3-19.9zm-50-10.6c.4-.2.7-.6.6-1s-.4-.8-.8-.9l-.5-.1 3-1.6c0 .1.1.1.2.1 1.9-.6 3.8-1.2 5.6-2 .2-.1.1-.4-.1-.3-1.7.4-3.4 1.1-5 1.8.2-.2.2-.5.2-.7-.1-.4-.4-.8-.8-.8l-1.2-.2 4.7-3.6.1.1c1-.1 2.3-.5 2.9-1.3.1-.2 0-.4-.2-.3-.4.2-.8.5-1.2.8l-.9.3.6-.4c.4-.3.5-.8.3-1.2-.2-.4-.7-.6-1.1-.5-.2.1-.9.2-1.6.4.6-1.6 1.6-4.3 2.6-6.7.2-.4 0-.9-.3-1.2-.4-.3-.9-.2-1.2.1l-.1.1c.3-1 .6-1.9.8-2.9 0-.1-.2-.2-.2-.1-.3 1-.6 2-.8 3 0 .1.1.1.1.2l-.6.5 1.3-5.1v-.5l-2.1-7.4 4.3-.1-1.7 1.4c-.3.3-.4.7-.3 1.1s.5.7.9.7l9.5.5-1.3.7c-.4.2-.6.6-.5 1.1s.5.8.9.8l6 .5-.7.7c-.2.2-.3.4-.3.7-.6-.2-1.1-.3-1.6-.5-.3-.1-.4.3-.1.4.6.2 1.3.5 2 .7.1.1.3.3.5.3l3.2.9-.9.3c-.3.1-.6.4-.7.7v.5c-.6-.2-1.1-.4-1.7-.6-.2-.1-.4.3-.2.4.8.4 1.7.9 2.5 1.2l4.4 4.7c-.2 0-.3.1-.4.2-.3.2-.4.6-.3 1l2.2 8.9-1.1-.8c-.3-.2-.6-.3-1-.1-.1.1-.2.1-.3.2-.5-1.6-1.2-3.3-1.8-4.9-.1-.3-.6-.2-.5.1.6 1.8 1.1 3.9 1.9 5.7l-1.4 8.7-.1-.2c.3-1.7-.2-3.6-.8-5.1-.1-.3-.6-.2-.5.1.5 1.4.6 2.7.8 4.1-.2-.1-.4-.2-.6-.2-.4 0-.7.2-.9.5l-.5.9c-.1-1.3-.2-2.6-.2-3.8 0-.3-.4-.3-.4 0 0 1.6-.1 3.3 0 4.9l-1.7 3c.1-1.9-.2-3.9-.4-5.9 0-.3-.4-.3-.4 0 .1 2.2 0 4.4.4 6.6l-.9 1.7v-.5c0-.4-.3-.8-.7-.9-.1-1.5-.5-3.1-1-4.4-.1-.2-.5-.1-.4.1.3 1.1.6 2.2.7 3.3 0 .3.1.6.1 1-.2.1-.3.2-.5.4l-3.1 4.1c.6-1.1 1.1-2.2 1.5-3.3.1-.2-.3-.4-.4-.2-.9 1.4-1.5 2.9-2.2 4.4-.1-.1-.1-.1-.1-.2-.1-.2-.5 0-.3.2l.3.6-1.1 1.5-.3-1.1c0-.1 0-.1-.1-.2.7-1.3 1.4-2.7 1.9-4 .1-.2-.2-.3-.4-.2-.7 1.2-1.4 2.5-2 3.8-.1 0-.1-.1-.2-.1-.3-.1-.7 0-.9.2l-5.8 4.8c.8-1.8 1.3-3.8 1.9-5.7.1-.3-.3-.4-.4-.1-.7 1.9-1.6 3.9-2 5.9l-1-2.7-.8-3 .8.1c.4.1.8-.1 1-.4.2-.3.2-.8 0-1.1-.2-.3-.4-.7-.8-1.2.5-1 1.1-2 1.7-3.1.1-.2-.1-.4-.3-.2-.7.8-1.3 1.7-1.8 2.7-.5-.7-1-1.6-1.5-2.3.1 0 .2 0 .3.1h.2c.4.1.8-.2 1-.6.2-.4.1-.8-.2-1.1.5-1 1.1-1.9 1.7-2.8.1-.1-.1-.3-.2-.2-.8.7-1.4 1.7-1.8 2.7l-1-.7c.3-.6.6-1.2 1-1.8.5-.7 1.1-1.2 1.7-1.8.1-.2 0-.4-.2-.3-1.3.8-2.2 2.2-2.8 3.6l-5.7-3.9 4.6-2.7zm-32.3-33.5zm-17.3 21.7 3.9-5.8 2.1-2.1c.1-.2 0-.4-.2-.3-.2.1-.3.3-.5.4.1-.2.1-.5-.1-.7-.2-.3-.5-.5-.8-.6h-.6l3.6-3.5c.2-.2.3-.6.3-.9-.1-.2-.2-.5-.4-.6 1.2-.5 2.4-.6 3.6-.8.2 0 .2-.4-.1-.4-1.4-.2-2.9.3-4.2 1l-.5-.2L73 161c.9-.1 1.7-.2 2.6-.4.2-.1.1-.3 0-.3h-.5l2.7-1c.3-.1.5-.3.6-.6.1-.3.1-.6 0-.8l-.6-1.3c1 .3 2.1.8 3.1 1 .2 0 .4-.2.2-.4-.9-.5-2.1-.7-3.1-1 3.5-.1 5.6.4 6.4.8l.4 3.8c.1.8.2 1.6.4 2.6-.7-.7-1.4-1.4-2-2.1-.2-.2-.6.1-.3.3.8.9 1.6 1.8 2.5 2.6.2 1.2.4 2.3.5 3.2-.1 0-.1-.1-.2-.1 0 0-.1 0-.1-.1-.3-.5-.6-.9-.9-1.4-.2-.3-.6 0-.4.3.2.4.4.8.7 1.1-.1.1-.2.1-.3.2-.3.3-.4.8-.1 1.2l2.6 4.2-2.5.9c-.4.1-.7.5-.7.9s.2.8.6.9l4.2 1.6-1.1.4c-.4.1-.7.5-.7.9s.2.7.5.9c.6 1.5 1.6 2.7 3 3.4.2.1.4-.2.2-.3-1-.7-1.9-1.6-2.5-2.7l7.3 3.3c-.3.1-.5.3-.6.6-.1.2-.1.5 0 .7-.6-.3-1.2-.7-1.8-1.2-.2-.2-.6.1-.4.4.7.8 1.8 1.5 2.8 1.8l7.2 7.2s.1.1.2.1l6 4.1-.2.2c-.2.3-.2.9.2 1.4.3.3 1.3 1.8 2.4 3.5h-.1c-.3-.1-.7.1-.9.3-.2.3-.3.6-.2.9l1.2 4.4-1 7.3c-.3-1.5-.9-3.1-1.3-4.6-.1-.2-.4-.1-.4.1.4 1.4.7 3 1.2 4.4-1.4-2.3-3.1-5-3.5-5.5-.3-.3-.6-.5-.9-.5-.2 0-.3 0-.5.1-.4.2-.7.4-.6 1.4l-1.4-1.8c-.3-.4-.8-.5-1.2-.3-.4.2-.6.7-.5 1.1l.2.7-2.3-2.3c-.3-.3-.8-.4-1.1-.2-.4.2-.6.6-.6 1l.2 2c-4-3.7-8.9-8.4-9.4-9-.3-.4-.9-.7-1.3-.5-.8.4-.9.4.2 3.9l-4.8-4.5c-.3-.3-.8-.4-1.2-.1s-.6.7-.5 1.1l.3 1.4-7.7-9c-.3-.3-.7-.4-1.1-.3-.4.2-.7.6-.6 1l.2 3.6-1-1.6c-.3-1.6-.7-3.2-1.2-4.7-.1-.3-.4-.1-.4.1.1 1 .4 2 .6 3l-1.7-2.9c-.3-1.3-.6-2.6-1-3.9-.1-.2-.3-.1-.3.1.1.8.3 1.6.4 2.4l-.5-.9c-.2-.3-.5-.5-.8-.5-.3 0-.7.1-.9.4l-1 1.5.4-7.6c0-.4-.2-.8-.6-1-.4-.2-.8-.1-1.1.2l-.6.5.3-1.4.1-.1c.3-1.9 1.2-3.4 2-5.1.1-.2-.2-.4-.3-.2-.5.5-.8 1.1-1.1 1.7-.1-.2-.2-.3-.3-.4-.3-.2-.7-.3-1-.2l-1.4.5zm49.8 37.1v.2c-.1-.1-.1-.2 0-.2-.1 0-.1 0 0 0zm-47.9-28.5v-1 1zm-9.7 5.6c.7-.3 1.4-.6 2.1-1 3.3-1.6 5.9-2.7 7.4-3.4l-.4 6.6c0 .4.2.9.7 1s.9 0 1.2-.4l2.1-3.2 6.2 10.8c.2.4.7.6 1.2.5.4-.1.7-.6.7-1l-.3-4.9 8.4 9.9c.3.4.8.4 1.2.2.4-.2.6-.7.5-1.1l-.5-2.2 5.3 4.9c.3.3.8.4 1.2.1.4-.2.6-.7.4-1.2-.3-.9-.6-1.8-.9-2.6 2.7 2.6 6.7 6.3 8.8 8.3.3.3.8.4 1.1.2.4-.2.6-.6.6-1l-.2-1.9 3 2.9c.3.3.8.4 1.2.1.3-.2.4-.4.5-.7l1.3 1.6c.3.4.8.5 1.2.3.3-.1.5-.4.5-.7.9 1.5 1.9 3.1 2.6 4.3.2.3.5.5.9.5h.2c.4-.1.7-.4.8-.9l.9-6.9.2.5c.1.3.4.5.7.6.3.1.7 0 .9-.2l6.1-5.1.4 1.7c.1.4.4.7.8.7.4.1.8-.1 1-.4l5-6.7.1 1.1c0 .4.4.8.8.9s.9-.1 1.1-.5l4.8-8.4.9 1.9c.2.4.6.6 1.1.5.4-.1.8-.4.8-.8l1.4-9.1c4.3 2.3 10.6 5.8 15.3 9.5-2.3 1.7-8.8 7.6-10.5 21.6H59.7c-1.4-13.7-9.4-22.3-11.9-24.7 1.4-.6 2.9-1.3 4.7-2.2zm-15.4 20.4c.2-4.4 3.3-10.2 6.2-14.2.8-1.1 1.7-2 2.8-2.8 1.7 1.6 10.2 10.1 11.6 23.6H37.3c-.2-1.1-.4-3.4-.2-6.6zm126.4 6.7h-18c.2-1.3.4-2.5.6-3.6.6 1.6 2.2 3.1 4 3.2.2 0 .3-.3.1-.4-1.6-.7-2.8-1.5-3.7-3.1-.1-.1-.2-.1-.3-.1 2.5-11.4 8.4-15.7 9.4-16.4 1.1.9 2.1 1.9 2.9 2.8 5.2 6.1 5.1 14.8 5 17.6zm-90.1-55.2c2-.9 3.9-1.9 5.8-2.9.3-.1 0-.6-.2-.4-1.9.9-3.8 1.9-5.7 3.1-.2.1 0 .3.1.2zm-6.3 8.9c-.1.1.1.3.2.2 1.5-1.8 3-3.6 4.8-5.1.2-.2-.1-.5-.3-.3-1.8 1.4-3.6 3.2-4.7 5.2zm-.6 8.8c.8-2.5 1.7-4.8 3.2-6.9.1-.2-.2-.4-.3-.2-1.5 2.1-2.7 4.4-3.1 7-.1.2.2.3.2.1zm3.3-2c-.7 2.5-1.5 5-2 7.5-.1.3.3.4.4.1.8-2.4 1.4-5 2-7.5 0-.3-.4-.4-.4-.1zm1.8 3.5c-.6 2.4-.9 4.9-.4 7.2 0 .2.4.2.4-.1-.1-2.4-.1-4.7.4-7.1.1-.1-.3-.2-.4 0zm3 3c.1-.3-.4-.4-.5-.1-.4 2.4-.4 5 .5 7.2.1.2.5.2.4-.1-.4-2.4-.7-4.6-.4-7zm3.9 9.3c-.7-2.1-1.4-4-1.7-6.2-.1-.4-.6-.2-.5.1.3 2.1.8 4.3 1.9 6.2 0 .3.4.2.3-.1zm6.2 3.6c.2.1.4-.1.2-.2-1.6-1.8-2.8-3.7-3.3-6.1-.1-.3-.5-.2-.4.1.5 2.3 1.6 4.7 3.5 6.2zm1.9-2.8c-.1-.2-.5-.1-.4.1.7 1.8 1.6 3.7 3.1 5 .1.1.4 0 .3-.2-1.2-1.6-2.2-3-3-4.9zm5.8 4.6c-.7-.7-1.4-1.6-1.9-2.4-.2-.2-.5 0-.4.2 1 1.6 2.5 3.5 4.2 4.5.2.1.4-.2.3-.3-.8-.8-1.6-1.4-2.2-2zm4.8 1.7c-.6-.7-1.3-1.3-1.9-2-.2-.2-.6.1-.4.4.6.7 1.2 1.3 1.9 2 .6.6 1.1 1.2 1.8 1.7.1.1.3-.1.2-.2-.4-.8-1-1.3-1.6-1.9zm3.7.5c-.2-.3-.6.1-.4.4 1.3 1.6 2.5 3.5 4 4.9.2.2.5-.1.3-.3-1-1.8-2.6-3.4-3.9-5zm-25.3-32c-.1.2.1.3.3.1 1.3-1.6 2.4-3.3 4-4.7.2-.2-.1-.5-.3-.3-1.6 1.5-3.1 3.1-4 4.9zm.7 2.2c.2-.3-.2-.5-.4-.2-1.1 1.6-2 3.5-2.3 5.4 0 .2.3.3.4.1.6-1.8 1.3-3.6 2.3-5.3zm.3 9.4c0-1.6 0-3 .6-4.5.1-.3-.3-.4-.4-.1-.6 1.4-1 3.2-.5 4.7-.1.2.3.2.3-.1zm2.4-.8c0-.2-.4-.3-.4-.1-.4 2.8.2 5.8 2.1 8 .1.1.4 0 .3-.2-1.5-2.4-2.3-4.8-2-7.7zm6.7 11.5c.2.1.4-.1.2-.3-1.8-1.9-3.2-3.9-3.4-6.6 0-.3-.5-.3-.5 0 .2 2.7 1.3 5.5 3.7 6.9zm1.1-4.4c-.1-.3-.6-.2-.6.1.3 2.4 1.3 5 3.2 6.5.2.2.6-.1.4-.3-1.4-2-2.6-3.8-3-6.3zm8.6 9.2c.2.1.4-.2.3-.3-1.5-1.7-2.9-3.1-3.8-5.3-.2-.4-.8-.2-.6.2.8 2 2.1 4.2 4.1 5.4zm1.3-2.3c-.2-.3-.7 0-.5.3 1 1.3 1.9 2.8 3.1 3.9.2.1.4 0 .3-.2-.8-1.4-1.9-2.7-2.9-4zm6.5 6.4c-.5-1.3-1.4-2.5-2.1-3.7-.2-.3-.6 0-.4.3.7 1.2 1.3 2.6 2.2 3.6.2.1.4 0 .3-.2zm2.6.9c.6 1.4 1.1 3 1.9 4.4.1.2.4.1.4-.2-.4-1.5-1.2-3-1.8-4.4-.1-.3-.6-.1-.5.2zm-4.6-10.8c.2.1.4-.2.2-.4-2.1-1.5-4.4-2.6-6.7-3.8-.3-.2-.6.3-.3.4 2.2 1.4 4.4 2.8 6.8 3.8zm-2 .9c1.7 1.2 3.4 2.7 5.2 3.7.2.1.5-.2.3-.4-1.6-1.4-3.4-2.6-5.2-3.9-.3-.2-.7.3-.3.6zm5 4.3c1.3 1.4 2.1 3.1 3.2 4.6.2.2.5.1.4-.2-.6-1.8-2-3.5-3.2-4.9-.2-.2-.7.2-.4.5zm2.8 5.5c.8 1.6 1.2 3.3 1.8 5.1.1.2.4.2.4-.1-.2-1.9-.9-3.7-1.8-5.3-.1-.3-.6-.1-.4.3zm-23.6-18.9c-.5-1.9-.7-3.7-.3-5.6.1-.4-.5-.5-.5-.1-.4 2-.4 4 .5 5.9.1.1.3 0 .3-.2zm5.8 3.7c-1.1-1.7-2.1-3.1-2.8-5.1-.1-.3-.6-.2-.5.1.5 1.9 1.4 3.9 2.9 5.2.3.3.6.1.4-.2zm3.6 1.9c.2.2.6-.1.4-.3-.6-.8-1.3-1.5-1.8-2.4-.6-.9-1.1-1.9-1.5-2.9-.1-.4-.7-.2-.6.2.7 1.9 1.8 4.1 3.5 5.4zm-15.5 7.2c.4.9.8 1.9 1.3 2.8.1.2.4.1.4-.1-.3-1-.8-1.9-1.2-2.9-.2-.2-.6 0-.5.2zM65 188.2c.1-1.7.2-3.4.2-5.1 0-.2-.3-.2-.4 0-.2 1.7-.2 3.4-.2 5.1 0 .2.4.2.4 0zm4.7-22.8c-1.5.5-2.9 1.5-4.1 2.6-.2.2.1.6.3.3 1.2-1 2.5-1.8 3.9-2.6.2-.1.1-.4-.1-.3zm15.4 7.5c.1.2.3.1.3-.1.2-1.4-.6-2.9-1.3-4.1-.2-.3-.7 0-.5.3.8 1.3 1.1 2.6 1.5 3.9zm-2.1 1.6c.2-1.2.1-2.4.1-3.6 0-.3-.5-.3-.5 0 0 1.2-.1 2.4.1 3.6 0 .2.3.2.3 0zm37.8 26.7c-.9 1.4-1.5 2.9-2.2 4.3-.1.2.2.5.4.2.8-1.4 1.6-2.9 2.1-4.4 0-.2-.2-.3-.3-.1zm17.6-18.9c.1.2.4.1.3-.1-.5-2.2-1.7-4.2-3-6-.1-.2-.4 0-.3.2 1.3 1.8 2.1 3.8 3 5.9zm-31.3 10.5c2.2-1.5 4.5-2.9 6.5-4.6.1-.1 0-.3-.2-.2-2.3 1.4-4.4 3-6.5 4.6-.1.1 0 .3.2.2zm11.7-12.1c-1.6.8-3.2 1.6-4.9 2.1-.2.1-.1.4.1.3 1.8-.4 3.6-1.1 5-2.2.2-.1 0-.3-.2-.2zm.5-7.3c-1.1 1.1-2 2.5-3 3.7-.1.2.1.4.2.2 1-1.2 2.1-2.4 3-3.8.1 0-.1-.2-.2-.1zm-2.7.8c.6-1.4 1.3-2.8 1.8-4.2.1-.2-.2-.3-.3-.1-.7 1.3-1.2 2.8-1.8 4.1-.2.2.1.5.3.2zm1.6-11.8c1.5-.5 2.8-.2 4.2.4.2.1.4-.2.2-.4-1.3-1-3.1-1.1-4.6-.5-.2.2-.1.6.2.5zm3.5 2.5c1.4.4 2.9.9 4.4 1 .3 0 .3-.4.1-.4-1.4-.5-2.9-.8-4.3-1.1-.4 0-.5.4-.2.5zm3.3 2.2c1.9.9 3.3 2.2 4.9 3.5.1.1.4 0 .3-.2-1.2-1.7-3.2-2.9-5-3.7-.3-.1-.5.3-.2.4zm3.4 3.1c-.2-.2-.5.1-.3.3 1.8 1.8 3.2 3.9 4.8 5.9.1.2.4-.1.3-.2-1.1-2.3-3-4.3-4.8-6zm1.7 4.8c-.2-.3-.6 0-.4.2 1.1 1.9 2.1 3.9 3.5 5.5.1.2.4-.1.3-.2-.9-1.9-2.2-3.7-3.4-5.5zm1.5 5.3c.2 1.8.4 3.6.8 5.3.1.2.4.2.4-.1-.1-1.8-.5-3.6-.8-5.4 0-.2-.4-.1-.4.2zm-.8 4.1c-.1 1.4-.2 2.8-.1 4.2 0 .2.3.2.3 0 .2-1.4.2-2.8.3-4.2 0-.3-.5-.3-.5 0zm-1.4.8c.2 1.9-.2 3.6-.5 5.5 0 .1.2.2.2.1.8-1.7.9-3.8.7-5.6 0-.3-.4-.3-.4 0zm-1.7 2.7c-.4 2-.9 4-1.2 6 0 .2.3.2.3 0 .6-1.9.8-4 1.2-5.9.1-.2-.2-.3-.3-.1zm-2.7 3.4c-.4 1.9-1.1 4-1.1 6 0 .2.2.2.3 0 .7-1.9.9-4 1.2-5.9.1-.3-.3-.4-.4-.1zm-2.1 2.5c-.9 1.5-2 3-2.7 4.6-.1.2.2.4.3.2 1.1-1.4 1.9-3.1 2.8-4.6.1-.2-.2-.5-.4-.2zm-3.8 3.8c-.4.8-.9 1.4-1.4 2.1-.5.6-1.1 1.1-1.6 1.7-.1.1 0 .3.2.2 1.4-.8 2.5-2.4 3.3-3.8 0-.3-.3-.5-.5-.2zm12.9-26.1c1 .4 2 .9 3 1.1.2 0 .3-.2.1-.3-.9-.5-2-.9-3-1.2-.3-.2-.4.3-.1.4zm-16.4-13.1c-.1 1.3-.1 2.6.1 4 0 .2.2.2.3 0 .2-1.3.1-2.6.1-4-.1-.2-.5-.2-.5 0zm3.2 7.6c-.2 1.4-.3 2.9-.2 4.4 0 .2.4.3.4.1.2-1.4.2-3 .2-4.4-.1-.4-.4-.4-.4-.1zm1.8 1.9c-.1 1.7-.3 3.4-.2 5.1 0 .2.3.2.3 0 .3-1.7.2-3.5.2-5.2 0 0-.3 0-.3.1zm2.7 7.4c-.4-2.1-.8-4.2-.8-6.3 0-.3-.4-.3-.4 0-.2 2.2 0 4.4.9 6.4.1.1.3 0 .3-.1zm1-4.1c.3 1.7.5 3.5 1 5.1.1.2.4.2.4-.1-.1-1.7-.6-3.5-1-5.2-.1-.2-.5-.1-.4.2zm3.1 5.7c-.1-1.3-.4-2.6-.6-3.8 0-.3-.5-.2-.4.1.2 1.2.3 2.6.6 3.8.1.1.4.1.4-.1zm-.9 2.5c0-.3-.4-.3-.4 0 .2 2.1 0 4.1-.3 6.1 0 .2.2.2.3.1.5-2 .6-4.1.4-6.2zm-2 2.6c-.1 2.4-.7 4.6-1.2 6.9-.1.2.3.4.4.1.9-2.2 1.2-4.7 1.2-7 0-.2-.4-.2-.4 0zm-3.6 8.8c1.2-1.8 1.9-4 2.2-6.2 0-.2-.3-.3-.4-.1-.4 2.2-1.2 4.1-2.1 6.1-.1.2.1.4.3.2zm-4.2 2.2c1.4-1.2 2.4-3.1 3.1-4.8.1-.2-.3-.3-.4-.1-.7 1.8-1.8 3.2-2.9 4.7-.2.2 0 .3.2.2zm-1.8-.6c.5-.7.8-1.6 1.2-2.4.1-.3-.2-.5-.4-.2-.4.8-.9 1.6-1.2 2.4 0 .3.3.4.4.2zm5.2-7.7c.7-1.2 1.3-2.6 1.8-3.9.1-.2-.3-.5-.4-.2-.6 1.3-1.3 2.6-1.7 4-.1.1.2.2.3.1zm.8-6.4c.3-.8.3-1.7.4-2.6.1-.3-.4-.4-.5-.1-.1.9-.4 1.8-.4 2.6.1.3.4.3.5.1zm-75.8 39c-2.6-.6-4.5-1.7-6.5-3.5-.2-.2-.4.1-.2.2 1.6 2 4.2 3.4 6.7 3.6.1 0 .1-.2 0-.3zm5.5.2c-4.1-1.4-7.7-3.3-10.7-6.5-.2-.2-.5.1-.3.3 2.9 3.1 6.7 5.6 10.9 6.5.3.1.3-.2.1-.3zm4.4-1.3c-5.3-1.8-9.9-4.4-13.9-8.5-.2-.1-.4.1-.2.2 3.7 4.1 8.5 7.4 14 8.6.2.1.3-.2.1-.3zm-3.7-4.5c.2 0 .3-.2.1-.3-3.6-1.6-6.7-3.2-9.4-6.2-.2-.2-.5.1-.3.3 2.5 2.9 5.9 5.5 9.6 6.2zm-1.8-5.5c.2.1.3-.2.1-.3-2.3-1.2-4.4-2.4-6.3-4.2-.2-.2-.5.1-.3.3 1.9 1.8 4.1 3.4 6.5 4.2zm98.1 5.4c-.1-.2-.5 0-.4.2 1.4 2.9 4.1 5.5 7.3 6.4.2.1.3-.2.1-.3-2.9-1.5-5.3-3.3-7-6.3zm2.6-2.5c-.2-.2-.6 0-.4.2 2.3 3.4 5.4 6.6 9.3 8.2.2.1.3-.2.1-.3-3.5-2.3-6.6-4.6-9-8.1zm1.4-3.6c-.1-.2-.5 0-.4.2 2.3 4 5.8 8.3 10 10.4.2.1.4-.1.2-.3-3.7-3.2-7.1-6-9.8-10.3zm2.4-2c-.2-.2-.6 0-.4.2 1.8 2.4 4 5 6.6 6.4.2.1.5-.2.3-.4-1.1-1-2.3-1.8-3.4-2.8-1.1-1-2.1-2.1-3.1-3.4z" fill="#000000" stroke-width="none" opacity="1"></path></g><g id="svga-group-head" transform="matrix(1,0,0,1,0,0)"><g id="svga-group-ears-left-move" transform="matrix(1,0,0,1,0,0)"><g id="svga-group-ears-left" transform="matrix(1,0,0,1,0,0)"><path id="SvgjsPath12764" d="M64.4 81.9s-4.4-4.7-5.8-6.2c-1.4-1.4-3.1-4.7-5-4.1-1.9.5-1.2 2.7-1.3 5.8-.1 3.1.3 9.1 2.2 12.4s2.9 4.5 3.5 8 2.8 4.2 4.1 3.2 4.3-7 4.4-10.2c0-3.2-1.2-7.5-2.1-8.9z" fill="#ffffff" stroke-width="none" opacity="1"></path><path id="SvgjsPath12765" d="M59.7 102.2c-.8-.3-2.3-1.3-2.8-4.2-.5-2.9-1.2-4-2.7-6.5l-.6-1.1c-2.1-3.6-2.5-10.1-2.4-13v-2c0-2-.1-4.1 2.1-4.7 2.1-.6 3.7 1.5 5 3.2.4.5.7.9 1 1.2 1.4 1.4 5.8 6.2 5.8 6.2l.1.1c.9 1.4 2.3 6 2.2 9.4-.1 3.4-3.2 9.8-4.8 11-.5.4-1.2.6-1.8.6-.4 0-.7-.1-1.1-.2zm-1.8-25.7c-.4-.4-.7-.9-1.1-1.4-.8-1.1-2.1-2.7-2.9-2.5-.6.2-.7.6-.6 2.8v2.1c-.1 3.1.3 8.9 2.1 11.9l.6 1.1c1.5 2.6 2.4 4 3 7.2.3 1.4.8 2.4 1.5 2.7.3.1.7.1 1-.1 1-.8 3.9-6.5 4-9.4.1-3-1.1-7.1-1.8-8.2-.7-.7-4.6-4.9-5.8-6.2z" fill="#000000" stroke-width="none" opacity="1"></path><path id="SvgjsPath12766" d="M52.7 76.3c.5-1.9 2.1-1 3 .4 1.9 2.6 3.2 6.6 3.6 10 0 .1-.1.2-.1.1-.1.1-.2.1-.2-.1-1.2-.5-1.6-.2-1.2.8 0 .3.1.6.3.9.2.5.6 1 .9 1.5.5.8 1.2 1.5 1.7 2.3.2.3 0 .6-.2.4-1.4-1-3.9-4.3-3.2-6.6.3-.8 1-1.1 1.5-.7-1.1-3.6-4-12-5.8-8.8-.1.1-.3 0-.3-.2z" fill="#000000" stroke-width="none" opacity="1"></path><path id="SvgjsPath12767" d="M55.6 76.8c-1 2-1.4 4.4-.9 7.1.3 1.5 2.9 9.5 4.9 8.4.2-.1.4.3.2.5-2 1.8-4.2-4.5-4.9-6.5-1.1-3.4-1.4-7.5.5-9.7.1-.1.2.1.2.2z" fill="#000000" stroke-width="none" opacity="1"></path></g></g><g id="svga-group-ears-right-move" transform="matrix(1,0,0,1,0,0)"><g id="svga-group-ears-right" transform="matrix(1,0,0,1,0,0)"><path id="SvgjsPath12768" d="M137.1 81.9s4.4-4.7 5.8-6.2c1.4-1.4 3.1-4.7 5-4.1 1.9.5 1.2 2.7 1.3 5.8s-.3 9.1-2.2 12.4c-1.9 3.3-2.9 4.5-3.5 8-.6 3.5-2.8 4.2-4.1 3.2-1.3-1-4.3-7-4.4-10.2 0-3.2 1.2-7.5 2.1-8.9z" fill="#ffffff" stroke-width="none" opacity="1"></path><path id="SvgjsPath12769" d="M140.7 102.4c-.6 0-1.3-.2-1.8-.6-1.5-1.2-4.7-7.5-4.8-11-.1-3.4 1.2-8 2.2-9.4l.1-.1s4.4-4.7 5.8-6.2c.3-.3.6-.8 1-1.2 1.3-1.7 2.9-3.8 5-3.2 2.2.6 2.1 2.7 2.1 4.7v2c.1 2.9-.2 9.4-2.4 13l-.6 1.1c-1.5 2.5-2.2 3.7-2.7 6.5-.5 2.9-2 3.9-2.8 4.2-.4.1-.7.2-1.1.2zm-2.8-19.9c-.7 1.2-1.9 5.2-1.8 8.2.1 2.9 2.9 8.6 4 9.4.3.2.6.3 1 .1.7-.3 1.3-1.3 1.5-2.7.6-3.2 1.4-4.7 3-7.2l.6-1.1c1.8-3 2.2-8.7 2.1-11.9v-2.1c.1-2.2 0-2.6-.6-2.8-.8-.2-2 1.4-2.9 2.5-.4.5-.8 1-1.1 1.4-1.3 1.5-5.2 5.7-5.8 6.2z" fill="#000000" stroke-width="none" opacity="1"></path><path id="SvgjsPath12770" d="M148.8 76.3c-.5-1.9-2.1-1-3 .4-1.9 2.6-3.2 6.6-3.6 10 0 .1.1.2.1.1.1.1.2.1.2-.1 1.2-.5 1.6-.2 1.2.8 0 .3-.1.6-.3.9-.2.5-.6 1-.9 1.5-.5.8-1.2 1.5-1.7 2.3-.2.3 0 .6.2.4 1.4-1 3.9-4.3 3.2-6.6-.3-.8-1-1.1-1.5-.7 1.1-3.6 4-12 5.8-8.8.1.1.3 0 .3-.2z" fill="#000000" stroke-width="none" opacity="1"></path><path id="SvgjsPath12771" d="M145.9 76.8c1 2 1.4 4.4.9 7.1-.3 1.5-2.9 9.5-4.9 8.4-.2-.1-.4.3-.2.5 2 1.8 4.2-4.5 4.9-6.5 1.1-3.4 1.4-7.5-.5-9.7-.1-.1-.2.1-.2.2z" fill="#000000" stroke-width="none" opacity="1"></path></g></g><g id="svga-group-faceshape-wrap" transform="matrix(1,0,0,1,0,0)"><g id="svga-group-faceshape-single"><path id="SvgjsPath12751" d="M138.2 58.2c-2-10.8-13.3-27.4-37.2-27.4-23.9 0-31.9 12.7-35.5 22.2-3 8.1-3 21.3-3 21.3s3.6 48.9 14.7 57.2c11.1 8.3 39.5 6.5 46.4 2.2 6.8-4.3 11.9-21.2 15.8-59.3 0-.1.2-8.5-1.2-16.2z" fill="#ffffff" stroke-width="none" opacity="1"></path><path id="SvgjsPath12752" d="M102.5 138.6c-9.8 0-20.2-1.7-26.1-6.1-11.4-8.5-15-56-15.2-58.1v-.1c0-.6 0-13.6 3.1-21.8 5.8-15.5 17.8-23 36.7-23 10.9 0 20.5 3.4 27.7 10 5.5 5 9.6 11.9 10.8 18.5 1.4 7.7 1.2 16 1.2 16.4v.1c-3.9 37.4-8.8 55.5-16.4 60.3-3.6 2.2-12.4 3.8-21.8 3.8zM63.8 74.3c.1.8 1 12.7 3.2 25.3 3.7 21.5 8.1 28.6 11 30.8 4.7 3.5 13.4 5.5 24 5.5 8.9 0 17.6-1.4 20.9-3.4 6.7-4.2 11.5-22.8 15.2-58.3 0-.7.1-8.7-1.2-15.8-1.1-6-4.8-12.4-10-17-6.7-6.1-15.7-9.3-26-9.3-17.7 0-28.9 7-34.3 21.3-2.7 7.6-2.8 20.1-2.8 20.9z" fill="#000000" stroke-width="none" opacity="1"></path></g></g><g id="svga-group-mouth-single-move" transform="matrix(1,0,0,1,0,0)"><g id="svga-group-mouth-single" transform="matrix(1,0,0,1,0,0)"><path id="SvgjsPath12834" d="M113.06 120.65c-.29.14-.56.24-.84.34-.01 0-.01-.01-.02-.01-2.76-.78-4.09-3.51-6.88-4.24-2.03-.53-4.09.07-5.57 1.36-.96-1.17-2.54-1.53-4.11-1.13-3.23.82-4.73 4.14-8.26 4.42-.07.01-.11.04-.16.07-.14-.04-.29-.06-.43-.1-.33-.1-.47.37-.14.47.49.15.96.24 1.42.31.03.06.08.11.16.13 2.63.87 4.33 3.03 6.8 4.17 2.02.93 4.33 1.35 6.59 1.22 4.32-.25 8.06-2.62 10.16-5.98.53-.17 1.05-.37 1.56-.61.3-.14.03-.56-.28-.42zm-21.53-.48c1.94-1.45 5.67-4.76 7.9-1.66.02.02.04.02.06.04.07.15.27.25.42.1 2.43-2.33 5.66-1.82 8.07.2 1.11.93 2.12 1.83 3.48 2.37 0 0-.01 0-.01.01l-.01.01c-2.11.55-3.97.14-6.35-.24-.06-.01-.12-.01-.18-.01.11-.14.2-.3.22-.48.02-.13-.04-.26-.19-.3-.13-.03-.31.04-.33.17-.04.27-.22.49-.52.59-.16.01-.32.02-.48.05.42-.49.65-1.08.65-1.72 0-.32-.54-.32-.54 0-.01.7-.32 1.32-.91 1.78-.05.04-.06.09-.07.13-.9.25-1.79.59-2.8.66-1.02.07-1.95-.24-2.87-.53-.65-.49-1.06-1.19-1.12-1.97-.02-.31-.56-.32-.54 0 .04.63.28 1.19.66 1.69-.54-.13-1.09-.21-1.67-.14-.87.11-1.66.53-2.51.72-1.17.26-2.34.26-3.49.09 1.18-.28 2.16-.83 3.13-1.56zm8.09 6.98c-2.63-.23-4.94-1.24-6.96-2.75-1.05-.78-2.02-1.56-3.18-2.13 1.27.02 2.51-.2 3.89-.56.55-.15 1.01-.2 1.44-.19-.21.25-.41.51-.62.76-.21.25.26.5.47.25l.78-.96c.56.09 1.1.26 1.78.47.24.07.47.13.71.19-.38.38-.64.83-.77 1.33-.08.31.45.44.52.13.12-.48.37-.9.75-1.24.04-.04.04-.08.05-.12.25.04.49.06.74.07-.7 1-.92 2.17-.6 3.32.08.31.61.18.52-.13-.31-1.13-.06-2.24.7-3.18.01-.01.01-.01.01-.02.06 0 .12 0 .18-.01 1.03-.08 1.86-.51 2.83-.77.7-.19 1.32-.19 1.92-.11 1.2.51 1.99 1.59 2.03 2.8.01.31.55.32.54 0-.03-.98-.48-1.87-1.22-2.53.48.11.98.23 1.51.3 1.16.15 2.29.08 3.38-.18-2.42 3.52-6.73 5.66-11.4 5.26z" fill="#000000" stroke-width="none" opacity="1"></path></g></g><g id="svga-group-eyes-left-move" transform="matrix(1,0,0,1,0,0)"><g id="svga-group-eyes-left" transform="matrix(1,0,0,1,0,0)"><g id="svga-group-eyesback-left"></g><g id="svga-group-eyesiriswrapper-left"><g id="svga-group-eyesiriscontrol-left" transform="matrix(1,0,0,1,0,0)"><g id="svga-group-eyesiris-left" transform="matrix(1,0,0,1,0,0)"><path id="SvgjsPath12802" d="M77.3 84.3c-1.4 1.8-1.2 4.1.4 5.5 1.7 1.5 4.5 1.9 6.5.1 1-1 1.7-2.4 1.4-3.7-.1-.4-.3-.9-.5-1.3-.2-.5-.5-1-.9-1.4-2-1.7-5.2-1.3-6.9.8z" fill="#ffffff" stroke-width="none" opacity="1"></path><path id="SvgjsPath12803" d="M81.8 89c0-.1-.1-.1-.1-.2 0-.2 0-.3.1-.5s.4-.4.7-.4c.2 0 .3.1.5.2l.2.2c.3-.3.5-.8.5-1.3s-.2-.9-.5-1.2c-.2-.6-.7-1.1-1.4-1.3-.4-.1-.8-.1-1.2 0 .3.7 0 1.7-1 1.7-.3 0-.5-.1-.7-.2-.4.9-.2 2 .6 2.7.6.5 1.5.6 2.3.3zm-.7 2.4c-1.3 0-2.7-.5-3.6-1.4-1.7-1.5-1.8-4.1-.4-5.9.9-1.1 2.2-1.8 3.7-1.9 1.3-.1 2.6.3 3.5 1.1.4.4.8.9 1 1.4.2.4.4.9.6 1.3.3 1.3-.3 2.9-1.4 4-1.2 1-2.3 1.4-3.4 1.4zm-3.6-6.9c-1.3 1.6-1.1 3.8.3 5.1 1.6 1.4 4.2 1.8 6.1.1 1-1 1.5-2.4 1.3-3.5-.1-.4-.3-.8-.5-1.2v-.1c-.2-.5-.5-.9-.8-1.2-.8-.7-1.9-1.1-3.1-1-1.3.2-2.5.8-3.3 1.8z" fill="#000000" stroke-width="none" opacity="1"></path></g></g></g><g id="svga-group-eyesfront-left"><path id="SvgjsPath12901" d="M81 74.4c-6.9 0-12.5 5.6-12.5 12.5S74.1 99.4 81 99.4s12.5-5.6 12.5-12.5S87.9 74.4 81 74.4zm4.9 17.3c-1.4 1-4.9 2.1-7.5 1.8s-5.6-3.2-6.1-4.2-.4-2-.4-2 2-3.6 4.8-4.6 5.3-1.4 7.5-.5 5.1 5.3 5.1 5.3-1.9 3.2-3.4 4.2z" fill="#ffffff" stroke-width="none" opacity="1"></path><path id="SvgjsPath12902" d="M91.4 86.8c-.1-.2-.5-.3-.6-.1-.3.6-.3 1.2-.4 1.8-.5-1.1-1.5-2.9-3.8-5.2-1.5-1.5-3.4-2.2-5.7-2.1-1.1 0-2.2.3-3.3.6-.2-.3-.5-.9-.8-1.4-.1-.3-.4-.4-.7-.3-.3.1-.4.4-.3.7.2.5.5 1 .7 1.3-.6.3-1.2.6-1.7 1l-1.2-.6c1.3-1.8 3-3.1 4.9-3.8 1.8-.6 3.5-.5 4.8.3 3.3 1.9 5.5 5.9 5.5 5.9 0 .1.1.2.2.2h.1c.1 0 .2-.2.2-.3-.1-.3-2.4-4.3-5.7-6.2-1.4-.8-3.3-.9-5.2-.3-2.1.7-3.9 2.1-5.2 4-.4-.3-.7-.5-.8-.7-.1-.2-.4-.3-.7-.2-.2.1-.3.4-.2.7.2.4.6.7 1.2 1-.3.4-.5.9-.7 1.4-.1.1 0 .3.1.3.1.1.3 0 .3-.1.2-.5.4-.9.7-1.3.3.2.6.3.9.4-.3.2-.5.5-.8.8-.1.2-.3.3-.4.5-.5-.1-1.9-.3-2.8-.9-.2-.1-.5-.1-.7.2-.1.2-.1.5.2.7.9.6 2 .8 2.7 1-.3.5-.6.9-.9 1.4-.7.1-2 .1-2.8-.3-.2-.1-.5 0-.7.2-.1.2 0 .5.2.7.7.4 1.8.5 2.5.5h.2c-.6 1.1-.8 1.9-.8 2-.1.3.1.5.3.6h.1c.2 0 .4-.1.5-.4 0 0 .2-.6.6-1.6.5.7.9 1.4 1.5 1.9-.4.2-1.1.7-1.5 1.4-.1.2-.1.5.2.7.1 0 .2.1.3.1.2 0 .3-.1.4-.2.5-.8 1.4-1.2 1.4-1.2.4.3.7.6 1.1.8-.4.3-1 .7-1.3 1.2-.2.2-.1.5.1.7.1.1.2.1.3.1.2 0 .3-.1.4-.2.3-.5 1.1-1 1.3-1.2l.1-.1c1.4.7 2.9 1 4.2 1 1.3 0 2.5-.2 3.4-.5 2.9-.9 5.4-4.3 5.9-5.1.4.9.5 1.4.5 1.4v.1c-.2.4-.5.7-.7 1.1-.1.1 0 .3.2.2 1.9-.3 2.7-3.2 2.2-4.6zm-2.8 1.1s-2.6 4-5.5 4.8c-3.2.9-7.6 1-10.7-4.2-.1-.1-.2-.2-.4-.2.5-.9 1.1-1.9 2-3 1.2-1.4 4-3 6.9-3.1 1.4-.1 3.4.2 5 1.8 1.4 1.4 2.3 2.7 2.9 3.6 0 .1-.1.2-.2.3z" fill="#000000" stroke-width="none" opacity="1"></path></g></g></g><g id="svga-group-eyes-right-move" transform="matrix(1,0,0,1,0,0)"><g id="svga-group-eyes-right" transform="matrix(1,0,0,1,0,0)"><g id="svga-group-eyesback-right"></g><g id="svga-group-eyesiriswrapper-right"><g id="svga-group-eyesiriscontrol-right" transform="matrix(1,0,0,1,0,0)"><g id="svga-group-eyesiris-right" transform="matrix(1,0,0,1,0,0)"><path id="SvgjsPath12804" d="M115.8 84.3c-1.4 1.8-1.2 4.1.4 5.5 1.7 1.5 4.5 1.9 6.5.1 1-1 1.7-2.4 1.4-3.7-.1-.4-.3-.9-.5-1.3-.2-.5-.5-1-.9-1.4-2.1-1.7-5.3-1.3-6.9.8z" fill="#ffffff" stroke-width="none" opacity="1"></path><path id="SvgjsPath12805" d="M120.2 89c0-.1-.1-.1-.1-.2 0-.2 0-.3.1-.5s.4-.4.7-.4c.2 0 .3.1.5.2l.2.2c.3-.3.5-.8.5-1.3s-.2-.9-.5-1.2c-.2-.6-.7-1.1-1.4-1.3-.4-.1-.8-.1-1.2 0 .3.7 0 1.7-1 1.7-.3 0-.5-.1-.7-.2-.4.9-.2 2 .6 2.7.7.5 1.6.6 2.3.3zm-.7 2.4c-1.3 0-2.7-.5-3.6-1.4-1.7-1.5-1.8-4.1-.4-5.9.9-1.1 2.2-1.8 3.7-1.9 1.3-.1 2.6.3 3.5 1.1.4.4.8.9 1 1.4.2.4.4.9.6 1.3.3 1.3-.3 2.9-1.4 4-1.1 1-2.2 1.4-3.4 1.4zm-3.5-6.9c-1.3 1.6-1.1 3.8.3 5.1 1.6 1.4 4.2 1.8 6.1.1 1-1 1.5-2.4 1.3-3.5-.1-.4-.3-.8-.5-1.2v-.1c-.2-.5-.5-.9-.8-1.2-.8-.7-1.9-1.1-3.1-1-1.3.2-2.5.8-3.3 1.8z" fill="#000000" stroke-width="none" opacity="1"></path></g></g></g><g id="svga-group-eyesfront-right"><path id="SvgjsPath12903" d="M119 74.4c-6.9 0-12.5 5.6-12.5 12.5s5.6 12.5 12.5 12.5 12.5-5.6 12.5-12.5-5.6-12.5-12.5-12.5zm8.4 15c-.5 1-3.6 3.9-6.1 4.2-2.5.3-6-.8-7.5-1.8-1.4-1-3.4-4.2-3.4-4.2s2.9-4.5 5.1-5.3c2.2-.9 4.7-.4 7.5.5 2.8 1 4.8 4.6 4.8 4.6s.1 1-.4 2z" fill="#ffffff" stroke-width="none" opacity="1"></path><path id="SvgjsPath12906" d="M131.8 87.3c-.1-.2-.4-.3-.7-.2-.8.4-2.1.4-2.8.3-.3-.4-.5-.9-.9-1.4.7-.1 1.8-.4 2.7-1 .2-.1.3-.5.2-.7s-.5-.3-.7-.2c-1 .6-2.3.9-2.8.9-.1-.2-.2-.3-.4-.5-.2-.3-.5-.5-.8-.8.3-.1.6-.3.9-.4.2.4.5.8.7 1.3.1.1.2.2.3.1.1-.1.2-.2.1-.3-.2-.5-.4-.9-.7-1.4.5-.3 1-.7 1.2-1 .1-.2 0-.5-.2-.7-.2-.1-.5 0-.7.2-.1.2-.4.4-.8.7-1.3-1.9-3.2-3.3-5.2-4-1.9-.6-3.8-.5-5.2.3-3.3 1.9-5.6 5.9-5.7 6.2 0 .1 0 .3.2.3h.1c.1 0 .2-.1.2-.2 0 0 2.2-4 5.5-5.9 1.3-.8 3-.9 4.8-.3 1.9.6 3.7 2 4.9 3.8l-1.2.6c-.5-.4-1.1-.7-1.7-1 .2-.4.5-.9.7-1.3.1-.3 0-.5-.3-.7-.3-.1-.5 0-.7.3-.2.5-.6 1-.8 1.4a9.6 9.6 0 0 0-3.3-.6c-2.3-.1-4.3.6-5.7 2.1-3.8 3.8-4.2 6.4-4.2 6.5 0 .3.2.5.4.6.3 0 .5-.2.6-.4 0 0 .1-.5.5-1.4.5.8 3 4.2 5.9 5.1.9.3 2.1.5 3.4.5s2.8-.3 4.2-1l.1.1c.3.2 1 .7 1.3 1.2.1.1.3.2.4.2s.2 0 .3-.1c.2-.2.3-.5.1-.7-.3-.5-.9-.9-1.3-1.2.4-.2.7-.5 1.1-.8 0 0 1 .4 1.4 1.2.1.2.3.2.4.2s.2 0 .3-.1c.2-.1.3-.4.2-.7-.4-.7-1.1-1.2-1.5-1.4.5-.5 1-1.2 1.5-1.9.4.9.6 1.6.6 1.6.1.2.3.4.5.4h.1c.3-.1.4-.4.3-.6 0-.1-.3-.8-.8-2h.2c.8 0 1.8-.1 2.5-.5.3-.2.4-.5.3-.7zm-4.5 1.2c-3.1 5.1-7.6 5.1-10.7 4.2-2.9-.8-5.4-4.8-5.5-4.8l-.2-.2c.6-1 1.5-2.2 2.9-3.6 1.6-1.6 3.6-1.8 5-1.8 2.9.1 5.7 1.6 6.9 3.1.9 1 1.6 2.1 2 3-.2-.1-.3 0-.4.1z" fill="#000000" stroke-width="none" opacity="1"></path></g></g></g><g id="svga-group-facehighlight-single"></g><g id="svga-group-eyebrows-left-move" transform="matrix(1,0,0,1,0,0)"><g id="svga-group-eyebrows-left-rotate" transform="matrix(1,0,0,1,0,0)"><g id="svga-group-eyebrows-left" transform="matrix(1,0,0,1,0,0)"><path id="SvgjsPath12854" d="M74.33 71.59c1.52-.07 17.06 3.38 17.49 4.03.43.65-.65 3.02-1.15 3.17-.5.14-15.19-4.53-15.83-4.39-.65.14-6.91 2.59-7.34 2.38-.44-.22 5.32-5.12 6.83-5.19z" fill="#ffffff" stroke-width="none" opacity="1"></path><path id="SvgjsPath12855" d="M67.28 77.2c.35.18.9.08 5.66-1.64.84-.31 1.71-.62 1.97-.69.63.05 4.8 1.29 8.16 2.29 5.89 1.75 7.16 2.1 7.6 2.1.06 0 .11-.01.15-.02.67-.19 1.21-1.59 1.31-1.87.24-.64.45-1.52.11-2.03-.69-1.04-16.86-4.29-17.91-4.24-1.63.08-7.13 4.66-7.31 5.5-.07.26.04.49.26.6zm7.07-5.13c.13-.01.37.01.68.06l2.07 2.3c-1.61-.45-2.16-.55-2.37-.5-.03.01-.08.02-.12.04l-2.21-.88c.86-.59 1.6-1 1.95-1.02zm3.91 2.69-2.22-2.47c.77.13 1.74.32 2.82.54l1.57 2.56c-.84-.25-1.56-.46-2.17-.63zm3.08.9-1.63-2.65c.72.15 1.47.31 2.23.48l.63 2.53c-.43-.13-.84-.25-1.23-.36zm6.77 1.99c-.33-.1-.68-.2-1.05-.3l.67-2.5c.48.12.93.24 1.34.35l-.96 2.45zm1.59-2.28c.3.08.57.16.81.23l-.96 2.45c-.24-.07-.52-.14-.81-.22l.96-2.46zm-3.25 1.8c-.48-.14-.98-.29-1.48-.44l.38-2.46c.61.14 1.2.29 1.76.43l-.66 2.47zm4.1 1.13c-.09-.01-.22-.04-.37-.08l.95-2.41c.14.05.25.09.32.13.11.44-.52 1.99-.9 2.36zm-7.22-2.05c-.01 0-.03-.01-.04-.01l-.65-2.59c.7.16 1.4.32 2.08.48l-.37 2.43c-.34-.11-.69-.22-1.02-.31zm-10.72-1.59c-.12.04-.25.09-.39.14-.53.02-1.48.07-2.24.11.57-.47 1.19-.95 1.79-1.38l1.9.75c-.3.1-.63.23-1.06.38zm-3.91 1.36c.14-.13.31-.28.48-.43.27-.01.6-.03.96-.05-.52.18-1.02.35-1.44.48z" fill="#000000" stroke-width="none" opacity="1"></path></g></g></g><g id="svga-group-eyebrows-right-move" transform="matrix(1,0,0,1,0,0)"><g id="svga-group-eyebrows-right-rotate" transform="matrix(1,0,0,1,0,0)"><g id="svga-group-eyebrows-right" transform="matrix(1,0,0,1,0,0)"><path id="SvgjsPath12856" d="M125.67 71.59c-1.52-.07-17.06 3.38-17.49 4.03-.43.65.65 3.02 1.15 3.17.5.14 15.19-4.53 15.83-4.39.65.14 6.91 2.59 7.34 2.38s-5.32-5.12-6.83-5.19z" fill="#ffffff" stroke-width="none" opacity="1"></path><path id="SvgjsPath12857" d="M133 76.61c-.18-.84-5.68-5.42-7.31-5.5-1.06-.05-17.22 3.2-17.91 4.24-.34.51-.13 1.39.11 2.03.1.28.65 1.68 1.31 1.87.04.01.08.02.15.02.43 0 1.71-.35 7.6-2.1 3.36-1 7.53-2.24 8.16-2.29.25.07 1.12.38 1.97.69 4.76 1.72 5.3 1.81 5.66 1.64.2-.12.31-.35.26-.6zm-5.4-3.52-2.21.88c-.04-.01-.09-.03-.12-.04-.21-.05-.76.06-2.37.5l2.07-2.3c.31-.04.55-.06.68-.06.35.02 1.09.43 1.95 1.02zm-8.02 2.3 1.57-2.56c1.08-.22 2.05-.41 2.82-.54l-2.22 2.47c-.62.17-1.34.38-2.17.63zm-2.16.63.63-2.53c.76-.17 1.51-.33 2.23-.48l-1.63 2.65c-.38.11-.79.23-1.23.36zm-6.5-.82c.41-.11.86-.23 1.34-.35l.67 2.5c-.37.11-.72.21-1.05.3l-.96-2.45zm.35 2.63c-.3.08-.57.16-.81.22l-.96-2.45c.24-.07.51-.15.81-.23l.96 2.46zm1.61-3.13c.56-.14 1.15-.28 1.76-.43l.38 2.46c-.5.15-.99.29-1.48.44l-.66-2.47zm-4.32 1.23c.07-.04.18-.08.32-.13l.95 2.41c-.16.04-.29.07-.37.08-.39-.36-1.02-1.91-.9-2.36zm7.09.62-.37-2.43c.68-.16 1.38-.32 2.08-.48l-.65 2.59c-.01 0-.03.01-.04.01-.33.1-.68.21-1.02.31zm10.68-2.27 1.9-.75c.6.43 1.22.92 1.79 1.38-.76-.04-1.71-.09-2.24-.11-.14-.05-.27-.1-.39-.14-.43-.15-.76-.28-1.06-.38zm3.54 1.26c.36.02.68.03.96.05.17.15.33.3.48.43-.43-.13-.93-.3-1.44-.48z" fill="#000000" stroke-width="none" opacity="1"></path></g></g></g><g id="svga-group-nose-single-move" transform="matrix(1,0,0,1,0,0)"><g id="svga-group-nose-single" transform="matrix(1,0,0,1,0,0)"><path id="SvgjsPath12844" d="M96.5 90.5c-1.9 4.4-3.5 8.8-4.7 13.5-.4 1.6-.7 3.4.9 4.4.7.4 1.4.3 2.2.4 1.4.1 2.1 1.1 3.1 1.9 1.1 1 2.4 1.4 3.7.5.7-.5 1.2-1.4 1.9-1.9.9-.6 2-.4 2.8-1 2.9-2 .3-6.1-1.1-8.2-.4-.5-1.2 0-.8.5.8 1.1 1.5 2.3 2 3.5.3.7.4 1.5.2 2.3-.4 1.2-1.4 1.4-2.4 1.6-1.2.3-1.8 1.1-2.7 2-1.8 1.8-3.1-.5-4.5-1.6-.4-.3-.8-.5-1.4-.6-.8-.1-1.7.1-2.4-.3-1.2-.8-.7-2.3-.5-3.4.2-.9.4-1.8.7-2.7 1-3.6 2.4-7.1 3.9-10.5.1-.5-.7-1-.9-.4z" fill="#000000" stroke-width="none" opacity="1"></path></g></g><g id="svga-group-hair-front" transform="matrix(1,0,0,1,0,0)"><path id="SvgjsPath12946" d="M64.1 82.8S68 57 76.2 53c0 0 6.1-.2 11.4-2 0 0 12.3 5.9 28.4-.2 0 0 6.8 3.9 12.9 3.3 0 0 6.1 5.7 10 27.6 0 0 4.1-9.6 2-21.7-2-12.1-8.2-17.4-8.2-17.4s-1.6-10.2-8.2-13.9-10.6-2-10.6-2-1.8-3.5-7.8-5.5-16.1-2-20.4 2.9c0 0-10-1.4-16.2 13.9 0 0-8.4 9.2-9 25.8-.4 13.1 3.6 19 3.6 19z" fill="#ffffff" stroke-width="none" opacity="1"></path><path id="SvgjsPath12947" d="M141.9 59.7c-1.9-11-7-16.5-8.2-17.7-.4-1.9-2.4-10.8-8.6-14.3-5.3-3-9.1-2.7-10.7-2.3-.9-1.2-3.2-3.7-7.9-5.3-5.8-2-16.3-2-21.2 3-2.3-.1-11 .5-16.6 14.4-1.1 1.3-8.5 10.4-9.1 26.3-.5 13.2 3.5 19.4 3.6 19.6.2.3.5.4.8.4h.2c.4-.1.7-.4.8-.8 1.1-7 5.1-25.6 11.3-29 1.2-.1 6.4-.4 11.1-2 1.1.5 4.1 1.6 8.6 2.2.2.1.3.1.5 0 2.3.3 5 .4 7.9.1 3.5-.3 7.3-1 11.4-2.6 1.6.8 7.2 3.5 12.6 3.2 1.2 1.4 6.1 8.1 9.4 26.7.1.4.4.8.9.8s.9-.2 1-.6c.3-.2 4.3-9.9 2.2-22.1zm-6.7 3.9c1.5-4.1 2.1-8.3 2.1-12.5.7 1.7 1.4 3.6 2 5.8-.1 4.1-.8 8.1-2.3 11.9-.6-2-1.2-3.7-1.8-5.2zm-3.3-7.2c2-2.8 3.1-6 3.3-9.3.2.4.5.8.8 1.2.5 4.6 0 9.1-1.3 13.5-1.1-2.3-2.1-4.1-2.8-5.4zM126 30.9c2.5 7.7.4 15.4-5.8 20.6-.2-.1-.3-.1-.5-.2 3-3.2 2.4-9.4 2-13.3-.4-4-1.2-8.4-4.3-10.8 1.7.1 4 .7 6.7 2.2.7.5 1.3.9 1.9 1.5zm-9.4 19c2.7-7.5 2.2-15.4-1.4-22.4 4.6 1.9 5.2 8.1 5.4 12.3.2 3.2.6 8.6-2.1 11-1.1-.5-1.8-.8-1.9-.9zM113.1 27c.1.3.4.4.7.5 3.8 7 4.3 14.9 1.5 22.4-1.3.5-2.5.9-3.8 1.2 2.8-9.7 1.3-20-4-28.5 4.1 1.9 5.6 4.4 5.6 4.4zm-7.4 25.2c3.3-10.4 2.2-21.4-2.9-31 1 .2 1.9.4 2.7.6 6.1 8.8 7.8 19.4 4.6 29.6-1.6.4-3 .6-4.4.8zm-9.5-.1c-6-9.6-6.3-21.1-.8-31.1.6-.1 1.2-.1 1.8-.1-.6 10.6-.1 21.1 1.4 31.5-.8-.1-1.7-.2-2.4-.3zm-7.6-1.8c-7.3-7.1-8.1-17.7-1.9-25.7 1.7-1.8 4.3-2.8 7.1-3.3-5.1 9.9-4.8 21.1.7 30.7-2.8-.6-4.9-1.4-5.9-1.7zm-7.1 1.1c-5.4-7.8-8.1-18.5-.4-25.5 1.6-.6 2.9-.8 3.7-.8-5.2 8-4.5 17.9 1.9 25-1.7.6-3.5 1-5.2 1.3zm-3.7-23.6c-4.8 7.1-2.6 16.5 2.3 23.8-1.4.2-2.7.3-3.4.3-4-3.7-6.1-8.7-6-14.1 2.2-5.1 4.8-8.2 7.1-10zM68.5 62c-2.3-5.2-3.1-10.8-2.4-16.5.3-.7.7-1.4 1-2 .1 4.5 1.6 8.8 4.6 12.4-1.2 1.7-2.3 3.8-3.2 6.1zm-1.9 5.5c-1.9-5.2-2.8-10.5-2.9-16l.9-2.7c-.1 5.1 1 10.1 3.3 14.8-.5 1.3-1 2.6-1.3 3.9zm-3 12c-1-2.9-2.3-8-2-15.7.1-3 .5-5.8 1-8.3.4 4.8 1.5 9.4 3.4 13.9-1.1 3.9-1.9 7.6-2.4 10.1zm8.8-24.6c-3.1-3.9-4.5-8.7-4-13.6.4-.7.8-1.2 1.2-1.7.4 4.8 2.4 9.2 5.8 12.6-1.1.6-2.1 1.5-3 2.7zm27.5-2.5c-1.6-10.5-2.1-21-1.4-31.6.9 0 1.8.1 2.7.2 5.5 9.6 6.6 20.8 3.2 31.3-1.6.2-3.1.2-4.5.1zm21.6-.4c5.6-4.9 7.8-11.9 6.4-19 1.9 2.7 3 5.9 3.5 7.9.1 4.3-.1 8.9-3.2 12.1-2.3.1-4.7-.4-6.7-1zm8.1 1.3c2.2-2.7 2.9-6.1 3-9.5.3.3.7.8 1.2 1.5.2 3.6-.7 7-2.7 10-.8-1.3-1.4-1.9-1.5-2zm9.5 24.2c-.5-2.5-1.1-4.8-1.6-6.8 1.3-3 2.2-6.1 2.7-9.2.9 6.6-.1 12.5-1.1 16z" fill="#000000" stroke-width="none" opacity="1"></path></g><g id="svga-group-glasses-single-move" transform="matrix(1,0,0,1,0,0)"><g id="svga-group-glasses-single" transform="matrix(1,0,0,1,0,0)"></g></g></g></g></g><rect id="svga-credit-rect" width="200" height="15" x="0" y="185" fill="#ecf0f1" opacity="0.5" style="display: none;"></rect><text id="svga-credit-text" font-family="Avenir Next, Roboto, Helvetica, Arial, sans-serif" font-size="10px" text-anchor="start" font-weight="400" size="10px" anchor="start" weight="400" fill="#333333" x="33.402061462402344" y="182.71133995056152" style="display: none;"><tspan id="SvgjsTspan12329" dy="13" x="33.402061462402344">Created on AvatarMaker.com</tspan></text></g></svg>