<svg xmlns="http://www.w3.org/2000/svg" version="1.1" width="600px" height="600px" viewBox="0 0 200 200" style="overflow:hidden!important;"><defs id="SvgjsDefs40510"></defs><g id="svga-group-wrapper"><g id="svga-group-backs-single"></g><g id="svga-group-humanwrap-move" transform="matrix(1,0,0,1,0,0)"><g id="svga-group-humanwrap" transform="matrix(1,0,0,1,0,0)"><g id="svga-group-hair-back-move" transform="matrix(1,0,0,1,0,0)"><g id="svga-group-hair-back" transform="matrix(1,0,0,1,0,0)"><path id="SvgjsPath41197" d="M140.4 90.8s1.1 10.6-7.4 32.3-12.6 27.9-27.2 36-16 15.2-23.7 27.7c-6.9 11.2-21.5 17.6-21.5 17.6s1.8-6-6.7-23.1-6.7-25.9-.7-39.7 39.4-73.4 49.3-77.7 33-2.9 37.9 26.9z" fill="#000000" stroke-width="none" opacity="1"></path><path id="SvgjsPath41198" d="M132.6 105.5c-2.5 21.2-15.4 37.9-33.9 48.5-14.9 8.5-35 18.3-35.5 37.6.1 0 .2-.1.3-.1.3-.1.6-.2.8-.3-.2.1-.4.2-.6.2.2-.1.5-.1.7-.2.9-23.2 29.9-31 45.5-43 13.5-10.4 22-26.1 23.9-42.9-.4.1-.8.1-1.2.2zm-7.3 16.7c-6.9 23.9-35.6 27.1-53 40.3-6.3 4.8-11.7 12.1-13.7 19.8.4-15.3 13.9-27.4 26.2-35.6 13.1-8.7 27.4-16.4 35-30.7.4-.7-.7-1.3-1.1-.6-9.3 17.4-28.2 24.6-43 36.3-8.1 6.4-15.2 15.1-17.6 24.9.1-5.3 1.1-10.7 3.2-15.8 4.4-10.9 12.6-18.4 22.3-24.5 7.8-4.9 16-9.1 22.8-15.4 4.8-4.4 8.7-9.6 11.7-15.3-.5 0-1 .1-1.5.1-4.5 8.1-10.8 14.9-18.5 20.2-8.4 5.8-17.9 10.1-25.6 17-11.7 10.3-16.9 25.3-15.2 40-2.1-6.8-2.7-14-.8-21.1 2.8-10.3 10.1-18.7 17.5-26 8.7-8.7 18.9-17.6 24.4-28.6-.4 0-.9.1-1.3.1-7.3 14.4-22.9 24.9-32.8 37.4-5.2 6.6-9.2 14.2-10.1 22.7-.7 7 .8 13.9 3.4 20.3 0 .2.1.3.1.5 0 1.9.2 3.8.8 5.7.8-.6 1.8-1.1 2.8-1.5-.5-1-1-2-1.5-3.1-.2-.9-.5-1.8-.7-2.7.2-4.6 1.8-9.3 4.4-13.3 5.8-8.8 15.3-14.1 24.6-18.6 15.2-7.3 33.2-14.4 38.3-32.2.3-.8-.9-1.1-1.1-.3zm-66.6 25.7c6.6-8.3 15.5-15 17.6-26 .2-.8-1.1-1.1-1.2-.3-2.6 13.4-15.5 20.3-21.6 31.9-4.9 9.5-5.6 20.5-2.2 30.6.2.8 1.5.4 1.2-.3-4.1-12.4-1.9-25.7 6.2-35.9zm29.4 18c-7.9 4-13.5 11.2-15.6 19.8-.2.8 1 1.1 1.2.3 2-8.4 7.3-15.2 15-19.1.7-.3.1-1.4-.6-1z" fill="#ffffff" stroke-width="none" opacity="1"></path></g></g><g id="svga-group-humanbody-back"><path id="SvgjsPath40768" d="M86.5 122c0 18.8 2.7 50.3-8.1 58s-31.8 13.9-36.7 24.4-3.6 14.4-3.6 14.4h124.1s.6-8.1-4.2-15.4c-6.6-10.1-28.5-17.7-36.5-22.9-8.1-5.2-10.9-32.2-10.9-58.8l-24.1.3z" fill="#ffffff" stroke-width="none" opacity="1"></path></g><g id="svga-group-chinshadow-single"></g><g id="svga-group-humanbody-front"><path id="SvgjsPath40769" d="M163.4 220.1H37.2l-.3-.9c-.1-.5-1.3-4.7 3.6-15.3 3.4-7.3 13.6-12.4 23.5-17.4 5.1-2.5 9.9-5 13.6-7.5 8.6-6 8.1-29.8 7.7-47.1-.1-3.5-.1-6.8-.1-9.8v-1.3l26.7-.4v1.3c0 32 3.8 53.5 10.3 57.7 2.4 1.6 6 3.3 10.2 5.4 9.7 4.7 21.9 10.6 26.7 18 5 7.6 4.4 15.9 4.4 16.2l-.1 1.1zm-124.1-2.6h121.6c-.1-2.4-.6-8.2-4-13.4-4.4-6.7-16.2-12.5-25.6-17-4.3-2.1-8-3.9-10.5-5.5-9.8-6.3-11.4-38.8-11.5-58.6l-21.5.4c0 2.6.1 5.5.1 8.5.4 18.9.9 42.4-8.8 49.3-3.8 2.7-8.7 5.1-13.9 7.7-9.5 4.8-19.4 9.7-22.3 16.1-3.3 6.9-3.7 10.9-3.6 12.5z" fill="#000000" stroke-width="none" opacity="1"></path><path id="SvgjsPath40770" d="M76.8 188.7c4.8 2.3 10.4 3.9 15.7 2.9.4-.1.4-.7 0-.8-5.1-.9-10.2-1.4-15.2-3.2-.6-.2-1.1.8-.5 1.1z" fill="#000000" stroke-width="none" opacity="1"></path><path id="SvgjsPath40771" d="M108.3 191.1c2.4.3 4.9-.4 7.1-1.2 2.1-.8 4.3-1.7 5.8-3.4.5-.5-.1-1.2-.7-.9-2.1.9-3.9 2.3-6.1 3-2 .7-4.1 1-6.2 1.5-.6.1-.4.9.1 1z" fill="#000000" stroke-width="none" opacity="1"></path></g><g id="svga-group-clothes-single"><path id="SvgjsPath41127" d="M159.2 200.9c-4.8-5.4-15.5-11.4-21.3-14.4l.3-1.7 3.4 2.6-2.9-11.7 3 1.1-7.4-8 4.3-1.3-6.7-1.8 2.4-2.2-8.3-.6 4.5-2.4-13.1-.6 3.8-3.2-8.5.2 2.4 8.6-2.1 8.1 3.2-2.7s-3.5 8.6-3 8.5c.5-.2 3.2-.8 3.2-.8l-7.7 5.9 3.4.6-5.9 3 3.4.6-6.4 2.7-7.7-7.7h4.2l-12-5.4 3.7-1.3-6.7-2.6 3.7-1.3-3.2-5.3s2.1 1.1 1.9.6-1.3-8.1-1.3-8.1l-.5-4.3s-2.7-1.4-9.3-1l1.4 3-13.9 5 3.5 1.3-5.3 5.1 2.9.2-6.9 10.1 4.3-1.6-1.8 7.7 3-2.7-.2 2.9c-.6.3-4 1.8-9 4.1-5.5 2.6-9.2 3.9-11.8 7.5s-6.1 9.9-6.4 14.7.3 7.7.3 7.7H164c.4.1 1.9-11.5-4.8-19.1z" fill="#ffffff" stroke-width="none" opacity="1"></path><path id="SvgjsPath41128" d="M159.9 200.2c-3.9-4.5-11.6-9.2-17.6-12.5.1-.2.1-.4.1-.7l-2.4-9.8 1.3.5c.4.2.9 0 1.2-.4s.2-.9-.1-1.2l-6.3-6.8 2.8-.8c.4-.1.7-.5.7-1 0-.4-.3-.8-.8-.9l-5-1.3 1.1-1c.3-.3.4-.7.3-1.1s-.5-.6-.9-.7l-4.9-.4 1.5-.8c.4-.2.6-.7.5-1.1s-.5-.8-.9-.8l-10.6-.5 1.9-1.6c.3-.3.4-.7.3-1.1-.2-.4-.5-.6-1-.6l-8.5.2c-.3 0-.6.1-.8.4s-.2.6-.2.9l2.3 8.4-2 7.9c-.1.4.1.9.4 1.1.4.2.8.2 1.2-.1l.1-.1c-2 5.1-1.8 5.3-1.4 5.8l.2.2-4.5 3.5c-.3.2-.4.6-.4 1s.4.7.8.8l.5.1-3.3 1.7c-.4.2-.6.6-.5 1s.4.8.8.8h.1l-2.8 1.2-5.5-5.5h1.7c.5 0 .9-.3 1-.8.1-.5-.1-.9-.6-1.1l-9.7-4.4 1.3-.5c.4-.1.7-.5.7-.9s-.2-.8-.6-.9l-4.2-1.6 1.1-.4c.3-.1.5-.3.6-.6.1-.3.1-.6-.1-.9l-1.8-3.1c.1 0 .2-.1.3-.2.3-.3.5-.8.3-1.1-.1-.4-.7-4.4-1.2-8l-.5-4.3c0-.3-.2-.6-.5-.8-.1-.1-3.1-1.6-9.8-1.1-.3 0-.6.2-.8.5-.2.3-.2.6 0 .9l1 2-12.9 4.6c-.4.1-.7.5-.7.9s.3.8.7.9l2 .7-4.1 4c-.3.3-.4.7-.2 1.1.1.4.5.6.9.6l1.1.1-5.9 8.6c-.2.4-.2.8 0 1.2s.7.5 1.1.3l2.6-1-1.3 5.9c-.1.4 0 .7.3.9-1.5.7-3.5 1.6-5.8 2.7-.7.3-1.4.7-2.1 1-4.5 2-7.7 3.5-10.1 6.9-3 4.2-6.3 10.5-6.5 15.3-.2 4.9.3 7.8.4 7.9.1.5.5.8 1 .8h127.9c.5 0 .9-.4 1-.9.2-.4 1.7-12-5.3-19.9zm-50-10.6c.4-.2.7-.6.6-1s-.4-.8-.8-.9l-.5-.1 3-1.6c0 .1.1.1.2.1 1.9-.6 3.8-1.2 5.6-2 .2-.1.1-.4-.1-.3-1.7.4-3.4 1.1-5 1.8.2-.2.2-.5.2-.7-.1-.4-.4-.8-.8-.8l-1.2-.2 4.7-3.6.1.1c1-.1 2.3-.5 2.9-1.3.1-.2 0-.4-.2-.3-.4.2-.8.5-1.2.8l-.9.3.6-.4c.4-.3.5-.8.3-1.2-.2-.4-.7-.6-1.1-.5-.2.1-.9.2-1.6.4.6-1.6 1.6-4.3 2.6-6.7.2-.4 0-.9-.3-1.2-.4-.3-.9-.2-1.2.1l-.1.1c.3-1 .6-1.9.8-2.9 0-.1-.2-.2-.2-.1-.3 1-.6 2-.8 3 0 .1.1.1.1.2l-.6.5 1.3-5.1v-.5l-2.1-7.4 4.3-.1-1.7 1.4c-.3.3-.4.7-.3 1.1s.5.7.9.7l9.5.5-1.3.7c-.4.2-.6.6-.5 1.1s.5.8.9.8l6 .5-.7.7c-.2.2-.3.4-.3.7-.6-.2-1.1-.3-1.6-.5-.3-.1-.4.3-.1.4.6.2 1.3.5 2 .7.1.1.3.3.5.3l3.2.9-.9.3c-.3.1-.6.4-.7.7v.5c-.6-.2-1.1-.4-1.7-.6-.2-.1-.4.3-.2.4.8.4 1.7.9 2.5 1.2l4.4 4.7c-.2 0-.3.1-.4.2-.3.2-.4.6-.3 1l2.2 8.9-1.1-.8c-.3-.2-.6-.3-1-.1-.1.1-.2.1-.3.2-.5-1.6-1.2-3.3-1.8-4.9-.1-.3-.6-.2-.5.1.6 1.8 1.1 3.9 1.9 5.7l-1.4 8.7-.1-.2c.3-1.7-.2-3.6-.8-5.1-.1-.3-.6-.2-.5.1.5 1.4.6 2.7.8 4.1-.2-.1-.4-.2-.6-.2-.4 0-.7.2-.9.5l-.5.9c-.1-1.3-.2-2.6-.2-3.8 0-.3-.4-.3-.4 0 0 1.6-.1 3.3 0 4.9l-1.7 3c.1-1.9-.2-3.9-.4-5.9 0-.3-.4-.3-.4 0 .1 2.2 0 4.4.4 6.6l-.9 1.7v-.5c0-.4-.3-.8-.7-.9-.1-1.5-.5-3.1-1-4.4-.1-.2-.5-.1-.4.1.3 1.1.6 2.2.7 3.3 0 .3.1.6.1 1-.2.1-.3.2-.5.4l-3.1 4.1c.6-1.1 1.1-2.2 1.5-3.3.1-.2-.3-.4-.4-.2-.9 1.4-1.5 2.9-2.2 4.4-.1-.1-.1-.1-.1-.2-.1-.2-.5 0-.3.2l.3.6-1.1 1.5-.3-1.1c0-.1 0-.1-.1-.2.7-1.3 1.4-2.7 1.9-4 .1-.2-.2-.3-.4-.2-.7 1.2-1.4 2.5-2 3.8-.1 0-.1-.1-.2-.1-.3-.1-.7 0-.9.2l-5.8 4.8c.8-1.8 1.3-3.8 1.9-5.7.1-.3-.3-.4-.4-.1-.7 1.9-1.6 3.9-2 5.9l-1-2.7-.8-3 .8.1c.4.1.8-.1 1-.4.2-.3.2-.8 0-1.1-.2-.3-.4-.7-.8-1.2.5-1 1.1-2 1.7-3.1.1-.2-.1-.4-.3-.2-.7.8-1.3 1.7-1.8 2.7-.5-.7-1-1.6-1.5-2.3.1 0 .2 0 .3.1h.2c.4.1.8-.2 1-.6.2-.4.1-.8-.2-1.1.5-1 1.1-1.9 1.7-2.8.1-.1-.1-.3-.2-.2-.8.7-1.4 1.7-1.8 2.7l-1-.7c.3-.6.6-1.2 1-1.8.5-.7 1.1-1.2 1.7-1.8.1-.2 0-.4-.2-.3-1.3.8-2.2 2.2-2.8 3.6l-5.7-3.9 4.6-2.7zm-32.3-33.5zm-17.3 21.7 3.9-5.8 2.1-2.1c.1-.2 0-.4-.2-.3-.2.1-.3.3-.5.4.1-.2.1-.5-.1-.7-.2-.3-.5-.5-.8-.6h-.6l3.6-3.5c.2-.2.3-.6.3-.9-.1-.2-.2-.5-.4-.6 1.2-.5 2.4-.6 3.6-.8.2 0 .2-.4-.1-.4-1.4-.2-2.9.3-4.2 1l-.5-.2L73 161c.9-.1 1.7-.2 2.6-.4.2-.1.1-.3 0-.3h-.5l2.7-1c.3-.1.5-.3.6-.6.1-.3.1-.6 0-.8l-.6-1.3c1 .3 2.1.8 3.1 1 .2 0 .4-.2.2-.4-.9-.5-2.1-.7-3.1-1 3.5-.1 5.6.4 6.4.8l.4 3.8c.1.8.2 1.6.4 2.6-.7-.7-1.4-1.4-2-2.1-.2-.2-.6.1-.3.3.8.9 1.6 1.8 2.5 2.6.2 1.2.4 2.3.5 3.2-.1 0-.1-.1-.2-.1 0 0-.1 0-.1-.1-.3-.5-.6-.9-.9-1.4-.2-.3-.6 0-.4.3.2.4.4.8.7 1.1-.1.1-.2.1-.3.2-.3.3-.4.8-.1 1.2l2.6 4.2-2.5.9c-.4.1-.7.5-.7.9s.2.8.6.9l4.2 1.6-1.1.4c-.4.1-.7.5-.7.9s.2.7.5.9c.6 1.5 1.6 2.7 3 3.4.2.1.4-.2.2-.3-1-.7-1.9-1.6-2.5-2.7l7.3 3.3c-.3.1-.5.3-.6.6-.1.2-.1.5 0 .7-.6-.3-1.2-.7-1.8-1.2-.2-.2-.6.1-.4.4.7.8 1.8 1.5 2.8 1.8l7.2 7.2s.1.1.2.1l6 4.1-.2.2c-.2.3-.2.9.2 1.4.3.3 1.3 1.8 2.4 3.5h-.1c-.3-.1-.7.1-.9.3-.2.3-.3.6-.2.9l1.2 4.4-1 7.3c-.3-1.5-.9-3.1-1.3-4.6-.1-.2-.4-.1-.4.1.4 1.4.7 3 1.2 4.4-1.4-2.3-3.1-5-3.5-5.5-.3-.3-.6-.5-.9-.5-.2 0-.3 0-.5.1-.4.2-.7.4-.6 1.4l-1.4-1.8c-.3-.4-.8-.5-1.2-.3-.4.2-.6.7-.5 1.1l.2.7-2.3-2.3c-.3-.3-.8-.4-1.1-.2-.4.2-.6.6-.6 1l.2 2c-4-3.7-8.9-8.4-9.4-9-.3-.4-.9-.7-1.3-.5-.8.4-.9.4.2 3.9l-4.8-4.5c-.3-.3-.8-.4-1.2-.1s-.6.7-.5 1.1l.3 1.4-7.7-9c-.3-.3-.7-.4-1.1-.3-.4.2-.7.6-.6 1l.2 3.6-1-1.6c-.3-1.6-.7-3.2-1.2-4.7-.1-.3-.4-.1-.4.1.1 1 .4 2 .6 3l-1.7-2.9c-.3-1.3-.6-2.6-1-3.9-.1-.2-.3-.1-.3.1.1.8.3 1.6.4 2.4l-.5-.9c-.2-.3-.5-.5-.8-.5-.3 0-.7.1-.9.4l-1 1.5.4-7.6c0-.4-.2-.8-.6-1-.4-.2-.8-.1-1.1.2l-.6.5.3-1.4.1-.1c.3-1.9 1.2-3.4 2-5.1.1-.2-.2-.4-.3-.2-.5.5-.8 1.1-1.1 1.7-.1-.2-.2-.3-.3-.4-.3-.2-.7-.3-1-.2l-1.4.5zm49.8 37.1v.2c-.1-.1-.1-.2 0-.2-.1 0-.1 0 0 0zm-47.9-28.5v-1 1zm-9.7 5.6c.7-.3 1.4-.6 2.1-1 3.3-1.6 5.9-2.7 7.4-3.4l-.4 6.6c0 .4.2.9.7 1s.9 0 1.2-.4l2.1-3.2 6.2 10.8c.2.4.7.6 1.2.5.4-.1.7-.6.7-1l-.3-4.9 8.4 9.9c.3.4.8.4 1.2.2.4-.2.6-.7.5-1.1l-.5-2.2 5.3 4.9c.3.3.8.4 1.2.1.4-.2.6-.7.4-1.2-.3-.9-.6-1.8-.9-2.6 2.7 2.6 6.7 6.3 8.8 8.3.3.3.8.4 1.1.2.4-.2.6-.6.6-1l-.2-1.9 3 2.9c.3.3.8.4 1.2.1.3-.2.4-.4.5-.7l1.3 1.6c.3.4.8.5 1.2.3.3-.1.5-.4.5-.7.9 1.5 1.9 3.1 2.6 4.3.2.3.5.5.9.5h.2c.4-.1.7-.4.8-.9l.9-6.9.2.5c.1.3.4.5.7.6.3.1.7 0 .9-.2l6.1-5.1.4 1.7c.1.4.4.7.8.7.4.1.8-.1 1-.4l5-6.7.1 1.1c0 .4.4.8.8.9s.9-.1 1.1-.5l4.8-8.4.9 1.9c.2.4.6.6 1.1.5.4-.1.8-.4.8-.8l1.4-9.1c4.3 2.3 10.6 5.8 15.3 9.5-2.3 1.7-8.8 7.6-10.5 21.6H59.7c-1.4-13.7-9.4-22.3-11.9-24.7 1.4-.6 2.9-1.3 4.7-2.2zm-15.4 20.4c.2-4.4 3.3-10.2 6.2-14.2.8-1.1 1.7-2 2.8-2.8 1.7 1.6 10.2 10.1 11.6 23.6H37.3c-.2-1.1-.4-3.4-.2-6.6zm126.4 6.7h-18c.2-1.3.4-2.5.6-3.6.6 1.6 2.2 3.1 4 3.2.2 0 .3-.3.1-.4-1.6-.7-2.8-1.5-3.7-3.1-.1-.1-.2-.1-.3-.1 2.5-11.4 8.4-15.7 9.4-16.4 1.1.9 2.1 1.9 2.9 2.8 5.2 6.1 5.1 14.8 5 17.6zm-90.1-55.2c2-.9 3.9-1.9 5.8-2.9.3-.1 0-.6-.2-.4-1.9.9-3.8 1.9-5.7 3.1-.2.1 0 .3.1.2zm-6.3 8.9c-.1.1.1.3.2.2 1.5-1.8 3-3.6 4.8-5.1.2-.2-.1-.5-.3-.3-1.8 1.4-3.6 3.2-4.7 5.2zm-.6 8.8c.8-2.5 1.7-4.8 3.2-6.9.1-.2-.2-.4-.3-.2-1.5 2.1-2.7 4.4-3.1 7-.1.2.2.3.2.1zm3.3-2c-.7 2.5-1.5 5-2 7.5-.1.3.3.4.4.1.8-2.4 1.4-5 2-7.5 0-.3-.4-.4-.4-.1zm1.8 3.5c-.6 2.4-.9 4.9-.4 7.2 0 .2.4.2.4-.1-.1-2.4-.1-4.7.4-7.1.1-.1-.3-.2-.4 0zm3 3c.1-.3-.4-.4-.5-.1-.4 2.4-.4 5 .5 7.2.1.2.5.2.4-.1-.4-2.4-.7-4.6-.4-7zm3.9 9.3c-.7-2.1-1.4-4-1.7-6.2-.1-.4-.6-.2-.5.1.3 2.1.8 4.3 1.9 6.2 0 .3.4.2.3-.1zm6.2 3.6c.2.1.4-.1.2-.2-1.6-1.8-2.8-3.7-3.3-6.1-.1-.3-.5-.2-.4.1.5 2.3 1.6 4.7 3.5 6.2zm1.9-2.8c-.1-.2-.5-.1-.4.1.7 1.8 1.6 3.7 3.1 5 .1.1.4 0 .3-.2-1.2-1.6-2.2-3-3-4.9zm5.8 4.6c-.7-.7-1.4-1.6-1.9-2.4-.2-.2-.5 0-.4.2 1 1.6 2.5 3.5 4.2 4.5.2.1.4-.2.3-.3-.8-.8-1.6-1.4-2.2-2zm4.8 1.7c-.6-.7-1.3-1.3-1.9-2-.2-.2-.6.1-.4.4.6.7 1.2 1.3 1.9 2 .6.6 1.1 1.2 1.8 1.7.1.1.3-.1.2-.2-.4-.8-1-1.3-1.6-1.9zm3.7.5c-.2-.3-.6.1-.4.4 1.3 1.6 2.5 3.5 4 4.9.2.2.5-.1.3-.3-1-1.8-2.6-3.4-3.9-5zm-25.3-32c-.1.2.1.3.3.1 1.3-1.6 2.4-3.3 4-4.7.2-.2-.1-.5-.3-.3-1.6 1.5-3.1 3.1-4 4.9zm.7 2.2c.2-.3-.2-.5-.4-.2-1.1 1.6-2 3.5-2.3 5.4 0 .2.3.3.4.1.6-1.8 1.3-3.6 2.3-5.3zm.3 9.4c0-1.6 0-3 .6-4.5.1-.3-.3-.4-.4-.1-.6 1.4-1 3.2-.5 4.7-.1.2.3.2.3-.1zm2.4-.8c0-.2-.4-.3-.4-.1-.4 2.8.2 5.8 2.1 8 .1.1.4 0 .3-.2-1.5-2.4-2.3-4.8-2-7.7zm6.7 11.5c.2.1.4-.1.2-.3-1.8-1.9-3.2-3.9-3.4-6.6 0-.3-.5-.3-.5 0 .2 2.7 1.3 5.5 3.7 6.9zm1.1-4.4c-.1-.3-.6-.2-.6.1.3 2.4 1.3 5 3.2 6.5.2.2.6-.1.4-.3-1.4-2-2.6-3.8-3-6.3zm8.6 9.2c.2.1.4-.2.3-.3-1.5-1.7-2.9-3.1-3.8-5.3-.2-.4-.8-.2-.6.2.8 2 2.1 4.2 4.1 5.4zm1.3-2.3c-.2-.3-.7 0-.5.3 1 1.3 1.9 2.8 3.1 3.9.2.1.4 0 .3-.2-.8-1.4-1.9-2.7-2.9-4zm6.5 6.4c-.5-1.3-1.4-2.5-2.1-3.7-.2-.3-.6 0-.4.3.7 1.2 1.3 2.6 2.2 3.6.2.1.4 0 .3-.2zm2.6.9c.6 1.4 1.1 3 1.9 4.4.1.2.4.1.4-.2-.4-1.5-1.2-3-1.8-4.4-.1-.3-.6-.1-.5.2zm-4.6-10.8c.2.1.4-.2.2-.4-2.1-1.5-4.4-2.6-6.7-3.8-.3-.2-.6.3-.3.4 2.2 1.4 4.4 2.8 6.8 3.8zm-2 .9c1.7 1.2 3.4 2.7 5.2 3.7.2.1.5-.2.3-.4-1.6-1.4-3.4-2.6-5.2-3.9-.3-.2-.7.3-.3.6zm5 4.3c1.3 1.4 2.1 3.1 3.2 4.6.2.2.5.1.4-.2-.6-1.8-2-3.5-3.2-4.9-.2-.2-.7.2-.4.5zm2.8 5.5c.8 1.6 1.2 3.3 1.8 5.1.1.2.4.2.4-.1-.2-1.9-.9-3.7-1.8-5.3-.1-.3-.6-.1-.4.3zm-23.6-18.9c-.5-1.9-.7-3.7-.3-5.6.1-.4-.5-.5-.5-.1-.4 2-.4 4 .5 5.9.1.1.3 0 .3-.2zm5.8 3.7c-1.1-1.7-2.1-3.1-2.8-5.1-.1-.3-.6-.2-.5.1.5 1.9 1.4 3.9 2.9 5.2.3.3.6.1.4-.2zm3.6 1.9c.2.2.6-.1.4-.3-.6-.8-1.3-1.5-1.8-2.4-.6-.9-1.1-1.9-1.5-2.9-.1-.4-.7-.2-.6.2.7 1.9 1.8 4.1 3.5 5.4zm-15.5 7.2c.4.9.8 1.9 1.3 2.8.1.2.4.1.4-.1-.3-1-.8-1.9-1.2-2.9-.2-.2-.6 0-.5.2zM65 188.2c.1-1.7.2-3.4.2-5.1 0-.2-.3-.2-.4 0-.2 1.7-.2 3.4-.2 5.1 0 .2.4.2.4 0zm4.7-22.8c-1.5.5-2.9 1.5-4.1 2.6-.2.2.1.6.3.3 1.2-1 2.5-1.8 3.9-2.6.2-.1.1-.4-.1-.3zm15.4 7.5c.1.2.3.1.3-.1.2-1.4-.6-2.9-1.3-4.1-.2-.3-.7 0-.5.3.8 1.3 1.1 2.6 1.5 3.9zm-2.1 1.6c.2-1.2.1-2.4.1-3.6 0-.3-.5-.3-.5 0 0 1.2-.1 2.4.1 3.6 0 .2.3.2.3 0zm37.8 26.7c-.9 1.4-1.5 2.9-2.2 4.3-.1.2.2.5.4.2.8-1.4 1.6-2.9 2.1-4.4 0-.2-.2-.3-.3-.1zm17.6-18.9c.1.2.4.1.3-.1-.5-2.2-1.7-4.2-3-6-.1-.2-.4 0-.3.2 1.3 1.8 2.1 3.8 3 5.9zm-31.3 10.5c2.2-1.5 4.5-2.9 6.5-4.6.1-.1 0-.3-.2-.2-2.3 1.4-4.4 3-6.5 4.6-.1.1 0 .3.2.2zm11.7-12.1c-1.6.8-3.2 1.6-4.9 2.1-.2.1-.1.4.1.3 1.8-.4 3.6-1.1 5-2.2.2-.1 0-.3-.2-.2zm.5-7.3c-1.1 1.1-2 2.5-3 3.7-.1.2.1.4.2.2 1-1.2 2.1-2.4 3-3.8.1 0-.1-.2-.2-.1zm-2.7.8c.6-1.4 1.3-2.8 1.8-4.2.1-.2-.2-.3-.3-.1-.7 1.3-1.2 2.8-1.8 4.1-.2.2.1.5.3.2zm1.6-11.8c1.5-.5 2.8-.2 4.2.4.2.1.4-.2.2-.4-1.3-1-3.1-1.1-4.6-.5-.2.2-.1.6.2.5zm3.5 2.5c1.4.4 2.9.9 4.4 1 .3 0 .3-.4.1-.4-1.4-.5-2.9-.8-4.3-1.1-.4 0-.5.4-.2.5zm3.3 2.2c1.9.9 3.3 2.2 4.9 3.5.1.1.4 0 .3-.2-1.2-1.7-3.2-2.9-5-3.7-.3-.1-.5.3-.2.4zm3.4 3.1c-.2-.2-.5.1-.3.3 1.8 1.8 3.2 3.9 4.8 5.9.1.2.4-.1.3-.2-1.1-2.3-3-4.3-4.8-6zm1.7 4.8c-.2-.3-.6 0-.4.2 1.1 1.9 2.1 3.9 3.5 5.5.1.2.4-.1.3-.2-.9-1.9-2.2-3.7-3.4-5.5zm1.5 5.3c.2 1.8.4 3.6.8 5.3.1.2.4.2.4-.1-.1-1.8-.5-3.6-.8-5.4 0-.2-.4-.1-.4.2zm-.8 4.1c-.1 1.4-.2 2.8-.1 4.2 0 .2.3.2.3 0 .2-1.4.2-2.8.3-4.2 0-.3-.5-.3-.5 0zm-1.4.8c.2 1.9-.2 3.6-.5 5.5 0 .1.2.2.2.1.8-1.7.9-3.8.7-5.6 0-.3-.4-.3-.4 0zm-1.7 2.7c-.4 2-.9 4-1.2 6 0 .2.3.2.3 0 .6-1.9.8-4 1.2-5.9.1-.2-.2-.3-.3-.1zm-2.7 3.4c-.4 1.9-1.1 4-1.1 6 0 .2.2.2.3 0 .7-1.9.9-4 1.2-5.9.1-.3-.3-.4-.4-.1zm-2.1 2.5c-.9 1.5-2 3-2.7 4.6-.1.2.2.4.3.2 1.1-1.4 1.9-3.1 2.8-4.6.1-.2-.2-.5-.4-.2zm-3.8 3.8c-.4.8-.9 1.4-1.4 2.1-.5.6-1.1 1.1-1.6 1.7-.1.1 0 .3.2.2 1.4-.8 2.5-2.4 3.3-3.8 0-.3-.3-.5-.5-.2zm12.9-26.1c1 .4 2 .9 3 1.1.2 0 .3-.2.1-.3-.9-.5-2-.9-3-1.2-.3-.2-.4.3-.1.4zm-16.4-13.1c-.1 1.3-.1 2.6.1 4 0 .2.2.2.3 0 .2-1.3.1-2.6.1-4-.1-.2-.5-.2-.5 0zm3.2 7.6c-.2 1.4-.3 2.9-.2 4.4 0 .2.4.3.4.1.2-1.4.2-3 .2-4.4-.1-.4-.4-.4-.4-.1zm1.8 1.9c-.1 1.7-.3 3.4-.2 5.1 0 .2.3.2.3 0 .3-1.7.2-3.5.2-5.2 0 0-.3 0-.3.1zm2.7 7.4c-.4-2.1-.8-4.2-.8-6.3 0-.3-.4-.3-.4 0-.2 2.2 0 4.4.9 6.4.1.1.3 0 .3-.1zm1-4.1c.3 1.7.5 3.5 1 5.1.1.2.4.2.4-.1-.1-1.7-.6-3.5-1-5.2-.1-.2-.5-.1-.4.2zm3.1 5.7c-.1-1.3-.4-2.6-.6-3.8 0-.3-.5-.2-.4.1.2 1.2.3 2.6.6 3.8.1.1.4.1.4-.1zm-.9 2.5c0-.3-.4-.3-.4 0 .2 2.1 0 4.1-.3 6.1 0 .2.2.2.3.1.5-2 .6-4.1.4-6.2zm-2 2.6c-.1 2.4-.7 4.6-1.2 6.9-.1.2.3.4.4.1.9-2.2 1.2-4.7 1.2-7 0-.2-.4-.2-.4 0zm-3.6 8.8c1.2-1.8 1.9-4 2.2-6.2 0-.2-.3-.3-.4-.1-.4 2.2-1.2 4.1-2.1 6.1-.1.2.1.4.3.2zm-4.2 2.2c1.4-1.2 2.4-3.1 3.1-4.8.1-.2-.3-.3-.4-.1-.7 1.8-1.8 3.2-2.9 4.7-.2.2 0 .3.2.2zm-1.8-.6c.5-.7.8-1.6 1.2-2.4.1-.3-.2-.5-.4-.2-.4.8-.9 1.6-1.2 2.4 0 .3.3.4.4.2zm5.2-7.7c.7-1.2 1.3-2.6 1.8-3.9.1-.2-.3-.5-.4-.2-.6 1.3-1.3 2.6-1.7 4-.1.1.2.2.3.1zm.8-6.4c.3-.8.3-1.7.4-2.6.1-.3-.4-.4-.5-.1-.1.9-.4 1.8-.4 2.6.1.3.4.3.5.1zm-75.8 39c-2.6-.6-4.5-1.7-6.5-3.5-.2-.2-.4.1-.2.2 1.6 2 4.2 3.4 6.7 3.6.1 0 .1-.2 0-.3zm5.5.2c-4.1-1.4-7.7-3.3-10.7-6.5-.2-.2-.5.1-.3.3 2.9 3.1 6.7 5.6 10.9 6.5.3.1.3-.2.1-.3zm4.4-1.3c-5.3-1.8-9.9-4.4-13.9-8.5-.2-.1-.4.1-.2.2 3.7 4.1 8.5 7.4 14 8.6.2.1.3-.2.1-.3zm-3.7-4.5c.2 0 .3-.2.1-.3-3.6-1.6-6.7-3.2-9.4-6.2-.2-.2-.5.1-.3.3 2.5 2.9 5.9 5.5 9.6 6.2zm-1.8-5.5c.2.1.3-.2.1-.3-2.3-1.2-4.4-2.4-6.3-4.2-.2-.2-.5.1-.3.3 1.9 1.8 4.1 3.4 6.5 4.2zm98.1 5.4c-.1-.2-.5 0-.4.2 1.4 2.9 4.1 5.5 7.3 6.4.2.1.3-.2.1-.3-2.9-1.5-5.3-3.3-7-6.3zm2.6-2.5c-.2-.2-.6 0-.4.2 2.3 3.4 5.4 6.6 9.3 8.2.2.1.3-.2.1-.3-3.5-2.3-6.6-4.6-9-8.1zm1.4-3.6c-.1-.2-.5 0-.4.2 2.3 4 5.8 8.3 10 10.4.2.1.4-.1.2-.3-3.7-3.2-7.1-6-9.8-10.3zm2.4-2c-.2-.2-.6 0-.4.2 1.8 2.4 4 5 6.6 6.4.2.1.5-.2.3-.4-1.1-1-2.3-1.8-3.4-2.8-1.1-1-2.1-2.1-3.1-3.4z" fill="#000000" stroke-width="none" opacity="1"></path></g><g id="svga-group-head" transform="matrix(1,0,0,1,0,0)"><g id="svga-group-ears-left-move" transform="matrix(1,0,0,1,0,0)"><g id="svga-group-ears-left" transform="matrix(1,0,0,1,0,0)"><path id="SvgjsPath41004" d="M64.7 84.7s-1.8-5-3.3-7.9-3.6-6.3-6.6-7.2-4 3.9-2.9 8.3 4.2 13.9 5 17.6 1.8 8.1 3.6 7.5 7.1-7.7 4.2-18.3z" fill="#ffffff" stroke-width="none" opacity="1"></path><path id="SvgjsPath41005" d="M59.1 103.6c-1.5-.8-2.3-3.8-3.2-8-.4-2.2-1.7-6.4-2.9-10.5-.8-2.7-1.6-5.3-2.1-7.1-.9-3.5-.5-7.1 1-8.6.8-.8 1.8-1 2.9-.7 3.3.9 5.5 4.4 7.2 7.6 1.6 2.9 3.3 7.8 3.4 8v.1c3.1 11.1-2.6 18.5-4.8 19.3-.2.1-.4.1-.6.1-.3.1-.6 0-.9-.2zm1.5-26.4c-1.6-2.9-3.4-6-6.1-6.7-.5-.1-.9 0-1.3.3-1.1 1.1-1.3 4-.6 6.9.5 1.8 1.2 4.3 2 7 1.2 4.1 2.5 8.4 3 10.6.8 4.1 1.6 6.4 2.3 6.8h.1c1.1-.4 6.6-6.8 3.8-17.2-.1-.4-1.8-5.1-3.2-7.7z" fill="#000000" stroke-width="none" opacity="1"></path><path id="SvgjsPath41006" d="M52.8 72.7c1.9-.8 3.6 1.4 4.8 3.3 1.6 2.5 2.6 5.5 2.9 8.6v.2c0 .2 0 .5.1.7 0 .2-.2.2-.2 0-.1-.4-.2-.9-.3-1.4 0 0-.1-.1-.1-.2-1.2-.6-1.8-.3-1.8.8 0 .7.2 1.5.3 2.2.3 1.2.9 2.3 1.3 3.5.1.2-.2.4-.3.2-.9-1.6-2.6-5.3-1.5-7.2.5-.9 1.3-.8 1.9-.2-.5-2-1.2-4.3-2.2-6.2-2.1 4.5-1 9.2.1 14.2 0 .2-.2.3-.3.1-1.4-4.6-2.7-10.7 0-14.5-1.2-2.2-2.8-3.9-4.7-3.8-.1.1-.2-.3 0-.3z" fill="#000000" stroke-width="none" opacity="1"></path></g></g><g id="svga-group-ears-right-move" transform="matrix(1,0,0,1,0,0)"><g id="svga-group-ears-right" transform="matrix(1,0,0,1,0,0)"><path id="SvgjsPath41007" d="M135.3 84.7s1.8-5 3.3-7.9 3.6-6.3 6.6-7.2 4 3.9 2.9 8.3-4.2 13.9-5 17.6c-.7 3.7-1.8 8.1-3.6 7.5s-7.1-7.7-4.2-18.3z" fill="#ffffff" stroke-width="none" opacity="1"></path><path id="SvgjsPath41008" d="M140 103.9c-.2 0-.4 0-.6-.1-2.2-.8-7.9-8.2-4.8-19.3v-.1c.1-.2 1.8-5.1 3.4-8 1.7-3.2 3.9-6.7 7.2-7.6 1.1-.3 2.2 0 2.9.7 1.5 1.5 1.9 5 1 8.6-.5 1.8-1.2 4.4-2.1 7.1-1.2 4.1-2.5 8.3-2.9 10.5-.8 4.2-1.7 7.2-3.2 8-.3.1-.6.2-.9.2zm-3.9-19c-2.9 10.4 2.6 16.8 3.8 17.2h.1c.7-.4 1.5-2.7 2.3-6.8.5-2.3 1.7-6.5 3-10.6.8-2.7 1.6-5.3 2-7 .8-2.9.5-5.9-.6-6.9-.3-.3-.8-.4-1.3-.3-2.7.7-4.6 3.9-6.1 6.7-1.3 2.6-3 7.3-3.2 7.7z" fill="#000000" stroke-width="none" opacity="1"></path><path id="SvgjsPath41009" d="M147.2 72.7c-1.9-.8-3.6 1.4-4.8 3.3-1.6 2.5-2.6 5.5-2.9 8.6v.2c0 .2 0 .5-.1.7 0 .2.2.2.2 0 .1-.4.2-.9.3-1.4.1-.1.1-.2.2-.3 1.2-.6 1.8-.3 1.8.8 0 .7-.2 1.5-.3 2.2-.3 1.2-.9 2.3-1.3 3.5-.1.2.2.4.3.2.9-1.6 2.6-5.3 1.5-7.2-.5-.9-1.3-.8-1.9-.2.5-2 1.2-4.3 2.2-6.2 2.1 4.5 1 9.2-.1 14.2 0 .2.2.3.3.1 1.4-4.6 2.7-10.7 0-14.5 1.2-2.2 2.8-3.9 4.7-3.8 0 .2.1-.2-.1-.2z" fill="#000000" stroke-width="none" opacity="1"></path></g></g><g id="svga-group-faceshape-wrap" transform="matrix(1,0,0,1,0,0)"><g id="svga-group-faceshape-single"><path id="SvgjsPath40990" d="M139.4 74.3s.2-8.5-1.2-16.1c-2-10.8-13.3-27.4-37.2-27.4S69.1 43.5 65.5 53c-3 8.1-3 21.3-3 21.3s-2 32.3-1 39.3c1 6.9 10.4 18.6 14.2 21 5.1 3.3 29.8 5.4 40.4 3.1s20.4-16.5 22.7-23.1c2.4-6.6.6-40.3.6-40.3z" fill="#ffffff" stroke-width="none" opacity="1"></path><path id="SvgjsPath40991" d="M104 140c-11.4 0-25-1.7-29-4.3-4.2-2.7-13.8-14.6-14.8-21.9-1-6.9.9-37.7 1-39.5 0-1 .1-13.7 3.1-21.8 5.8-15.5 17.8-23 36.7-23 10.9 0 20.5 3.4 27.7 10 5.5 5 9.6 11.9 10.8 18.5 1.4 7.5 1.2 15.6 1.2 16.3.1 2 1.7 34-.6 40.7-2.6 7.3-12.7 21.6-23.7 24-3.1.7-7.6 1-12.4 1zm-3-107.9c-17.7 0-28.9 7-34.3 21.3-2.9 7.8-2.9 20.8-2.9 20.9 0 .3-2 32.3-1 39 .9 6.5 10 17.8 13.7 20.1 4.6 3 29 5.2 39.4 2.9 9.9-2.2 19.5-15.7 21.8-22.3 1.8-5.2 1-30.5.5-39.8 0-.1.2-8.4-1.2-15.9-1.1-6-4.8-12.4-10-17-6.7-6-15.7-9.2-26-9.2z" fill="#000000" stroke-width="none" opacity="1"></path></g></g><g id="svga-group-mouth-single-move" transform="matrix(1,0,0,1,0,0)"><g id="svga-group-mouth-single" transform="matrix(1,0,0,1,0,0)"><path id="SvgjsPath41078" d="M114.35 121.31c-.22.11-.44.19-.66.28-3.57-1.77-7.08-3.68-10.51-5.71-.04-.14-.18-.26-.34-.17-1.1.6-2.21 1.19-3.31 1.79-.02-.01-.02-.03-.04-.04l-2.43-.99c.06-.18-.13-.41-.35-.29a43.686 43.686 0 0 0-7.65 5.34c-.83-.16-1.65-.38-2.46-.67-.59-.21-.85.73-.26.94 1.15.41 2.32.7 3.5.86 2.82 2.94 6.19 6.18 10.56 6.03 4.15-.15 7.24-3.51 10.51-5.65 1.31 0 2.62-.23 3.94-.88.56-.27.06-1.12-.5-.84zM96.6 116.8c.92.38 1.84.75 2.76 1.13.06.03.11.01.16-.01.07.04.14.06.23.01 1.04-.56 2.07-1.12 3.11-1.68 3.32 1.97 6.72 3.82 10.18 5.54-4.09 1.13-8.32-1.32-12.49-1.26-1.98.03-3.86.66-5.79 1.02-1.71.32-3.4.33-5.07.07 2.13-1.83 4.44-3.44 6.91-4.82zm-6 5.94c.96.09 1.93.09 2.9-.01 2.62-.27 5.1-1.32 7.77-1.19 3 .14 5.9 1.28 8.8 1.47-2.76 1.93-5.4 4.57-8.82 5.09-4.36.66-7.81-2.44-10.65-5.36z" fill="#000000" stroke-width="none" opacity="1"></path></g></g><g id="svga-group-eyes-left-move" transform="matrix(1,0,0,1,0,0)"><g id="svga-group-eyes-left" transform="matrix(1,0,0,1,0,0)"><g id="svga-group-eyesback-left"></g><g id="svga-group-eyesiriswrapper-left"><g id="svga-group-eyesiriscontrol-left" transform="matrix(1,0,0,1,0,0)"><g id="svga-group-eyesiris-left" transform="matrix(1,0,0,1,0,0)"><path id="SvgjsPath41038" d="M85.2 89c1-1.8.1-4.4-1.6-5.6-1.8-1.2-4.3-.8-5.8 1.2-.8 1.1-1.1 2.5-.6 3.7.2.4.7 1.7 1.8 2.3 2.3 1.2 5 .6 6.2-1.6z" fill="#ffffff" stroke-width="none" opacity="1"></path><path id="SvgjsPath41039" d="M82.5 88.2c.2 0 .4.1.5.3.2-.3.4-.7.4-1.1 0-.4-.2-.8-.4-1.1-.2-.6-.6-1-1.2-1.2-.3-.1-.7-.1-1.1 0 .2.6-.1 1.4-.7 1.8-.3.2-.7.3-1 .2-.1.7.2 1.3.7 1.8.6.6 1.5.6 2.2.3-.2-.5 0-1 .6-1zm2.9-2.5c-.2-.6-.4-1.1-.7-1.6-.2-.2-.3-.5-.6-.7s-.4-.4-.7-.6c-.5-.3-1.1-.6-1.7-.6s-1.3-.1-1.9.1c-.6.2-1.2.5-1.7.9s-.9.9-1.2 1.5-.5 1.2-.6 1.8 0 1.3.3 1.9c.2.5.6 1.1 1 1.5.2.2.4.4.7.6.1.1.3.2.4.2.2.3.3.3.3.3.1 0 .1.1.2.1 1.1.4 2.4.4 3.4 0 .5-.2 1-.5 1.5-.8.4-.4.8-.8 1-1.3-.1.2-.3.5-.5.7l-.6.6c-.4.3-.9.6-1.5.7-.5.1-1.1.1-1.6 0s-1-.3-1.5-.5c-.1 0-.1-.1-.2-.1s-.1-.1-.2-.1c-.1-.1-.2-.1-.3-.2-.2-.2-.3-.4-.5-.6-.1-.2-.2-.4-.4-.7s-.2-.5-.3-.7c-.2-.6-.2-1.2 0-1.8-.2-.2-.2-.5-.2-.8 0-1 1-1.8 2-1.6.2-.1.4-.2.7-.3.9-.4 1.9-.4 2.9 0 .9.4 1.7 1.2 2.1 2.2.2.5.3 1.1.3 1.6s-.1 1.1-.4 1.6c.3-.5.4-1.1.4-1.6.3-.6.3-1.2.1-1.7z" fill="#000000" stroke-width="none" opacity="1"></path></g></g></g><g id="svga-group-eyesfront-left"><path id="SvgjsPath41152" d="M81.02 74.43c-6.9 0-12.5 5.6-12.5 12.5s5.6 12.5 12.5 12.5 12.5-5.6 12.5-12.5-5.6-12.5-12.5-12.5zm4.54 16.93c-3.76 1.16-8.34-.16-10.67-1.75s-3.88-4.07-3.88-4.07c7.61-1.82 11.41-.23 14.24.93 2.83 1.16 4.19 3.45 4.19 3.45s-.12.28-3.88 1.44z" fill="#ffffff" stroke-width="none" opacity="1"></path><path id="SvgjsPath41153" d="M89.88 84.61c-.14-.24-.5-.08-.44.18.26 1.17.6 2.33.69 3.53.01.12 0 .23.01.34-1.72-4.58-4.19-7.31-7.36-8.12-5.72-1.48-11.67 3.75-12.75 4.76-2.31.78-4.43.91-5.94.34a.47.47 0 0 0-.61.28c-.09.24.03.52.28.61.79.3 1.64.42 2.49.42 1.39 0 2.77-.32 3.89-.68.06.01.13.01.2-.01 1.1-.32 2.14-.56 3.14-.74-.34.21-.74.42-1.2.63a.47.47 0 0 0-.6-.06c-.13.09-.2.24-.2.39-1.01.37-2.23.64-3.63.64a.47.47 0 1 0 0 .94c1.61 0 2.99-.33 4.12-.75 2.94 3.9 6.63 5.02 9.89 5.02 3.82 0 7.03-1.52 7.72-1.88.22.29.35.49.38.53.03.05.07.08.11.11 0 .15-.01.3-.01.45.01.25.4.41.52.14.9-2.08.47-5.16-.7-7.07zm-17.02 2.32c1.58-.75 2.49-1.62 2.55-1.68 0 0 0-.01.01-.01 7.54-.73 11.74 2.56 13.51 4.47-1.75.88-10.32 4.62-16.07-2.78zm-.78-2.1c1.89-1.45 5.24-3.59 8.63-3.59.61 0 1.23.07 1.84.23 2.76.71 4.96 3.11 6.55 7.13-2.48-2.36-7.87-5.8-17.02-3.77z" fill="#000000" stroke-width="none" opacity="1"></path></g></g></g><g id="svga-group-eyes-right-move" transform="matrix(1,0,0,1,0,0)"><g id="svga-group-eyes-right" transform="matrix(1,0,0,1,0,0)"><g id="svga-group-eyesback-right"></g><g id="svga-group-eyesiriswrapper-right"><g id="svga-group-eyesiriscontrol-right" transform="matrix(1,0,0,1,0,0)"><g id="svga-group-eyesiris-right" transform="matrix(1,0,0,1,0,0)"><path id="SvgjsPath41040" d="M123.6 89c1-1.8.1-4.4-1.6-5.6-1.8-1.2-4.3-.8-5.8 1.2-.8 1.1-1.1 2.5-.6 3.7.2.4.7 1.7 1.8 2.3 2.3 1.2 5 .6 6.2-1.6z" fill="#ffffff" stroke-width="none" opacity="1"></path><path id="SvgjsPath41041" d="M121 88.2c.2 0 .4.1.5.3.2-.3.4-.7.4-1.1 0-.4-.2-.8-.4-1.1-.2-.6-.6-1-1.2-1.2-.3-.1-.7-.1-1.1 0 .2.6-.1 1.4-.7 1.8-.3.2-.7.3-1 .2-.1.7.2 1.3.7 1.8.6.6 1.5.6 2.2.3-.2-.5 0-1 .6-1zm2.9-2.5c-.2-.6-.4-1.1-.7-1.6-.2-.2-.3-.5-.6-.7s-.4-.4-.7-.6c-.5-.3-1.1-.6-1.7-.6s-1.3-.1-1.9.1c-.6.2-1.2.5-1.7.9s-.9.9-1.2 1.5-.5 1.2-.6 1.8 0 1.3.3 1.9c.2.5.6 1.1 1 1.5.2.2.4.4.7.6.1.1.3.2.4.2.1 0 .2.1.2.1.1 0 .1.1.2.1 1.1.4 2.4.4 3.4 0 .5-.2 1-.5 1.5-.8.4-.4.8-.8 1-1.3-.1.2-.3.5-.5.7l-.6.6c-.4.3-.9.6-1.5.7-.5.1-1.1.1-1.6 0s-1-.3-1.5-.5c-.1 0-.1-.1-.2-.1s-.1-.1-.2-.1c-.1-.1-.2-.1-.3-.2-.2-.2-.3-.4-.5-.6-.1-.2-.2-.4-.4-.7s-.2-.5-.3-.7c-.2-.6-.2-1.2 0-1.8-.2-.2-.2-.5-.2-.8 0-1 1-1.8 2-1.6.2-.1.4-.2.7-.3.9-.4 1.9-.4 2.9 0 .9.4 1.7 1.2 2.1 2.2.2.5.3 1.1.3 1.6s-.1 1.1-.4 1.6c.3-.5.4-1.1.4-1.6.4-.4.3-1 .2-1.5z" fill="#000000" stroke-width="none" opacity="1"></path></g></g></g><g id="svga-group-eyesfront-right"><path id="SvgjsPath41154" d="M118.98 74.43c-6.9 0-12.5 5.6-12.5 12.5s5.6 12.5 12.5 12.5 12.5-5.6 12.5-12.5-5.59-12.5-12.5-12.5zm6.4 15.19c-2.33 1.59-6.91 2.91-10.67 1.75-3.76-1.16-3.88-1.44-3.88-1.44s1.36-2.29 4.19-3.45c2.83-1.16 6.64-2.75 14.24-.93 0-.01-1.55 2.48-3.88 4.07z" fill="#ffffff" stroke-width="none" opacity="1"></path><path id="SvgjsPath41157" d="M136.79 85.93a.474.474 0 0 0-.61-.28c-1.51.57-3.63.43-5.94-.34-1.08-1.01-7.03-6.24-12.75-4.76-3.6.93-6.29 4.31-8.02 10.06a.471.471 0 0 0 .45.61c.16 0 .32-.08.4-.23.03-.05.16-.25.38-.53.69.35 3.9 1.88 7.72 1.88 3.26 0 6.95-1.12 9.89-5.02 1.13.43 2.51.75 4.12.75a.47.47 0 1 0 0-.94c-1.4 0-2.62-.28-3.63-.64 0-.15-.06-.3-.2-.39a.47.47 0 0 0-.6.06c-.46-.21-.86-.43-1.2-.63 1 .18 2.04.41 3.14.74.07.02.13.02.2.01 1.12.36 2.5.68 3.89.68.84 0 1.69-.12 2.49-.42.24-.1.36-.37.27-.61zm-11.93-.67c.07.06.97.93 2.55 1.68-5.75 7.39-14.32 3.66-16.07 2.78 1.77-1.92 5.97-5.21 13.52-4.46-.01-.01-.01-.01 0 0zm-13.69 3.33c1.59-4.02 3.79-6.42 6.55-7.13.61-.16 1.22-.23 1.84-.23 3.39 0 6.75 2.14 8.63 3.59-9.15-2.02-14.55 1.42-17.02 3.77z" fill="#000000" stroke-width="none" opacity="1"></path></g></g></g><g id="svga-group-facehighlight-single"></g><g id="svga-group-eyebrows-left-move" transform="matrix(1,0,0,1,0,0)"><g id="svga-group-eyebrows-left-rotate" transform="matrix(1,0,0,1,0,0)"><g id="svga-group-eyebrows-left" transform="matrix(1,0,0,1,0,0)"><path id="SvgjsPath41117" d="M90.6 76.2c.1 0 .2 0 .2.1l1.9 4.8c0 .1 0 .2-.1.2h-.1c-.1 0-.2-.1-.2-.1l-1.9-4.8c0-.1.1-.2.2-.2zM87 73.9c.1-.1.2-.1.3 0 1.5 1.6 2.8 3.3 3.8 5.2.1.1 0 .2-.1.2h-.1c-.1 0-.1 0-.2-.1-1.1-1.8-2.3-3.6-3.8-5.1 0 0 0-.1.1-.2zm-4.4-.9c.1-.1.2-.1.3 0 2 1.3 4 2.8 5.8 4.4.1.1.1.2 0 .3l-.1.1s-.1 0-.1-.1c-1.8-1.6-3.7-3.1-5.7-4.4-.2-.1-.3-.2-.2-.3zm-5.1-.4c0-.1.1-.2.2-.1 2.4.8 4.7 1.8 6.8 3.2.1.1.1.2.1.2 0 .1-.1.1-.2.1h-.1c-2.1-1.3-4.3-2.4-6.7-3.1 0-.1-.1-.2-.1-.3zm-3.8 1.2c0-.1.1-.2.2-.2 2.4 0 4.8.4 6.9 1.3.1 0 .1.2.1.2 0 .1-.1.1-.2.1h-.1c-2.1-.9-4.5-1.3-6.8-1.3 0 0-.1 0-.1-.1zm-4.4 1.9c-.1 0-.2-.1-.2-.1 0-.1 0-.2.2-.2 2.4-.5 4.8-.6 7.2-.5.1 0 .2.1.2.2s-.1.2-.2.2c-2.5-.2-4.9-.1-7.2.4zm-1 1.9c-.1 0-.2-.1-.2-.1 0-.1 0-.2.1-.2l4.6-1.6c.1 0 .2 0 .2.1s0 .2-.1.2l-4.6 1.6c.1 0 .1 0 0 0zm-.5 1.4c.9-.7 1.9-1.2 2.9-1.7.1 0 .2 0 .3.1 0 .1 0 .2-.1.2-1 .4-2 1-2.8 1.6H68c-.1 0-.1 0-.2-.1-.1.1-.1 0 0-.1z" fill="#000000" stroke-width="none" opacity="1"></path></g></g></g><g id="svga-group-eyebrows-right-move" transform="matrix(1,0,0,1,0,0)"><g id="svga-group-eyebrows-right-rotate" transform="matrix(1,0,0,1,0,0)"><g id="svga-group-eyebrows-right" transform="matrix(1,0,0,1,0,0)"><path id="SvgjsPath41118" d="M109.4 76.2c-.1 0-.2 0-.2.1l-1.9 4.8c0 .1 0 .2.1.2h.1c.1 0 .2-.1.2-.1l1.9-4.8c0-.1-.1-.2-.2-.2zm3.6-2.3c-.1-.1-.2-.1-.3 0-1.5 1.6-2.8 3.3-3.8 5.2-.1.1 0 .2.1.2h.1c.1 0 .1 0 .2-.1 1.1-1.8 2.3-3.6 3.8-5.1 0 0 0-.1-.1-.2zm4.4-.9c-.1-.1-.2-.1-.3 0-2 1.3-4 2.8-5.8 4.4-.1.1-.1.2 0 .3l.1.1s.1 0 .1-.1c1.8-1.6 3.7-3.1 5.7-4.4.2-.1.3-.2.2-.3zm5.1-.4c0-.1-.1-.2-.2-.1-2.4.8-4.7 1.8-6.8 3.2-.1.1-.1.2-.1.2 0 .1.1.1.2.1h.1c2.1-1.3 4.3-2.4 6.7-3.1 0-.1.1-.2.1-.3zm3.8 1.2c0-.1-.1-.2-.2-.2-2.4 0-4.8.4-6.9 1.3-.1 0-.1.2-.1.2 0 .1.1.1.2.1h.1c2.1-.9 4.5-1.3 6.8-1.3 0 0 .1 0 .1-.1zm4.4 1.9c.1 0 .2-.1.2-.1 0-.1 0-.2-.1-.2-2.4-.5-4.8-.6-7.2-.5-.1 0-.2.1-.2.2s.1.2.2.2c2.4-.2 4.8-.1 7.1.4zm.9 1.9c.1 0 .1-.1.2-.1 0-.1 0-.2-.1-.2l-4.6-1.6c-.1 0-.2 0-.2.1s0 .2.1.2l4.6 1.6zm.6 1.4c-.9-.7-1.9-1.2-2.9-1.7-.1 0-.2 0-.3.1 0 .1 0 .2.1.2 1 .4 2 1 2.9 1.6h.1c.1 0 .1 0 .1-.1.1.1.1 0 0-.1z" fill="#000000" stroke-width="none" opacity="1"></path></g></g></g><g id="svga-group-nose-single-move" transform="matrix(1,0,0,1,0,0)"><g id="svga-group-nose-single" transform="matrix(1,0,0,1,0,0)"><path id="SvgjsPath41093" d="M101.9 106.4c-.5 1.3-1.1 2.6-2 3.7-.5.6-1.5 1.5-2.4 1.4s-.6-1.3-.6-2c-.1-3.2-.1-6.5 0-9.7.1-6.4.4-12.7 1-19.1.1-.7-1-.7-1.1 0-.9 10.3-1.2 20.7-.9 31 0 .2.1.4.3.5 3.5 1.6 5.5-2.7 6.6-5.2.2-.7-.7-1.2-.9-.6z" fill="#000000" stroke-width="none" opacity="1"></path><path id="SvgjsPath41094" d="M103.9 105.6c.3-.7 1.1-1.1 1.8-.6.5.4 1.3-.3.7-.7-1.2-.9-2.8-.6-3.5.8-.2.6.7 1.2 1 .5z" fill="#000000" stroke-width="none" opacity="1"></path><path id="SvgjsPath41095" d="M93.2 105.1c.5-.2 1.1 0 1.3.5.3.6 1.2.1.9-.5-.4-.9-1.6-1.4-2.5-1-.6.3-.3 1.3.3 1z" fill="#000000" stroke-width="none" opacity="1"></path></g></g><g id="svga-group-hair-front" transform="matrix(1,0,0,1,0,0)"><path id="SvgjsPath41195" d="M120.3 47.2s-13.7 2.7-26.7.6-20 5.8-22.8 12.4-1.5 19.1 2.1 34c3.6 14.9 3 27.6-5.2 38.8s-17.4 18.2-15.8 35.2c1.2 13.1 9.7 18.5 11.8 26.7 2.1 8.2-7.3 15.8-7.3 15.8s4.5-12.1-2.1-19.7c-6.7-7.6-10.9-14-10.9-28.2 0-14.3 9.7-32.8 11.5-43.4s-1.2-39.2-2.7-52.2 2.1-27.9 20-39.5 51.9-10.3 56.8 10.6c0 0 5.8 2.7 9.4 9.1 3.6 6.4 4.6 19.4 3.9 25.2 0 0-3 3-3.3 7-.3 3.9-2.1 7.3-2.1 7.3s-3-4.6-2.4-13.7-2.4-16.7-6.1-20.6-8.1-5.4-8.1-5.4z" fill="#ffffff" stroke-width="none" opacity="1"></path><path id="SvgjsPath41196" d="M139.4 47c-3.2-5.6-7.9-8.5-9.4-9.3-1.8-6.9-6.7-12.2-14.3-15.3-12.9-5.2-31.7-3.3-43.8 4.5C56.3 37 49.4 50.5 51.4 67.3c3 26.1 4 44.5 2.7 51.9-.7 4-2.5 9.2-4.5 14.8-3.3 9.3-7 19.8-7 28.8 0 15 4.8 21.7 11.2 28.9 6.2 7 2 18.6 1.9 18.7l-1.3 3.4 2.8-2.3c.4-.3 9.9-8.1 7.6-16.8-.9-3.4-2.8-6.4-4.9-9.5-2.9-4.4-6.2-9.5-7-17.1-1.2-13.4 4.4-20.4 10.9-28.5 1.5-1.9 3.1-3.9 4.7-6.1 3.7-5.1 6-10.7 7-17 .1-.1.2-.2.2-.5 0-.2 0-.5-.1-.8.8-6.4.2-13.4-1.8-21.4-3.9-15.8-4.6-27.4-2.2-33.4 1.4-3.4 7-14.2 21.7-11.8 12.2 2 24.7-.2 26.8-.6.9.4 4.6 1.9 7.5 5.1 3.1 3.3 6.4 10.5 5.8 19.9-.6 9.3 2.5 14.1 2.6 14.3l.9 1.4.8-1.4c.1-.1 1.9-3.6 2.2-7.7.3-3.5 3-6.3 3.1-6.3l.2-.2v-.3c.9-5.6 0-19.1-3.8-25.8zm-16.1-1.3c5.6-.7 10 2.8 13.1 7.1 1.3 1.9 2.3 4 4.3 5 .8 4.4 1 9.1.9 12.5-6.4-8.1-7.8-21.8-19.5-23.8.4-.3.8-.6 1.2-.8zm17.1 10.4c-1.7-1.3-2.7-3.7-4-5.3-1-1.3-2.1-2.4-3.4-3.4-2.4-1.9-5.1-2.9-8-3 .5-.4 1-.9 1.5-1.4 3.6.3 6.5 2.9 10.1 3.4.4.5.7 1 1 1.6 1.3 2.1 2.2 5 2.8 8.1zm-4.8-11.2c-2.8-.7-5.2-2.5-8-3.1.6-.7 1.1-1.5 1.6-2.3 1 .6 3.8 2.4 6.4 5.4zm-7.4-6.1c-.2.3-.4.7-.7 1 .1-1 .2-2 .1-3 .2.6.4 1.2.6 1.9v.1zm-3-6.9c1.4 3.1 1.7 6.5.8 9.8-.2.1-.2.2-.3.4-.5.5-1.1 1.1-1.7 1.5.1-8.5-4.1-15.8-10.6-20 .5.2 1.1.4 1.6.6 3.3 1.5 7.3 3.8 10.2 7.7zM51.5 134.8c2-5.7 3.9-11 4.6-15.2 1.7-9.7-.6-33.9-2.7-52.5-.5-4.3-.4-8.4.3-12.2-.4 8.2 1.5 16.6 4.1 24.4 4 12 9.7 24.3 6 37.1-1.9 6.8-6.5 12.3-10.1 18.2-3 4.9-5.3 10-7.2 15.3 1.4-5 3.2-10.3 5-15.1zm15.5-2.3c-1.5 2.1-3.1 4.1-4.7 6-6.8 8.4-12.6 15.7-11.3 29.9.8 8.1 4.2 13.4 7.3 18 2 3 3.8 5.8 4.6 8.9 1.2 4.8-1.9 9.5-4.4 12.2.9-4.4 1.4-11.7-3.3-17.1-6.2-7.1-10.7-13.2-10.7-27.6v-1.7c2.3-9.8 5.8-18.9 11.2-27.5 3.5-5.4 7.4-10.6 9.2-16.9 3-10.6-.1-21.1-3.7-31.1-4.4-12.4-8.8-25.9-5.1-38.9 3.2-7 8.7-13 16.7-18.1C80 24 89.7 21.5 99 21.5c2.4 0 4.8.2 7 .5 9.9 2.5 17 11.5 16.5 22.6-.5.3-.9.6-1.4.9-7.7-21.4-35.6-25.5-50.7-9.3-20.9 22.5 0 50.1 3.6 75.2-.1 8.1-2.4 14.9-7 21.1zm5-38c.8 3.3 1.4 6.3 1.7 9.3-5.2-20-17.7-40.4-7.2-59.9 5.2-9.7 15.8-17 27.1-16.8 11.7.3 22.6 7.8 26.5 18.9-.3.1-.5.2-.8.3-1.2.2-3.8.6-7 .9-3.7-12.6-17.1-20-29.6-15.1-5.3 2.1-8.8 5.5-11.2 9.7-1.1 2-1.9 4.2-2.5 6.5-.2.5-.5 2-.5 2.1-1.3 6.7-.9 14.1-.1 20.7.1 6.3 1.4 14.1 3.6 23.4zm-2.1-34.6c-.4 1-.8 2.3-1 3.6-.1-2.5-.2-4.9 0-7.4.1 0 .1-.1.2-.2.9-2 2.7-2.9 4.7-2.3-2.1 2.4-3.3 4.9-3.9 6.3zm4.8-7.3c-2-.8-4.1-.5-5.5 1 .1-1 .5-3 .5-3.1 1.3-6.3 9-7.1 13-3-3.5 1.1-6.1 3-8 5.1zm9.2-5.5c-3.3-3.9-9.3-4.5-12.9-1.5.4-1 .8-2 1.4-2.9.1 0 .1-.1.2-.2 6.6-9.7 20.7-6.2 23.4 4.6-.7-.1-1.4-.2-2.2-.3-3.8-.6-7.1-.4-9.9.3zm13.4.2C95.2 37.5 84.8 33.2 77 37.1c.9-.8 1.8-1.5 2.9-2.1C92 27.7 107 34.3 111 47.4c-3.9.3-8.8.4-13.7-.1zM137 84.6c-.8-2.1-1.8-5.8-1.4-11.2.8 1.4 1.8 2.8 3 3.9-.2.7-.4 1.5-.5 2.4-.1 1.8-.6 3.6-1.1 4.9zm2.1-8.6c-1.7-1.6-2.8-3.6-3.4-5.8-.2-8.4-3.3-14.8-6.4-18.2-1.1-1.2-2.3-2.2-3.5-3 8.1 4.3 9.7 16.3 15.8 23.1v.2c-.5.5-1.7 1.9-2.5 3.7z" fill="#000000" stroke-width="none" opacity="1"></path></g><g id="svga-group-glasses-single-move" transform="matrix(1,0,0,1,0,0)"><g id="svga-group-glasses-single" transform="matrix(1,0,0,1,0,0)"></g></g></g></g></g><rect id="svga-credit-rect" width="200" height="15" x="0" y="185" fill="#ecf0f1" opacity="0.5" style="display: none;"></rect><text id="svga-credit-text" font-family="Avenir Next, Roboto, Helvetica, Arial, sans-serif" font-size="10px" text-anchor="start" font-weight="400" size="10px" anchor="start" weight="400" fill="#333333" x="33.402061462402344" y="182.71133995056152" style="display: none;"><tspan id="SvgjsTspan40558" dy="13" x="33.402061462402344">Created on AvatarMaker.com</tspan></text></g></svg>