<svg xmlns="http://www.w3.org/2000/svg" version="1.1" width="600px" height="600px" viewBox="0 0 200 200" style="overflow:hidden!important;"><defs id="SvgjsDefs34728"></defs><g id="svga-group-wrapper"><g id="svga-group-backs-single"></g><g id="svga-group-humanwrap-move" transform="matrix(1,0,0,1,0,0)"><g id="svga-group-humanwrap" transform="matrix(1,0,0,1,0,0)"><g id="svga-group-hair-back-move" transform="matrix(1,0,0,1,0,0)"><g id="svga-group-hair-back" transform="matrix(1,0,0,1,0,0)"><path id="SvgjsPath35406" d="M143.6 74.9c-1-11.1-5.9-25.7-5.9-25.7C100.9 28.3 57.4 68 57.4 68s-1.4 28.8-3.5 41.7 1.4 24.3 1.4 24.3c-1.9 2.9-.4 8.4 1.1 12.3 9-1.2 17.1-.3 24.2 1.6.8 2.5 1.7 5.6 1.8 8.5.1 2.1 0 4.5-.1 6.7.1-.1.1-.2.1-.2s7.8-3.9 14.9-8.3c2.8-1.8 5.6-3.6 7.6-5.2 7.3-5.9 13.2-6.3 24.7-20.2 11.5-14 15-43.2 14-54.3z" fill="#ffffff" stroke-width="none" opacity="1"></path><path id="SvgjsPath35407" d="M92.1 149.9c-1.5-.1-3-.1-4.5 0-1.7.1-3.3.4-5 .8l-.3-1.2c.8-.2 1.7-.4 2.5-.5 2.4-.4 4.8-.5 7.3-.3.8.1.8 1.3 0 1.2zm24.5-13.9c-8.3 5.5-17.2 10.3-26 15.1-2.4 1.3-4.8 2.6-7.2 4l.1 1.3c2.8-1.6 5.6-3.2 8.4-4.7 4.2-2.4 8.4-4.8 12.7-7.2 5.7-3.2 11.6-6.3 16.7-10.4 9.4-7.5 14.2-18.9 13.3-30.9-.1-.8-1.3-.8-1.2 0 1 13.7-5.6 25.3-16.8 32.8zm-25.5 6.6c.8.1 1.1-1.1.3-1.2-4-.7-7.9 0-11.3 2.2-.3-.8-.7-1.6-1.1-2.4 1.8-3.3 5.1-5.4 8.8-5.6.8 0 .8-1.3 0-1.2-3.9.2-7.4 2.3-9.5 5.5-.7-1.4-1.4-2.8-2.2-4.3v-.1c0-3.6 1.6-6.8 4.6-8.8.7-.4 0-1.5-.6-1.1-2.8 1.9-4.6 4.7-5.1 7.9-.6-1.2-1.2-2.5-1.8-3.7 0-.1.1-.2.1-.3.1-4.2 1.3-8.1 3.7-11.6.5-.7-.6-1.3-1.1-.6-2.1 3.1-3.4 6.6-3.8 10.3-3.1-6.9-5-14.1-2.6-22 .2-.8-1-1.1-1.2-.3-3.4 11.1 1.6 20.6 6.6 30.1 0 .2.1.4.3.5 2 3.9 4 7.8 5.3 11.8l1.2.3-1.2-3.3c3.2-2 6.8-2.8 10.6-2.1zm39.8-12.8c-7.9 9.6-13.4 12.9-18.2 15.8-2.2 1.4-4.4 2.6-6.6 4.5-2 1.6-4.6 3.4-7.3 5-6.5 4-13.6 7.7-15.2 8.5-.3.6-.9 1.9-1.7 3.6.9-2.7 1.4-5.7 1.4-5.7 2.2-1.1 8-4.2 13.5-7.5 3-1.8 5.9-3.7 8-5.5 2.4-1.9 4.5-3.2 6.8-4.6 4.9-3 10-6 17.7-15.4 11-13.3 14.8-41.9 13.7-53.5-.9-9.9-5-22.8-5.7-25.1C103.2 31 62.8 65.1 58.9 68.5c-.2 3.5-1.5 28.2-3.3 40.5-.3 4.9.3 10.2 1.8 15.2.1.1.1.3.1.5 1.5 4.6 3.7 9 6.7 12.4.9 1 1.8 1.9 2.8 2.8.4-.1.9.3.8.7 2.4 2 5 3.9 7.1 6.2-.6-.1-1.2-.2-1.7-.3l-.9-.9-.1.1c-.3.2-.7.4-1 .6-.6-.1-1.3-.1-2-.2.7-.5 1.4-1 2.1-1.4-1.3-1.2-2.7-2.3-4.1-3.5-1.5 1.4-2.6 3-3.5 4.7h-1.4c.9-2.1 2.2-4 3.9-5.6-1.1-1-2.2-1.9-3.2-3-1.9 2.6-3 5.6-3.2 8.7-.4 0-.8.1-1.2.1.2-3.4 1.4-6.7 3.5-9.6 0-.1.1-.1.1-.1-.7-.8-1.3-1.6-1.9-2.5-1.7 3.8-2.6 7.9-2.7 12.1 0 .1.1.2.1.2l-2.1.3c-1.5-4-2.8-9.3-1.1-12.6-.6-2.2-3.2-12.6-1.3-24.4 2-12.6 3.5-41.3 3.5-41.6s.1-.5.3-.7c.4-.4 44.4-39.9 81.4-18.9.2.1.4.3.5.5 0 .2 4.9 14.8 6 25.9 1.3 12-2.6 41.4-14 55.1zm-71.6 2.6c-1.3.3-2.3 1.3-2.7 2.6 0 .2-.2.3-.3.4-.7 1.9-.3 4.7.5 7.5.4-3.5 1.4-6.8 2.9-10 0-.1.1-.1.1-.2l-.1-.1c0-.1-.1-.2-.2-.3 0 0-.1 0-.2.1zm-3.4-2.2c.2 1 .4 1.9.5 2.5.6-.7 1.5-1.2 2.5-1.5h.1c-.4-.8-.7-1.5-1.1-2.3-.8-.1-1.6.4-2 1.3zm.6-5.1c-.5-.1-1 .2-1.1.8 0 .1-.1.2-.1.3l.3 2.4c.5-.5 1.2-.8 1.8-.9-.3-.9-.6-1.7-.9-2.6zm-1.7-7.2c0 2.3.1 4.4.3 6.3.3-.2.7-.4 1.1-.4-.7-1.9-1.1-3.9-1.4-5.9zm4.4-7.6c.5.7 1.2 1.3 1.9 1.9.6.5 1.3-.6.6-1.1-1.1-.9-2-2-2.6-3.3 0-.6.1-1.3.2-1.9.8 1.3 1.8 2.4 3.2 3.1.7.4 1.3-.7.6-1.1-1.4-.8-2.5-2-3.2-3.5-.1-.2-.2-.3-.3-.3.4-2.1 1.2-4.1 2.3-6.2.4-.7-.7-1.3-1.1-.6-9.9 18.1 5.8 33.1 14.2 49.3.6.1 1.2.2 1.7.3-1.6-3.2-3.5-6.3-5.4-9.4-5.2-8-11.5-17.5-12.1-27.2zm2.6-6c.6 1 1.5 1.8 2.6 2.2.8.3 1.1-.9.3-1.2-.8-.3-1.5-.9-1.9-1.6-.3-.7-1.4-.1-1 .6z" fill="#000000" stroke-width="none" opacity="1"></path></g></g><g id="svga-group-humanbody-back"><path id="SvgjsPath34986" d="M86.5 122c0 18.8 2.7 50.3-8.1 58s-31.8 13.9-36.7 24.4-3.6 14.4-3.6 14.4h124.1s.6-8.1-4.2-15.4c-6.6-10.1-28.5-17.7-36.5-22.9-8.1-5.2-10.9-32.2-10.9-58.8l-24.1.3z" fill="#ffffff" stroke-width="none" opacity="1"></path></g><g id="svga-group-chinshadow-single"></g><g id="svga-group-humanbody-front"><path id="SvgjsPath34987" d="M163.4 220.1H37.2l-.3-.9c-.1-.5-1.3-4.7 3.6-15.3 3.4-7.3 13.6-12.4 23.5-17.4 5.1-2.5 9.9-5 13.6-7.5 8.6-6 8.1-29.8 7.7-47.1-.1-3.5-.1-6.8-.1-9.8v-1.3l26.7-.4v1.3c0 32 3.8 53.5 10.3 57.7 2.4 1.6 6 3.3 10.2 5.4 9.7 4.7 21.9 10.6 26.7 18 5 7.6 4.4 15.9 4.4 16.2l-.1 1.1zm-124.1-2.6h121.6c-.1-2.4-.6-8.2-4-13.4-4.4-6.7-16.2-12.5-25.6-17-4.3-2.1-8-3.9-10.5-5.5-9.8-6.3-11.4-38.8-11.5-58.6l-21.5.4c0 2.6.1 5.5.1 8.5.4 18.9.9 42.4-8.8 49.3-3.8 2.7-8.7 5.1-13.9 7.7-9.5 4.8-19.4 9.7-22.3 16.1-3.3 6.9-3.7 10.9-3.6 12.5z" fill="#000000" stroke-width="none" opacity="1"></path><path id="SvgjsPath34988" d="M76.8 188.7c4.8 2.3 10.4 3.9 15.7 2.9.4-.1.4-.7 0-.8-5.1-.9-10.2-1.4-15.2-3.2-.6-.2-1.1.8-.5 1.1z" fill="#000000" stroke-width="none" opacity="1"></path><path id="SvgjsPath34989" d="M108.3 191.1c2.4.3 4.9-.4 7.1-1.2 2.1-.8 4.3-1.7 5.8-3.4.5-.5-.1-1.2-.7-.9-2.1.9-3.9 2.3-6.1 3-2 .7-4.1 1-6.2 1.5-.6.1-.4.9.1 1z" fill="#000000" stroke-width="none" opacity="1"></path></g><g id="svga-group-clothes-single"><path id="SvgjsPath35336" d="M85.2 163.9s-6.4 0-8.1 1.6-6.3 1.9-8.1 7.7c0 0-4.8 5.8-4.5 9l-4.7 5.1s-8.5 3.1-11 4.5c-2.4 1.4-5.6 5.1-5.6 5.1s-4.3 2.7-5.3 5.3c-1 2.6-3.4 10.3-1.6 17.5H164s-.3-11.6-1.1-14.3c-.8-2.7-5.8-9.3-8.1-9.8 0 0-7.1-6.3-9-7.1s-6.9-2.4-6.9-2.4-5-3.4-6.8-6.9c-.3-.6-4.8-7.9-6.1-8.7 0 0-.5-2.1-3.7-4.5s-8.4-2.9-8.4-2.9.6 2.4 1.3 6.4c.6 4 1 6.6-.2 9.3-1.1 2.7-4.8 5.5-7.6 8.5s-4.5 4.5-6 8.1c0 0-6.3-6.1-10.9-8.4s-6.4-4.2-7.2-7.2c-.7-2.9 1.9-15.9 1.9-15.9z" fill="#ffffff" stroke-width="none" opacity="1"></path><path id="SvgjsPath35337" d="M163.9 205.2c-.8-2.7-5.6-9.4-8.5-10.4-1.3-1.1-7.2-6.3-9.1-7.1-1.8-.7-6-2.1-6.9-2.4-.7-.5-4.9-3.5-6.3-6.5-.1-.3-4.3-7.2-6.2-8.8-.3-.8-1.2-2.7-4-4.7-3.4-2.6-8.7-3.1-8.9-3.1-.3 0-.6.1-.9.4-.2.2-.3.6-.2.9 0 0 .6 2.4 1.3 6.3.6 3.8.9 6.3-.1 8.8-.7 1.6-2.5 3.4-4.4 5.2-1 1-2.1 2-3 3-.5.6-1 1.1-1.4 1.6-1.7 1.8-3 3.2-4.1 5.5-2-1.9-6.5-5.8-10.2-7.6-4.8-2.3-6.1-4.1-6.7-6.6-.5-1.8.5-8.6 1.4-13.7.4-.2.6-.7.4-1.2 0-.1-.1-.2-.1-.2 0-.2.1-.4.1-.5.1-.3 0-.6-.2-.8s-.5-.4-.8-.4c-1.1 0-6.9.1-8.7 1.9-.3.4-1 .7-1.8 1.1-2 1-5.1 2.5-6.5 6.9-.9 1.1-4.6 5.8-4.6 9.1l-4.2 4.7c-1.4.5-8.6 3.1-10.9 4.5-2.3 1.4-5.2 4.6-5.8 5.2-.8.5-4.6 3.1-5.6 5.7-.9 2.3-3.5 10.4-1.6 18.1.1.4.5.8 1 .8H164c.3 0 .5-.1.7-.3s.3-.5.3-.7c0-.5-.3-11.8-1.1-14.7zm-26.3-18c0-.3-.1-.5-.1-.8.1.1.2.2.4.3-.1.1-.2.3-.3.5zm-2.2-2.5c.3 1.3.2 2.6.4 3.9 0 .1.2.2.3 0 .3-1.1.1-2.4-.2-3.6.4.3.8.6 1.1.9.1.6.2 1.2.2 1.9-.8 1.1-2.2 2.1-3.9 3l.1-.1c.4-1.3.4-2.7.3-4 0-.2-.3-.2-.3 0 .1 1.4-.1 2.6-.4 4 0 .1.1.2.2.2-.7.4-1.4.7-2.2 1.1.2-1.1.4-2.2.6-3.2.1-.3-.4-.4-.4-.1-.3 1.1-.7 2.4-.9 3.6-.3.1-.6.2-.8.4l.6-2.1c.1-.2-.3-.4-.4-.1-.2.9-.6 1.7-.9 2.5-.4.2-.8.3-1.2.5.3-.8.5-1.7.6-2.4 0-.2-.3-.2-.3 0-.1.9-.4 1.6-.8 2.4-.1.1-.1.2-.2.3l-1.5.6-.3.1 1.2-3c.1-.2-.3-.3-.4-.1-.5 1.1-1 2.2-1.4 3.4-.4.2-.9.3-1.3.5.6-1 1-2.2 1.2-3.3 0-.2-.3-.3-.3-.1-.3 1.4-1 2.5-1.7 3.7l-.9.3c.5-.9.8-2 .9-2.8 0-.2-.2-.3-.3-.1-.1.8-.4 1.5-.8 2.1-.2.3-.4.6-.7 1l-.9.3c.5-.8.8-1.7 1.1-2.5.1-.2-.2-.3-.3-.1-.2.7-.5 1.3-.9 1.9-.2.3-.4.6-.7.9-.3.1-.6.2-1 .3.3-.5.5-1.1.8-1.6.1-.2-.2-.3-.2-.1-.4.6-.9 1.3-1.3 2-.2.1-.5.2-.8.3.1-.3.3-.6.4-.9.1-.2-.2-.3-.3-.1-.2.4-.5.8-.7 1.3l-.9.3c.1-.2.2-.4.4-.6.1-.2-.2-.4-.3-.2-.2.3-.5.6-.8 1-2.1.7-4.1 1.4-5.8 1.9-1.3-1-2.5-1.7-3.4-2.2 2.1-2.9 4.9-6.2 7.3-7.8.9-.6 1.9-1.3 3-1.9 4-2.6 8.6-5.4 10.8-9.8.8-1.6 1.2-3.1 1.4-4.2 1.1 1.5 2.2 3.3 2.9 4.4-.2 1.3-.5 2.7-.6 4-.2.2-.5.5-.8.7.3-1.7.6-3.5.9-5.2 0-.2-.3-.3-.3-.1-.4 1.9-.9 3.9-1.2 5.9-.3.2-.5.5-.8.7.3-1.5.4-3.1.6-4.5 0-.2-.3-.3-.3-.1-.3 1.7-.8 3.4-.9 5.1-.4.3-.8.6-1.1.9.2-1.3.5-2.5.9-3.8.1-.2-.2-.3-.3-.1-.6 1.3-1.1 2.9-1.2 4.4l-.9.6c0-.2.1-.4.1-.6l.3-2.1c0-.2-.3-.3-.3-.1-.2.7-.3 1.5-.4 2.2-.1.3-.1.6-.2 1-.2.1-.4.3-.7.4.2-.8.2-1.6.3-2.4 0-.2-.2-.2-.3-.1-.2.9-.5 1.8-.7 2.8-.2.1-.4.2-.5.3 0-.2 0-.3.1-.5.1-.6.2-1.1.2-1.7 0-.2-.2-.2-.3 0l-.3 1.8c-.1.2-.1.5-.2.8-.2.1-.5.3-.8.4.1-.5.2-1 .4-1.5.1-.2-.2-.3-.3-.1-.2.6-.4 1.2-.6 1.9-.3.1-.6.3-.9.4-.2.1-.3.2-.4.3.1-.3.2-.7.3-1 .1-.2-.2-.3-.3-.1-.2.6-.4 1.1-.5 1.7 0 .1.2.2.3.1 0 0 0-.1.1-.1 0 .1 0 .3.1.4.2.4.5.6.9.6.1 0 .2 0 .4-.1 6.4-2.6 11.5-7.9 13.1-9.6.6 1 1.4 1.8 2.1 2.4zm-27.1 17.8c.8.7 1.7 1.4 2.5 2.3 2.8 2.9 3 5.5 2.5 6.3-.1.1-.2.4-.9.1-1.7-.6-3-3.8-4-6.1-.4-.9-.7-1.7-1.1-2.3.4-.1.7-.2 1-.3zm-2.1-1.4c-.1-.1-.1-.2-.2-.3.1.1.2.1.3.2 0 .1 0 .1-.1.1zm-7.8 2.6c.6 0 1.2 0 1.8.1-.4 1.1-.8 2.3-1.1 3.4-.2.9-.2 1.7-.3 2.5-.1 1.8-.1 2.9-2.2 4-.7.4-1.2.4-1.3.3-.4-.4-.6-2.9 1.7-7.8.5-1.1.9-1.9 1.4-2.5zm-5.8-2.3c-.3-.3-.7-.6-1-.9-.2-.2-.5.1-.3.3l.6.6c-.6 0-1.3-.1-1.9-.1-.2-.2-.3-.5-.4-.8-.1-.3-.5-.2-.4.1.1.2.1.4.3.6-.7-.1-1.5-.1-2.2-.2-.2-.2-.3-.5-.4-.7-.1-.2-.4-.1-.3.1l.3.6-2.7-.3c-.3-.4-.6-.9-.9-1.3-.1-.2-.4 0-.3.2.2.4.4.7.6 1.1-.8-.1-1.6-.2-2.3-.3-.2-.2-.4-.5-.5-.8-.3-.5-.4-1-.6-1.6-.1-.3-.6-.2-.5.1.1.7.4 1.4.8 2.1-.8-.1-1.5-.2-2.2-.4-.9-1.1-1.5-2.2-1.7-3.8 0-.3-.5-.3-.4 0 .1 1.2.5 2.5 1.2 3.6-.7-.1-1.3-.3-1.8-.5-.9-1.1-1.5-2.3-1.9-3.6.2-.1.4-.2.5-.4.3-.5.2-1.1-.3-1.4-.6-.4-1.1-.8-1.6-1.2 0-3.6.5-6.8 2.2-9.9.5.8 1.1 1.6 1.8 2.3-1.2 2.3-1.9 4.8-1.6 7.4 0 .2.3.2.3 0 .1-2.6.4-4.9 1.5-7.2.7.8 1.4 1.5 2.1 2.3-.2.8-.4 1.5-.5 2.3 0 .2.2.3.3.1.3-.6.4-1.3.6-2 3.1 3 6.7 5.4 9.8 6.5 4.4 1.5 8.7 3.7 11.2 5.2-.8.4-1.6 1-2.5 2-1.5.1-3.2 0-4.9-.1zm-11.7-36.2c.5.2.9.4 1.4.5-.3.2-.7.5-1.1.9-.5-.5-1.2-.8-1.9-1.1.4-.1 1-.2 1.6-.3zm-10.8 25.3c.4-3.6 1.2-6.7 3.1-9.8.3.6.6 1.1 1 1.7-1.8 3-2.8 6.5-2.3 9.9-.7-.6-1.3-1.2-1.8-1.8zm-2.4-3.4c.4-3.5 1.7-6.6 4.4-9 .2.7.5 1.4.9 2.1-1.9 2.9-3.1 6.3-3.2 9.8-.9-1-1.6-2-2.1-2.9zm5.9-11.6c0-.5.1-1 .1-1.4 1.5-.4 3-.6 4.5-.8.1.9.2 1.8.5 2.6h-.1c-1.7.2-3.2 1-4.7 1.9-.1-.9-.3-1.6-.3-2.3zm8.7-7.2c.3.3.6.7.9 1-.1.3-.1.7-.2 1l-.6-.6-.7-.7c.2-.3.4-.5.6-.7zm-.9 1.1c.2.2.4.5.7.7.3.3.6.7.9.9-.1.3-.1.6-.1.9-.3-.2-.7-.4-1-.7-.4-.3-.7-.5-1.1-.8.1-.3.3-.7.6-1zm-1.1 2.7.3-1.2c.4.3.7.6 1.1.8.3.3.7.6 1.1.8-.1.6-.1 1.1-.2 1.6-.3-.2-.6-.4-.9-.7-.5-.4-.9-.7-1.4-1-.1 0-.1-.1 0-.3zm-1.3-2.7c-1-.4-2.1-.6-3.2-.8.4-.6.8-1.1 1.1-1.5.9.4 1.9.7 2.8 1-.2.4-.5.9-.7 1.3zm-3.4-.4c1.1.2 2.1.6 3.2.9-.2.4-.3.7-.4 1.1-1.2-.2-2.4-.4-3.6-.5.3-.6.5-1.1.8-1.5zm5.7 5.2c.4.3.7.6 1.1.9 0 .5-.1.9-.1 1.3l-.6-.6c-.4-.4-.8-.7-1.2-1.1l-.3-1.5c.4.4.8.7 1.1 1zm0 2.1 1 1v1.2c-.5-.8-1-1.6-1.3-2.5l.3.3zm2.2-9c-.1.1-.1.2-.1.3-.1.3-.1.6-.2 1-.2-.2-.4-.4-.6-.7.4-.2.7-.5.9-.6zm-.8-1.9c-.1 0-.1 0 0 0-.2-.2-.4-.3-.6-.4.5-.1 1-.1 1.5-.1-.4.2-.7.3-.9.5zm-4.9.8c.1-.1.4-.3.7-.4.3.1.7.2 1 .4.5.2.9.5 1.4.7-.3.3-.6.6-.8.9-.9-.4-1.9-.7-2.8-1 .3-.4.5-.6.5-.6zm-3.1 4.6c1.2.2 2.5.4 3.7.6 0 .1-.1.3-.1.5-.1.4-.1.8-.1 1.1-1.5-.1-3 .2-4.4.6.2-1 .5-1.9.9-2.8zm-2.8 6.8c-2.6 2.2-4.4 5.3-4.6 8.7-.5-1-.9-1.8-1.2-2.6.5-3.3 3.5-7 5.5-9.1v.8c0 .8.1 1.5.3 2.2zm-6.4 9.7c-.3 1.6-.3 3.2.1 4.7-.8-.8-1.6-1.6-2.2-2.3 0-1.8.3-3.4.9-5 .4.8.7 1.7 1.2 2.6zm.7 5.3c-.3-1.6-.5-3.1-.4-4.7.6 1.1 1.4 2.3 2.4 3.5 0 1.2.2 2.5.7 3.6l-2.7-2.4zm3.3 2.9c-.4-1.2-.7-2.4-.8-3.6.6.7 1.4 1.4 2.2 2.1.1 1.2.5 2.3 1.1 3.3-.8-.5-1.7-1.1-2.5-1.8zm3.1 2.3c-.6-1.1-1.1-2.2-1.3-3.4.4.4.9.7 1.4 1.1.1.1.2.1.4.1.3 1.2.8 2.3 1.5 3.3-.6-.3-1.3-.7-2-1.1zm28.5 3.5c-.1.1-.1.3-.2.4h-.6c.3-.2.6-.3.8-.4zm3 .3.1.1h-.1c.1 0 .1-.1 0-.1zm27.9-20.7c-.2.2-.6.7-1.2 1.3.1-.9.2-1.9.3-2.9.1.2.2.3.2.4.2.4.4.8.7 1.2zM115.4 165c.2.1.3.3.5.5-.1.1-.2.3-.3.4 0-.3-.1-.6-.2-.9zm.9.8.8.8c-.3.4-.5.8-.8 1.1-.1.1-.1.2-.2.3-.1-.5-.2-1-.3-1.4.1-.3.3-.5.5-.8zm.4 11.2c.8-.7 1.3-1.6 2-2.4.2-.2.4-.5.7-.7-.7 1.6-1.8 2.9-2.8 3.9 0-.3.1-.6.1-.8zm.6-2.6c.8-.6 1.3-1.5 1.9-2.2.2-.2.3-.4.5-.6.1.4.1.9-.1 1.3l-1.5 1.5c-.5.5-1 1.1-1.4 1.6.1-1 0-2.1-.1-3.2.5-.6.8-1.3 1.2-1.9.3-.5.8-1 1.2-1.4l.6 1.5c-.3.4-.6.7-.9 1-.6.7-1.3 1.4-1.8 2.2 0 .2.3.3.4.2zm.2-3.9c-.3.4-.7.9-.9 1.4-.1-.4-.1-.9-.2-1.4.5-.5.9-1.1 1.3-1.6.2-.2.4-.5.6-.8l.6.9c-.5.4-1 .9-1.4 1.5zm-.3-1.7c-.3.3-.6.7-.8 1v-.3c0-.3-.1-.5-.1-.8.2-.2.3-.5.4-.7.2-.4.5-.8.8-1.1.2.3.5.5.7.8-.5.4-.8.7-1 1.1zm-16.3 27.5c.2.2.6.3.9.3.3-.1.6-.3.7-.6 1.1-2.7 2.4-4.1 4.3-6.2.5-.5.9-1 1.5-1.6.9-1 1.9-2 2.9-2.9 1.2-1.1 2.3-2.2 3.2-3.3.3 0 .6-.2.7-.4.1-.1.4-.3.6-.5 1.5-1.2 4.6-3.6 5.8-7.2 1.1-3.2-1.1-6.5-3-8.5 1.1.4 2.3.9 3.2 1.6 2.8 2.1 3.3 3.9 3.3 3.9v.1s0 .1.1.1c0 .1.1.1.1.2v.1c.1.1 1.7 2-.6 6.4-2 3.8-6.3 6.6-10.1 9-1.1.7-2.1 1.3-3.1 2-2.7 1.8-5.8 5.4-8.1 8.7-.2 0-.5.1-.7.3-.2-.1-.4-.1-.6-.1-.3.1-.6.1-.8.6-2.5-1.5-7.1-4-11.9-5.6-.6-.2-1.1-.4-1.7-.7h.1l1.8-2.4c.1-.1-.1-.3-.2-.2-.7.7-1.3 1.5-1.9 2.3-.1.1-.1.1 0 .2-1.2-.6-2.3-1.3-3.5-2.1.3-.8.7-1.6 1.3-2.3.4-.5.9-.9 1.4-1.2 1 .7 2.1 1.4 3.5 2 4.6 1.9 10.7 7.9 10.8 8zm-14.7-10.5c-1.2.8-2.1 2.2-2.7 3.6-1.4-1.1-2.8-2.3-4-3.6.9-.9 1.9-1.8 2.6-2.8.1-.2-.1-.3-.3-.2-.9.8-1.8 1.8-2.6 2.7-.8-.8-1.5-1.6-2.1-2.4 1.1-.9 2.3-1.7 3.4-2.5.2-.1.1-.4-.1-.3-1.3.5-2.5 1.4-3.6 2.5-.5-.6-.9-1.3-1.3-1.9 1.1-.7 2.2-1.4 3.2-2.2.1-.1 0-.3-.2-.2-1.1.6-2.1 1.4-3.2 2.1-.5-.8-.9-1.6-1.2-2.3 1.5-.8 3-1.4 4.6-2 0 0 .1 0 .1-.1 1.3 3.7 4.4 6.9 4.5 7.1.2.2.3.2.6.3.6.7 1.4 1.4 2.3 2.2zm-12.8-17c-.8 1.5-1.5 3.3-1.7 5.3-2.1 2-3.8 4.4-5.1 7-.3.6-.6 1.2-.8 1.8-.2-.4-.2-.8-.3-.9-.2-2.1 2.5-6.1 4.3-8.2.1-.1.2-.2.2-.4v-.1c.6-.6 1.1-1.3 1.7-1.9.1-.1-.1-.3-.2-.2l-1.2 1.2c.8-1.7 1.9-2.8 3.1-3.6zm-9.3 15.5c-.8 1.6-1.2 3.3-1 5-.8-.8-1.3-1.5-1.8-1.9l2.8-3.1zm-14.6 8.4c1.9-1.2 8.1-3.5 10.1-4.2 1.9 2.1 9.1 10.1 14.6 12.4 4 1.6 14.4 2.3 21.9 2.7-.3.5-.6 1-.9 1.6-1.1 2.4-3.5 8.1-1.3 10.1.3.3.8.6 1.6.6.6 0 1.2-.2 2.1-.6 3.1-1.7 3.2-3.8 3.3-5.7 0-.7.1-1.4.2-2.1.1-.4.2-.9.4-1.4.2 2.8.5 6.5 1 11.4.1.5.5.9 1 .9h.1c.6-.1 1-.5.9-1.1-.3-3.5-.6-7.1-.9-10.3 1.2 4.1 2.8 8.8 4.3 10.5.3.4 1 .5 1.4.1.4-.4.5-1 .1-1.4-1.6-1.9-3.5-8.4-4.7-12.7.2-.1.4-.1.8-.2.3.5.7 1.5 1.2 2.5 1.2 2.8 2.6 6.2 5.2 7.2.4.2.8.2 1.2.2.9 0 1.6-.4 2.1-1.1 1.1-1.7.5-5.4-2.8-8.8l-1.7-1.7c.4-.1.8-.3 1.3-.4v.1c-.1.1.1.2.2.1l.3-.3c4.5-1.5 9.8-3.3 13.2-4.6l.7-.3c6.2-2.5 12.1-4.8 13.5-8.8 1.6.5 4.5 1.5 5.8 2.1 1.2.5 5.4 3.9 8.1 6.4-1.2 2.2-4.3 8.9-4 23H52c.2-12.2-5.3-19.6-7.3-21.9 1-1.1 3.1-3.3 4.8-4.3zm105.3 26.2c-.5-.2-1-.5-1.4-.9-.7-.5-1.3-1.1-1.8-1.7 0-1.2.1-2.3.1-3.3 1.9 2.4 4.4 4.5 7.2 5.9h-4.1zm-3.2-1.6c.6.6 1.2 1.1 1.9 1.5h-1.9v-1.5zM42 218.6c-1.8-.7-3.5-1.3-5.1-2.2-.1-1-.1-1.9-.1-2.9 3.3 2.2 6.9 3.9 10.8 4.6.2 0 .3-.3.1-.3-3.8-1.2-7.4-2.6-10.8-4.8 0-1.2.2-2.3.3-3.4 3.8 2.1 7.8 3.9 12.1 4.8.2.1.3-.3.1-.4-4.1-1.5-8.2-3-12.1-4.9.4-2.6 1.1-4.7 1.5-5.9 0 0 0 .1.1.1 3 1.8 6.1 3.4 9.5 4.4.3 1 .7 2.1.9 3.3-3.7-1.5-7.5-2.8-11-4.9-.2-.1-.4.2-.2.4 3.4 2.2 7.2 4.2 11.3 5 .5 2.2.7 4.7.6 7.4h-7.9c0-.1 0-.2-.1-.3zm1.2-20.3c.3.3.6.8 1.1 1.4-.5-.3-1.1-.6-1.6-1 .1-.1.3-.3.5-.4zm-.9.7c.9.6 1.7 1.1 2.7 1.6.5.8 1.1 1.8 1.7 3-1.8-1.1-3.8-1.8-5.8-2.7-.3-.1-.5.3-.2.4 2 .9 4 2.1 6.1 2.8h.2c.4.9.9 1.9 1.3 3-3.1-1.3-6.1-2.6-9.1-4.1H39c0-.1.1-.2.1-.3.3-1.3 1.9-2.7 3.2-3.7zm-5.4 17.9c1.4.9 3 1.6 4.6 2h-4.3c-.1-.7-.2-1.4-.3-2zm123 2c-3.1-1.8-5.9-3.8-8.2-6.4.1-1.6.2-3.1.4-4.4 2.8 3.8 6.4 7.2 10.5 9.4.2.1.4-.2.2-.3-4-2.8-7.5-5.8-10.6-9.5h-.1c.2-1.4.4-2.6.7-3.7 2.2 3.2 5.1 6.4 8.6 8.2.2.1.4-.2.2-.3-3.3-2.5-6.2-4.9-8.5-8.4 0-.1-.1-.1-.1-.1.2-.9.4-1.7.7-2.4 1.3 1.5 2.7 3.1 4.4 4.2.2.1.4-.1.2-.3-1.4-1.5-3-2.9-4.4-4.4.6-1.7 1.1-2.8 1.4-3.4 2 1.3 6 6.4 6.7 8.8.6 1.9.9 9.3 1.1 13h-3.2zm-25.4-29c.6-1.4.7-3 .6-4.5 0-.2-.3-.2-.3 0 .1 1.5-.1 3-.4 4.5-.1 0 .1.1.1 0z" fill="#000000" stroke-width="none" opacity="1"></path></g><g id="svga-group-head" transform="matrix(1,0,0,1,0,0)"><g id="svga-group-ears-left-move" transform="matrix(1,0,0,1,0,0)"><g id="svga-group-ears-left" transform="matrix(1,0,0,1,0,0)"><path id="SvgjsPath35221" d="M64.4 81.9s-4.4-4.7-5.8-6.2c-1.4-1.4-3.1-4.7-5-4.1-1.9.5-1.2 2.7-1.3 5.8-.1 3.1.3 9.1 2.2 12.4s2.9 4.5 3.5 8 2.8 4.2 4.1 3.2 4.3-7 4.4-10.2c0-3.2-1.2-7.5-2.1-8.9z" fill="#ffffff" stroke-width="none" opacity="1"></path><path id="SvgjsPath35222" d="M59.7 102.2c-.8-.3-2.3-1.3-2.8-4.2-.5-2.9-1.2-4-2.7-6.5l-.6-1.1c-2.1-3.6-2.5-10.1-2.4-13v-2c0-2-.1-4.1 2.1-4.7 2.1-.6 3.7 1.5 5 3.2.4.5.7.9 1 1.2 1.4 1.4 5.8 6.2 5.8 6.2l.1.1c.9 1.4 2.3 6 2.2 9.4-.1 3.4-3.2 9.8-4.8 11-.5.4-1.2.6-1.8.6-.4 0-.7-.1-1.1-.2zm-1.8-25.7c-.4-.4-.7-.9-1.1-1.4-.8-1.1-2.1-2.7-2.9-2.5-.6.2-.7.6-.6 2.8v2.1c-.1 3.1.3 8.9 2.1 11.9l.6 1.1c1.5 2.6 2.4 4 3 7.2.3 1.4.8 2.4 1.5 2.7.3.1.7.1 1-.1 1-.8 3.9-6.5 4-9.4.1-3-1.1-7.1-1.8-8.2-.7-.7-4.6-4.9-5.8-6.2z" fill="#000000" stroke-width="none" opacity="1"></path><path id="SvgjsPath35223" d="M52.7 76.3c.5-1.9 2.1-1 3 .4 1.9 2.6 3.2 6.6 3.6 10 0 .1-.1.2-.1.1-.1.1-.2.1-.2-.1-1.2-.5-1.6-.2-1.2.8 0 .3.1.6.3.9.2.5.6 1 .9 1.5.5.8 1.2 1.5 1.7 2.3.2.3 0 .6-.2.4-1.4-1-3.9-4.3-3.2-6.6.3-.8 1-1.1 1.5-.7-1.1-3.6-4-12-5.8-8.8-.1.1-.3 0-.3-.2z" fill="#000000" stroke-width="none" opacity="1"></path><path id="SvgjsPath35224" d="M55.6 76.8c-1 2-1.4 4.4-.9 7.1.3 1.5 2.9 9.5 4.9 8.4.2-.1.4.3.2.5-2 1.8-4.2-4.5-4.9-6.5-1.1-3.4-1.4-7.5.5-9.7.1-.1.2.1.2.2z" fill="#000000" stroke-width="none" opacity="1"></path></g></g><g id="svga-group-ears-right-move" transform="matrix(1,0,0,1,0,0)"><g id="svga-group-ears-right" transform="matrix(1,0,0,1,0,0)"><path id="SvgjsPath35225" d="M137.1 81.9s4.4-4.7 5.8-6.2c1.4-1.4 3.1-4.7 5-4.1 1.9.5 1.2 2.7 1.3 5.8s-.3 9.1-2.2 12.4c-1.9 3.3-2.9 4.5-3.5 8-.6 3.5-2.8 4.2-4.1 3.2-1.3-1-4.3-7-4.4-10.2 0-3.2 1.2-7.5 2.1-8.9z" fill="#ffffff" stroke-width="none" opacity="1"></path><path id="SvgjsPath35226" d="M140.7 102.4c-.6 0-1.3-.2-1.8-.6-1.5-1.2-4.7-7.5-4.8-11-.1-3.4 1.2-8 2.2-9.4l.1-.1s4.4-4.7 5.8-6.2c.3-.3.6-.8 1-1.2 1.3-1.7 2.9-3.8 5-3.2 2.2.6 2.1 2.7 2.1 4.7v2c.1 2.9-.2 9.4-2.4 13l-.6 1.1c-1.5 2.5-2.2 3.7-2.7 6.5-.5 2.9-2 3.9-2.8 4.2-.4.1-.7.2-1.1.2zm-2.8-19.9c-.7 1.2-1.9 5.2-1.8 8.2.1 2.9 2.9 8.6 4 9.4.3.2.6.3 1 .1.7-.3 1.3-1.3 1.5-2.7.6-3.2 1.4-4.7 3-7.2l.6-1.1c1.8-3 2.2-8.7 2.1-11.9v-2.1c.1-2.2 0-2.6-.6-2.8-.8-.2-2 1.4-2.9 2.5-.4.5-.8 1-1.1 1.4-1.3 1.5-5.2 5.7-5.8 6.2z" fill="#000000" stroke-width="none" opacity="1"></path><path id="SvgjsPath35227" d="M148.8 76.3c-.5-1.9-2.1-1-3 .4-1.9 2.6-3.2 6.6-3.6 10 0 .1.1.2.1.1.1.1.2.1.2-.1 1.2-.5 1.6-.2 1.2.8 0 .3-.1.6-.3.9-.2.5-.6 1-.9 1.5-.5.8-1.2 1.5-1.7 2.3-.2.3 0 .6.2.4 1.4-1 3.9-4.3 3.2-6.6-.3-.8-1-1.1-1.5-.7 1.1-3.6 4-12 5.8-8.8.1.1.3 0 .3-.2z" fill="#000000" stroke-width="none" opacity="1"></path><path id="SvgjsPath35228" d="M145.9 76.8c1 2 1.4 4.4.9 7.1-.3 1.5-2.9 9.5-4.9 8.4-.2-.1-.4.3-.2.5 2 1.8 4.2-4.5 4.9-6.5 1.1-3.4 1.4-7.5-.5-9.7-.1-.1-.2.1-.2.2z" fill="#000000" stroke-width="none" opacity="1"></path></g></g><g id="svga-group-faceshape-wrap" transform="matrix(1,0,0,1,0,0)"><g id="svga-group-faceshape-single"><path id="SvgjsPath35208" d="M138.2 58.2c-2-10.8-13.3-27.4-37.2-27.4S69.1 43.5 65.5 53c-3 8.1-3 21.3-3 21.3s.4 28.4 10 46.1c9.3 17 28.9 31.8 46.2 11.8 21.5-24.8 20.6-57.8 20.6-57.8s.3-8.5-1.1-16.2z" fill="#ffffff" stroke-width="none" opacity="1"></path><path id="SvgjsPath35209" d="M100.7 143.1c-.8 0-1.5 0-2.3-.1-11.8-1.3-21.7-12.2-27-22-9.6-17.7-10.2-45.5-10.2-46.7 0-.6 0-13.6 3.1-21.8 5.8-15.5 17.8-23 36.7-23 10.9 0 20.5 3.4 27.7 10 5.5 5 9.6 11.9 10.8 18.5 1.4 7.6 1.2 15.7 1.2 16.4s.1 8.8-2.3 19.9c-2.3 10.5-7.4 25.8-18.7 38.8-5.8 6.6-12.2 10-19 10zm.3-111c-17.7 0-28.9 7-34.3 21.3-2.9 7.8-2.9 20.8-2.9 20.9 0 .3.5 28.3 9.9 45.5 5 9.2 14.2 19.5 25 20.6 6.8.7 13.3-2.3 19.1-9.1 20.9-24.1 20.3-56.6 20.3-57 0-.1.2-8.4-1.2-15.9-1.1-6-4.8-12.4-10-17-6.6-6.1-15.6-9.3-25.9-9.3z" fill="#000000" stroke-width="none" opacity="1"></path></g></g><g id="svga-group-mouth-single-move" transform="matrix(1,0,0,1,0,0)"><g id="svga-group-mouth-single" transform="matrix(1,0,0,1,0,0)"><path id="SvgjsPath35299" d="M112.4 120.4c-.5-.3-1.7-.4-2.1-.6-6.8-4.2-15-4-21.6.5-.3.1-2 .1-2.3.2-.6.2 1.4.8 2 .6 2.1-.7 4.1-1.1 6.4-1.1 1.9 0 3.6 1.2 5.5 1.1 1.6-.1 3.1-1.1 4.7-1.3 2.2-.2 3.5-.5 5.4.7.4.4 2.5.3 2-.1zm-6.4-1.5c-.1-.2-.2-.4-.2-.6.2.1.3.1.5.2v.1c.1.1.1.2.1.4-.2-.1-.3-.2-.4-.1zm-5.7-1.6h.7v.1c.2.8.4 1.6.7 2.4-.2 0-.3.1-.4.1-.3-.9-.6-1.8-1-2.6zm1.2 0c.2 0 .3 0 .5.1v.1c.2.7.4 1.3.6 2-.1 0-.3.1-.4.1-.3-.7-.5-1.5-.7-2.3zm1 .2c.2 0 .4.1.5.1.2.6.4 1.1.6 1.7-.2.1-.4.1-.6.2-.1-.8-.3-1.4-.5-2zm1.1.2c.2 0 .3.1.5.1v.1c.1.4.2.8.4 1.2-.1 0-.3.1-.4.1-.1-.6-.3-1.1-.5-1.5zm1.1.2c.2.1.4.1.6.2v.2c.1.2.2.4.2.7-.2 0-.3 0-.5.1-.1-.5-.2-.8-.3-1.2zm2.1.7c.3.1.7.3 1 .4-.3-.1-.6-.1-.9-.1-.1-.1-.1-.2-.1-.3zm-10.8.6c-.2-.5-.4-.9-.7-1.4.1 0 .3-.1.4-.1l.6 1.5H96zm-.9-.1c-.2-.3-.3-.7-.5-1.1.1 0 .2-.1.3-.1l.6 1.2h-.4zm-.8 0c-.2-.3-.3-.5-.5-.8.1 0 .2-.1.3-.1.1.3.3.6.4.9h-.2zm-.9 0-.3-.6c.1 0 .2-.1.3-.1.1.2.2.4.4.7h-.4zm-.9.2c-.1-.1-.2-.3-.2-.4.1-.1.3-.1.4-.2.1.2.2.3.2.5-.2 0-.3 0-.4.1zm-1.1.2c0-.1-.1-.1-.1-.2.2-.1.3-.2.5-.2.1.1.1.2.2.3-.2 0-.4 0-.6.1zm4.9-1.9c.2 0 .3-.1.5-.1.2.7.5 1.4.7 2-.2-.1-.4-.1-.5-.1-.3-.6-.5-1.2-.7-1.8zm.9-.1c.1 0 .3 0 .4-.1.3.8.7 1.6 1 2.4-.2 0-.4-.1-.6-.1-.2-.7-.5-1.5-.8-2.2zm.9-.2h.6v.1l.9 2.7c-.2 0-.3 0-.5-.1-.3-.9-.6-1.8-1-2.7zm-7.2 2.2s0 .1 0 0c-.1.1-.2.2-.3.2.1-.1.2-.1.3-.2zm9.3.5c-.3-.9-.7-1.8-.9-2.7h.6v.1c.4.8.7 1.7 1 2.6h-.7zm8.2 2.6c-5.6 2-11.6 2-17.2-.2-.3-.1-.4.4-.1.5 5.6 2.2 11.8 2.2 17.4.2.3-.1.2-.6-.1-.5z" fill="#000000" stroke-width="none" opacity="1"></path></g></g><g id="svga-group-eyes-left-move" transform="matrix(1,0,0,1,0,0)"><g id="svga-group-eyes-left" transform="matrix(1,0,0,1,0,0)"><g id="svga-group-eyesback-left"></g><g id="svga-group-eyesiriswrapper-left"><g id="svga-group-eyesiriscontrol-left" transform="matrix(1,0,0,1,0,0)"><g id="svga-group-eyesiris-left" transform="matrix(1,0,0,1,0,0)"><path id="SvgjsPath35259" d="M85.2 89c1-1.8.1-4.4-1.6-5.6-1.8-1.2-4.3-.8-5.8 1.2-.8 1.1-1.1 2.5-.6 3.7.2.4.7 1.7 1.8 2.3 2.3 1.2 5 .6 6.2-1.6z" fill="#ffffff" stroke-width="none" opacity="1"></path><path id="SvgjsPath35260" d="M82.5 88.2c.2 0 .4.1.5.3.2-.3.4-.7.4-1.1 0-.4-.2-.8-.4-1.1-.2-.6-.6-1-1.2-1.2-.3-.1-.7-.1-1.1 0 .2.6-.1 1.4-.7 1.8-.3.2-.7.3-1 .2-.1.7.2 1.3.7 1.8.6.6 1.5.6 2.2.3-.2-.5 0-1 .6-1zm2.9-2.5c-.2-.6-.4-1.1-.7-1.6-.2-.2-.3-.5-.6-.7s-.4-.4-.7-.6c-.5-.3-1.1-.6-1.7-.6s-1.3-.1-1.9.1c-.6.2-1.2.5-1.7.9s-.9.9-1.2 1.5-.5 1.2-.6 1.8 0 1.3.3 1.9c.2.5.6 1.1 1 1.5.2.2.4.4.7.6.1.1.3.2.4.2.2.3.3.3.3.3.1 0 .1.1.2.1 1.1.4 2.4.4 3.4 0 .5-.2 1-.5 1.5-.8.4-.4.8-.8 1-1.3-.1.2-.3.5-.5.7l-.6.6c-.4.3-.9.6-1.5.7-.5.1-1.1.1-1.6 0s-1-.3-1.5-.5c-.1 0-.1-.1-.2-.1s-.1-.1-.2-.1c-.1-.1-.2-.1-.3-.2-.2-.2-.3-.4-.5-.6-.1-.2-.2-.4-.4-.7s-.2-.5-.3-.7c-.2-.6-.2-1.2 0-1.8-.2-.2-.2-.5-.2-.8 0-1 1-1.8 2-1.6.2-.1.4-.2.7-.3.9-.4 1.9-.4 2.9 0 .9.4 1.7 1.2 2.1 2.2.2.5.3 1.1.3 1.6s-.1 1.1-.4 1.6c.3-.5.4-1.1.4-1.6.3-.6.3-1.2.1-1.7z" fill="#000000" stroke-width="none" opacity="1"></path></g></g></g><g id="svga-group-eyesfront-left"><path id="SvgjsPath35356" d="M81 74.4c-6.9 0-12.5 5.6-12.5 12.5S74.1 99.4 81 99.4s12.5-5.6 12.5-12.5S87.9 74.4 81 74.4zm3.5 16.9c-2.2 1-5.4 1.3-7.7 1-2.3-.4-6-2.9-6-2.9s1.5-1 2.4-1.9 2.8-2.8 6.2-4.4c3.4-1.6 6.7.2 7.9 1.3s1.8 4 1.8 4-2.4 1.9-4.6 2.9z" fill="#ffffff" stroke-width="none" opacity="1"></path><path id="SvgjsPath35357" d="M89.8 85.6c-.1-.2-.5-.1-.5.1 0 .6.1 1.2.1 1.7-.4-1.5-1.2-3.3-2.7-4.3-2.6-1.8-8.2-2.2-12.5 2.3-3.6 3.9-5.6 4.3-6.4 4.1-.7-.1-1-.6-1-.6-.1-.2-.4-.4-.7-.2-.2.1-.4.4-.2.7 0 0 .5 1 1.7 1.2h.5c.8 0 1.6-.3 2.6-.9 0 .1.1.2.2.2.4.2.8.5 1.2.7-.8.3-1.6.9-1.9 2.1-.1.3.1.5.4.6h.1c.2 0 .4-.1.5-.4.5-1.7 2.1-1.6 2.1-1.6h.2c.2.1.5.2.7.3-.6.5-1.6 1.6-1.2 3 .1.2.3.4.5.4h.1c.3-.1.4-.4.3-.6-.4-1.2 1.3-2.3 1.3-2.3l.1-.1c1.4.5 2.9.8 4.5.8 2.8 0 5.8-1 8.7-3.8l.2-.2.1-.1c.1.5.1.9.1.9 0 .3.3.5.6.5.2 0 .4-.2.4-.5.6-.9.5-2.9-.1-4zm-1.5 2.6c-.2 0-.3.1-.5.4-5.8 5.6-12 3.5-16.2.7 1-.7 2.2-1.8 3.4-3.1 3.8-4.1 8.8-3.8 11.2-2.2 1.4.9 2.1 2.8 2.4 4.2-.1-.1-.2-.1-.3 0zm-1.9-5.7c-.1-.1-5.4-5-10.4-.6-4.5 4.1-6.5 5.7-6.6 5.7 0 0-.1.1-.2.1s-.1 0-.2-.1-.1-.3 0-.4c0 0 2-1.7 6.5-5.7 5.3-4.7 11 .5 11.1.6s.1.3 0 .4-.1.1-.2 0z" fill="#000000" stroke-width="none" opacity="1"></path></g></g></g><g id="svga-group-eyes-right-move" transform="matrix(1,0,0,1,0,0)"><g id="svga-group-eyes-right" transform="matrix(1,0,0,1,0,0)"><g id="svga-group-eyesback-right"></g><g id="svga-group-eyesiriswrapper-right"><g id="svga-group-eyesiriscontrol-right" transform="matrix(1,0,0,1,0,0)"><g id="svga-group-eyesiris-right" transform="matrix(1,0,0,1,0,0)"><path id="SvgjsPath35261" d="M123.6 89c1-1.8.1-4.4-1.6-5.6-1.8-1.2-4.3-.8-5.8 1.2-.8 1.1-1.1 2.5-.6 3.7.2.4.7 1.7 1.8 2.3 2.3 1.2 5 .6 6.2-1.6z" fill="#ffffff" stroke-width="none" opacity="1"></path><path id="SvgjsPath35262" d="M121 88.2c.2 0 .4.1.5.3.2-.3.4-.7.4-1.1 0-.4-.2-.8-.4-1.1-.2-.6-.6-1-1.2-1.2-.3-.1-.7-.1-1.1 0 .2.6-.1 1.4-.7 1.8-.3.2-.7.3-1 .2-.1.7.2 1.3.7 1.8.6.6 1.5.6 2.2.3-.2-.5 0-1 .6-1zm2.9-2.5c-.2-.6-.4-1.1-.7-1.6-.2-.2-.3-.5-.6-.7s-.4-.4-.7-.6c-.5-.3-1.1-.6-1.7-.6s-1.3-.1-1.9.1c-.6.2-1.2.5-1.7.9s-.9.9-1.2 1.5-.5 1.2-.6 1.8 0 1.3.3 1.9c.2.5.6 1.1 1 1.5.2.2.4.4.7.6.1.1.3.2.4.2.1 0 .2.1.2.1.1 0 .1.1.2.1 1.1.4 2.4.4 3.4 0 .5-.2 1-.5 1.5-.8.4-.4.8-.8 1-1.3-.1.2-.3.5-.5.7l-.6.6c-.4.3-.9.6-1.5.7-.5.1-1.1.1-1.6 0s-1-.3-1.5-.5c-.1 0-.1-.1-.2-.1s-.1-.1-.2-.1c-.1-.1-.2-.1-.3-.2-.2-.2-.3-.4-.5-.6-.1-.2-.2-.4-.4-.7s-.2-.5-.3-.7c-.2-.6-.2-1.2 0-1.8-.2-.2-.2-.5-.2-.8 0-1 1-1.8 2-1.6.2-.1.4-.2.7-.3.9-.4 1.9-.4 2.9 0 .9.4 1.7 1.2 2.1 2.2.2.5.3 1.1.3 1.6s-.1 1.1-.4 1.6c.3-.5.4-1.1.4-1.6.4-.4.3-1 .2-1.5z" fill="#000000" stroke-width="none" opacity="1"></path></g></g></g><g id="svga-group-eyesfront-right"><path id="SvgjsPath35358" d="M119 74.4c-6.9 0-12.5 5.6-12.5 12.5s5.6 12.5 12.5 12.5 12.5-5.6 12.5-12.5-5.6-12.5-12.5-12.5zm4 17.9c-2.3.4-5.5 0-7.7-1s-4.5-3.1-4.5-3.1.6-2.9 1.8-4 4.5-2.9 7.9-1.3 5.3 3.5 6.2 4.4 2.4 1.9 2.4 1.9-3.8 2.7-6.1 3.1z" fill="#ffffff" stroke-width="none" opacity="1"></path><path id="SvgjsPath35361" d="M133.6 88.8c-.2-.1-.5 0-.7.2 0 0-.3.5-1 .6-.8.1-2.8-.3-6.4-4.1-4.3-4.6-9.9-4.1-12.5-2.3-2.7 1.8-3.2 6.4-3.2 6.6 0 .3.2.5.5.6.3 0 .5-.2.6-.5 0 0 0-.4.1-.9l.1.1.2.2c2.9 2.8 5.9 3.8 8.7 3.8 1.5 0 3-.3 4.5-.8l.1.1s1.6 1.1 1.3 2.3c-.1.3.1.5.3.6h.1c.2 0 .4-.1.5-.4.4-1.4-.6-2.5-1.2-3 .2-.1.5-.2.7-.3.1 0 .1.1.2 0 .1 0 1.7 0 2.1 1.6.1.2.3.4.5.4h.1c.3-.1.4-.3.4-.6-.3-1.2-1.2-1.9-1.9-2.1.4-.2.8-.5 1.2-.7l.2-.2c1 .6 1.8.9 2.6.9h.5c1.2-.2 1.7-1.2 1.7-1.2.1-.5 0-.8-.3-.9zm-21.5-.2c-.3-.3-.4-.4-.5-.4h-.3c.4-1.4 1.1-3.2 2.4-4.2 2.3-1.6 7.3-1.9 11.2 2.2 1.2 1.3 2.4 2.4 3.4 3.1-4.3 2.7-10.5 4.8-16.2-.7zm1.3-6.1c.1-.1 5.4-5 10.4-.6 4.5 4.1 6.5 5.7 6.6 5.7 0 0 .1.1.2.1s.1 0 .2-.1.1-.3 0-.4c0 0-2-1.7-6.5-5.7-5.3-4.7-11 .5-11.1.6s-.1.3 0 .4c-.1.1.1.1.2 0z" fill="#000000" stroke-width="none" opacity="1"></path></g></g></g><g id="svga-group-facehighlight-single"></g><g id="svga-group-eyebrows-left-move" transform="matrix(1,0,0,1,0,0)"><g id="svga-group-eyebrows-left-rotate" transform="matrix(1,0,0,1,0,0)"><g id="svga-group-eyebrows-left" transform="matrix(1,0,0,1,0,0)"><path id="SvgjsPath35322" d="M67.91 80.49c.74-.79 7.31-7.74 9.7-8.5 2.59-.84 13.23 3.48 14.66 5.16.65.76.77 1.59.35 2.25-.3.48-.86.82-1.49.93-.28.05-.56.05-.85.01-.83-.13-2.77-1.44-5.88-3.6-1.62-1.13-3.15-2.19-3.81-2.51-1.38-.67-2.63-.83-3.44-.44-1.32.64-6.59 5.53-8.5 7.36-.2.19-.51.2-.71.01a.466.466 0 0 1-.03-.67z" fill="#000000" stroke-width="none" opacity="1"></path></g></g></g><g id="svga-group-eyebrows-right-move" transform="matrix(1,0,0,1,0,0)"><g id="svga-group-eyebrows-right-rotate" transform="matrix(1,0,0,1,0,0)"><g id="svga-group-eyebrows-right" transform="matrix(1,0,0,1,0,0)"><path id="SvgjsPath35323" d="M132.07 80.55c-.74-.79-7.27-7.78-9.66-8.55-2.59-.85-13.25 3.41-14.68 5.08-.65.76-.78 1.58-.36 2.25.3.49.86.82 1.49.93.28.05.56.06.85.02.83-.12 2.78-1.43 5.9-3.57 1.63-1.12 3.16-2.17 3.82-2.49 1.39-.66 2.64-.82 3.45-.42 1.32.65 6.56 5.56 8.47 7.4.2.19.51.2.71.02.18-.17.19-.47.01-.67z" fill="#000000" stroke-width="none" opacity="1"></path></g></g></g><g id="svga-group-nose-single-move" transform="matrix(1,0,0,1,0,0)"><g id="svga-group-nose-single" transform="matrix(1,0,0,1,0,0)"><path id="SvgjsPath35307" d="M107.1 102.7c-.4-2.2-.9-4.3-1.6-6.4-.2-.5-1-.3-.8.2.6 1.8 1.1 3.7 1.4 5.5.1.7 1.3 6.7-.6 6.1-.4-.1-.9-1-1.2-1.2-.3-.3-.6-.5-1-.5-1.1-.2-1.6.9-2.1 1.6-.6.9-1.6 1.6-2.5.7-.5-.5-.7-1.3-1.2-1.8-.7-.9-1.6-.7-2.5-.1-.4.2-.7.7-1.2.8-.9.1-.8-1-.8-1.5 0-1.1.1-2.2.3-3.3.3-1.8.7-3.6 1.3-5.3.2-.5-.7-.8-.8-.2-.6 1.7-1 3.5-1.3 5.3-.2 1.4-.6 3.3-.2 4.7.3 1 1.1 1.5 2.1 1 .5-.2.9-.8 1.5-1 1.1-.4 1.4 1.1 1.9 1.7.6.8 1.5 1.2 2.5.9.5-.1.9-.5 1.3-.9.4-.5.7-1.3 1.2-1.6 1-.6 1.6 1.3 2.5 1.6.9.4 1.6-.3 2-1.1.6-1.5 0-3.6-.2-5.2z" fill="#000000" stroke-width="none" opacity="1"></path><path id="SvgjsPath35308" d="M98.3 100.3c1.5-.4 3 .2 3.9 1.5.3.5 1.1 0 .8-.4-1.1-1.6-3-2.4-4.9-1.9-.6.1-.4 1 .2.8z" fill="#000000" stroke-width="none" opacity="1"></path></g></g><g id="svga-group-hair-front" transform="matrix(1,0,0,1,0,0)"><path id="SvgjsPath35404" d="M121.9 48s-4.4 9.3-17.2 12.5-30 7.9-33.8 13.7-4.4 11.9.3 19.8 4.9 14.8-2.3 18.3-4.1 11.4-.3 14c3.8 2.6-.6 7.3-1.8 9.9-1.2 2.6.9 5.5.9 5.5s-5-2.6-2.9-9.9c2-7.3-6.1-6.1-5.2-14.3s5.8-8.7 4.7-15.4c-1.2-6.7-2-15.4-6.7-25.6s.6-34.4 21.5-45.4 39.6-3.5 44.6 2.9c0 0 2 0 9.3 5.2 7.3 5.2 14 28.5 5.8 39.9 0 .1-9.9-6.3-16.9-31.1zM74.1 178.5c-.1-.1-.2-.1-.4-.1l.3-.3c2.9-3.2 7.6-13.4 8.3-14.8.1-2.1.2-4.5.1-6.7-.1-2.9-.9-6-1.8-8.5-7.1-1.8-15.3-2.8-24.2-1.6 1 2.7 2 4.7 2 4.7-4.9 4.5-2.1 16-2.1 16-4 4.3-4.2 12-2.1 15.7-1.2 3.2-4 7.2-1.6 15.7 2.4 8.7 8.1 9.3 8.1 9.3 3.8 3.8 11.5 6.9 11.5 6.9s-2.3-6.4-1-12 2.9-10.3 2.9-10.3l.7 10.3c5.1-6 3.7-20.9-.7-24.3z" fill="#ffffff" stroke-width="none" opacity="1"></path><path id="SvgjsPath35405" d="M133.6 38.2c-5.7-4.1-8.3-5.1-9.4-5.3-5.4-6.5-24.4-14-45.6-2.9C63.2 38.1 55.8 53.5 55 65.5c-.3 4.3.3 8.2 1.6 11.2 3.9 8.6 5.1 16.1 6.1 22.3.2 1.1.3 2.1.5 3.1.5 3.2-.4 4.7-1.7 6.9-1.1 1.9-2.6 4.2-3 8.3-.5 4.5 1.6 6.6 3.3 8.2 1.6 1.6 2.8 2.8 2 5.9-2.2 8 3.3 11 3.4 11 .2.1.3.1.5.1.3 0 .5-.1.8-.3.3-.3.3-.9.1-1.2 0 0-1.7-2.5-.8-4.6.2-.5.6-1.2 1.1-1.9 1.6-2.7 4.1-6.7.3-9.2-2-1.4-3.9-4.5-3.6-7.3.2-2.1 1.4-3.8 3.8-4.9 3-1.5 5-3.6 5.8-6.3 1.1-3.7.1-8.2-3.1-13.5-4.1-7-4.2-12.7-.3-18.8 3.8-5.9 24.4-11.1 33.2-13.3 9.5-2.4 14.5-8 16.6-11 7 23 16.3 29.3 16.7 29.5.4.3 1 .2 1.4-.3 8.7-12.1 1.3-35.9-6.1-41.2zm-54-6.5c7.6-4 14.9-5.5 21.3-5.5 8.5 0 15.4 2.7 19.4 5.6-18.8-5.7-38.8-1.6-53.8 10.7 3.3-4.1 7.7-7.9 13.1-10.8zM63.2 47.3c15.5-15.5 38.2-20.7 59-13.5-12.9 7-28.8 5-42.5 9.6-8.7 2.9-16.5 8-21.5 15.6 1.1-3.9 2.7-7.9 5-11.7zm-5.7 15.5C63.3 51 75.8 45 88.3 42.4c11.5-2.4 23.8-1.8 34.4-7.5-1.7 8.8-13.8 13.3-21.2 15.8-7.2 2.5-14.6 4.1-21.8 6.3-7.2 2.3-20.4 6.6-22.3 15.1-.4-2.6-.4-5.8.1-9.3zm5.9 47.2c1.3-2.2 2.6-4.3 1.9-8.2-.2-1-.3-2-.5-3.1-1-6.1-2.2-13.8-6.1-22.4-5-21.9 58.8-18.4 65-40 .9 15.2-17.8 20-29.9 21.8-10.1 1.5-21.5 3.2-28.1 11.9-2.4 3.2-4 7-3.9 11.1.2 5.3 3.4 9.6 5.7 14.2 1.7 3.3 3.2 7.5 2 11.2-1.3 4-5.3 5.7-7.6 8.9-.5.6-.9 1.3-1.2 2 .4-3.6 1.6-5.6 2.7-7.4zm41.2-50.7C88.9 63.2 74 67.6 70.2 73.4c-4.3 6.6-4.2 13.3.3 20.8 2.8 4.7 3.8 8.8 2.9 11.9-.7 2.1-2.2 3.8-4.8 5-3.8 1.8-4.8 4.6-4.9 6.5-.3 3.8 2 7.5 4.5 9.2 2 1.4.9 3.6-.9 6.6-.5.8-.9 1.5-1.2 2.1-.2.4-.3.9-.4 1.3-.3-1.3-.4-2.9.2-5 1.2-4.2-.8-6.1-2.5-7.8-.8-.8-1.5-1.5-2.1-2.5-1.5-6.1 7.8-9.7 9.4-14.9 1.1-3.6.1-7.5-1.4-10.8-3-6.8-8.1-12.6-5.3-20.4 2.5-7 9.3-11.3 16-13.5 10.8-3.4 22.8-2.5 33.1-7.9 3-1.6 5.6-3.7 7.7-6.2-1.2 2.1-5.8 8.9-16.2 11.5zm34 18.1c-2.4-2.1-10-10-15.7-30-.1-.4-.5-.7-.9-.7-.2 0-.3 0-.5.1 1.8-2.6 3-5.5 3.3-8.7 1.8 13.6 6.7 26.3 14.7 37.5-.2.7-.5 1.3-.9 1.8zm1.5-3c-6.8-9.8-11.3-20.7-13.4-32.3 1.9 3.3 4.5 6.3 6.8 9.4 4.7 6.4 7.1 13.6 7.1 21.4-.1.5-.3 1-.5 1.5zm-2.9-19.7c-3.4-5.9-8.8-10.6-11.1-16.9-.1-.5-.1-1-.2-1.6 0-.3-.2-.5-.5-.6 0-.1 0-.2-.1-.3 1.3.6 3.6 1.9 7.1 4.5 4.9 3.6 9.9 16.7 9.1 27.9-.6-4.6-2-8.9-4.3-13zM75 146.6l-.1.2c-.6-.1-1.2-.2-1.7-.3.2.2 0 .4.3.6-4.2 3.1-7 7.5-8.2 12.5-.6-.6-1.2-1.2-1.7-1.8.5-4.8 3.6-9 7.6-11.5-.6-.1-1.3-.1-2-.2-3.4 2.5-6 6.1-6.8 10.3-.2-.4-.5-.7-.7-1.1 0-.1.1-.2.1-.3-.3-3.2.5-6.3 1.9-9.1h-1.4c-.9 2.1-1.8 4.3-1.8 6.7-.2-.7-.4-1.4-.5-2.2 0-.2-.1-.3-.2-.4-.2-1.3-.1-2.7 0-4-.4 0-.8.1-1.2.1 0 .7-.2 1.4-.1 2.2-.3-.6-.6-1.3-.8-2.1l-2.1.3c.7 1.9 1.4 3.5 1.9 4.4-4 4.6-2.4 13.6-2 15.9-2.3 2.7-3.5 6.7-3.3 10.9.1 2 .5 3.7 1.2 5.1-.1.3-.3.7-.4 1-1.3 3.1-3.2 7.3-1 14.9 2.2 8.1 7.2 9.7 8.6 10 4 3.8 11.3 6.8 11.6 6.9.1.1.2.1.4.1s.5-.1.7-.3c.3-.3.4-.7.2-1.1 0-.1-2.2-6.2-1-11.5.4-1.8.8-3.5 1.3-5l.3 4.8c0 .4.3.8.7.9.4.1.8 0 1.1-.3 3.3-4 3.9-10.8 3.3-15.9-.5-4.3-1.9-7.8-3.7-9.5 2-2.5 4.7-7.2 6.4-10.6.9-2.7 1.4-5.7 1.4-5.7.2-1.8.3-3.5.2-5.1l-.1-1.3c-.2-1.5-.4-3-.8-4.4l-.3-1.2c-.1-.5-.4-1.1-.6-1.5l-1.2-.3c.9 2.6 1.1 5.3 1.3 8.1-.2.2-.1.5 0 .7.1 2.1 0 4.2-.5 6.3-.2.4-.5 1.1-1 2.1.3-3.8-.3-7.4-1.3-10.9l.1-.1c.3-.4 0-.8-.4-.9-.7-2-1-4.1-2-6.1-.6-.1-1.2-.2-1.7-.3m4.1 14.7-5.7 6.6c-.4-4.7 2-8.8 4.6-12.7.6 2 1 4 1.1 6.1zm-9.3 10.8c.1.1.2.1.3.2.1.1.3.1.4.1.4 1.6.8 3.2 1 4.8-1 .1-2.2.2-3.4.4v-.1c-.8-1.2-1.1-2.7-.7-4.1v-.1c.1-.1.2-.1.2-.2.7-.3 1.4-.6 2.2-1zm-.5-7c1.1 1.2 2.1 2.5 2.8 3.9.1.1.1.2.2.2-.8.5-1.6 1-2.4 1.4-1.4-1.3-1.1-3.6-.6-5.5zm2.2 6.1c.5-.3 1-.6 1.4-.9.8 1.5 1.4 3.1 1.5 4.8 0 .1.1.2.1.3-.4.6-.9 1.2-1.2 1.6h-.5c-.3-1.9-.7-3.8-1.3-5.8 0 .1 0 .1 0 0zm4.2-21.1c.4.7.8 1.4 1.1 2.2.1.2.2.3.4.4.1.4.3.7.4 1.1-2.8 4-5.3 8.2-5.4 13.1-.5-.8-1.2-1.5-1.8-2.2v-.3c-.4-2.5-.4-5.1.3-7.6.6-2.2 2-6.2 4.7-6.5.1-.1.2-.1.3-.2zm-9.4 10.1c1.1-5 3.8-9.3 7.9-12.3.3.4.6.7.8 1.1-5.4.9-6.4 9.2-6 14.1-.8-.8-1.7-1.6-2.5-2.4-.1-.2-.2-.3-.3-.4.1 0 .1 0 .1-.1zm-1 6.3c0-1.6.4-3.1.9-4.5.7.7 1.4 1.4 2.1 2-.6 2.4-1.1 5.3.5 7.2-.6.3-1.2.6-1.8.8-1.7-.7-1.7-4.2-1.7-5.5zm1.5 11.3c-.9.2-1.8.3-2.7.5-.6-1.1-.7-2.3-.2-3.5v-.2c.7-.3 1.3-.6 2-.9-.1 1.5.2 2.9.9 4.1zm-1.6-16.7c-.9 2.4-1.4 4.9-1.1 7.5.2 1.4.4 3.1 1.4 4.1-.4.2-.9.4-1.3.6 0-.1-.1-.1-.2-.2-.2-.1-.5-.2-.7-.4-3.8-2.5-1.5-10.2.1-13.5.6.6 1.2 1.3 1.8 1.9zm-2.3 17.4c-2.9.6-5.6 1.3-6.9 1.6 1.7-2.2 4-3.7 6.6-4.9-.3 1.2-.2 2.3.3 3.3zm-2.4-23c.5.8 1.1 1.6 1.7 2.4 0 .2.1.3.3.4l-.1.1c-1.3 2.6-2.8 7.2-2.3 10.9-2.6-4.5-2.4-9.5.4-13.8zm-1.5-3.6c.2.9.5 1.7.9 2.5-2.9 3.9-3.6 8.6-2 13-.2-.4-.5-.9-.6-1.3-.6-2.5-1.9-10.7 1.7-14.2zM56.8 168c1.4 2.4 3.3 4.4 5.8 5.7.1 0 .2.1.2.1-1 .5-2.1 1-3.1 1.5 0-.1-.1-.2-.2-.3-2-1.4-3.2-3.5-3.6-5.9.3-.3.6-.7.9-1.1zm-1.7 2.9c.6 2.1 1.9 3.8 3.7 5.1-.3.2-.6.5-1 .7-1.6-1.2-2.7-2.9-2.9-4.9v-.1c0-.3.1-.5.2-.8zm-.9 3.2c.5 1.3 1.4 2.5 2.6 3.4-.9.8-1.7 1.6-2.4 2.7-.2-.8-.4-1.8-.4-2.7-.1-1.1 0-2.2.2-3.4zm.4 10.4c.3-.7.6-1.4.8-2 .3-.1.8-.3 1.4-.5-2.1 4.7-3.3 9.5-3.5 14.6-1.3-6 .1-9.3 1.3-12.1zm-.1 16.1c-.3-6.6.9-12.9 3.7-18.9v-.1c.1 0 .2 0 .3-.1-1.3 5.7-2.4 11.6-2.6 17.5-.1 1.8.1 3.5.6 5-.7-.9-1.4-2-2-3.4zm7 6.4c-.2-.2-.4-.3-.6-.3h-.1c0-.1-.1-.2-.3-.3-7-3.3-2-19.5-.7-25.2.5-.1.9-.2 1.4-.3 0 .1 0 .2.1.3 3.5 7.7-1.9 19.4 1.6 27-.5-.4-1-.8-1.4-1.2zm4.3 3.2c-6.7-7 .5-20.9-3.4-29.6.9-.2 1.8-.3 2.7-.5 7.1 9.3-4.4 23.8 5.5 31.9.1.3.1.6.2.9-1.3-.7-3.2-1.6-5-2.7zm7.9-18.7c-.2.1-.3.3-.4.5 0 0-1.6 4.8-2.9 10.4-.6 2.6-.5 5.3-.1 7.6-7.2-7.7 2.1-21.1-3.8-30.1.9-.1 1.7-.3 2.5-.4 0 .1.1.2.2.3 3.3 3.1 4.9 7.3 4.5 11.7zm2 7.8-.2-3.4c.1-.1.2-.1.2-.3.8-2 1.3-4.1 1.4-6.1.2 3.7-.3 7.2-1.4 9.8zm-.5-6.4v-.6c0-.2-.1-.5-.3-.6.5-4.6-1.1-9-4.5-12.3 1.6-.2 2.8-.3 3.3-.2.3.2.5.5.8.9 1.6 4 1.9 8.4.7 12.8zm.3-18.9c-.3-1.6-.8-3.1-1.7-4.5v-.1l1.8-2.1c.8 1.1 1.3 2.3 1.6 3.6-.5 1-1.1 2.1-1.7 3.1zm3.1-5.6c-.2.3-.3.6-.5.9-.4-1.1-.9-2.1-1.6-3 .9-1 1.8-2.1 2.7-3.1 0 1.7-.2 3.4-.6 5.2z" fill="#000000" stroke-width="none" opacity="1"></path></g><g id="svga-group-glasses-single-move" transform="matrix(1,0,0,1,0,0)"><g id="svga-group-glasses-single" transform="matrix(1,0,0,1,0,0)"></g></g></g></g></g><rect id="svga-credit-rect" width="200" height="15" x="0" y="185" fill="#ecf0f1" opacity="0.5" style="display: none;"></rect><text id="svga-credit-text" font-family="Avenir Next, Roboto, Helvetica, Arial, sans-serif" font-size="10px" text-anchor="start" font-weight="400" size="10px" anchor="start" weight="400" fill="#333333" x="33.402061462402344" y="182.71133995056152" style="display: none;"><tspan id="SvgjsTspan34776" dy="13" x="33.402061462402344">Created on AvatarMaker.com</tspan></text></g></svg>