<svg xmlns="http://www.w3.org/2000/svg" version="1.1" width="600px" height="600px" viewBox="0 0 200 200" style="overflow:hidden!important;"><defs id="SvgjsDefs36815"></defs><g id="svga-group-wrapper"><g id="svga-group-backs-single"></g><g id="svga-group-humanwrap-move" transform="matrix(1,0,0,1,0,0)"><g id="svga-group-humanwrap" transform="matrix(1,0,0,1,0,0)"><g id="svga-group-hair-back-move" transform="matrix(1,0,0,1,0,0)"><g id="svga-group-hair-back" transform="matrix(1,0,0,1,0,0)"><path id="SvgjsPath37572" d="M64.5 66.2s-11.2 30.1-3.3 43.4c0 0-5.5 7.3 0 16.7 0 0-2.6 9.4 1.2 15.2 0 0-1.7 9.7 4.5 13.9 0 0-4.1 1.8-4.3 7.6-.2 5.8 3.8 15.4 5 17s-1.7-14.4-.2-11c1.4 3.4 3.8 11.2 3.8 9.1s-.7-12 0-11 2.4 7.3 2.9 5.5 2.9-11.5-1.2-16.7c0 0 4.1-6.5 1.2-12 0 0 6-7.9 1.2-15.9 0 0 8.1-40.5 1.9-47.3S64.5 66.2 64.5 66.2zm64 0s-11.2 30.1-3.3 43.4c0 0-5.5 7.3 0 16.7 0 0-2.6 9.4 1.2 15.2 0 0-1.7 9.7 4.5 13.9 0 0-4.1 1.8-4.3 7.6-.2 5.8 3.8 15.4 5 17 1.2 1.6-1.7-14.4-.2-11 1.4 3.4 3.8 11.2 3.8 9.1s-.7-12 0-11 2.4 7.3 2.9 5.5 2.9-11.5-1.2-16.7c0 0 4.1-6.5 1.2-12 0 0 6-7.9 1.2-15.9 0 0 8.1-40.5 1.9-47.3-6.3-7-12.7-14.5-12.7-14.5z" fill="#ffffff" stroke-width="none" opacity="1"></path><path id="SvgjsPath37573" d="M77.9 79.9c-6.1-6.7-12.6-14.3-12.6-14.4-.2-.3-.6-.4-.9-.3-.3.1-.6.3-.8.6-.5 1.2-11 29.9-3.6 43.7-1.2 1.9-4.5 8.6.1 16.9-.5 1.9-2.1 9.8 1.2 15.2-.2 1.8-.9 9.3 3.9 13.6-1.4 1.1-3.4 3.4-3.6 7.6-.2 6 3.8 15.9 5.2 17.7.3.4.6.5.9.5.1 0 .3 0 .4-.1.9-.4 1-1.1.4-5.9 1.5 4 1.7 4.6 2.7 4.4.3-.1.9-.3.9-1.3 0-.6-.1-1.8-.1-3.2 0-.9-.1-2.1-.1-3.2.6 1.6 1.1 2.3 1.9 2.2.3 0 .9-.1 1.2-1.1.9-3.4 2.5-11.8-1-17 .9-1.8 3.3-7 1.2-11.9 1.3-1.9 5.2-8.9 1.1-16.2 1.1-5.6 7.8-41 1.6-47.8zm.6 12.8c-2 .5-3.8 1.5-5.2 2.9-.1-.3-.2-.6-.2-.8 1.1-3 2.9-5.6 5.3-7.7 0 1.7.1 3.6.1 5.6zm-1.8-11.1c.6.9 1.1 2.3 1.4 4.1-2.5 2-4.4 4.5-5.7 7.5-.3-.8-.7-1.7-1.1-2.5.2-3.7 2.1-7 5.4-9.1-.1.1-.1 0 0 0zm-1.7 42c-.3 1.5-.5 2.9-.8 4v.2c-.3.5-.7.9-1.1 1.3 1-3.7 0-7.6-3-10.4-.6-.5-1.5.3-.9.9 3.1 2.9 3.9 7.1 2 10.9-.1.1-.1.2-.1.3-.6.5-1.2 1-1.7 1.5 1-3.8 1.5-7.9-1.6-10.7 0-.1-.1-.1-.2-.1.7-2.2 2.1-4 4.1-5.1 2.1 2 3.2 4.5 3.3 7.2zm-2.9-9.6c1.6.8 2.9 2.1 3.8 3.8l.1.1c-.1.8-.2 1.5-.4 2.2-.6-1.8-1.6-3.4-3-4.7-.1-.1-.2-.1-.3-.2-.1-.4-.1-.8-.2-1.2zm-2.6 31.5c.2-2.7-.3-5.3-1.3-7.9.1-.1.1-.2.1-.4 0-1.4.5-2.5 1.2-3.4 1.8 3.8 1.7 8 0 11.7zm.3 2.5c2 1.3 3.1 3.4 3 5.8-.2.4-.3.8-.5 1-1-.6-1.8-1.6-2.1-2.8 0-.2-.1-.2-.2-.3-.3-1-.6-2-1-2.9.1 0 .2-.1.2-.2.1-.2.3-.4.4-.6.1-.1.1-.1.2 0zm-4.6-5.8c-1.7-3.2-1.3-7 1-9.7.1 0 .3 0 .4-.1.3 0 .5-.2.5-.6-.3-2.9-.2-5.8.5-8.6 3.1 3.7.3 9.8-.8 14 0 .2 0 .4.1.5 0 .1 0 .1.1.2 1.2 2.9 1.6 6 1.1 9-.8-1.5-1.8-2.9-2.9-4.2.1-.1.1-.3 0-.5zm.5-12.3c-.1-.1-.2-.3-.3-.4-1.9-3.6-2-7.7 0-11.5.4 1.4.7 2.9.8 4.4 0 .2.1.3.2.4-.6 2.4-.8 4.8-.7 7.1zm1.4-10c-.1-.5-.2-.9-.3-1.4.2-.1.4-.3.4-.5.3-2.1 1.6-3.9 3.4-4.9.2.8.3 1.7.4 2.5-1.7 1-3 2.5-3.9 4.3zm-.8-3.3c-.2-.6-.4-1.2-.7-1.8.1-.1.1-.2.1-.3-.1-1.8.6-3.4 2-4.7.6-.5-.3-1.4-.9-.9-1.1 1-1.9 2.3-2.2 3.7-.3-.5-.5-1-.8-1.4 0-.1 0-.1.1-.2.2-2.5 1.7-4.6 3.8-5.8 1.2 2 2.1 4.2 2.8 6.6-2.1 1-3.6 2.7-4.2 4.8zM63.6 102c-1.5 1.4-2.4 3.1-2.7 5-.2-.6-.5-1.3-.6-2-.3-2.2.5-4.4 2.3-5.8 1.3 1.2 2.4 2.4 3.5 3.8.1.1.1.2.2.3.2.3.5.6.7 1-2.1 1.2-3.6 3.2-4.1 5.6-.2-.3-.5-.7-.7-1-.1-2.2.7-4.3 2.4-5.8.5-.8-.4-1.7-1-1.1zm-2.3-6c-.8-3.6-.5-9.9 3.4-11.8 1.1 1 2.2 2.2 3.1 3.4-2.8 2.8-4.4 6.5-4.4 10.5-.7-.6-1.4-1.2-2.2-1.7.1-.1.1-.2.1-.4zm7.2-7.3c.7 1.1 1.4 2.2 2 3.4-2.1 2.6-4.2 5.4-4.5 8.7-.4-.5-.9-1-1.4-1.5-.3-4 1.1-7.7 3.9-10.6zm-1.3 13.7c-.3-3.5 1.7-6.4 3.8-9 .8 2 1.5 4.1 1.8 6.3-1.7 1.3-3.1 3-4.1 5-.4-.8-.9-1.6-1.5-2.3zm8.7-21.7c-3 1.9-5 4.9-5.7 8.3-.5-.9-1.1-1.7-1.8-2.5v-.1c-.3-3.9.7-7.6 2.8-10.9 1.5 1.6 3.1 3.4 4.7 5.2zm-5.6-6.3c-2.1 3.2-3.2 6.7-3.2 10.5-1-1.1-2-2.1-3.2-3 .1-.1.2-.3.1-.5-.6-4.1.3-8 2.4-11.4 1.1 1.3 2.5 2.8 3.9 4.4zm-5.5-6.3c.2.3.5.6.8.9-2.4 3.6-3.4 7.7-2.9 12-.4-.3-.9-.6-1.3-.9 1.3-5.2 2.7-9.7 3.4-12zm-3.6 13.4c.9.6 1.7 1.2 2.5 1.9-3.8 2.2-4.5 8.1-3.8 12.2-.2-.1-.4-.2-.5-.3.1-4.7.8-9.5 1.8-13.8zm-1.6 19.7c-.2-1.5-.2-3-.3-4.5.8.5 1.6 1.1 2.3 1.7-.9.8-1.6 1.8-2 2.8zm.1 16.6c0-3.9 1.6-6.6 2.1-7.4.3.5.7 1 1 1.5-1.5 1.7-2.6 3.7-3.1 5.9zm3.8-4.8c.6 1.1 1.1 2.3 1.5 3.5-.1 0-.2.1-.3.2-1.8 3.2-2.4 6.6-1.6 9.9-.4-.5-.9-.9-1.3-1.3-.5-.9-.9-1.7-1.1-2.5-.5-3.5.5-7 2.8-9.8zm-1.6 14.3c.9.9 1.7 1.8 2.4 2.9.3.5.6 1 1 1.5-2.1 2.6-2.9 5.9-2 9-.2-.1-.3-.3-.5-.4-2.5-4.5-1.3-10.9-.9-13zm1.3 15.1c.7.8 1.4 1.5 2 2.4-.8 1.4-1.3 2.9-1.5 4.4-.7-2.7-.6-5.5-.5-6.8zm2.8 3.5c.8 1.2 1.4 2.4 1.9 3.8-1 1.1-1.6 2.5-1.6 4-.4-.4-.8-.8-1.1-1.3-.5-2.3-.2-4.5.8-6.5zm.1 22.1c-.3.6-.2 2.1.3 6 .1.5.1 1.1.2 1.7-1.5-3.6-3.2-9-3-12.7.2-5 3.6-6.6 3.7-6.7.1.1.2.1.4.2-2.5 2.7-2.3 7.7-1.6 11.5zm1.3-.5h-.1c-.7-3.6-.8-8.3 1.7-10.7.4.1.8.1 1.2.1-2 3.3-2.9 6.9-2.8 10.6zm3.3-1.4c-.8.3-1 .6-.7 7-.3-1-.7-1.9-1-2.8v-.3c-.7-3.9-.2-7.7 1.6-11.2.3 2.4.3 4.9.1 7.3zm-2.9-11c0-.1-.1-.3-.2-.4-.2-1.3.1-2.6.9-3.7.2.5.3 1 .5 1.5 0 .1.1.2.2.3.4 1.2 1.2 2.1 2.2 2.8-1.3.2-2.5 0-3.6-.5zm5.7 15.2c-.2-.4-.3-.8-.4-1.1-.5-1.4-.8-2.2-1.1-2.7 0 0-.1 0-.1-.1.3-3.1.2-6.2-.3-9.3 0-.1-.1-.2-.2-.3.3 0 .6-.1.8-.2 2.7 3.9 2 10.1 1.3 13.7zm.2-19.3c-.5-1.5-1.4-2.7-2.6-3.7.8-.7 1.6-1.5 2.4-2.3.8 2.1.6 4.2.2 6zm.2-8.9c-.4.6-.7 1-.7 1.1-.1.1-.1.2-.1.3-.8.9-1.6 1.8-2.5 2.6 2-4.2 2-9-.1-13.3.5-.4 1-.9 1.5-1.3.2 0 .3-.1.4-.3l.1-.1c3.2 2.2 2.6 7.5 1.4 11zm2.1-6.6c-.2-2.1-1-4-2.6-5.2.4-.4.9-.8 1.2-1.2 1.3 2.2 1.6 4.4 1.4 6.4zm.3-19.5c-1.1-1.5-2.7-2.7-4.4-3.5 0-.1 0-.2-.1-.3 0-.2 0-.4-.1-.5-.2-.6-.3-1.3-.5-1.9 2.3.6 4.2 2 5.5 4-.2.7-.3 1.5-.4 2.2zm.5-4c-1.6-1.9-3.7-3.2-6.2-3.7h-.1c-.3-.8-.7-1.6-1.1-2.4.1-.1.1-.2.2-.4 2.9.4 5.5 1.7 7.5 3.9 0 .9-.1 1.8-.3 2.6zm.6-4.1c-2-1.8-4.4-3-7.1-3.4.6-.9 1.2-1.7 1.9-2.5.1.1.2.2.3.2 2 .6 3.8 1.9 5.1 3.7-.1.6-.2 1.3-.2 2zm.4-3.7c-1.3-1.4-2.8-2.4-4.7-3.1.7-.6 1.4-1.1 2.1-1.5 1.1.5 2 1.2 2.8 2-.1.8-.2 1.7-.2 2.6zm.3-4.2c-.5-.4-1-.8-1.5-1.1.5-.2 1.1-.5 1.7-.7-.1.6-.1 1.2-.2 1.8zm.2-3.2c-1.6.5-3 1.1-4.4 2-.1-.6-.2-1.2-.4-1.8l.1-.1c1.3-1.4 2.9-2.4 4.7-2.9.1.9.1 1.9 0 2.8zm63.6-16.9c-6.1-6.7-12.6-14.3-12.6-14.4-.2-.3-.6-.4-.9-.3-.3.1-.6.3-.8.6-.5 1.2-11 29.9-3.6 43.7-1.2 1.9-4.5 8.6.1 16.9-.5 1.9-2.1 9.8 1.2 15.2-.2 1.8-.9 9.3 3.9 13.6-1.4 1.1-3.4 3.4-3.6 7.6-.2 6 3.8 15.8 5.2 17.6.3.4.6.5.9.5.1 0 .3 0 .4-.1.9-.4 1-1.1.4-5.9 1.4 4 1.7 4.6 2.7 4.4.3 0 .9-.3.9-1.3 0-.6-.1-1.8-.1-3.2 0-.9-.1-2.1-.1-3.2.6 1.6 1.1 2.3 1.9 2.2.3 0 .9-.1 1.1-1.1.9-3.4 2.5-11.8-1-17 .9-1.8 3.3-7 1.2-11.9 1.3-1.9 5.2-8.9 1.1-16.2.7-3.6 3.8-19.6 4.1-32.4v-.1c.4-6.8-.2-12.8-2.4-15.2zm.1 5.3c.2.9.3 1.9.4 3-1 .3-1.9.7-2.8 1.2.6-1.6 1.4-2.9 2.4-4.2zm-1.6-4c.5.5.9 1.4 1.2 2.4-1.7 2-2.9 4.2-3.7 6.7-.3.2-.6.3-.8.5-.5-.9-1.1-1.8-1.7-2.6.1-.1.1-.2.1-.3.2-3 2-5.7 4.8-6.9 0 .1 0 .2.1.2zm-1.1-1.2c-2.7 1.4-4.5 3.9-5 6.9-.7-.9-1.5-1.7-2.4-2.5 0-.1.1-.1.1-.2.4-3 1.9-5.7 4.3-7.4 1 1 2 2.1 3 3.2zm-3.8-4.2c-2.5 1.9-4.1 4.6-4.6 7.7-.9-.7-1.8-1.4-2.8-2 .8-3.3 2.4-6.3 4.6-8.8.9.9 1.9 2 2.8 3.1zm-6.6-7.7c.7.9 1.8 2.1 3.1 3.5-2.4 2.6-4.1 5.7-4.9 9.1-.5-.3-1-.5-1.5-.8 1.1-5.1 2.5-9.5 3.3-11.8zm-3.7 13.2c4.6 2.3 8.3 5.8 10.8 10.3-.6.5-1.1 1-1.7 1.5-2.4-3.5-6-5.8-10.2-6.5.4-1.9.8-3.6 1.1-5.3zm9 37.5c.4-.4.8-.7 1.2-1 .3-.2.7-.6 1.3-1h.2c1.2 1.1 2.1 2.5 2.7 4.1-.4 2.6-.9 5-1.2 6.8v.2c-.3.5-.7.9-1.1 1.3.9-3.7-.1-7.6-3.1-10.4zm-.7 26.7c.2-2.7-.3-5.3-1.3-7.9.1-.1.1-.2.1-.4 0-1.4.5-2.5 1.2-3.4 1.8 3.8 1.7 8 0 11.7zm.3 2.5c2 1.3 3.1 3.4 3 5.8-.2.4-.3.8-.5 1-1-.6-1.8-1.6-2.1-2.8 0-.2-.1-.2-.2-.3-.3-1-.6-2-1-2.9.1 0 .2-.1.2-.2.1-.2.3-.4.4-.6.1-.1.1-.1.2 0zm-4.6-5.8c-1.7-3.2-1.3-7 1-9.7.1 0 .3 0 .4-.1.3 0 .5-.2.5-.6-.3-2.9-.2-5.8.5-8.6 3.1 3.7.3 9.8-.8 14-.1.2 0 .4.1.5v.2c1.2 2.9 1.6 6 1.1 9-.8-1.5-1.8-2.9-2.9-4.2.2-.1.2-.3.1-.5zm.5-12.3c-.1-.1-.2-.3-.3-.4-1.9-3.6-2-7.7 0-11.5.4 1.4.7 2.9.8 4.4 0 .2.1.3.2.4-.5 2.4-.8 4.8-.7 7.1zm3.8 2.5c1-3.8 1.5-7.9-1.6-10.7.3-.7.8-1.4 1.4-2 3.1 2.9 3.9 7.1 2 10.9 0 .1-.1.2-.1.3-.5.5-1.1 1-1.7 1.5zm2.9-19.7c0-.8-1.3-.8-1.2 0 0 1.1.3 2.1.7 3.1-.2.1-.4.3-.5.4-1.4 1.1-3.1 2.5-4.2 4.1-.1-1-.4-1.9-.6-2.8 1.5-3.2 4-5.8 7-7.5.6 1.3.9 2.7 1 4.1-.6.2-1.2.6-1.7 1-.3-.8-.5-1.5-.5-2.4zm-6.4 3.2c-.1-.4-.2-.7-.4-1.1.1-.1.1-.2.1-.4-.1-1.8.6-3.4 2-4.6.6-.5-.3-1.4-.9-.9-1.1 1-1.9 2.3-2.2 3.7-.3-.6-.6-1.1-1-1.7 0 0 0-.1.1-.1.5-2.1 2.1-7.5 4.8-7.4.2 0 .3 0 .4-.1 1.1 1.2 2.1 2.4 3 3.8 0 .1 0 .2.1.3.4.5.7 1 1 1.5-2.9 1.7-5.3 4.1-7 7zm-3.9-8.3s.1 0 0 0c.8-2.6 2.3-4.9 4.5-6.5.5.4.9.8 1.3 1.2-2.8.5-4.4 4.6-5.1 7.4-.2-.3-.4-.6-.7-.9v-1.2zm-1.1-.7c-.3-.8-.6-1.6-.8-2.4.5-2.2 1.6-4.2 3.3-5.8.7.5 1.5 1 2.1 1.5-.6.5-1.1 1-1.6 1.6-.1 0-.2 0-.4.2-1.4 1.3-2.3 3.1-2.6 4.9zm6.1-7.1c.2-.4.4-.7.6-1.1.2.9.5 1.7.9 2.5-.5-.5-1-.9-1.5-1.4zm1.5-2.3c0-.1-.1-.2-.1-.2.2-.2.3-.5.5-.7 1.9 2.2 4 4.1 6.4 5.7h.1c-.1.1-.1.2-.1.3-.1 1.1-.5 2.1-1 3.1-.3-.2-.7-.5-1-.7l-.1-.1c-2.5-1.8-4-4.4-4.7-7.4zm1.2-1.9c.6-.7 1.2-1.5 1.9-2.1 2.2 1 4 2.8 4.9 5.1 0 .1.1.2.2.3-.3.7-.7 1.5-.9 2.2-2.3-1.6-4.3-3.4-6.1-5.5zm-9.7-7.8c3.8.7 7.1 2.8 9.3 6 0 .1.1.1.1.1-.8.8-1.4 1.7-2 2.7-2-2.6-4.7-4.5-7.9-5.2.1-1.3.3-2.5.5-3.6zm-.6 4.8c3 .8 5.5 2.5 7.3 5.1-.2.4-.5.9-.7 1.4-2-1.6-4.3-2.9-6.7-4 0-.8 0-1.7.1-2.5zm.2 9.4c-.3-1.8-.4-3.7-.4-5.6 1.1.5 2.1 1 3.1 1.6-1.2 1.2-2.1 2.5-2.7 4zm0 15.8c0-3.9 1.6-6.6 2.1-7.4.4.5.7 1 1 1.5-1.5 1.7-2.6 3.7-3.1 5.9zm3.8-4.8c.6 1.1 1.1 2.3 1.5 3.5-.1 0-.2.1-.3.2-1.8 3.2-2.4 6.6-1.6 9.9-.4-.5-.8-.9-1.3-1.3-.5-.9-.9-1.7-1.1-2.5-.5-3.5.5-7 2.8-9.8zm-1.6 14.3c.8.9 1.7 1.8 2.4 2.9l.9 1.5c-2.1 2.6-2.8 5.9-2 9-.2-.1-.3-.3-.5-.4-2.3-4.5-1.2-10.9-.8-13zm1.3 15.1c.7.8 1.4 1.5 2 2.4-.8 1.4-1.3 2.9-1.5 4.4-.7-2.7-.6-5.5-.5-6.8zm2.9 3.5c.8 1.2 1.4 2.4 1.9 3.8-1 1.1-1.6 2.5-1.6 4-.4-.4-.8-.8-1.1-1.3-.6-2.3-.3-4.5.8-6.5zm0 22.1c-.3.6-.2 2.1.3 6 .1.5.1 1.1.2 1.7-1.5-3.6-3.2-9-3-12.6.2-5 3.6-6.6 3.7-6.7.1.1.2.1.4.2-2.5 2.6-2.3 7.6-1.6 11.4zm1.3-.5h-.1c-.7-3.6-.8-8.3 1.7-10.7.4.1.8.1 1.2.1-2 3.3-2.9 6.9-2.8 10.6zm3.3-1.4c-.8.3-1 .6-.7 7-.3-1-.7-1.9-1-2.8v-.3c-.7-3.9-.2-7.7 1.6-11.2.3 2.4.4 4.9.1 7.3zm-2.9-11c0-.1-.1-.3-.2-.4-.2-1.3.1-2.6.9-3.7.2.5.3 1 .5 1.5 0 .1.1.2.2.3.4 1.2 1.2 2.1 2.2 2.8-1.2.2-2.4 0-3.6-.5zm5.7 15.2c-.2-.4-.3-.8-.4-1.1-.5-1.4-.8-2.2-1.1-2.7l-.1-.1c.3-3.1.2-6.2-.3-9.3 0-.1-.1-.2-.2-.3.3 0 .6-.1.8-.2 2.7 3.9 2 10.1 1.3 13.7zm.2-19.3c-.5-1.5-1.4-2.7-2.6-3.7.8-.7 1.6-1.5 2.4-2.3.8 2.1.6 4.2.2 6zm.3-8.9c-.4.6-.7 1-.7 1.1-.1.1-.1.2-.1.3-.8.9-1.6 1.8-2.5 2.6 2-4.2 2-9-.1-13.3.5-.4 1-.9 1.5-1.3.2 0 .3-.1.4-.3l.1-.1c3.1 2.2 2.5 7.5 1.4 11zm2-6.6c-.2-2.1-.9-4-2.5-5.2.4-.4.9-.8 1.2-1.2 1.2 2.2 1.5 4.4 1.3 6.4zm-.1-16.9c-.5-1-1.2-1.9-2.1-2.7.9-.6 1.9-1 2.6-1-.2 1.3-.4 2.5-.5 3.7zm.7-4.8h-.8c-.2-2.3-1-4.4-2.2-6.3v-.1c-.2-.4-.5-.8-.8-1.1 2 1.3 3.4 3.2 4.1 5.3-.1.7-.2 1.4-.3 2.2zm.6-4.6c-.1-.2-.2-.4-.3-.5l.2-.2c.1-.2.2-.4.3-.5-.1.3-.1.7-.2 1.2zm.6-5.4c-.3 0-.5.2-.6.6-.1 1.2-.5 2.2-1.1 3.2-.2-.3-.5-.6-.8-.9.7-1.1 1.1-2.3 1.2-3.6.1-.1.1-.1.1-.3.3-1.4.8-2.7 1.5-3.9 0 1.6-.1 3.2-.3 4.9zm.6-7.3c-.1 0-.2.1-.3.2l-.6.9c-1-2.1-2.6-3.9-4.8-5 1-.8 2-1.5 3.1-2.1 1.1.9 1.9 1.9 2.6 3.1v2.9zm-1.3-6.5c.4-.2.9-.3 1.3-.5 0 .6 0 1.3.1 2-.5-.5-.9-1.1-1.4-1.5z" fill="#000000" stroke-width="none" opacity="1"></path></g></g><g id="svga-group-humanbody-back"><path id="SvgjsPath37073" d="M86.5 122c0 18.8 2.7 50.3-8.1 58s-31.8 13.9-36.7 24.4-3.6 14.4-3.6 14.4h124.1s.6-8.1-4.2-15.4c-6.6-10.1-28.5-17.7-36.5-22.9-8.1-5.2-10.9-32.2-10.9-58.8l-24.1.3z" fill="#ffffff" stroke-width="none" opacity="1"></path></g><g id="svga-group-chinshadow-single"></g><g id="svga-group-humanbody-front"><path id="SvgjsPath37074" d="M163.4 220.1H37.2l-.3-.9c-.1-.5-1.3-4.7 3.6-15.3 3.4-7.3 13.6-12.4 23.5-17.4 5.1-2.5 9.9-5 13.6-7.5 8.6-6 8.1-29.8 7.7-47.1-.1-3.5-.1-6.8-.1-9.8v-1.3l26.7-.4v1.3c0 32 3.8 53.5 10.3 57.7 2.4 1.6 6 3.3 10.2 5.4 9.7 4.7 21.9 10.6 26.7 18 5 7.6 4.4 15.9 4.4 16.2l-.1 1.1zm-124.1-2.6h121.6c-.1-2.4-.6-8.2-4-13.4-4.4-6.7-16.2-12.5-25.6-17-4.3-2.1-8-3.9-10.5-5.5-9.8-6.3-11.4-38.8-11.5-58.6l-21.5.4c0 2.6.1 5.5.1 8.5.4 18.9.9 42.4-8.8 49.3-3.8 2.7-8.7 5.1-13.9 7.7-9.5 4.8-19.4 9.7-22.3 16.1-3.3 6.9-3.7 10.9-3.6 12.5z" fill="#000000" stroke-width="none" opacity="1"></path><path id="SvgjsPath37075" d="M76.8 188.7c4.8 2.3 10.4 3.9 15.7 2.9.4-.1.4-.7 0-.8-5.1-.9-10.2-1.4-15.2-3.2-.6-.2-1.1.8-.5 1.1z" fill="#000000" stroke-width="none" opacity="1"></path><path id="SvgjsPath37076" d="M108.3 191.1c2.4.3 4.9-.4 7.1-1.2 2.1-.8 4.3-1.7 5.8-3.4.5-.5-.1-1.2-.7-.9-2.1.9-3.9 2.3-6.1 3-2 .7-4.1 1-6.2 1.5-.6.1-.4.9.1 1z" fill="#000000" stroke-width="none" opacity="1"></path></g><g id="svga-group-clothes-single"><path id="SvgjsPath37505" d="M77.4 202.5c-6.6-9.8-9.7-17.7-9.7-17.7-1-.8-2.8-.5-3.3.5s-2.8 0-3.6 1.3c-.8 1.3-2.5.3-3.5 1.8 0 0-2.8-.6-2.8 2.3S61 202 61 219.2h33.7s-10.7-7-17.3-16.7z" fill="#ffffff" stroke-width="none" opacity="1"></path><path id="SvgjsPath37506" d="M141.9 188.4c-1-1.5-2.6-.5-3.4-1.8-.8-1.3-3.1-.3-3.6-1.3s-2.3-1.3-3.3-.5c0 0-3.1 8-9.7 17.7s-17.3 16.7-17.3 16.7h33.7c0-17.2 6.4-25.7 6.4-28.6 0-2.9-2.8-2.2-2.8-2.2z" fill="#ffffff" stroke-width="none" opacity="1"></path><path id="SvgjsPath37507" d="M95.2 218.4c-.1-.1-10.6-7-17-16.5s-9.6-17.4-9.6-17.5c-.1-.2-.2-.3-.3-.4-.7-.6-1.8-.8-2.8-.6-.9.2-1.6.7-2 1.3-.2 0-.5.1-.7.1-.9 0-2.2.1-2.9 1.2-.1.2-.3.3-.9.4-.6.1-1.4.2-2.1.9-.6 0-1.5.1-2.3.6-.5.4-1.1 1.2-1.1 2.7 0 1.1.6 2.4 1.4 4.4 1.9 4.6 5 12.2 5 24.2 0 .6.5 1 1 1h33.7c.4 0 .8-.3 1-.7.2-.4 0-.9-.4-1.1zm-34.4-11.8c1.2.8 2.5 1.3 3.9 1.2.2 0 .3-.3.1-.4-1.5-.4-2.8-.8-4.1-1.6-.1-.6-.3-1.2-.4-1.8 1.2.8 2.6 1.4 4 1.3.2 0 .3-.3.1-.4-1.6-.6-3-1-4.3-1.9-.2-.6-.3-1.2-.5-1.8 1.2.8 2.5 1.3 3.9 1.1h.1c1.2 3.4 2.4 6.6 3.1 8.7-1.9-.4-3.6-.8-5.2-1.7-.4-.9-.5-1.8-.7-2.7zm1.4-7.5c.4 1 .7 1.9 1.1 2.9-1.6-.4-3-.9-4.2-1.8-.3-.9-.6-1.7-.9-2.5 1.1.8 2.5 1.4 4 1.4zm-.1-.4c-1.6-.5-3-1.1-4.3-2.1-.3-.8-.7-1.6-.9-2.3-.3-.6-.5-1.2-.7-1.8 1.2 1.3 2.8 2.4 4.6 2.6.4 1.1.8 2.3 1.3 3.6zm-6.2-9.2c.2-.2.6-.2.9-.2.7.5 1.4 1 2.2 1.3.2.4.3.9.5 1.3-1.3-.6-2.6-1.2-3.6-2.4zm2.3-.6c0-.1.1-.1.2-.2.1.3.3.7.4 1.2-.3-.2-.6-.5-.9-.7l.3-.3zm-2.5 1.2c1 1.3 2.5 2.3 4.1 2.4.2.6.5 1.3.8 2-1.7-.6-3.3-1.4-4.5-2.8-.1-.1-.1-.1-.2-.1-.1-.4-.2-.8-.2-1-.1-.2-.1-.4 0-.5zm6.2 26.1c1.3 1 2.8 1.7 4.5 2H62c0-.7 0-1.3-.1-2zm8.1 2c0-.1 0-.2-.1-.2-3.1-.1-5.4-.9-8-2.4 0-.8-.1-1.5-.2-2.2 2 1.2 4.3 2 6.6 1.7.2 0 .2-.3 0-.3-2.4-.3-4.6-.8-6.7-2-.1-.9-.2-1.9-.3-2.8 1.6 1 3.5 1.7 5.3 1.5.2.6.3 1.1.4 1.5.1.4.5.7 1 .7h.3c.1 0 .2-.1.3-.1 1.5 1.2 3.4 2.2 5.3 2.2.2 0 .2-.2 0-.3-1.8-.5-3.5-1.1-5.1-2.2.2-.2.2-.5.1-.8-.1-.2-.1-.5-.2-.7.9.6 2 1 3 1 .2 0 .2-.2 0-.3-1.2-.3-2.2-.6-3.2-1.3-.1-.4-.3-.9-.5-1.4.6.3 1.3.6 1.9.6.3 0 .3-.3.1-.4-.8-.3-1.5-.6-2.2-1l-.6-1.8c.8.4 1.6.7 2.4.6.2 0 .2-.3.1-.4-1-.4-1.9-.6-2.8-1.1-.2-.5-.3-.9-.5-1.4.8.5 1.6.8 2.4.7.2 0 .3-.3.1-.4-.7-.3-1.5-.5-2.2-.9-.2-.1-.4-.3-.6-.4-.2-.4-.3-.9-.5-1.4.9.5 1.8.9 2.8 1.1.2 0 .3-.2.1-.3-1.1-.5-2.2-1-3.3-1.6-.2-.4-.3-.9-.5-1.4.7.3 1.4.5 2.1.5.2 0 .2-.3.1-.4-.9-.2-1.7-.4-2.4-.8-.3-.8-.6-1.5-.8-2.3.9.8 2 1.3 3.1 1.3.2 0 .3-.3.1-.4-1.3-.5-2.5-1-3.5-1.9-.2-.4-.3-.8-.4-1.2.8.8 1.9 1.3 3 1.2.2 0 .2-.3.1-.4-1.5-.6-2.7-1.1-3.6-2.4-.2-.5-.4-1-.5-1.5.8.8 2 1.5 3.1 1.5.2 0 .2-.2.1-.3-.6-.3-1.3-.5-1.9-.9-.7-.4-1.2-.9-1.7-1.5-.1-.2-.2-.4-.2-.7.8.5 1.8.9 2.7.8.2 0 .2-.2 0-.3-1.1-.4-2.1-.8-3.1-1.4-.2-.5-.3-.9-.5-1.2.1 0 .1 0 .2-.1.8.5 1.8 1 2.7 1.1.2 0 .2-.2.1-.3-.7-.4-1.5-.7-2.2-1.1l.3-.3c.3.1.6.2.9.2.2 0 .3-.3.1-.4-.2-.1-.4-.1-.6-.2.2-.2.6-.2 1.2-.3.3 0 .6 0 .9-.1 1.4 4.4 6.6 19.8 15.9 30.2.2.2.5.3.7.3.1 0 .2 0 .3-.1 2.2 1 4.7 1.4 7.1.6.1 0 .1-.3 0-.3-2.3.1-4.4 0-6.6-.7.2-.3.3-.6.2-.9 1.7.5 3.4.7 5.1.4.2 0 .1-.3-.1-.3-1.9-.1-3.8-.2-5.6-.8-.3-.3-.6-.7-.9-1 1.5.5 3 .8 4.5.5.2 0 .2-.3 0-.3-1.8-.3-3.5-.5-5.2-1.1l-.9-1.2c1.1.4 2.3.6 3.5.6.2 0 .2-.2 0-.3-1.4-.4-2.8-.7-4.2-1.1-.2-.3-.4-.6-.7-.9 1.1.4 2.3.6 3.5.5.2 0 .2-.4 0-.4-1.5-.2-2.8-.5-4.1-1-.4-.6-.8-1.3-1.2-1.9.8.4 1.7.6 2.7.6.2 0 .2-.3.1-.3-1.1-.3-2.1-.5-3.1-1-.4-.6-.7-1.3-1.1-1.9.8.5 1.7.8 2.6.8.2 0 .2-.3.1-.3-1.2-.4-2.2-.8-3.2-1.4-.2-.4-.4-.8-.7-1.3.7.4 1.5.7 2.3.6.2 0 .2-.3.1-.4-1.1-.3-2-.6-2.8-1.2-.2-.4-.4-.8-.6-1.1.6.2 1.2.3 1.8.2.2 0 .2-.3 0-.4-.5-.1-1.1-.2-1.6-.4-.2-.1-.3-.1-.5-.2-.2-.5-.4-.9-.7-1.4.4.2.8.3 1.2.2.2 0 .2-.2.1-.3-.4-.2-.8-.3-1.2-.5-.1-.1-.3-.1-.4-.2-.2-.3-.3-.7-.4-1 .3.1.5.2.8.2.2 0 .2-.2.1-.3-.4-.2-.8-.4-1.2-.5-2.2-5-3.5-9.1-3.9-10.5.1-.1.2-.1.4-.2.3-.1.7 0 .9.1.6 1.6 3.8 8.8 9.7 17.6 4.7 7 11.3 12.5 15 15.2l-21.9.2zm74.6-30.3c-.8-.6-1.7-.7-2.3-.6-.7-.7-1.5-.8-2.1-.9-.6-.1-.8-.1-.9-.4-.7-1.1-2-1.2-2.9-1.2-.2 0-.6 0-.7-.1-.4-.7-1.1-1.1-2-1.3-1-.2-2.1 0-2.8.6-.1.1-.2.2-.3.4 0 .1-3.2 8-9.6 17.5-6.4 9.5-16.9 16.4-17 16.5-.4.2-.5.7-.4 1.1s.5.7 1 .7h33.7c.6 0 1-.4 1-1 0-12 3.1-19.6 5-24.2.8-2 1.4-3.4 1.4-4.4 0-1.5-.6-2.3-1.1-2.7zm-21.1 13.9c.2 1 .6 2 1.4 2.5.2.1.3-.1.2-.2-.2-.5-.6-.9-.8-1.4-.2-.5-.3-1-.4-1.5.2-.3.4-.6.6-1 .2.8.6 1.5 1.2 2 .2.1.4-.1.3-.3-.5-.8-.9-1.4-1.1-2.2.2-.4.4-.7.6-1 .2.5.4 1 .8 1.3.2.1.4 0 .3-.2-.2-.4-.5-.8-.6-1.2-.1-.1-.1-.3-.1-.4.2-.4.4-.7.7-1.1.2.4.5.8.8 1 .1.1.3-.1.2-.2-.2-.4-.5-.7-.7-1.1 0-.1 0-.1-.1-.1.2-.4.5-.8.7-1.2.2.3.4.5.7.7.1.1.3-.1.2-.2-.2-.3-.4-.7-.6-1 .4-.7.8-1.4 1.1-2 .1 0 .1 0 .2-.1s.1-.2 0-.2c1.9-3.6 3-6.1 3.3-6.9.2-.1.6-.2.9-.1.2 0 .3.1.4.2-.9 3.1-6.2 19.5-15.7 30-.4.4-.3 1 .1 1.4.2.2.4.3.7.3.3 0 .5-.1.7-.3.3.5.7 1 1.2 1.4h-7.6c.1-.1.2-.2.1-.3-.6-.5-1.2-.9-1.7-1.5-.2-.2-.4-.5-.6-.8.2-.2.5-.4.8-.6.7 1.3 1.8 2.5 3.2 2.8.2 0 .3-.2.1-.3-.7-.5-1.5-1-2.1-1.6l-.9-1.2c.2-.2.4-.4.7-.6 1 1.3 2.4 2.5 4 2.9.2 0 .3-.2.1-.3-1.4-.8-2.8-1.6-3.8-2.9.4-.4.9-.8 1.3-1.2.8 1.3 1.9 2.6 3.3 3.2.2.1.4-.1.2-.3-1.2-1.1-2.2-2-3.1-3.2l1.1-1.1c.5 1.1 1.2 2 2.3 2.5.2.1.4-.1.2-.3-.9-.8-1.6-1.7-2.1-2.7l.9-.9c.4.9 1.2 1.8 2.2 2.1.2.1.3-.2.2-.3-.8-.7-1.5-1.4-1.9-2.2.3-.4.7-.7 1-1.1.4 1.2 1.1 2.3 2.2 2.7.2.1.3-.2.2-.3-.5-.6-1.1-1.1-1.5-1.7l-.6-1.2c.3-.4.6-.7.9-1.1.3 1.1 1 2.2 2.1 2.7.1 0 .3-.1.2-.2-.4-.6-.9-1.1-1.3-1.7-.2-.4-.4-.9-.5-1.3.3-.3.5-.7.8-1 .3.7.7 1.4 1.3 1.9.2.1.4 0 .3-.2-.4-.7-.9-1.4-1.2-2.1.3-.3.5-.7.8-1 .2.7.6 1.4 1.2 1.9.2.1.4 0 .3-.2-.4-.8-.8-1.4-1.1-2.2l.2-.2c.1-1 .3-1.4.6-1.8zm-12.2 16.4c-.4-.3-.8-.5-1.2-.8-.2-.2-.4-.4-.6-.7.3-.2.6-.5.9-.7.6 1 1.5 1.8 2.5 2.2h-1.6zm-2.2 0c-.3-.2-.5-.4-.7-.6.2-.2.5-.4.8-.6.2.3.4.5.6.7.2.1.3.3.5.4l-1.2.1zm-1-.3.3.3h-.6c0-.1.2-.2.3-.3zm34.4-23.6c-1.9 4.6-5 12.1-5.2 23.9h-.6c0-.1-.1-.2-.2-.2-2 .2-3.8.2-5.8-.3-.2-.1-.3.2-.1.3.2.1.3.1.5.2h-9.7c0-.1 0-.1-.1-.1-.3-.3-.7-.5-.9-.9-.2-.2-.4-.5-.6-.8.2-.3.5-.6.7-.8.6 1.1 1.6 2.1 2.8 2.3.2 0 .3-.2.1-.3-.5-.4-1.1-.7-1.6-1.1-.4-.4-.7-.8-1-1.3.3-.4.6-.7.8-1.1.6 1.3 1.6 2.5 3 3 .2.1.4-.2.2-.4-.6-.5-1.3-.9-1.8-1.5-.4-.5-.8-1-1-1.6.3-.4.6-.8.9-1.3.8 1.4 2 2.8 3.5 3.4.1.1.2-.1.1-.2-1.3-1.2-2.5-2.1-3.3-3.6.3-.4.6-.9.9-1.3.8 1.3 1.9 2.4 3.2 3.2.2.1.4-.1.2-.3-1.2-1-2.3-2-3.2-3.3l.6-.9c.7 1.2 1.8 2.3 3 2.7.2.1.4-.2.2-.4-.6-.5-1.3-1-1.9-1.6-.4-.4-.7-.8-1-1.3.2-.4.4-.7.7-1.1.6 1.2 1.7 2.3 3.1 2.6.2 0 .3-.2.1-.3-1.2-.7-2.3-1.5-3-2.7.2-.4.5-.8.7-1.2.9 1.3 2.1 2.5 3.6 2.9.2.1.3-.2.2-.4-.8-.6-1.6-1-2.3-1.7-.4-.4-.8-.9-1.2-1.4.3-.5.6-1 .8-1.5.7 1.2 1.8 2.3 3.2 2.6.2.1.3-.2.1-.3-1.2-.9-2.2-1.7-3-2.9.3-.6.6-1.2.9-1.7.7 1 1.5 1.9 2.6 2.4.2.1.4-.1.2-.3-.9-.9-1.8-1.7-2.5-2.7.2-.3.3-.7.5-1 .5.7 1.2 1.2 2 1.5.2.1.3-.2.2-.3-.7-.6-1.3-1.2-1.8-1.8.1-.2.2-.5.3-.8.5.7 1.2 1.4 2 1.7.2.1.3-.2.2-.3-.7-.6-1.4-1.1-1.9-1.9.2-.4.3-.8.5-1.1.5.9 1.2 1.8 2.2 2 .2.1.4-.2.2-.4-.4-.4-.9-.7-1.4-1.1-.3-.4-.6-.8-.7-1.2.2-.6.5-1.1.7-1.7.4 1 1.1 1.9 2.1 2.1.1 0 .2-.1.1-.2-.4-.5-.9-.8-1.3-1.3-.3-.4-.5-.8-.7-1.3.1-.3.3-.7.4-1 .1.3.2.5.4.7.3.4.8 1 1.3 1.1.1 0 .2-.1.2-.2-.3-.4-.8-.7-1.1-1.2-.2-.3-.4-.7-.6-1 .1-.2.1-.4.2-.6.2.3.5.5.8.6.2.1.3-.2.2-.3-.3-.3-.6-.6-.8-.9l.3-.9c.1.2.3.3.5.4.2.1.4-.1.3-.3-.2-.3-.4-.5-.6-.8.5-1.4.9-2.5 1.1-3.3.3.1.6.1.9.1.7 0 1.1.1 1.3.3.4.6.9.9 1.4 1.1-1.6 4.4-7.7 20.6-8.7 24.3-.1.5.2 1.1.7 1.2h.5c1.5 1.1 3.4 1.9 5.3 1.7.1 0 .2-.2 0-.3-1.8-.4-3.3-.7-4.8-1.6.1-.1.2-.3.3-.5.1-.3.2-.8.4-1.3 1.1.9 2.4 1.6 3.7 1.8.2 0 .2-.3.1-.4-.7-.4-1.5-.6-2.2-1-.5-.3-1-.6-1.4-1 .1-.4.3-.9.4-1.3.8.8 1.8 1.4 2.9 1.6.2 0 .3-.2.1-.4-.6-.4-1.2-.6-1.8-1-.4-.2-.7-.5-1.1-.8.1-.3.2-.7.4-1.1.7.8 1.5 1.5 2.5 1.8.2.1.4-.2.2-.4-.5-.4-1.1-.8-1.7-1.2-.3-.2-.6-.5-.8-.8.1-.4.3-.9.5-1.3.6.6 1.2 1.1 2 1.3.2.1.3-.2.1-.3-.5-.4-1-.6-1.5-1-.2-.1-.3-.3-.5-.4.2-.5.3-1 .5-1.4.5.7 1.3 1.4 2.2 1.4.2 0 .2-.2.1-.4-.5-.3-1-.5-1.4-.9-.2-.2-.4-.4-.6-.7.2-.6.4-1.2.6-1.7.4.6 1 1.2 1.8 1.3.1 0 .2-.1.1-.2-.3-.3-.8-.6-1.1-.9-.2-.2-.4-.5-.6-.8.2-.6.4-1.1.6-1.7.4.6.9 1.2 1.6 1.4.1 0 .2-.1.1-.2-.3-.3-.6-.5-.9-.8-.3-.3-.5-.6-.6-.9.1-.4.3-.8.4-1.2.4.5.7 1 1.2 1.3.1.1.3-.1.3-.2-.2-.6-.8-1.1-1.2-1.6l.3-.9c.1.2.3.3.6.3.1 0 .1-.1 0-.2-.2-.2-.3-.3-.4-.6l-.1-.1c.1-.3.2-.7.4-1 .1.1.2.1.2.2.1.1.2 0 .1-.1s-.2-.2-.3-.4c1-2.6 1.8-4.8 2.2-6 .1.1.1.1.1.2.2.3.6.5 1.1.4.1 0 .8-.1 1.2.2.2.2.4.6.4 1.1.4 1.1-.2 2.4-.8 4.1zm-7.3-5c-.1-.2-.1-.3-.2-.5-.1-.1-.2 0-.2.1.1.2.3.3.4.4 0 .1 0 0 0 0zm1.5 27.9c-2-.4-3.9-.9-5.6-1.9-.3-.1-.5.3-.2.4 1.8 1 3.8 1.8 5.8 1.8.2.1.2-.2 0-.3z" fill="#000000" stroke-width="none" opacity="1"></path></g><g id="svga-group-head" transform="matrix(1,0,0,1,0,0)"><g id="svga-group-ears-left-move" transform="matrix(1,0,0,1,0,0)"><g id="svga-group-ears-left" transform="matrix(1,0,0,1,0,0)"><path id="SvgjsPath37378" d="M64.7 84.7s-1.8-5-3.3-7.9-3.6-6.3-6.6-7.2-4 3.9-2.9 8.3 4.2 13.9 5 17.6 1.8 8.1 3.6 7.5 7.1-7.7 4.2-18.3z" fill="#ffffff" stroke-width="none" opacity="1"></path><path id="SvgjsPath37379" d="M59.1 103.6c-1.5-.8-2.3-3.8-3.2-8-.4-2.2-1.7-6.4-2.9-10.5-.8-2.7-1.6-5.3-2.1-7.1-.9-3.5-.5-7.1 1-8.6.8-.8 1.8-1 2.9-.7 3.3.9 5.5 4.4 7.2 7.6 1.6 2.9 3.3 7.8 3.4 8v.1c3.1 11.1-2.6 18.5-4.8 19.3-.2.1-.4.1-.6.1-.3.1-.6 0-.9-.2zm1.5-26.4c-1.6-2.9-3.4-6-6.1-6.7-.5-.1-.9 0-1.3.3-1.1 1.1-1.3 4-.6 6.9.5 1.8 1.2 4.3 2 7 1.2 4.1 2.5 8.4 3 10.6.8 4.1 1.6 6.4 2.3 6.8h.1c1.1-.4 6.6-6.8 3.8-17.2-.1-.4-1.8-5.1-3.2-7.7z" fill="#000000" stroke-width="none" opacity="1"></path><path id="SvgjsPath37380" d="M52.8 72.7c1.9-.8 3.6 1.4 4.8 3.3 1.6 2.5 2.6 5.5 2.9 8.6v.2c0 .2 0 .5.1.7 0 .2-.2.2-.2 0-.1-.4-.2-.9-.3-1.4 0 0-.1-.1-.1-.2-1.2-.6-1.8-.3-1.8.8 0 .7.2 1.5.3 2.2.3 1.2.9 2.3 1.3 3.5.1.2-.2.4-.3.2-.9-1.6-2.6-5.3-1.5-7.2.5-.9 1.3-.8 1.9-.2-.5-2-1.2-4.3-2.2-6.2-2.1 4.5-1 9.2.1 14.2 0 .2-.2.3-.3.1-1.4-4.6-2.7-10.7 0-14.5-1.2-2.2-2.8-3.9-4.7-3.8-.1.1-.2-.3 0-.3z" fill="#000000" stroke-width="none" opacity="1"></path></g></g><g id="svga-group-ears-right-move" transform="matrix(1,0,0,1,0,0)"><g id="svga-group-ears-right" transform="matrix(1,0,0,1,0,0)"><path id="SvgjsPath37381" d="M135.3 84.7s1.8-5 3.3-7.9 3.6-6.3 6.6-7.2 4 3.9 2.9 8.3-4.2 13.9-5 17.6c-.7 3.7-1.8 8.1-3.6 7.5s-7.1-7.7-4.2-18.3z" fill="#ffffff" stroke-width="none" opacity="1"></path><path id="SvgjsPath37382" d="M140 103.9c-.2 0-.4 0-.6-.1-2.2-.8-7.9-8.2-4.8-19.3v-.1c.1-.2 1.8-5.1 3.4-8 1.7-3.2 3.9-6.7 7.2-7.6 1.1-.3 2.2 0 2.9.7 1.5 1.5 1.9 5 1 8.6-.5 1.8-1.2 4.4-2.1 7.1-1.2 4.1-2.5 8.3-2.9 10.5-.8 4.2-1.7 7.2-3.2 8-.3.1-.6.2-.9.2zm-3.9-19c-2.9 10.4 2.6 16.8 3.8 17.2h.1c.7-.4 1.5-2.7 2.3-6.8.5-2.3 1.7-6.5 3-10.6.8-2.7 1.6-5.3 2-7 .8-2.9.5-5.9-.6-6.9-.3-.3-.8-.4-1.3-.3-2.7.7-4.6 3.9-6.1 6.7-1.3 2.6-3 7.3-3.2 7.7z" fill="#000000" stroke-width="none" opacity="1"></path><path id="SvgjsPath37383" d="M147.2 72.7c-1.9-.8-3.6 1.4-4.8 3.3-1.6 2.5-2.6 5.5-2.9 8.6v.2c0 .2 0 .5-.1.7 0 .2.2.2.2 0 .1-.4.2-.9.3-1.4.1-.1.1-.2.2-.3 1.2-.6 1.8-.3 1.8.8 0 .7-.2 1.5-.3 2.2-.3 1.2-.9 2.3-1.3 3.5-.1.2.2.4.3.2.9-1.6 2.6-5.3 1.5-7.2-.5-.9-1.3-.8-1.9-.2.5-2 1.2-4.3 2.2-6.2 2.1 4.5 1 9.2-.1 14.2 0 .2.2.3.3.1 1.4-4.6 2.7-10.7 0-14.5 1.2-2.2 2.8-3.9 4.7-3.8 0 .2.1-.2-.1-.2z" fill="#000000" stroke-width="none" opacity="1"></path></g></g><g id="svga-group-faceshape-wrap" transform="matrix(1,0,0,1,0,0)"><g id="svga-group-faceshape-single"><path id="SvgjsPath37365" d="M138.2 58.2c-2-10.8-13.3-27.4-37.2-27.4S69.1 43.5 65.5 53c-3 8.1-3 21.3-3 21.3s.4 28.4 10 46.1c9.3 17 28.9 31.8 46.2 11.8 21.5-24.8 20.6-57.8 20.6-57.8s.3-8.5-1.1-16.2z" fill="#ffffff" stroke-width="none" opacity="1"></path><path id="SvgjsPath37366" d="M100.7 143.1c-.8 0-1.5 0-2.3-.1-11.8-1.3-21.7-12.2-27-22-9.6-17.7-10.2-45.5-10.2-46.7 0-.6 0-13.6 3.1-21.8 5.8-15.5 17.8-23 36.7-23 10.9 0 20.5 3.4 27.7 10 5.5 5 9.6 11.9 10.8 18.5 1.4 7.6 1.2 15.7 1.2 16.4s.1 8.8-2.3 19.9c-2.3 10.5-7.4 25.8-18.7 38.8-5.8 6.6-12.2 10-19 10zm.3-111c-17.7 0-28.9 7-34.3 21.3-2.9 7.8-2.9 20.8-2.9 20.9 0 .3.5 28.3 9.9 45.5 5 9.2 14.2 19.5 25 20.6 6.8.7 13.3-2.3 19.1-9.1 20.9-24.1 20.3-56.6 20.3-57 0-.1.2-8.4-1.2-15.9-1.1-6-4.8-12.4-10-17-6.6-6.1-15.6-9.3-25.9-9.3z" fill="#000000" stroke-width="none" opacity="1"></path></g></g><g id="svga-group-mouth-single-move" transform="matrix(1,0,0,1,0,0)"><g id="svga-group-mouth-single" transform="matrix(1,0,0,1,0,0)"><path id="SvgjsPath37458" d="M114.77 119.83c-1.13.44-2.28.54-3.44.5-1.86-.99-3.84-2.01-5.96-2.23-2.25-.23-4.37 1.18-6.55.6-1.62-.43-2.83-1.07-4.53-.62-2.55.67-4.74 2.91-7.53 1.8-.08-.03-.14-.02-.19.01-.21-.08-.41-.16-.62-.26-.33-.16-.61.33-.29.49.82.41 1.64.6 2.47.68.01.01 0 .02.02.03 6.71 6.02 16.81 5.73 23.65.07 1.04.01 2.08-.11 3.11-.52.35-.13.2-.68-.14-.55zm-16.76-.81c1.63.54 2.65.39 4.28-.03 2.77-.72 5.16.06 7.55 1.23-2.67-.3-5.34-.96-7.92.34-1.04.52-1.2.66-2.56.65-1.39-.01-1.47-.19-2.53-.68-.69-.31-1.37-.49-2.12-.57-1.26-.13-2.5.04-3.73.18 2.54-1.04 4.18-2.06 7.03-1.12zm-8.95 1.81c1.16 0 2.34-.18 3.57-.28 1.98-.16 3.32.32 5.07 1.13.7.32 1.27.57 2.06.48 1.3-.16 2.36-1.22 3.58-1.61 1.62-.53 3.37-.25 5.01-.01.87.13 1.73.26 2.58.32-6.42 4.96-15.56 5.2-21.87-.03z" fill="#000000" stroke-width="none" opacity="1"></path></g></g><g id="svga-group-eyes-left-move" transform="matrix(1,0,0,1,0,0)"><g id="svga-group-eyes-left" transform="matrix(1,0,0,1,0,0)"><g id="svga-group-eyesback-left"></g><g id="svga-group-eyesiriswrapper-left"><g id="svga-group-eyesiriscontrol-left" transform="matrix(1,0,0,1,0,0)"><g id="svga-group-eyesiris-left" transform="matrix(1,0,0,1,0,0)"><path id="SvgjsPath37412" d="M84.8 88.9c1-1.8.1-4.4-1.6-5.6-1.8-1.2-4.3-.8-5.8 1.2-.8 1.1-1.1 2.5-.6 3.7.2.4.7 1.7 1.8 2.3 2.3 1.2 5.1.6 6.2-1.6z" fill="#ffffff" stroke-width="none" opacity="1"></path><path id="SvgjsPath37413" d="M83.4 83.1c-2-1.3-4.7-.8-6.2 1.2-.9 1.2-1.1 2.8-.6 4 .2.4.8 1.8 1.9 2.4.8.4 1.6.6 2.4.6 1.7 0 3.2-.8 4-2.4 1.2-1.8.4-4.6-1.5-5.8zm-6.2 5c-.4-1-.2-2.4.5-3.4.8-1.1 2-1.7 3.3-1.7.2 0 .4 0 .6.1.1 0 .1.1.2.1h.4c0 .1.1.1.1.2s.2.1.2.1c.1-.1.1-.1.2-.1s.2.1.3.1c.1.1.1.2.2.3 0 .1.1.1.1.1.2 0 .2.1.3.2.1.1.1.2.1.3 0 .1.1.1.2.1h.3c.2.2.2.4.1.7 0 .1 0 .2.1.2.2 0 .3.2.4.4 0 .1-.1.2-.1.3 0 .1 0 .2.1.2.1.1.5.8.2.9-.1 0-.1.1-.1.2.1.1.2.3.2.4 0 .1 0 .2-.1.3l-.2.2c-.1 0-.1.1-.1.1.1.3 0 .5-.2.6h-.2c-.1 0-.2.1-.2.2.1.4-.2.6-.6.6-.1 0-.1.1-.1.1v.2c-.2.3-.4.2-.7.1-.1-.1-.2 0-.2.2v.2c-.1.1-.3.1-.4 0-.1-.1-.2-.1-.3.1-.1.1-.2.1-.4 0-.1-.1-.1-.1-.2 0l-.2.2c-.1 0-.2.1-.2 0s-.1-.1-.2-.1c-.1.1-.2.1-.2.1-.1 0-.2 0-.3-.1l-.1-.1c0-.1-.2-.1-.2 0-.1-.1-.2-.1-.3-.3l-.1-.1c-.2 0-.3-.1-.4-.1l-.1-.1c0-.1-.1-.1-.2-.2h-.2c-.8-.8-1.2-1.5-1.3-1.8zm1.6-2.5c-.2-.3-.6-.5-.9-.5-.1 0-.1.1 0 .1.2.1.3.1.4.2s.3.2.4.3l.1-.1zm.3-2c0-.1-.1 0 0 0 0 .5.3.9.6 1.3 0 0 .1 0 .1-.1-.2-.4-.4-.9-.7-1.2zm1.7 0c0-.1 0 0 0 0 0 .3 0 .6.1.8 0 .1.1 0 .1 0 0-.3-.1-.6-.2-.8zm2.5.5c-.3.2-.5.5-.7.8-.1.1 0 .2.1.1.3-.2.6-.5.6-.9.1.1.1 0 0 0zm.9 3h-.3c-.1 0-.2 0-.3-.1-.1 0-.2.1-.1.2.2.1.5.2.7.1.1-.1.1-.2 0-.2zm.1.9c-.2-.1-.5-.1-.8-.2-.1 0-.1.1 0 .1.3.1.6.1.8.1.1.1.1 0 0 0zm-4.1 1.6c0-.1-.1-.1-.1 0v.4c0 .1-.1.2-.1.3 0 .1.1.1.1.1.1-.2.1-.6.1-.8zm-1.7-1c-.1 0-.1.1-.2.1s-.1.1-.2.1-.1.1 0 .1.2 0 .3-.1c.1.1.2 0 .1-.2.1.1.1 0 0 0zm-.9-1.4c-.2 0-.4 0-.6.1-.1 0-.1.1 0 .1.2-.1.4-.1.6-.2zm4.8.8c.2 0 .4.1.4.3.6-.8.6-2-.2-2.8-.5-.5-1.3-.7-2-.6-.1 0-.2.1-.3.1.5.5.3 1.6-.6 1.6-.3 0-.5-.1-.6-.2-.2.6-.2 1.2.2 1.8.6.9 1.8 1.3 2.8.8-.4-.3-.3-1 .3-1z" fill="#000000" stroke-width="none" opacity="1"></path></g></g></g><g id="svga-group-eyesfront-left"><path id="SvgjsPath37527" d="M81 74.4c-6.9 0-12.5 5.6-12.5 12.5S74.1 99.4 81 99.4s12.5-5.6 12.5-12.5S87.9 74.4 81 74.4zm7.1 16.1c-2.1 0-17.3 0-17.9-.9-.6-.8.7-2.9 2.5-4s4.2-2.6 7.6-2.8c3.4-.2 8.9 1 10.9 6.6.3.7-1.1 1.1-3.1 1.1z" fill="#ffffff" stroke-width="none" opacity="1"></path><path id="SvgjsPath37528" d="M73.1 83.4c1.3-.9 5.4-3.8 10.1-2.6 4.5 1.1 7.1 4.4 7.2 4.5 0 .1.1.1.2.1h.1c.1-.1.1-.2 0-.3-.1-.1-2.8-3.5-7.4-4.6-4.9-1.2-9.1 1.7-10.5 2.7-.1.1-.1.2-.1.3.1 0 .3 0 .4-.1zm18.6 5.8c-2.3-5-5.6-6.9-11.9-6.8-2.8 0-5.6 1.4-7.6 2.9h-.1c-.1 0-1.4-.2-2.1-1.8-.1-.2-.4-.3-.6-.2-.2.1-.3.4-.2.6.7 1.3 1.6 1.9 2.3 2.1l-.7.7h-.1c-.5 0-2.1 0-2.6-.6-.2-.2-.4-.2-.6 0s-.2.4 0 .6c.7.7 2 .9 2.7.9-.3.4-.4.8-.5 1.2v.5c-.3.1-.7.2-1.3.4-.4 0-.5.3-.4.5s.2.3.4.3h.2c.8-.3 1.2-.4 1.4-.5.1.1.3.2.5.3 1.5.5 7 .6 12.3.6 2.6 0 5.2 0 7.3-.1h.3c.2 0 .4-.2.4-.4s-.2-.4-.4-.4h-.3c-10.5.2-17.7 0-19.3-.5-.3-.1-.4-.2-.4-.6.3-1.8 4.8-5.6 9.4-5.6 6-.1 9 1.6 11.1 6.3.1.2.4.3.6.2s.3-.4.2-.6zm-1.1 2.4c-4.2.9-8 1.8-12.3 1.9-.2 0-.2.3 0 .3 4 .4 8.8 0 12.5-1.8.2-.1.1-.4-.2-.4z" fill="#000000" stroke-width="none" opacity="1"></path></g></g></g><g id="svga-group-eyes-right-move" transform="matrix(1,0,0,1,0,0)"><g id="svga-group-eyes-right" transform="matrix(1,0,0,1,0,0)"><g id="svga-group-eyesback-right"></g><g id="svga-group-eyesiriswrapper-right"><g id="svga-group-eyesiriscontrol-right" transform="matrix(1,0,0,1,0,0)"><g id="svga-group-eyesiris-right" transform="matrix(1,0,0,1,0,0)"><path id="SvgjsPath37414" d="M123.3 88.9c1-1.8.1-4.4-1.6-5.6-1.8-1.2-4.3-.8-5.8 1.2-.8 1.1-1.1 2.5-.6 3.7.2.4.7 1.7 1.8 2.3 2.3 1.2 5 .6 6.2-1.6z" fill="#ffffff" stroke-width="none" opacity="1"></path><path id="SvgjsPath37415" d="M121.9 83.1c-2-1.3-4.7-.8-6.2 1.2-.9 1.2-1.1 2.8-.6 4 .2.4.8 1.8 1.9 2.4.8.4 1.6.6 2.4.6 1.7 0 3.2-.8 4-2.4 1.1-1.8.4-4.6-1.5-5.8zm-6.3 5c-.4-1-.2-2.4.5-3.4.8-1.1 2-1.7 3.3-1.7.2 0 .4 0 .6.1.1 0 .1.1.2.1h.4c0 .1.1.1.1.2s.2.1.2.1c.1-.1.1-.1.2-.1s.2.1.3.1c.1.1.1.2.2.3 0 .1.1.1.1.1.2 0 .2.1.3.2.1.1.1.2.1.3 0 .1.1.1.2.1h.3c.2.2.2.4.1.7 0 .1 0 .2.1.2.2 0 .3.2.4.4 0 .1-.1.2-.1.3 0 .1 0 .2.1.2.1.1.5.8.2.9-.1 0-.1.1-.1.2.1.1.2.3.2.4 0 .1 0 .2-.1.3l-.2.2c-.1 0-.1.1-.1.1.1.3 0 .5-.2.6h-.2c-.1 0-.2.1-.2.2.1.4-.2.6-.6.6-.1 0-.1.1-.1.1v.2c-.2.3-.4.2-.7.1-.1-.1-.2 0-.2.2v.2c-.1.1-.3.1-.4 0-.1-.1-.2-.1-.3.1-.1.1-.2.1-.4 0-.1-.1-.1-.1-.2 0l-.2.2c-.1 0-.2.1-.2 0s-.1-.1-.2-.1c-.1.1-.2.1-.2.1-.1 0-.2 0-.3-.1l-.1-.1c0-.1-.2-.1-.2 0-.1-.1-.2-.1-.3-.3l-.1-.1c-.2 0-.3-.1-.4-.1l-.1-.1c0-.1-.1-.1-.2-.2h-.2c-.8-.8-1.1-1.5-1.3-1.8zm1.6-2.5c-.2-.3-.6-.5-.9-.5-.1 0-.1.1 0 .1.2.1.3.1.4.2s.3.2.4.3c.1 0 .2-.1.1-.1zm.4-2c-.1-.1-.1 0 0 0 0 .5.3.9.6 1.3 0 0 .1 0 .1-.1-.2-.4-.5-.9-.7-1.2zm1.7 0c0-.1-.1 0 0 0 0 .3 0 .6.1.8 0 .1.1 0 .1 0 0-.3-.1-.6-.2-.8zm2.5.5c-.3.2-.5.5-.7.8-.1.1 0 .2.1.1.2-.2.5-.5.6-.9.1.1.1 0 0 0zm.9 3h-.3c-.1 0-.2 0-.3-.1-.1 0-.2.1-.1.2.2.1.5.2.7.1.1-.1.1-.2 0-.2zm.1.9c-.2-.1-.5-.1-.8-.2-.1 0-.1.1 0 .1.3.1.6.1.8.1.1.1.1 0 0 0zm-4.2 1.6c0-.1-.1-.1-.1 0v.4c0 .1-.1.2-.1.3 0 .1.1.1.1.1.2-.2.2-.6.1-.8zm-1.6-1c-.1 0-.1.1-.2.1s-.1.1-.2.1-.1.1 0 .1.2 0 .3-.1c.1.1.1 0 .1-.2.1.1.1 0 0 0zm-.9-1.4c-.2 0-.4 0-.6.1-.1 0-.1.1 0 .1.2-.1.4-.1.6-.2zm4.7.8c.2 0 .4.1.4.3.6-.8.6-2-.2-2.8-.5-.5-1.3-.7-2-.6-.1 0-.2.1-.3.1.5.5.3 1.6-.6 1.6-.3 0-.5-.1-.6-.2-.2.6-.2 1.2.2 1.8.6.9 1.8 1.3 2.8.8-.3-.3-.2-1 .3-1z" fill="#000000" stroke-width="none" opacity="1"></path></g></g></g><g id="svga-group-eyesfront-right"><path id="SvgjsPath37529" d="M119 74.4c-6.9 0-12.5 5.6-12.5 12.5s5.6 12.5 12.5 12.5 12.5-5.6 12.5-12.5-5.6-12.5-12.5-12.5zm-7.2 16.1c-2.1 0-3.4-.4-3.1-1.1 2-5.6 7.5-6.8 10.9-6.6 3.4.2 5.8 1.7 7.6 2.8 1.8 1.1 3.1 3.2 2.5 4-.6.9-15.9.9-17.9.9z" fill="#ffffff" stroke-width="none" opacity="1"></path><path id="SvgjsPath37532" d="M109.3 85.4c.1 0 .1 0 .2-.1 0 0 2.7-3.4 7.2-4.5 4.7-1.2 8.8 1.7 10.1 2.6.1.1.2 0 .3-.1.1-.1 0-.2-.1-.3-1.4-1-5.6-3.9-10.5-2.7-4.7 1.2-7.3 4.5-7.4 4.6s-.1.2 0 .3l.2.2zm23.3.6c-.2-.2-.5-.2-.6 0-.6.6-2.1.6-2.6.6h-.1c-.2-.2-.4-.5-.7-.7.6-.2 1.6-.8 2.3-2.1.1-.2 0-.5-.2-.6s-.5 0-.6.2c-.8 1.6-2.1 1.7-2.1 1.8h-.1c-2-1.6-4.8-2.9-7.6-2.9-6.3-.1-9.6 1.8-11.9 6.8-.1.2 0 .5.2.6s.5 0 .6-.2c2.1-4.7 5.1-6.4 11.1-6.3 4.6.1 9.1 3.8 9.4 5.6 0 .3-.1.5-.4.6-1.5.5-8.8.6-19.3.5h-.3c-.2 0-.4.2-.4.4s.2.4.4.4h.3c2.1 0 4.7.1 7.3.1 5.3 0 10.8-.1 12.3-.6.2-.1.4-.1.5-.3.2 0 .6.1 1.4.5h.2c.2 0 .3-.1.4-.3.1-.2 0-.5-.2-.6-.6-.2-1-.4-1.3-.4v-.5c-.1-.4-.2-.8-.5-1.2.8 0 2.1-.2 2.7-.9 0 0 0-.3-.2-.5zm-23.9 5.1c-.2-.1-.4.2-.2.3.8.6 1.5 1.1 2.5 1.3.2 0 .3-.2.1-.3-.8-.5-1.6-.8-2.4-1.3z" fill="#000000" stroke-width="none" opacity="1"></path></g></g></g><g id="svga-group-facehighlight-single"></g><g id="svga-group-eyebrows-left-move" transform="matrix(1,0,0,1,0,0)"><g id="svga-group-eyebrows-left-rotate" transform="matrix(1,0,0,1,0,0)"><g id="svga-group-eyebrows-left" transform="matrix(1,0,0,1,0,0)"><path id="SvgjsPath37483" d="M91.6 74.24c0 1.8-.36 3.43-1.86 3.5s-19.06-.07-20.48-.36-1.07-4.57-.71-4.92 18.41-.93 20.98-.57c2.57.35 2.07 1.2 2.07 2.35z" fill="#ffffff" stroke-width="none" opacity="1"></path><path id="SvgjsPath37484" d="M68.06 76.5c.28.92.76 1.2 1.12 1.27 1.21.24 13.33.38 18.44.38 1.09 0 1.86-.01 2.14-.02 1.49-.07 2.24-1.38 2.24-3.9 0-.16.01-.31.02-.45.02-.37.02-.7-.07-1v-.01c-.19-.62-.76-1.07-2.37-1.29-1.4-.19-7.01-.11-11.39.01-9.54.28-9.82.55-9.94.67-.42.44-.61 2.97-.19 4.34zm.76-3.71c.17-.03.51-.07.95-.1l1.5 4.42c-.37-.01-.69-.03-.97-.04-.32-.84-1.32-3.39-1.55-3.97.02-.14.05-.24.07-.31zm7.45 4.44c-.37-.01-.73-.01-1.08-.02l-1.07-4.76 1.44-.06.71 4.84zm-.16-4.85.91-.03c.22 1.79.51 4.15.59 4.91-.27 0-.53-.01-.79-.01l-.71-4.87zm-1.47 4.82-1.22-.03-1.43-4.62c.5-.03 1.03-.05 1.59-.07l1.06 4.72zm-1.8-.04-.99-.03-1.52-4.48c.33-.02.7-.04 1.1-.07l1.41 4.58zm6.89-4.89.28 5.02-1.85-.03c-.09-.84-.44-3.69-.59-4.94.71-.01 1.43-.03 2.16-.05zm6.41-.1c.62 0 1.18.01 1.67.02l-.72 5.15H85.8l.34-5.17zm-.88 5.17c-.5 0-1.02-.01-1.56-.01l.07-5.14c.64-.01 1.25-.01 1.83-.01l-.34 5.16zm-2.1-.02c-.35 0-.71-.01-1.08-.01l-.1-5.1c.42-.01.84-.02 1.25-.02l-.07 5.13zm-1.61-.01c-.33 0-.66-.01-1-.01l-.28-5.04 1.17-.03.11 5.08zm9.67-4.03-1.8 4.06c-.15 0-.34.01-.56.01l1.38-4.92c.77.19.96.45.98.85zm-1.18 3.99 1.13-2.55c-.08 1.86-.61 2.41-1.13 2.55zm-2.4.08.72-5.14c.49.02.88.04 1.12.08.09.01.16.03.24.04l-1.42 5.02h-.66zm-19-3.07c.4 1.03.83 2.13 1.07 2.74-.16-.01-.29-.03-.37-.04-.15-.03-.29-.17-.4-.43-.26-.58-.33-1.48-.3-2.27z" fill="#000000" stroke-width="none" opacity="1"></path></g></g></g><g id="svga-group-eyebrows-right-move" transform="matrix(1,0,0,1,0,0)"><g id="svga-group-eyebrows-right-rotate" transform="matrix(1,0,0,1,0,0)"><g id="svga-group-eyebrows-right" transform="matrix(1,0,0,1,0,0)"><path id="SvgjsPath37485" d="M108.4 74.24c0 1.8.36 3.43 1.86 3.5s19.06-.07 20.48-.36 1.07-4.57.71-4.92-18.41-.93-20.98-.57c-2.57.35-2.07 1.2-2.07 2.35z" fill="#ffffff" stroke-width="none" opacity="1"></path><path id="SvgjsPath37486" d="M131.74 72.17c-.12-.12-.39-.39-9.94-.67-4.38-.13-9.99-.21-11.39-.01-1.6.22-2.18.68-2.37 1.29v.01c-.09.3-.1.63-.07 1 .01.15.02.3.02.45 0 2.52.75 3.83 2.24 3.9.28.01 1.05.02 2.14.02 5.11 0 17.23-.14 18.44-.38.36-.07.84-.35 1.12-1.27.43-1.38.24-3.91-.19-4.34zm-.49.92c-.23.58-1.23 3.14-1.55 3.98-.28.02-.6.03-.97.04l1.5-4.42c.45.04.78.07.95.1.02.07.05.17.07.3zm-6.82-.69 1.44.06-1.07 4.76c-.35.01-.71.01-1.08.02l.71-4.84zm-1.25 4.84c-.26 0-.53.01-.79.01.08-.76.37-3.12.59-4.91l.91.03-.71 4.87zm3.24-4.76c.57.02 1.1.05 1.59.07l-1.43 4.62-1.22.03 1.06-4.72zm2.15.1c.4.02.77.04 1.1.07l-1.52 4.48-.99.03 1.41-4.58zm-6.13-.25c-.15 1.24-.51 4.1-.59 4.94l-1.85.03.28-5.02c.72.01 1.44.03 2.16.05zm-8.25 5.01h-1.29l-.72-5.15c.49-.01 1.05-.02 1.67-.02l.34 5.17zm.21-5.16c.58 0 1.18.01 1.83.01l.07 5.14c-.54 0-1.06.01-1.56.01l-.34-5.16zm2.37.02c.41.01.82.01 1.25.02l-.1 5.1c-.36 0-.72.01-1.08.01l-.07-5.13zm1.79.03 1.17.03-.28 5.04c-.33 0-.67.01-1 .01l.11-5.08zm-8.8.2 1.38 4.92c-.23 0-.41 0-.56-.01l-1.8-4.06c.02-.4.21-.66.98-.85zm-.93 2.3 1.13 2.55c-.52-.15-1.05-.7-1.13-2.55zm2.87 2.62-1.42-5.02c.08-.01.15-.03.24-.04.24-.03.63-.06 1.12-.08l.72 5.14h-.66zm19.36-.8c-.12.25-.25.4-.4.43-.07.01-.2.03-.37.04.24-.61.67-1.71 1.07-2.74.03.79-.04 1.69-.3 2.27z" fill="#000000" stroke-width="none" opacity="1"></path></g></g></g><g id="svga-group-nose-single-move" transform="matrix(1,0,0,1,0,0)"><g id="svga-group-nose-single" transform="matrix(1,0,0,1,0,0)"><path id="SvgjsPath37470" d="M106.5 101.9c-.4-.3-.8.4-.4.7 1.3 1 2.6 2.7.6 3.7-1.2.6-2.5 1-3.7 1.4-2.9.9-5.6.7-8.5 0-.2 0-.3-.1-.6-.1h.7c.3 0 .3-.1.6-.1.2 0 .3-.3.3-.5l-.1-.2c0-.1 0-.2-.1-.3-.2-.3-.4-.5-.7-.8-.6-.5-1.4-.9-2.2-.8-.5.1-1 .3-1.2.9-.1.4 0 .9.4 1.2-.6-.3-1-.7-1-1.3.1-1.3 1.1-2.6 1.6-3.7 1.4-2.6 2.7-5.2 4.1-7.8.2-.5-.5-.9-.7-.4l-3 5.7c-.8 1.6-1.8 3.2-2.5 4.9-.5 1.1-.5 2.5.7 3.2.7.4 1.5.5 2.2.7.9.2 1.8.5 2.8.7 3.8.7 7.2-.1 10.7-1.5.9-.4 1.9-1 2.1-2.1.2-1.6-1-2.7-2.1-3.5z" fill="#000000" stroke-width="none" opacity="1"></path><path id="SvgjsPath37471" d="M102.6 107.5c.5 0 1.1-.1 1.5-.2.5-.1 1.1-.3 1.6-.6.9-.5.5-2-.5-2-.7 0-1.5.3-2.1.8-.3.2-.5.4-.7.7-.1.1-.1.1 0 0l-.1.1c-.1.1-.2.3-.2.4-.1.5.2.8.5.8z" fill="#000000" stroke-width="none" opacity="1"></path></g></g><g id="svga-group-hair-front" transform="matrix(1,0,0,1,0,0)"><path id="SvgjsPath37570" d="M91.7 42.5s-1.8 9.9-14.2 18.2-12.8 26.8-11 33.5c0 0-9.2-16.9-9.9-23.2-.7-6.3-1.3-22.3 12.1-34.2S89 30 89 30s2-4.3 11.3-4.9 26.6.2 37.4 16.4 9 36-.4 51.6c0 0 .5-17.4-5.4-24.5-5.9-7-19.2-4.9-29.9-12.4S91.7 42.5 91.7 42.5z" fill="#ffffff" stroke-width="none" opacity="1"></path><path id="SvgjsPath37571" d="M138.6 40.9c-8.1-12.1-21-17.8-38.3-16.8-7.3.4-10.4 3.1-11.6 4.6-2.4-1-9.5-2.6-20.7 7.4-12.9 11.5-13.3 26.9-12.4 35 .7 6.4 9.6 22.9 10 23.6.2.3.5.5.9.5.1 0 .2 0 .4-.1.5-.2.7-.7.6-1.2C66 88.4 65.7 69.8 78 61.6c8.3-5.5 12-11.8 13.6-15.5 1.2 2.7 3.8 6.6 9.9 11 5.3 3.8 11.3 5.2 16.6 6.5 5.5 1.3 10.2 2.4 13.1 5.8 5.6 6.6 5.2 23.6 5.2 23.8 0 .5.3.9.7 1s.9-.1 1.1-.4c10.4-17.5 10.5-37.7.4-52.9zm4.1 36.8c-1.6-10.5-11.7-16.9-21.3-20.3-7.6-2.7-15.8-4.3-22.7-8.7-4.9-3.1-5.3-6.4-5.9-10.9 4.9 6.2 14.5 7.7 21.6 10.5 8.8 3.5 28.6 10.5 29.5 22.1-.2 2.3-.6 4.8-1.2 7.3zm-82.5 1c-4.1-12.7 4.2-24.1 14.4-31 6.1-4.1 13.3-7.7 15-15.1 1.8 3.9 1.7 8.4-.8 12.2-2.2 3.3-5.9 5.2-9.2 7.3-4.9 3-9.4 6.4-12.9 11-4 5.3-6.1 12-5.3 18.3-.5-.9-.9-1.8-1.2-2.7zm69-25.1c-5.5-2.9-11.1-5.5-16.9-7.6-7-2.6-16.3-4.1-19.9-11.2-.1-.6-.2-1.2-.4-1.7 16.8 6.3 43.6 5.6 51.2 24.2.6 2.9.9 5.8.9 8.8-2.7-5.6-9.5-9.6-14.9-12.5zm12.7-1.4c-10.3-14.8-35.2-14.3-50.6-20.7-.2-.2-.3-.5-.5-.8 15.3 2.1 35.7-3.8 45.8 11 .1.1.2.2.3.2 0 .1.1.1.1.2 2.1 3.1 3.7 6.5 4.9 10.1zm-41.5-26.1c11.7-.7 21.2 1.8 28.5 7.4-11.1-5.5-26.1-2.2-38.3-4 1.3-1.2 4-3.1 9.8-3.4zm-31 11.4c8.5-7.6 14.2-8 17.1-7.5-5.6 5.8-13.3 8.5-19.5 13.6-3.2 2.7-5.8 5.9-7.8 9.5 1.7-5.3 4.8-10.8 10.2-15.6zM57.8 59c2.7-7 7.3-12.8 13.6-17 5.6-3.7 11.7-6.4 16.3-11.5.4.2.6.3.7.3.1 0 .1 0 .2.1-.8 7.5-7.5 11.2-13.3 14.8-4.2 2.7-8.1 5.7-11.2 9.5-4 4.8-6.3 10.7-6.3 16.7-.1-.4-.2-.8-.2-1.1-.3-3-.5-7.2.2-11.8zm19.1.9c-10.2 6.8-12.4 19.8-12.2 28.3-8.1-13.3 3.8-28 15.4-35 3.4-2.1 7-4.1 9.3-7.3-1.5 3.5-5 9-12.5 14zm55.9 8.1c-3.3-3.8-8.6-5.1-14.1-6.4-5.1-1.2-10.9-2.6-15.9-6.2-5.1-3.6-7.6-6.9-8.8-9.2.2.3.4.5.7.8 3.9 4 9.8 6.1 15 7.8 12.9 4.4 32.8 9.1 32 26.6-.9 2.7-1.9 5.3-3.3 7.9-.2-5.7-1.2-16.1-5.6-21.3z" fill="#000000" stroke-width="none" opacity="1"></path></g><g id="svga-group-glasses-single-move" transform="matrix(1,0,0,1,0,0)"><g id="svga-group-glasses-single" transform="matrix(1,0,0,1,0,0)"></g></g></g></g></g><rect id="svga-credit-rect" width="200" height="15" x="0" y="185" fill="#ecf0f1" opacity="0.5" style="display: none;"></rect><text id="svga-credit-text" font-family="Avenir Next, Roboto, Helvetica, Arial, sans-serif" font-size="10px" text-anchor="start" font-weight="400" size="10px" anchor="start" weight="400" fill="#333333" x="33.402061462402344" y="182.71133995056152" style="display: none;"><tspan id="SvgjsTspan36863" dy="13" x="33.402061462402344">Created on AvatarMaker.com</tspan></text></g></svg>