<svg xmlns="http://www.w3.org/2000/svg" version="1.1" width="600px" height="600px" viewBox="0 0 200 200" style="overflow:hidden!important;"><defs id="SvgjsDefs11461"></defs><g id="svga-group-wrapper"><g id="svga-group-backs-single"></g><g id="svga-group-humanwrap-move" transform="matrix(1,0,0,1,0,0)"><g id="svga-group-humanwrap" transform="matrix(1,0,0,1,0,0)"><g id="svga-group-hair-back-move" transform="matrix(1,0,0,1,0,0)"><g id="svga-group-hair-back" transform="matrix(1,0,0,1,0,0)"><path id="SvgjsPath12130" d="M143.6 74.9c-1-11.1-5.9-25.7-5.9-25.7C100.9 28.3 57.4 68 57.4 68s-1.4 28.8-3.5 41.7 1.4 24.3 1.4 24.3c-1.9 2.9-.4 8.4 1.1 12.3 9-1.2 17.1-.3 24.2 1.6.8 2.5 1.7 5.6 1.8 8.5.1 2.1 0 4.5-.1 6.7.1-.1.1-.2.1-.2s7.8-3.9 14.9-8.3c2.8-1.8 5.6-3.6 7.6-5.2 7.3-5.9 13.2-6.3 24.7-20.2 11.5-14 15-43.2 14-54.3z" fill="#ffffff" stroke-width="none" opacity="1"></path><path id="SvgjsPath12131" d="M92.1 149.9c-1.5-.1-3-.1-4.5 0-1.7.1-3.3.4-5 .8l-.3-1.2c.8-.2 1.7-.4 2.5-.5 2.4-.4 4.8-.5 7.3-.3.8.1.8 1.3 0 1.2zm24.5-13.9c-8.3 5.5-17.2 10.3-26 15.1-2.4 1.3-4.8 2.6-7.2 4l.1 1.3c2.8-1.6 5.6-3.2 8.4-4.7 4.2-2.4 8.4-4.8 12.7-7.2 5.7-3.2 11.6-6.3 16.7-10.4 9.4-7.5 14.2-18.9 13.3-30.9-.1-.8-1.3-.8-1.2 0 1 13.7-5.6 25.3-16.8 32.8zm-25.5 6.6c.8.1 1.1-1.1.3-1.2-4-.7-7.9 0-11.3 2.2-.3-.8-.7-1.6-1.1-2.4 1.8-3.3 5.1-5.4 8.8-5.6.8 0 .8-1.3 0-1.2-3.9.2-7.4 2.3-9.5 5.5-.7-1.4-1.4-2.8-2.2-4.3v-.1c0-3.6 1.6-6.8 4.6-8.8.7-.4 0-1.5-.6-1.1-2.8 1.9-4.6 4.7-5.1 7.9-.6-1.2-1.2-2.5-1.8-3.7 0-.1.1-.2.1-.3.1-4.2 1.3-8.1 3.7-11.6.5-.7-.6-1.3-1.1-.6-2.1 3.1-3.4 6.6-3.8 10.3-3.1-6.9-5-14.1-2.6-22 .2-.8-1-1.1-1.2-.3-3.4 11.1 1.6 20.6 6.6 30.1 0 .2.1.4.3.5 2 3.9 4 7.8 5.3 11.8l1.2.3-1.2-3.3c3.2-2 6.8-2.8 10.6-2.1zm39.8-12.8c-7.9 9.6-13.4 12.9-18.2 15.8-2.2 1.4-4.4 2.6-6.6 4.5-2 1.6-4.6 3.4-7.3 5-6.5 4-13.6 7.7-15.2 8.5-.3.6-.9 1.9-1.7 3.6.9-2.7 1.4-5.7 1.4-5.7 2.2-1.1 8-4.2 13.5-7.5 3-1.8 5.9-3.7 8-5.5 2.4-1.9 4.5-3.2 6.8-4.6 4.9-3 10-6 17.7-15.4 11-13.3 14.8-41.9 13.7-53.5-.9-9.9-5-22.8-5.7-25.1C103.2 31 62.8 65.1 58.9 68.5c-.2 3.5-1.5 28.2-3.3 40.5-.3 4.9.3 10.2 1.8 15.2.1.1.1.3.1.5 1.5 4.6 3.7 9 6.7 12.4.9 1 1.8 1.9 2.8 2.8.4-.1.9.3.8.7 2.4 2 5 3.9 7.1 6.2-.6-.1-1.2-.2-1.7-.3l-.9-.9-.1.1c-.3.2-.7.4-1 .6-.6-.1-1.3-.1-2-.2.7-.5 1.4-1 2.1-1.4-1.3-1.2-2.7-2.3-4.1-3.5-1.5 1.4-2.6 3-3.5 4.7h-1.4c.9-2.1 2.2-4 3.9-5.6-1.1-1-2.2-1.9-3.2-3-1.9 2.6-3 5.6-3.2 8.7-.4 0-.8.1-1.2.1.2-3.4 1.4-6.7 3.5-9.6 0-.1.1-.1.1-.1-.7-.8-1.3-1.6-1.9-2.5-1.7 3.8-2.6 7.9-2.7 12.1 0 .1.1.2.1.2l-2.1.3c-1.5-4-2.8-9.3-1.1-12.6-.6-2.2-3.2-12.6-1.3-24.4 2-12.6 3.5-41.3 3.5-41.6s.1-.5.3-.7c.4-.4 44.4-39.9 81.4-18.9.2.1.4.3.5.5 0 .2 4.9 14.8 6 25.9 1.3 12-2.6 41.4-14 55.1zm-71.6 2.6c-1.3.3-2.3 1.3-2.7 2.6 0 .2-.2.3-.3.4-.7 1.9-.3 4.7.5 7.5.4-3.5 1.4-6.8 2.9-10 0-.1.1-.1.1-.2l-.1-.1c0-.1-.1-.2-.2-.3 0 0-.1 0-.2.1zm-3.4-2.2c.2 1 .4 1.9.5 2.5.6-.7 1.5-1.2 2.5-1.5h.1c-.4-.8-.7-1.5-1.1-2.3-.8-.1-1.6.4-2 1.3zm.6-5.1c-.5-.1-1 .2-1.1.8 0 .1-.1.2-.1.3l.3 2.4c.5-.5 1.2-.8 1.8-.9-.3-.9-.6-1.7-.9-2.6zm-1.7-7.2c0 2.3.1 4.4.3 6.3.3-.2.7-.4 1.1-.4-.7-1.9-1.1-3.9-1.4-5.9zm4.4-7.6c.5.7 1.2 1.3 1.9 1.9.6.5 1.3-.6.6-1.1-1.1-.9-2-2-2.6-3.3 0-.6.1-1.3.2-1.9.8 1.3 1.8 2.4 3.2 3.1.7.4 1.3-.7.6-1.1-1.4-.8-2.5-2-3.2-3.5-.1-.2-.2-.3-.3-.3.4-2.1 1.2-4.1 2.3-6.2.4-.7-.7-1.3-1.1-.6-9.9 18.1 5.8 33.1 14.2 49.3.6.1 1.2.2 1.7.3-1.6-3.2-3.5-6.3-5.4-9.4-5.2-8-11.5-17.5-12.1-27.2zm2.6-6c.6 1 1.5 1.8 2.6 2.2.8.3 1.1-.9.3-1.2-.8-.3-1.5-.9-1.9-1.6-.3-.7-1.4-.1-1 .6z" fill="#000000" stroke-width="none" opacity="1"></path></g></g><g id="svga-group-humanbody-back"><path id="SvgjsPath11719" d="M86.5 122c0 18.8 2.7 50.3-8.1 58s-31.8 13.9-36.7 24.4-3.6 14.4-3.6 14.4h124.1s.6-8.1-4.2-15.4c-6.6-10.1-28.5-17.7-36.5-22.9-8.1-5.2-10.9-32.2-10.9-58.8l-24.1.3z" fill="#ffffff" stroke-width="none" opacity="1"></path></g><g id="svga-group-chinshadow-single"></g><g id="svga-group-humanbody-front"><path id="SvgjsPath11720" d="M163.4 220.1H37.2l-.3-.9c-.1-.5-1.3-4.7 3.6-15.3 3.4-7.3 13.6-12.4 23.5-17.4 5.1-2.5 9.9-5 13.6-7.5 8.6-6 8.1-29.8 7.7-47.1-.1-3.5-.1-6.8-.1-9.8v-1.3l26.7-.4v1.3c0 32 3.8 53.5 10.3 57.7 2.4 1.6 6 3.3 10.2 5.4 9.7 4.7 21.9 10.6 26.7 18 5 7.6 4.4 15.9 4.4 16.2l-.1 1.1zm-124.1-2.6h121.6c-.1-2.4-.6-8.2-4-13.4-4.4-6.7-16.2-12.5-25.6-17-4.3-2.1-8-3.9-10.5-5.5-9.8-6.3-11.4-38.8-11.5-58.6l-21.5.4c0 2.6.1 5.5.1 8.5.4 18.9.9 42.4-8.8 49.3-3.8 2.7-8.7 5.1-13.9 7.7-9.5 4.8-19.4 9.7-22.3 16.1-3.3 6.9-3.7 10.9-3.6 12.5z" fill="#000000" stroke-width="none" opacity="1"></path><path id="SvgjsPath11721" d="M76.8 188.7c4.8 2.3 10.4 3.9 15.7 2.9.4-.1.4-.7 0-.8-5.1-.9-10.2-1.4-15.2-3.2-.6-.2-1.1.8-.5 1.1z" fill="#000000" stroke-width="none" opacity="1"></path><path id="SvgjsPath11722" d="M108.3 191.1c2.4.3 4.9-.4 7.1-1.2 2.1-.8 4.3-1.7 5.8-3.4.5-.5-.1-1.2-.7-.9-2.1.9-3.9 2.3-6.1 3-2 .7-4.1 1-6.2 1.5-.6.1-.4.9.1 1z" fill="#000000" stroke-width="none" opacity="1"></path></g><g id="svga-group-clothes-single"><path id="SvgjsPath12064" d="M159.2 200.9c-4.8-5.4-15.5-11.4-21.3-14.4l.3-1.7 3.4 2.6-2.9-11.7 3 1.1-7.4-8 4.3-1.3-6.7-1.8 2.4-2.2-8.3-.6 4.5-2.4-13.1-.6 3.8-3.2-8.5.2 2.4 8.6-2.1 8.1 3.2-2.7s-3.5 8.6-3 8.5c.5-.2 3.2-.8 3.2-.8l-7.7 5.9 3.4.6-5.9 3 3.4.6-6.4 2.7-7.7-7.7h4.2l-12-5.4 3.7-1.3-6.7-2.6 3.7-1.3-3.2-5.3s2.1 1.1 1.9.6-1.3-8.1-1.3-8.1l-.5-4.3s-2.7-1.4-9.3-1l1.4 3-13.9 5 3.5 1.3-5.3 5.1 2.9.2-6.9 10.1 4.3-1.6-1.8 7.7 3-2.7-.2 2.9c-.6.3-4 1.8-9 4.1-5.5 2.6-9.2 3.9-11.8 7.5s-6.1 9.9-6.4 14.7.3 7.7.3 7.7H164c.4.1 1.9-11.5-4.8-19.1z" fill="#ffffff" stroke-width="none" opacity="1"></path><path id="SvgjsPath12065" d="M159.9 200.2c-3.9-4.5-11.6-9.2-17.6-12.5.1-.2.1-.4.1-.7l-2.4-9.8 1.3.5c.4.2.9 0 1.2-.4s.2-.9-.1-1.2l-6.3-6.8 2.8-.8c.4-.1.7-.5.7-1 0-.4-.3-.8-.8-.9l-5-1.3 1.1-1c.3-.3.4-.7.3-1.1s-.5-.6-.9-.7l-4.9-.4 1.5-.8c.4-.2.6-.7.5-1.1s-.5-.8-.9-.8l-10.6-.5 1.9-1.6c.3-.3.4-.7.3-1.1-.2-.4-.5-.6-1-.6l-8.5.2c-.3 0-.6.1-.8.4s-.2.6-.2.9l2.3 8.4-2 7.9c-.1.4.1.9.4 1.1.4.2.8.2 1.2-.1l.1-.1c-2 5.1-1.8 5.3-1.4 5.8l.2.2-4.5 3.5c-.3.2-.4.6-.4 1s.4.7.8.8l.5.1-3.3 1.7c-.4.2-.6.6-.5 1s.4.8.8.8h.1l-2.8 1.2-5.5-5.5h1.7c.5 0 .9-.3 1-.8.1-.5-.1-.9-.6-1.1l-9.7-4.4 1.3-.5c.4-.1.7-.5.7-.9s-.2-.8-.6-.9l-4.2-1.6 1.1-.4c.3-.1.5-.3.6-.6.1-.3.1-.6-.1-.9l-1.8-3.1c.1 0 .2-.1.3-.2.3-.3.5-.8.3-1.1-.1-.4-.7-4.4-1.2-8l-.5-4.3c0-.3-.2-.6-.5-.8-.1-.1-3.1-1.6-9.8-1.1-.3 0-.6.2-.8.5-.2.3-.2.6 0 .9l1 2-12.9 4.6c-.4.1-.7.5-.7.9s.3.8.7.9l2 .7-4.1 4c-.3.3-.4.7-.2 1.1.1.4.5.6.9.6l1.1.1-5.9 8.6c-.2.4-.2.8 0 1.2s.7.5 1.1.3l2.6-1-1.3 5.9c-.1.4 0 .7.3.9-1.5.7-3.5 1.6-5.8 2.7-.7.3-1.4.7-2.1 1-4.5 2-7.7 3.5-10.1 6.9-3 4.2-6.3 10.5-6.5 15.3-.2 4.9.3 7.8.4 7.9.1.5.5.8 1 .8h127.9c.5 0 .9-.4 1-.9.2-.4 1.7-12-5.3-19.9zm-50-10.6c.4-.2.7-.6.6-1s-.4-.8-.8-.9l-.5-.1 3-1.6c0 .1.1.1.2.1 1.9-.6 3.8-1.2 5.6-2 .2-.1.1-.4-.1-.3-1.7.4-3.4 1.1-5 1.8.2-.2.2-.5.2-.7-.1-.4-.4-.8-.8-.8l-1.2-.2 4.7-3.6.1.1c1-.1 2.3-.5 2.9-1.3.1-.2 0-.4-.2-.3-.4.2-.8.5-1.2.8l-.9.3.6-.4c.4-.3.5-.8.3-1.2-.2-.4-.7-.6-1.1-.5-.2.1-.9.2-1.6.4.6-1.6 1.6-4.3 2.6-6.7.2-.4 0-.9-.3-1.2-.4-.3-.9-.2-1.2.1l-.1.1c.3-1 .6-1.9.8-2.9 0-.1-.2-.2-.2-.1-.3 1-.6 2-.8 3 0 .1.1.1.1.2l-.6.5 1.3-5.1v-.5l-2.1-7.4 4.3-.1-1.7 1.4c-.3.3-.4.7-.3 1.1s.5.7.9.7l9.5.5-1.3.7c-.4.2-.6.6-.5 1.1s.5.8.9.8l6 .5-.7.7c-.2.2-.3.4-.3.7-.6-.2-1.1-.3-1.6-.5-.3-.1-.4.3-.1.4.6.2 1.3.5 2 .7.1.1.3.3.5.3l3.2.9-.9.3c-.3.1-.6.4-.7.7v.5c-.6-.2-1.1-.4-1.7-.6-.2-.1-.4.3-.2.4.8.4 1.7.9 2.5 1.2l4.4 4.7c-.2 0-.3.1-.4.2-.3.2-.4.6-.3 1l2.2 8.9-1.1-.8c-.3-.2-.6-.3-1-.1-.1.1-.2.1-.3.2-.5-1.6-1.2-3.3-1.8-4.9-.1-.3-.6-.2-.5.1.6 1.8 1.1 3.9 1.9 5.7l-1.4 8.7-.1-.2c.3-1.7-.2-3.6-.8-5.1-.1-.3-.6-.2-.5.1.5 1.4.6 2.7.8 4.1-.2-.1-.4-.2-.6-.2-.4 0-.7.2-.9.5l-.5.9c-.1-1.3-.2-2.6-.2-3.8 0-.3-.4-.3-.4 0 0 1.6-.1 3.3 0 4.9l-1.7 3c.1-1.9-.2-3.9-.4-5.9 0-.3-.4-.3-.4 0 .1 2.2 0 4.4.4 6.6l-.9 1.7v-.5c0-.4-.3-.8-.7-.9-.1-1.5-.5-3.1-1-4.4-.1-.2-.5-.1-.4.1.3 1.1.6 2.2.7 3.3 0 .3.1.6.1 1-.2.1-.3.2-.5.4l-3.1 4.1c.6-1.1 1.1-2.2 1.5-3.3.1-.2-.3-.4-.4-.2-.9 1.4-1.5 2.9-2.2 4.4-.1-.1-.1-.1-.1-.2-.1-.2-.5 0-.3.2l.3.6-1.1 1.5-.3-1.1c0-.1 0-.1-.1-.2.7-1.3 1.4-2.7 1.9-4 .1-.2-.2-.3-.4-.2-.7 1.2-1.4 2.5-2 3.8-.1 0-.1-.1-.2-.1-.3-.1-.7 0-.9.2l-5.8 4.8c.8-1.8 1.3-3.8 1.9-5.7.1-.3-.3-.4-.4-.1-.7 1.9-1.6 3.9-2 5.9l-1-2.7-.8-3 .8.1c.4.1.8-.1 1-.4.2-.3.2-.8 0-1.1-.2-.3-.4-.7-.8-1.2.5-1 1.1-2 1.7-3.1.1-.2-.1-.4-.3-.2-.7.8-1.3 1.7-1.8 2.7-.5-.7-1-1.6-1.5-2.3.1 0 .2 0 .3.1h.2c.4.1.8-.2 1-.6.2-.4.1-.8-.2-1.1.5-1 1.1-1.9 1.7-2.8.1-.1-.1-.3-.2-.2-.8.7-1.4 1.7-1.8 2.7l-1-.7c.3-.6.6-1.2 1-1.8.5-.7 1.1-1.2 1.7-1.8.1-.2 0-.4-.2-.3-1.3.8-2.2 2.2-2.8 3.6l-5.7-3.9 4.6-2.7zm-32.3-33.5zm-17.3 21.7 3.9-5.8 2.1-2.1c.1-.2 0-.4-.2-.3-.2.1-.3.3-.5.4.1-.2.1-.5-.1-.7-.2-.3-.5-.5-.8-.6h-.6l3.6-3.5c.2-.2.3-.6.3-.9-.1-.2-.2-.5-.4-.6 1.2-.5 2.4-.6 3.6-.8.2 0 .2-.4-.1-.4-1.4-.2-2.9.3-4.2 1l-.5-.2L73 161c.9-.1 1.7-.2 2.6-.4.2-.1.1-.3 0-.3h-.5l2.7-1c.3-.1.5-.3.6-.6.1-.3.1-.6 0-.8l-.6-1.3c1 .3 2.1.8 3.1 1 .2 0 .4-.2.2-.4-.9-.5-2.1-.7-3.1-1 3.5-.1 5.6.4 6.4.8l.4 3.8c.1.8.2 1.6.4 2.6-.7-.7-1.4-1.4-2-2.1-.2-.2-.6.1-.3.3.8.9 1.6 1.8 2.5 2.6.2 1.2.4 2.3.5 3.2-.1 0-.1-.1-.2-.1 0 0-.1 0-.1-.1-.3-.5-.6-.9-.9-1.4-.2-.3-.6 0-.4.3.2.4.4.8.7 1.1-.1.1-.2.1-.3.2-.3.3-.4.8-.1 1.2l2.6 4.2-2.5.9c-.4.1-.7.5-.7.9s.2.8.6.9l4.2 1.6-1.1.4c-.4.1-.7.5-.7.9s.2.7.5.9c.6 1.5 1.6 2.7 3 3.4.2.1.4-.2.2-.3-1-.7-1.9-1.6-2.5-2.7l7.3 3.3c-.3.1-.5.3-.6.6-.1.2-.1.5 0 .7-.6-.3-1.2-.7-1.8-1.2-.2-.2-.6.1-.4.4.7.8 1.8 1.5 2.8 1.8l7.2 7.2s.1.1.2.1l6 4.1-.2.2c-.2.3-.2.9.2 1.4.3.3 1.3 1.8 2.4 3.5h-.1c-.3-.1-.7.1-.9.3-.2.3-.3.6-.2.9l1.2 4.4-1 7.3c-.3-1.5-.9-3.1-1.3-4.6-.1-.2-.4-.1-.4.1.4 1.4.7 3 1.2 4.4-1.4-2.3-3.1-5-3.5-5.5-.3-.3-.6-.5-.9-.5-.2 0-.3 0-.5.1-.4.2-.7.4-.6 1.4l-1.4-1.8c-.3-.4-.8-.5-1.2-.3-.4.2-.6.7-.5 1.1l.2.7-2.3-2.3c-.3-.3-.8-.4-1.1-.2-.4.2-.6.6-.6 1l.2 2c-4-3.7-8.9-8.4-9.4-9-.3-.4-.9-.7-1.3-.5-.8.4-.9.4.2 3.9l-4.8-4.5c-.3-.3-.8-.4-1.2-.1s-.6.7-.5 1.1l.3 1.4-7.7-9c-.3-.3-.7-.4-1.1-.3-.4.2-.7.6-.6 1l.2 3.6-1-1.6c-.3-1.6-.7-3.2-1.2-4.7-.1-.3-.4-.1-.4.1.1 1 .4 2 .6 3l-1.7-2.9c-.3-1.3-.6-2.6-1-3.9-.1-.2-.3-.1-.3.1.1.8.3 1.6.4 2.4l-.5-.9c-.2-.3-.5-.5-.8-.5-.3 0-.7.1-.9.4l-1 1.5.4-7.6c0-.4-.2-.8-.6-1-.4-.2-.8-.1-1.1.2l-.6.5.3-1.4.1-.1c.3-1.9 1.2-3.4 2-5.1.1-.2-.2-.4-.3-.2-.5.5-.8 1.1-1.1 1.7-.1-.2-.2-.3-.3-.4-.3-.2-.7-.3-1-.2l-1.4.5zm49.8 37.1v.2c-.1-.1-.1-.2 0-.2-.1 0-.1 0 0 0zm-47.9-28.5v-1 1zm-9.7 5.6c.7-.3 1.4-.6 2.1-1 3.3-1.6 5.9-2.7 7.4-3.4l-.4 6.6c0 .4.2.9.7 1s.9 0 1.2-.4l2.1-3.2 6.2 10.8c.2.4.7.6 1.2.5.4-.1.7-.6.7-1l-.3-4.9 8.4 9.9c.3.4.8.4 1.2.2.4-.2.6-.7.5-1.1l-.5-2.2 5.3 4.9c.3.3.8.4 1.2.1.4-.2.6-.7.4-1.2-.3-.9-.6-1.8-.9-2.6 2.7 2.6 6.7 6.3 8.8 8.3.3.3.8.4 1.1.2.4-.2.6-.6.6-1l-.2-1.9 3 2.9c.3.3.8.4 1.2.1.3-.2.4-.4.5-.7l1.3 1.6c.3.4.8.5 1.2.3.3-.1.5-.4.5-.7.9 1.5 1.9 3.1 2.6 4.3.2.3.5.5.9.5h.2c.4-.1.7-.4.8-.9l.9-6.9.2.5c.1.3.4.5.7.6.3.1.7 0 .9-.2l6.1-5.1.4 1.7c.1.4.4.7.8.7.4.1.8-.1 1-.4l5-6.7.1 1.1c0 .4.4.8.8.9s.9-.1 1.1-.5l4.8-8.4.9 1.9c.2.4.6.6 1.1.5.4-.1.8-.4.8-.8l1.4-9.1c4.3 2.3 10.6 5.8 15.3 9.5-2.3 1.7-8.8 7.6-10.5 21.6H59.7c-1.4-13.7-9.4-22.3-11.9-24.7 1.4-.6 2.9-1.3 4.7-2.2zm-15.4 20.4c.2-4.4 3.3-10.2 6.2-14.2.8-1.1 1.7-2 2.8-2.8 1.7 1.6 10.2 10.1 11.6 23.6H37.3c-.2-1.1-.4-3.4-.2-6.6zm126.4 6.7h-18c.2-1.3.4-2.5.6-3.6.6 1.6 2.2 3.1 4 3.2.2 0 .3-.3.1-.4-1.6-.7-2.8-1.5-3.7-3.1-.1-.1-.2-.1-.3-.1 2.5-11.4 8.4-15.7 9.4-16.4 1.1.9 2.1 1.9 2.9 2.8 5.2 6.1 5.1 14.8 5 17.6zm-90.1-55.2c2-.9 3.9-1.9 5.8-2.9.3-.1 0-.6-.2-.4-1.9.9-3.8 1.9-5.7 3.1-.2.1 0 .3.1.2zm-6.3 8.9c-.1.1.1.3.2.2 1.5-1.8 3-3.6 4.8-5.1.2-.2-.1-.5-.3-.3-1.8 1.4-3.6 3.2-4.7 5.2zm-.6 8.8c.8-2.5 1.7-4.8 3.2-6.9.1-.2-.2-.4-.3-.2-1.5 2.1-2.7 4.4-3.1 7-.1.2.2.3.2.1zm3.3-2c-.7 2.5-1.5 5-2 7.5-.1.3.3.4.4.1.8-2.4 1.4-5 2-7.5 0-.3-.4-.4-.4-.1zm1.8 3.5c-.6 2.4-.9 4.9-.4 7.2 0 .2.4.2.4-.1-.1-2.4-.1-4.7.4-7.1.1-.1-.3-.2-.4 0zm3 3c.1-.3-.4-.4-.5-.1-.4 2.4-.4 5 .5 7.2.1.2.5.2.4-.1-.4-2.4-.7-4.6-.4-7zm3.9 9.3c-.7-2.1-1.4-4-1.7-6.2-.1-.4-.6-.2-.5.1.3 2.1.8 4.3 1.9 6.2 0 .3.4.2.3-.1zm6.2 3.6c.2.1.4-.1.2-.2-1.6-1.8-2.8-3.7-3.3-6.1-.1-.3-.5-.2-.4.1.5 2.3 1.6 4.7 3.5 6.2zm1.9-2.8c-.1-.2-.5-.1-.4.1.7 1.8 1.6 3.7 3.1 5 .1.1.4 0 .3-.2-1.2-1.6-2.2-3-3-4.9zm5.8 4.6c-.7-.7-1.4-1.6-1.9-2.4-.2-.2-.5 0-.4.2 1 1.6 2.5 3.5 4.2 4.5.2.1.4-.2.3-.3-.8-.8-1.6-1.4-2.2-2zm4.8 1.7c-.6-.7-1.3-1.3-1.9-2-.2-.2-.6.1-.4.4.6.7 1.2 1.3 1.9 2 .6.6 1.1 1.2 1.8 1.7.1.1.3-.1.2-.2-.4-.8-1-1.3-1.6-1.9zm3.7.5c-.2-.3-.6.1-.4.4 1.3 1.6 2.5 3.5 4 4.9.2.2.5-.1.3-.3-1-1.8-2.6-3.4-3.9-5zm-25.3-32c-.1.2.1.3.3.1 1.3-1.6 2.4-3.3 4-4.7.2-.2-.1-.5-.3-.3-1.6 1.5-3.1 3.1-4 4.9zm.7 2.2c.2-.3-.2-.5-.4-.2-1.1 1.6-2 3.5-2.3 5.4 0 .2.3.3.4.1.6-1.8 1.3-3.6 2.3-5.3zm.3 9.4c0-1.6 0-3 .6-4.5.1-.3-.3-.4-.4-.1-.6 1.4-1 3.2-.5 4.7-.1.2.3.2.3-.1zm2.4-.8c0-.2-.4-.3-.4-.1-.4 2.8.2 5.8 2.1 8 .1.1.4 0 .3-.2-1.5-2.4-2.3-4.8-2-7.7zm6.7 11.5c.2.1.4-.1.2-.3-1.8-1.9-3.2-3.9-3.4-6.6 0-.3-.5-.3-.5 0 .2 2.7 1.3 5.5 3.7 6.9zm1.1-4.4c-.1-.3-.6-.2-.6.1.3 2.4 1.3 5 3.2 6.5.2.2.6-.1.4-.3-1.4-2-2.6-3.8-3-6.3zm8.6 9.2c.2.1.4-.2.3-.3-1.5-1.7-2.9-3.1-3.8-5.3-.2-.4-.8-.2-.6.2.8 2 2.1 4.2 4.1 5.4zm1.3-2.3c-.2-.3-.7 0-.5.3 1 1.3 1.9 2.8 3.1 3.9.2.1.4 0 .3-.2-.8-1.4-1.9-2.7-2.9-4zm6.5 6.4c-.5-1.3-1.4-2.5-2.1-3.7-.2-.3-.6 0-.4.3.7 1.2 1.3 2.6 2.2 3.6.2.1.4 0 .3-.2zm2.6.9c.6 1.4 1.1 3 1.9 4.4.1.2.4.1.4-.2-.4-1.5-1.2-3-1.8-4.4-.1-.3-.6-.1-.5.2zm-4.6-10.8c.2.1.4-.2.2-.4-2.1-1.5-4.4-2.6-6.7-3.8-.3-.2-.6.3-.3.4 2.2 1.4 4.4 2.8 6.8 3.8zm-2 .9c1.7 1.2 3.4 2.7 5.2 3.7.2.1.5-.2.3-.4-1.6-1.4-3.4-2.6-5.2-3.9-.3-.2-.7.3-.3.6zm5 4.3c1.3 1.4 2.1 3.1 3.2 4.6.2.2.5.1.4-.2-.6-1.8-2-3.5-3.2-4.9-.2-.2-.7.2-.4.5zm2.8 5.5c.8 1.6 1.2 3.3 1.8 5.1.1.2.4.2.4-.1-.2-1.9-.9-3.7-1.8-5.3-.1-.3-.6-.1-.4.3zm-23.6-18.9c-.5-1.9-.7-3.7-.3-5.6.1-.4-.5-.5-.5-.1-.4 2-.4 4 .5 5.9.1.1.3 0 .3-.2zm5.8 3.7c-1.1-1.7-2.1-3.1-2.8-5.1-.1-.3-.6-.2-.5.1.5 1.9 1.4 3.9 2.9 5.2.3.3.6.1.4-.2zm3.6 1.9c.2.2.6-.1.4-.3-.6-.8-1.3-1.5-1.8-2.4-.6-.9-1.1-1.9-1.5-2.9-.1-.4-.7-.2-.6.2.7 1.9 1.8 4.1 3.5 5.4zm-15.5 7.2c.4.9.8 1.9 1.3 2.8.1.2.4.1.4-.1-.3-1-.8-1.9-1.2-2.9-.2-.2-.6 0-.5.2zM65 188.2c.1-1.7.2-3.4.2-5.1 0-.2-.3-.2-.4 0-.2 1.7-.2 3.4-.2 5.1 0 .2.4.2.4 0zm4.7-22.8c-1.5.5-2.9 1.5-4.1 2.6-.2.2.1.6.3.3 1.2-1 2.5-1.8 3.9-2.6.2-.1.1-.4-.1-.3zm15.4 7.5c.1.2.3.1.3-.1.2-1.4-.6-2.9-1.3-4.1-.2-.3-.7 0-.5.3.8 1.3 1.1 2.6 1.5 3.9zm-2.1 1.6c.2-1.2.1-2.4.1-3.6 0-.3-.5-.3-.5 0 0 1.2-.1 2.4.1 3.6 0 .2.3.2.3 0zm37.8 26.7c-.9 1.4-1.5 2.9-2.2 4.3-.1.2.2.5.4.2.8-1.4 1.6-2.9 2.1-4.4 0-.2-.2-.3-.3-.1zm17.6-18.9c.1.2.4.1.3-.1-.5-2.2-1.7-4.2-3-6-.1-.2-.4 0-.3.2 1.3 1.8 2.1 3.8 3 5.9zm-31.3 10.5c2.2-1.5 4.5-2.9 6.5-4.6.1-.1 0-.3-.2-.2-2.3 1.4-4.4 3-6.5 4.6-.1.1 0 .3.2.2zm11.7-12.1c-1.6.8-3.2 1.6-4.9 2.1-.2.1-.1.4.1.3 1.8-.4 3.6-1.1 5-2.2.2-.1 0-.3-.2-.2zm.5-7.3c-1.1 1.1-2 2.5-3 3.7-.1.2.1.4.2.2 1-1.2 2.1-2.4 3-3.8.1 0-.1-.2-.2-.1zm-2.7.8c.6-1.4 1.3-2.8 1.8-4.2.1-.2-.2-.3-.3-.1-.7 1.3-1.2 2.8-1.8 4.1-.2.2.1.5.3.2zm1.6-11.8c1.5-.5 2.8-.2 4.2.4.2.1.4-.2.2-.4-1.3-1-3.1-1.1-4.6-.5-.2.2-.1.6.2.5zm3.5 2.5c1.4.4 2.9.9 4.4 1 .3 0 .3-.4.1-.4-1.4-.5-2.9-.8-4.3-1.1-.4 0-.5.4-.2.5zm3.3 2.2c1.9.9 3.3 2.2 4.9 3.5.1.1.4 0 .3-.2-1.2-1.7-3.2-2.9-5-3.7-.3-.1-.5.3-.2.4zm3.4 3.1c-.2-.2-.5.1-.3.3 1.8 1.8 3.2 3.9 4.8 5.9.1.2.4-.1.3-.2-1.1-2.3-3-4.3-4.8-6zm1.7 4.8c-.2-.3-.6 0-.4.2 1.1 1.9 2.1 3.9 3.5 5.5.1.2.4-.1.3-.2-.9-1.9-2.2-3.7-3.4-5.5zm1.5 5.3c.2 1.8.4 3.6.8 5.3.1.2.4.2.4-.1-.1-1.8-.5-3.6-.8-5.4 0-.2-.4-.1-.4.2zm-.8 4.1c-.1 1.4-.2 2.8-.1 4.2 0 .2.3.2.3 0 .2-1.4.2-2.8.3-4.2 0-.3-.5-.3-.5 0zm-1.4.8c.2 1.9-.2 3.6-.5 5.5 0 .1.2.2.2.1.8-1.7.9-3.8.7-5.6 0-.3-.4-.3-.4 0zm-1.7 2.7c-.4 2-.9 4-1.2 6 0 .2.3.2.3 0 .6-1.9.8-4 1.2-5.9.1-.2-.2-.3-.3-.1zm-2.7 3.4c-.4 1.9-1.1 4-1.1 6 0 .2.2.2.3 0 .7-1.9.9-4 1.2-5.9.1-.3-.3-.4-.4-.1zm-2.1 2.5c-.9 1.5-2 3-2.7 4.6-.1.2.2.4.3.2 1.1-1.4 1.9-3.1 2.8-4.6.1-.2-.2-.5-.4-.2zm-3.8 3.8c-.4.8-.9 1.4-1.4 2.1-.5.6-1.1 1.1-1.6 1.7-.1.1 0 .3.2.2 1.4-.8 2.5-2.4 3.3-3.8 0-.3-.3-.5-.5-.2zm12.9-26.1c1 .4 2 .9 3 1.1.2 0 .3-.2.1-.3-.9-.5-2-.9-3-1.2-.3-.2-.4.3-.1.4zm-16.4-13.1c-.1 1.3-.1 2.6.1 4 0 .2.2.2.3 0 .2-1.3.1-2.6.1-4-.1-.2-.5-.2-.5 0zm3.2 7.6c-.2 1.4-.3 2.9-.2 4.4 0 .2.4.3.4.1.2-1.4.2-3 .2-4.4-.1-.4-.4-.4-.4-.1zm1.8 1.9c-.1 1.7-.3 3.4-.2 5.1 0 .2.3.2.3 0 .3-1.7.2-3.5.2-5.2 0 0-.3 0-.3.1zm2.7 7.4c-.4-2.1-.8-4.2-.8-6.3 0-.3-.4-.3-.4 0-.2 2.2 0 4.4.9 6.4.1.1.3 0 .3-.1zm1-4.1c.3 1.7.5 3.5 1 5.1.1.2.4.2.4-.1-.1-1.7-.6-3.5-1-5.2-.1-.2-.5-.1-.4.2zm3.1 5.7c-.1-1.3-.4-2.6-.6-3.8 0-.3-.5-.2-.4.1.2 1.2.3 2.6.6 3.8.1.1.4.1.4-.1zm-.9 2.5c0-.3-.4-.3-.4 0 .2 2.1 0 4.1-.3 6.1 0 .2.2.2.3.1.5-2 .6-4.1.4-6.2zm-2 2.6c-.1 2.4-.7 4.6-1.2 6.9-.1.2.3.4.4.1.9-2.2 1.2-4.7 1.2-7 0-.2-.4-.2-.4 0zm-3.6 8.8c1.2-1.8 1.9-4 2.2-6.2 0-.2-.3-.3-.4-.1-.4 2.2-1.2 4.1-2.1 6.1-.1.2.1.4.3.2zm-4.2 2.2c1.4-1.2 2.4-3.1 3.1-4.8.1-.2-.3-.3-.4-.1-.7 1.8-1.8 3.2-2.9 4.7-.2.2 0 .3.2.2zm-1.8-.6c.5-.7.8-1.6 1.2-2.4.1-.3-.2-.5-.4-.2-.4.8-.9 1.6-1.2 2.4 0 .3.3.4.4.2zm5.2-7.7c.7-1.2 1.3-2.6 1.8-3.9.1-.2-.3-.5-.4-.2-.6 1.3-1.3 2.6-1.7 4-.1.1.2.2.3.1zm.8-6.4c.3-.8.3-1.7.4-2.6.1-.3-.4-.4-.5-.1-.1.9-.4 1.8-.4 2.6.1.3.4.3.5.1zm-75.8 39c-2.6-.6-4.5-1.7-6.5-3.5-.2-.2-.4.1-.2.2 1.6 2 4.2 3.4 6.7 3.6.1 0 .1-.2 0-.3zm5.5.2c-4.1-1.4-7.7-3.3-10.7-6.5-.2-.2-.5.1-.3.3 2.9 3.1 6.7 5.6 10.9 6.5.3.1.3-.2.1-.3zm4.4-1.3c-5.3-1.8-9.9-4.4-13.9-8.5-.2-.1-.4.1-.2.2 3.7 4.1 8.5 7.4 14 8.6.2.1.3-.2.1-.3zm-3.7-4.5c.2 0 .3-.2.1-.3-3.6-1.6-6.7-3.2-9.4-6.2-.2-.2-.5.1-.3.3 2.5 2.9 5.9 5.5 9.6 6.2zm-1.8-5.5c.2.1.3-.2.1-.3-2.3-1.2-4.4-2.4-6.3-4.2-.2-.2-.5.1-.3.3 1.9 1.8 4.1 3.4 6.5 4.2zm98.1 5.4c-.1-.2-.5 0-.4.2 1.4 2.9 4.1 5.5 7.3 6.4.2.1.3-.2.1-.3-2.9-1.5-5.3-3.3-7-6.3zm2.6-2.5c-.2-.2-.6 0-.4.2 2.3 3.4 5.4 6.6 9.3 8.2.2.1.3-.2.1-.3-3.5-2.3-6.6-4.6-9-8.1zm1.4-3.6c-.1-.2-.5 0-.4.2 2.3 4 5.8 8.3 10 10.4.2.1.4-.1.2-.3-3.7-3.2-7.1-6-9.8-10.3zm2.4-2c-.2-.2-.6 0-.4.2 1.8 2.4 4 5 6.6 6.4.2.1.5-.2.3-.4-1.1-1-2.3-1.8-3.4-2.8-1.1-1-2.1-2.1-3.1-3.4z" fill="#000000" stroke-width="none" opacity="1"></path></g><g id="svga-group-head" transform="matrix(1,0,0,1,0,0)"><g id="svga-group-ears-left-move" transform="matrix(1,0,0,1,0,0)"><g id="svga-group-ears-left" transform="matrix(1,0,0,1,0,0)"><path id="SvgjsPath11939" d="M62.9 81.4s-3-4.7-6.1-5.6-6.6 2.1-6.1 7.8c.6 5.7 8.7 18.9 15.9 19.7 6.2.7-1.1-18.5-3.7-21.9z" fill="#ffffff" stroke-width="none" opacity="1"></path><path id="SvgjsPath11940" d="M66.5 104.2c-7.7-.8-16.1-14.5-16.7-20.4-.3-3.4.8-6.4 3-7.9 1.3-.9 2.9-1.2 4.4-.8 3.3.9 6.2 5.3 6.6 5.9 2.1 2.7 8.5 18 5.5 22-.5.7-1.4 1.1-2.3 1.1-.3.1-.4.1-.5.1zM53.9 77.1c-1.7 1.1-2.5 3.6-2.3 6.4.5 5.4 8.5 18.3 15 18.9.4 0 .7 0 .9-.3 2.1-2.9-3.2-17.2-5.5-20.3v-.1c-.8-1.2-3.3-4.6-5.5-5.2-.2-.1-.5-.1-.7-.1-.7.2-1.3.4-1.9.7z" fill="#000000" stroke-width="none" opacity="1"></path><path id="SvgjsPath11941" d="M55.5 79.3c2.6 1.4 5 5.6 6.2 9.6v.1c0 .3-.2.4-.3.1-.4-1.2-1-1.2-1.7 0-.2.7-.1 1.5.1 2.3.2.7.5 1.4.8 1.9.6 1.2 1.4 2 2.1 3 .2.3 0 .7-.2.5-1.6-1-3.9-4.6-3.4-7.6.2-1.4 1.1-2.2 1.8-1.7-.9-2.1-1.9-3.9-3.2-5.4-.7-.8-2.3-2.7-3.1-2.3-1.5.6-.7 4.6-.5 6.4 0 .3-.2.4-.3.1-1-2.9-1.1-8.5 1.7-7z" fill="#000000" stroke-width="none" opacity="1"></path><path id="SvgjsPath11942" d="M61.9 97.8c-2.8-.9-4.8-4.6-6-8.8-.7-2.5-2.1-8.3.6-8.2.2 0 .3.5.1.6-2.5 1.1.2 8.9 1 10.7 1.1 2.6 2.5 4.3 4.3 5.2.2.2.2.6 0 .5z" fill="#000000" stroke-width="none" opacity="1"></path></g></g><g id="svga-group-ears-right-move" transform="matrix(1,0,0,1,0,0)"><g id="svga-group-ears-right" transform="matrix(1,0,0,1,0,0)"><path id="SvgjsPath11943" d="M137.1 81.4s3-4.7 6.1-5.6 6.6 2.1 6.1 7.8c-.6 5.7-8.7 18.9-15.9 19.7-6.2.7 1.1-18.5 3.7-21.9z" fill="#ffffff" stroke-width="none" opacity="1"></path><path id="SvgjsPath11944" d="M133.1 104.2c-1 0-1.8-.4-2.3-1.1-2.9-4 3.4-19.3 5.5-22 .4-.6 3.3-5.1 6.6-5.9 1.5-.4 3-.1 4.4.8 2.2 1.5 3.3 4.4 3 7.9-.6 5.9-9 19.6-16.7 20.4-.2-.1-.3-.1-.5-.1zm11.1-27.6c-.2 0-.5 0-.7.1-2.2.6-4.7 3.9-5.5 5.2v.1c-2.4 3-7.7 17.4-5.5 20.3.2.3.4.4.9.3 6.5-.7 14.5-13.6 15-18.9.3-2.9-.6-5.3-2.3-6.4-.6-.5-1.2-.7-1.9-.7z" fill="#000000" stroke-width="none" opacity="1"></path><path id="SvgjsPath11945" d="M144.5 79.3c-2.6 1.4-5 5.6-6.2 9.6v.1c0 .3.2.4.3.1.4-1.2 1-1.2 1.7 0 .2.7.1 1.5-.1 2.3-.2.7-.5 1.4-.8 1.9-.6 1.2-1.4 2-2.1 3-.2.3 0 .7.2.5 1.6-1 3.9-4.6 3.4-7.6-.2-1.4-1.1-2.2-1.8-1.7.9-2.1 1.9-3.9 3.2-5.4.7-.8 2.3-2.7 3.1-2.3 1.5.6.7 4.6.5 6.4 0 .3.2.4.3.1 1-2.9 1.1-8.5-1.7-7z" fill="#000000" stroke-width="none" opacity="1"></path><path id="SvgjsPath11946" d="M138.1 97.8c2.8-.9 4.8-4.6 6-8.8.7-2.5 2.1-8.3-.6-8.2-.2 0-.3.5-.1.6 2.5 1.1-.2 8.9-1 10.7-1.1 2.6-2.5 4.3-4.3 5.2-.2.2-.2.6 0 .5z" fill="#000000" stroke-width="none" opacity="1"></path></g></g><g id="svga-group-faceshape-wrap" transform="matrix(1,0,0,1,0,0)"><g id="svga-group-faceshape-single"><path id="SvgjsPath11926" d="M138.2 58.2c-2-10.8-13.3-27.4-37.2-27.4S69.1 43.5 65.5 53c-3 8.1-3 21.3-3 21.3s3 33.8 5.2 39.8c2.1 5.9 18.2 24.2 20.8 25.9 2.5 1.7 17.4 3 19.1 2.5 1.7-.4 26.3-26.3 27.6-29.7 1.3-3.4 4.4-32.9 4.3-38.5-.1 0 .1-8.4-1.3-16.1z" fill="#ffffff" stroke-width="none" opacity="1"></path><path id="SvgjsPath11927" d="M106.3 143.9c-4.4 0-16.1-1.1-18.6-2.8-2.8-1.8-19.1-20.3-21.3-26.5-2.2-6-5.1-38.7-5.2-40.1v-.1c0-.6 0-13.6 3.1-21.8 5.8-15.5 17.8-23 36.7-23 10.9 0 20.5 3.4 27.7 10 5.5 5 9.6 11.9 10.8 18.5 1.4 7.6 1.2 15.7 1.2 16.4.1 6-3.1 35.4-4.4 38.9-.9 2.4-10 12.3-13.9 16.4-3.3 3.5-6.6 6.9-9.1 9.4-4.5 4.4-5 4.6-5.4 4.7h-1.6zM63.8 74.3c.1 1.6 3.1 33.8 5.1 39.4 2 5.6 18 23.7 20.3 25.2 2.1 1.4 15.8 2.7 18 2.4 2.6-1.7 25.7-26 26.8-28.9 1.2-3.1 4.3-32.6 4.2-38 0-.1.2-8.4-1.2-15.9-1.1-6-4.8-12.4-10-17-6.7-6.1-15.7-9.3-26-9.3-17.7 0-28.9 7-34.3 21.3-2.8 7.5-2.9 19.9-2.9 20.8z" fill="#000000" stroke-width="none" opacity="1"></path></g></g><g id="svga-group-mouth-single-move" transform="matrix(1,0,0,1,0,0)"><g id="svga-group-mouth-single" transform="matrix(1,0,0,1,0,0)"><path id="SvgjsPath12011" d="M112.72 120.8c-.61.59-1.29.89-2.01 1.02-2.06-4.17-6.88-5.21-11.2-4.86-3.59.28-9.32.92-9.51 5.52-.65-.06-1.24-.27-1.72-.72-.51-.49-1.28.28-.77.77 1.01.97 2.14 1.16 3.37 1.02-.42 5.26 5.98 5.89 9.79 5.67 3.56-.21 11.01-1.05 9.93-6.27 1.06-.14 2.03-.54 2.88-1.37.51-.5-.26-1.27-.76-.78zm-11.61-3.37c3.59-.03 7.25 1.19 9.01 4.47-1.34.08-2.77-.3-4.1-.5-.06-.01-.11-.01-.17-.02.31-.32.57-.68.76-1.09.14-.32-.33-.59-.47-.27-.23.51-.58.94-1.02 1.29-1.44-.18-2.89-.29-4.34-.28-.31 0-.63.03-.94.04-.07-.17-.15-.33-.22-.5-.14-.32-.61-.04-.47.27.04.08.07.17.11.25-1.24.06-2.49.17-3.72.37-.05.01-.11.02-.17.03a.932.932 0 0 1-.37-.39c-.15-.32-.62-.04-.47.27.05.1.13.17.2.25-1.26.32-2.81.85-4.18.88.2-4.66 7.13-5.04 10.56-5.07zm-1.23 11.27c-3.41.11-8.85-.55-8.44-5.21 0-.01-.01-.02-.01-.03.24-.04.47-.09.72-.15 1.83-.43 3.64-.79 5.48-1-.41.68-.64 1.44-.68 2.25-.02.35.53.35.54 0 .04-.86.32-1.63.82-2.32v-.01c.81-.08 1.63-.13 2.47-.13.24 0 .48.02.72.03.02.03.02.06.06.09.26.17.42.42.48.72.08.34.6.2.52-.14-.05-.24-.16-.45-.3-.63 2.16.14 4.25.55 6.41.78.48.05.94.07 1.39.05 1.16 5.06-6.97 5.6-10.18 5.7z" fill="#000000" stroke-width="none" opacity="1"></path></g></g><g id="svga-group-eyes-left-move" transform="matrix(1,0,0,1,0,0)"><g id="svga-group-eyes-left" transform="matrix(1,0,0,1,0,0)"><g id="svga-group-eyesback-left"></g><g id="svga-group-eyesiriswrapper-left"><g id="svga-group-eyesiriscontrol-left" transform="matrix(1,0,0,1,0,0)"><g id="svga-group-eyesiris-left" transform="matrix(1,0,0,1,0,0)"><path id="SvgjsPath11977" d="M76.6 87c.3 1.1.9 2 1.7 2.7.2.2.4.3.7.4s.5.2.7.3c.5.2 1 .2 1.5.2s1-.2 1.5-.4.9-.6 1.3-1 .6-.9.8-1.4c.2-.5.2-1.1.1-1.6-.2-1.1-.7-2-1.5-2.7-.4-.3-.9-.6-1.4-.7-.5-.1-1-.2-1.5-.2s-1 .1-1.5.3c-.5.2-.9.5-1.2.9-.2.2-.4.4-.5.6s-.3.4-.3.7c-.1.2-.1.5-.2.8-.2.5-.2.8-.2 1.1-.1-.6-.1-1.2 0-1.8.1-.3.2-.6.3-.8.2-.2.3-.5.5-.7l.6-.6c.2-.2.5-.4.8-.5.5-.3 1.1-.4 1.7-.4.6 0 1.2 0 1.7.2.6.2 1.1.5 1.6.8s.8.9 1.1 1.4c.2.5.4 1.1.4 1.7v.9c0 .3-.1.6-.2.8-.2.5-.5 1-.8 1.5-.4.4-.8.8-1.3 1.1-.5.3-1 .5-1.6.6-.6.1-1.2 0-1.7-.2-.7-.3-1.2-.6-1.7-1-.4-.4-.8-.9-1-1.4s-.4-1-.4-1.6zm5 .6c.2-.2.3-.4.3-.7 0-.6-.5-1.1-1.1-1.1h-.1c0 .2.1.3.1.5 0 .3-.4.6-.7.4-.1-.1-.2-.1-.3-.2-.1.1-.1.3-.1.4 0 .6.5 1.1 1.1 1.1.1 0 .3 0 .4-.1.1-.2.3-.3.4-.3zm-1-2.3c0 .1 0 .1.1.2h.2c.8 0 1.4.6 1.4 1.4 0 .3-.1.5-.2.8.1 0 .2.1.2.2.2-.3.3-.6.3-.9 0-.9-.7-1.7-1.7-1.7h-.3c0-.1 0 0 0 0zm.5 2.9h-.3c-.8 0-1.4-.6-1.4-1.4 0-.2.1-.4.2-.6-.1-.1-.1-.2-.2-.2-.2.2-.2.6-.2.9 0 .9.7 1.7 1.7 1.7.1 0 .3 0 .4-.1-.1-.2-.1-.3-.2-.3z" fill="#000000" stroke-width="none" opacity="1"></path></g></g></g><g id="svga-group-eyesfront-left"><path id="SvgjsPath12089" d="M81 74.4c-6.9 0-12.5 5.6-12.5 12.5S74.1 99.4 81 99.4s12.5-5.6 12.5-12.5S87.9 74.4 81 74.4zm7.1 17s-3.9.4-5.4.4c-4.1 0-7.1-1.8-7.1-1.8s-7.5-5.3-2.3-7.1c5-1.7 11.2.8 13.2 2.9 2.1 2.1 1.6 5.6 1.6 5.6z" fill="#ffffff" stroke-width="none" opacity="1"></path><path id="SvgjsPath12090" d="M71.3 84c-.3.8-.2 1.7.4 2.8 1.4 2.4 3.9 4.2 7.1 4.9 1.2.3 2.5.4 3.9.4s3-.1 4.7-.4c.1 0 .2-.1.3-.2 0 .1.1.3.3.3.2.1.5 0 .6-.3.7-1.9 0-4.3-1.6-6-1.2-1.3-3-2.2-5.4-3-3.2-.9-5.9-1-8.2-.2-1.2.5-1.8 1-2.1 1.7zm.8.4c.2-.5.7-.8 1.5-1.1 2.1-.7 4.7-.6 7.7.2 2.3.7 3.9 1.5 5 2.7 1.4 1.4 1.9 3.4 1.4 4.9-.1-.2-.2-.3-.4-.3h-.1c-3.3.6-6 .6-8.3 0-2.9-.7-5.3-2.3-6.5-4.5-.3-.5-.6-1.3-.3-1.9zm-4.9-3c.1 0 .2.1.2.2 0 .3.1.5.3.7.4.3 1.3.4 2.2.3.4-.1.9-.3 1.6-.5 1.6-.6 3.8-1.3 6.5-1.4 3.6-.1 8.3 1.2 10.3 4.2 1.2 1.7 1.7 4.2 1.5 7.2v.1c0 .1-.1.2-.2.2s-.2-.1-.2-.2V92c.2-2.9-.3-5.3-1.4-7-1.9-2.8-6.5-4.1-9.9-4-2.6 0-4.8.8-6.4 1.3-.6.2-1.2.4-1.6.5-1.1.4-2.1.2-2.6-.2-.3-.2-.5-.6-.5-1 0-.1.1-.2.2-.2z" fill="#000000" stroke-width="none" opacity="1"></path></g></g></g><g id="svga-group-eyes-right-move" transform="matrix(1,0,0,1,0,0)"><g id="svga-group-eyes-right" transform="matrix(1,0,0,1,0,0)"><g id="svga-group-eyesback-right"></g><g id="svga-group-eyesiriswrapper-right"><g id="svga-group-eyesiriscontrol-right" transform="matrix(1,0,0,1,0,0)"><g id="svga-group-eyesiris-right" transform="matrix(1,0,0,1,0,0)"><path id="SvgjsPath11978" d="M115 87c.3 1.1.9 2 1.7 2.7.2.2.4.3.7.4s.5.2.7.3c.5.2 1 .2 1.5.2s1-.2 1.5-.4.9-.6 1.3-1 .6-.9.8-1.4c.2-.5.2-1.1.1-1.6-.2-1.1-.7-2-1.5-2.7-.4-.3-.9-.6-1.4-.7-.5-.1-1-.2-1.5-.2s-1 .1-1.5.3c-.5.2-.9.5-1.2.9-.2.2-.4.4-.5.6s-.3.4-.3.7c-.1.2-.1.5-.2.8-.2.5-.2.8-.2 1.1-.1-.6-.1-1.2 0-1.8.1-.3.2-.6.3-.8.2-.2.3-.5.5-.7l.6-.6c.2-.2.5-.4.8-.5.5-.3 1.1-.4 1.7-.4.6 0 1.2 0 1.7.2.6.2 1.1.5 1.6.8s.8.9 1.1 1.4c.2.5.4 1.1.4 1.7v.9c0 .3-.1.6-.2.8-.2.5-.5 1-.8 1.5-.4.4-.8.8-1.3 1.1-.5.3-1 .5-1.6.6-.6.1-1.2 0-1.7-.2-.6-.2-1.1-.5-1.5-.9-.4-.4-.8-.9-1-1.4s-.6-1.1-.6-1.7zm5 .6c.2-.2.3-.4.3-.7 0-.6-.5-1.1-1.1-1.1h-.1c0 .2.1.3.1.5 0 .3-.4.6-.7.4-.1-.1-.2-.1-.3-.2-.1.1-.1.3-.1.4 0 .6.5 1.1 1.1 1.1.1 0 .3 0 .4-.1.1-.2.2-.3.4-.3zm-1-2.3c0 .1 0 .1.1.2h.2c.8 0 1.4.6 1.4 1.4 0 .3-.1.5-.2.8.1 0 .2.1.2.2.2-.3.3-.6.3-.9 0-.9-.7-1.7-1.7-1.7h-.3c0-.1 0 0 0 0zm.5 2.9h-.3c-.8 0-1.4-.6-1.4-1.4 0-.2.1-.4.2-.6-.1-.1-.1-.2-.2-.2-.2.2-.2.6-.2.9 0 .9.7 1.7 1.7 1.7.1 0 .3 0 .4-.1-.1-.2-.2-.3-.2-.3z" fill="#000000" stroke-width="none" opacity="1"></path></g></g></g><g id="svga-group-eyesfront-right"><path id="SvgjsPath12091" d="M119 74.4c-6.9 0-12.5 5.6-12.5 12.5s5.6 12.5 12.5 12.5 12.5-5.6 12.5-12.5-5.6-12.5-12.5-12.5zm5.3 15.6s-3 1.7-7.1 1.8c-1.5 0-5.4-.4-5.4-.4s-.5-3.4 1.5-5.5 8.2-4.6 13.2-2.9c5.4 1.7-2.2 7-2.2 7z" fill="#ffffff" stroke-width="none" opacity="1"></path><path id="SvgjsPath12094" d="M126.6 82.4c-2.3-.8-5.1-.7-8.2.2-2.4.7-4.2 1.7-5.4 3-1.6 1.7-2.3 4-1.6 6 .1.2.3.4.6.3.2-.1.3-.2.3-.3.1.1.2.2.3.2 1.7.3 3.3.4 4.7.4 1.4 0 2.7-.1 3.9-.4 3.1-.7 5.7-2.6 7.1-4.9.6-1.1.7-2 .4-2.8-.4-.8-1-1.3-2.1-1.7zm.9 3.9c-1.2 2.2-3.6 3.8-6.5 4.5-2.3.6-4.9.5-8.3 0h-.1c-.2 0-.4.1-.4.3-.5-1.6.1-3.5 1.4-4.9 1.1-1.2 2.7-2 5-2.7 3-.9 5.6-.9 7.7-.2.8.3 1.3.6 1.5 1.1.3.6 0 1.4-.3 1.9zm5.2-4.9c-.1 0-.2.1-.2.2 0 .3-.1.5-.3.7-.4.3-1.3.4-2.2.3-.4-.1-.9-.3-1.6-.5-1.6-.6-3.8-1.3-6.5-1.4-3.6-.1-8.3 1.2-10.3 4.2-1.2 1.7-1.7 4.2-1.5 7.2v.1c0 .1.1.2.2.2s.2-.1.2-.2V92c-.2-2.9.3-5.3 1.4-7 1.9-2.8 6.5-4.1 9.9-4 2.6 0 4.8.8 6.4 1.3.6.2 1.2.4 1.6.5 1.1.2 2.1.1 2.6-.3.3-.2.5-.6.5-1 0 0-.1-.1-.2-.1z" fill="#000000" stroke-width="none" opacity="1"></path></g></g></g><g id="svga-group-facehighlight-single"></g><g id="svga-group-eyebrows-left-move" transform="matrix(1,0,0,1,0,0)"><g id="svga-group-eyebrows-left-rotate" transform="matrix(1,0,0,1,0,0)"><g id="svga-group-eyebrows-left" transform="matrix(1,0,0,1,0,0)"><path id="SvgjsPath12048" d="M68.15 74.45c.07-.02 7.19-1.94 13.38-2.06 5.03-.1 9.36 1.37 9.73 2.7.1.37-.06.71-.42.92-.18.1-.65.17-1.34.21-4.48.24-18.19-.69-21.26-.91a.44.44 0 0 1-.41-.4c-.03-.2.11-.4.32-.46z" fill="#000000" stroke-width="none" opacity="1"></path></g></g></g><g id="svga-group-eyebrows-right-move" transform="matrix(1,0,0,1,0,0)"><g id="svga-group-eyebrows-right-rotate" transform="matrix(1,0,0,1,0,0)"><g id="svga-group-eyebrows-right" transform="matrix(1,0,0,1,0,0)"><path id="SvgjsPath12049" d="M132.11 74.45c-.07-.02-7.19-1.94-13.38-2.06-5.03-.1-9.36 1.37-9.73 2.7-.1.37.06.71.42.92.18.1.65.17 1.34.21 4.48.24 18.19-.69 21.26-.91a.44.44 0 0 0 .41-.4c.03-.2-.11-.4-.32-.46z" fill="#000000" stroke-width="none" opacity="1"></path></g></g></g><g id="svga-group-nose-single-move" transform="matrix(1,0,0,1,0,0)"><g id="svga-group-nose-single" transform="matrix(1,0,0,1,0,0)"><path id="SvgjsPath12024" d="M101.9 106.4c-.5 1.3-1.1 2.6-2 3.7-.5.6-1.5 1.5-2.4 1.4s-.6-1.3-.6-2c-.1-3.2-.1-6.5 0-9.7.1-6.4.4-12.7 1-19.1.1-.7-1-.7-1.1 0-.9 10.3-1.2 20.7-.9 31 0 .2.1.4.3.5 3.5 1.6 5.5-2.7 6.6-5.2.2-.7-.7-1.2-.9-.6z" fill="#000000" stroke-width="none" opacity="1"></path><path id="SvgjsPath12025" d="M103.9 105.6c.3-.7 1.1-1.1 1.8-.6.5.4 1.3-.3.7-.7-1.2-.9-2.8-.6-3.5.8-.2.6.7 1.2 1 .5z" fill="#000000" stroke-width="none" opacity="1"></path><path id="SvgjsPath12026" d="M93.2 105.1c.5-.2 1.1 0 1.3.5.3.6 1.2.1.9-.5-.4-.9-1.6-1.4-2.5-1-.6.3-.3 1.3.3 1z" fill="#000000" stroke-width="none" opacity="1"></path></g></g><g id="svga-group-hair-front" transform="matrix(1,0,0,1,0,0)"><path id="SvgjsPath12128" d="M121.9 48s-4.4 9.3-17.2 12.5-30 7.9-33.8 13.7-4.4 11.9.3 19.8 4.9 14.8-2.3 18.3-4.1 11.4-.3 14c3.8 2.6-.6 7.3-1.8 9.9-1.2 2.6.9 5.5.9 5.5s-5-2.6-2.9-9.9c2-7.3-6.1-6.1-5.2-14.3s5.8-8.7 4.7-15.4c-1.2-6.7-2-15.4-6.7-25.6s.6-34.4 21.5-45.4 39.6-3.5 44.6 2.9c0 0 2 0 9.3 5.2 7.3 5.2 14 28.5 5.8 39.9 0 .1-9.9-6.3-16.9-31.1zM74.1 178.5c-.1-.1-.2-.1-.4-.1l.3-.3c2.9-3.2 7.6-13.4 8.3-14.8.1-2.1.2-4.5.1-6.7-.1-2.9-.9-6-1.8-8.5-7.1-1.8-15.3-2.8-24.2-1.6 1 2.7 2 4.7 2 4.7-4.9 4.5-2.1 16-2.1 16-4 4.3-4.2 12-2.1 15.7-1.2 3.2-4 7.2-1.6 15.7 2.4 8.7 8.1 9.3 8.1 9.3 3.8 3.8 11.5 6.9 11.5 6.9s-2.3-6.4-1-12 2.9-10.3 2.9-10.3l.7 10.3c5.1-6 3.7-20.9-.7-24.3z" fill="#ffffff" stroke-width="none" opacity="1"></path><path id="SvgjsPath12129" d="M133.6 38.2c-5.7-4.1-8.3-5.1-9.4-5.3-5.4-6.5-24.4-14-45.6-2.9C63.2 38.1 55.8 53.5 55 65.5c-.3 4.3.3 8.2 1.6 11.2 3.9 8.6 5.1 16.1 6.1 22.3.2 1.1.3 2.1.5 3.1.5 3.2-.4 4.7-1.7 6.9-1.1 1.9-2.6 4.2-3 8.3-.5 4.5 1.6 6.6 3.3 8.2 1.6 1.6 2.8 2.8 2 5.9-2.2 8 3.3 11 3.4 11 .2.1.3.1.5.1.3 0 .5-.1.8-.3.3-.3.3-.9.1-1.2 0 0-1.7-2.5-.8-4.6.2-.5.6-1.2 1.1-1.9 1.6-2.7 4.1-6.7.3-9.2-2-1.4-3.9-4.5-3.6-7.3.2-2.1 1.4-3.8 3.8-4.9 3-1.5 5-3.6 5.8-6.3 1.1-3.7.1-8.2-3.1-13.5-4.1-7-4.2-12.7-.3-18.8 3.8-5.9 24.4-11.1 33.2-13.3 9.5-2.4 14.5-8 16.6-11 7 23 16.3 29.3 16.7 29.5.4.3 1 .2 1.4-.3 8.7-12.1 1.3-35.9-6.1-41.2zm-54-6.5c7.6-4 14.9-5.5 21.3-5.5 8.5 0 15.4 2.7 19.4 5.6-18.8-5.7-38.8-1.6-53.8 10.7 3.3-4.1 7.7-7.9 13.1-10.8zM63.2 47.3c15.5-15.5 38.2-20.7 59-13.5-12.9 7-28.8 5-42.5 9.6-8.7 2.9-16.5 8-21.5 15.6 1.1-3.9 2.7-7.9 5-11.7zm-5.7 15.5C63.3 51 75.8 45 88.3 42.4c11.5-2.4 23.8-1.8 34.4-7.5-1.7 8.8-13.8 13.3-21.2 15.8-7.2 2.5-14.6 4.1-21.8 6.3-7.2 2.3-20.4 6.6-22.3 15.1-.4-2.6-.4-5.8.1-9.3zm5.9 47.2c1.3-2.2 2.6-4.3 1.9-8.2-.2-1-.3-2-.5-3.1-1-6.1-2.2-13.8-6.1-22.4-5-21.9 58.8-18.4 65-40 .9 15.2-17.8 20-29.9 21.8-10.1 1.5-21.5 3.2-28.1 11.9-2.4 3.2-4 7-3.9 11.1.2 5.3 3.4 9.6 5.7 14.2 1.7 3.3 3.2 7.5 2 11.2-1.3 4-5.3 5.7-7.6 8.9-.5.6-.9 1.3-1.2 2 .4-3.6 1.6-5.6 2.7-7.4zm41.2-50.7C88.9 63.2 74 67.6 70.2 73.4c-4.3 6.6-4.2 13.3.3 20.8 2.8 4.7 3.8 8.8 2.9 11.9-.7 2.1-2.2 3.8-4.8 5-3.8 1.8-4.8 4.6-4.9 6.5-.3 3.8 2 7.5 4.5 9.2 2 1.4.9 3.6-.9 6.6-.5.8-.9 1.5-1.2 2.1-.2.4-.3.9-.4 1.3-.3-1.3-.4-2.9.2-5 1.2-4.2-.8-6.1-2.5-7.8-.8-.8-1.5-1.5-2.1-2.5-1.5-6.1 7.8-9.7 9.4-14.9 1.1-3.6.1-7.5-1.4-10.8-3-6.8-8.1-12.6-5.3-20.4 2.5-7 9.3-11.3 16-13.5 10.8-3.4 22.8-2.5 33.1-7.9 3-1.6 5.6-3.7 7.7-6.2-1.2 2.1-5.8 8.9-16.2 11.5zm34 18.1c-2.4-2.1-10-10-15.7-30-.1-.4-.5-.7-.9-.7-.2 0-.3 0-.5.1 1.8-2.6 3-5.5 3.3-8.7 1.8 13.6 6.7 26.3 14.7 37.5-.2.7-.5 1.3-.9 1.8zm1.5-3c-6.8-9.8-11.3-20.7-13.4-32.3 1.9 3.3 4.5 6.3 6.8 9.4 4.7 6.4 7.1 13.6 7.1 21.4-.1.5-.3 1-.5 1.5zm-2.9-19.7c-3.4-5.9-8.8-10.6-11.1-16.9-.1-.5-.1-1-.2-1.6 0-.3-.2-.5-.5-.6 0-.1 0-.2-.1-.3 1.3.6 3.6 1.9 7.1 4.5 4.9 3.6 9.9 16.7 9.1 27.9-.6-4.6-2-8.9-4.3-13zM75 146.6l-.1.2c-.6-.1-1.2-.2-1.7-.3.2.2 0 .4.3.6-4.2 3.1-7 7.5-8.2 12.5-.6-.6-1.2-1.2-1.7-1.8.5-4.8 3.6-9 7.6-11.5-.6-.1-1.3-.1-2-.2-3.4 2.5-6 6.1-6.8 10.3-.2-.4-.5-.7-.7-1.1 0-.1.1-.2.1-.3-.3-3.2.5-6.3 1.9-9.1h-1.4c-.9 2.1-1.8 4.3-1.8 6.7-.2-.7-.4-1.4-.5-2.2 0-.2-.1-.3-.2-.4-.2-1.3-.1-2.7 0-4-.4 0-.8.1-1.2.1 0 .7-.2 1.4-.1 2.2-.3-.6-.6-1.3-.8-2.1l-2.1.3c.7 1.9 1.4 3.5 1.9 4.4-4 4.6-2.4 13.6-2 15.9-2.3 2.7-3.5 6.7-3.3 10.9.1 2 .5 3.7 1.2 5.1-.1.3-.3.7-.4 1-1.3 3.1-3.2 7.3-1 14.9 2.2 8.1 7.2 9.7 8.6 10 4 3.8 11.3 6.8 11.6 6.9.1.1.2.1.4.1s.5-.1.7-.3c.3-.3.4-.7.2-1.1 0-.1-2.2-6.2-1-11.5.4-1.8.8-3.5 1.3-5l.3 4.8c0 .4.3.8.7.9.4.1.8 0 1.1-.3 3.3-4 3.9-10.8 3.3-15.9-.5-4.3-1.9-7.8-3.7-9.5 2-2.5 4.7-7.2 6.4-10.6.9-2.7 1.4-5.7 1.4-5.7.2-1.8.3-3.5.2-5.1l-.1-1.3c-.2-1.5-.4-3-.8-4.4l-.3-1.2c-.1-.5-.4-1.1-.6-1.5l-1.2-.3c.9 2.6 1.1 5.3 1.3 8.1-.2.2-.1.5 0 .7.1 2.1 0 4.2-.5 6.3-.2.4-.5 1.1-1 2.1.3-3.8-.3-7.4-1.3-10.9l.1-.1c.3-.4 0-.8-.4-.9-.7-2-1-4.1-2-6.1-.6-.1-1.2-.2-1.7-.3m4.1 14.7-5.7 6.6c-.4-4.7 2-8.8 4.6-12.7.6 2 1 4 1.1 6.1zm-9.3 10.8c.1.1.2.1.3.2.1.1.3.1.4.1.4 1.6.8 3.2 1 4.8-1 .1-2.2.2-3.4.4v-.1c-.8-1.2-1.1-2.7-.7-4.1v-.1c.1-.1.2-.1.2-.2.7-.3 1.4-.6 2.2-1zm-.5-7c1.1 1.2 2.1 2.5 2.8 3.9.1.1.1.2.2.2-.8.5-1.6 1-2.4 1.4-1.4-1.3-1.1-3.6-.6-5.5zm2.2 6.1c.5-.3 1-.6 1.4-.9.8 1.5 1.4 3.1 1.5 4.8 0 .1.1.2.1.3-.4.6-.9 1.2-1.2 1.6h-.5c-.3-1.9-.7-3.8-1.3-5.8 0 .1 0 .1 0 0zm4.2-21.1c.4.7.8 1.4 1.1 2.2.1.2.2.3.4.4.1.4.3.7.4 1.1-2.8 4-5.3 8.2-5.4 13.1-.5-.8-1.2-1.5-1.8-2.2v-.3c-.4-2.5-.4-5.1.3-7.6.6-2.2 2-6.2 4.7-6.5.1-.1.2-.1.3-.2zm-9.4 10.1c1.1-5 3.8-9.3 7.9-12.3.3.4.6.7.8 1.1-5.4.9-6.4 9.2-6 14.1-.8-.8-1.7-1.6-2.5-2.4-.1-.2-.2-.3-.3-.4.1 0 .1 0 .1-.1zm-1 6.3c0-1.6.4-3.1.9-4.5.7.7 1.4 1.4 2.1 2-.6 2.4-1.1 5.3.5 7.2-.6.3-1.2.6-1.8.8-1.7-.7-1.7-4.2-1.7-5.5zm1.5 11.3c-.9.2-1.8.3-2.7.5-.6-1.1-.7-2.3-.2-3.5v-.2c.7-.3 1.3-.6 2-.9-.1 1.5.2 2.9.9 4.1zm-1.6-16.7c-.9 2.4-1.4 4.9-1.1 7.5.2 1.4.4 3.1 1.4 4.1-.4.2-.9.4-1.3.6 0-.1-.1-.1-.2-.2-.2-.1-.5-.2-.7-.4-3.8-2.5-1.5-10.2.1-13.5.6.6 1.2 1.3 1.8 1.9zm-2.3 17.4c-2.9.6-5.6 1.3-6.9 1.6 1.7-2.2 4-3.7 6.6-4.9-.3 1.2-.2 2.3.3 3.3zm-2.4-23c.5.8 1.1 1.6 1.7 2.4 0 .2.1.3.3.4l-.1.1c-1.3 2.6-2.8 7.2-2.3 10.9-2.6-4.5-2.4-9.5.4-13.8zm-1.5-3.6c.2.9.5 1.7.9 2.5-2.9 3.9-3.6 8.6-2 13-.2-.4-.5-.9-.6-1.3-.6-2.5-1.9-10.7 1.7-14.2zM56.8 168c1.4 2.4 3.3 4.4 5.8 5.7.1 0 .2.1.2.1-1 .5-2.1 1-3.1 1.5 0-.1-.1-.2-.2-.3-2-1.4-3.2-3.5-3.6-5.9.3-.3.6-.7.9-1.1zm-1.7 2.9c.6 2.1 1.9 3.8 3.7 5.1-.3.2-.6.5-1 .7-1.6-1.2-2.7-2.9-2.9-4.9v-.1c0-.3.1-.5.2-.8zm-.9 3.2c.5 1.3 1.4 2.5 2.6 3.4-.9.8-1.7 1.6-2.4 2.7-.2-.8-.4-1.8-.4-2.7-.1-1.1 0-2.2.2-3.4zm.4 10.4c.3-.7.6-1.4.8-2 .3-.1.8-.3 1.4-.5-2.1 4.7-3.3 9.5-3.5 14.6-1.3-6 .1-9.3 1.3-12.1zm-.1 16.1c-.3-6.6.9-12.9 3.7-18.9v-.1c.1 0 .2 0 .3-.1-1.3 5.7-2.4 11.6-2.6 17.5-.1 1.8.1 3.5.6 5-.7-.9-1.4-2-2-3.4zm7 6.4c-.2-.2-.4-.3-.6-.3h-.1c0-.1-.1-.2-.3-.3-7-3.3-2-19.5-.7-25.2.5-.1.9-.2 1.4-.3 0 .1 0 .2.1.3 3.5 7.7-1.9 19.4 1.6 27-.5-.4-1-.8-1.4-1.2zm4.3 3.2c-6.7-7 .5-20.9-3.4-29.6.9-.2 1.8-.3 2.7-.5 7.1 9.3-4.4 23.8 5.5 31.9.1.3.1.6.2.9-1.3-.7-3.2-1.6-5-2.7zm7.9-18.7c-.2.1-.3.3-.4.5 0 0-1.6 4.8-2.9 10.4-.6 2.6-.5 5.3-.1 7.6-7.2-7.7 2.1-21.1-3.8-30.1.9-.1 1.7-.3 2.5-.4 0 .1.1.2.2.3 3.3 3.1 4.9 7.3 4.5 11.7zm2 7.8-.2-3.4c.1-.1.2-.1.2-.3.8-2 1.3-4.1 1.4-6.1.2 3.7-.3 7.2-1.4 9.8zm-.5-6.4v-.6c0-.2-.1-.5-.3-.6.5-4.6-1.1-9-4.5-12.3 1.6-.2 2.8-.3 3.3-.2.3.2.5.5.8.9 1.6 4 1.9 8.4.7 12.8zm.3-18.9c-.3-1.6-.8-3.1-1.7-4.5v-.1l1.8-2.1c.8 1.1 1.3 2.3 1.6 3.6-.5 1-1.1 2.1-1.7 3.1zm3.1-5.6c-.2.3-.3.6-.5.9-.4-1.1-.9-2.1-1.6-3 .9-1 1.8-2.1 2.7-3.1 0 1.7-.2 3.4-.6 5.2z" fill="#000000" stroke-width="none" opacity="1"></path></g><g id="svga-group-glasses-single-move" transform="matrix(1,0,0,1,0,0)"><g id="svga-group-glasses-single" transform="matrix(1,0,0,1,0,0)"></g></g></g></g></g><rect id="svga-credit-rect" width="200" height="15" x="0" y="185" fill="#ecf0f1" opacity="0.5" style="display: none;"></rect><text id="svga-credit-text" font-family="Avenir Next, Roboto, Helvetica, Arial, sans-serif" font-size="10px" text-anchor="start" font-weight="400" size="10px" anchor="start" weight="400" fill="#333333" x="33.402061462402344" y="182.71133995056152" style="display: none;"><tspan id="SvgjsTspan11509" dy="13" x="33.402061462402344">Created on AvatarMaker.com</tspan></text></g></svg>