<svg xmlns="http://www.w3.org/2000/svg" version="1.1" width="600px" height="600px" viewBox="0 0 200 200" style="overflow:hidden!important;"><defs id="SvgjsDefs18098"></defs><g id="svga-group-wrapper"><g id="svga-group-backs-single"></g><g id="svga-group-humanwrap-move" transform="matrix(1,0,0,1,0,0)"><g id="svga-group-humanwrap" transform="matrix(1,0,0,1,0,0)"><g id="svga-group-hair-back-move" transform="matrix(1,0,0,1,0,0)"><g id="svga-group-hair-back" transform="matrix(1,0,0,1,0,0)"></g></g><g id="svga-group-humanbody-back"><path id="SvgjsPath18356" d="M86.5 122c0 18.8 2.7 50.3-8.1 58s-31.8 13.9-36.7 24.4-3.6 14.4-3.6 14.4h124.1s.6-8.1-4.2-15.4c-6.6-10.1-28.5-17.7-36.5-22.9-8.1-5.2-10.9-32.2-10.9-58.8l-24.1.3z" fill="#ffffff" stroke-width="none" opacity="1"></path></g><g id="svga-group-chinshadow-single"></g><g id="svga-group-humanbody-front"><path id="SvgjsPath18357" d="M163.4 220.1H37.2l-.3-.9c-.1-.5-1.3-4.7 3.6-15.3 3.4-7.3 13.6-12.4 23.5-17.4 5.1-2.5 9.9-5 13.6-7.5 8.6-6 8.1-29.8 7.7-47.1-.1-3.5-.1-6.8-.1-9.8v-1.3l26.7-.4v1.3c0 32 3.8 53.5 10.3 57.7 2.4 1.6 6 3.3 10.2 5.4 9.7 4.7 21.9 10.6 26.7 18 5 7.6 4.4 15.9 4.4 16.2l-.1 1.1zm-124.1-2.6h121.6c-.1-2.4-.6-8.2-4-13.4-4.4-6.7-16.2-12.5-25.6-17-4.3-2.1-8-3.9-10.5-5.5-9.8-6.3-11.4-38.8-11.5-58.6l-21.5.4c0 2.6.1 5.5.1 8.5.4 18.9.9 42.4-8.8 49.3-3.8 2.7-8.7 5.1-13.9 7.7-9.5 4.8-19.4 9.7-22.3 16.1-3.3 6.9-3.7 10.9-3.6 12.5z" fill="#000000" stroke-width="none" opacity="1"></path><path id="SvgjsPath18358" d="M76.8 188.7c4.8 2.3 10.4 3.9 15.7 2.9.4-.1.4-.7 0-.8-5.1-.9-10.2-1.4-15.2-3.2-.6-.2-1.1.8-.5 1.1z" fill="#000000" stroke-width="none" opacity="1"></path><path id="SvgjsPath18359" d="M108.3 191.1c2.4.3 4.9-.4 7.1-1.2 2.1-.8 4.3-1.7 5.8-3.4.5-.5-.1-1.2-.7-.9-2.1.9-3.9 2.3-6.1 3-2 .7-4.1 1-6.2 1.5-.6.1-.4.9.1 1z" fill="#000000" stroke-width="none" opacity="1"></path></g><g id="svga-group-clothes-single"><path id="SvgjsPath18702" d="M158.4 200.8c-6.9-7.5-18-11.9-23.8-14.4-5.8-2.4-13-5.9-15.6-10s-5.5-20.2-6.2-29.2c0 0-14.2 3-26.7-.8 0 0 .2 17.2-2.5 24.8-2.7 7.6-7.2 10.1-13.4 12.9-6.2 2.8-18.1 8.9-22.6 12.6s-9.1 8.9-9.7 13.2-1.2 10.3-1.2 10.3h128.2c-.1.1.4-11.9-6.5-19.4zM96.8 211c-6.4-1.6-9.1-15.2-4.4-28.4 0 0 8.7 1.6 15.7.6 0 0 1.1 10.3 2.3 17 1.1 6.7-7.2 12.5-13.6 10.8z" fill="#ffffff" stroke-width="none" opacity="1"></path><path id="SvgjsPath18703" d="M159.1 200.2c-6.8-7.4-17.7-11.9-23.5-14.4l-.6-.2c-8.3-3.5-13.2-6.6-15.2-9.7-2.5-3.9-5.4-19.9-6.1-28.7 0-.3-.2-.6-.4-.7s-.5-.2-.8-.2c-.1 0-14.1 2.9-26.2-.7-.3-.1-.6 0-.9.2-.2.2-.4.5-.4.8 0 .1.1 10-1 17.9-.1 0-.2.1-.1.2l.1.1c-.3 2.4-.8 4.6-1.4 6.3-.6 1.6-1.2 2.9-1.9 4.1-.1 0-.1.1-.1.2-2.5 4-6 5.8-10.9 8.1-6.4 2.9-18.3 8.9-22.8 12.8-2.8 2.3-9.3 8.3-10 13.9-.6 4.3-1.2 10.3-1.2 10.3 0 .3.1.6.2.8.2.2.5.3.7.3h128.2c.5 0 1-.4 1-1 0-.8.4-12.7-6.7-20.4zm-88.6-15.1c2.2-1 4.2-2 5.9-3.1.2.1.4.2.6.2.2 0 .3-.2.1-.3-.1-.1-.2-.1-.3-.2.5-.3.9-.7 1.4-1 .6.4 1.3.8 1.9 1.1.1.1.2-.1.1-.2-.6-.4-1.2-.8-1.8-1.1.4-.3.8-.7 1.2-1.1.7.4 1.4.9 2.1 1.2.1.1.3-.1.2-.2-.6-.5-1.3-.9-2-1.3.4-.4.7-.8 1.1-1.2.7.4 1.4.9 2.2 1.2.2.1.2-.2.1-.2-.6-.5-1.3-.9-2.1-1.2.3-.4.6-.9.9-1.4.8.5 1.5.9 2.3 1.2.1.1.2-.1.1-.2-.7-.6-1.4-1-2.2-1.4.4-.7.8-1.4 1.2-2.2 1.1.9 2.4 1.6 3.7 1.9.2 0 .3-.2.1-.3-1.3-.6-2.5-1.2-3.7-2 .2-.6.5-1.1.7-1.7 0-.1.1-.2.1-.3 1.4 1.1 3 2.2 4.7 2.6.1 0 .2-.1.1-.2-1.7-.9-3.2-1.6-4.7-2.8.2-.6.4-1.3.5-2 1.4 1.1 2.9 2.1 4.5 2.7.2.1.3-.2.1-.3-1.5-1-3.1-1.8-4.6-2.9.2-.7.3-1.5.4-2.3 1.8 1.6 3.8 3 5.9 3.8.1.1.2-.1.1-.2-1.9-1.5-4-2.7-5.9-4.1l.3-2.4c1.8 1.5 3.8 3 6 3.9.2.1.4-.2.2-.3-2.1-1.4-4.2-2.7-6.1-4.2.1-.9.2-1.8.3-2.6 2.2 1.8 4.6 3.6 7.2 4.8.2.1.4-.2.2-.3-2.5-1.7-5-3.3-7.3-5.1.1-.9.1-1.9.2-2.8 2 1.6 4.2 3 6.6 3.9.2.1.3-.2.1-.3-2.3-1.3-4.5-2.6-6.7-4.1.1-1 .1-1.9.1-2.8 2.8 2.4 6 4.5 9.5 5.7.2.1.2-.2.1-.3-3.4-1.7-6.7-3.5-9.6-5.9 0-1.2.1-2.2.1-3.1 3 2.4 6.2 4.7 9.6 6.3.2.1.4-.2.2-.3-3.3-2.1-6.7-4.1-9.8-6.4v-1.6c.2.1.5.1.7.2 3.2 2 6.5 4.1 9.8 5.8.2.1.3-.2.2-.3-2.8-1.9-5.9-3.6-8.9-5.2 2.2.5 4.4.8 6.6.9.8.4 1.6.8 2.4 1.1.2.1.3-.2.2-.3-.4-.3-.8-.5-1.2-.7 6.8.4 12.6-.4 15-.9.9 9.3 3.7 24.4 6.3 28.5 2.2 3.4 7.3 6.8 16.1 10.4l.6.2c3.7 1.6 9.5 4 14.9 7.5-1.1 2.3-5.4 11.4-6.7 24.2H58c-1.2-9.4-7.3-19.5-9.1-22.3 4.6-3.4 15.2-8.8 21.6-11.7zm80.8 34.2c-1.8-1.4-3.7-2.7-5.6-4h-.1c.2-1.3.4-2.6.7-3.8 2.7 3 5.8 5.8 9.4 7.8h-4.4zm-4.3 0-1.8-1.2c.1-.8.2-1.7.3-2.5 1.6 1.2 3.2 2.5 4.9 3.7H147zm-1.9-.7c.3.2.6.4.8.6h-.9c.1-.1.1-.3.1-.6zm-98.8.7c-2.9-.6-5.6-1.3-8.3-2.4.1-.9.2-2 .4-3 4.7 2.5 9.8 4.4 15.1 4.9.2 0 .2-.2 0-.3-5.2-1.1-10.2-2.6-15-5h-.2c.1-1.2.3-2.3.4-3.4v-.3c4.7 2.8 10 5.2 15.5 6.2.2 0 .3-.3.1-.4-5.3-1.8-10.5-3.6-15.5-6.3.2-.9.6-1.9 1.2-2.9 4.3 2.3 9.1 4.6 13.9 5.5.8 2.4 1.5 4.9 1.9 7.3l-9.5.1zm-3.2-16.9c2.6 1.1 5.3 2.1 8 2.9h.1c.9 1.9 1.9 4 2.7 6.3-4.5-1.9-9.1-3.3-13.5-5.5.7-1.2 1.6-2.4 2.7-3.7zm3.5-3.6c.5.3 1 .5 1.4.7.4.6.8 1.4 1.3 2.3-1.2-.8-2.5-1.4-3.8-2 .4-.3.8-.6 1.1-1zm1 0-.6-.3c.1-.1.2-.1.2-.2.2.1.3.3.4.5zm-2.4 1.4c1.5.8 2.9 1.6 4.5 2.1.5.8.9 1.7 1.4 2.7-2.5-1.1-5.1-2-7.6-2.9.5-.7 1-1.3 1.7-1.9zm-7.3 17.3c1.7.8 3.6 1.5 5.5 1.8h-5.7c.1-.5.1-1.1.2-1.8zm118.4 1.8c-3.6-2.5-6.9-5.1-9.9-8.3.6-2.6 1.3-5 1.9-7.1 3 2.9 6.3 5.8 9.9 8 .2.1.3-.1.2-.3-3.4-2.6-6.8-5.2-9.9-8.1 1.2-3.6 2.4-6.1 2.9-7.3 2.3 1.6 4.4 3.3 6.2 5.3 5.4 5.9 6.1 14.8 6.1 17.8h-7.4zM96.5 212c.8.2 1.7.3 2.6.3 3.1 0 6.4-1.3 8.9-3.6 2.6-2.4 3.9-5.6 3.3-8.6-1.1-6.6-2.3-16.8-2.3-16.9 0-.3-.2-.5-.4-.7s-.5-.2-.8-.2c-6.8.9-15.3-.6-15.3-.6-.5-.1-1 .2-1.1.6-3.2 9-3.2 19.1-.1 25.1 1.4 2.5 3.2 4.1 5.2 4.6zM93 183.8c2.2.4 8.5 1.2 14.1.6.3 2.8 1.2 10.6 2.2 16 .4 2.4-.6 4.9-2.7 6.8-2.7 2.5-6.5 3.6-9.6 2.8-1.5-.4-2.8-1.6-3.9-3.6-2.3-4.4-3.3-13.1-.1-22.6zm54.7 24.3c-.1-.1-.3.1-.2.2 3.6 4.1 7.6 7.9 12.3 10.6.2.1.3-.1.1-.2-4.3-3.3-8.5-6.5-12.2-10.6zm3.3-6.7c-.2-.2-.5.1-.3.3 1.3 1.2 2.6 2.4 3.9 3.5.1.1.3-.1.2-.2-1.2-1.2-2.5-2.4-3.8-3.6z" fill="#000000" stroke-width="none" opacity="1"></path></g><g id="svga-group-head" transform="matrix(1,0,0,1,0,0)"><g id="svga-group-ears-left-move" transform="matrix(1,0,0,1,0,0)"><g id="svga-group-ears-left" transform="matrix(1,0,0,1,0,0)"><path id="SvgjsPath18591" d="M64.4 81.9s-4.4-4.7-5.8-6.2c-1.4-1.4-3.1-4.7-5-4.1-1.9.5-1.2 2.7-1.3 5.8-.1 3.1.3 9.1 2.2 12.4s2.9 4.5 3.5 8 2.8 4.2 4.1 3.2 4.3-7 4.4-10.2c0-3.2-1.2-7.5-2.1-8.9z" fill="#ffffff" stroke-width="none" opacity="1"></path><path id="SvgjsPath18592" d="M59.7 102.2c-.8-.3-2.3-1.3-2.8-4.2-.5-2.9-1.2-4-2.7-6.5l-.6-1.1c-2.1-3.6-2.5-10.1-2.4-13v-2c0-2-.1-4.1 2.1-4.7 2.1-.6 3.7 1.5 5 3.2.4.5.7.9 1 1.2 1.4 1.4 5.8 6.2 5.8 6.2l.1.1c.9 1.4 2.3 6 2.2 9.4-.1 3.4-3.2 9.8-4.8 11-.5.4-1.2.6-1.8.6-.4 0-.7-.1-1.1-.2zm-1.8-25.7c-.4-.4-.7-.9-1.1-1.4-.8-1.1-2.1-2.7-2.9-2.5-.6.2-.7.6-.6 2.8v2.1c-.1 3.1.3 8.9 2.1 11.9l.6 1.1c1.5 2.6 2.4 4 3 7.2.3 1.4.8 2.4 1.5 2.7.3.1.7.1 1-.1 1-.8 3.9-6.5 4-9.4.1-3-1.1-7.1-1.8-8.2-.7-.7-4.6-4.9-5.8-6.2z" fill="#000000" stroke-width="none" opacity="1"></path><path id="SvgjsPath18593" d="M52.7 76.3c.5-1.9 2.1-1 3 .4 1.9 2.6 3.2 6.6 3.6 10 0 .1-.1.2-.1.1-.1.1-.2.1-.2-.1-1.2-.5-1.6-.2-1.2.8 0 .3.1.6.3.9.2.5.6 1 .9 1.5.5.8 1.2 1.5 1.7 2.3.2.3 0 .6-.2.4-1.4-1-3.9-4.3-3.2-6.6.3-.8 1-1.1 1.5-.7-1.1-3.6-4-12-5.8-8.8-.1.1-.3 0-.3-.2z" fill="#000000" stroke-width="none" opacity="1"></path><path id="SvgjsPath18594" d="M55.6 76.8c-1 2-1.4 4.4-.9 7.1.3 1.5 2.9 9.5 4.9 8.4.2-.1.4.3.2.5-2 1.8-4.2-4.5-4.9-6.5-1.1-3.4-1.4-7.5.5-9.7.1-.1.2.1.2.2z" fill="#000000" stroke-width="none" opacity="1"></path></g></g><g id="svga-group-ears-right-move" transform="matrix(1,0,0,1,0,0)"><g id="svga-group-ears-right" transform="matrix(1,0,0,1,0,0)"><path id="SvgjsPath18595" d="M137.1 81.9s4.4-4.7 5.8-6.2c1.4-1.4 3.1-4.7 5-4.1 1.9.5 1.2 2.7 1.3 5.8s-.3 9.1-2.2 12.4c-1.9 3.3-2.9 4.5-3.5 8-.6 3.5-2.8 4.2-4.1 3.2-1.3-1-4.3-7-4.4-10.2 0-3.2 1.2-7.5 2.1-8.9z" fill="#ffffff" stroke-width="none" opacity="1"></path><path id="SvgjsPath18596" d="M140.7 102.4c-.6 0-1.3-.2-1.8-.6-1.5-1.2-4.7-7.5-4.8-11-.1-3.4 1.2-8 2.2-9.4l.1-.1s4.4-4.7 5.8-6.2c.3-.3.6-.8 1-1.2 1.3-1.7 2.9-3.8 5-3.2 2.2.6 2.1 2.7 2.1 4.7v2c.1 2.9-.2 9.4-2.4 13l-.6 1.1c-1.5 2.5-2.2 3.7-2.7 6.5-.5 2.9-2 3.9-2.8 4.2-.4.1-.7.2-1.1.2zm-2.8-19.9c-.7 1.2-1.9 5.2-1.8 8.2.1 2.9 2.9 8.6 4 9.4.3.2.6.3 1 .1.7-.3 1.3-1.3 1.5-2.7.6-3.2 1.4-4.7 3-7.2l.6-1.1c1.8-3 2.2-8.7 2.1-11.9v-2.1c.1-2.2 0-2.6-.6-2.8-.8-.2-2 1.4-2.9 2.5-.4.5-.8 1-1.1 1.4-1.3 1.5-5.2 5.7-5.8 6.2z" fill="#000000" stroke-width="none" opacity="1"></path><path id="SvgjsPath18597" d="M148.8 76.3c-.5-1.9-2.1-1-3 .4-1.9 2.6-3.2 6.6-3.6 10 0 .1.1.2.1.1.1.1.2.1.2-.1 1.2-.5 1.6-.2 1.2.8 0 .3-.1.6-.3.9-.2.5-.6 1-.9 1.5-.5.8-1.2 1.5-1.7 2.3-.2.3 0 .6.2.4 1.4-1 3.9-4.3 3.2-6.6-.3-.8-1-1.1-1.5-.7 1.1-3.6 4-12 5.8-8.8.1.1.3 0 .3-.2z" fill="#000000" stroke-width="none" opacity="1"></path><path id="SvgjsPath18598" d="M145.9 76.8c1 2 1.4 4.4.9 7.1-.3 1.5-2.9 9.5-4.9 8.4-.2-.1-.4.3-.2.5 2 1.8 4.2-4.5 4.9-6.5 1.1-3.4 1.4-7.5-.5-9.7-.1-.1-.2.1-.2.2z" fill="#000000" stroke-width="none" opacity="1"></path></g></g><g id="svga-group-faceshape-wrap" transform="matrix(1,0,0,1,0,0)"><g id="svga-group-faceshape-single"><path id="SvgjsPath18578" d="M138.2 58.2c-2-10.8-13.3-27.4-37.2-27.4S69.1 43.5 65.5 53c-3 8.1-3 21.3-3 21.3s.4 28.4 10 46.1c9.3 17 28.9 31.8 46.2 11.8 21.5-24.8 20.6-57.8 20.6-57.8s.3-8.5-1.1-16.2z" fill="#ffffff" stroke-width="none" opacity="1"></path><path id="SvgjsPath18579" d="M100.7 143.1c-.8 0-1.5 0-2.3-.1-11.8-1.3-21.7-12.2-27-22-9.6-17.7-10.2-45.5-10.2-46.7 0-.6 0-13.6 3.1-21.8 5.8-15.5 17.8-23 36.7-23 10.9 0 20.5 3.4 27.7 10 5.5 5 9.6 11.9 10.8 18.5 1.4 7.6 1.2 15.7 1.2 16.4s.1 8.8-2.3 19.9c-2.3 10.5-7.4 25.8-18.7 38.8-5.8 6.6-12.2 10-19 10zm.3-111c-17.7 0-28.9 7-34.3 21.3-2.9 7.8-2.9 20.8-2.9 20.9 0 .3.5 28.3 9.9 45.5 5 9.2 14.2 19.5 25 20.6 6.8.7 13.3-2.3 19.1-9.1 20.9-24.1 20.3-56.6 20.3-57 0-.1.2-8.4-1.2-15.9-1.1-6-4.8-12.4-10-17-6.6-6.1-15.6-9.3-25.9-9.3z" fill="#000000" stroke-width="none" opacity="1"></path></g></g><g id="svga-group-mouth-single-move" transform="matrix(1,0,0,1,0,0)"><g id="svga-group-mouth-single" transform="matrix(1,0,0,1,0,0)"><path id="SvgjsPath18661" d="M112.49 120.48c-.67.61-1.44.8-2.25.77v-.01c-1.46-3.33-4.65-5.48-8.28-5.63-.17-.01-.23.13-.22.26a1.734 1.734 0 0 1-3.3-.17c0-.01-.01-.01-.01-.01.06-.15-.06-.38-.28-.33-3.48.78-7.44 2.4-7.82 6.45-.94.17-1.81.06-2.46-.74-.38-.48-1.06.2-.67.67.94 1.16 2.29 1.27 3.61.92-.3 1.5.42 2.96 1.76 3.8 2.32 1.46 5.22.65 7.75.55 2.6-.1 5.5.51 7.86-.92 1.43-.87 2.22-2.31 2.04-3.93 1.05.04 2.05-.21 2.95-1.02.45-.4-.23-1.07-.68-.66zM98 115.9c.66 2.01 3.29 2.09 4.14.22 3.29.2 6.12 2.13 7.54 5.08-1.44-.21-2.97-.96-4.24-1.27-1.87-.46-3.82-.65-5.74-.57-1.81.08-3.63.39-5.36.94-.98.31-2.28 1.05-3.52 1.4.41-3.62 4.03-5.07 7.18-5.8zm2.31 10.65c-1.59.06-3.18.41-4.78.29-2.31-.16-4.97-1.72-4.2-4.34.03-.01.06-.02.1-.03 2.77-1.03 5.25-2.03 8.26-2.16 2.92-.12 5.53.54 8.28 1.42.59.19 1.18.33 1.75.4.87 5.1-6.38 4.3-9.41 4.42z" fill="#000000" stroke-width="none" opacity="1"></path></g></g><g id="svga-group-eyes-left-move" transform="matrix(1,0,0,1,0,0)"><g id="svga-group-eyes-left" transform="matrix(1,0,0,1,0,0)"><g id="svga-group-eyesback-left"></g><g id="svga-group-eyesiriswrapper-left"><g id="svga-group-eyesiriscontrol-left" transform="matrix(1,0,0,1,0,0)"><g id="svga-group-eyesiris-left" transform="matrix(1,0,0,1,0,0)"><path id="SvgjsPath18629" d="M77.3 84.3c-1.4 1.8-1.2 4.1.4 5.5 1.7 1.5 4.5 1.9 6.5.1 1-1 1.7-2.4 1.4-3.7-.1-.4-.3-.9-.5-1.3-.2-.5-.5-1-.9-1.4-2-1.7-5.2-1.3-6.9.8z" fill="#ffffff" stroke-width="none" opacity="1"></path><path id="SvgjsPath18630" d="M81.8 89c0-.1-.1-.1-.1-.2 0-.2 0-.3.1-.5s.4-.4.7-.4c.2 0 .3.1.5.2l.2.2c.3-.3.5-.8.5-1.3s-.2-.9-.5-1.2c-.2-.6-.7-1.1-1.4-1.3-.4-.1-.8-.1-1.2 0 .3.7 0 1.7-1 1.7-.3 0-.5-.1-.7-.2-.4.9-.2 2 .6 2.7.6.5 1.5.6 2.3.3zm-.7 2.4c-1.3 0-2.7-.5-3.6-1.4-1.7-1.5-1.8-4.1-.4-5.9.9-1.1 2.2-1.8 3.7-1.9 1.3-.1 2.6.3 3.5 1.1.4.4.8.9 1 1.4.2.4.4.9.6 1.3.3 1.3-.3 2.9-1.4 4-1.2 1-2.3 1.4-3.4 1.4zm-3.6-6.9c-1.3 1.6-1.1 3.8.3 5.1 1.6 1.4 4.2 1.8 6.1.1 1-1 1.5-2.4 1.3-3.5-.1-.4-.3-.8-.5-1.2v-.1c-.2-.5-.5-.9-.8-1.2-.8-.7-1.9-1.1-3.1-1-1.3.2-2.5.8-3.3 1.8z" fill="#000000" stroke-width="none" opacity="1"></path></g></g></g><g id="svga-group-eyesfront-left"><path id="SvgjsPath18719" d="M81.02 74.43c-6.9 0-12.5 5.6-12.5 12.5s5.6 12.5 12.5 12.5 12.5-5.6 12.5-12.5-5.6-12.5-12.5-12.5zm4.54 16.93c-3.76 1.16-8.34-.16-10.67-1.75s-3.88-4.07-3.88-4.07c7.61-1.82 11.41-.23 14.24.93 2.83 1.16 4.19 3.45 4.19 3.45s-.12.28-3.88 1.44z" fill="#ffffff" stroke-width="none" opacity="1"></path><path id="SvgjsPath18720" d="M89.88 84.61c-.14-.24-.5-.08-.44.18.26 1.17.6 2.33.69 3.53.01.12 0 .23.01.34-1.72-4.58-4.19-7.31-7.36-8.12-5.72-1.48-11.67 3.75-12.75 4.76-2.31.78-4.43.91-5.94.34a.47.47 0 0 0-.61.28c-.09.24.03.52.28.61.79.3 1.64.42 2.49.42 1.39 0 2.77-.32 3.89-.68.06.01.13.01.2-.01 1.1-.32 2.14-.56 3.14-.74-.34.21-.74.42-1.2.63a.47.47 0 0 0-.6-.06c-.13.09-.2.24-.2.39-1.01.37-2.23.64-3.63.64a.47.47 0 1 0 0 .94c1.61 0 2.99-.33 4.12-.75 2.94 3.9 6.63 5.02 9.89 5.02 3.82 0 7.03-1.52 7.72-1.88.22.29.35.49.38.53.03.05.07.08.11.11 0 .15-.01.3-.01.45.01.25.4.41.52.14.9-2.08.47-5.16-.7-7.07zm-17.02 2.32c1.58-.75 2.49-1.62 2.55-1.68 0 0 0-.01.01-.01 7.54-.73 11.74 2.56 13.51 4.47-1.75.88-10.32 4.62-16.07-2.78zm-.78-2.1c1.89-1.45 5.24-3.59 8.63-3.59.61 0 1.23.07 1.84.23 2.76.71 4.96 3.11 6.55 7.13-2.48-2.36-7.87-5.8-17.02-3.77z" fill="#000000" stroke-width="none" opacity="1"></path></g></g></g><g id="svga-group-eyes-right-move" transform="matrix(1,0,0,1,0,0)"><g id="svga-group-eyes-right" transform="matrix(1,0,0,1,0,0)"><g id="svga-group-eyesback-right"></g><g id="svga-group-eyesiriswrapper-right"><g id="svga-group-eyesiriscontrol-right" transform="matrix(1,0,0,1,0,0)"><g id="svga-group-eyesiris-right" transform="matrix(1,0,0,1,0,0)"><path id="SvgjsPath18631" d="M115.8 84.3c-1.4 1.8-1.2 4.1.4 5.5 1.7 1.5 4.5 1.9 6.5.1 1-1 1.7-2.4 1.4-3.7-.1-.4-.3-.9-.5-1.3-.2-.5-.5-1-.9-1.4-2.1-1.7-5.3-1.3-6.9.8z" fill="#ffffff" stroke-width="none" opacity="1"></path><path id="SvgjsPath18632" d="M120.2 89c0-.1-.1-.1-.1-.2 0-.2 0-.3.1-.5s.4-.4.7-.4c.2 0 .3.1.5.2l.2.2c.3-.3.5-.8.5-1.3s-.2-.9-.5-1.2c-.2-.6-.7-1.1-1.4-1.3-.4-.1-.8-.1-1.2 0 .3.7 0 1.7-1 1.7-.3 0-.5-.1-.7-.2-.4.9-.2 2 .6 2.7.7.5 1.6.6 2.3.3zm-.7 2.4c-1.3 0-2.7-.5-3.6-1.4-1.7-1.5-1.8-4.1-.4-5.9.9-1.1 2.2-1.8 3.7-1.9 1.3-.1 2.6.3 3.5 1.1.4.4.8.9 1 1.4.2.4.4.9.6 1.3.3 1.3-.3 2.9-1.4 4-1.1 1-2.2 1.4-3.4 1.4zm-3.5-6.9c-1.3 1.6-1.1 3.8.3 5.1 1.6 1.4 4.2 1.8 6.1.1 1-1 1.5-2.4 1.3-3.5-.1-.4-.3-.8-.5-1.2v-.1c-.2-.5-.5-.9-.8-1.2-.8-.7-1.9-1.1-3.1-1-1.3.2-2.5.8-3.3 1.8z" fill="#000000" stroke-width="none" opacity="1"></path></g></g></g><g id="svga-group-eyesfront-right"><path id="SvgjsPath18721" d="M118.98 74.43c-6.9 0-12.5 5.6-12.5 12.5s5.6 12.5 12.5 12.5 12.5-5.6 12.5-12.5-5.59-12.5-12.5-12.5zm6.4 15.19c-2.33 1.59-6.91 2.91-10.67 1.75-3.76-1.16-3.88-1.44-3.88-1.44s1.36-2.29 4.19-3.45c2.83-1.16 6.64-2.75 14.24-.93 0-.01-1.55 2.48-3.88 4.07z" fill="#ffffff" stroke-width="none" opacity="1"></path><path id="SvgjsPath18724" d="M136.79 85.93a.474.474 0 0 0-.61-.28c-1.51.57-3.63.43-5.94-.34-1.08-1.01-7.03-6.24-12.75-4.76-3.6.93-6.29 4.31-8.02 10.06a.471.471 0 0 0 .45.61c.16 0 .32-.08.4-.23.03-.05.16-.25.38-.53.69.35 3.9 1.88 7.72 1.88 3.26 0 6.95-1.12 9.89-5.02 1.13.43 2.51.75 4.12.75a.47.47 0 1 0 0-.94c-1.4 0-2.62-.28-3.63-.64 0-.15-.06-.3-.2-.39a.47.47 0 0 0-.6.06c-.46-.21-.86-.43-1.2-.63 1 .18 2.04.41 3.14.74.07.02.13.02.2.01 1.12.36 2.5.68 3.89.68.84 0 1.69-.12 2.49-.42.24-.1.36-.37.27-.61zm-11.93-.67c.07.06.97.93 2.55 1.68-5.75 7.39-14.32 3.66-16.07 2.78 1.77-1.92 5.97-5.21 13.52-4.46-.01-.01-.01-.01 0 0zm-13.69 3.33c1.59-4.02 3.79-6.42 6.55-7.13.61-.16 1.22-.23 1.84-.23 3.39 0 6.75 2.14 8.63 3.59-9.15-2.02-14.55 1.42-17.02 3.77z" fill="#000000" stroke-width="none" opacity="1"></path></g></g></g><g id="svga-group-facehighlight-single"></g><g id="svga-group-eyebrows-left-move" transform="matrix(1,0,0,1,0,0)"><g id="svga-group-eyebrows-left-rotate" transform="matrix(1,0,0,1,0,0)"><g id="svga-group-eyebrows-left" transform="matrix(1,0,0,1,0,0)"><path id="SvgjsPath18686" d="M68.15 74.45c.07-.02 7.19-1.94 13.38-2.06 5.03-.1 9.36 1.37 9.73 2.7.1.37-.06.71-.42.92-.18.1-.65.17-1.34.21-4.48.24-18.19-.69-21.26-.91a.44.44 0 0 1-.41-.4c-.03-.2.11-.4.32-.46z" fill="#000000" stroke-width="none" opacity="1"></path></g></g></g><g id="svga-group-eyebrows-right-move" transform="matrix(1,0,0,1,0,0)"><g id="svga-group-eyebrows-right-rotate" transform="matrix(1,0,0,1,0,0)"><g id="svga-group-eyebrows-right" transform="matrix(1,0,0,1,0,0)"><path id="SvgjsPath18687" d="M132.11 74.45c-.07-.02-7.19-1.94-13.38-2.06-5.03-.1-9.36 1.37-9.73 2.7-.1.37.06.71.42.92.18.1.65.17 1.34.21 4.48.24 18.19-.69 21.26-.91a.44.44 0 0 0 .41-.4c.03-.2-.11-.4-.32-.46z" fill="#000000" stroke-width="none" opacity="1"></path></g></g></g><g id="svga-group-nose-single-move" transform="matrix(1,0,0,1,0,0)"><g id="svga-group-nose-single" transform="matrix(1,0,0,1,0,0)"><path id="SvgjsPath18671" d="M107.5 99.6c-.5-.4-.9.4-.5.8 1.2.9 1.9 2.6 1 4.1-.9 1.4-2.8 1.5-3.8.1.2-.2.4-.5.5-.8.3-.5-.5-1-.8-.5-2 3.3-6.6 3.5-8.9.4-.3-.5-1.1 0-.8.5.2.2.3.5.5.7-.1 0-.1.1-.1.1-1.2 1.6-3.5.7-3.9-1-.4-1.6.6-3 2-3.8.5-.3 0-1.1-.5-.8-2 1.2-3.3 3.7-1.9 5.9 1.2 1.9 3.8 2 5.1.2 2.4 2 5.8 1.9 8.1-.2 1.2 1.6 3.6 1.6 4.9 0 1.7-1.9.9-4.4-.9-5.7z" fill="#000000" stroke-width="none" opacity="1"></path><path id="SvgjsPath18672" d="M95.7 98.4c2-.8 4.1-1.1 6.2-.7.6.1.8-.8.2-.9-2.3-.4-4.5-.2-6.7.7-.4.2-.2 1.1.3.9z" fill="#000000" stroke-width="none" opacity="1"></path></g></g><g id="svga-group-hair-front" transform="matrix(1,0,0,1,0,0)"></g><g id="svga-group-glasses-single-move" transform="matrix(1,0,0,1,0,0)"><g id="svga-group-glasses-single" transform="matrix(1,0,0,1,0,0)"></g></g></g></g></g><rect id="svga-credit-rect" width="200" height="15" x="0" y="185" fill="#ecf0f1" opacity="0.5" style="display: none;"></rect><text id="svga-credit-text" font-family="Avenir Next, Roboto, Helvetica, Arial, sans-serif" font-size="10px" text-anchor="start" font-weight="400" size="10px" anchor="start" weight="400" fill="#333333" x="33.402061462402344" y="182.71133995056152" style="display: none;"><tspan id="SvgjsTspan18146" dy="13" x="33.402061462402344">Created on AvatarMaker.com</tspan></text></g></svg>