<svg xmlns="http://www.w3.org/2000/svg" version="1.1" width="600px" height="600px" viewBox="0 0 200 200" style="overflow:hidden!important;"><defs id="SvgjsDefs15250"></defs><g id="svga-group-wrapper"><g id="svga-group-backs-single"></g><g id="svga-group-humanwrap-move" transform="matrix(1,0,0,1,0,0)"><g id="svga-group-humanwrap" transform="matrix(1,0,0,1,0,0)"><g id="svga-group-hair-back-move" transform="matrix(1,0,0,1,0,0)"><g id="svga-group-hair-back" transform="matrix(1,0,0,1,0,0)"><path id="SvgjsPath15932" d="M140.4 90.8s1.1 10.6-7.4 32.3-12.6 27.9-27.2 36-16 15.2-23.7 27.7c-6.9 11.2-21.5 17.6-21.5 17.6s1.8-6-6.7-23.1-6.7-25.9-.7-39.7 39.4-73.4 49.3-77.7 33-2.9 37.9 26.9z" fill="#000000" stroke-width="none" opacity="1"></path><path id="SvgjsPath15933" d="M132.6 105.5c-2.5 21.2-15.4 37.9-33.9 48.5-14.9 8.5-35 18.3-35.5 37.6.1 0 .2-.1.3-.1.3-.1.6-.2.8-.3-.2.1-.4.2-.6.2.2-.1.5-.1.7-.2.9-23.2 29.9-31 45.5-43 13.5-10.4 22-26.1 23.9-42.9-.4.1-.8.1-1.2.2zm-7.3 16.7c-6.9 23.9-35.6 27.1-53 40.3-6.3 4.8-11.7 12.1-13.7 19.8.4-15.3 13.9-27.4 26.2-35.6 13.1-8.7 27.4-16.4 35-30.7.4-.7-.7-1.3-1.1-.6-9.3 17.4-28.2 24.6-43 36.3-8.1 6.4-15.2 15.1-17.6 24.9.1-5.3 1.1-10.7 3.2-15.8 4.4-10.9 12.6-18.4 22.3-24.5 7.8-4.9 16-9.1 22.8-15.4 4.8-4.4 8.7-9.6 11.7-15.3-.5 0-1 .1-1.5.1-4.5 8.1-10.8 14.9-18.5 20.2-8.4 5.8-17.9 10.1-25.6 17-11.7 10.3-16.9 25.3-15.2 40-2.1-6.8-2.7-14-.8-21.1 2.8-10.3 10.1-18.7 17.5-26 8.7-8.7 18.9-17.6 24.4-28.6-.4 0-.9.1-1.3.1-7.3 14.4-22.9 24.9-32.8 37.4-5.2 6.6-9.2 14.2-10.1 22.7-.7 7 .8 13.9 3.4 20.3 0 .2.1.3.1.5 0 1.9.2 3.8.8 5.7.8-.6 1.8-1.1 2.8-1.5-.5-1-1-2-1.5-3.1-.2-.9-.5-1.8-.7-2.7.2-4.6 1.8-9.3 4.4-13.3 5.8-8.8 15.3-14.1 24.6-18.6 15.2-7.3 33.2-14.4 38.3-32.2.3-.8-.9-1.1-1.1-.3zm-66.6 25.7c6.6-8.3 15.5-15 17.6-26 .2-.8-1.1-1.1-1.2-.3-2.6 13.4-15.5 20.3-21.6 31.9-4.9 9.5-5.6 20.5-2.2 30.6.2.8 1.5.4 1.2-.3-4.1-12.4-1.9-25.7 6.2-35.9zm29.4 18c-7.9 4-13.5 11.2-15.6 19.8-.2.8 1 1.1 1.2.3 2-8.4 7.3-15.2 15-19.1.7-.3.1-1.4-.6-1z" fill="#ffffff" stroke-width="none" opacity="1"></path></g></g><g id="svga-group-humanbody-back"><path id="SvgjsPath15508" d="M86.5 122c0 18.8 2.7 50.3-8.1 58s-31.8 13.9-36.7 24.4-3.6 14.4-3.6 14.4h124.1s.6-8.1-4.2-15.4c-6.6-10.1-28.5-17.7-36.5-22.9-8.1-5.2-10.9-32.2-10.9-58.8l-24.1.3z" fill="#ffffff" stroke-width="none" opacity="1"></path></g><g id="svga-group-chinshadow-single"></g><g id="svga-group-humanbody-front"><path id="SvgjsPath15509" d="M163.4 220.1H37.2l-.3-.9c-.1-.5-1.3-4.7 3.6-15.3 3.4-7.3 13.6-12.4 23.5-17.4 5.1-2.5 9.9-5 13.6-7.5 8.6-6 8.1-29.8 7.7-47.1-.1-3.5-.1-6.8-.1-9.8v-1.3l26.7-.4v1.3c0 32 3.8 53.5 10.3 57.7 2.4 1.6 6 3.3 10.2 5.4 9.7 4.7 21.9 10.6 26.7 18 5 7.6 4.4 15.9 4.4 16.2l-.1 1.1zm-124.1-2.6h121.6c-.1-2.4-.6-8.2-4-13.4-4.4-6.7-16.2-12.5-25.6-17-4.3-2.1-8-3.9-10.5-5.5-9.8-6.3-11.4-38.8-11.5-58.6l-21.5.4c0 2.6.1 5.5.1 8.5.4 18.9.9 42.4-8.8 49.3-3.8 2.7-8.7 5.1-13.9 7.7-9.5 4.8-19.4 9.7-22.3 16.1-3.3 6.9-3.7 10.9-3.6 12.5z" fill="#000000" stroke-width="none" opacity="1"></path><path id="SvgjsPath15510" d="M76.8 188.7c4.8 2.3 10.4 3.9 15.7 2.9.4-.1.4-.7 0-.8-5.1-.9-10.2-1.4-15.2-3.2-.6-.2-1.1.8-.5 1.1z" fill="#000000" stroke-width="none" opacity="1"></path><path id="SvgjsPath15511" d="M108.3 191.1c2.4.3 4.9-.4 7.1-1.2 2.1-.8 4.3-1.7 5.8-3.4.5-.5-.1-1.2-.7-.9-2.1.9-3.9 2.3-6.1 3-2 .7-4.1 1-6.2 1.5-.6.1-.4.9.1 1z" fill="#000000" stroke-width="none" opacity="1"></path></g><g id="svga-group-clothes-single"><path id="SvgjsPath15855" d="M59.18 219.21s6.83-12.86 12.06-18.68c.65-.73 23.1 10.99 27.59 14.07 0 0 19.47-11.46 25.39-14.78 0 0 8.42 10.49 14.53 19.39H59.18z" fill="#ffffff" stroke-width="none" opacity="1"></path><path id="SvgjsPath15856" d="M139.57 218.64c-5.4-7.88-12.69-17.09-14.26-19.06l4.01-15.95a.995.995 0 0 0-.73-1.21.987.987 0 0 0-1.21.73l-4.02 16.02c-5.66 3.19-21.38 12.43-24.49 14.26-2.88-1.85-9.53-5.45-14.81-8.17-7.37-3.8-10.56-5.22-12.05-5.61l-4.42-13.93a.999.999 0 0 0-1.26-.65c-.53.17-.82.73-.65 1.25l4.44 13.99c-5.19 6-11.55 17.93-11.82 18.45-.16.31-.15.68.03.98.18.3.51.48.86.48h79.57c.37 0 .71-.21.88-.53.17-.34.14-.74-.07-1.05zm-78.71-.43c1.89-3.43 6.79-12.02 10.79-16.64 3.27 1.01 22.21 10.83 26.62 13.84.32.22.74.23 1.07.04.19-.11 18.06-10.63 24.63-14.35 1.81 2.27 7.89 10 12.87 17.1H60.86z" fill="#000000" stroke-width="none" opacity="1"></path></g><g id="svga-group-head" transform="matrix(1,0,0,1,0,0)"><g id="svga-group-ears-left-move" transform="matrix(1,0,0,1,0,0)"><g id="svga-group-ears-left" transform="matrix(1,0,0,1,0,0)"><path id="SvgjsPath15739" d="M66.8 82.4s-3.6-5.4-5.6-7.8-4.7-5-6.3-1.1c-1.6 3.9-2.5 11.6-1.6 16.9s6.8 11 9.6 11.2c2.8.2 5.7-7.6 5.9-10.3.3-2.8-.6-6.9-2-8.9z" fill="#ffffff" stroke-width="none" opacity="1"></path><path id="SvgjsPath15740" d="M52.2 90.4c-1-5.5.1-13.3 1.6-17.2.2-.6 1-2.4 2.9-2.6 2.1-.2 3.9 1.6 5.5 3.5 2.1 2.4 5.5 7.7 5.7 7.9 1.4 2.1 2.4 6.4 2.1 9.3-.2 2.4-2.4 8.8-5.2 10.6-.6.4-1.3.6-2 .5-3.6-.3-9.7-6.4-10.6-12zm8-15.4c-2.3-2.7-3.1-2.7-3.2-2.7-.1 0-.5.3-1 1.4-1.5 3.7-2.5 11.3-1.6 16.5.9 5.3 6.7 10.3 8.5 10.5 1.4-.2 4.4-6.1 4.7-9.5.2-2.6-.7-6.6-1.9-8.5 0 0-3.5-5.4-5.5-7.7z" fill="#000000" stroke-width="none" opacity="1"></path><path id="SvgjsPath15741" d="M57.9 78c2 1.3 3.6 3.5 4.3 6 0 .2-.2.2-.2.1 0 0 0-.1-.1-.1-.6-.5-1.2-1.1-1.9-1.1-1.1 0-1.1 1.4-.8 2.5.4 1.5 1.1 2.9 1.9 4.2.1.2-.1.3-.2.2-1.2-1.5-3-4.6-2.4-6.6.5-1.7 2-.9 3.1.1-.6-1.3-1.4-2.5-2.4-3.5-1.3-1.3-4.1-3.4-4.9-.9 0 .1-.2.1-.2-.1.1-2.5 2.6-1.7 3.8-.8z" fill="#000000" stroke-width="none" opacity="1"></path><path id="SvgjsPath15742" d="M61.7 92.6c1 2.5-1.2 3-2.5 1.9-2.1-1.7-3.5-5.5-3.5-8.4 0-.2.2-.2.2 0 .2 1.7.5 3.3 1.2 4.8.4.9 1 1.9 1.6 2.7.4.5.9.9 1.5 1.1 1.2 0 1.6-.7 1.3-2 0-.1.1-.2.2-.1z" fill="#000000" stroke-width="none" opacity="1"></path></g></g><g id="svga-group-ears-right-move" transform="matrix(1,0,0,1,0,0)"><g id="svga-group-ears-right" transform="matrix(1,0,0,1,0,0)"><path id="SvgjsPath15743" d="M133.2 82.4s3.6-5.4 5.6-7.8 4.7-5 6.3-1.1c1.6 3.9 2.5 11.6 1.6 16.9-.9 5.3-6.8 11-9.6 11.2-2.8.2-5.7-7.6-5.9-10.3-.3-2.8.6-6.9 2-8.9z" fill="#ffffff" stroke-width="none" opacity="1"></path><path id="SvgjsPath15744" d="M137.2 102.4c-.7 0-1.4-.1-2-.5-2.8-1.7-5-8.2-5.2-10.6-.3-2.9.7-7.1 2.1-9.3.1-.2 3.6-5.5 5.7-7.9 1.6-1.9 3.4-3.7 5.5-3.5 2 .2 2.7 2 2.9 2.6 1.6 3.9 2.6 11.8 1.6 17.2-.9 5.6-7 11.7-10.6 12zm-3-19.7c-1.2 1.9-2.1 5.8-1.9 8.5.3 3.4 3.2 9.4 4.7 9.5 1.9-.1 7.6-5.2 8.5-10.5.9-5.3-.1-12.8-1.6-16.5-.4-1.1-.9-1.4-1-1.4-.1 0-.9 0-3.2 2.7-1.9 2.3-5.4 7.7-5.5 7.7z" fill="#000000" stroke-width="none" opacity="1"></path><path id="SvgjsPath15745" d="M142.1 78c-2 1.3-3.6 3.5-4.3 6 0 .2.2.2.2.1 0 0 0-.1.1-.1.6-.5 1.2-1.1 1.9-1.1 1.1 0 1.1 1.4.8 2.5-.4 1.5-1.1 2.9-1.9 4.2-.1.2.1.3.2.2 1.2-1.5 3-4.6 2.4-6.6-.5-1.7-2-.9-3.1.1.6-1.3 1.4-2.5 2.4-3.5 1.3-1.3 4.1-3.4 4.9-.9 0 .1.2.1.2-.1-.1-2.5-2.6-1.7-3.8-.8z" fill="#000000" stroke-width="none" opacity="1"></path><path id="SvgjsPath15746" d="M138.3 92.6c-1 2.5 1.2 3 2.5 1.9 2.1-1.7 3.5-5.5 3.5-8.4 0-.2-.2-.2-.2 0-.2 1.7-.5 3.3-1.2 4.8-.4.9-1 1.9-1.6 2.7-.4.5-.9.9-1.5 1.1-1.2 0-1.6-.7-1.3-2 0-.1-.1-.2-.2-.1z" fill="#000000" stroke-width="none" opacity="1"></path></g></g><g id="svga-group-faceshape-wrap" transform="matrix(1,0,0,1,0,0)"><g id="svga-group-faceshape-single"><path id="SvgjsPath15725" d="M139.4 74.3s.2-8.5-1.2-16.1c-2-10.8-13.3-27.4-37.2-27.4S69.1 43.5 65.5 53c-3 8.1-3 21.3-3 21.3s-2 32.3-1 39.3c1 6.9 10.4 18.6 14.2 21 5.1 3.3 29.8 5.4 40.4 3.1s20.4-16.5 22.7-23.1c2.4-6.6.6-40.3.6-40.3z" fill="#ffffff" stroke-width="none" opacity="1"></path><path id="SvgjsPath15726" d="M104 140c-11.4 0-25-1.7-29-4.3-4.2-2.7-13.8-14.6-14.8-21.9-1-6.9.9-37.7 1-39.5 0-1 .1-13.7 3.1-21.8 5.8-15.5 17.8-23 36.7-23 10.9 0 20.5 3.4 27.7 10 5.5 5 9.6 11.9 10.8 18.5 1.4 7.5 1.2 15.6 1.2 16.3.1 2 1.7 34-.6 40.7-2.6 7.3-12.7 21.6-23.7 24-3.1.7-7.6 1-12.4 1zm-3-107.9c-17.7 0-28.9 7-34.3 21.3-2.9 7.8-2.9 20.8-2.9 20.9 0 .3-2 32.3-1 39 .9 6.5 10 17.8 13.7 20.1 4.6 3 29 5.2 39.4 2.9 9.9-2.2 19.5-15.7 21.8-22.3 1.8-5.2 1-30.5.5-39.8 0-.1.2-8.4-1.2-15.9-1.1-6-4.8-12.4-10-17-6.7-6-15.7-9.2-26-9.2z" fill="#000000" stroke-width="none" opacity="1"></path></g></g><g id="svga-group-mouth-single-move" transform="matrix(1,0,0,1,0,0)"><g id="svga-group-mouth-single" transform="matrix(1,0,0,1,0,0)"><path id="SvgjsPath15815" d="M112.4 120.4c-.5-.3-1.7-.4-2.1-.6-6.8-4.2-15-4-21.6.5-.3.1-2 .1-2.3.2-.6.2 1.4.8 2 .6 2.1-.7 4.1-1.1 6.4-1.1 1.9 0 3.6 1.2 5.5 1.1 1.6-.1 3.1-1.1 4.7-1.3 2.2-.2 3.5-.5 5.4.7.4.4 2.5.3 2-.1zm-6.4-1.5c-.1-.2-.2-.4-.2-.6.2.1.3.1.5.2v.1c.1.1.1.2.1.4-.2-.1-.3-.2-.4-.1zm-5.7-1.6h.7v.1c.2.8.4 1.6.7 2.4-.2 0-.3.1-.4.1-.3-.9-.6-1.8-1-2.6zm1.2 0c.2 0 .3 0 .5.1v.1c.2.7.4 1.3.6 2-.1 0-.3.1-.4.1-.3-.7-.5-1.5-.7-2.3zm1 .2c.2 0 .4.1.5.1.2.6.4 1.1.6 1.7-.2.1-.4.1-.6.2-.1-.8-.3-1.4-.5-2zm1.1.2c.2 0 .3.1.5.1v.1c.1.4.2.8.4 1.2-.1 0-.3.1-.4.1-.1-.6-.3-1.1-.5-1.5zm1.1.2c.2.1.4.1.6.2v.2c.1.2.2.4.2.7-.2 0-.3 0-.5.1-.1-.5-.2-.8-.3-1.2zm2.1.7c.3.1.7.3 1 .4-.3-.1-.6-.1-.9-.1-.1-.1-.1-.2-.1-.3zm-10.8.6c-.2-.5-.4-.9-.7-1.4.1 0 .3-.1.4-.1l.6 1.5H96zm-.9-.1c-.2-.3-.3-.7-.5-1.1.1 0 .2-.1.3-.1l.6 1.2h-.4zm-.8 0c-.2-.3-.3-.5-.5-.8.1 0 .2-.1.3-.1.1.3.3.6.4.9h-.2zm-.9 0-.3-.6c.1 0 .2-.1.3-.1.1.2.2.4.4.7h-.4zm-.9.2c-.1-.1-.2-.3-.2-.4.1-.1.3-.1.4-.2.1.2.2.3.2.5-.2 0-.3 0-.4.1zm-1.1.2c0-.1-.1-.1-.1-.2.2-.1.3-.2.5-.2.1.1.1.2.2.3-.2 0-.4 0-.6.1zm4.9-1.9c.2 0 .3-.1.5-.1.2.7.5 1.4.7 2-.2-.1-.4-.1-.5-.1-.3-.6-.5-1.2-.7-1.8zm.9-.1c.1 0 .3 0 .4-.1.3.8.7 1.6 1 2.4-.2 0-.4-.1-.6-.1-.2-.7-.5-1.5-.8-2.2zm.9-.2h.6v.1l.9 2.7c-.2 0-.3 0-.5-.1-.3-.9-.6-1.8-1-2.7zm-7.2 2.2s0 .1 0 0c-.1.1-.2.2-.3.2.1-.1.2-.1.3-.2zm9.3.5c-.3-.9-.7-1.8-.9-2.7h.6v.1c.4.8.7 1.7 1 2.6h-.7zm8.2 2.6c-5.6 2-11.6 2-17.2-.2-.3-.1-.4.4-.1.5 5.6 2.2 11.8 2.2 17.4.2.3-.1.2-.6-.1-.5z" fill="#000000" stroke-width="none" opacity="1"></path></g></g><g id="svga-group-eyes-left-move" transform="matrix(1,0,0,1,0,0)"><g id="svga-group-eyes-left" transform="matrix(1,0,0,1,0,0)"><g id="svga-group-eyesback-left"></g><g id="svga-group-eyesiriswrapper-left"><g id="svga-group-eyesiriscontrol-left" transform="matrix(1,0,0,1,0,0)"><g id="svga-group-eyesiris-left" transform="matrix(1,0,0,1,0,0)"><path id="SvgjsPath15777" d="M77.3 84.5c-1.4 1.8-1.2 4.1.4 5.5 1.7 1.5 4.5 1.9 6.5.1 1-1 1.7-2.4 1.4-3.7-.1-.4-.3-.9-.5-1.3-.2-.5-.5-1-.9-1.4-2-1.7-5.2-1.4-6.9.8z" fill="#ffffff" stroke-width="none" opacity="1"></path><path id="SvgjsPath15778" d="M85.8 86.3c-.1-.5-.3-.9-.6-1.3-.2-.6-.5-1-1-1.4-.9-.8-2.2-1.2-3.5-1.1-1.4.1-2.8.8-3.7 1.9-1.5 1.8-1.3 4.3.4 5.9.9.9 2.3 1.4 3.6 1.4 1.1 0 2.3-.4 3.2-1.3 1.3-1.3 1.9-2.8 1.6-4.1zm-.6-.1c-.6.1-1.2.1-1.9.2 0-.1-.1-.2-.1-.2.4-.1.7-.3 1.1-.5.2-.1.4-.1.6-.2.1.2.2.5.3.7zm-.8-1.6.3.6v.1c-.6.3-1.1.5-1.7.8-.1-.1-.1-.2-.2-.3.6-.5 1.1-.9 1.6-1.2zm-.6-.7c.2.1.3.3.4.4-.5.3-1.1.7-1.5 1.2l-.1-.1c-.1-.1-.2-.1-.2-.2.2-.3.4-.7.6-1 .1-.2.3-.4.4-.6.2.1.3.2.4.3zm-1.9.1c0-.3.1-.7.1-1 .4.1.8.2 1.2.5-.2.2-.3.4-.4.6-.2.3-.4.7-.6 1-.1-.1-.3-.1-.4-.2.1-.3.1-.6.1-.9zm-1.1-1.1h.4c.2 0 .4 0 .6.1-.1.3-.1.6-.1 1 0 .3-.1.7-.1 1-.2 0-.3-.1-.5-.1 0-.3-.1-.6-.1-.9-.1-.4-.2-.8-.2-1.1zm-4.1 3.6c.6.2 1.4.4 2 .3v.7c-.7-.1-1.3 0-2 0-.1-.4 0-.7 0-1zm0 1.2c.7-.1 1.3-.1 2-.1 0 .1.1.2.1.2-.3.1-.7.2-1 .4-.3.1-.6.2-.8.3-.1-.2-.2-.5-.3-.8zm.7 1.5c-.1-.1-.2-.3-.3-.4.3-.1.6-.2.8-.4.3-.1.6-.2.9-.4-.4.5-.9.8-1.4 1.2zm.4.5-.3-.3c.5-.3 1-.7 1.5-1.1.1.1.1.2.2.2-.2.2-.4.4-.6.7-.2.2-.4.5-.6.8 0-.1-.1-.2-.2-.3zm.5.4c.2-.2.4-.5.6-.8.2-.2.4-.4.5-.6.1.1.2.1.3.2-.2.2-.3.5-.5.8-.2.2-.3.4-.5.7-.1-.1-.2-.2-.4-.3zm.7.4c.2-.2.3-.4.4-.5l.6-.9c.1 0 .2.1.3.1-.2.5-.2 1.1-.5 1.6-.3-.1-.5-.2-.8-.3zm1 .3c.3-.5.4-1.1.5-1.6.2 0 .3.1.5.1-.1.5 0 1.1 0 1.7-.3 0-.6-.1-1-.2zm1.3.2c0-.5 0-1.1-.1-1.7.2 0 .3 0 .5-.1.1.5.3 1.1.5 1.6-.3.1-.6.1-.9.2zm3-1.6c-.4-.2-.8-.5-1.2-.8 0 .1-.1.2-.1.2.3.3.7.6 1 .8l-.2.2c-.2.2-.3.3-.5.4-.1-.2-.3-.4-.4-.6-.1-.2-.2-.3-.3-.5-.1 0-.2.1-.2.1.1.2.2.3.3.5.1.2.3.5.4.7-.2.1-.5.2-.7.3-.2-.5-.3-1.1-.6-1.6.1 0 .1 0 .1-.1l-.3-.3c-.7.2-1.6 0-2.1-.5-.4-.3-.6-.8-.5-1.3-.2-.1-.4-.3-.4-.6-.3-.1-.7-.1-1-.1-.3 0-.6-.1-.9-.2.1-.3.2-.7.4-1 .3.2.6.3.9.5.2.1.3.2.5.3 0-.1 0-.2.1-.3-.2-.1-.3-.1-.5-.2-.3-.1-.6-.3-.9-.4.1-.1.2-.2.2-.3l.6-.6c.1.2.3.4.5.6.1.1.2.3.4.4.1-.1.2-.1.2-.2l-.1-.1c-.2-.2-.3-.4-.5-.6-.1-.1-.2-.3-.3-.4.2-.2.5-.3.8-.5.1.3.2.5.4.7.1.2.3.4.4.6.1 0 .3 0 .4.1l-.6-.9c-.1-.2-.2-.5-.3-.7.3-.2.7-.2 1.1-.3 0 .3.1.7.2 1 .1.3.1.6.2.9-.2 0-.3.1-.4.1.1.1.3.2.3.3h.4c.5 0 .9.2 1.2.4.2.2.3.3.4.6.1.2.2.3.2.5.1.3 0 .6-.1.9.1.1.2.2.3.4 0 0 0-.1.1-.1.2.2.6.3.8.5.2.1.5.3.7.4-.1.5-.3.6-.4.8zm.5-.8c-.2 0-.8-.4-.9-.5-.2-.1-.3-.2-.5-.2 0 0-.1 0-.2-.1.1-.2.1-.4.2-.6.6.2 1.2.2 1.8.3-.1.4-.2.8-.4 1.1zm.4-1.3-1.8-.3v-.4c.6 0 1.3-.1 1.8-.2.1.4.1.6 0 .9zm-2.8.3h.2c.3-.9-.2-1.9-1.2-2.2-.2-.1-.4-.1-.6-.1.3.7 0 1.8-1.1 1.8h-.3c.1.6.3 1.1 1 1.4.4.2.9.2 1.2.1 0-.4.2-1 .8-1z" fill="#000000" stroke-width="none" opacity="1"></path></g></g></g><g id="svga-group-eyesfront-left"><path id="SvgjsPath15871" d="M81 74.4c-6.9 0-12.5 5.6-12.5 12.5S74.1 99.4 81 99.4s12.5-5.6 12.5-12.5S87.9 74.4 81 74.4zm7.1 17s-3.9.4-5.4.4c-4.1 0-7.1-1.8-7.1-1.8s-7.5-5.3-2.3-7.1c5-1.7 11.2.8 13.2 2.9 2.1 2.1 1.6 5.6 1.6 5.6z" fill="#ffffff" stroke-width="none" opacity="1"></path><path id="SvgjsPath15872" d="M71.3 84c-.3.8-.2 1.7.4 2.8 1.4 2.4 3.9 4.2 7.1 4.9 1.2.3 2.5.4 3.9.4s3-.1 4.7-.4c.1 0 .2-.1.3-.2 0 .1.1.3.3.3.2.1.5 0 .6-.3.7-1.9 0-4.3-1.6-6-1.2-1.3-3-2.2-5.4-3-3.2-.9-5.9-1-8.2-.2-1.2.5-1.8 1-2.1 1.7zm.8.4c.2-.5.7-.8 1.5-1.1 2.1-.7 4.7-.6 7.7.2 2.3.7 3.9 1.5 5 2.7 1.4 1.4 1.9 3.4 1.4 4.9-.1-.2-.2-.3-.4-.3h-.1c-3.3.6-6 .6-8.3 0-2.9-.7-5.3-2.3-6.5-4.5-.3-.5-.6-1.3-.3-1.9zm-4.9-3c.1 0 .2.1.2.2 0 .3.1.5.3.7.4.3 1.3.4 2.2.3.4-.1.9-.3 1.6-.5 1.6-.6 3.8-1.3 6.5-1.4 3.6-.1 8.3 1.2 10.3 4.2 1.2 1.7 1.7 4.2 1.5 7.2v.1c0 .1-.1.2-.2.2s-.2-.1-.2-.2V92c.2-2.9-.3-5.3-1.4-7-1.9-2.8-6.5-4.1-9.9-4-2.6 0-4.8.8-6.4 1.3-.6.2-1.2.4-1.6.5-1.1.4-2.1.2-2.6-.2-.3-.2-.5-.6-.5-1 0-.1.1-.2.2-.2z" fill="#000000" stroke-width="none" opacity="1"></path></g></g></g><g id="svga-group-eyes-right-move" transform="matrix(1,0,0,1,0,0)"><g id="svga-group-eyes-right" transform="matrix(1,0,0,1,0,0)"><g id="svga-group-eyesback-right"></g><g id="svga-group-eyesiriswrapper-right"><g id="svga-group-eyesiriscontrol-right" transform="matrix(1,0,0,1,0,0)"><g id="svga-group-eyesiris-right" transform="matrix(1,0,0,1,0,0)"><path id="SvgjsPath15779" d="M115.8 84.5c-1.4 1.8-1.2 4.1.4 5.5 1.7 1.5 4.5 1.9 6.5.1 1-1 1.7-2.4 1.4-3.7-.1-.4-.3-.9-.5-1.3-.2-.5-.5-1-.9-1.4-2.1-1.7-5.3-1.4-6.9.8z" fill="#ffffff" stroke-width="none" opacity="1"></path><path id="SvgjsPath15780" d="M124.2 86.3c-.1-.5-.3-.9-.6-1.3-.2-.6-.5-1-1-1.4-.9-.8-2.2-1.2-3.5-1.1-1.4.1-2.8.8-3.7 1.9-1.5 1.8-1.3 4.3.4 5.9.9.9 2.3 1.4 3.6 1.4 1.1 0 2.3-.4 3.2-1.3 1.4-1.3 1.9-2.8 1.6-4.1zm-.6-.1c-.6.1-1.2.1-1.9.2 0-.1-.1-.2-.1-.2.4-.1.7-.3 1.1-.5.2-.1.4-.1.6-.2.2.2.3.5.3.7zm-.7-1.6.3.6v.1c-.6.3-1.1.5-1.7.8-.1-.1-.1-.2-.2-.3.6-.5 1.1-.9 1.6-1.2zm-.6-.7c.2.1.3.3.4.4-.5.3-1.1.7-1.5 1.2l-.1-.1c-.1-.1-.2-.1-.2-.2.2-.3.4-.7.6-1 .1-.2.3-.4.4-.6.2.1.3.2.4.3zm-1.9.1c0-.3.1-.7.1-1 .4.1.8.2 1.2.5-.2.2-.3.4-.4.6-.2.3-.4.7-.6 1-.1-.1-.3-.1-.4-.2 0-.3.1-.6.1-.9zm-1.1-1.1h.4c.2 0 .4 0 .6.1-.1.3-.1.6-.1 1 0 .3-.1.7-.1 1-.2 0-.3-.1-.5-.1 0-.3-.1-.6-.1-.9-.1-.4-.2-.8-.2-1.1-.1 0-.1 0 0 0zm-4.1 3.6c.6.2 1.4.4 2 .3v.7c-.7-.1-1.3 0-2 0-.1-.4-.1-.7 0-1zm0 1.2c.7-.1 1.3-.1 2-.1 0 .1.1.2.1.2-.3.1-.7.2-1 .4-.3.1-.6.2-.8.3-.2-.2-.3-.5-.3-.8zm.7 1.5c-.1-.1-.2-.3-.3-.4.3-.1.6-.2.8-.4.3-.1.6-.2.9-.4-.5.5-1 .8-1.4 1.2zm.4.5-.3-.3c.5-.3 1-.7 1.5-1.1.1.1.1.2.2.2-.2.2-.4.4-.6.7-.2.2-.4.5-.6.8 0-.1-.1-.2-.2-.3zm.5.4c.2-.2.4-.5.6-.8.2-.2.4-.4.5-.6.1.1.2.1.3.2-.2.2-.3.5-.5.8-.2.2-.3.4-.5.7-.1-.1-.3-.2-.4-.3zm.7.4c.2-.2.3-.4.4-.5l.6-.9c.1 0 .2.1.3.1-.2.5-.2 1.1-.5 1.6-.3-.1-.6-.2-.8-.3zm1 .3c.3-.5.4-1.1.5-1.6.2 0 .3.1.5.1-.1.5 0 1.1 0 1.7-.3 0-.7-.1-1-.2zm1.3.2c0-.5 0-1.1-.1-1.7.2 0 .3 0 .5-.1.1.5.3 1.1.5 1.6-.3.1-.6.1-.9.2zm3-1.6c-.4-.2-.8-.5-1.2-.8 0 .1-.1.2-.1.2.3.3.7.6 1 .8l-.2.2c-.2.2-.3.3-.5.4-.1-.2-.3-.4-.4-.6-.1-.2-.2-.3-.3-.5-.1 0-.2.1-.2.1.1.2.2.3.3.5.1.2.3.5.4.7-.2.1-.5.2-.7.3-.2-.5-.3-1.1-.6-1.6.1 0 .1 0 .1-.1l-.3-.3c-.7.2-1.6 0-2.1-.5-.4-.3-.6-.8-.5-1.3-.2-.1-.4-.3-.4-.6-.3-.1-.7-.1-1-.1-.3 0-.6-.1-.9-.2.1-.3.2-.7.4-1 .3.2.6.3.9.5.2.1.3.2.5.3 0-.1 0-.2.1-.3-.2-.1-.3-.1-.5-.2-.3-.1-.6-.3-.9-.4.1-.1.2-.2.2-.3l.6-.6c.1.2.3.4.5.6.1.1.2.3.4.4.1-.1.2-.1.2-.2l-.1-.1c-.2-.2-.3-.4-.5-.6-.1-.1-.2-.3-.3-.4.2-.2.5-.3.8-.5.1.3.2.5.4.7.1.2.3.4.4.6.1 0 .3 0 .4.1l-.6-.9c-.1-.2-.2-.5-.3-.7.3-.2.7-.2 1.1-.3 0 .3.1.7.2 1 .1.3.1.6.2.9-.2 0-.3.1-.4.1.1.1.3.2.3.3h.4c.5 0 .9.2 1.2.4.2.2.3.3.4.6.1.2.2.3.2.5.1.3 0 .6-.1.9.1.1.2.2.3.4 0 0 0-.1.1-.1.2.2.6.3.8.5.2.1.5.3.7.4-.2.5-.3.6-.4.8zm.5-.8c-.2 0-.8-.4-.9-.5-.2-.1-.3-.2-.5-.2 0 0-.1 0-.2-.1.1-.2.1-.4.2-.6.6.2 1.2.2 1.8.3-.1.4-.2.8-.4 1.1zm.4-1.3-1.8-.3v-.4c.6 0 1.3-.1 1.8-.2 0 .4.1.6 0 .9zm-2.8.3h.2c.3-.9-.2-1.9-1.2-2.2-.2-.1-.4-.1-.6-.1.3.7 0 1.8-1.1 1.8h-.3c.1.6.3 1.1 1 1.4.4.2.9.2 1.2.1-.1-.4.2-1 .8-1z" fill="#000000" stroke-width="none" opacity="1"></path></g></g></g><g id="svga-group-eyesfront-right"><path id="SvgjsPath15873" d="M119 74.4c-6.9 0-12.5 5.6-12.5 12.5s5.6 12.5 12.5 12.5 12.5-5.6 12.5-12.5-5.6-12.5-12.5-12.5zm5.3 15.6s-3 1.7-7.1 1.8c-1.5 0-5.4-.4-5.4-.4s-.5-3.4 1.5-5.5 8.2-4.6 13.2-2.9c5.4 1.7-2.2 7-2.2 7z" fill="#ffffff" stroke-width="none" opacity="1"></path><path id="SvgjsPath15876" d="M126.6 82.4c-2.3-.8-5.1-.7-8.2.2-2.4.7-4.2 1.7-5.4 3-1.6 1.7-2.3 4-1.6 6 .1.2.3.4.6.3.2-.1.3-.2.3-.3.1.1.2.2.3.2 1.7.3 3.3.4 4.7.4 1.4 0 2.7-.1 3.9-.4 3.1-.7 5.7-2.6 7.1-4.9.6-1.1.7-2 .4-2.8-.4-.8-1-1.3-2.1-1.7zm.9 3.9c-1.2 2.2-3.6 3.8-6.5 4.5-2.3.6-4.9.5-8.3 0h-.1c-.2 0-.4.1-.4.3-.5-1.6.1-3.5 1.4-4.9 1.1-1.2 2.7-2 5-2.7 3-.9 5.6-.9 7.7-.2.8.3 1.3.6 1.5 1.1.3.6 0 1.4-.3 1.9zm5.2-4.9c-.1 0-.2.1-.2.2 0 .3-.1.5-.3.7-.4.3-1.3.4-2.2.3-.4-.1-.9-.3-1.6-.5-1.6-.6-3.8-1.3-6.5-1.4-3.6-.1-8.3 1.2-10.3 4.2-1.2 1.7-1.7 4.2-1.5 7.2v.1c0 .1.1.2.2.2s.2-.1.2-.2V92c-.2-2.9.3-5.3 1.4-7 1.9-2.8 6.5-4.1 9.9-4 2.6 0 4.8.8 6.4 1.3.6.2 1.2.4 1.6.5 1.1.2 2.1.1 2.6-.3.3-.2.5-.6.5-1 0 0-.1-.1-.2-.1z" fill="#000000" stroke-width="none" opacity="1"></path></g></g></g><g id="svga-group-facehighlight-single"></g><g id="svga-group-eyebrows-left-move" transform="matrix(1,0,0,1,0,0)"><g id="svga-group-eyebrows-left-rotate" transform="matrix(1,0,0,1,0,0)"><g id="svga-group-eyebrows-left" transform="matrix(1,0,0,1,0,0)"><path id="SvgjsPath15833" d="M74.33 71.59c1.52-.07 17.06 3.38 17.49 4.03.43.65-.65 3.02-1.15 3.17-.5.14-15.19-4.53-15.83-4.39-.65.14-6.91 2.59-7.34 2.38-.44-.22 5.32-5.12 6.83-5.19z" fill="#ffffff" stroke-width="none" opacity="1"></path><path id="SvgjsPath15834" d="M67.28 77.2c.35.18.9.08 5.66-1.64.84-.31 1.71-.62 1.97-.69.63.05 4.8 1.29 8.16 2.29 5.89 1.75 7.16 2.1 7.6 2.1.06 0 .11-.01.15-.02.67-.19 1.21-1.59 1.31-1.87.24-.64.45-1.52.11-2.03-.69-1.04-16.86-4.29-17.91-4.24-1.63.08-7.13 4.66-7.31 5.5-.07.26.04.49.26.6zm7.07-5.13c.13-.01.37.01.68.06l2.07 2.3c-1.61-.45-2.16-.55-2.37-.5-.03.01-.08.02-.12.04l-2.21-.88c.86-.59 1.6-1 1.95-1.02zm3.91 2.69-2.22-2.47c.77.13 1.74.32 2.82.54l1.57 2.56c-.84-.25-1.56-.46-2.17-.63zm3.08.9-1.63-2.65c.72.15 1.47.31 2.23.48l.63 2.53c-.43-.13-.84-.25-1.23-.36zm6.77 1.99c-.33-.1-.68-.2-1.05-.3l.67-2.5c.48.12.93.24 1.34.35l-.96 2.45zm1.59-2.28c.3.08.57.16.81.23l-.96 2.45c-.24-.07-.52-.14-.81-.22l.96-2.46zm-3.25 1.8c-.48-.14-.98-.29-1.48-.44l.38-2.46c.61.14 1.2.29 1.76.43l-.66 2.47zm4.1 1.13c-.09-.01-.22-.04-.37-.08l.95-2.41c.14.05.25.09.32.13.11.44-.52 1.99-.9 2.36zm-7.22-2.05c-.01 0-.03-.01-.04-.01l-.65-2.59c.7.16 1.4.32 2.08.48l-.37 2.43c-.34-.11-.69-.22-1.02-.31zm-10.72-1.59c-.12.04-.25.09-.39.14-.53.02-1.48.07-2.24.11.57-.47 1.19-.95 1.79-1.38l1.9.75c-.3.1-.63.23-1.06.38zm-3.91 1.36c.14-.13.31-.28.48-.43.27-.01.6-.03.96-.05-.52.18-1.02.35-1.44.48z" fill="#000000" stroke-width="none" opacity="1"></path></g></g></g><g id="svga-group-eyebrows-right-move" transform="matrix(1,0,0,1,0,0)"><g id="svga-group-eyebrows-right-rotate" transform="matrix(1,0,0,1,0,0)"><g id="svga-group-eyebrows-right" transform="matrix(1,0,0,1,0,0)"><path id="SvgjsPath15835" d="M125.67 71.59c-1.52-.07-17.06 3.38-17.49 4.03-.43.65.65 3.02 1.15 3.17.5.14 15.19-4.53 15.83-4.39.65.14 6.91 2.59 7.34 2.38s-5.32-5.12-6.83-5.19z" fill="#ffffff" stroke-width="none" opacity="1"></path><path id="SvgjsPath15836" d="M133 76.61c-.18-.84-5.68-5.42-7.31-5.5-1.06-.05-17.22 3.2-17.91 4.24-.34.51-.13 1.39.11 2.03.1.28.65 1.68 1.31 1.87.04.01.08.02.15.02.43 0 1.71-.35 7.6-2.1 3.36-1 7.53-2.24 8.16-2.29.25.07 1.12.38 1.97.69 4.76 1.72 5.3 1.81 5.66 1.64.2-.12.31-.35.26-.6zm-5.4-3.52-2.21.88c-.04-.01-.09-.03-.12-.04-.21-.05-.76.06-2.37.5l2.07-2.3c.31-.04.55-.06.68-.06.35.02 1.09.43 1.95 1.02zm-8.02 2.3 1.57-2.56c1.08-.22 2.05-.41 2.82-.54l-2.22 2.47c-.62.17-1.34.38-2.17.63zm-2.16.63.63-2.53c.76-.17 1.51-.33 2.23-.48l-1.63 2.65c-.38.11-.79.23-1.23.36zm-6.5-.82c.41-.11.86-.23 1.34-.35l.67 2.5c-.37.11-.72.21-1.05.3l-.96-2.45zm.35 2.63c-.3.08-.57.16-.81.22l-.96-2.45c.24-.07.51-.15.81-.23l.96 2.46zm1.61-3.13c.56-.14 1.15-.28 1.76-.43l.38 2.46c-.5.15-.99.29-1.48.44l-.66-2.47zm-4.32 1.23c.07-.04.18-.08.32-.13l.95 2.41c-.16.04-.29.07-.37.08-.39-.36-1.02-1.91-.9-2.36zm7.09.62-.37-2.43c.68-.16 1.38-.32 2.08-.48l-.65 2.59c-.01 0-.03.01-.04.01-.33.1-.68.21-1.02.31zm10.68-2.27 1.9-.75c.6.43 1.22.92 1.79 1.38-.76-.04-1.71-.09-2.24-.11-.14-.05-.27-.1-.39-.14-.43-.15-.76-.28-1.06-.38zm3.54 1.26c.36.02.68.03.96.05.17.15.33.3.48.43-.43-.13-.93-.3-1.44-.48z" fill="#000000" stroke-width="none" opacity="1"></path></g></g></g><g id="svga-group-nose-single-move" transform="matrix(1,0,0,1,0,0)"><g id="svga-group-nose-single" transform="matrix(1,0,0,1,0,0)"><path id="SvgjsPath15823" d="M95.9 107.5c2 1 4.3 2 6.4 1 2.2-1.1 2.2-3.4 2-5.6-.8-6.5-1.9-13-3.3-19.4-.2-.8-1.4-.5-1.2.3 1 4.7 1.9 9.4 2.6 14.2.3 2.3 1.1 5 .8 7.3-.5 3.6-4.5 2.2-6.6 1.1-.8-.3-1.4.8-.7 1.1z" fill="#000000" stroke-width="none" opacity="1"></path></g></g><g id="svga-group-hair-front" transform="matrix(1,0,0,1,0,0)"><path id="SvgjsPath15930" d="M120.3 47.2s-13.7 2.7-26.7.6-20 5.8-22.8 12.4-1.5 19.1 2.1 34c3.6 14.9 3 27.6-5.2 38.8s-17.4 18.2-15.8 35.2c1.2 13.1 9.7 18.5 11.8 26.7 2.1 8.2-7.3 15.8-7.3 15.8s4.5-12.1-2.1-19.7c-6.7-7.6-10.9-14-10.9-28.2 0-14.3 9.7-32.8 11.5-43.4s-1.2-39.2-2.7-52.2 2.1-27.9 20-39.5 51.9-10.3 56.8 10.6c0 0 5.8 2.7 9.4 9.1 3.6 6.4 4.6 19.4 3.9 25.2 0 0-3 3-3.3 7-.3 3.9-2.1 7.3-2.1 7.3s-3-4.6-2.4-13.7-2.4-16.7-6.1-20.6-8.1-5.4-8.1-5.4z" fill="#ffffff" stroke-width="none" opacity="1"></path><path id="SvgjsPath15931" d="M139.4 47c-3.2-5.6-7.9-8.5-9.4-9.3-1.8-6.9-6.7-12.2-14.3-15.3-12.9-5.2-31.7-3.3-43.8 4.5C56.3 37 49.4 50.5 51.4 67.3c3 26.1 4 44.5 2.7 51.9-.7 4-2.5 9.2-4.5 14.8-3.3 9.3-7 19.8-7 28.8 0 15 4.8 21.7 11.2 28.9 6.2 7 2 18.6 1.9 18.7l-1.3 3.4 2.8-2.3c.4-.3 9.9-8.1 7.6-16.8-.9-3.4-2.8-6.4-4.9-9.5-2.9-4.4-6.2-9.5-7-17.1-1.2-13.4 4.4-20.4 10.9-28.5 1.5-1.9 3.1-3.9 4.7-6.1 3.7-5.1 6-10.7 7-17 .1-.1.2-.2.2-.5 0-.2 0-.5-.1-.8.8-6.4.2-13.4-1.8-21.4-3.9-15.8-4.6-27.4-2.2-33.4 1.4-3.4 7-14.2 21.7-11.8 12.2 2 24.7-.2 26.8-.6.9.4 4.6 1.9 7.5 5.1 3.1 3.3 6.4 10.5 5.8 19.9-.6 9.3 2.5 14.1 2.6 14.3l.9 1.4.8-1.4c.1-.1 1.9-3.6 2.2-7.7.3-3.5 3-6.3 3.1-6.3l.2-.2v-.3c.9-5.6 0-19.1-3.8-25.8zm-16.1-1.3c5.6-.7 10 2.8 13.1 7.1 1.3 1.9 2.3 4 4.3 5 .8 4.4 1 9.1.9 12.5-6.4-8.1-7.8-21.8-19.5-23.8.4-.3.8-.6 1.2-.8zm17.1 10.4c-1.7-1.3-2.7-3.7-4-5.3-1-1.3-2.1-2.4-3.4-3.4-2.4-1.9-5.1-2.9-8-3 .5-.4 1-.9 1.5-1.4 3.6.3 6.5 2.9 10.1 3.4.4.5.7 1 1 1.6 1.3 2.1 2.2 5 2.8 8.1zm-4.8-11.2c-2.8-.7-5.2-2.5-8-3.1.6-.7 1.1-1.5 1.6-2.3 1 .6 3.8 2.4 6.4 5.4zm-7.4-6.1c-.2.3-.4.7-.7 1 .1-1 .2-2 .1-3 .2.6.4 1.2.6 1.9v.1zm-3-6.9c1.4 3.1 1.7 6.5.8 9.8-.2.1-.2.2-.3.4-.5.5-1.1 1.1-1.7 1.5.1-8.5-4.1-15.8-10.6-20 .5.2 1.1.4 1.6.6 3.3 1.5 7.3 3.8 10.2 7.7zM51.5 134.8c2-5.7 3.9-11 4.6-15.2 1.7-9.7-.6-33.9-2.7-52.5-.5-4.3-.4-8.4.3-12.2-.4 8.2 1.5 16.6 4.1 24.4 4 12 9.7 24.3 6 37.1-1.9 6.8-6.5 12.3-10.1 18.2-3 4.9-5.3 10-7.2 15.3 1.4-5 3.2-10.3 5-15.1zm15.5-2.3c-1.5 2.1-3.1 4.1-4.7 6-6.8 8.4-12.6 15.7-11.3 29.9.8 8.1 4.2 13.4 7.3 18 2 3 3.8 5.8 4.6 8.9 1.2 4.8-1.9 9.5-4.4 12.2.9-4.4 1.4-11.7-3.3-17.1-6.2-7.1-10.7-13.2-10.7-27.6v-1.7c2.3-9.8 5.8-18.9 11.2-27.5 3.5-5.4 7.4-10.6 9.2-16.9 3-10.6-.1-21.1-3.7-31.1-4.4-12.4-8.8-25.9-5.1-38.9 3.2-7 8.7-13 16.7-18.1C80 24 89.7 21.5 99 21.5c2.4 0 4.8.2 7 .5 9.9 2.5 17 11.5 16.5 22.6-.5.3-.9.6-1.4.9-7.7-21.4-35.6-25.5-50.7-9.3-20.9 22.5 0 50.1 3.6 75.2-.1 8.1-2.4 14.9-7 21.1zm5-38c.8 3.3 1.4 6.3 1.7 9.3-5.2-20-17.7-40.4-7.2-59.9 5.2-9.7 15.8-17 27.1-16.8 11.7.3 22.6 7.8 26.5 18.9-.3.1-.5.2-.8.3-1.2.2-3.8.6-7 .9-3.7-12.6-17.1-20-29.6-15.1-5.3 2.1-8.8 5.5-11.2 9.7-1.1 2-1.9 4.2-2.5 6.5-.2.5-.5 2-.5 2.1-1.3 6.7-.9 14.1-.1 20.7.1 6.3 1.4 14.1 3.6 23.4zm-2.1-34.6c-.4 1-.8 2.3-1 3.6-.1-2.5-.2-4.9 0-7.4.1 0 .1-.1.2-.2.9-2 2.7-2.9 4.7-2.3-2.1 2.4-3.3 4.9-3.9 6.3zm4.8-7.3c-2-.8-4.1-.5-5.5 1 .1-1 .5-3 .5-3.1 1.3-6.3 9-7.1 13-3-3.5 1.1-6.1 3-8 5.1zm9.2-5.5c-3.3-3.9-9.3-4.5-12.9-1.5.4-1 .8-2 1.4-2.9.1 0 .1-.1.2-.2 6.6-9.7 20.7-6.2 23.4 4.6-.7-.1-1.4-.2-2.2-.3-3.8-.6-7.1-.4-9.9.3zm13.4.2C95.2 37.5 84.8 33.2 77 37.1c.9-.8 1.8-1.5 2.9-2.1C92 27.7 107 34.3 111 47.4c-3.9.3-8.8.4-13.7-.1zM137 84.6c-.8-2.1-1.8-5.8-1.4-11.2.8 1.4 1.8 2.8 3 3.9-.2.7-.4 1.5-.5 2.4-.1 1.8-.6 3.6-1.1 4.9zm2.1-8.6c-1.7-1.6-2.8-3.6-3.4-5.8-.2-8.4-3.3-14.8-6.4-18.2-1.1-1.2-2.3-2.2-3.5-3 8.1 4.3 9.7 16.3 15.8 23.1v.2c-.5.5-1.7 1.9-2.5 3.7z" fill="#000000" stroke-width="none" opacity="1"></path></g><g id="svga-group-glasses-single-move" transform="matrix(1,0,0,1,0,0)"><g id="svga-group-glasses-single" transform="matrix(1,0,0,1,0,0)"><path id="SvgjsPath15903" d="M93.77 94.89c-.82.6-20.12.75-20.68 0s-.94-8-.31-8.5c.62-.5 20.68-.37 21.3.25.63.63.38 7.75-.31 8.25z" fill="#ffffff" stroke-width="none" opacity="0.71"></path><path id="SvgjsPath15904" d="M105.83 94.89c.82.6 20.12.75 20.68 0s.94-8 .31-8.5c-.62-.5-20.68-.37-21.3.25-.62.63-.37 7.75.31 8.25z" fill="#ffffff" stroke-width="none" opacity="0.71"></path><path id="SvgjsPath15905" d="M128.64 87.35c-.09-.75-.44-1.52-1.32-1.5-.07 0-.12.01-.18.03-.29-.16-1.63-.47-10.97-.38-10.45.09-10.87.52-11.08.72-.31.31-.45 1.2-.51 2.19-3.8-1.3-7.89-.6-9.58-.21-.06-.91-.2-1.7-.49-1.99-.2-.2-.63-.63-11.08-.72-8.89-.08-10.53.2-10.92.36a.728.728 0 0 0-.39-.03c-1.07.23-1.41 1.6-.85 2.44.14.21.35.34.57.39-.06 2.57.35 6.06.76 6.6.42.56 4.67.76 9.29.76 5.61 0 11.77-.3 12.23-.64.21-.15.6-.44.82-3.21.01-.1.11-1.38.1-2.73 1.43-.35 5.76-1.19 9.51.25 0 1.26.09 2.38.1 2.48.22 2.77.61 3.06.82 3.21.46.34 6.62.64 12.23.64 4.62 0 8.87-.2 9.29-.76.42-.57.86-4.39.75-6.99.47-.02.96-.4.9-.91zm-35.26 7.04c-2.01.52-17.91.56-19.84.04-.41-1.1-.65-6.4-.34-7.53 2.24-.39 18.46-.22 20.46.23.34 1.08.15 6.29-.28 7.26zm32.69.04c-1.91.51-17.84.48-19.85-.04-.43-.99-.62-6.33-.3-7.25 1.88-.45 18.24-.63 20.48-.23.31 1.13.07 6.47-.33 7.52z" fill="#000000" stroke-width="none" opacity="1"></path></g></g></g></g></g><rect id="svga-credit-rect" width="200" height="15" x="0" y="185" fill="#ecf0f1" opacity="0.5" style="display: none;"></rect><text id="svga-credit-text" font-family="Avenir Next, Roboto, Helvetica, Arial, sans-serif" font-size="10px" text-anchor="start" font-weight="400" size="10px" anchor="start" weight="400" fill="#333333" x="33.402061462402344" y="182.71133995056152" style="display: none;"><tspan id="SvgjsTspan15298" dy="13" x="33.402061462402344">Created on AvatarMaker.com</tspan></text></g></svg>