<svg xmlns="http://www.w3.org/2000/svg" version="1.1" width="600px" height="600px" viewBox="0 0 200 200" style="overflow:hidden!important;"><defs id="SvgjsDefs15969"></defs><g id="svga-group-wrapper"><g id="svga-group-backs-single"></g><g id="svga-group-humanwrap-move" transform="matrix(1,0,0,1,0,0)"><g id="svga-group-humanwrap" transform="matrix(1,0,0,1,0,0)"><g id="svga-group-hair-back-move" transform="matrix(1,0,0,1,0,0)"><g id="svga-group-hair-back" transform="matrix(1,0,0,1,0,0)"></g></g><g id="svga-group-humanbody-back"><path id="SvgjsPath16227" d="M86.5 122c0 18.8 2.7 50.3-8.1 58s-31.8 13.9-36.7 24.4-3.6 14.4-3.6 14.4h124.1s.6-8.1-4.2-15.4c-6.6-10.1-28.5-17.7-36.5-22.9-8.1-5.2-10.9-32.2-10.9-58.8l-24.1.3z" fill="#ffffff" stroke-width="none" opacity="1"></path></g><g id="svga-group-chinshadow-single"></g><g id="svga-group-humanbody-front"><path id="SvgjsPath16228" d="M163.4 220.1H37.2l-.3-.9c-.1-.5-1.3-4.7 3.6-15.3 3.4-7.3 13.6-12.4 23.5-17.4 5.1-2.5 9.9-5 13.6-7.5 8.6-6 8.1-29.8 7.7-47.1-.1-3.5-.1-6.8-.1-9.8v-1.3l26.7-.4v1.3c0 32 3.8 53.5 10.3 57.7 2.4 1.6 6 3.3 10.2 5.4 9.7 4.7 21.9 10.6 26.7 18 5 7.6 4.4 15.9 4.4 16.2l-.1 1.1zm-124.1-2.6h121.6c-.1-2.4-.6-8.2-4-13.4-4.4-6.7-16.2-12.5-25.6-17-4.3-2.1-8-3.9-10.5-5.5-9.8-6.3-11.4-38.8-11.5-58.6l-21.5.4c0 2.6.1 5.5.1 8.5.4 18.9.9 42.4-8.8 49.3-3.8 2.7-8.7 5.1-13.9 7.7-9.5 4.8-19.4 9.7-22.3 16.1-3.3 6.9-3.7 10.9-3.6 12.5z" fill="#000000" stroke-width="none" opacity="1"></path><path id="SvgjsPath16229" d="M76.8 188.7c4.8 2.3 10.4 3.9 15.7 2.9.4-.1.4-.7 0-.8-5.1-.9-10.2-1.4-15.2-3.2-.6-.2-1.1.8-.5 1.1z" fill="#000000" stroke-width="none" opacity="1"></path><path id="SvgjsPath16230" d="M108.3 191.1c2.4.3 4.9-.4 7.1-1.2 2.1-.8 4.3-1.7 5.8-3.4.5-.5-.1-1.2-.7-.9-2.1.9-3.9 2.3-6.1 3-2 .7-4.1 1-6.2 1.5-.6.1-.4.9.1 1z" fill="#000000" stroke-width="none" opacity="1"></path></g><g id="svga-group-clothes-single"><path id="SvgjsPath16579" d="M37.2 220.1h126.2s1.55-5.88-1.26-13.37c-2.81-7.49-5.38-8.9-6.79-10.3s-26.22-14.98-26.22-14.98 1.17-5.38-3.04-8.19c0 0 1.78-3.54-1.5-7.28-3.28-3.75-1.09-7.53-1.09-7.53s-1.82-8.25-6.27-6.61-29.07 2.22-31.88 1.05c-2.81-1.17-6.96-.71-7.43 1.63s.17 5.16.17 5.16-3.04 1.4-3.04 5.15 1.64 7.02.47 7.49c-1.17.47-2.58 0-3.04 2.58s0 4.92 0 4.92-5.62 4.21-9.6 5.85-15.69 6.79-19.43 11.24c-3.75 4.44-8.98 13.38-6.25 23.19z" fill="#ffffff" stroke-width="none" opacity="1"></path><path id="SvgjsPath16580" d="M163.08 206.38c-2.47-6.6-4.81-8.67-6.35-10.04-.25-.22-.47-.42-.67-.61-1.37-1.37-20.56-11.93-25.84-14.82.17-1.62.2-5.46-2.94-8.01.41-1.41.81-4.44-1.94-7.58-2.74-3.14-1.04-6.24-.97-6.37.13-.22.17-.47.11-.72-.12-.56-1.3-5.52-4.22-7.11-1.05-.57-2.22-.65-3.38-.22-4.28 1.58-28.64 2.11-31.15 1.06-2.28-.95-5.13-.93-6.95.03-1.01.54-1.65 1.34-1.85 2.32-.36 1.8-.13 3.81.04 4.86-1.05.72-2.93 2.46-2.93 5.65 0 1.73.32 3.34.59 4.64.14.68.32 1.59.31 2-.14.04-.3.07-.47.11-1 .2-2.51.51-2.99 3.15-.35 1.93-.21 3.73-.1 4.65-1.43 1.04-5.74 4.08-8.9 5.38-3.63 1.5-15.8 6.75-19.81 11.52-2.32 2.75-9.64 12.63-6.44 24.11.12.43.51.73.96.73h126.2c.45 0 .85-.31.97-.75.07-.26 1.6-6.28-1.28-13.98zm-.32 11.1c-6.29-2.45-11.64-5.71-16.42-10.49.86-1.32 1.75-2.53 2.61-3.61 3.57 4.25 8.3 7.88 13.67 9.45.24 1.87.23 3.46.14 4.65zm-13.52-14.46c.86-1.05 1.69-1.99 2.45-2.79 2.77 2.98 6.07 5.71 9.74 7.5.56 1.62.91 3.16 1.12 4.55-5.09-2.29-9.54-5.04-13.31-9.26zm11.91 3.94c-3.3-2.07-6.38-4.26-9.18-7.03 1.27-1.32 2.29-2.23 2.8-2.67.19.18.39.36.61.56 1.4 1.25 3.49 3.11 5.77 9.14zm-37.32-40.33c2.77 3.16 1.41 6.06 1.36 6.17-.23.45-.08 1 .34 1.28 3.58 2.39 2.66 6.96 2.62 7.15-.02.09-.02.18-.01.27-.04.1-.33.67-1.94 1.56.39-2.22.06-4.39-1.19-6.41-.36-.59-.9-1.06-1.25-1.64-1.35-2.22-1.12-3.5-1.14-5.87-.01-1.1.13-1.66-.38-2.71-1.01-2.1-1.74-1.11-2.01-4.05-.04-.44-.04-.85-.02-1.25.63-.2 1.17-.39 1.62-.55-.18 1.75.18 3.97 2 6.05zm4.36 15.12h-.01c-.02-.06-.02-.09-.02-.13 0 .04.01.08.03.13zm-51.61 1.13c-2.22-2.79-2.45-6.09-.7-9.41.66.19 1.76.5 3.17.84-2.11 2.87-2.11 7.1.1 9.88-.96-.41-1.82-.85-2.57-1.31zm7.17-29.44c-1.25 1.91-1.54 4.55-.72 6.72-.43-.12-.83-.24-1.21-.35-1.21-2.09-1.32-4.5-.15-6.53.68-.04 1.39.01 2.08.16zm13.5 10.92c-.04.31-.09.63-.17.95-.79 3.14-.82 5.79.86 8.67-.69.06-1.37.12-2.04.2-1.2.13-2.49.16-3.81.11-.06-.94-.16-1.88-.13-2.87.09-2.47 1.56-4.84 1.78-7.27 1.12.1 2.29.17 3.51.21zm2.21.05c.3 0 .6 0 .91-.01 2.15-.03 4.2-.18 6.15-.39.55 3.11.93 6.24.97 9.49-2.77.07-5.97.19-9.03.44.01-.06.01-.12-.02-.18-1.63-3.09-1.76-6.29-.23-9.38.4.01.82.03 1.25.03zm13.59-10.81c2.45 1.84 3.03 4.15 1.75 6.94-.66.16-1.36.32-2.09.47.07-1.11.25-2.18-.02-3.54-.34-1.66-.99-2.63-2.54-3.24-.19-.08-.32.24-.14.33 2.74 1.43 2.23 4.08 2.09 6.57-1.65.33-3.45.62-5.37.84-.51-2.59-1.13-5.16-1.8-7.74 3-.15 5.84-.36 8.12-.63zm3.72-.59c3.96 2.55 2.82 4.26 2.1 6.43-.85.26-1.85.55-2.95.83.02-.6.16-1.12.1-1.96-.17-2.14-.77-3.64-2.42-4.77 1.29-.16 2.37-.34 3.17-.53zm-4.61 10.16c.04.26.1.52.18.77.31.88.87 1.39 1.28 2.17.92 1.76 1.05 2.9 1.3 4.85.13 1.01.28 1.8.56 2.62a.933.933 0 0 0-.44-.12c-.06 0-3.03-.05-7.03.04-.03-3.23-.37-6.4-.91-9.53 1.8-.23 3.49-.5 5.06-.8zm-20.26 3.99c-.3 1.22-.67 1.68-.7 2.99-.03 1.38.65 2.77.67 4.14-1.15-.05-2.33-.15-3.49-.28-1.92-2.87-1.28-7.27-.2-10.61 1.36.25 2.84.47 4.43.64-.19 1.08-.49 2.19-.71 3.12zm-4.44 6.73c-.86-.12-1.71-.25-2.53-.39-2.48-3.63-2.78-7.07-1.26-11.09 1.19.31 2.53.62 4.02.9-1.12 3.16-1.86 7.73-.23 10.58zm-4.42-11.65c-1.86 3.39-1.43 7.98.88 11.07a81.07 81.07 0 0 1-3.14-.65c-.94-1.82-1.72-3.54-1.68-5.74.04-1.97.69-3.71 1.64-5.34.67.2 1.44.43 2.3.66zm-2.58 22.49c-2.57-3.28-2.9-6.83-.67-10.24 1.07.25 2.28.51 3.57.76-1.95 3.3-1.98 7.78.74 10.67-1.3-.36-2.52-.76-3.64-1.19zm4.46 1.41c-.01-.02 0-.04-.01-.06-2.31-3.55-3.01-7.13-.98-10.72 1.28.23 2.63.44 4.01.61-1.34 3.49-.92 8.05 1.28 11.12-1.51-.28-2.94-.6-4.3-.95zm5.14 1.1c-2.1-3.72-2.75-7.04-1.61-11.21 1.04.11 2.08.2 3.12.25-.28 1.06-.67 2.11-.78 3.16-.1.91-.15 1.81-.02 2.72.33 2.33 1.54 4.21 3.26 5.64-1.35-.15-2.68-.34-3.97-.56zm4.83.66c-3.61-3.04-3.7-6.35-2.91-10.86.04-.25.08-.5.1-.74.37.01.74.02 1.11.02 1 0 1.99-.05 2.92-.15.73-.08 1.48-.15 2.23-.21-1.18 4.07-.38 9.13 2.55 12.3-2.02-.04-4.03-.16-6-.36zm6.99.36c-2.89-3.63-4.32-7.63-3.08-12.35 3.12-.25 6.38-.37 9.16-.43 2.04 3.99 2.21 8.3.68 12.44-2.22.24-4.49.35-6.76.34zm6.54-12.78c3.77-.07 6.53-.03 6.59-.03.46 0 .84-.31.96-.74.03.07.05.12.09.19 2.05 3.81 3.48 6.75 2.68 10.94-1.4.39-3 .8-4.84 1.22-1.48.34-3.02.6-4.59.79 1.51-4.05 1.15-8.53-.89-12.37zm10.25 2.8c-.56-1.34-1.52-2.37-2.14-3.66-1.37-2.86-.47-4.04-1.23-6.57-.39-1.29-1.38-2.09-1.92-3.26-.3-.65-.47-1.22-.57-1.76 1.06-.21 2.05-.44 2.97-.67 2.16 3.3.93 7.13 2.43 10.73 1.85 4.44 6.35 5.95 4.79 11.37-1.03.38-2.26.79-3.74 1.22.52-2.48.43-4.94-.59-7.4zm4.58.63c-1.34-2.85-3.94-3.94-4.91-7.31-.59-2.08-.32-4.37-.8-6.49-.25-1.11-.82-1.92-1.22-2.87.78-.2 1.49-.4 2.15-.59.01.37.07.77.19 1.18.55 1.9 2.2 2.66 2.87 4.58.7 2.02-.15 3.83.46 5.81.27.87.89 1.42 1.39 2.15 1.78 2.59 2.72 4.9 2.32 7.95-.55.28-1.23.58-2.06.91.49-1.74.45-3.53-.39-5.32zm-3.95-26.04c1.63.89 2.7 3.83 3.11 5.34-.3.12-.99.38-1.98.72.03-.42.05-.85.02-1.3-.15-2.14-1.33-3.74-3.04-4.8.06-.02.12-.04.17-.05.63-.24 1.18-.21 1.72.09zm-14.79 1.39c.55 2.62 1.12 5.2 1.63 7.78-1.84.2-3.78.33-5.8.36-.78.01-1.54 0-2.28-.02-1.11-2.43-1.19-4.99-.49-7.64.04-.16-.19-.22-.24-.07-.92 2.74-.18 5.18-.03 7.68-1.3-.05-2.54-.13-3.73-.24-.7-2.48-2.85-4.75-.44-7.29.18-.19-.08-.43-.28-.28-1.52 1.23-1.56 2.61-1.15 4.49.19.84.73 1.57.92 2.4.04.19.07.39.08.59a61.42 61.42 0 0 1-4.54-.67c-.32-1-.59-1.97-.58-3.09.01-1.43.4-2.66.91-3.93 3.94.27 10.23.21 16.02-.07zm-16.59.03c-1.03 2.03-1.23 4.77-.43 6.93-1.32-.26-2.5-.54-3.56-.82-.91-2.3-.88-4.46.29-6.85.25.07.5.15.74.25.51.22 1.55.38 2.96.49zm-9.02.42c.08-.38.35-.7.82-.95.38-.2.85-.33 1.36-.41-1.05 1.9-1.15 4.27-.11 6.2-.56-.18-1.05-.34-1.44-.47-.23-.08-.41-.14-.58-.19-.14-.9-.36-2.67-.05-4.18zm-.67 6.04c.19.06.42.14.67.22.35.12.76.26 1.24.41-2.06 3.2-2.43 7.77-.44 11.02-1.15-.28-2.1-.53-2.78-.72.05-.73-.13-1.64-.33-2.62-.24-1.21-.55-2.71-.55-4.24.01-2.45 1.55-3.67 2.19-4.07zm-4.77 14.32c.24-1.31.58-1.38 1.42-1.55.12-.02.25-.05.38-.08-1.72 2.51-1.7 5.82-.22 8.34-.83-.71-1.38-1.46-1.59-2.21-.05-.25-.4-2.29.01-4.5zm-10.21 11.52c3.08-1.27 7.01-3.95 8.82-5.25 3.2 5.18 16.88 8.92 30.05 8.92 4.25 0 8.45-.39 12.21-1.25 8.61-1.96 13.74-4.02 15.29-6.15 7.93 4.35 19.27 10.67 23.44 13.23-2.77 2.42-11.65 10.99-13.91 23H63.21c-2.8-9.6-13.7-21.27-16.31-23.96 5.23-3.86 14.28-7.69 16.35-8.54zm78.68 29.63c1.23 1.16 2.65 2.19 4.19 2.88h-4.93c.21-.98.45-1.95.74-2.88zm-99.44-16.41c3.08 2.49 6.71 4.54 10.56 5.52 1.57 2.03 3.15 4.24 4.53 6.5-6.09-2.35-11.72-4.92-17.01-8.8-.01-.01-.03 0-.04-.01.66-1.23 1.34-2.31 1.96-3.21zm3.9-2.3-1.38-.81c.1-.1.22-.2.33-.3.25.26.61.64 1.05 1.11zm-2.18.03c.15-.17.31-.35.48-.53.96.6 1.91 1.2 2.88 1.78 1.36 1.5 3.11 3.51 4.92 5.81-3.45-1.43-6.65-3.02-9.72-5.2.57-.78 1.07-1.42 1.44-1.86zm-6.75 17.11c1.64 1.72 3.74 3.13 6.04 3.61.27.06.36-.3.11-.4-2.37-.97-4.41-2.08-6.15-3.85.03-1.2.16-2.37.38-3.5 3.57 3.83 8.16 6.8 13.29 8.01.28.06.38-.33.12-.42-5.13-1.79-9.54-4.31-13.3-8.16.2-.92.45-1.8.74-2.65 6.38 4.88 13.56 8.95 21.37 10.96.25.06.33-.29.1-.38-7.65-2.89-14.75-6.2-21.33-11.03.45-1.25.97-2.4 1.51-3.45 5.01 4.03 10.91 7.38 17.24 8.75.08.02.13-.02.16-.07 1.43 2.36 2.64 4.76 3.37 7.02H37.98c-.37-1.51-.51-2.99-.52-4.44zm110.01 4.45c-1.94-.96-3.75-1.94-5.39-3.36.45-1.37.97-2.69 1.56-3.94 2.88 2.91 6.26 5.46 10.06 7 .19.08.32-.24.14-.33-3.65-2.03-7.01-4.22-9.98-7.13a41.38 41.38 0 0 1 2.25-4.01c4.39 4.95 10.21 8.85 16.6 10.64-.04.45-.09.84-.14 1.14h-15.1z" fill="#000000" stroke-width="none" opacity="1"></path></g><g id="svga-group-head" transform="matrix(1,0,0,1,0,0)"><g id="svga-group-ears-left-move" transform="matrix(1,0,0,1,0,0)"><g id="svga-group-ears-left" transform="matrix(1,0,0,1,0,0)"><path id="SvgjsPath16452" d="M66.8 82.4s-3.6-5.4-5.6-7.8-4.7-5-6.3-1.1c-1.6 3.9-2.5 11.6-1.6 16.9s6.8 11 9.6 11.2c2.8.2 5.7-7.6 5.9-10.3.3-2.8-.6-6.9-2-8.9z" fill="#ffffff" stroke-width="none" opacity="1"></path><path id="SvgjsPath16453" d="M52.2 90.4c-1-5.5.1-13.3 1.6-17.2.2-.6 1-2.4 2.9-2.6 2.1-.2 3.9 1.6 5.5 3.5 2.1 2.4 5.5 7.7 5.7 7.9 1.4 2.1 2.4 6.4 2.1 9.3-.2 2.4-2.4 8.8-5.2 10.6-.6.4-1.3.6-2 .5-3.6-.3-9.7-6.4-10.6-12zm8-15.4c-2.3-2.7-3.1-2.7-3.2-2.7-.1 0-.5.3-1 1.4-1.5 3.7-2.5 11.3-1.6 16.5.9 5.3 6.7 10.3 8.5 10.5 1.4-.2 4.4-6.1 4.7-9.5.2-2.6-.7-6.6-1.9-8.5 0 0-3.5-5.4-5.5-7.7z" fill="#000000" stroke-width="none" opacity="1"></path><path id="SvgjsPath16454" d="M57.9 78c2 1.3 3.6 3.5 4.3 6 0 .2-.2.2-.2.1 0 0 0-.1-.1-.1-.6-.5-1.2-1.1-1.9-1.1-1.1 0-1.1 1.4-.8 2.5.4 1.5 1.1 2.9 1.9 4.2.1.2-.1.3-.2.2-1.2-1.5-3-4.6-2.4-6.6.5-1.7 2-.9 3.1.1-.6-1.3-1.4-2.5-2.4-3.5-1.3-1.3-4.1-3.4-4.9-.9 0 .1-.2.1-.2-.1.1-2.5 2.6-1.7 3.8-.8z" fill="#000000" stroke-width="none" opacity="1"></path><path id="SvgjsPath16455" d="M61.7 92.6c1 2.5-1.2 3-2.5 1.9-2.1-1.7-3.5-5.5-3.5-8.4 0-.2.2-.2.2 0 .2 1.7.5 3.3 1.2 4.8.4.9 1 1.9 1.6 2.7.4.5.9.9 1.5 1.1 1.2 0 1.6-.7 1.3-2 0-.1.1-.2.2-.1z" fill="#000000" stroke-width="none" opacity="1"></path></g></g><g id="svga-group-ears-right-move" transform="matrix(1,0,0,1,0,0)"><g id="svga-group-ears-right" transform="matrix(1,0,0,1,0,0)"><path id="SvgjsPath16456" d="M133.2 82.4s3.6-5.4 5.6-7.8 4.7-5 6.3-1.1c1.6 3.9 2.5 11.6 1.6 16.9-.9 5.3-6.8 11-9.6 11.2-2.8.2-5.7-7.6-5.9-10.3-.3-2.8.6-6.9 2-8.9z" fill="#ffffff" stroke-width="none" opacity="1"></path><path id="SvgjsPath16457" d="M137.2 102.4c-.7 0-1.4-.1-2-.5-2.8-1.7-5-8.2-5.2-10.6-.3-2.9.7-7.1 2.1-9.3.1-.2 3.6-5.5 5.7-7.9 1.6-1.9 3.4-3.7 5.5-3.5 2 .2 2.7 2 2.9 2.6 1.6 3.9 2.6 11.8 1.6 17.2-.9 5.6-7 11.7-10.6 12zm-3-19.7c-1.2 1.9-2.1 5.8-1.9 8.5.3 3.4 3.2 9.4 4.7 9.5 1.9-.1 7.6-5.2 8.5-10.5.9-5.3-.1-12.8-1.6-16.5-.4-1.1-.9-1.4-1-1.4-.1 0-.9 0-3.2 2.7-1.9 2.3-5.4 7.7-5.5 7.7z" fill="#000000" stroke-width="none" opacity="1"></path><path id="SvgjsPath16458" d="M142.1 78c-2 1.3-3.6 3.5-4.3 6 0 .2.2.2.2.1 0 0 0-.1.1-.1.6-.5 1.2-1.1 1.9-1.1 1.1 0 1.1 1.4.8 2.5-.4 1.5-1.1 2.9-1.9 4.2-.1.2.1.3.2.2 1.2-1.5 3-4.6 2.4-6.6-.5-1.7-2-.9-3.1.1.6-1.3 1.4-2.5 2.4-3.5 1.3-1.3 4.1-3.4 4.9-.9 0 .1.2.1.2-.1-.1-2.5-2.6-1.7-3.8-.8z" fill="#000000" stroke-width="none" opacity="1"></path><path id="SvgjsPath16459" d="M138.3 92.6c-1 2.5 1.2 3 2.5 1.9 2.1-1.7 3.5-5.5 3.5-8.4 0-.2-.2-.2-.2 0-.2 1.7-.5 3.3-1.2 4.8-.4.9-1 1.9-1.6 2.7-.4.5-.9.9-1.5 1.1-1.2 0-1.6-.7-1.3-2 0-.1-.1-.2-.2-.1z" fill="#000000" stroke-width="none" opacity="1"></path></g></g><g id="svga-group-faceshape-wrap" transform="matrix(1,0,0,1,0,0)"><g id="svga-group-faceshape-single"><path id="SvgjsPath16439" d="M138.2 58.2c-2-10.8-13.3-27.4-37.2-27.4S69.1 43.5 65.5 53c-3 8.1-3 21.3-3 21.3s13.4 67.2 37.1 68.4c13.9.7 37.2-49.4 39.8-68.4 0 0 .2-8.4-1.2-16.1z" fill="#ffffff" stroke-width="none" opacity="1"></path><path id="SvgjsPath16440" d="M99.9 144h-.4c-24.4-1.3-37.7-66.7-38.3-69.4v-.2c0-.6 0-13.6 3.1-21.8 5.8-15.5 17.8-23 36.7-23 10.9 0 20.5 3.4 27.7 10 5.5 5 9.6 11.9 10.8 18.5 1.4 7.7 1.2 16 1.2 16.4v.1c-1.4 9.8-7.9 27.1-15.8 42-5.5 10.3-16 27.4-25 27.4zM63.8 74.2c.3 1.6 3.7 17.5 9.6 33.5 8.1 21.6 17.1 33.3 26.3 33.8 5.5.3 14.1-9.5 22.9-26.1 7.7-14.4 14.2-31.7 15.5-41.1 0-.8.1-8.7-1.2-15.8-1.1-6-4.8-12.4-10-17-6.7-6.1-15.7-9.3-26-9.3-17.7 0-28.9 7-34.3 21.3-2.7 7.3-2.8 19.4-2.8 20.7z" fill="#000000" stroke-width="none" opacity="1"></path></g></g><g id="svga-group-mouth-single-move" transform="matrix(1,0,0,1,0,0)"><g id="svga-group-mouth-single" transform="matrix(1,0,0,1,0,0)"><path id="SvgjsPath16528" d="m112.44 121.55-.09.03c-3.77-2.31-7.86-4.67-12.44-4.42-4.58.25-7.93 4.2-12.5 4.25-.07 0-.12.03-.16.07-.05-.02-.11-.03-.16-.04-.6-.19-.86.75-.26.94.39.12.79.22 1.19.32 7.06 5.52 16.72 5.5 23.73.05.32-.08.64-.15.96-.25.59-.19.33-1.14-.27-.95zm-8.39.16c-.62-1.32-1.25-2.65-1.87-3.97.31.04.62.09.93.16.44 1.37 1 2.7 1.63 3.99a6.95 6.95 0 0 1-.69-.18zm1.29.33c-.66-1.3-1.22-2.64-1.67-4.02.23.06.45.12.67.18 0 .03-.01.05 0 .08.62 1.3 1.25 2.59 1.87 3.89-.29-.03-.58-.07-.87-.13zm1.44.19c-.62-1.28-1.23-2.56-1.85-3.84.28.09.55.19.82.29.5 1.23 1.08 2.42 1.71 3.59-.22-.01-.45-.02-.68-.04zm1.24.05c-.6-1.09-1.14-2.2-1.62-3.34.22.09.43.19.64.28 0 .03-.02.06 0 .1.42 1.02.92 2 1.49 2.95-.17 0-.34.01-.51.01zm1.06-.05c-.54-.87-1.01-1.78-1.42-2.72.25.12.51.25.76.38-.02.06-.03.13.01.2.38.68.73 1.38 1.05 2.1-.13.01-.27.02-.4.04zm.9-.11c-.29-.64-.59-1.28-.93-1.9.35.19.69.38 1.03.58-.01.05-.02.09.01.14.18.36.37.71.55 1.07-.21.04-.43.08-.66.11zm1.16-.22-.36-.69c.31.18.62.37.92.55-.18.05-.37.1-.56.14zm-9.49-4.22c0 .04-.01.07.01.11.59 1.25 1.18 2.5 1.77 3.74-.34-.12-.67-.27-1.01-.41-.56-1.16-1.12-2.33-1.68-3.49.3.01.61.03.91.05zm-1.43-.04v.04c.51 1.05 1.01 2.1 1.52 3.16-.27-.15-.53-.32-.8-.44-.64-.79-.87-1.84-1.4-2.71.22-.03.45-.04.68-.05zm-.29 2.67c-.52-.79-.99-1.62-1.39-2.49.17-.03.33-.07.5-.09 0 .03-.01.06.01.09.5.76.74 1.66 1.2 2.42-.1.02-.21.04-.32.07zm-1.88-2.39v.03c.4.88.88 1.73 1.41 2.54-.22.1-.44.21-.67.33-.49-.91-1-1.8-1.52-2.69.24-.08.48-.14.73-.2.01-.01.03-.01.05-.01zm-7.68 4.22-.62-.62c.17-.05.34-.1.5-.16.24.28.47.56.71.84-.2-.01-.39-.04-.59-.06zm1.23.09c-.01-.01 0-.03-.01-.04-.28-.34-.57-.67-.85-1.01.16-.06.33-.13.49-.2.28.44.58.86.89 1.27-.18 0-.35-.01-.52-.02zm1.13.03c-.37-.48-.72-.97-1.05-1.48.16-.07.32-.15.48-.23.37.59.79 1.14 1.25 1.67-.23.01-.46.04-.68.04zm1.29-.08c-.53-.57-1.01-1.19-1.42-1.85.16-.08.31-.16.46-.24 0 0 0 .01.01.01.49.68.97 1.36 1.46 2.03-.04.01-.08.01-.12.02-.13.02-.26.01-.39.03zm1.04-.14c-.52-.73-1.04-1.45-1.56-2.18l.51-.27c.4.86.91 1.65 1.52 2.38-.16.02-.32.05-.47.07zm1.02-.19a9.879 9.879 0 0 1-1.63-2.5c.17-.09.34-.17.51-.26.47.91 1.01 1.78 1.59 2.63-.17.05-.32.1-.47.13zm.95-.25c-.6-.87-1.15-1.77-1.64-2.71.15-.07.3-.14.44-.2.51.96 1.08 1.88 1.68 2.78-.02.01-.05.02-.07.03-.13.03-.27.06-.41.1zm.94-.34c-.6-.9-1.17-1.82-1.68-2.77.17-.07.34-.13.51-.2.54.91 1.06 1.83 1.56 2.76-.14.08-.27.14-.39.21zm-8.76.4c.01.01 0 .01.01.02l.33.33c-.36-.06-.71-.13-1.07-.21.25-.03.49-.08.73-.14zm-.02 1.29c1.53.28 3.09.39 4.66.25 2.19-.19 3.98-1.06 6.04-1.64 1.02-.29 1.77.36 2.72.72 1.02.39 2.08.66 3.16.82 1.63.24 3.25.18 4.84-.1a18.68 18.68 0 0 1-21.42-.05z" fill="#000000" stroke-width="none" opacity="1"></path></g></g><g id="svga-group-eyes-left-move" transform="matrix(1,0,0,1,0,0)"><g id="svga-group-eyes-left" transform="matrix(1,0,0,1,0,0)"><g id="svga-group-eyesback-left"></g><g id="svga-group-eyesiriswrapper-left"><g id="svga-group-eyesiriscontrol-left" transform="matrix(1,0,0,1,0,0)"><g id="svga-group-eyesiris-left" transform="matrix(1,0,0,1,0,0)"><path id="SvgjsPath16490" d="M84.8 84.7c-1-1.9-3.2-2.7-5.2-2-2.2.8-3.8 3-3.1 5.4.4 1.2 1.5 2.4 2.8 2.7.4.1.9.1 1.4.1.5.1 1.1 0 1.7-.2 2.4-.9 3.6-3.7 2.4-6z" fill="#ffffff" stroke-width="none" opacity="1"></path><path id="SvgjsPath16491" d="M81.1 91.2h-.4c-.5 0-1 0-1.5-.1-1.3-.3-2.5-1.4-3-2.9-.9-2.6 1-4.9 3.2-5.7 2.2-.8 4.6.1 5.6 2.1.6 1.2.7 2.6.2 3.8-.5 1.2-1.5 2.2-2.7 2.6-.4.1-.9.2-1.4.2zm-.3-.6c.5.1 1.1 0 1.6-.2 1.1-.4 1.9-1.2 2.4-2.3.4-1.1.4-2.3-.2-3.3-.9-1.7-3-2.5-4.9-1.8-2 .7-3.6 2.8-2.9 5 .4 1.2 1.5 2.3 2.6 2.5.4.1.9.1 1.4.1zm2.4-4.8c0-.1 0-.1-.1-.1-.6-1.1-2-1.5-3.1-1 .2.2.4.5.6.7.2.3.5 1 .1 1.2-.4.2-1 0-1.3-.2-.2-.1-.3-.3-.5-.5 0 .1-.1.1-.1.2-.1.2-.1.4-.1.6-.2.7 0 1.4.5 1.9.2.2.5.3.8.4.6.3 1.2.4 1.8.1-.1-.1-.2-.2-.2-.4 0-.3.2-.6.5-.7.3-.1.6 0 .7.2.3-.3.5-.7.6-1.1.1-.4 0-.9-.2-1.3zm-4.8 1.1c-.4-.1-.9-.1-1.3-.2-.1 0-.1.1 0 .1.4.1.9.3 1.3.2.1 0 .1-.1 0-.1zm-.1.8c-.2 0-.4.1-.6.1-.2 0-.5.1-.7.1-.1 0-.1.1 0 .1.4 0 1 0 1.3-.3.1.1.1 0 0 0zm.4.8c-.2.1-.3.2-.5.3-.2.1-.4.2-.5.3-.1 0 0 .2.1.1.3 0 .7-.3.9-.7.1.1.1 0 0 0zm.9.7c-.3.3-.4.6-.6.9-.1.1.1.2.1.1.2-.3.5-.6.6-1h-.1zm.8.4c-.1.3-.1.7-.2 1.1 0 .1.1.1.1 0 0-.4.1-.7.1-1.1.1-.1 0-.1 0 0zm1.4.4c-.1-.1-.1-.3-.2-.4 0 0-.1 0-.1.1 0 .2.1.3.2.4.1.2.1.3.2.5 0 .1.1 0 .1 0-.1-.2-.1-.4-.2-.6zm1.3-.2-.3-.3-.3-.3c0-.1-.1 0-.1.1.1.1.2.2.3.4.1 0 .2.2.4.1 0 .1 0 .1 0 0zm.9-.7c-.1-.1-.3-.2-.5-.3-.2-.1-.3-.2-.5-.3-.1 0-.2.1-.1.1.2.1.3.2.5.3.2.1.3.2.5.2.1.1.2.1.1 0zm.5-1.3c-.1-.1-.3-.1-.4-.1-.2 0-.3-.1-.5-.1-.1 0-.1.1-.1.1.3.1.7.3 1 .2.1.1.1 0 0-.1zm.2-1.7c-.3.1-.8.3-1 .5-.1.1 0 .1.1.1.2-.1.3-.2.5-.2.2-.1.3-.1.5-.2.1-.1 0-.2-.1-.2zm-.8-2-.1-.1s-.1 0-.1.1c0 0-.4.4-.4.5-.1.2-.2.3-.4.5-.1.1.1.1.1.1l.9-.9c.1-.1.1-.1 0-.2zm-1.9-.8c-.1.1-.1.3-.2.5s-.1.4-.2.6c0 .1.1.1.1 0 .1-.2.2-.3.2-.5.1-.2.2-.4.1-.5.2-.1.1-.1 0-.1zm-1.3.8c-.1-.2-.1-.3-.2-.5 0-.2-.1-.3-.1-.4 0-.1-.1 0-.1 0 0 .3.2.7.3 1 0 .1.2 0 .1-.1zm-1.2 0c-.1-.2-.2-.3-.3-.5 0-.1-.1 0-.1 0 .1.2.1.3.2.5.1.1.2.3.3.4.1 0 .1 0 .1-.1 0 0-.1-.2-.2-.3zm-.6.9-.3-.3c-.1-.1-.2-.2-.4-.3-.1-.1-.2 0-.1.1l.3.3c.2.1.3.3.5.2 0 .2 0 .1 0 0zm-.8.8-.9-.3c-.1 0-.1.1 0 .1.3.1.6.3.9.3 0 0 .1-.1 0-.1z" fill="#000000" stroke-width="none" opacity="1"></path></g></g></g><g id="svga-group-eyesfront-left"><path id="SvgjsPath16595" d="M81 74.4c-6.9 0-12.5 5.6-12.5 12.5S74.1 99.4 81 99.4s12.5-5.6 12.5-12.5S87.9 74.4 81 74.4zm7.1 16.1c-2.1 0-17.3 0-17.9-.9-.6-.8.7-2.9 2.5-4s4.2-2.6 7.6-2.8c3.4-.2 8.9 1 10.9 6.6.3.7-1.1 1.1-3.1 1.1z" fill="#ffffff" stroke-width="none" opacity="1"></path><path id="SvgjsPath16596" d="M73.1 83.4c1.3-.9 5.4-3.8 10.1-2.6 4.5 1.1 7.1 4.4 7.2 4.5 0 .1.1.1.2.1h.1c.1-.1.1-.2 0-.3-.1-.1-2.8-3.5-7.4-4.6-4.9-1.2-9.1 1.7-10.5 2.7-.1.1-.1.2-.1.3.1 0 .3 0 .4-.1zm18.6 5.8c-2.3-5-5.6-6.9-11.9-6.8-2.8 0-5.6 1.4-7.6 2.9h-.1c-.1 0-1.4-.2-2.1-1.8-.1-.2-.4-.3-.6-.2-.2.1-.3.4-.2.6.7 1.3 1.6 1.9 2.3 2.1l-.7.7h-.1c-.5 0-2.1 0-2.6-.6-.2-.2-.4-.2-.6 0s-.2.4 0 .6c.7.7 2 .9 2.7.9-.3.4-.4.8-.5 1.2v.5c-.3.1-.7.2-1.3.4-.4 0-.5.3-.4.5s.2.3.4.3h.2c.8-.3 1.2-.4 1.4-.5.1.1.3.2.5.3 1.5.5 7 .6 12.3.6 2.6 0 5.2 0 7.3-.1h.3c.2 0 .4-.2.4-.4s-.2-.4-.4-.4h-.3c-10.5.2-17.7 0-19.3-.5-.3-.1-.4-.2-.4-.6.3-1.8 4.8-5.6 9.4-5.6 6-.1 9 1.6 11.1 6.3.1.2.4.3.6.2s.3-.4.2-.6zm-1.1 2.4c-4.2.9-8 1.8-12.3 1.9-.2 0-.2.3 0 .3 4 .4 8.8 0 12.5-1.8.2-.1.1-.4-.2-.4z" fill="#000000" stroke-width="none" opacity="1"></path></g></g></g><g id="svga-group-eyes-right-move" transform="matrix(1,0,0,1,0,0)"><g id="svga-group-eyes-right" transform="matrix(1,0,0,1,0,0)"><g id="svga-group-eyesback-right"></g><g id="svga-group-eyesiriswrapper-right"><g id="svga-group-eyesiriscontrol-right" transform="matrix(1,0,0,1,0,0)"><g id="svga-group-eyesiris-right" transform="matrix(1,0,0,1,0,0)"><path id="SvgjsPath16492" d="M123.2 84.7c-1-1.9-3.2-2.7-5.2-2-2.2.8-3.8 3-3.1 5.4.4 1.2 1.5 2.4 2.8 2.7.4.1.9.1 1.4.1.5.1 1.1 0 1.7-.2 2.5-.9 3.6-3.7 2.4-6z" fill="#ffffff" stroke-width="none" opacity="1"></path><path id="SvgjsPath16493" d="M119.6 91.2h-.4c-.5 0-1 0-1.5-.1-1.3-.3-2.5-1.4-3-2.9-.9-2.6 1-4.9 3.2-5.7 2.2-.8 4.6.1 5.6 2.1.6 1.2.7 2.6.2 3.8-.5 1.2-1.5 2.2-2.7 2.6-.5.1-.9.2-1.4.2zm-.4-.6c.5.1 1.1 0 1.6-.2 1.1-.4 1.9-1.2 2.4-2.3.4-1.1.4-2.3-.2-3.3-.9-1.7-3-2.5-4.9-1.8-2 .7-3.6 2.8-2.9 5 .4 1.2 1.5 2.3 2.6 2.5.5.1 1 .1 1.4.1zm2.4-4.8c0-.1 0-.1-.1-.1-.6-1.1-2-1.5-3.1-1 .2.2.4.5.6.7.2.3.5 1 .1 1.2-.4.2-1 0-1.3-.2-.2-.1-.3-.3-.5-.5 0 .1-.1.1-.1.2-.1.2-.1.4-.1.6-.2.7 0 1.4.5 1.9.2.2.5.3.8.4.6.3 1.2.4 1.8.1-.1-.1-.2-.2-.2-.4 0-.3.2-.6.5-.7.3-.1.6 0 .7.2.3-.3.5-.7.6-1.1.2-.4.1-.9-.2-1.3zm-4.7 1.1c-.4-.1-.9-.1-1.3-.2-.1 0-.1.1 0 .1.4.1.9.3 1.3.2v-.1zm-.1.8c-.2 0-.4.1-.6.1-.2 0-.5.1-.7.1-.1 0-.1.1 0 .1.4 0 1 0 1.3-.3.1.1 0 0 0 0zm.4.8c-.2.1-.3.2-.5.3-.2.1-.4.2-.5.3-.1 0 0 .2.1.1.3 0 .7-.3.9-.7.1.1 0 0 0 0zm.8.7c-.3.3-.4.6-.6.9-.1.1.1.2.1.1.2-.3.5-.6.6-1h-.1zm.9.4c-.1.3-.1.7-.2 1.1 0 .1.1.1.1 0 0-.4.1-.7.1-1.1.1-.1 0-.1 0 0zm1.4.4c-.1-.1-.1-.3-.2-.4 0 0-.1 0-.1.1 0 .2.1.3.2.4.1.2.1.3.2.5 0 .1.1 0 .1 0-.1-.2-.1-.4-.2-.6zm1.2-.2-.3-.3-.3-.3c0-.1-.1 0-.1.1.1.1.2.2.3.4.1 0 .2.2.4.1 0 .1.1.1 0 0zm1-.7c-.1-.1-.3-.2-.5-.3-.2-.1-.3-.2-.5-.3-.1 0-.2.1-.1.1.2.1.3.2.5.3.2.1.3.2.5.2.1.1.1.1.1 0zm.5-1.3c-.1-.1-.3-.1-.4-.1-.2 0-.3-.1-.5-.1-.1 0-.1.1-.1.1.3.1.7.3 1 .2v-.1zm.2-1.7c-.3.1-.8.3-1 .5-.1.1 0 .1.1.1.2-.1.3-.2.5-.2.2-.1.3-.1.5-.2.1-.1 0-.2-.1-.2zm-.8-2-.1-.1s-.1 0-.1.1c0 0-.4.4-.4.5-.1.2-.2.3-.4.5-.1.1.1.1.1.1l.9-.9v-.2zm-1.9-.8c-.1.1-.1.3-.2.5s-.1.4-.2.6c0 .1.1.1.1 0 .1-.2.2-.3.2-.5.1-.2.2-.4.1-.5.1-.1 0-.1 0-.1zm-1.3.8c-.1-.2-.1-.3-.2-.5 0-.2-.1-.3-.1-.4 0-.1-.1 0-.1 0 0 .3.2.7.3 1 0 .1.1 0 .1-.1zm-1.2 0c-.1-.2-.2-.3-.3-.5 0-.1-.1 0-.1 0 .1.2.1.3.2.5.1.1.2.3.3.4.1 0 .1 0 .1-.1 0 0-.1-.2-.2-.3zm-.6.9-.3-.3c-.1-.1-.2-.2-.4-.3-.1-.1-.2 0-.1.1l.3.3c.2.1.3.3.5.2 0 .2 0 .1 0 0zm-.8.8-.9-.3c-.1 0-.1.1 0 .1.3.1.6.3.9.3v-.1z" fill="#000000" stroke-width="none" opacity="1"></path></g></g></g><g id="svga-group-eyesfront-right"><path id="SvgjsPath16597" d="M119 74.4c-6.9 0-12.5 5.6-12.5 12.5s5.6 12.5 12.5 12.5 12.5-5.6 12.5-12.5-5.6-12.5-12.5-12.5zm-7.2 16.1c-2.1 0-3.4-.4-3.1-1.1 2-5.6 7.5-6.8 10.9-6.6 3.4.2 5.8 1.7 7.6 2.8 1.8 1.1 3.1 3.2 2.5 4-.6.9-15.9.9-17.9.9z" fill="#ffffff" stroke-width="none" opacity="1"></path><path id="SvgjsPath16600" d="M109.3 85.4c.1 0 .1 0 .2-.1 0 0 2.7-3.4 7.2-4.5 4.7-1.2 8.8 1.7 10.1 2.6.1.1.2 0 .3-.1.1-.1 0-.2-.1-.3-1.4-1-5.6-3.9-10.5-2.7-4.7 1.2-7.3 4.5-7.4 4.6s-.1.2 0 .3l.2.2zm23.3.6c-.2-.2-.5-.2-.6 0-.6.6-2.1.6-2.6.6h-.1c-.2-.2-.4-.5-.7-.7.6-.2 1.6-.8 2.3-2.1.1-.2 0-.5-.2-.6s-.5 0-.6.2c-.8 1.6-2.1 1.7-2.1 1.8h-.1c-2-1.6-4.8-2.9-7.6-2.9-6.3-.1-9.6 1.8-11.9 6.8-.1.2 0 .5.2.6s.5 0 .6-.2c2.1-4.7 5.1-6.4 11.1-6.3 4.6.1 9.1 3.8 9.4 5.6 0 .3-.1.5-.4.6-1.5.5-8.8.6-19.3.5h-.3c-.2 0-.4.2-.4.4s.2.4.4.4h.3c2.1 0 4.7.1 7.3.1 5.3 0 10.8-.1 12.3-.6.2-.1.4-.1.5-.3.2 0 .6.1 1.4.5h.2c.2 0 .3-.1.4-.3.1-.2 0-.5-.2-.6-.6-.2-1-.4-1.3-.4v-.5c-.1-.4-.2-.8-.5-1.2.8 0 2.1-.2 2.7-.9 0 0 0-.3-.2-.5zm-23.9 5.1c-.2-.1-.4.2-.2.3.8.6 1.5 1.1 2.5 1.3.2 0 .3-.2.1-.3-.8-.5-1.6-.8-2.4-1.3z" fill="#000000" stroke-width="none" opacity="1"></path></g></g></g><g id="svga-group-facehighlight-single"></g><g id="svga-group-eyebrows-left-move" transform="matrix(1,0,0,1,0,0)"><g id="svga-group-eyebrows-left-rotate" transform="matrix(1,0,0,1,0,0)"><g id="svga-group-eyebrows-left" transform="matrix(1,0,0,1,0,0)"><path id="SvgjsPath16565" d="M68.11 77.61c.15-.21 3.71-5.16 11.21-5.22h.13c6.02 0 10.44 2.99 11.82 4.89.46.64.63 1.21.49 1.65-.1.3-.31.5-.59.58-.08.02-.16.03-.25.03-.95 0-2.43-1.23-4.12-2.7-.36-.31-.66-.58-.86-.73-1.78-1.36-5.27-2.64-8.23-2.31-3.55.39-5.45 1.11-9 4.35-.15.14-.39.14-.55 0-.15-.13-.17-.37-.05-.54z" fill="#000000" stroke-width="none" opacity="1"></path></g></g></g><g id="svga-group-eyebrows-right-move" transform="matrix(1,0,0,1,0,0)"><g id="svga-group-eyebrows-right-rotate" transform="matrix(1,0,0,1,0,0)"><g id="svga-group-eyebrows-right" transform="matrix(1,0,0,1,0,0)"><path id="SvgjsPath16566" d="M131.89 77.61c-.15-.21-3.71-5.16-11.21-5.22h-.13c-6.02 0-10.44 2.99-11.82 4.89-.46.64-.63 1.21-.49 1.65.1.3.31.5.59.58.08.02.16.03.25.03.95 0 2.43-1.23 4.12-2.7.36-.31.66-.58.86-.73 1.78-1.36 5.27-2.64 8.23-2.31 3.55.39 5.45 1.11 9 4.35.15.14.39.14.55 0 .15-.13.17-.37.05-.54z" fill="#000000" stroke-width="none" opacity="1"></path></g></g></g><g id="svga-group-nose-single-move" transform="matrix(1,0,0,1,0,0)"><g id="svga-group-nose-single" transform="matrix(1,0,0,1,0,0)"><path id="SvgjsPath16541" d="M101.9 106.4c-.5 1.3-1.1 2.6-2 3.7-.5.6-1.5 1.5-2.4 1.4s-.6-1.3-.6-2c-.1-3.2-.1-6.5 0-9.7.1-6.4.4-12.7 1-19.1.1-.7-1-.7-1.1 0-.9 10.3-1.2 20.7-.9 31 0 .2.1.4.3.5 3.5 1.6 5.5-2.7 6.6-5.2.2-.7-.7-1.2-.9-.6z" fill="#000000" stroke-width="none" opacity="1"></path><path id="SvgjsPath16542" d="M103.9 105.6c.3-.7 1.1-1.1 1.8-.6.5.4 1.3-.3.7-.7-1.2-.9-2.8-.6-3.5.8-.2.6.7 1.2 1 .5z" fill="#000000" stroke-width="none" opacity="1"></path><path id="SvgjsPath16543" d="M93.2 105.1c.5-.2 1.1 0 1.3.5.3.6 1.2.1.9-.5-.4-.9-1.6-1.4-2.5-1-.6.3-.3 1.3.3 1z" fill="#000000" stroke-width="none" opacity="1"></path></g></g><g id="svga-group-hair-front" transform="matrix(1,0,0,1,0,0)"><path id="SvgjsPath16638" d="M118.4 47.9s2 11.6 1.8 17l12.5.2-.4-5.3s3.5 8.4 2.7 21.6c-.8 13.1-3.9 29-3.9 29s9.2-4.3 11.8-6.1l3.1-15.1-.4 13.5s6.1-3.9 8-5.9c0 0-1.4-17.6-2.4-25.7l4.7 15.3s-2.2-13.9-6.5-24.3-13.9-24.9-22.2-30.8-19.4-7.8-27-5.1c0 0-9-2.5-13.1-2.2-4.1.4-31.2 15.1-36.7 41.9s-4.1 30-4.1 30 3.5 3.7 4.9 4.1l1-7.4 2 10.2s12.3 6.3 17.6 7.1c0 0-6.3-15.1-6.7-27-.4-12 2-31.4 7.1-39.4 0 0-1.8 13.3-2.2 20.2 0 0 30.2 5.5 45.7 1.8.2.1 2.7-11.7 2.7-17.6z" fill="#ffffff" stroke="#000000" stroke-width="1" opacity="1"></path><path id="SvgjsPath16639" d="M89.4 26.6c-7.5 10.1-10.8 22.3-9.6 34.8.1.8 1.3.8 1.2 0-1.2-12.3 2.1-24.2 9.4-34.1.5-.7-.6-1.3-1-.7zM88.8 37c-2.7 8.6-3.4 17.3-2.1 26.2.1.8 1.3.5 1.2-.3-1.3-8.7-.6-17.2 2.1-25.5.3-.8-.9-1.2-1.2-.4zm2.8 6.3c-1.6 5.8-1.7 11.7-.4 17.5.2.8 1.4.5 1.2-.3-1.3-5.7-1.1-11.3.4-16.9.2-.8-1-1.1-1.2-.3zm3.5 4.9c-.3 3.3-.1 6.5.6 9.8.2.8 1.4.5 1.2-.3-.7-3.1-.9-6.3-.6-9.5.2-.8-1.1-.8-1.2 0zm3.8.6c-.1 3.2.1 6.4.6 9.6.1.8 1.3.5 1.2-.3-.5-3.1-.7-6.2-.5-9.3-.1-.8-1.3-.8-1.3 0zm-21.1-10c-2.3 7.1-3.6 14.3-3.8 21.8 0 .8 1.2.8 1.2 0 .2-7.3 1.4-14.5 3.7-21.4.4-.8-.8-1.1-1.1-.4zm30-2.4c.6 8.9 1.2 17.7 1.8 26.6.1.8 1.3.8 1.2 0-.6-8.9-1.2-17.7-1.8-26.6 0-.8-1.2-.8-1.2 0zm1.8-5.8c3 10.8 4.1 21.8 3.3 33-.1.8 1.2.8 1.2 0 .8-11.3-.3-22.4-3.4-33.3-.1-.8-1.3-.5-1.1.3zm8.8 7.3c2.8 8.3 4.3 16.8 4.6 25.5 0 .8 1.3.8 1.2 0-.3-8.9-1.8-17.4-4.7-25.8-.1-.8-1.3-.5-1.1.3zm7.5 8.4c.7 4.7 1.4 9.4 2 14 .1.8 1.3.5 1.2-.3-.7-4.7-1.4-9.4-2-14-.1-.8-1.3-.4-1.2.3zm1.1-7.5c9.9 14.6 14.1 32 12 49.5-.1.8 1.2.8 1.2 0 2.1-17.7-2.2-35.4-12.2-50.1-.3-.7-1.4-.1-1 .6zm-55.1-2.3C61.4 54 57.6 74.6 61.2 94.7c.1.8 1.3.5 1.2-.3-3.5-19.8.3-40.1 10.6-57.3.4-.7-.7-1.3-1.1-.6zm-10 13.4c-5.8 9.9-7.9 21-6.3 32.3.1.8 1.3.5 1.2-.3-1.6-11 .6-21.8 6.2-31.3.4-.8-.7-1.4-1.1-.7z" fill="#000000" stroke-width="none" opacity="1"></path></g><g id="svga-group-glasses-single-move" transform="matrix(1,0,0,1,0,0)"><g id="svga-group-glasses-single" transform="matrix(1,0,0,1,0,0)"></g></g></g></g></g><rect id="svga-credit-rect" width="200" height="15" x="0" y="185" fill="#ecf0f1" opacity="0.5" style="display: none;"></rect><text id="svga-credit-text" font-family="Avenir Next, Roboto, Helvetica, Arial, sans-serif" font-size="10px" text-anchor="start" font-weight="400" size="10px" anchor="start" weight="400" fill="#333333" x="33.402061462402344" y="182.71133995056152" style="display: none;"><tspan id="SvgjsTspan16017" dy="13" x="33.402061462402344">Created on AvatarMaker.com</tspan></text></g></svg>