<svg xmlns="http://www.w3.org/2000/svg" version="1.1" width="600px" height="600px" viewBox="0 0 200 200" style="overflow:hidden!important;"><defs id="SvgjsDefs34043"></defs><g id="svga-group-wrapper"><g id="svga-group-backs-single"></g><g id="svga-group-humanwrap-move" transform="matrix(1,0,0,1,0,0)"><g id="svga-group-humanwrap" transform="matrix(1,0,0,1,0,0)"><g id="svga-group-hair-back-move" transform="matrix(1,0,0,1,0,0)"><g id="svga-group-hair-back" transform="matrix(1,0,0,1,0,0)"><path id="SvgjsPath34699" d="M134.5 46.85a1.01 1.01 0 0 0-.48-.83c-22.11-13.32-62.93-3.71-64.65-3.3a.99.99 0 0 0-.76.88l-7.69 84.32c-.01.07 0 .15 0 .22l6.1 45.87c.07.51.53.91 1.03.87a1 1 0 0 0 .96-.95l1.15-23.48 4.03 23.6c.09.52.55.88 1.08.83.52-.05.92-.49.91-1.01l-.21-12.96 1.67 13.89c.06.52.52.93 1.05.88.53-.03.94-.46.95-.99l.16-16.54 3.16 18.29c.09.5.53.87 1.02.83.5-.02.91-.41.96-.91l1.94-20.71 3.24 19.45c.08.49.51.87 1 .84.49-.01.91-.37.98-.86l2.55-18.23 3.16 18.79a1 1 0 0 0 .99.83h.01a1 1 0 0 0 .98-.85l2.81-18.63 3.18 17.87c.08.48.5.82.98.83.48 0 .9-.34.98-.82l3.84-20.67 4.54 22.28c.1.47.51.8.98.8h.09c.51-.04.9-.46.91-.96l.45-14.42 2.07 13.74a1 1 0 0 0 .99.85h.01c.5 0 .92-.37.98-.87l2.49-18.41 2.69 18.42c.07.49.49.86.99.86h.01c.5 0 .92-.37.99-.87l2.86-21.27 3.65 20.26c.09.51.56.86 1.09.82.52-.05.91-.5.9-1.02L134.5 46.85z" fill="#000000" stroke-width="none" opacity="1"></path></g></g><g id="svga-group-humanbody-back"><path id="SvgjsPath34301" d="M86.5 122c0 18.8 2.7 50.3-8.1 58s-31.8 13.9-36.7 24.4-3.6 14.4-3.6 14.4h124.1s.6-8.1-4.2-15.4c-6.6-10.1-28.5-17.7-36.5-22.9-8.1-5.2-10.9-32.2-10.9-58.8l-24.1.3z" fill="#ffffff" stroke-width="none" opacity="1"></path></g><g id="svga-group-chinshadow-single"></g><g id="svga-group-humanbody-front"><path id="SvgjsPath34302" d="M163.4 220.1H37.2l-.3-.9c-.1-.5-1.3-4.7 3.6-15.3 3.4-7.3 13.6-12.4 23.5-17.4 5.1-2.5 9.9-5 13.6-7.5 8.6-6 8.1-29.8 7.7-47.1-.1-3.5-.1-6.8-.1-9.8v-1.3l26.7-.4v1.3c0 32 3.8 53.5 10.3 57.7 2.4 1.6 6 3.3 10.2 5.4 9.7 4.7 21.9 10.6 26.7 18 5 7.6 4.4 15.9 4.4 16.2l-.1 1.1zm-124.1-2.6h121.6c-.1-2.4-.6-8.2-4-13.4-4.4-6.7-16.2-12.5-25.6-17-4.3-2.1-8-3.9-10.5-5.5-9.8-6.3-11.4-38.8-11.5-58.6l-21.5.4c0 2.6.1 5.5.1 8.5.4 18.9.9 42.4-8.8 49.3-3.8 2.7-8.7 5.1-13.9 7.7-9.5 4.8-19.4 9.7-22.3 16.1-3.3 6.9-3.7 10.9-3.6 12.5z" fill="#000000" stroke-width="none" opacity="1"></path><path id="SvgjsPath34303" d="M76.8 188.7c4.8 2.3 10.4 3.9 15.7 2.9.4-.1.4-.7 0-.8-5.1-.9-10.2-1.4-15.2-3.2-.6-.2-1.1.8-.5 1.1z" fill="#000000" stroke-width="none" opacity="1"></path><path id="SvgjsPath34304" d="M108.3 191.1c2.4.3 4.9-.4 7.1-1.2 2.1-.8 4.3-1.7 5.8-3.4.5-.5-.1-1.2-.7-.9-2.1.9-3.9 2.3-6.1 3-2 .7-4.1 1-6.2 1.5-.6.1-.4.9.1 1z" fill="#000000" stroke-width="none" opacity="1"></path></g><g id="svga-group-clothes-single"><path id="SvgjsPath34641" d="M158.4 200.8c-6.9-7.5-18-11.9-23.8-14.4-5.8-2.4-13-5.9-15.6-10s-5.5-20.2-6.2-29.2c0 0-14.2 3-26.7-.8 0 0 .2 17.2-2.5 24.8-2.7 7.6-7.2 10.1-13.4 12.9-6.2 2.8-18.1 8.9-22.6 12.6s-9.1 8.9-9.7 13.2-1.2 10.3-1.2 10.3h128.2c-.1.1.4-11.9-6.5-19.4zM96.8 211c-6.4-1.6-9.1-15.2-4.4-28.4 0 0 8.7 1.6 15.7.6 0 0 1.1 10.3 2.3 17 1.1 6.7-7.2 12.5-13.6 10.8z" fill="#ffffff" stroke-width="none" opacity="1"></path><path id="SvgjsPath34642" d="M159.1 200.2c-6.8-7.4-17.7-11.9-23.5-14.4l-.6-.2c-8.3-3.5-13.2-6.6-15.2-9.7-2.5-3.9-5.4-19.9-6.1-28.7 0-.3-.2-.6-.4-.7s-.5-.2-.8-.2c-.1 0-14.1 2.9-26.2-.7-.3-.1-.6 0-.9.2-.2.2-.4.5-.4.8 0 .1.1 10-1 17.9-.1 0-.2.1-.1.2l.1.1c-.3 2.4-.8 4.6-1.4 6.3-.6 1.6-1.2 2.9-1.9 4.1-.1 0-.1.1-.1.2-2.5 4-6 5.8-10.9 8.1-6.4 2.9-18.3 8.9-22.8 12.8-2.8 2.3-9.3 8.3-10 13.9-.6 4.3-1.2 10.3-1.2 10.3 0 .3.1.6.2.8.2.2.5.3.7.3h128.2c.5 0 1-.4 1-1 0-.8.4-12.7-6.7-20.4zm-88.6-15.1c2.2-1 4.2-2 5.9-3.1.2.1.4.2.6.2.2 0 .3-.2.1-.3-.1-.1-.2-.1-.3-.2.5-.3.9-.7 1.4-1 .6.4 1.3.8 1.9 1.1.1.1.2-.1.1-.2-.6-.4-1.2-.8-1.8-1.1.4-.3.8-.7 1.2-1.1.7.4 1.4.9 2.1 1.2.1.1.3-.1.2-.2-.6-.5-1.3-.9-2-1.3.4-.4.7-.8 1.1-1.2.7.4 1.4.9 2.2 1.2.2.1.2-.2.1-.2-.6-.5-1.3-.9-2.1-1.2.3-.4.6-.9.9-1.4.8.5 1.5.9 2.3 1.2.1.1.2-.1.1-.2-.7-.6-1.4-1-2.2-1.4.4-.7.8-1.4 1.2-2.2 1.1.9 2.4 1.6 3.7 1.9.2 0 .3-.2.1-.3-1.3-.6-2.5-1.2-3.7-2 .2-.6.5-1.1.7-1.7 0-.1.1-.2.1-.3 1.4 1.1 3 2.2 4.7 2.6.1 0 .2-.1.1-.2-1.7-.9-3.2-1.6-4.7-2.8.2-.6.4-1.3.5-2 1.4 1.1 2.9 2.1 4.5 2.7.2.1.3-.2.1-.3-1.5-1-3.1-1.8-4.6-2.9.2-.7.3-1.5.4-2.3 1.8 1.6 3.8 3 5.9 3.8.1.1.2-.1.1-.2-1.9-1.5-4-2.7-5.9-4.1l.3-2.4c1.8 1.5 3.8 3 6 3.9.2.1.4-.2.2-.3-2.1-1.4-4.2-2.7-6.1-4.2.1-.9.2-1.8.3-2.6 2.2 1.8 4.6 3.6 7.2 4.8.2.1.4-.2.2-.3-2.5-1.7-5-3.3-7.3-5.1.1-.9.1-1.9.2-2.8 2 1.6 4.2 3 6.6 3.9.2.1.3-.2.1-.3-2.3-1.3-4.5-2.6-6.7-4.1.1-1 .1-1.9.1-2.8 2.8 2.4 6 4.5 9.5 5.7.2.1.2-.2.1-.3-3.4-1.7-6.7-3.5-9.6-5.9 0-1.2.1-2.2.1-3.1 3 2.4 6.2 4.7 9.6 6.3.2.1.4-.2.2-.3-3.3-2.1-6.7-4.1-9.8-6.4v-1.6c.2.1.5.1.7.2 3.2 2 6.5 4.1 9.8 5.8.2.1.3-.2.2-.3-2.8-1.9-5.9-3.6-8.9-5.2 2.2.5 4.4.8 6.6.9.8.4 1.6.8 2.4 1.1.2.1.3-.2.2-.3-.4-.3-.8-.5-1.2-.7 6.8.4 12.6-.4 15-.9.9 9.3 3.7 24.4 6.3 28.5 2.2 3.4 7.3 6.8 16.1 10.4l.6.2c3.7 1.6 9.5 4 14.9 7.5-1.1 2.3-5.4 11.4-6.7 24.2H58c-1.2-9.4-7.3-19.5-9.1-22.3 4.6-3.4 15.2-8.8 21.6-11.7zm80.8 34.2c-1.8-1.4-3.7-2.7-5.6-4h-.1c.2-1.3.4-2.6.7-3.8 2.7 3 5.8 5.8 9.4 7.8h-4.4zm-4.3 0-1.8-1.2c.1-.8.2-1.7.3-2.5 1.6 1.2 3.2 2.5 4.9 3.7H147zm-1.9-.7c.3.2.6.4.8.6h-.9c.1-.1.1-.3.1-.6zm-98.8.7c-2.9-.6-5.6-1.3-8.3-2.4.1-.9.2-2 .4-3 4.7 2.5 9.8 4.4 15.1 4.9.2 0 .2-.2 0-.3-5.2-1.1-10.2-2.6-15-5h-.2c.1-1.2.3-2.3.4-3.4v-.3c4.7 2.8 10 5.2 15.5 6.2.2 0 .3-.3.1-.4-5.3-1.8-10.5-3.6-15.5-6.3.2-.9.6-1.9 1.2-2.9 4.3 2.3 9.1 4.6 13.9 5.5.8 2.4 1.5 4.9 1.9 7.3l-9.5.1zm-3.2-16.9c2.6 1.1 5.3 2.1 8 2.9h.1c.9 1.9 1.9 4 2.7 6.3-4.5-1.9-9.1-3.3-13.5-5.5.7-1.2 1.6-2.4 2.7-3.7zm3.5-3.6c.5.3 1 .5 1.4.7.4.6.8 1.4 1.3 2.3-1.2-.8-2.5-1.4-3.8-2 .4-.3.8-.6 1.1-1zm1 0-.6-.3c.1-.1.2-.1.2-.2.2.1.3.3.4.5zm-2.4 1.4c1.5.8 2.9 1.6 4.5 2.1.5.8.9 1.7 1.4 2.7-2.5-1.1-5.1-2-7.6-2.9.5-.7 1-1.3 1.7-1.9zm-7.3 17.3c1.7.8 3.6 1.5 5.5 1.8h-5.7c.1-.5.1-1.1.2-1.8zm118.4 1.8c-3.6-2.5-6.9-5.1-9.9-8.3.6-2.6 1.3-5 1.9-7.1 3 2.9 6.3 5.8 9.9 8 .2.1.3-.1.2-.3-3.4-2.6-6.8-5.2-9.9-8.1 1.2-3.6 2.4-6.1 2.9-7.3 2.3 1.6 4.4 3.3 6.2 5.3 5.4 5.9 6.1 14.8 6.1 17.8h-7.4zM96.5 212c.8.2 1.7.3 2.6.3 3.1 0 6.4-1.3 8.9-3.6 2.6-2.4 3.9-5.6 3.3-8.6-1.1-6.6-2.3-16.8-2.3-16.9 0-.3-.2-.5-.4-.7s-.5-.2-.8-.2c-6.8.9-15.3-.6-15.3-.6-.5-.1-1 .2-1.1.6-3.2 9-3.2 19.1-.1 25.1 1.4 2.5 3.2 4.1 5.2 4.6zM93 183.8c2.2.4 8.5 1.2 14.1.6.3 2.8 1.2 10.6 2.2 16 .4 2.4-.6 4.9-2.7 6.8-2.7 2.5-6.5 3.6-9.6 2.8-1.5-.4-2.8-1.6-3.9-3.6-2.3-4.4-3.3-13.1-.1-22.6zm54.7 24.3c-.1-.1-.3.1-.2.2 3.6 4.1 7.6 7.9 12.3 10.6.2.1.3-.1.1-.2-4.3-3.3-8.5-6.5-12.2-10.6zm3.3-6.7c-.2-.2-.5.1-.3.3 1.3 1.2 2.6 2.4 3.9 3.5.1.1.3-.1.2-.2-1.2-1.2-2.5-2.4-3.8-3.6z" fill="#000000" stroke-width="none" opacity="1"></path></g><g id="svga-group-head" transform="matrix(1,0,0,1,0,0)"><g id="svga-group-ears-left-move" transform="matrix(1,0,0,1,0,0)"><g id="svga-group-ears-left" transform="matrix(1,0,0,1,0,0)"><path id="SvgjsPath34527" d="M64.7 84.7s-1.8-5-3.3-7.9-3.6-6.3-6.6-7.2-4 3.9-2.9 8.3 4.2 13.9 5 17.6 1.8 8.1 3.6 7.5 7.1-7.7 4.2-18.3z" fill="#ffffff" stroke-width="none" opacity="1"></path><path id="SvgjsPath34528" d="M59.1 103.6c-1.5-.8-2.3-3.8-3.2-8-.4-2.2-1.7-6.4-2.9-10.5-.8-2.7-1.6-5.3-2.1-7.1-.9-3.5-.5-7.1 1-8.6.8-.8 1.8-1 2.9-.7 3.3.9 5.5 4.4 7.2 7.6 1.6 2.9 3.3 7.8 3.4 8v.1c3.1 11.1-2.6 18.5-4.8 19.3-.2.1-.4.1-.6.1-.3.1-.6 0-.9-.2zm1.5-26.4c-1.6-2.9-3.4-6-6.1-6.7-.5-.1-.9 0-1.3.3-1.1 1.1-1.3 4-.6 6.9.5 1.8 1.2 4.3 2 7 1.2 4.1 2.5 8.4 3 10.6.8 4.1 1.6 6.4 2.3 6.8h.1c1.1-.4 6.6-6.8 3.8-17.2-.1-.4-1.8-5.1-3.2-7.7z" fill="#000000" stroke-width="none" opacity="1"></path><path id="SvgjsPath34529" d="M52.8 72.7c1.9-.8 3.6 1.4 4.8 3.3 1.6 2.5 2.6 5.5 2.9 8.6v.2c0 .2 0 .5.1.7 0 .2-.2.2-.2 0-.1-.4-.2-.9-.3-1.4 0 0-.1-.1-.1-.2-1.2-.6-1.8-.3-1.8.8 0 .7.2 1.5.3 2.2.3 1.2.9 2.3 1.3 3.5.1.2-.2.4-.3.2-.9-1.6-2.6-5.3-1.5-7.2.5-.9 1.3-.8 1.9-.2-.5-2-1.2-4.3-2.2-6.2-2.1 4.5-1 9.2.1 14.2 0 .2-.2.3-.3.1-1.4-4.6-2.7-10.7 0-14.5-1.2-2.2-2.8-3.9-4.7-3.8-.1.1-.2-.3 0-.3z" fill="#000000" stroke-width="none" opacity="1"></path></g></g><g id="svga-group-ears-right-move" transform="matrix(1,0,0,1,0,0)"><g id="svga-group-ears-right" transform="matrix(1,0,0,1,0,0)"><path id="SvgjsPath34530" d="M135.3 84.7s1.8-5 3.3-7.9 3.6-6.3 6.6-7.2 4 3.9 2.9 8.3-4.2 13.9-5 17.6c-.7 3.7-1.8 8.1-3.6 7.5s-7.1-7.7-4.2-18.3z" fill="#ffffff" stroke-width="none" opacity="1"></path><path id="SvgjsPath34531" d="M140 103.9c-.2 0-.4 0-.6-.1-2.2-.8-7.9-8.2-4.8-19.3v-.1c.1-.2 1.8-5.1 3.4-8 1.7-3.2 3.9-6.7 7.2-7.6 1.1-.3 2.2 0 2.9.7 1.5 1.5 1.9 5 1 8.6-.5 1.8-1.2 4.4-2.1 7.1-1.2 4.1-2.5 8.3-2.9 10.5-.8 4.2-1.7 7.2-3.2 8-.3.1-.6.2-.9.2zm-3.9-19c-2.9 10.4 2.6 16.8 3.8 17.2h.1c.7-.4 1.5-2.7 2.3-6.8.5-2.3 1.7-6.5 3-10.6.8-2.7 1.6-5.3 2-7 .8-2.9.5-5.9-.6-6.9-.3-.3-.8-.4-1.3-.3-2.7.7-4.6 3.9-6.1 6.7-1.3 2.6-3 7.3-3.2 7.7z" fill="#000000" stroke-width="none" opacity="1"></path><path id="SvgjsPath34532" d="M147.2 72.7c-1.9-.8-3.6 1.4-4.8 3.3-1.6 2.5-2.6 5.5-2.9 8.6v.2c0 .2 0 .5-.1.7 0 .2.2.2.2 0 .1-.4.2-.9.3-1.4.1-.1.1-.2.2-.3 1.2-.6 1.8-.3 1.8.8 0 .7-.2 1.5-.3 2.2-.3 1.2-.9 2.3-1.3 3.5-.1.2.2.4.3.2.9-1.6 2.6-5.3 1.5-7.2-.5-.9-1.3-.8-1.9-.2.5-2 1.2-4.3 2.2-6.2 2.1 4.5 1 9.2-.1 14.2 0 .2.2.3.3.1 1.4-4.6 2.7-10.7 0-14.5 1.2-2.2 2.8-3.9 4.7-3.8 0 .2.1-.2-.1-.2z" fill="#000000" stroke-width="none" opacity="1"></path></g></g><g id="svga-group-faceshape-wrap" transform="matrix(1,0,0,1,0,0)"><g id="svga-group-faceshape-single"><path id="SvgjsPath34513" d="M139.4 74.3s.2-8.5-1.2-16.1c-2-10.8-13.3-27.4-37.2-27.4-23.9 0-31.9 12.7-35.5 22.2-3 8.1-3 21.3-3 21.3s0 32.3 3.2 40.2c3.2 7.9 20.7 26.1 27.4 25.4 5.6-.6 7.3-2.9 7.3-2.9s2 3.5 6.1 3.2c4.1-.3 24.9-13.9 29.5-22.9 4.7-9 3.4-43 3.4-43z" fill="#ffffff" stroke-width="none" opacity="1"></path><path id="SvgjsPath34514" d="M106 141.6c-2.8 0-4.7-1.5-5.8-2.6-1.2.9-3.3 1.9-7 2.3-4.7.5-12.1-6-16.1-9.8-6-5.8-11.1-12.4-12.7-16.3-3.3-8-3.3-39.4-3.3-40.7 0-.5 0-13.6 3.1-21.8 5.8-15.5 17.8-23 36.7-23 10.9 0 20.5 3.4 27.7 10 5.5 5 9.6 11.9 10.8 18.5 1.4 7.5 1.2 15.6 1.2 16.3.1 1.9 1.2 34.4-3.5 43.6-4.7 9.1-25.7 23.3-30.6 23.6-.1-.2-.3-.1-.5-.1zm-5.5-7 1 1.8c.1.1 1.7 2.8 4.9 2.6 3.6-.3 24-13.5 28.5-22.2 4.5-8.6 3.2-42 3.2-42.3 0-.1.2-8.4-1.2-15.9-1.1-6-4.8-12.4-10-17-6.7-6.1-15.7-9.3-26-9.3-17.7 0-28.9 7-34.3 21.3-2.9 7.8-2.9 20.8-2.9 20.9 0 .3 0 32.2 3.1 39.7 3.3 8.1 20.5 25.2 26.1 24.6 4.9-.5 6.4-2.4 6.4-2.4l1.2-1.8z" fill="#000000" stroke-width="none" opacity="1"></path></g></g><g id="svga-group-mouth-single-move" transform="matrix(1,0,0,1,0,0)"><g id="svga-group-mouth-single" transform="matrix(1,0,0,1,0,0)"><path id="SvgjsPath34593" d="M113.06 120.65c-.29.14-.56.24-.84.34-.01 0-.01-.01-.02-.01-2.76-.78-4.09-3.51-6.88-4.24-2.03-.53-4.09.07-5.57 1.36-.96-1.17-2.54-1.53-4.11-1.13-3.23.82-4.73 4.14-8.26 4.42-.07.01-.11.04-.16.07-.14-.04-.29-.06-.43-.1-.33-.1-.47.37-.14.47.49.15.96.24 1.42.31.03.06.08.11.16.13 2.63.87 4.33 3.03 6.8 4.17 2.02.93 4.33 1.35 6.59 1.22 4.32-.25 8.06-2.62 10.16-5.98.53-.17 1.05-.37 1.56-.61.3-.14.03-.56-.28-.42zm-21.53-.48c1.94-1.45 5.67-4.76 7.9-1.66.02.02.04.02.06.04.07.15.27.25.42.1 2.43-2.33 5.66-1.82 8.07.2 1.11.93 2.12 1.83 3.48 2.37 0 0-.01 0-.01.01l-.01.01c-2.11.55-3.97.14-6.35-.24-.06-.01-.12-.01-.18-.01.11-.14.2-.3.22-.48.02-.13-.04-.26-.19-.3-.13-.03-.31.04-.33.17-.04.27-.22.49-.52.59-.16.01-.32.02-.48.05.42-.49.65-1.08.65-1.72 0-.32-.54-.32-.54 0-.01.7-.32 1.32-.91 1.78-.05.04-.06.09-.07.13-.9.25-1.79.59-2.8.66-1.02.07-1.95-.24-2.87-.53-.65-.49-1.06-1.19-1.12-1.97-.02-.31-.56-.32-.54 0 .04.63.28 1.19.66 1.69-.54-.13-1.09-.21-1.67-.14-.87.11-1.66.53-2.51.72-1.17.26-2.34.26-3.49.09 1.18-.28 2.16-.83 3.13-1.56zm8.09 6.98c-2.63-.23-4.94-1.24-6.96-2.75-1.05-.78-2.02-1.56-3.18-2.13 1.27.02 2.51-.2 3.89-.56.55-.15 1.01-.2 1.44-.19-.21.25-.41.51-.62.76-.21.25.26.5.47.25l.78-.96c.56.09 1.1.26 1.78.47.24.07.47.13.71.19-.38.38-.64.83-.77 1.33-.08.31.45.44.52.13.12-.48.37-.9.75-1.24.04-.04.04-.08.05-.12.25.04.49.06.74.07-.7 1-.92 2.17-.6 3.32.08.31.61.18.52-.13-.31-1.13-.06-2.24.7-3.18.01-.01.01-.01.01-.02.06 0 .12 0 .18-.01 1.03-.08 1.86-.51 2.83-.77.7-.19 1.32-.19 1.92-.11 1.2.51 1.99 1.59 2.03 2.8.01.31.55.32.54 0-.03-.98-.48-1.87-1.22-2.53.48.11.98.23 1.51.3 1.16.15 2.29.08 3.38-.18-2.42 3.52-6.73 5.66-11.4 5.26z" fill="#000000" stroke-width="none" opacity="1"></path></g></g><g id="svga-group-eyes-left-move" transform="matrix(1,0,0,1,0,0)"><g id="svga-group-eyes-left" transform="matrix(1,0,0,1,0,0)"><g id="svga-group-eyesback-left"></g><g id="svga-group-eyesiriswrapper-left"><g id="svga-group-eyesiriscontrol-left" transform="matrix(1,0,0,1,0,0)"><g id="svga-group-eyesiris-left" transform="matrix(1,0,0,1,0,0)"><path id="SvgjsPath34561" d="M77.3 84.3c-1.4 1.8-1.2 4.1.4 5.5 1.7 1.5 4.5 1.9 6.5.1 1-1 1.7-2.4 1.4-3.7-.1-.4-.3-.9-.5-1.3-.2-.5-.5-1-.9-1.4-2-1.7-5.2-1.3-6.9.8z" fill="#ffffff" stroke-width="none" opacity="1"></path><path id="SvgjsPath34562" d="M81.8 89c0-.1-.1-.1-.1-.2 0-.2 0-.3.1-.5s.4-.4.7-.4c.2 0 .3.1.5.2l.2.2c.3-.3.5-.8.5-1.3s-.2-.9-.5-1.2c-.2-.6-.7-1.1-1.4-1.3-.4-.1-.8-.1-1.2 0 .3.7 0 1.7-1 1.7-.3 0-.5-.1-.7-.2-.4.9-.2 2 .6 2.7.6.5 1.5.6 2.3.3zm-.7 2.4c-1.3 0-2.7-.5-3.6-1.4-1.7-1.5-1.8-4.1-.4-5.9.9-1.1 2.2-1.8 3.7-1.9 1.3-.1 2.6.3 3.5 1.1.4.4.8.9 1 1.4.2.4.4.9.6 1.3.3 1.3-.3 2.9-1.4 4-1.2 1-2.3 1.4-3.4 1.4zm-3.6-6.9c-1.3 1.6-1.1 3.8.3 5.1 1.6 1.4 4.2 1.8 6.1.1 1-1 1.5-2.4 1.3-3.5-.1-.4-.3-.8-.5-1.2v-.1c-.2-.5-.5-.9-.8-1.2-.8-.7-1.9-1.1-3.1-1-1.3.2-2.5.8-3.3 1.8z" fill="#000000" stroke-width="none" opacity="1"></path></g></g></g><g id="svga-group-eyesfront-left"><path id="SvgjsPath34658" d="M81 74.4c-6.9 0-12.5 5.6-12.5 12.5S74.1 99.4 81 99.4s12.5-5.6 12.5-12.5S87.9 74.4 81 74.4zm7.1 17s-3.9.4-5.4.4c-4.1 0-7.1-1.8-7.1-1.8s-7.5-5.3-2.3-7.1c5-1.7 11.2.8 13.2 2.9 2.1 2.1 1.6 5.6 1.6 5.6z" fill="#ffffff" stroke-width="none" opacity="1"></path><path id="SvgjsPath34659" d="M71.3 84c-.3.8-.2 1.7.4 2.8 1.4 2.4 3.9 4.2 7.1 4.9 1.2.3 2.5.4 3.9.4s3-.1 4.7-.4c.1 0 .2-.1.3-.2 0 .1.1.3.3.3.2.1.5 0 .6-.3.7-1.9 0-4.3-1.6-6-1.2-1.3-3-2.2-5.4-3-3.2-.9-5.9-1-8.2-.2-1.2.5-1.8 1-2.1 1.7zm.8.4c.2-.5.7-.8 1.5-1.1 2.1-.7 4.7-.6 7.7.2 2.3.7 3.9 1.5 5 2.7 1.4 1.4 1.9 3.4 1.4 4.9-.1-.2-.2-.3-.4-.3h-.1c-3.3.6-6 .6-8.3 0-2.9-.7-5.3-2.3-6.5-4.5-.3-.5-.6-1.3-.3-1.9zm-4.9-3c.1 0 .2.1.2.2 0 .3.1.5.3.7.4.3 1.3.4 2.2.3.4-.1.9-.3 1.6-.5 1.6-.6 3.8-1.3 6.5-1.4 3.6-.1 8.3 1.2 10.3 4.2 1.2 1.7 1.7 4.2 1.5 7.2v.1c0 .1-.1.2-.2.2s-.2-.1-.2-.2V92c.2-2.9-.3-5.3-1.4-7-1.9-2.8-6.5-4.1-9.9-4-2.6 0-4.8.8-6.4 1.3-.6.2-1.2.4-1.6.5-1.1.4-2.1.2-2.6-.2-.3-.2-.5-.6-.5-1 0-.1.1-.2.2-.2z" fill="#000000" stroke-width="none" opacity="1"></path></g></g></g><g id="svga-group-eyes-right-move" transform="matrix(1,0,0,1,0,0)"><g id="svga-group-eyes-right" transform="matrix(1,0,0,1,0,0)"><g id="svga-group-eyesback-right"></g><g id="svga-group-eyesiriswrapper-right"><g id="svga-group-eyesiriscontrol-right" transform="matrix(1,0,0,1,0,0)"><g id="svga-group-eyesiris-right" transform="matrix(1,0,0,1,0,0)"><path id="SvgjsPath34563" d="M115.8 84.3c-1.4 1.8-1.2 4.1.4 5.5 1.7 1.5 4.5 1.9 6.5.1 1-1 1.7-2.4 1.4-3.7-.1-.4-.3-.9-.5-1.3-.2-.5-.5-1-.9-1.4-2.1-1.7-5.3-1.3-6.9.8z" fill="#ffffff" stroke-width="none" opacity="1"></path><path id="SvgjsPath34564" d="M120.2 89c0-.1-.1-.1-.1-.2 0-.2 0-.3.1-.5s.4-.4.7-.4c.2 0 .3.1.5.2l.2.2c.3-.3.5-.8.5-1.3s-.2-.9-.5-1.2c-.2-.6-.7-1.1-1.4-1.3-.4-.1-.8-.1-1.2 0 .3.7 0 1.7-1 1.7-.3 0-.5-.1-.7-.2-.4.9-.2 2 .6 2.7.7.5 1.6.6 2.3.3zm-.7 2.4c-1.3 0-2.7-.5-3.6-1.4-1.7-1.5-1.8-4.1-.4-5.9.9-1.1 2.2-1.8 3.7-1.9 1.3-.1 2.6.3 3.5 1.1.4.4.8.9 1 1.4.2.4.4.9.6 1.3.3 1.3-.3 2.9-1.4 4-1.1 1-2.2 1.4-3.4 1.4zm-3.5-6.9c-1.3 1.6-1.1 3.8.3 5.1 1.6 1.4 4.2 1.8 6.1.1 1-1 1.5-2.4 1.3-3.5-.1-.4-.3-.8-.5-1.2v-.1c-.2-.5-.5-.9-.8-1.2-.8-.7-1.9-1.1-3.1-1-1.3.2-2.5.8-3.3 1.8z" fill="#000000" stroke-width="none" opacity="1"></path></g></g></g><g id="svga-group-eyesfront-right"><path id="SvgjsPath34660" d="M119 74.4c-6.9 0-12.5 5.6-12.5 12.5s5.6 12.5 12.5 12.5 12.5-5.6 12.5-12.5-5.6-12.5-12.5-12.5zm5.3 15.6s-3 1.7-7.1 1.8c-1.5 0-5.4-.4-5.4-.4s-.5-3.4 1.5-5.5 8.2-4.6 13.2-2.9c5.4 1.7-2.2 7-2.2 7z" fill="#ffffff" stroke-width="none" opacity="1"></path><path id="SvgjsPath34663" d="M126.6 82.4c-2.3-.8-5.1-.7-8.2.2-2.4.7-4.2 1.7-5.4 3-1.6 1.7-2.3 4-1.6 6 .1.2.3.4.6.3.2-.1.3-.2.3-.3.1.1.2.2.3.2 1.7.3 3.3.4 4.7.4 1.4 0 2.7-.1 3.9-.4 3.1-.7 5.7-2.6 7.1-4.9.6-1.1.7-2 .4-2.8-.4-.8-1-1.3-2.1-1.7zm.9 3.9c-1.2 2.2-3.6 3.8-6.5 4.5-2.3.6-4.9.5-8.3 0h-.1c-.2 0-.4.1-.4.3-.5-1.6.1-3.5 1.4-4.9 1.1-1.2 2.7-2 5-2.7 3-.9 5.6-.9 7.7-.2.8.3 1.3.6 1.5 1.1.3.6 0 1.4-.3 1.9zm5.2-4.9c-.1 0-.2.1-.2.2 0 .3-.1.5-.3.7-.4.3-1.3.4-2.2.3-.4-.1-.9-.3-1.6-.5-1.6-.6-3.8-1.3-6.5-1.4-3.6-.1-8.3 1.2-10.3 4.2-1.2 1.7-1.7 4.2-1.5 7.2v.1c0 .1.1.2.2.2s.2-.1.2-.2V92c-.2-2.9.3-5.3 1.4-7 1.9-2.8 6.5-4.1 9.9-4 2.6 0 4.8.8 6.4 1.3.6.2 1.2.4 1.6.5 1.1.2 2.1.1 2.6-.3.3-.2.5-.6.5-1 0 0-.1-.1-.2-.1z" fill="#000000" stroke-width="none" opacity="1"></path></g></g></g><g id="svga-group-facehighlight-single"></g><g id="svga-group-eyebrows-left-move" transform="matrix(1,0,0,1,0,0)"><g id="svga-group-eyebrows-left-rotate" transform="matrix(1,0,0,1,0,0)"><g id="svga-group-eyebrows-left" transform="matrix(1,0,0,1,0,0)"><path id="SvgjsPath34627" d="M66.69 76.82c.2-.16 4.99-4.03 7.37-4.29 2.38-.26 16.59 3.49 17.53 4.99.42.68.51 1.21.26 1.59-.21.31-.61.46-1.21.46-.39 0-.88-.06-1.45-.19-.95-.21-3.53-1.13-6.26-2.1-3.68-1.31-7.84-2.79-8.86-2.86-1.43-.11-5.57 2.09-7.04 2.94-.14.08-.32.04-.41-.1a.336.336 0 0 1 .07-.44z" fill="#000000" stroke-width="none" opacity="1"></path></g></g></g><g id="svga-group-eyebrows-right-move" transform="matrix(1,0,0,1,0,0)"><g id="svga-group-eyebrows-right-rotate" transform="matrix(1,0,0,1,0,0)"><g id="svga-group-eyebrows-right" transform="matrix(1,0,0,1,0,0)"><path id="SvgjsPath34628" d="M133.31 76.82c-.2-.16-4.99-4.03-7.37-4.29-2.38-.26-16.59 3.49-17.53 4.99-.42.68-.51 1.21-.26 1.59.21.31.61.46 1.21.46.39 0 .88-.06 1.45-.19.95-.21 3.53-1.13 6.26-2.1 3.68-1.31 7.84-2.79 8.86-2.86 1.43-.11 5.57 2.09 7.04 2.94.14.08.32.04.41-.1.09-.15.06-.34-.07-.44z" fill="#000000" stroke-width="none" opacity="1"></path></g></g></g><g id="svga-group-nose-single-move" transform="matrix(1,0,0,1,0,0)"><g id="svga-group-nose-single" transform="matrix(1,0,0,1,0,0)"><path id="SvgjsPath34603" d="M101.9 106.4c-.5 1.3-1.1 2.6-2 3.7-.5.6-1.5 1.5-2.4 1.4s-.6-1.3-.6-2c-.1-3.2-.1-6.5 0-9.7.1-6.4.4-12.7 1-19.1.1-.7-1-.7-1.1 0-.9 10.3-1.2 20.7-.9 31 0 .2.1.4.3.5 3.5 1.6 5.5-2.7 6.6-5.2.2-.7-.7-1.2-.9-.6z" fill="#000000" stroke-width="none" opacity="1"></path><path id="SvgjsPath34604" d="M103.9 105.6c.3-.7 1.1-1.1 1.8-.6.5.4 1.3-.3.7-.7-1.2-.9-2.8-.6-3.5.8-.2.6.7 1.2 1 .5z" fill="#000000" stroke-width="none" opacity="1"></path><path id="SvgjsPath34605" d="M93.2 105.1c.5-.2 1.1 0 1.3.5.3.6 1.2.1.9-.5-.4-.9-1.6-1.4-2.5-1-.6.3-.3 1.3.3 1z" fill="#000000" stroke-width="none" opacity="1"></path></g></g><g id="svga-group-hair-front" transform="matrix(1,0,0,1,0,0)"><path id="SvgjsPath34697" d="M72.8 175.65c-.4 0-.78-.24-.93-.63-2.34-5.94-5.52-13.97-7.5-18.84-.06 5.57-.14 14.06-.15 14.58 0 .48-.35.89-.83.97-.06.01-.12.01-.17.01-.41 0-.79-.25-.94-.65-7.72-20.72-8.07-93.15-4.54-110.79 3.37-16.85 11.65-26.73 26.84-32.02 4-1.39 8.87-2.1 14.49-2.1 10.15 0 21.61 2.46 26.65 5.72 6.88 4.45 12.29 10.78 14.47 16.92 2.08 5.85 4.17 13.05 3.97 22.05-.09 4.14.12 15.37.32 26.23.22 11.63.44 23.65.3 27.15-.84 20.11-3.33 46.51-3.36 46.78-.05.5-.45.88-.95.9h-.05c-.48 0-.89-.34-.98-.81-.87-4.58-1.67-13.4-2.22-20.44-1.63 11.55-3.8 23.03-3.83 23.18-.09.48-.51.81-.98.81-.04 0-.08 0-.12-.01a1 1 0 0 1-.88-1.05c.34-6.13.46-11.51.48-15.6-2.32 8.13-5.6 16.53-5.78 17a.995.995 0 0 1-1.2.59c-.49-.14-.8-.63-.72-1.13.03-.19 3.33-19.98 5.07-60.86.97-22.87.44-37.13-.21-45.27-.92 5.77-2.25 9.98-2.33 10.23-.13.42-.52.69-.95.69h-.09a1 1 0 0 1-.9-.87c-.49-3.95-2.7-11.05-4.2-15.56-.89 6.03-2.37 11.86-2.44 12.17-.11.44-.51.75-.97.75h-.06a.993.993 0 0 1-.93-.86c-.53-3.96-1.79-9.63-2.81-13.89-.78 6.48-2.18 13.2-2.26 13.57-.1.47-.51.79-.98.79h-.05c-.49-.03-.89-.41-.94-.9l-1.78-17.52c-1.45 9.31-3.93 20.15-4.07 20.77-.11.46-.51.78-.97.78-.04 0-.08 0-.11-.01a.996.996 0 0 1-.89-.99c0-7.77-.81-16.3-1.6-22.8l-.68 15.63c-.02.51-.43.93-.94.96h-.05c-.49 0-.91-.36-.99-.85l-1.49-9.7-1.14 18.66c-.03.49-.4.88-.89.93-.04 0-.07.01-.11.01-.44 0-.84-.29-.96-.72-1.29-4.46-2.64-19.1-3.38-28.26-1.43 9.7-3.01 24.64-3.03 24.84-.05.5-.47.89-.98.9h-.01c-.5 0-.93-.37-.99-.87l-1.42-10.71-.88 4.45c-.09.47-.51.81-.98.81h-.04c-.49-.02-.9-.4-.95-.89-.41-3.68-.58-8.63-.66-12.8-1.72 7.02-3.39 13.95-3.5 14.65-.04.51-.47.93-1 .93-.94 0-.96-.22-1.16-2.94-.09-1.21-.34-4.77-.34-4.77-1.29 6.42-2.73 18.2-1.26 35.47 2.36 27.77 10.99 62.49 11.08 62.84a.994.994 0 0 1-.97 1.24c-.42 0-.81-.26-.95-.68l-4.39-13.04 1.64 19.29c.04.52-.32.98-.83 1.07-.06.01-.11.01-.17.01-.45 0-.85-.3-.97-.75l-5.42-20.92c1.15 10.96 2.86 24.84 2.88 25.04.06.5-.26.97-.75 1.09-.08.03-.16.04-.24.04z" fill="#ffffff" stroke-width="none" opacity="1"></path><path id="SvgjsPath34698" d="M99.08 27.18c10.62 0 21.6 2.65 26.11 5.56 6.65 4.3 11.92 10.36 14.07 16.42 2.15 6.06 4.1 13.1 3.91 21.7-.2 8.6.9 46.64.62 53.35-.85 20.32-3.35 46.73-3.35 46.73-1.56-8.21-2.93-30.69-2.93-30.69-1.37 13.88-5.08 33.43-5.08 33.43.78-13.88.39-23.85.39-23.85-1.56 9.38-7.62 24.82-7.62 24.82s3.32-19.55 5.08-60.99c1.76-41.44-1.35-54.56-1.35-54.56-.2 9.97-3.15 19.18-3.15 19.18-.78-6.26-5.67-19.94-5.67-19.94-.59 7.23-2.93 16.42-2.93 16.42-.98-7.23-4.3-19.94-4.3-19.94-.2 7.43-2.74 19.55-2.74 19.55L107.4 47.4c-.2 8.8-5.08 30.1-5.08 30.1 0-15.44-3.13-33.62-3.13-33.62l-1.15 26.4-2.9-18.95-1.71 28c-1.88-6.49-3.93-35.69-3.93-35.69-1.54 4.95-4.44 32.44-4.44 32.44l-2.22-16.73-2.05 10.42c-.85-7.68-.68-20.83-.68-20.83s-5.46 22.2-5.46 22.71v.01c-.03 0-.93-12.87-.93-12.87s-5.22 13.54-2.83 41.71c2.39 28.17 11.1 63 11.1 63l-7.04-20.92 2.35 27.56-8.41-32.45c.2 6.84 3.91 36.94 3.91 36.94s-9.16-23.27-9.38-23.27v.01c0 .59-.2 19.35-.2 19.35-7.43-19.94-8.21-91.67-4.5-110.24C62.43 41.91 72.01 33.7 84.91 29.2c4.16-1.43 9.12-2.03 14.17-2.02m0-2c-5.73 0-10.71.72-14.82 2.16-15.57 5.43-24.05 15.53-27.5 32.77-1.86 9.31-2.65 31.44-1.97 55.06.37 12.62 1.74 43.35 6.55 56.28a2.006 2.006 0 0 0 2.22 1.27 2.01 2.01 0 0 0 1.66-1.95c0-.38.05-4.94.1-9.55 1.83 4.57 3.99 10.03 5.62 14.17a2.01 2.01 0 0 0 2.35 1.21c.98-.25 1.62-1.18 1.49-2.18-.01-.12-.61-4.92-1.32-11.08l1.9 7.33c.23.89 1.04 1.5 1.93 1.5a2.013 2.013 0 0 0 2-2.17l-.94-11.01 1.74 5.17c.28.83 1.06 1.36 1.89 1.36a1.997 1.997 0 0 0 1.94-2.48c-.09-.35-8.7-35-11.05-62.68-1-11.77-.64-20.96.09-27.62.34.63.9.95 1.67.95 1.03 0 1.88-.79 1.99-1.79.1-.57.81-3.55 1.75-7.42.1 1.97.24 3.87.43 5.54.11.98.92 1.74 1.9 1.78h.08c.63 0 1.21-.3 1.58-.77l.71 5.35c.13 1 .98 1.74 1.98 1.74h.03a1.99 1.99 0 0 0 1.96-1.79c.37-3.5 1.07-9.75 1.83-15.85.74 7.87 1.69 16.22 2.63 19.44.25.86 1.04 1.44 1.92 1.44.07 0 .15 0 .22-.01a2 2 0 0 0 1.78-1.87l.57-9.32.07.45a2 2 0 0 0 1.98 1.7h.11c1.03-.06 1.84-.88 1.89-1.91l.04-.88c.15 2.69.25 5.39.25 8.01 0 1.02.76 1.87 1.78 1.99.08.01.15.01.23.01.92 0 1.74-.64 1.95-1.55.11-.47 1.52-6.65 2.84-13.66l1.04 10.28c.1.98.9 1.74 1.88 1.8h.11c.94 0 1.76-.66 1.96-1.59.06-.27.8-3.85 1.51-8.28.65 3.01 1.26 6.1 1.59 8.53.13.95.91 1.67 1.87 1.73h.12c.91 0 1.71-.62 1.94-1.51.06-.24.96-3.79 1.78-8.2 1.25 4.01 2.54 8.6 2.9 11.47.12.93.86 1.66 1.8 1.74.06.01.12.01.19.01.86 0 1.64-.56 1.9-1.39.04-.13.39-1.22.84-2.99.37 8.47.48 20.69-.24 37.67-1.73 40.8-5.02 60.54-5.06 60.74a1.998 1.998 0 0 0 1.98 2.33c.8 0 1.55-.49 1.86-1.27.13-.34 1.89-4.84 3.74-10.39-.07 2.62-.19 5.51-.36 8.57-.06 1.05.71 1.97 1.75 2.1.08.01.16.02.25.02.95 0 1.78-.67 1.96-1.63.02-.11 1.26-6.67 2.57-14.85.45 4.71.97 9.24 1.51 12.11a2 2 0 0 0 1.96 1.63h.09c.99-.05 1.8-.82 1.9-1.81.03-.26 2.52-26.69 3.36-46.83.15-3.52-.07-15.02-.3-27.19-.2-10.86-.41-22.08-.32-26.2.21-9.17-1.92-16.47-4.02-22.41-2.29-6.44-7.71-12.79-14.87-17.43-5.23-3.38-16.92-5.9-27.24-5.9z" fill="#000000" stroke-width="none" opacity="1"></path></g><g id="svga-group-glasses-single-move" transform="matrix(1,0,0,1,0,0)"><g id="svga-group-glasses-single" transform="matrix(1,0,0,1,0,0)"></g></g></g></g></g><rect id="svga-credit-rect" width="200" height="15" x="0" y="185" fill="#ecf0f1" opacity="0.5" style="display: none;"></rect><text id="svga-credit-text" font-family="Avenir Next, Roboto, Helvetica, Arial, sans-serif" font-size="10px" text-anchor="start" font-weight="400" size="10px" anchor="start" weight="400" fill="#333333" x="33.402061462402344" y="182.71133995056152" style="display: none;"><tspan id="SvgjsTspan34091" dy="13" x="33.402061462402344">Created on AvatarMaker.com</tspan></text></g></svg>