<svg xmlns="http://www.w3.org/2000/svg" version="1.1" width="600px" height="600px" viewBox="0 0 200 200" style="overflow:hidden!important;"><defs id="SvgjsDefs24655"></defs><g id="svga-group-wrapper"><g id="svga-group-backs-single"></g><g id="svga-group-humanwrap-move" transform="matrix(1,0,0,1,0,0)"><g id="svga-group-humanwrap" transform="matrix(1,0,0,1,0,0)"><g id="svga-group-hair-back-move" transform="matrix(1,0,0,1,0,0)"><g id="svga-group-hair-back" transform="matrix(1,0,0,1,0,0)"><path id="SvgjsPath25386" d="M143.6 74.9c-1-11.1-5.9-25.7-5.9-25.7C100.9 28.3 57.4 68 57.4 68s-1.4 28.8-3.5 41.7 1.4 24.3 1.4 24.3c-1.9 2.9-.4 8.4 1.1 12.3 9-1.2 17.1-.3 24.2 1.6.8 2.5 1.7 5.6 1.8 8.5.1 2.1 0 4.5-.1 6.7.1-.1.1-.2.1-.2s7.8-3.9 14.9-8.3c2.8-1.8 5.6-3.6 7.6-5.2 7.3-5.9 13.2-6.3 24.7-20.2 11.5-14 15-43.2 14-54.3z" fill="#ffffff" stroke-width="none" opacity="1"></path><path id="SvgjsPath25387" d="M92.1 149.9c-1.5-.1-3-.1-4.5 0-1.7.1-3.3.4-5 .8l-.3-1.2c.8-.2 1.7-.4 2.5-.5 2.4-.4 4.8-.5 7.3-.3.8.1.8 1.3 0 1.2zm24.5-13.9c-8.3 5.5-17.2 10.3-26 15.1-2.4 1.3-4.8 2.6-7.2 4l.1 1.3c2.8-1.6 5.6-3.2 8.4-4.7 4.2-2.4 8.4-4.8 12.7-7.2 5.7-3.2 11.6-6.3 16.7-10.4 9.4-7.5 14.2-18.9 13.3-30.9-.1-.8-1.3-.8-1.2 0 1 13.7-5.6 25.3-16.8 32.8zm-25.5 6.6c.8.1 1.1-1.1.3-1.2-4-.7-7.9 0-11.3 2.2-.3-.8-.7-1.6-1.1-2.4 1.8-3.3 5.1-5.4 8.8-5.6.8 0 .8-1.3 0-1.2-3.9.2-7.4 2.3-9.5 5.5-.7-1.4-1.4-2.8-2.2-4.3v-.1c0-3.6 1.6-6.8 4.6-8.8.7-.4 0-1.5-.6-1.1-2.8 1.9-4.6 4.7-5.1 7.9-.6-1.2-1.2-2.5-1.8-3.7 0-.1.1-.2.1-.3.1-4.2 1.3-8.1 3.7-11.6.5-.7-.6-1.3-1.1-.6-2.1 3.1-3.4 6.6-3.8 10.3-3.1-6.9-5-14.1-2.6-22 .2-.8-1-1.1-1.2-.3-3.4 11.1 1.6 20.6 6.6 30.1 0 .2.1.4.3.5 2 3.9 4 7.8 5.3 11.8l1.2.3-1.2-3.3c3.2-2 6.8-2.8 10.6-2.1zm39.8-12.8c-7.9 9.6-13.4 12.9-18.2 15.8-2.2 1.4-4.4 2.6-6.6 4.5-2 1.6-4.6 3.4-7.3 5-6.5 4-13.6 7.7-15.2 8.5-.3.6-.9 1.9-1.7 3.6.9-2.7 1.4-5.7 1.4-5.7 2.2-1.1 8-4.2 13.5-7.5 3-1.8 5.9-3.7 8-5.5 2.4-1.9 4.5-3.2 6.8-4.6 4.9-3 10-6 17.7-15.4 11-13.3 14.8-41.9 13.7-53.5-.9-9.9-5-22.8-5.7-25.1C103.2 31 62.8 65.1 58.9 68.5c-.2 3.5-1.5 28.2-3.3 40.5-.3 4.9.3 10.2 1.8 15.2.1.1.1.3.1.5 1.5 4.6 3.7 9 6.7 12.4.9 1 1.8 1.9 2.8 2.8.4-.1.9.3.8.7 2.4 2 5 3.9 7.1 6.2-.6-.1-1.2-.2-1.7-.3l-.9-.9-.1.1c-.3.2-.7.4-1 .6-.6-.1-1.3-.1-2-.2.7-.5 1.4-1 2.1-1.4-1.3-1.2-2.7-2.3-4.1-3.5-1.5 1.4-2.6 3-3.5 4.7h-1.4c.9-2.1 2.2-4 3.9-5.6-1.1-1-2.2-1.9-3.2-3-1.9 2.6-3 5.6-3.2 8.7-.4 0-.8.1-1.2.1.2-3.4 1.4-6.7 3.5-9.6 0-.1.1-.1.1-.1-.7-.8-1.3-1.6-1.9-2.5-1.7 3.8-2.6 7.9-2.7 12.1 0 .1.1.2.1.2l-2.1.3c-1.5-4-2.8-9.3-1.1-12.6-.6-2.2-3.2-12.6-1.3-24.4 2-12.6 3.5-41.3 3.5-41.6s.1-.5.3-.7c.4-.4 44.4-39.9 81.4-18.9.2.1.4.3.5.5 0 .2 4.9 14.8 6 25.9 1.3 12-2.6 41.4-14 55.1zm-71.6 2.6c-1.3.3-2.3 1.3-2.7 2.6 0 .2-.2.3-.3.4-.7 1.9-.3 4.7.5 7.5.4-3.5 1.4-6.8 2.9-10 0-.1.1-.1.1-.2l-.1-.1c0-.1-.1-.2-.2-.3 0 0-.1 0-.2.1zm-3.4-2.2c.2 1 .4 1.9.5 2.5.6-.7 1.5-1.2 2.5-1.5h.1c-.4-.8-.7-1.5-1.1-2.3-.8-.1-1.6.4-2 1.3zm.6-5.1c-.5-.1-1 .2-1.1.8 0 .1-.1.2-.1.3l.3 2.4c.5-.5 1.2-.8 1.8-.9-.3-.9-.6-1.7-.9-2.6zm-1.7-7.2c0 2.3.1 4.4.3 6.3.3-.2.7-.4 1.1-.4-.7-1.9-1.1-3.9-1.4-5.9zm4.4-7.6c.5.7 1.2 1.3 1.9 1.9.6.5 1.3-.6.6-1.1-1.1-.9-2-2-2.6-3.3 0-.6.1-1.3.2-1.9.8 1.3 1.8 2.4 3.2 3.1.7.4 1.3-.7.6-1.1-1.4-.8-2.5-2-3.2-3.5-.1-.2-.2-.3-.3-.3.4-2.1 1.2-4.1 2.3-6.2.4-.7-.7-1.3-1.1-.6-9.9 18.1 5.8 33.1 14.2 49.3.6.1 1.2.2 1.7.3-1.6-3.2-3.5-6.3-5.4-9.4-5.2-8-11.5-17.5-12.1-27.2zm2.6-6c.6 1 1.5 1.8 2.6 2.2.8.3 1.1-.9.3-1.2-.8-.3-1.5-.9-1.9-1.6-.3-.7-1.4-.1-1 .6z" fill="#000000" stroke-width="none" opacity="1"></path></g></g><g id="svga-group-humanbody-back"><path id="SvgjsPath24913" d="M86.5 122c0 18.8 2.7 50.3-8.1 58s-31.8 13.9-36.7 24.4-3.6 14.4-3.6 14.4h124.1s.6-8.1-4.2-15.4c-6.6-10.1-28.5-17.7-36.5-22.9-8.1-5.2-10.9-32.2-10.9-58.8l-24.1.3z" fill="#ffffff" stroke-width="none" opacity="1"></path></g><g id="svga-group-chinshadow-single"></g><g id="svga-group-humanbody-front"><path id="SvgjsPath24914" d="M163.4 220.1H37.2l-.3-.9c-.1-.5-1.3-4.7 3.6-15.3 3.4-7.3 13.6-12.4 23.5-17.4 5.1-2.5 9.9-5 13.6-7.5 8.6-6 8.1-29.8 7.7-47.1-.1-3.5-.1-6.8-.1-9.8v-1.3l26.7-.4v1.3c0 32 3.8 53.5 10.3 57.7 2.4 1.6 6 3.3 10.2 5.4 9.7 4.7 21.9 10.6 26.7 18 5 7.6 4.4 15.9 4.4 16.2l-.1 1.1zm-124.1-2.6h121.6c-.1-2.4-.6-8.2-4-13.4-4.4-6.7-16.2-12.5-25.6-17-4.3-2.1-8-3.9-10.5-5.5-9.8-6.3-11.4-38.8-11.5-58.6l-21.5.4c0 2.6.1 5.5.1 8.5.4 18.9.9 42.4-8.8 49.3-3.8 2.7-8.7 5.1-13.9 7.7-9.5 4.8-19.4 9.7-22.3 16.1-3.3 6.9-3.7 10.9-3.6 12.5z" fill="#000000" stroke-width="none" opacity="1"></path><path id="SvgjsPath24915" d="M76.8 188.7c4.8 2.3 10.4 3.9 15.7 2.9.4-.1.4-.7 0-.8-5.1-.9-10.2-1.4-15.2-3.2-.6-.2-1.1.8-.5 1.1z" fill="#000000" stroke-width="none" opacity="1"></path><path id="SvgjsPath24916" d="M108.3 191.1c2.4.3 4.9-.4 7.1-1.2 2.1-.8 4.3-1.7 5.8-3.4.5-.5-.1-1.2-.7-.9-2.1.9-3.9 2.3-6.1 3-2 .7-4.1 1-6.2 1.5-.6.1-.4.9.1 1z" fill="#000000" stroke-width="none" opacity="1"></path></g><g id="svga-group-clothes-single"><path id="SvgjsPath25261" d="M156.05 198.79s-23.03 2.08-57.59 2.27c-34.55.19-52.11-4.34-52.11-4.34s-5.48 4.72-7.93 7.55c-2.45 2.83-7.36 4.53-7.36 4.53s.57 4.91 3.4 4.53c2.83-.38 6.61-2.27 8.31-2.08 1.7.19.94 3.21 3.96 3.4s4.72-2.45 6.99-2.08c1.29.22 2.52 1.41 3.8 2.15l-.45 4.08h87.23v-2.9c.75-.43 1.49-.99 1.94-1.44.94-.94 3.96-.19 5.48.76s3.78-.94 5.29-2.83c1.51-1.89 5.48-.19 8.31-.57 2.83-.38 3.78-2.83 3.78-2.83-3.8-1.52-13.05-10.2-13.05-10.2z" fill="#ffffff" stroke-width="none" opacity="1"></path><path id="SvgjsPath25262" d="M169.44 208.05c-2.95-1.18-10.18-7.62-12.71-10-.21-.2-.49-.29-.77-.27-.23.02-23.39 2.08-57.5 2.26-33.98.21-51.68-4.26-51.85-4.31-.32-.08-.65 0-.9.21-.23.2-5.56 4.8-8.03 7.65-2.25 2.59-6.89 4.23-6.94 4.24-.44.15-.72.59-.67 1.06.04.35.44 3.41 2.19 4.78.68.53 1.48.75 2.33.63 1.4-.19 2.94-.69 4.42-1.18 1.45-.48 2.96-.97 3.65-.89.13.01.24.17.52.77.44.93 1.17 2.48 3.49 2.63 1.85.12 3.27-.66 4.42-1.29.95-.52 1.71-.93 2.46-.8.65.11 1.39.63 2.17 1.18.23.16.48.33.73.5l-.38 3.46c-.03.28.06.57.25.78s.46.33.75.33h87.23c.55 0 1-.45 1-1v-2.34c.76-.5 1.39-1.03 1.65-1.3.38-.38 2.75-.03 4.24.9.29.18.6.28.92.33a1.004 1.004 0 0 0 1.19.1c.07-.04.12-.11.18-.17 1.34-.36 2.84-1.49 4.31-3.33.6-.75 2.31-.55 3.97-.35 1.24.15 2.51.31 3.69.15 3.38-.45 4.53-3.34 4.58-3.46.17-.49-.08-1.07-.59-1.27zm-111.08 8.12c.82.23 1.69.24 2.63-.27l.69-.37c1.94-1.05 2.64-1.41 3.35-1.1.2.08.56.58.83.93.82 1.11 2.2 2.96 4.68 1.9 1.06-.46 1.74-.89 2.23-1.21.76-.49.92-.59 1.71-.43.55.11.97.38 1.44.7.85.56 1.91 1.26 3.71.8.88-.22 1.75-.7 2.59-1.16.86-.48 1.55-.83 2.11-.97.08.02.16.05.24.05.15 0 .29-.04.41-.09.2.03.37.11.53.25 2.18 1.96 6.03 2.86 7.64 1.79.18-.12.37-.25.57-.4.78-.56 1.97-1.4 2.53-1.08 1.75 1 4.51 1.69 6.53.34 1.3-.87 2.27-.75 3.46.44.82.82 1.9 1.24 3.03 1.16 1.34-.08 2.64-.82 3.57-2.01.05-.06.18-.23.63-.26 1.32-.1 3.5 1.14 4.35 1.99.34.34.76.53 1.23.62H58.17l.19-1.62zm71.37.73c0 .01.01.01.01.01.01.01.02.03.03.04.33.46.7.71 1.03.85h-10.38c1.57-.23 3.46-1.12 5.22-2.03l.45-.23c1.08-.53 2.81.11 3.64 1.36zm13.55.9h-10.77c.77-.26 1.5-.8 2.18-1.29.33-.25.65-.48.89-.62.52-.25 3.03.25 6.17 1.51.46.18.99.16 1.53.01v.39zm21.89-6.98c-.92.12-2.07-.02-3.18-.15-2.2-.27-4.47-.54-5.77 1.08-1.08 1.35-2.23 2.29-3.07 2.59-1.12-1.84-3.93-6.48-4.93-8.59a.994.994 0 0 0-1.33-.48c-.5.23-.71.83-.48 1.33.78 1.65 2.55 4.67 3.87 6.88-1.7-.55-3.74-.75-4.75.27-.94.94-2.61 1.87-3.03 1.8-2.77-1.11-6.4-2.25-7.9-1.39-.35.2-.71.46-1.09.74-.54.4-1.54 1.13-1.94 1.06a.305.305 0 0 1-.1-.07c-.34-1.16-2.46-8.33-2.74-10.17a.998.998 0 0 0-1.14-.84c-.55.08-.92.59-.84 1.14.21 1.33 1.23 5.01 1.99 7.67-.57-.22-1.17-.34-1.76-.34-.62 0-1.23.13-1.78.4l-.47.24c-4.33 2.22-5.29 1.98-5.49 1.78-1.16-1.16-3.85-2.69-5.89-2.58-.88.05-1.6.41-2.08 1.03-.57.73-1.36 1.19-2.12 1.24-.55.04-1.07-.16-1.49-.58-.72-.72-1.47-1.19-2.24-1.42l-.6-7.83a.997.997 0 1 0-1.99.15l.59 7.63c-.57.14-1.15.39-1.74.78-1.35.9-3.49.12-4.42-.41-1.68-.96-3.49.33-4.69 1.18-.18.13-.36.25-.52.36-.61.41-3.52-.1-5.2-1.61-.41-.37-.84-.59-1.28-.7.01-2.01.04-6.41.16-8.21a.99.99 0 0 0-.93-1.06c-.54-.02-1.03.38-1.06.93-.13 1.91-.15 6.49-.16 8.45-.81.25-1.6.69-2.32 1.08-.73.4-1.48.82-2.11.98-.95.24-1.4-.05-2.13-.54-.54-.36-1.22-.8-2.15-.98-1.58-.32-2.32.16-3.18.71-.46.3-1.03.66-1.94 1.05-.89.38-1.31.06-2.29-1.25-.31-.42-.63-.83-1.01-1.16.09-1.36.38-5.02 1.12-7.86a.996.996 0 0 0-.72-1.22.997.997 0 0 0-1.22.71c-.71 2.71-1.02 5.99-1.15 7.68-1.13.01-2.27.62-3.78 1.44l-.68.37c-.91.49-1.8-.08-3.16-1.04-.93-.66-1.89-1.33-2.99-1.52-1.44-.24-2.61.4-3.75 1.02-1.06.58-2.07 1.12-3.34 1.05-1.14-.07-1.41-.63-1.81-1.48-.16-.35-.36-.75-.64-1.1 1.37-1.46 4.04-4.53 5.84-8.12a.993.993 0 0 0-.45-1.34.988.988 0 0 0-1.34.45c-1.94 3.89-5.09 7.24-6.03 8.2-1.07.04-2.43.49-3.97.99-1.4.46-2.84.94-4.06 1.1-.32.04-.58-.03-.83-.22-.69-.53-1.1-1.79-1.3-2.68 1.55-.63 4.98-2.2 6.99-4.51 2.01-2.32 6.16-5.99 7.44-7.12 3.17.73 20.81 4.42 51.85 4.25 31.6-.17 53.84-1.95 57.22-2.23 1.56 1.45 8.14 7.46 11.97 9.58-.44.56-1.23 1.24-2.49 1.41z" fill="#000000" stroke-width="none" opacity="1"></path></g><g id="svga-group-head" transform="matrix(1,0,0,1,0,0)"><g id="svga-group-ears-left-move" transform="matrix(1,0,0,1,0,0)"><g id="svga-group-ears-left" transform="matrix(1,0,0,1,0,0)"><path id="SvgjsPath25148" d="M66.8 82.4s-3.6-5.4-5.6-7.8-4.7-5-6.3-1.1c-1.6 3.9-2.5 11.6-1.6 16.9s6.8 11 9.6 11.2c2.8.2 5.7-7.6 5.9-10.3.3-2.8-.6-6.9-2-8.9z" fill="#ffffff" stroke-width="none" opacity="1"></path><path id="SvgjsPath25149" d="M52.2 90.4c-1-5.5.1-13.3 1.6-17.2.2-.6 1-2.4 2.9-2.6 2.1-.2 3.9 1.6 5.5 3.5 2.1 2.4 5.5 7.7 5.7 7.9 1.4 2.1 2.4 6.4 2.1 9.3-.2 2.4-2.4 8.8-5.2 10.6-.6.4-1.3.6-2 .5-3.6-.3-9.7-6.4-10.6-12zm8-15.4c-2.3-2.7-3.1-2.7-3.2-2.7-.1 0-.5.3-1 1.4-1.5 3.7-2.5 11.3-1.6 16.5.9 5.3 6.7 10.3 8.5 10.5 1.4-.2 4.4-6.1 4.7-9.5.2-2.6-.7-6.6-1.9-8.5 0 0-3.5-5.4-5.5-7.7z" fill="#000000" stroke-width="none" opacity="1"></path><path id="SvgjsPath25150" d="M57.9 78c2 1.3 3.6 3.5 4.3 6 0 .2-.2.2-.2.1 0 0 0-.1-.1-.1-.6-.5-1.2-1.1-1.9-1.1-1.1 0-1.1 1.4-.8 2.5.4 1.5 1.1 2.9 1.9 4.2.1.2-.1.3-.2.2-1.2-1.5-3-4.6-2.4-6.6.5-1.7 2-.9 3.1.1-.6-1.3-1.4-2.5-2.4-3.5-1.3-1.3-4.1-3.4-4.9-.9 0 .1-.2.1-.2-.1.1-2.5 2.6-1.7 3.8-.8z" fill="#000000" stroke-width="none" opacity="1"></path><path id="SvgjsPath25151" d="M61.7 92.6c1 2.5-1.2 3-2.5 1.9-2.1-1.7-3.5-5.5-3.5-8.4 0-.2.2-.2.2 0 .2 1.7.5 3.3 1.2 4.8.4.9 1 1.9 1.6 2.7.4.5.9.9 1.5 1.1 1.2 0 1.6-.7 1.3-2 0-.1.1-.2.2-.1z" fill="#000000" stroke-width="none" opacity="1"></path></g></g><g id="svga-group-ears-right-move" transform="matrix(1,0,0,1,0,0)"><g id="svga-group-ears-right" transform="matrix(1,0,0,1,0,0)"><path id="SvgjsPath25152" d="M133.2 82.4s3.6-5.4 5.6-7.8 4.7-5 6.3-1.1c1.6 3.9 2.5 11.6 1.6 16.9-.9 5.3-6.8 11-9.6 11.2-2.8.2-5.7-7.6-5.9-10.3-.3-2.8.6-6.9 2-8.9z" fill="#ffffff" stroke-width="none" opacity="1"></path><path id="SvgjsPath25153" d="M137.2 102.4c-.7 0-1.4-.1-2-.5-2.8-1.7-5-8.2-5.2-10.6-.3-2.9.7-7.1 2.1-9.3.1-.2 3.6-5.5 5.7-7.9 1.6-1.9 3.4-3.7 5.5-3.5 2 .2 2.7 2 2.9 2.6 1.6 3.9 2.6 11.8 1.6 17.2-.9 5.6-7 11.7-10.6 12zm-3-19.7c-1.2 1.9-2.1 5.8-1.9 8.5.3 3.4 3.2 9.4 4.7 9.5 1.9-.1 7.6-5.2 8.5-10.5.9-5.3-.1-12.8-1.6-16.5-.4-1.1-.9-1.4-1-1.4-.1 0-.9 0-3.2 2.7-1.9 2.3-5.4 7.7-5.5 7.7z" fill="#000000" stroke-width="none" opacity="1"></path><path id="SvgjsPath25154" d="M142.1 78c-2 1.3-3.6 3.5-4.3 6 0 .2.2.2.2.1 0 0 0-.1.1-.1.6-.5 1.2-1.1 1.9-1.1 1.1 0 1.1 1.4.8 2.5-.4 1.5-1.1 2.9-1.9 4.2-.1.2.1.3.2.2 1.2-1.5 3-4.6 2.4-6.6-.5-1.7-2-.9-3.1.1.6-1.3 1.4-2.5 2.4-3.5 1.3-1.3 4.1-3.4 4.9-.9 0 .1.2.1.2-.1-.1-2.5-2.6-1.7-3.8-.8z" fill="#000000" stroke-width="none" opacity="1"></path><path id="SvgjsPath25155" d="M138.3 92.6c-1 2.5 1.2 3 2.5 1.9 2.1-1.7 3.5-5.5 3.5-8.4 0-.2-.2-.2-.2 0-.2 1.7-.5 3.3-1.2 4.8-.4.9-1 1.9-1.6 2.7-.4.5-.9.9-1.5 1.1-1.2 0-1.6-.7-1.3-2 0-.1-.1-.2-.2-.1z" fill="#000000" stroke-width="none" opacity="1"></path></g></g><g id="svga-group-faceshape-wrap" transform="matrix(1,0,0,1,0,0)"><g id="svga-group-faceshape-single"><path id="SvgjsPath25135" d="M138.2 58.2c-2-10.8-13.3-27.4-37.2-27.4S69.1 43.5 65.5 53c-3 8.1-3 21.3-3 21.3s-.1 33.5 2.1 40.5 12.7 18.4 16.7 21.5c4 3.1 27.7 3.1 32.5 2.6 4.8-.4 21.1-17.1 22.4-22.4 1.3-5.3 3.2-42.3 3.2-42.3s.2-8.3-1.2-16z" fill="#ffffff" stroke-width="none" opacity="1"></path><path id="SvgjsPath25136" d="M105.9 140.5c-8.9 0-22.1-.5-25.4-3.1-4.1-3.2-14.9-14.9-17.1-22.2-2.2-7.1-2.2-39.5-2.2-40.9 0-.5 0-13.6 3.1-21.8 5.8-15.5 17.8-23 36.7-23 10.9 0 20.5 3.4 27.7 10 5.5 5 9.6 11.9 10.8 18.5 1.4 7.7 1.2 16 1.2 16.4-.1 1.5-1.9 37.2-3.2 42.6-1.4 5.5-18 22.9-23.5 23.4-1.1 0-4.2.1-8.1.1zM101 32.1c-17.7 0-28.9 7-34.3 21.3-2.9 7.8-2.9 20.8-2.9 20.9 0 .3-.1 33.4 2.1 40.1 2.1 6.7 12.4 17.9 16.3 20.9 3.3 2.5 25.5 2.9 31.6 2.4 1.5-.1 5.8-3 11.7-9 5.1-5.1 9-10.2 9.5-12.4 1-4.1 2.5-29.3 3.2-42 0-.1.2-8.4-1.2-15.8-1.1-6-4.8-12.4-10-17-6.7-6.2-15.7-9.4-26-9.4z" fill="#000000" stroke-width="none" opacity="1"></path></g></g><g id="svga-group-mouth-single-move" transform="matrix(1,0,0,1,0,0)"><g id="svga-group-mouth-single" transform="matrix(1,0,0,1,0,0)"><path id="SvgjsPath25214" d="M113.77 117.76c-.37.06-.74.14-1.11.21-2.95-1-5.96-1.67-9.06-2.03-.11-.01-.16.04-.2.12-1.14.59-2.28 1.18-3.43 1.78-1.21-.44-2.36-1-3.45-1.67-.12-.08-.24-.02-.3.07l-8.19 2.31c-.03.01-.03.03-.05.04-.44-.04-.88-.09-1.32-.12-.63-.04-.63.94 0 .98.52.03 1.03.08 1.55.14 3.7 3.09 7.35 7.51 12.61 7.33 5.19-.18 8.91-4.27 12.02-7.98.4-.08.79-.15 1.19-.22.62-.13.36-1.07-.26-.96zm-17.32-1.09c1.09.65 2.23 1.2 3.42 1.64.03.01.04-.01.07 0 .06.03.13.03.21-.01 1.19-.62 2.38-1.24 3.58-1.85 2.71.32 5.35.9 7.94 1.72-3.46.71-6.98 1.58-10.47 1.8-4.03.25-8-.73-11.99-1.25 2.41-.69 4.83-1.37 7.24-2.05zm4.37 9.75c-4.89.13-8.3-3.75-11.73-6.74 4.11.52 8.2 1.56 12.35 1.25 3.56-.27 7.12-1.14 10.64-1.85-2.92 3.46-6.46 7.21-11.26 7.34z" fill="#000000" stroke-width="none" opacity="1"></path></g></g><g id="svga-group-eyes-left-move" transform="matrix(1,0,0,1,0,0)"><g id="svga-group-eyes-left" transform="matrix(1,0,0,1,0,0)"><g id="svga-group-eyesback-left"></g><g id="svga-group-eyesiriswrapper-left"><g id="svga-group-eyesiriscontrol-left" transform="matrix(1,0,0,1,0,0)"><g id="svga-group-eyesiris-left" transform="matrix(1,0,0,1,0,0)"><path id="SvgjsPath25186" d="M85 84.8c-1-1.9-3.2-2.7-5.2-2-2.2.8-3.8 3-3.1 5.4.4 1.2 1.5 2.4 2.8 2.7.5.1 1 .1 1.5.1.5.1 1.1 0 1.7-.2 2.4-.9 3.5-3.7 2.3-6z" fill="#ffffff" stroke-width="none" opacity="1"></path><path id="SvgjsPath25187" d="M83.4 85.8c0-.1 0-.1-.1-.1-.6-1.1-2-1.5-3.1-1 .2.2.4.5.6.7.2.3.5 1 .1 1.2-.4.2-1 0-1.3-.2-.2-.1-.3-.3-.5-.5 0 .1-.1.1-.1.2-.1.2-.1.4-.1.6-.2.7 0 1.4.5 1.9.2.2.5.3.8.4.6.3 1.2.4 1.8.1-.1-.1-.2-.2-.2-.4 0-.3.2-.6.5-.7.3-.1.6 0 .7.2.3-.3.5-.7.6-1.1.2-.3.1-.9-.2-1.3zm-2 5.3H81c-.5 0-1 0-1.4-.1-1.3-.3-2.4-1.4-2.9-2.8-.8-2.5.9-4.8 3.1-5.5 2.1-.8 4.4.1 5.4 2 .6 1.1.7 2.5.2 3.7s-1.4 2.1-2.6 2.5c-.5.2-1 .2-1.4.2zm-.4-.3c.6.1 1.1 0 1.6-.2 1.1-.4 2-1.2 2.4-2.4.4-1.1.4-2.3-.2-3.4-.9-1.8-3.1-2.6-5-1.9-2.1.7-3.7 2.9-3 5.2.4 1.3 1.5 2.3 2.7 2.6.5.1 1 .1 1.5.1z" fill="#000000" stroke-width="none" opacity="1"></path></g></g></g><g id="svga-group-eyesfront-left"><path id="SvgjsPath25281" d="M81.02 74.43c-6.9 0-12.5 5.6-12.5 12.5s5.6 12.5 12.5 12.5 12.5-5.6 12.5-12.5-5.6-12.5-12.5-12.5zm6.92 16.9c-.4-.18-1.61.18-4.87.09s-6.62-.98-9.25-2.5c-2.64-1.52-3.31-5.23-3.31-5.23s3.71-.72 8.67-.54 7.65 1.92 8.54 3.4c.89 1.48 1.83 4.43 1.83 4.43-.05.57-1.21.53-1.61.35z" fill="#ffffff" stroke-width="none" opacity="1"></path><path id="SvgjsPath25282" d="M90.45 92.29c.37-1.74.34-3.67-.41-5.27-.09-.19-.39-.09-.38.1.04.89.08 1.74.08 2.59-.63-1.8-1.72-4.14-3.36-5.41-1.79-1.38-5.88-1.92-9.75-1.85a.507.507 0 0 0-.3-.17c-2.87-.49-3.07-1.83-3.07-1.84a.536.536 0 0 0-.58-.51c-.3.02-.53.27-.51.58 0 .07.1 1.24 1.69 2.11-.42.04-.84.09-1.23.15-3.29.01-4.07-1.65-4.11-1.72a.557.557 0 0 0-.71-.29c-.28.12-.41.43-.29.71.03.07.55 1.25 2.38 1.89l-.1.03-.13.06c-.07.04-1.77 1.13-3.67-.2a.546.546 0 1 0-.62.9c2.31 1.61 4.42.5 4.83.25.09-.03.18-.05.27-.08-.09.12-.13.27-.09.43.07.33 1.68 7.29 13.26 7.29 1.29 0 2.71-.09 4.27-.28.3-.04.51-.31.47-.61a.542.542 0 0 0-.61-.47c-14.42 1.79-16.26-5.83-16.33-6.16a.511.511 0 0 0-.31-.37c4.36-1.03 12.29-.75 14.6 1.03 2.53 1.95 3.65 7.15 3.67 7.21.02.1.08.19.15.26l-.03.22c-.09.49.62.7.76.21.06-.2.11-.4.15-.6 0-.07.01-.13.01-.19z" fill="#000000" stroke-width="none" opacity="1"></path></g></g></g><g id="svga-group-eyes-right-move" transform="matrix(1,0,0,1,0,0)"><g id="svga-group-eyes-right" transform="matrix(1,0,0,1,0,0)"><g id="svga-group-eyesback-right"></g><g id="svga-group-eyesiriswrapper-right"><g id="svga-group-eyesiriscontrol-right" transform="matrix(1,0,0,1,0,0)"><g id="svga-group-eyesiris-right" transform="matrix(1,0,0,1,0,0)"><path id="SvgjsPath25188" d="M123.4 84.8c-1-1.9-3.2-2.7-5.2-2-2.2.8-3.8 3-3.1 5.4.4 1.2 1.5 2.4 2.8 2.7.4.1.9.1 1.4.1.5.1 1.1 0 1.7-.2 2.5-.9 3.6-3.7 2.4-6z" fill="#ffffff" stroke-width="none" opacity="1"></path><path id="SvgjsPath25189" d="M121.8 85.8c0-.1 0-.1-.1-.1-.6-1.1-2-1.5-3.1-1 .2.2.4.5.6.7.2.3.5 1 .1 1.2-.4.2-1 0-1.3-.2-.2-.1-.3-.3-.5-.5 0 .1-.1.1-.1.2-.1.2-.1.4-.1.6-.2.7 0 1.4.5 1.9.2.2.5.3.8.4.6.3 1.2.4 1.8.1-.1-.1-.2-.2-.2-.4 0-.3.2-.6.5-.7.3-.1.6 0 .7.2.3-.3.5-.7.6-1.1.2-.3 0-.9-.2-1.3zm-2.1 5.3h-.4c-.5 0-1 0-1.4-.1-1.3-.3-2.4-1.4-2.9-2.8-.8-2.5.9-4.8 3.1-5.5 2.1-.8 4.4.1 5.4 2 .6 1.1.7 2.5.2 3.7s-1.4 2.1-2.6 2.5c-.5.2-.9.2-1.4.2zm-.3-.3c.6.1 1.1 0 1.6-.2 1.1-.4 2-1.2 2.4-2.4.4-1.1.4-2.3-.2-3.4-.9-1.8-3.1-2.6-5-1.9-2.1.7-3.7 2.9-3 5.2.4 1.3 1.5 2.3 2.7 2.6.5.1 1 .1 1.5.1z" fill="#000000" stroke-width="none" opacity="1"></path></g></g></g><g id="svga-group-eyesfront-right"><path id="SvgjsPath25283" d="M118.98 74.43c-6.9 0-12.5 5.6-12.5 12.5s5.6 12.5 12.5 12.5 12.5-5.6 12.5-12.5-5.59-12.5-12.5-12.5zm6.93 14.74c-2.64 1.52-5.99 2.41-9.25 2.5s-4.47-.27-4.87-.09c-.4.18-1.56.22-1.61-.36 0 0 .94-2.95 1.83-4.43s3.58-3.22 8.54-3.4c4.96-.18 8.67.54 8.67.54s-.67 3.72-3.31 5.24z" fill="#ffffff" stroke-width="none" opacity="1"></path><path id="SvgjsPath25286" d="M134.5 83.64a.546.546 0 0 0-.76-.14c-1.9 1.32-3.6.24-3.67.2l-.13-.06-.1-.03c1.82-.64 2.35-1.82 2.38-1.89a.553.553 0 0 0-.29-.71.536.536 0 0 0-.71.29c-.03.07-.81 1.73-4.11 1.72-.4-.06-.81-.11-1.23-.15 1.59-.87 1.69-2.05 1.69-2.11.02-.3-.21-.56-.51-.58a.536.536 0 0 0-.58.51c0 .01-.2 1.35-3.07 1.84-.12.02-.22.09-.3.17-3.87-.07-7.96.47-9.75 1.85-2.84 2.19-4.02 7.61-4.07 7.84-.06.3.13.58.42.65a.545.545 0 0 0 .64-.42c.01-.05 1.14-5.26 3.67-7.21 2.31-1.78 10.24-2.06 14.6-1.03-.15.07-.28.2-.31.37-.07.33-1.91 7.95-16.33 6.16a.55.55 0 0 0-.61.47c-.04.3.18.57.47.61 1.56.19 2.98.28 4.27.28 11.58 0 13.19-6.96 13.26-7.29a.577.577 0 0 0-.09-.43c.09.03.18.05.27.08.41.25 2.52 1.36 4.83-.25.23-.15.29-.49.12-.74z" fill="#000000" stroke-width="none" opacity="1"></path></g></g></g><g id="svga-group-facehighlight-single"></g><g id="svga-group-eyebrows-left-move" transform="matrix(1,0,0,1,0,0)"><g id="svga-group-eyebrows-left-rotate" transform="matrix(1,0,0,1,0,0)"><g id="svga-group-eyebrows-left" transform="matrix(1,0,0,1,0,0)"><path id="SvgjsPath25239" d="M91.32 71.42c-.19 1.6-1.13 4.23-2.63 4.89-1.5.66-8.46 1.69-13.35 1.32-4.89-.38-8.08-2.26-7.89-2.73.19-.47 5.92-.19 8.46-.66S87 72.27 89.16 71.33c2.16-.94 2.16.09 2.16.09z" fill="#ffffff" stroke-width="none" opacity="1"></path><path id="SvgjsPath25240" d="M67.08 75.33c.5.81 3.68 2.43 8.23 2.78.75.06 1.54.08 2.34.08 4.65 0 9.91-.86 11.23-1.44 1.76-.77 2.72-3.64 2.92-5.27v-.06a.94.94 0 0 0-.44-.77c-.5-.33-1.28-.25-2.4.24-1.9.83-9.15 2.15-12.24 2.72l-.91.17c-1.19.22-3.13.27-4.84.32-3.19.08-3.77.14-3.97.64-.04.09-.09.32.08.59zm3.92-.28c.18 0 .37-.01.55-.01l1.9 1.87c-.51-.09-1-.19-1.46-.3-.01-.01 0-.01-.01-.02l-1.88-1.51c.31-.02.61-.02.9-.03zm7.66 2.16-1.57-2.7c.37-.07.78-.14 1.23-.22l1.18 2.89c-.28.02-.56.03-.84.03zm6.61-.61c-.27.04-.56.09-.85.13l-.31-3.57c.49-.1.96-.21 1.42-.31l-.26 3.75zm.91-3.91c.54-.13 1.04-.25 1.5-.38l-1.1 4.06c-.21.04-.43.08-.65.12l.25-3.8zm-2.4 4.12-.78.09c-.1-.68-.33-2.1-.54-3.41l1.02-.21.3 3.53zm-1.41.17c-.24.02-.49.05-.73.07l-.81-3.22c.33-.06.67-.13 1.01-.2.19 1.19.43 2.68.53 3.35zm-1.38.11-.81.06-1.21-2.98c.4-.07.81-.15 1.23-.23l.79 3.15zm8.36-5.32c.13-.05.24-.1.34-.14-.4 1-1.22 2.98-1.84 4.45-.17.05-.36.1-.58.14l1.12-4.11c.39-.12.72-.23.96-.34zm-.66 3.98c1.16-2.77 1.6-3.87 1.77-4.32.24-.03.34.01.37.03-.19 1.45-1.01 3.6-2.14 4.29zM76.7 77.21l-1.81-2.35c.41-.04.79-.09 1.11-.15l.42-.08 1.5 2.59c-.41.01-.82 0-1.22-.01zm-2.18-.16L72.44 75c.57-.02 1.14-.05 1.68-.08l1.74 2.25-.47-.03c-.3-.02-.58-.05-.87-.09zm-6.21-1.89c.23-.02.52-.04.82-.05l1.25 1c-.94-.33-1.66-.68-2.07-.95z" fill="#000000" stroke-width="none" opacity="1"></path></g></g></g><g id="svga-group-eyebrows-right-move" transform="matrix(1,0,0,1,0,0)"><g id="svga-group-eyebrows-right-rotate" transform="matrix(1,0,0,1,0,0)"><g id="svga-group-eyebrows-right" transform="matrix(1,0,0,1,0,0)"><path id="SvgjsPath25241" d="M108.68 71.42c.19 1.6 1.13 4.23 2.63 4.89 1.5.66 8.46 1.69 13.35 1.32 4.89-.38 8.08-2.26 7.89-2.73-.19-.47-5.92-.19-8.46-.66s-11.09-1.97-13.25-2.91c-2.16-.94-2.16.09-2.16.09z" fill="#ffffff" stroke-width="none" opacity="1"></path><path id="SvgjsPath25242" d="M132.99 74.72c-.2-.5-.78-.55-3.97-.64-1.71-.05-3.66-.1-4.84-.32l-.91-.17c-3.09-.57-10.34-1.89-12.24-2.72-1.12-.49-1.9-.56-2.4-.24-.32.21-.44.55-.44.77v.06c.19 1.63 1.15 4.5 2.92 5.27 1.33.58 6.58 1.44 11.23 1.44.81 0 1.6-.03 2.34-.08 4.54-.35 7.72-1.97 8.23-2.78.18-.25.13-.48.08-.59zm-3.1.35-1.88 1.51c-.01 0 0 .01-.01.02-.45.11-.94.21-1.46.3l1.9-1.87c.18.01.37.01.55.01.3.02.6.02.9.03zm-9.39 2.11 1.18-2.89c.44.08.85.16 1.23.22l-1.57 2.7c-.28 0-.56-.01-.84-.03zm-6.03-4.33c.46.1.93.21 1.42.31l-.31 3.57c-.29-.04-.58-.08-.85-.13l-.26-3.75zm-.39 3.64c-.23-.04-.45-.08-.65-.12l-1.1-4.06c.45.12.96.25 1.5.38l.25 3.8zm2.44-3.2 1.02.21c-.21 1.31-.44 2.73-.54 3.41-.27-.03-.53-.06-.78-.09l.3-3.53zm1.65.33c.34.07.68.13 1.01.2l-.81 3.22c-.25-.02-.49-.04-.73-.07.09-.66.33-2.15.53-3.35zm1.64.32c.42.08.83.16 1.23.23l-1.21 2.98c-.27-.02-.54-.03-.81-.06l.79-3.15zm-8.21-1.83 1.12 4.11c-.22-.05-.41-.1-.58-.14a323.8 323.8 0 0 1-1.84-4.45c.11.04.22.08.34.14.25.11.58.22.96.34zm-2.44-.66c.03-.02.13-.05.37-.03.17.45.61 1.55 1.77 4.32-1.12-.68-1.94-2.83-2.14-4.29zm12.92 5.77 1.5-2.59.42.08c.33.06.7.11 1.11.15l-1.81 2.35c-.4.01-.81.02-1.22.01zm2.54-.07-.47.03 1.74-2.25c.54.04 1.11.06 1.68.08l-2.08 2.05c-.3.03-.58.06-.87.09zm5-1.04 1.25-1c.3.01.59.03.82.05-.41.27-1.13.62-2.07.95z" fill="#000000" stroke-width="none" opacity="1"></path></g></g></g><g id="svga-group-nose-single-move" transform="matrix(1,0,0,1,0,0)"><g id="svga-group-nose-single" transform="matrix(1,0,0,1,0,0)"><path id="SvgjsPath25223" d="M106.1 105.1c-1-7.1-2.1-14.4-5.1-20.7-.7-1.4-1.9-3-3.4-1.7-.9.9-1.4 2.4-1.8 3.7-.9 3-1.4 6.2-1.9 9.3-.6 3.5-1 7.1-.9 10.7 0 1.4 0 3.1.6 4.4.4.8 1.2 1.5 2 1 .3-.2.4-.5.6-.7.9-1.1 1.5.1 2.1.8.6.7 1.3 1.1 2.1.5.8-.7 1-2.5 2.2-1.7.8.5 1.3 1.5 2.3 1.2 2.5-.8 1.5-5 1.2-6.8zm-.8 5.4c-.7.7-1.2.1-1.8-.4-.5-.4-.9-.8-1.5-.8-.6.1-1 .6-1.3 1.2-.3.5-.4.9-1 .9-.8 0-1-.9-1.6-1.4-.4-.5-1-.8-1.6-.5-.3.1-.4.4-.6.6-.3.4-.5 1.1-1.3.5-.3-.2-.5-1.1-.5-1.5-.9-5.8.3-12.2 1.4-17.9.4-2.2 1-4.7 1.8-6.5.2-.5.5-1 .9-1.4 1-1 1.8.5 2.3 1.4 2.2 4.7 3.3 9.9 4.2 15.1.4 2.7.9 5.4 1.2 8.1-.1.9 0 2-.6 2.6z" fill="#000000" stroke-width="none" opacity="1"></path></g></g><g id="svga-group-hair-front" transform="matrix(1,0,0,1,0,0)"><path id="SvgjsPath25384" d="M121.9 48s-4.4 9.3-17.2 12.5-30 7.9-33.8 13.7-4.4 11.9.3 19.8 4.9 14.8-2.3 18.3-4.1 11.4-.3 14c3.8 2.6-.6 7.3-1.8 9.9-1.2 2.6.9 5.5.9 5.5s-5-2.6-2.9-9.9c2-7.3-6.1-6.1-5.2-14.3s5.8-8.7 4.7-15.4c-1.2-6.7-2-15.4-6.7-25.6s.6-34.4 21.5-45.4 39.6-3.5 44.6 2.9c0 0 2 0 9.3 5.2 7.3 5.2 14 28.5 5.8 39.9 0 .1-9.9-6.3-16.9-31.1zM74.1 178.5c-.1-.1-.2-.1-.4-.1l.3-.3c2.9-3.2 7.6-13.4 8.3-14.8.1-2.1.2-4.5.1-6.7-.1-2.9-.9-6-1.8-8.5-7.1-1.8-15.3-2.8-24.2-1.6 1 2.7 2 4.7 2 4.7-4.9 4.5-2.1 16-2.1 16-4 4.3-4.2 12-2.1 15.7-1.2 3.2-4 7.2-1.6 15.7 2.4 8.7 8.1 9.3 8.1 9.3 3.8 3.8 11.5 6.9 11.5 6.9s-2.3-6.4-1-12 2.9-10.3 2.9-10.3l.7 10.3c5.1-6 3.7-20.9-.7-24.3z" fill="#ffffff" stroke-width="none" opacity="1"></path><path id="SvgjsPath25385" d="M133.6 38.2c-5.7-4.1-8.3-5.1-9.4-5.3-5.4-6.5-24.4-14-45.6-2.9C63.2 38.1 55.8 53.5 55 65.5c-.3 4.3.3 8.2 1.6 11.2 3.9 8.6 5.1 16.1 6.1 22.3.2 1.1.3 2.1.5 3.1.5 3.2-.4 4.7-1.7 6.9-1.1 1.9-2.6 4.2-3 8.3-.5 4.5 1.6 6.6 3.3 8.2 1.6 1.6 2.8 2.8 2 5.9-2.2 8 3.3 11 3.4 11 .2.1.3.1.5.1.3 0 .5-.1.8-.3.3-.3.3-.9.1-1.2 0 0-1.7-2.5-.8-4.6.2-.5.6-1.2 1.1-1.9 1.6-2.7 4.1-6.7.3-9.2-2-1.4-3.9-4.5-3.6-7.3.2-2.1 1.4-3.8 3.8-4.9 3-1.5 5-3.6 5.8-6.3 1.1-3.7.1-8.2-3.1-13.5-4.1-7-4.2-12.7-.3-18.8 3.8-5.9 24.4-11.1 33.2-13.3 9.5-2.4 14.5-8 16.6-11 7 23 16.3 29.3 16.7 29.5.4.3 1 .2 1.4-.3 8.7-12.1 1.3-35.9-6.1-41.2zm-54-6.5c7.6-4 14.9-5.5 21.3-5.5 8.5 0 15.4 2.7 19.4 5.6-18.8-5.7-38.8-1.6-53.8 10.7 3.3-4.1 7.7-7.9 13.1-10.8zM63.2 47.3c15.5-15.5 38.2-20.7 59-13.5-12.9 7-28.8 5-42.5 9.6-8.7 2.9-16.5 8-21.5 15.6 1.1-3.9 2.7-7.9 5-11.7zm-5.7 15.5C63.3 51 75.8 45 88.3 42.4c11.5-2.4 23.8-1.8 34.4-7.5-1.7 8.8-13.8 13.3-21.2 15.8-7.2 2.5-14.6 4.1-21.8 6.3-7.2 2.3-20.4 6.6-22.3 15.1-.4-2.6-.4-5.8.1-9.3zm5.9 47.2c1.3-2.2 2.6-4.3 1.9-8.2-.2-1-.3-2-.5-3.1-1-6.1-2.2-13.8-6.1-22.4-5-21.9 58.8-18.4 65-40 .9 15.2-17.8 20-29.9 21.8-10.1 1.5-21.5 3.2-28.1 11.9-2.4 3.2-4 7-3.9 11.1.2 5.3 3.4 9.6 5.7 14.2 1.7 3.3 3.2 7.5 2 11.2-1.3 4-5.3 5.7-7.6 8.9-.5.6-.9 1.3-1.2 2 .4-3.6 1.6-5.6 2.7-7.4zm41.2-50.7C88.9 63.2 74 67.6 70.2 73.4c-4.3 6.6-4.2 13.3.3 20.8 2.8 4.7 3.8 8.8 2.9 11.9-.7 2.1-2.2 3.8-4.8 5-3.8 1.8-4.8 4.6-4.9 6.5-.3 3.8 2 7.5 4.5 9.2 2 1.4.9 3.6-.9 6.6-.5.8-.9 1.5-1.2 2.1-.2.4-.3.9-.4 1.3-.3-1.3-.4-2.9.2-5 1.2-4.2-.8-6.1-2.5-7.8-.8-.8-1.5-1.5-2.1-2.5-1.5-6.1 7.8-9.7 9.4-14.9 1.1-3.6.1-7.5-1.4-10.8-3-6.8-8.1-12.6-5.3-20.4 2.5-7 9.3-11.3 16-13.5 10.8-3.4 22.8-2.5 33.1-7.9 3-1.6 5.6-3.7 7.7-6.2-1.2 2.1-5.8 8.9-16.2 11.5zm34 18.1c-2.4-2.1-10-10-15.7-30-.1-.4-.5-.7-.9-.7-.2 0-.3 0-.5.1 1.8-2.6 3-5.5 3.3-8.7 1.8 13.6 6.7 26.3 14.7 37.5-.2.7-.5 1.3-.9 1.8zm1.5-3c-6.8-9.8-11.3-20.7-13.4-32.3 1.9 3.3 4.5 6.3 6.8 9.4 4.7 6.4 7.1 13.6 7.1 21.4-.1.5-.3 1-.5 1.5zm-2.9-19.7c-3.4-5.9-8.8-10.6-11.1-16.9-.1-.5-.1-1-.2-1.6 0-.3-.2-.5-.5-.6 0-.1 0-.2-.1-.3 1.3.6 3.6 1.9 7.1 4.5 4.9 3.6 9.9 16.7 9.1 27.9-.6-4.6-2-8.9-4.3-13zM75 146.6l-.1.2c-.6-.1-1.2-.2-1.7-.3.2.2 0 .4.3.6-4.2 3.1-7 7.5-8.2 12.5-.6-.6-1.2-1.2-1.7-1.8.5-4.8 3.6-9 7.6-11.5-.6-.1-1.3-.1-2-.2-3.4 2.5-6 6.1-6.8 10.3-.2-.4-.5-.7-.7-1.1 0-.1.1-.2.1-.3-.3-3.2.5-6.3 1.9-9.1h-1.4c-.9 2.1-1.8 4.3-1.8 6.7-.2-.7-.4-1.4-.5-2.2 0-.2-.1-.3-.2-.4-.2-1.3-.1-2.7 0-4-.4 0-.8.1-1.2.1 0 .7-.2 1.4-.1 2.2-.3-.6-.6-1.3-.8-2.1l-2.1.3c.7 1.9 1.4 3.5 1.9 4.4-4 4.6-2.4 13.6-2 15.9-2.3 2.7-3.5 6.7-3.3 10.9.1 2 .5 3.7 1.2 5.1-.1.3-.3.7-.4 1-1.3 3.1-3.2 7.3-1 14.9 2.2 8.1 7.2 9.7 8.6 10 4 3.8 11.3 6.8 11.6 6.9.1.1.2.1.4.1s.5-.1.7-.3c.3-.3.4-.7.2-1.1 0-.1-2.2-6.2-1-11.5.4-1.8.8-3.5 1.3-5l.3 4.8c0 .4.3.8.7.9.4.1.8 0 1.1-.3 3.3-4 3.9-10.8 3.3-15.9-.5-4.3-1.9-7.8-3.7-9.5 2-2.5 4.7-7.2 6.4-10.6.9-2.7 1.4-5.7 1.4-5.7.2-1.8.3-3.5.2-5.1l-.1-1.3c-.2-1.5-.4-3-.8-4.4l-.3-1.2c-.1-.5-.4-1.1-.6-1.5l-1.2-.3c.9 2.6 1.1 5.3 1.3 8.1-.2.2-.1.5 0 .7.1 2.1 0 4.2-.5 6.3-.2.4-.5 1.1-1 2.1.3-3.8-.3-7.4-1.3-10.9l.1-.1c.3-.4 0-.8-.4-.9-.7-2-1-4.1-2-6.1-.6-.1-1.2-.2-1.7-.3m4.1 14.7-5.7 6.6c-.4-4.7 2-8.8 4.6-12.7.6 2 1 4 1.1 6.1zm-9.3 10.8c.1.1.2.1.3.2.1.1.3.1.4.1.4 1.6.8 3.2 1 4.8-1 .1-2.2.2-3.4.4v-.1c-.8-1.2-1.1-2.7-.7-4.1v-.1c.1-.1.2-.1.2-.2.7-.3 1.4-.6 2.2-1zm-.5-7c1.1 1.2 2.1 2.5 2.8 3.9.1.1.1.2.2.2-.8.5-1.6 1-2.4 1.4-1.4-1.3-1.1-3.6-.6-5.5zm2.2 6.1c.5-.3 1-.6 1.4-.9.8 1.5 1.4 3.1 1.5 4.8 0 .1.1.2.1.3-.4.6-.9 1.2-1.2 1.6h-.5c-.3-1.9-.7-3.8-1.3-5.8 0 .1 0 .1 0 0zm4.2-21.1c.4.7.8 1.4 1.1 2.2.1.2.2.3.4.4.1.4.3.7.4 1.1-2.8 4-5.3 8.2-5.4 13.1-.5-.8-1.2-1.5-1.8-2.2v-.3c-.4-2.5-.4-5.1.3-7.6.6-2.2 2-6.2 4.7-6.5.1-.1.2-.1.3-.2zm-9.4 10.1c1.1-5 3.8-9.3 7.9-12.3.3.4.6.7.8 1.1-5.4.9-6.4 9.2-6 14.1-.8-.8-1.7-1.6-2.5-2.4-.1-.2-.2-.3-.3-.4.1 0 .1 0 .1-.1zm-1 6.3c0-1.6.4-3.1.9-4.5.7.7 1.4 1.4 2.1 2-.6 2.4-1.1 5.3.5 7.2-.6.3-1.2.6-1.8.8-1.7-.7-1.7-4.2-1.7-5.5zm1.5 11.3c-.9.2-1.8.3-2.7.5-.6-1.1-.7-2.3-.2-3.5v-.2c.7-.3 1.3-.6 2-.9-.1 1.5.2 2.9.9 4.1zm-1.6-16.7c-.9 2.4-1.4 4.9-1.1 7.5.2 1.4.4 3.1 1.4 4.1-.4.2-.9.4-1.3.6 0-.1-.1-.1-.2-.2-.2-.1-.5-.2-.7-.4-3.8-2.5-1.5-10.2.1-13.5.6.6 1.2 1.3 1.8 1.9zm-2.3 17.4c-2.9.6-5.6 1.3-6.9 1.6 1.7-2.2 4-3.7 6.6-4.9-.3 1.2-.2 2.3.3 3.3zm-2.4-23c.5.8 1.1 1.6 1.7 2.4 0 .2.1.3.3.4l-.1.1c-1.3 2.6-2.8 7.2-2.3 10.9-2.6-4.5-2.4-9.5.4-13.8zm-1.5-3.6c.2.9.5 1.7.9 2.5-2.9 3.9-3.6 8.6-2 13-.2-.4-.5-.9-.6-1.3-.6-2.5-1.9-10.7 1.7-14.2zM56.8 168c1.4 2.4 3.3 4.4 5.8 5.7.1 0 .2.1.2.1-1 .5-2.1 1-3.1 1.5 0-.1-.1-.2-.2-.3-2-1.4-3.2-3.5-3.6-5.9.3-.3.6-.7.9-1.1zm-1.7 2.9c.6 2.1 1.9 3.8 3.7 5.1-.3.2-.6.5-1 .7-1.6-1.2-2.7-2.9-2.9-4.9v-.1c0-.3.1-.5.2-.8zm-.9 3.2c.5 1.3 1.4 2.5 2.6 3.4-.9.8-1.7 1.6-2.4 2.7-.2-.8-.4-1.8-.4-2.7-.1-1.1 0-2.2.2-3.4zm.4 10.4c.3-.7.6-1.4.8-2 .3-.1.8-.3 1.4-.5-2.1 4.7-3.3 9.5-3.5 14.6-1.3-6 .1-9.3 1.3-12.1zm-.1 16.1c-.3-6.6.9-12.9 3.7-18.9v-.1c.1 0 .2 0 .3-.1-1.3 5.7-2.4 11.6-2.6 17.5-.1 1.8.1 3.5.6 5-.7-.9-1.4-2-2-3.4zm7 6.4c-.2-.2-.4-.3-.6-.3h-.1c0-.1-.1-.2-.3-.3-7-3.3-2-19.5-.7-25.2.5-.1.9-.2 1.4-.3 0 .1 0 .2.1.3 3.5 7.7-1.9 19.4 1.6 27-.5-.4-1-.8-1.4-1.2zm4.3 3.2c-6.7-7 .5-20.9-3.4-29.6.9-.2 1.8-.3 2.7-.5 7.1 9.3-4.4 23.8 5.5 31.9.1.3.1.6.2.9-1.3-.7-3.2-1.6-5-2.7zm7.9-18.7c-.2.1-.3.3-.4.5 0 0-1.6 4.8-2.9 10.4-.6 2.6-.5 5.3-.1 7.6-7.2-7.7 2.1-21.1-3.8-30.1.9-.1 1.7-.3 2.5-.4 0 .1.1.2.2.3 3.3 3.1 4.9 7.3 4.5 11.7zm2 7.8-.2-3.4c.1-.1.2-.1.2-.3.8-2 1.3-4.1 1.4-6.1.2 3.7-.3 7.2-1.4 9.8zm-.5-6.4v-.6c0-.2-.1-.5-.3-.6.5-4.6-1.1-9-4.5-12.3 1.6-.2 2.8-.3 3.3-.2.3.2.5.5.8.9 1.6 4 1.9 8.4.7 12.8zm.3-18.9c-.3-1.6-.8-3.1-1.7-4.5v-.1l1.8-2.1c.8 1.1 1.3 2.3 1.6 3.6-.5 1-1.1 2.1-1.7 3.1zm3.1-5.6c-.2.3-.3.6-.5.9-.4-1.1-.9-2.1-1.6-3 .9-1 1.8-2.1 2.7-3.1 0 1.7-.2 3.4-.6 5.2z" fill="#000000" stroke-width="none" opacity="1"></path></g><g id="svga-group-glasses-single-move" transform="matrix(1,0,0,1,0,0)"><g id="svga-group-glasses-single" transform="matrix(1,0,0,1,0,0)"><path id="SvgjsPath25313" d="M94.7 85.4c-1-4.4-4.1-10.5-13.6-10.8s-13.8 6.8-14.5 13.2 4.3 12.2 7.7 13.7 10.3 2.9 15.6-1.8c5.3-4.9 5.8-10 4.8-14.3z" fill="#000000" stroke-width="none" opacity="1"></path><path id="SvgjsPath25314" d="M104.7 85.4c1-4.4 4.1-10.5 13.6-10.8s13.8 6.8 14.5 13.2-4.3 12.2-7.7 13.7c-3.4 1.5-10.3 2.9-15.6-1.8-5.3-4.9-5.7-10-4.8-14.3z" fill="#000000" stroke-width="none" opacity="1"></path><path id="SvgjsPath25315" d="m69.7 88.9 12-10 .1.2-12 10-.1-.2zm6.8 10.6 12-10 .1.2-12 10-.1-.2zm-1.1-4.4 16.3-13.6.1.2-16.2 13.5-.2-.1zm-4.7-1.2 16-13.3.1.2-16 13.2-.1-.1z" fill="#ffffff" stroke-width="none" opacity="1"></path><path id="SvgjsPath25316" d="m107 88.9 12-10 .1.2-12 10-.1-.2zm6.8 10.6 12-10 .1.2-12 10-.1-.2zm-1.1-4.4L129 81.5l.1.2-16.3 13.6-.1-.2zm-4.8-1.2 16-13.3.1.2-16 13.3-.1-.2z" fill="#ffffff" stroke-width="none" opacity="1"></path><path id="SvgjsPath25317" d="M135.6 86.7c-.1-.1-1.5-.1-2.2-.1-1.1-6.3-5.6-13-15-12.7-9.3.3-12.7 6-13.9 10.2-.5-.5-1.2-.9-1.6-1-.6-.1-4.2-.2-5.7-.1-1.5.2-1.9 1.1-1.9 1.1l-.1.1C94 80.1 90.7 74.3 81.3 74c-9.4-.3-13.9 6.4-15 12.7-.8 0-2.1 0-2.2.1-.2.2 0 1.8 0 1.8h2c-.2 6.1 4.5 11.8 8.2 13.4.9.4 3.7 1.5 7.1 1.5 2.9 0 6.2-.8 9.2-3.4 4.6-4.2 6.2-9 5-14.8.1-.2.2-.3.2-.4.2-.4 1-1 1.6-1.1s4.1 0 4.7 0 1.2.4 1.6.7c.2.2.4.5.5.8-1.2 5.8.4 10.6 5 14.8 2.9 2.7 6.3 3.4 9.2 3.4 3.4 0 6.3-1.1 7.1-1.5 3.7-1.6 8.4-7.4 8.2-13.4h2c-.1-.1.1-1.7-.1-1.9zM89.5 99.1c-5.8 5.3-13.4 2.4-14.9 1.7-2.9-1.3-8-6.9-7.3-13 .7-5.8 4.5-12.6 13.3-12.6h.5c8.9.3 12 5.8 13 10.3 1.1 5.3-.3 9.8-4.6 13.6zm35.3 1.7c-1.5.6-9.1 3.5-14.9-1.7-4.2-3.8-5.8-8.3-4.6-13.6 1-4.5 4.1-10 13-10.3h.5c8.7 0 12.6 6.7 13.3 12.6.8 6.1-4.3 11.7-7.3 13z" fill="#ffffff" stroke-width="none" opacity="1"></path><path id="SvgjsPath25318" d="M81.1 75c-9.2-.3-13.3 6.8-14 12.8-.7 6.2 4.5 11.9 7.5 13.2.8.3 3.5 1.4 6.7 1.4 2.7 0 5.7-.7 8.4-3.2 4.3-3.9 5.8-8.4 4.7-13.8-1.1-4.5-4.2-10.1-13.3-10.4zm8.2 23.9c-5.7 5.2-13.2 2.3-14.7 1.7-2.9-1.2-7.9-6.8-7.2-12.8.7-5.7 4.5-12.4 13.1-12.4h.5c8.8.3 11.8 5.7 12.8 10.1 1.2 5.3-.3 9.7-4.5 13.4zm46.4-12.4c-.1-.1-.2-.2-2.2-.2-1.2-6.4-5.8-13-15.2-12.7-9 .3-12.6 5.5-14 10-.5-.4-1-.7-1.4-.8-.6-.1-4.2-.2-5.8-.1-1.1.1-1.6.5-1.9.8-1.4-4.5-5-9.7-14-9.9-9.4-.3-14 6.3-15.2 12.7-2 0-2.1.1-2.2.2-.1.1-.3.2-.1 2v.2h2c-.1 6.3 4.8 11.9 8.3 13.4.8.3 3.7 1.5 7.2 1.5 3.6 0 6.7-1.2 9.3-3.5 4.7-4.2 6.3-9.1 5.1-14.9.1-.1.1-.2.2-.3.2-.3.9-.9 1.4-1 .6-.1 3.9 0 4.6 0 .6 0 1.2.4 1.5.7.1.1.2.3.4.7-1.2 5.8.4 10.7 5.1 14.9 2.6 2.3 5.7 3.5 9.3 3.5 3.5 0 6.4-1.2 7.2-1.5 3.5-1.5 8.4-7.2 8.3-13.4h2v-.2c.4-1.8.2-2 .1-2.1zm-.3 1.8h-2.1v.2c.2 6.2-4.6 11.8-8 13.2-.8.3-3.6 1.5-7.1 1.5-3.5 0-6.5-1.1-9-3.4-4.6-4.1-6.2-8.9-4.9-14.6V85c-.2-.4-.4-.7-.6-.9-.4-.3-1.1-.8-1.8-.8-.4 0-1.8-.1-3.1-.1-.8 0-1.4 0-1.7.1-.7.1-1.5.8-1.7 1.2-.1.1-.2.3-.3.4v.2c1.2 5.7-.4 10.5-4.9 14.6-2.5 2.2-5.5 3.4-9 3.4-3.4 0-6.3-1.1-7.1-1.5-3.4-1.5-8.2-7.1-8-13.2v-.2H64c-.1-.6-.1-1.2 0-1.4.2 0 .8-.1 2.1-.1h.2v-.2c1.1-6.2 5.6-12.8 14.8-12.5 9 .3 12.4 5.6 13.7 10.1l.1.5.3-.5s.4-.8 1.8-.9c1.6-.2 5.2-.1 5.7.1.4.1 1.1.5 1.5.9l.3.3.1-.4c1.3-4.4 4.7-9.7 13.7-10 9.3-.3 13.7 6.3 14.8 12.5v.2h.2c1.3 0 1.9 0 2.1.1v1.4zM118.9 75h-.5c-9.1.3-12.2 5.8-13.2 10.5-1.2 5.4.3 9.9 4.7 13.8 2.7 2.4 5.8 3.2 8.4 3.2 3.2 0 5.9-1 6.7-1.4 3-1.3 8.2-7 7.5-13.2-.8-6-4.7-12.9-13.6-12.9zm5.9 25.6c-1.4.6-8.9 3.5-14.7-1.7-4.2-3.8-5.7-8.1-4.5-13.3 1-4.5 4-9.8 12.8-10.1h.5c8.6 0 12.4 6.7 13.1 12.4.6 6-4.4 11.5-7.2 12.7z" fill="#000000" stroke-width="none" opacity="1"></path></g></g></g></g></g><rect id="svga-credit-rect" width="200" height="15" x="0" y="185" fill="#ecf0f1" opacity="0.5" style="display: none;"></rect><text id="svga-credit-text" font-family="Avenir Next, Roboto, Helvetica, Arial, sans-serif" font-size="10px" text-anchor="start" font-weight="400" size="10px" anchor="start" weight="400" fill="#333333" x="33.402061462402344" y="182.71133995056152" style="display: none;"><tspan id="SvgjsTspan24703" dy="13" x="33.402061462402344">Created on AvatarMaker.com</tspan></text></g></svg>