<svg xmlns="http://www.w3.org/2000/svg" version="1.1" width="600px" height="600px" viewBox="0 0 200 200" style="overflow:hidden!important;"><defs id="SvgjsDefs73132"><linearGradient id="SvgjsLinearGradient73864" x1="79.3288" y1="71.8854" x2="79.3288" y2="104.7359" gradientUnits="userSpaceOnUse" class="svga-on-canvas-glasses-gradient-single-0-null"><stop id="SvgjsStop73865" stop-opacity="1" stop-color="#ffffff" offset="0.0708" ></stop><stop id="SvgjsStop73866" stop-opacity="0" stop-color="#ffffff" offset="1" ></stop></linearGradient><linearGradient id="SvgjsLinearGradient73868" x1="34.9103" y1="71.8854" x2="34.9103" y2="104.7359" gradientTransform="matrix(-1 0 0 1 155.3625 0)" gradientUnits="userSpaceOnUse" class="svga-on-canvas-glasses-gradient-single-1-null"><stop id="SvgjsStop73869" stop-opacity="1" stop-color="#ffffff" offset="0.0708" ></stop><stop id="SvgjsStop73870" stop-opacity="0" stop-color="#ffffff" offset="1" ></stop></linearGradient></defs><g id="svga-group-wrapper"><g id="svga-group-backs-single"></g><g id="svga-group-humanwrap-move" transform="matrix(1,0,0,1,0,0)"><g id="svga-group-humanwrap" transform="matrix(1,0,0,1,0,0)"><g id="svga-group-hair-back-move" transform="matrix(1,0,0,1,0,0)"><g id="svga-group-hair-back" transform="matrix(1,0,0,1,0,0)"></g></g><g id="svga-group-humanbody-back"><path id="SvgjsPath73542" d="M77.6 118.3c0 19.3 3.4 44.1-10 51.9-13.4 7.9-31.9 11.3-37.8 22s-4.4 25.3-4.4 25.3h149.3s.7-18.9-5.1-26.4c-8.1-10.4-27.8-15.5-37.7-20.9s-13.4-25.1-13.4-52.4l-40.9.5z" fill="#ffffff" stroke-width="none" opacity="1"></path><path id="SvgjsPath73543" d="M175.8 218.7H24.4l-.1-1c-.1-.6-1.5-15.1 4.5-26 4.1-7.4 13.5-11.3 23.5-15.5 5-2.1 10.2-4.3 14.8-6.9 10.6-6.2 10.1-23.9 9.6-41-.1-3.5-.2-6.8-.2-10v-1.1l43.2-.4v1.1c0 29.9 4.2 46.7 12.8 51.4 2.9 1.6 6.7 3.2 10.8 4.9 10 4.1 21.3 8.8 27.2 16.3 6.1 7.7 5.4 26.4 5.4 27.1l-.1 1.1zm-149.3-2.2h147.1c0-4.1-.2-18.5-4.9-24.6-5.5-7-16.6-11.6-26.3-15.6-4.1-1.7-8-3.3-11-5-5.1-2.8-8.7-8.9-10.9-18.7-2-8.4-2.9-19.4-3-33.5l-38.6.4c0 2.8.1 5.7.2 8.8.5 17.8 1 36.1-10.7 43-4.7 2.7-9.9 4.9-15 7.1-9.6 4-18.7 7.8-22.4 14.5-5 8.6-4.7 20.1-4.5 23.6z" fill="#000000" stroke-width="none" opacity="1"></path><path id="SvgjsPath73544" d="M93.9 153.8c-.5 1.8-.4 3.4.5 5.2.8 1.6 2.1 2.7 3.9 2.9.4 0 .7-.5.5-.8-1.6-2.2-3.5-4.2-3.7-7.1 0-.7-1-.9-1.2-.2zm18.6 33.7c8.8.5 18.1-.7 26.6-2.9.7-.2.6-1.4-.2-1.3-8.8 1.1-17.7 2-26.5 3.3-.5.1-.3.9.1.9zm-49.4-5c3.8.9 7.6 1.9 11.5 2.8 3.6.8 7.4 2 11.1 2.1.7 0 .8-.9.2-1.2-3.5-1.4-7.5-1.7-11.2-2.5-3.8-.7-7.5-1.3-11.3-2-.5 0-.7.7-.3.8z" fill="#000000" stroke-width="none" opacity="1"></path></g><g id="svga-group-chinshadow-single"></g><g id="svga-group-humanbody-front"></g><g id="svga-group-clothes-single"><path id="SvgjsPath73754" d="M176.1 192.2c-1.7-9-2.9-9.7-7.1-13.1-2-1.7-10.4-3.4-18.4-4.8l-5.6-10 4.4.5-5.1-5.1 1.7-.7-7.8-3.9 3.6-1.2-6.3-2.4 2.9-2.7-9.5-1.9 3.9-2.4-12.4-.5s-7.3 6.8-5.8 6.3 4.1-1 4.1-1l-5.1 6.1s4.4-1.5 3.4-.7c-1 .7-8.3 4.4-8.3 4.4h3.7l-6.8 4.1s6.6-2.2 3.7-.2-5.8 4.4-5.8 4.4l2.2 1-2.2 3.4L93 162l4.9-.5-8.8-3.6 3.7-2.4-8.8-.7 4.4-1.5-8.8-1.2 4.4-3.4-7.3-.5.2-5.1c-2.7-.7-13.1 1-13.1 1l2.4 2.7-13.9 3.2 3.7 3.9-9.2 6.8 4.1 1-8 10.2 7-.5-2 4.4c-4.7.8-11.4 2.1-14.8 3.6-5.6 2.4-8 8.5-9.2 17-1.2 8.5-1 22.4-1 22.4h155.4c0-.1-.5-17.6-2.2-26.6z" fill="#ffffff" stroke-width="none" opacity="1"></path><path id="SvgjsPath73755" d="M177.1 192c-1.7-9.1-3-10.1-7-13.4l-.4-.3c-2.1-1.8-10.4-3.6-18.5-5l-4.4-7.9 2.4.3c.4.1.8-.2 1-.6s.1-.8-.2-1.1l-4.1-4.1.3-.1c.4-.1.6-.5.6-.9s-.2-.8-.6-.9l-5.6-2.8 1.4-.4c.4-.1.7-.5.7-.9s-.2-.8-.6-1l-4.8-1.9 1.7-1.6c.3-.2.4-.6.3-1s-.4-.6-.8-.7l-7-1.4 1.8-1.1c.4-.2.6-.7.4-1.1-.1-.4-.5-.7-.9-.7l-12.4-.5c-.3 0-.5.1-.7.3-6.9 6.4-6.6 6.8-6.2 7.6.2.3.7.7 1.4.4.3-.1.8-.2 1.2-.3l-3.2 3.9c-.3.3-.3.8-.1 1.1-1.5.8-3.2 1.6-4.4 2.3-.4.2-.6.7-.5 1.1s.5.8 1 .8h.1l-3.8 2.3c-.4.3-.6.8-.4 1.3.2.4.7.7 1.1.6-1.7 1.3-3 2.3-3 2.4-.3.2-.4.6-.3.9.1.3.3.6.6.8l1.1.5-.9 1.4-7.9-7.2 2.6-.3c.5-.1.8-.4.9-.9.1-.4-.2-.9-.6-1.1l-7-2.9 2.1-1.4c.3-.2.5-.7.4-1.1-.1-.4-.5-.7-.9-.8l-3.9-.3c.3-.2.5-.6.5-.9 0-.5-.4-.8-.9-.9l-6.4-.9 2.5-1.9c.3-.2.5-.7.3-1.1s-.5-.7-.9-.7l-6.3-.4.2-4.1c0-.5-.3-.9-.7-1-2.8-.8-12.5.8-13.6.9-.4.1-.7.3-.8.7s0 .7.2 1l1.3 1.4-12.2 2.8c-.3.1-.6.3-.7.7s0 .7.2 1l2.9 3.1-8.3 6.1c-.3.2-.5.6-.4 1 .1.4.4.7.8.8l2.6.6-7.1 9c-.2.3-.3.7-.1 1.1s.6.6 1 .5l5.4-.4-1.1 2.4c-4.7.8-11.1 2.1-14.5 3.6-5.4 2.3-8.4 7.8-9.8 17.8-1.2 8.5-1 22-1 22.5s.5 1 1 1h155.4c.3 0 .5-.1.7-.3s.3-.5.3-.7c-.3-1.1-.8-18-2.5-27zm-67.3-28.4c.5-.3 1.6-1 1.1-2-.1-.2-.2-.3-.3-.4l2.4-1.4c.4-.2.6-.7.4-1.1-.1-.3-.3-.5-.6-.6 2-1.1 4.3-2.2 4.8-2.6.8-.6.5-1.3.4-1.4-.3-.5-.6-.7-1.6-.5l3-3.6c.3-.3.3-.8.1-1.1-.2-.4-.6-.6-1-.5-.1 0-.7.1-1.5.3 1.1-1.1 2.4-2.4 3.7-3.6l8.7.3-1.1.7c-.4.2-.5.6-.4 1 .1.4.4.7.8.8l7.6 1.6-1.5 1.4c-.2.2-.4.6-.3.9s.3.6.6.8l3.7 1.4-1 .3c-.4.1-.6.5-.7.9 0 .4.2.8.6 1l5.9 2.9c-.2.1-.3.4-.4.6-.1.3 0 .7.3.9l3.1 3.1-1.5-.2c-.4 0-.7.1-.9.4s-.2.7 0 1l5 9c-.2 0-.4.1-.6.2-.3.2-.5.6-.4.9l.5 5.6-1.1-2c-.2-.4-.6-.6-1-.5s-.8.4-.8.8l-3.6 17-1.2-.8c-.4-.3-1-.2-1.3.1l-2.9 3.1.2-1.1c.1-.4-.1-.9-.5-1.1-.4-.2-.9-.2-1.2.1l-6.9 6.3c0-.2 0-.4.1-.4.1-.4 0-.9-.4-1.2-.6-.4-.9-.6-6.4 3.3v-2.9c0-.4-.3-.8-.7-1-.4-.1-.9.1-1.1.4l-3.3 5.3-1.8-1.5c-.4-1.2-1.7-4.6-2.4-6.4h.3c.4.1.8-.1 1-.5.2-.4.2-.8-.1-1.1l-3.2-4.2.8.2c.4.1.8 0 1-.4.2-.3.3-.8.1-1.1l-1.9-3.4 1.1.4c.4.1.8 0 1.1-.3s.3-.8 0-1.2l-3.3-4.9 1.4-.2c.4-.1.7-.3.8-.6s.1-.7-.2-1l-6.8-8.4 1.8-2.8c.2-.2.2-.6.1-.8-.1-.3-.3-.5-.6-.6l-.7-.3c1.3-.9 3-2.2 4.7-3.3zm-84.9 32.9c1.1-7.9 3.3-12.7 6.8-15.2 1.8 1.7 9 8.9 10 17.4 1 8.5 1.1 16.6 1.1 19H23.9c0-3.3 0-14.2 1-21.2zm19.9 21.2c0-2.5-.1-10.6-1.1-19.2-1-8.8-7.7-15.9-10.2-18.2 2.9-1.3 8.3-2.4 12.8-3.2l-1.7 3.8c-.2.4-.1.8.2 1.1.3.3.7.4 1.1.3l5-1.7.2 9.6c0 .3.2.6.4.8.3.2.6.2.9.1l3.9-1.4 9.3 13c.2.3.7.5 1.1.4.4-.1.7-.5.7-.9l.3-4.2 2.7 4.4c.3.4.9.6 1.3.4l2.5-1.3 5.1 5.5c.3.3.7.4 1 .3.4-.1.6-.4.7-.8l.2-1.6 4.4 5.1c.3.3.7.4 1.1.3.4-.2.7-.5.6-1l-.2-4.5 6.7 4.8.8 8.5-49.8-.4zm66.4-9.2c-.3-.1-.7 0-1 .2-1 1-2.3 2-2.9 2.2-.4-.7-1-.7-1.3-.7-.7 0-1.3.6-1.7 1.3l-5.1-4.3c-.2-.2-.4-.2-.6-.2-.2 0-.4.1-.6.2-.4.3-.5.8-.3 1.2l.7 1.5-11.6-8.3c-.3-.2-.7-.2-1.1-.1s-.5.5-.5.9l.1 3.7-4-4.6c-.3-.3-.7-.4-1.1-.3-.4.1-.7.4-.7.8l-.2 1.8-4.1-4.5c-.3-.3-.8-.4-1.2-.2l-2.3 1.3-3.9-6.2c-.2-.4-.7-.6-1.1-.4s-.7.5-.8.9l-.3 4.5-8.1-11.3c-.3-.4-.7-.5-1.2-.4l-3.3 1.2-.2-9.5c0-.3-.2-.6-.4-.8-.3-.2-.6-.2-.9-.1l-4.2 1.4 3.5-7.9c.1-.3.1-.7-.1-1-.2-.3-.5-.4-.9-.4l-4.8.3 6.6-8.4c.2-.3.3-.6.2-.9s-.4-.6-.7-.6l-2-.5 7.5-5.5c.2-.2.4-.4.4-.7 0-.3-.1-.6-.3-.8l-2.5-2.6 12.2-2.8c.3-.1.6-.3.7-.7s0-.7-.2-1l-1.2-1.3c3.5-.5 8-1 10.1-.8l-.2 4.2c0 .5.4 1 .9 1.1l4.7.3-2.3 1.8c-.3.2-.5.7-.3 1.1.1.4.4.7.8.7l4.5.6-.3.1c-.4.1-.7.6-.7 1.1.1.5.4.8.9.9l5.9.5-1.3.8c-.3.2-.5.6-.4.9s.3.7.6.8l5.1 2.1-.9.1c-.4 0-.7.3-.8.7-.1.4 0 .8.3 1.1l10.4 9.4 6.1 7.5-1.2.2c-.3.1-.6.3-.8.6s-.1.7.1 1l2.5 3.8-.8-.3c-.4-.1-.8 0-1.1.3s-.3.8-.1 1.1l2 3.6-1.3-.3c-.4-.1-.8.1-1.1.4s-.2.8 0 1.1l3.7 4.9c-.4.1-.5.3-.6.5-.3.4-.3.8-.1 1.2.2.4 1.8 4.6 2.8 7.3l-.9 4.1c0-.5-.3-.8-.7-.9zm1 6.3c.4-.1.7-.4.8-.8l1.6-7.1 1.7 1.4c.2.2.5.3.8.2s.5-.2.7-.5l2-3.3v1.3c0 .4.2.7.5.9.3.2.7.1 1-.1 1.8-1.3 3.8-2.7 5.1-3.6 0 .6.1 1.1.1 1.4 0 .4.3.7.6.8.3.1.8.1 1-.2l6.2-5.7-.3 1.6c-.1.4.1.9.5 1.1.4.2.9.1 1.2-.2l4.8-5.2 1.7 1.2c.3.2.6.2.9.1s.5-.4.6-.7l3.3-15.8 2.1 3.9c.2.4.7.6 1.2.5.5-.1.8-.6.7-1.1l-.8-8.7.8.4c.4.2.9.1 1.2-.2.3-.3.3-.7.2-1 7.4 1.3 13.8 2.8 15.7 4.1-2.6 2.2-8.3 8.5-9.8 14-1.5 5.4-1.1 19.6-.9 24h-45.2v-2.7zm47.2 2.9c-.1-4.2-.5-18.4.9-23.5 1.5-5.5 7.6-11.8 9.5-13.3 3 2.5 3.9 3.9 5.4 11.4 1.4 7.6 2 21.4 2.1 25.3l-17.9.1zm-80.7-29.6L76 190l-3.3-8.1-.3-.3c-.1-.1-.3 0-.4.1l-2.6 1.9-1.9-8.8c0-.1-.1-.3-.3-.4s-.3-.1-.4 0l-4 2.1-.7-10.3c0-.2-.1-.3-.2-.4s-.3-.1-.5 0l-2.3.9 3.8-9.4c.1-.3 0-.6-.3-.6-.2-.1-.5 0-.7.3l-4.3 10.5c-.1.2 0 .4.1.5s.3.2.5.1L61 167l.7 10.4c0 .2.1.3.3.4.2.1.3.1.5 0l4.1-2.2 1.9 8.9c0 .2.2.3.3.4.2.1.3 0 .5-.1l2.7-2 3.3 8.1.3.3h.1c.1 0 .2 0 .3-.1l3.2-2.2c.2-.2.3-.5.1-.7-.1-.2-.4-.2-.6-.1zm16.2 8.1c-.1-.1-.3-.2-.5-.1s-.3.2-.3.4l-.3 2.1-3.3-4.2c-.1-.1-.3-.2-.5-.2s-.3.2-.4.4l-.6 2-2.5-4.7c-.1-.2-.4-.3-.7-.2-.2.1-.3.4-.2.7l3.1 5.8c.1.2.3.3.5.3s.4-.2.4-.4l.6-2.3 3.4 4.4c.1.2.3.2.5.2.2-.1.3-.2.4-.4l.3-2.2 4.2 4.5c.1.1.2.2.4.2.1 0 .2 0 .3-.1.2-.2.2-.5 0-.7l-4.8-5.5zm-8.9-15c.2 0 .4-.1.5-.3l1-2.3 4.8 7.5c.1.1.3.2.4.2.1 0 .2 0 .3-.1.2-.1.3-.5.2-.7l-5.3-8.3c-.1-.2-.3-.2-.5-.2s-.3.1-.4.3l-.9 2-2.7-6.8c-.1-.2-.2-.3-.4-.3s-.3 0-.5.1l-1.3 1.4-.5-5.8c0-.2-.1-.3-.2-.4-.1-.1-.3-.1-.4 0l-3.2 1.4 1.5-6.4c.1-.3-.1-.5-.4-.6-.3-.1-.5.1-.6.4l-1.8 7.4c0 .2 0 .4.2.5.2.1.3.1.5.1l3.5-1.5.5 6.2c0 .2.2.4.3.4.2.1.4 0 .5-.1l1.5-1.6 2.8 7.2c.2.2.4.3.6.3zm36-9.8c.1.1.2.1.3.1h.2c.2-.1.3-.2.3-.4l.8-5.1 2.2 1.4c.2.1.3.1.5 0s.3-.2.3-.4l.1-5 2.2 1.5c.1.1.4.1.5 0s.3-.2.3-.4l.1-7.2c0-.3-.2-.5-.5-.5s-.5.2-.5.5l-.1 6.3-2.2-1.5c-.2-.1-.3-.1-.5 0s-.3.2-.3.4l-.1 5-2.1-1.3c-.1-.1-.3-.1-.5 0s-.3.2-.3.4l-.8 5-2.3-1.9c-.2-.2-.5-.1-.7.1-.2.2-.2.5.1.7l3 2.3zm7.5 11.1c-.1-.3-.3-.4-.6-.4-.3.1-.4.3-.4.6l.9 3.4c.1.2.3.4.5.4s.4-.2.5-.4l.9-6.9 3.2 2.1c.2.1.4.1.6 0s.2-.3.2-.5l-1-5.4 2.8 1.2c.2.1.4.1.5-.1s.2-.3.2-.5l-.9-7.1 2.3 1.7c.2.1.4.1.6 0 .2-.1.3-.3.2-.5l-1.5-9c0-.3-.3-.5-.6-.4-.3 0-.5.3-.4.6l1.3 7.8-2.3-1.6c-.2-.1-.4-.1-.6 0s-.3.3-.2.5l.9 7.4-2.9-1.3c-.2-.1-.4-.1-.5.1s-.2.3-.2.5l1 5.2-2.9-1.9c-.1-.1-.3-.1-.5 0s-.3.2-.3.4l-.7 5.2-.1-1.1zm5.2 11.1-1-2.1c-.1-.1-.2-.2-.4-.3-.2 0-.3 0-.4.1l-3.9 3.9-.1-2.3c0-.2-.1-.4-.3-.4s-.4 0-.5.1l-3.2 3.1-.2-3.2c0-.3-.3-.5-.5-.5-.3 0-.5.3-.5.5l.3 4.3c0 .2.1.4.3.4h.2c.1 0 .2-.1.3-.1l3.2-3.1.1 2.3c0 .2.1.4.3.4s.4 0 .5-.1l4.2-4.2 1 2.2c.1.2.2.3.4.3s.4-.1.4-.2l5.6-7.5c.2-.2.1-.5-.1-.7s-.5-.1-.7.1l-5 7z" fill="#000000" stroke-width="none" opacity="1"></path></g><g id="svga-group-head" transform="matrix(1,0,0,1,0,0)"><g id="svga-group-ears-left-move" transform="matrix(1,0,0,1,0,0)"><g id="svga-group-ears-left" transform="matrix(1,0,0,1,0,0)"><path id="SvgjsPath73772" d="M61.8 82.4s-3.6-5.4-5.6-7.8-4.7-5-6.3-1.1c-1.6 3.9-2.5 11.6-1.6 16.9s6.8 11 9.6 11.2c2.8.2 5.7-7.6 5.9-10.3.3-2.8-.6-6.9-2-8.9z" fill="#ffffff" stroke-width="none" opacity="1"></path><path id="SvgjsPath73773" d="M47.2 90.4c-1-5.5.1-13.3 1.6-17.2.2-.6 1-2.4 2.9-2.6 2.1-.2 3.9 1.6 5.5 3.5 2.1 2.4 5.5 7.7 5.7 7.9 1.4 2.1 2.4 6.4 2.1 9.3-.2 2.4-2.4 8.8-5.2 10.6-.6.4-1.3.6-2 .5-3.6-.3-9.7-6.4-10.6-12zm8-15.4c-2.3-2.7-3.1-2.7-3.2-2.7-.1 0-.5.3-1 1.4-1.5 3.7-2.5 11.3-1.6 16.5.9 5.3 6.7 10.3 8.5 10.5 1.4-.2 4.4-6.1 4.7-9.5.2-2.6-.7-6.6-1.9-8.5 0 0-3.5-5.4-5.5-7.7z" fill="#000000" stroke-width="none" opacity="1"></path><path id="SvgjsPath73774" d="M52.9 78c2 1.3 3.6 3.5 4.3 6 0 .2-.2.2-.2.1 0 0 0-.1-.1-.1-.6-.5-1.2-1.1-1.9-1.1-1.1 0-1.1 1.4-.8 2.5.4 1.5 1.1 2.9 1.9 4.2.1.2-.1.3-.2.2-1.2-1.5-3-4.6-2.4-6.6.5-1.7 2-.9 3.1.1-.6-1.3-1.4-2.5-2.4-3.5-1.3-1.3-4.1-3.4-4.9-.9 0 .1-.2.1-.2-.1.1-2.5 2.6-1.7 3.8-.8z" fill="#000000" stroke-width="none" opacity="1"></path><path id="SvgjsPath73775" d="M56.7 92.6c1 2.5-1.2 3-2.5 1.9-2.1-1.7-3.5-5.5-3.5-8.4 0-.2.2-.2.2 0 .2 1.7.5 3.3 1.2 4.8.4.9 1 1.9 1.6 2.7.4.5.9.9 1.5 1.1 1.2 0 1.6-.7 1.3-2 0-.1.1-.2.2-.1z" fill="#000000" stroke-width="none" opacity="1"></path></g></g><g id="svga-group-ears-right-move" transform="matrix(1,0,0,1,0,0)"><g id="svga-group-ears-right" transform="matrix(1,0,0,1,0,0)"><path id="SvgjsPath73776" d="M138.2 82.4s3.6-5.4 5.6-7.8 4.7-5 6.3-1.1c1.6 3.9 2.5 11.6 1.6 16.9-.9 5.3-6.8 11-9.6 11.2-2.8.2-5.7-7.6-5.9-10.3-.3-2.8.6-6.9 2-8.9z" fill="#ffffff" stroke-width="none" opacity="1"></path><path id="SvgjsPath73777" d="M142.2 102.4c-.7 0-1.4-.1-2-.5-2.8-1.7-5-8.2-5.2-10.6-.3-2.9.7-7.1 2.1-9.3.1-.2 3.6-5.5 5.7-7.9 1.6-1.9 3.4-3.7 5.5-3.5 2 .2 2.7 2 2.9 2.6 1.6 3.9 2.6 11.8 1.6 17.2-.9 5.6-7 11.7-10.6 12zm-3-19.7c-1.2 1.9-2.1 5.8-1.9 8.5.3 3.4 3.2 9.4 4.7 9.5 1.9-.1 7.6-5.2 8.5-10.5.9-5.3-.1-12.8-1.6-16.5-.4-1.1-.9-1.4-1-1.4-.1 0-.9 0-3.2 2.7-1.9 2.3-5.4 7.7-5.5 7.7z" fill="#000000" stroke-width="none" opacity="1"></path><path id="SvgjsPath73778" d="M147.1 78c-2 1.3-3.6 3.5-4.3 6 0 .2.2.2.2.1 0 0 0-.1.1-.1.6-.5 1.2-1.1 1.9-1.1 1.1 0 1.1 1.4.8 2.5-.4 1.5-1.1 2.9-1.9 4.2-.1.2.1.3.2.2 1.2-1.5 3-4.6 2.4-6.6-.5-1.7-2-.9-3.1.1.6-1.3 1.4-2.5 2.4-3.5 1.3-1.3 4.1-3.4 4.9-.9 0 .1.2.1.2-.1-.1-2.5-2.6-1.7-3.8-.8z" fill="#000000" stroke-width="none" opacity="1"></path><path id="SvgjsPath73779" d="M143.3 92.6c-1 2.5 1.2 3 2.5 1.9 2.1-1.7 3.5-5.5 3.5-8.4 0-.2-.2-.2-.2 0-.2 1.7-.5 3.3-1.2 4.8-.4.9-1 1.9-1.6 2.7-.4.5-.9.9-1.5 1.1-1.2 0-1.6-.7-1.3-2 0-.1-.1-.2-.2-.1z" fill="#000000" stroke-width="none" opacity="1"></path></g></g><g id="svga-group-faceshape-wrap" transform="matrix(1,0,0,1,0,0)"><g id="svga-group-faceshape-single"><path id="SvgjsPath73850" d="M142.4 52.9c-2.3-11.1-15.1-28.1-42.4-28.1S63.6 37.9 59.5 47.5c-2.5 6.1-3.2 14.8-3.4 19.2 0 0 1.6 42.2 3.1 46 3 7.9 7.7 8.4 13.6 14.5 6.6 6.7 9.7 17 15.3 17 8.8-1.5 10.7-1.6 20 0 7.6 1.2 10.8-8.8 14.6-13.7 5.3-7 13.1-8.9 17.3-16.7 2.9-4.1 3.7-47.1 3.7-47.1.1-3-.2-8.6-1.3-13.8z" fill="#ffffff" stroke-width="none" opacity="1"></path><path id="SvgjsPath73851" d="M109.1 145.6c-.4 0-.7 0-1.1-.1-9-1.6-10.8-1.6-19.6 0-1.9.3-5.2-1-8.1-5.7-2.2-3.7-5-8.3-8.2-11.5-2.6-2.7-5.7-4.9-8.4-6.8-3.5-2.4-4.5-5.7-5.5-8.1-1.7-3.9-3-42.1-3.2-46.4.2-4.7.9-13.5 3.4-19.6C65 31.5 78.5 23.9 99.9 23.9c12.3 0 23.2 3.5 31.3 10.2 6.3 5.1 10.9 12.2 12.2 18.8 1.1 5.4 1.3 11.1 1.4 14.1-.1 4.4-.9 43.5-3.9 47.7-1.4 1.9-3.1 4.6-6.2 7-3.9 2.8-8.3 6-11.1 9.8-.9 1.3-1.9 2.9-2.9 4.7-2.6 4.7-6.8 9.4-11.6 9.4zM98 142.2c2.8 0 5.7.4 10.3 1.2 3.9.7 7.8-3.8 10.4-8.4 1-1.9 2-3.5 3-4.9 3.1-4.1 7.6-7.4 11.6-10.3 3-2.2 4.2-3.7 5.8-6.5 2-2.8 3.2-30 3.5-46.5 0-2.9-.3-8.5-1.4-13.7-1.3-6.2-5.6-12.8-11.5-17.6-7.7-6.4-18-9.7-29.9-9.7-20.3.2-33.2 7.4-39.4 22.2-2.4 5.8-3.1 14.3-3.3 18.9.6 16.9 1.9 43 3 45.6.6 2.3 1.7 4.9 4.7 7.2 2.8 1.9 5.9 4.2 8.7 7 3.4 3.4 6.2 8.2 8.5 11.9 2.7 4.4 4.3 4.8 5.9 4.6 4.6-.6 7.4-1 10.1-1z" fill="#000000" stroke-width="none" opacity="1"></path></g></g><g id="svga-group-mouth-single-move" transform="matrix(1,0,0,1,0,0)"><g id="svga-group-mouth-single" transform="matrix(1,0,0,1,0,0)"><path id="SvgjsPath73720" d="M114.1 114.2c0-.7-1.2-.6-1.1.1.2 5.2-10.1 3.8-13.2 3.8-2.2 0-4.3.1-6.4.1-1.8 0-8.2-.3-8.1-3.2 0-.7-1.1-.9-1.1-.2-.1 2.3 2.3 4.5 4.3 4.6 3.6.2 7.3-.1 11-.1 3.4 0 7.3.4 10.6-.4 2.2-.5 4.1-2.1 4-4.7zm-7.8 8.2c-4.7 2.9-10.5 2.6-14.8-.9-.6-.5-1.3.4-.7.9 4.8 3.8 11.1 4.1 16.3.9.6-.4-.1-1.3-.8-.9z" fill="#000000" stroke-width="none" opacity="1"></path></g></g><g id="svga-group-eyes-left-move" transform="matrix(1,0,0,1,0,0)"><g id="svga-group-eyes-left" transform="matrix(1,0,0,1,0,0)"><g id="svga-group-eyesback-left"></g><g id="svga-group-eyesiriswrapper-left"><g id="svga-group-eyesiriscontrol-left" transform="matrix(1,0,0,1,0,0)"><g id="svga-group-eyesiris-left" transform="matrix(1,0,0,1,0,0)"><path id="SvgjsPath73960" d="M75.2 84.6c-1.5 1.9-1.3 4.5.4 6 1.8 1.7 4.9 2.1 7.1.1 1.1-1.1 1.8-2.7 1.5-4.1-.1-.5-.3-1-.6-1.4-.2-.6-.5-1.1-1-1.5-2.1-1.9-5.6-1.5-7.4.9z" fill="#ffffff" stroke-width="none" opacity="1"></path><path id="SvgjsPath73961" d="M79.3 92.3c-1.5 0-2.9-.6-3.9-1.5-1.8-1.7-2-4.4-.4-6.4 1-1.2 2.4-2 4-2.1 1.4-.1 2.8.3 3.8 1.2.5.4.8 1 1.1 1.6.3.4.5 1 .6 1.5.3 1.4-.3 3.2-1.6 4.4-1.1.9-2.4 1.3-3.6 1.3zm-3.9-7.5c-1.4 1.7-1.2 4.1.4 5.6 1.7 1.5 4.7 2 6.6.1 1.1-1.1 1.7-2.6 1.4-3.8-.1-.4-.3-.9-.5-1.3v-.1c-.2-.5-.5-1-.9-1.4-.9-.8-2.1-1.2-3.3-1.1-1.5.2-2.8.9-3.7 2zm4.7 4.9c0-.1-.1-.1-.1-.2 0-.2 0-.4.1-.5.2-.3.4-.4.7-.4.2 0 .4.1.5.2l.2.2c.4-.4.6-.9.6-1.5 0-.5-.2-1-.5-1.3-.2-.7-.8-1.2-1.5-1.4-.4-.1-.9-.1-1.3 0 .3.8-.1 1.9-1.1 1.9-.3 0-.6-.1-.8-.2-.4 1-.2 2.2.7 3 .6.4 1.6.5 2.5.2z" fill="#000000" stroke-width="none" opacity="1"></path></g></g></g><g id="svga-group-eyesfront-left"><path id="SvgjsPath73816" d="M79 72.1c-8.2 0-14.8 6.6-14.8 14.8s6.6 14.8 14.8 14.8 14.8-6.6 14.8-14.8c0-8.1-6.6-14.8-14.8-14.8zm10.3 18.2c-.6.3-5.5 1.7-11.3 1.2s-9.2-1.6-9.2-1.6-2.1-.7-1.9-1.5 2.3-3.5 5.7-4.5 6.8-1 9.5-.3c2.6.6 6.2 2.8 7.3 4.1 1 1.3.5 2.2-.1 2.6z" fill="#ffffff" stroke-width="none" opacity="1"></path><path id="SvgjsPath73817" d="M90 88.1c-1.4-2.7-8.2-6.4-14.3-5.8-7.6.7-9.8 5.6-9.8 5.8-.1.3 0 .6.3.8.3.1.6 0 .8-.3.1-.2 2-4.4 8.9-5.1 5.8-.5 12 3.1 13.2 5.2.1.2.2.5.1.7-1.2 1.5-9.5 2.6-21.6-.5-.3-.1-.6.1-.7.4s.1.6.4.7c5.5 1.4 10.5 2.1 14.5 2.1 4.3 0 7.3-.7 8.3-1.9.1-.4.5-1-.1-2.1zm-2 3.6s-5 3.5-14.3 3.5c-.3 0-.6.3-.6.6s.3.6.6.6c9.7 0 14.8-3.6 15-3.7.3-.2.3-.6.1-.8-.1-.3-.5-.4-.8-.2zm-18.9 3.1c.3.1.6.1.8.1.1 0 .2-.2.1-.3-.6-.3-1.3-.5-1.9-.8s-1.2-.7-1.9-1c-.2-.1-.5.2-.2.4.5.4 1.2.9 1.9 1.2-.3-.1-.4.3-.2.4 1.5.9 3.5 1.7 5.3 1.9.2 0 .3-.2.1-.3-1.3-.6-2.6-1.1-4-1.6z" fill="#000000" stroke-width="none" opacity="1"></path></g></g></g><g id="svga-group-eyes-right-move" transform="matrix(1,0,0,1,0,0)"><g id="svga-group-eyes-right" transform="matrix(1,0,0,1,0,0)"><g id="svga-group-eyesback-right"></g><g id="svga-group-eyesiriswrapper-right"><g id="svga-group-eyesiriscontrol-right" transform="matrix(1,0,0,1,0,0)"><g id="svga-group-eyesiris-right" transform="matrix(1,0,0,1,0,0)"><path id="SvgjsPath73962" d="M117.2 84.6c-1.5 1.9-1.3 4.5.4 6 1.8 1.7 4.9 2.1 7.1.1 1.1-1.1 1.8-2.7 1.5-4.1-.1-.5-.3-1-.6-1.4-.2-.6-.5-1.1-1-1.5-2.1-1.9-5.6-1.5-7.4.9z" fill="#ffffff" stroke-width="none" opacity="1"></path><path id="SvgjsPath73963" d="M122.1 89.7c0-.1-.1-.1-.1-.2 0-.2 0-.4.1-.5.2-.3.4-.4.7-.4.2 0 .4.1.5.2l.2.2c.4-.4.6-.9.6-1.5 0-.5-.2-1-.5-1.3-.2-.7-.8-1.2-1.5-1.4-.4-.1-.9-.1-1.3 0 .3.8-.1 1.9-1.1 1.9-.3 0-.6-.1-.8-.2-.4 1-.2 2.2.7 3 .7.4 1.7.5 2.5.2zm-.8 2.6c-1.5 0-2.9-.6-3.9-1.5-1.8-1.7-2-4.4-.4-6.4 1-1.2 2.4-2 4-2.1 1.4-.1 2.8.3 3.8 1.2.5.4.8 1 1.1 1.6.3.4.5 1 .6 1.5.3 1.4-.3 3.2-1.6 4.4-1.1.9-2.3 1.3-3.6 1.3zm-3.9-7.5c-1.4 1.7-1.2 4.1.4 5.6 1.7 1.5 4.7 2 6.6.1 1.1-1.1 1.7-2.6 1.4-3.8-.1-.4-.3-.9-.5-1.3v-.1c-.2-.5-.5-1-.9-1.4-.9-.8-2.1-1.2-3.3-1.1-1.5.2-2.8.9-3.7 2z" fill="#000000" stroke-width="none" opacity="1"></path></g></g></g><g id="svga-group-eyesfront-right"><path id="SvgjsPath73818" d="M121 72.1c-8.2 0-14.8 6.6-14.8 14.8s6.6 14.8 14.8 14.8 14.8-6.6 14.8-14.8c0-8.1-6.6-14.8-14.8-14.8zm9.4 17.7s-3.4 1.1-9.2 1.6c-5.8.5-10.8-.8-11.3-1.2-.6-.3-1.1-1.3 0-2.6s4.7-3.5 7.3-4.1c2.6-.6 6-.7 9.5.3 3.4 1 5.5 3.7 5.7 4.5.1.9-2 1.5-2 1.5z" fill="#ffffff" stroke-width="none" opacity="1"></path><path id="SvgjsPath73821" d="M133.3 88.1c-.1-.2-2.3-5.1-9.8-5.8-6.1-.6-12.9 3.2-14.3 5.8-.5 1-.2 1.7 0 2 1 1.2 4 1.9 8.3 1.9 4 0 9.1-.6 14.5-2.1.3-.1.5-.4.4-.7-.1-.3-.4-.5-.7-.4-12.1 3.2-20.4 2-21.6.5-.1-.2 0-.5.1-.7 1.1-2.2 7.3-5.8 13.2-5.2 6.9.6 8.8 4.9 8.9 5.1.1.3.5.4.8.3.2-.1.3-.4.2-.7zm-7.9 7.1c-9.3 0-14.2-3.5-14.3-3.5-.3-.2-.6-.1-.8.1-.2.3-.1.6.1.8.2.2 5.3 3.7 15 3.7.3 0 .6-.3.6-.6s-.3-.5-.6-.5z" fill="#000000" stroke-width="none" opacity="1"></path></g></g></g><g id="svga-group-facehighlight-single"></g><g id="svga-group-eyebrows-left-move" transform="matrix(1,0,0,1,0,0)"><g id="svga-group-eyebrows-left-rotate" transform="matrix(1,0,0,1,0,0)"><g id="svga-group-eyebrows-left" transform="matrix(1,0,0,1,0,0)"><path id="SvgjsPath73732" d="M71.56 71.57c4.09-.17 10.75 3.28 13.7 4.98 2.94 1.7 6.34 1.7 5.89-1.02s-11.66-6.91-15.17-7.47c-3.51-.57-6.79 1.13-12.23 6.79 0 0 5.09-3.17 7.81-3.28z" fill="#ffffff" stroke-width="none" opacity="1"></path><path id="SvgjsPath73733" d="M63.35 75.18c.16.2.45.25.67.11.05-.03 5.01-3.1 7.56-3.21 3.37-.13 9.14 2.45 13.42 4.92 1.41.81 2.85 1.24 4.03 1.24.72 0 1.34-.16 1.8-.48.69-.48.98-1.3.82-2.31-.53-3.17-12.15-7.34-15.59-7.89-3.79-.61-7.23 1.27-12.68 6.94-.18.19-.19.48-.03.68zm7.74-4.08c-.56.02-1.8.07-2.68.11.59-.47 1.16-.88 1.7-1.22l2.22 1.08c-.27-.02-.54-.02-.8-.01-.13.01-.28.02-.44.04zm3.44.3a.24.24 0 0 0-.08-.06l-3.62-1.76c.47-.26.93-.46 1.38-.63l3.17 2.66c-.28-.08-.57-.14-.85-.21zm2.55.75-4.11-3.45c.58-.15 1.15-.22 1.72-.23l4.06 4.3c-.55-.21-1.11-.42-1.67-.62zm.16-3.29c0 .01 0 .01.01.02 1.26 1.57 2.93 3.66 4 5-.3-.14-.61-.28-.92-.42l-4.61-4.89c.06.01.12.01.18.01.38.05.84.15 1.34.28zm5.43 5.71c-.69-.88-3.1-3.88-4.32-5.41.62.18 1.28.4 1.96.64l3.66 5.45c-.39-.21-.83-.44-1.3-.68zm2.61 1.41L81.4 70.2c.57.21 1.15.44 1.73.68.01.01 0 .03.01.04l3.36 5.68c-.33-.14-.66-.3-.99-.49-.07-.04-.15-.09-.23-.13zm2.23.98-3.34-5.64c.63.28 1.25.56 1.83.85v.01l2.49 4.99c-.3-.05-.63-.11-.98-.21zm1.77.23-2.25-4.5c.62.33 1.19.66 1.69.98l1.05 3.45c-.16.04-.32.06-.49.07zm1.1-.38-.75-2.47c.58.47.94.91 1.01 1.28.11.69-.09 1.03-.26 1.19zm-23.63-4.18c.27-.25.53-.47.79-.69.22-.01.52-.02.84-.04-.56.22-1.11.47-1.63.73z" fill="#000000" stroke-width="none" opacity="1"></path></g></g></g><g id="svga-group-eyebrows-right-move" transform="matrix(1,0,0,1,0,0)"><g id="svga-group-eyebrows-right-rotate" transform="matrix(1,0,0,1,0,0)"><g id="svga-group-eyebrows-right" transform="matrix(1,0,0,1,0,0)"><path id="SvgjsPath73734" d="M128.44 71.57c-4.09-.17-10.75 3.28-13.7 4.98-2.94 1.7-6.34 1.7-5.89-1.02s11.66-6.91 15.17-7.47c3.51-.57 6.79 1.13 12.23 6.79 0 0-5.09-3.17-7.81-3.28z" fill="#ffffff" stroke-width="none" opacity="1"></path><path id="SvgjsPath73735" d="M136.62 74.5c-5.45-5.67-8.88-7.55-12.68-6.94-3.44.55-15.06 4.72-15.59 7.89-.17 1.01.12 1.83.82 2.31.46.32 1.08.48 1.8.48 1.18 0 2.62-.43 4.03-1.24 4.28-2.47 10.05-5.05 13.42-4.91 2.55.11 7.51 3.17 7.56 3.21.22.14.51.09.67-.11a.53.53 0 0 0-.03-.69zm-8.16-3.44c-.26-.01-.52 0-.8.01l2.22-1.08c.54.34 1.11.76 1.7 1.22-.88-.04-2.12-.09-2.68-.11-.15-.02-.3-.03-.44-.04zm-3.84.55 3.17-2.66c.45.16.91.37 1.38.63l-3.62 1.76c-.03.02-.06.04-.08.06-.28.07-.57.13-.85.21zm-3.37 1.17 4.06-4.3c.57 0 1.14.08 1.72.23l-4.11 3.45c-.56.19-1.12.4-1.67.62zm2.86-4.21c.06-.01.12-.01.18-.01l-4.61 4.89c-.31.14-.62.28-.92.42 1.07-1.34 2.74-3.43 4-5 0-.01 0-.01.01-.02.49-.12.95-.22 1.34-.28zm-8.08 6.68 3.66-5.45c.69-.24 1.35-.45 1.96-.64-1.22 1.52-3.63 4.53-4.32 5.41-.47.24-.91.47-1.3.68zm-1.54.86c-.33.19-.66.34-.99.49l3.36-5.68c.01-.01 0-.02.01-.04.58-.24 1.16-.47 1.73-.68l-3.88 5.78c-.08.04-.16.09-.23.13zm-2.99 1.05 2.49-4.99v-.01c.59-.29 1.2-.57 1.83-.85l-3.34 5.64c-.34.11-.67.17-.98.21zm-1.26-.04 1.05-3.45c.49-.32 1.07-.65 1.69-.98l-2.25 4.5c-.18-.01-.34-.03-.49-.07zm-.88-1.5c.06-.38.43-.81 1.01-1.28l-.75 2.47c-.17-.16-.37-.5-.26-1.19zm22.26-3.72c.33.01.62.03.84.04.26.22.52.44.79.69-.52-.26-1.07-.51-1.63-.73z" fill="#000000" stroke-width="none" opacity="1"></path></g></g></g><g id="svga-group-beardwrap" transform="matrix(1,0,0,1,0,0)"><g id="svga-group-beard-single-move" transform="matrix(1,0,0,1,0,0)"><g id="svga-group-beard-single" transform="matrix(1,0,0,1,0,0)"></g></g></g><g id="svga-group-mustache-single-move" transform="matrix(1,0,0,1,0,0)"><g id="svga-group-mustache-single" transform="matrix(1,0,0,1,0,0)"></g></g><g id="svga-group-nose-single-move" transform="matrix(1,0,0,1,0,0)"><g id="svga-group-nose-single" transform="matrix(1,0,0,1,0,0)"><path id="SvgjsPath73999" d="M98.92 93.95c1.67-.17 5.27 2.68 7.28 4.93 2.01 2.26 3.68 6.36 1.76 7.94-1.92 1.59-2.34.5-4.85 2.51s-3.43 2.43-5.19.67c-1.76-1.76-3.6-2.43-5.69-2.59-2.09-.17-2.17-3.18-1.51-4.77.67-1.58 3.35-8.19 8.2-8.69z" fill="#ffffff" stroke-width="none" opacity="1"></path><path id="SvgjsPath74000" d="M95.87 86.37c-2.3 5.24-4.2 10.53-5.58 16.08-.46 1.86-.89 4.11 1.08 5.31.8.49 1.67.41 2.57.46 1.73.1 2.47 1.27 3.64 2.32 1.29 1.15 2.92 1.71 4.42.64.88-.63 1.4-1.66 2.32-2.24 1.04-.66 2.37-.46 3.4-1.18 3.48-2.43.4-7.31-1.36-9.73-.43-.59-1.43-.02-.99.58.94 1.29 1.82 2.69 2.41 4.18.34.86.5 1.77.21 2.69-.45 1.45-1.62 1.62-2.88 1.94-1.49.38-2.16 1.33-3.22 2.35-2.2 2.12-3.74-.64-5.42-1.87-.51-.37-1.01-.62-1.63-.74-.9-.17-2.06.13-2.87-.38-1.47-.94-.87-2.69-.55-4.01.27-1.09.51-2.19.82-3.27 1.2-4.3 2.85-8.46 4.65-12.54.26-.68-.73-1.26-1.02-.59z" fill="#000000" stroke-width="none" opacity="1"></path></g></g><g id="svga-group-hair-front" transform="matrix(1,0,0,1,0,0)"><path id="SvgjsPath73938" d="M63.9 50.4c-1.1 2.2-2.6 6.8-3 13.5s1.7 21.2 0 23.5c-1.7 2.4-4.3 1.3-4.7-.6s-1.5-15-2.4-20.3-.6-18.8 0-20.5-.6-13.9.6-17.1c1.3-3.2 5.6-6.5 6.6-7.3 2.1-1.5 6-3.4 8.1-4.5C71.4 16 78.6 9 85.7 7s26.9-3 30.4-.4c3.4 2.6 7.3 4.9 9.6 6.2 2.4 1.3 10.3 5.3 13 8.3 2.8 3 5.1 12.8 5.8 16.9s1.9 13.5 1.7 17.5-.9 15-.9 18.2-.6 12.8-1.7 13.9c-1.1 1.1-4.7 1.1-5.1-1.1s1.1-16.2.2-21.8c-.9-5.6-3.4-15.6-5.1-18-1.7-2.4-5.8-10.5-10.3-10-4.5.4-12.8 6.2-22.7 6.8-6.4.4-16-2.8-21.4-6-5.3-3.1-10.2 2.4-15.3 12.9z" fill="#ffffff" stroke-width="none" opacity="1"></path><path id="SvgjsPath73939" d="M145.5 37.9c-.4-2.8-2.7-13.9-6-17.4-2.6-2.8-9.2-6.3-12.4-8l-.9-.5c-2.3-1.2-6.1-3.6-9.5-6.1-3.8-2.9-24.3-1.6-31.2.3-5.2 1.4-10.4 5.4-13.8 8.1-1.2 1-2.3 1.8-2.8 2.1-2.1 1.1-6.1 3-8.2 4.6-.1 0-5.4 3.8-7 7.7-.8 2.1-.7 7-.6 11.4.1 2.3.1 5.2-.1 5.8-.7 2-.9 15.7-.1 21 .5 2.8 1 7.9 1.4 12.3.4 4 .7 7.1.9 8.1.3 1.4 1.4 2.4 2.7 2.7.2 0 .5.1.7.1 1.2 0 2.3-.6 3.1-1.8 1.2-1.6 1-6.2.5-13.7-.2-3.8-.5-7.8-.3-10.4.5-7.7 2.3-12 2.9-13.1C68.6 43 72 38.8 75 37.9c1.2-.4 2.5-.2 3.7.6 5.6 3.4 15.3 6.6 22 6.1 6.1-.4 11.6-2.7 16-4.6 2.7-1.1 5-2.1 6.7-2.3 3.1-.3 6.4 5 8.2 7.8.5.7.9 1.4 1.2 1.8 1.5 2 4 11.6 5 17.5.5 3.2.2 9.4-.1 14.4-.2 4.1-.3 6.5-.1 7.4.2 1.1 1.1 2 2.3 2.4 1.6.5 3.6.1 4.5-.8 1.7-1.7 2-14.5 2-14.6 0-2.6.4-10.2.7-15.2l.2-2.9c.1-4-1.2-13.3-1.8-17.6zm-.3 17.6-.2 2.9c-.2 2.8-.3 6.3-.5 9.4-1.2 1.9-2.7 3.5-4.6 4.7.1-3.1.1-6-.2-7.9-.2-1.4-.6-3.3-1-5.3 2.8-1.8 5-4.2 6.5-7.1v3.3zm-10.4-8.7c3.8-3 6.6-6.9 8.2-11.5.2 1.1.4 2 .5 2.8.4 2.7 1.1 7.2 1.4 11.2-1.2 3.6-3.4 6.5-6.6 8.6-1-4.2-2.3-8.9-3.5-11.1zm-8.7-32.6c2 1.1 6 3.2 8.9 5.3-6.3 3.6-9.4 10.4-8.2 17.4-.5-.3-.9-.6-1.4-.7-3.3-2.4-6.2-5.2-8.5-8.6-3.3-4.8-7.5-17.1 1.9-17.7 2.4 1.6 4.8 3 6.4 3.9l.9.4zm-21-8.1c4.9 0 9.1.4 10.3 1.3.6.5 1.3.9 1.9 1.4-4.7 1.3-6.5 6.7-5.3 11.7 1.5 6.1 5.9 11.4 10.9 15.3h-.2c-7.6-.4-15.6-1.7-21.3-7.2-6.7-6.4-7.1-18.2 2.3-22.2.2-.1.2-.2.3-.3h1.1zM60.7 23.2C59.8 30 63.5 36.3 70 39c-1.4 1.5-2.8 3.5-4.3 6-6.9-2.3-11-8.7-10.2-15.8.9-2.3 3.5-4.7 5.2-6zM60 70.4c-3-1.6-4.5-4.9-5.5-8.2-.3-4.9-.2-11.2 0-14.2 1.2 3.1 3.6 5.7 6.7 7.2-.6 2.2-1.1 5.1-1.3 8.7-.1 1.7-.1 4 .1 6.5zm.1 16.4c-.5.7-1.1 1-1.8.9-.6-.1-1-.6-1.2-1.2-.2-.8-.5-4.2-.9-7.9-.4-4.3-.9-9.2-1.4-12.2 1.2 2.3 2.8 4.2 5.2 5.3.1.9.1 1.8.2 2.7.3 4.8.7 11.3-.1 12.4zM63 50c-.3.6-.9 1.9-1.5 3.9-3.5-1.8-5.8-5-6.6-8.8.1-1.1 0-2.8 0-5.3 0-1.3-.1-2.7-.1-4.1 1.5 4.8 5.1 8.6 10.2 10.4-.6 1.2-1.3 2.5-2 3.9zm11.5-14c-1.2.3-2.3 1-3.5 2.1-6.7-2.4-10.3-8.9-8.9-15.9 2.1-1.4 5.6-3.2 7.6-4.1.6-.3 1.4-.9 2.4-1.7-3 6.7 1.8 14.4 7 20.1-1.5-.9-3.1-1-4.6-.5zm26.1 6.6c-5.1.3-12.5-1.8-17.8-4.3-6.6-6.2-14.6-16.2-7.8-24.2 3.1-2.3 7.1-5 11-6.1 1.9-.5 4.7-1 7.7-1.3-5.9 3.7-9.1 10.6-8 17.8 1.3 8.7 7.7 14.9 15.5 18.1-.2-.1-.4 0-.6 0zm15.4-4.4c-3.5 1.5-7.6 3.2-12.2 4-7.4-2.4-13.9-7.3-16.2-15C85 18.7 88.7 9.7 97 6.4c1.5-.1 3-.2 4.5-.2-6.6 4-7.9 12.8-3.9 19.5 4.6 7.7 13.3 10.3 21.8 11.2-1.1.3-2.2.8-3.4 1.3zm12.4-.1c-1.9-7.2 1.1-14.3 7.8-17.8.7.5 1.3 1.1 1.8 1.6 1.7 1.8 3.3 6.7 4.4 11.1-1.3 5.2-4.1 9.6-8.3 12.9-.2-.4-.5-.8-.8-1.3-1.2-2-2.9-4.7-4.9-6.5zm14.5 48.8c-.3.3-1.5.6-2.5.3-.6-.2-.9-.4-.9-.8-.1-.7 0-3.9.2-6.9.1-1.7.2-3.6.2-5.4 1.8-1 3.3-2.3 4.6-3.9-.1 1.5-.1 2.8-.1 3.6-.1 3.9-.8 12.1-1.5 13.1z" fill="#000000" stroke-width="none" opacity="1"></path></g><g id="svga-group-glasses-single-move" transform="matrix(1,0,0,1,0,0)"><g id="svga-group-glasses-single" transform="matrix(1,0,0,1,0,0)"><path id="SvgjsPath73863" d="M81.31 72.09c-4.36-.64-9.29 0-14.37 5.47s-4.65 12.2-2.13 18.11c2.7 6.33 9.56 8.96 14.25 9.06 4.69.1 10.07-2.54 12.8-5.86s4.4-8.8 3.62-13.29c-.78-4.5-4.21-12.03-14.17-13.49z" fill="url(#SvgjsLinearGradient73864)" opacity="1"></path><path id="SvgjsPath73867" d="M118.48 72.09c4.36-.64 9.29 0 14.37 5.47s4.65 12.2 2.13 18.11c-2.7 6.33-9.56 8.96-14.25 9.06-4.69.1-10.07-2.54-12.8-5.86s-4.4-8.8-3.62-13.29c.78-4.5 4.2-12.03 14.17-13.49z" fill="url(#SvgjsLinearGradient73868)" opacity="1"></path><path id="SvgjsPath73871" d="M140.77 84.65c-.05-.3-.34-.15-2.02-.69-1.05-.34-1.74-1.16-2.12-1.72-.65-1.77-1.68-3.52-3.23-5.19-5.8-6.24-11.35-6.25-15.03-5.71-8.09 1.19-12.49 6.45-14.19 11.68-.45.13-1.13.19-1.96-.15-1.54-.62-2.13-.99-4.11-.26-1.45.54-1.99.66-2.5.4-1.71-5.23-6.11-10.49-14.19-11.68-3.68-.54-9.23-.54-15.03 5.71-1.55 1.67-2.58 3.42-3.23 5.19-.38.57-1.08 1.38-2.12 1.72-1.67.54-1.97.39-2.02.69s-.1 4.43-.05 4.77c.05.34 1.03.2 2.07.93.8.57 1.39 1.3 1.92 2.24.32 1.2.73 2.33 1.17 3.37 2.72 6.38 9.64 9.41 14.92 9.52h.27c4.7 0 10.18-2.55 13.13-6.14 2.13-2.58 3.5-6.19 3.86-9.68.36-1 1.07-2.71 1.95-3.41 1.28-1.03 2.16-1.61 3.63.48.7 1 1.24 2.1 1.6 2.98.37 3.48 1.74 7.06 3.86 9.63 2.95 3.59 8.44 6.14 13.13 6.14h.27c5.28-.11 12.2-3.14 14.92-9.52.44-1.04.85-2.17 1.17-3.37.52-.94 1.12-1.66 1.92-2.24 1.03-.74 2.02-.59 2.07-.93.04-.33-.01-4.46-.06-4.76zM91.28 98.39c-2.7 3.28-7.97 5.7-12.21 5.59-4.81-.1-11.12-2.84-13.57-8.61-2.02-4.74-3.32-11.59 1.99-17.31 4.12-4.43 8.08-5.44 11.2-5.44.91 0 1.75.09 2.51.2 10.76 1.58 13.09 10.25 13.54 12.87.71 4.08-.75 9.41-3.46 12.7zm43-3.01c-2.46 5.77-8.76 8.51-13.57 8.61-4.24.11-9.51-2.32-12.21-5.59-2.71-3.29-4.16-8.63-3.46-12.69.46-2.62 2.78-11.29 13.54-12.87.75-.11 1.59-.2 2.51-.2 3.13 0 7.09 1.01 11.2 5.44 5.31 5.7 4.01 12.56 1.99 17.3z" fill="#000000" stroke-width="none" opacity="1"></path></g></g></g></g></g><rect id="svga-credit-rect" width="200" height="15" x="0" y="185" fill="#ecf0f1" opacity="0.5" style="display: none;"></rect><text id="svga-credit-text" font-family="Avenir Next, Roboto, Helvetica, Arial, sans-serif" font-size="10px" text-anchor="start" font-weight="400" size="10px" anchor="start" weight="400" fill="#333333" x="33.402061462402344" y="182.71133995056152" style="display: none;"><tspan id="SvgjsTspan73185" dy="13" x="33.402061462402344">Created on AvatarMaker.com</tspan></text></g></svg>