<svg xmlns="http://www.w3.org/2000/svg" version="1.1" width="600px" height="600px" viewBox="0 0 200 200" style="overflow:hidden!important;"><defs id="SvgjsDefs32069"></defs><g id="svga-group-wrapper"><g id="svga-group-backs-single"></g><g id="svga-group-humanwrap-move" transform="matrix(1,0,0,1,0,0)"><g id="svga-group-humanwrap" transform="matrix(1,0,0,1,0,0)"><g id="svga-group-hair-back-move" transform="matrix(1,0,0,1,0,0)"><g id="svga-group-hair-back" transform="matrix(1,0,0,1,0,0)"></g></g><g id="svga-group-humanbody-back"><path id="SvgjsPath32479" d="M77.6 118.3c0 19.3 3.4 44.1-10 51.9-13.4 7.9-31.9 11.3-37.8 22s-4.4 25.3-4.4 25.3h149.3s.7-18.9-5.1-26.4c-8.1-10.4-27.8-15.5-37.7-20.9s-13.4-25.1-13.4-52.4l-40.9.5z" fill="#ffffff" stroke-width="none" opacity="1"></path><path id="SvgjsPath32480" d="M175.8 218.7H24.4l-.1-1c-.1-.6-1.5-15.1 4.5-26 4.1-7.4 13.5-11.3 23.5-15.5 5-2.1 10.2-4.3 14.8-6.9 10.6-6.2 10.1-23.9 9.6-41-.1-3.5-.2-6.8-.2-10v-1.1l43.2-.4v1.1c0 29.9 4.2 46.7 12.8 51.4 2.9 1.6 6.7 3.2 10.8 4.9 10 4.1 21.3 8.8 27.2 16.3 6.1 7.7 5.4 26.4 5.4 27.1l-.1 1.1zm-149.3-2.2h147.1c0-4.1-.2-18.5-4.9-24.6-5.5-7-16.6-11.6-26.3-15.6-4.1-1.7-8-3.3-11-5-5.1-2.8-8.7-8.9-10.9-18.7-2-8.4-2.9-19.4-3-33.5l-38.6.4c0 2.8.1 5.7.2 8.8.5 17.8 1 36.1-10.7 43-4.7 2.7-9.9 4.9-15 7.1-9.6 4-18.7 7.8-22.4 14.5-5 8.6-4.7 20.1-4.5 23.6z" fill="#000000" stroke-width="none" opacity="1"></path><path id="SvgjsPath32481" d="M93.9 153.8c-.5 1.8-.4 3.4.5 5.2.8 1.6 2.1 2.7 3.9 2.9.4 0 .7-.5.5-.8-1.6-2.2-3.5-4.2-3.7-7.1 0-.7-1-.9-1.2-.2zm18.6 33.7c8.8.5 18.1-.7 26.6-2.9.7-.2.6-1.4-.2-1.3-8.8 1.1-17.7 2-26.5 3.3-.5.1-.3.9.1.9zm-49.4-5c3.8.9 7.6 1.9 11.5 2.8 3.6.8 7.4 2 11.1 2.1.7 0 .8-.9.2-1.2-3.5-1.4-7.5-1.7-11.2-2.5-3.8-.7-7.5-1.3-11.3-2-.5 0-.7.7-.3.8z" fill="#000000" stroke-width="none" opacity="1"></path></g><g id="svga-group-chinshadow-single"></g><g id="svga-group-humanbody-front"></g><g id="svga-group-clothes-single"><path id="SvgjsPath32613" d="M71.6 164.7s3-7.6 3.5-10.7h1.2s10.7 16.1 21.4 23.9c0 0 16-9.8 25.6-21.8 0 0 6 11.3 9.5 18.3l-13.6 44.3H82.8l-17.4-39.1 6.2-14.9z" fill="#ffffff" stroke-width="none" opacity="1"></path><path id="SvgjsPath32614" d="M71.6 164.7s-3.1 2.7-6.4 3.9-7 2.9-7 2.9l1.5 1.4s-8.3 3.3-11.4 3.9-16.9 6.6-16.9 6.6-2.7-1.2-4.3 0-4.1 15.4-4.1 17.5v17.9h63.6c.1-.1-10.5-30.6-15-54.1z" fill="#ffffff" stroke-width="none" opacity="1"></path><path id="SvgjsPath32615" d="M128.1 164.7s3.1 2.7 6.4 3.9 7 2.9 7 2.9l-1.4 1.4s8.3 3.3 11.4 3.9 16.9 6.6 16.9 6.6 2.7-1.2 4.3 0 3.9 15.3 3.9 17.4v17.9H113s10.6-30.5 15.1-54z" fill="#ffffff" stroke-width="none" opacity="1"></path><path id="SvgjsPath32616" d="M173.3 182.7c-1.7-1.2-4-.6-4.9-.3-2.3-1-13.9-5.9-16.8-6.5-2.2-.4-7.3-2.4-9.8-3.3l.4-.4c.2-.2.3-.6.3-.9-.1-.3-.3-.6-.6-.7 0 0-3.8-1.7-7.1-2.9-3.1-1.2-6.1-3.7-6.1-3.7-.1-.1-.1-.1-.2-.1-2.3-4.4-4.3-8.1-4.3-8.2-.2-.3-.4-.5-.8-.5-.3 0-.7.1-.9.4-8.4 10.4-21.9 19.3-24.8 21.2-10.3-7.7-20.5-23.1-20.6-23.2-.2-.3-.5-.4-.8-.4h-1.2c-.5 0-.9.4-1 .8-.4 2.7-2.9 9-3.4 10.3-.7.6-3.3 2.6-5.9 3.6-3.3 1.2-7 2.9-7.1 2.9-.3.1-.5.4-.6.7-.1.3 0 .7.3.9l.4.4c-2.5 1-7.6 2.9-9.8 3.3-2.9.6-14.5 5.5-16.8 6.5-1-.3-3.2-1-4.9.3-2.2 1.7-4.3 16.6-4.3 18.1v17.9c0 .6.5 1 1 1h51.4c.1.1.2.1.3 0h95.5c.1.1.3.1.4 0h6.1c.6 0 1-.4 1-1V201c0-1.7-2.1-16.6-4.4-18.3zm-50.1-24.8c.8 1.5 2.2 4.3 3.8 7.3-1.9 9.6-4.8 20.4-7.5 29.7-2.6-2.9-8.7-9.8-11.2-12.2-2.2-2.2-6.1-4.1-8.3-5 4.2-2.8 15.4-10.7 23.2-19.8zm-20.1 59.8h-3.8c1.1-.9 2.1-1.9 3.1-2.9 1.2-1.1 2.3-2.2 3.4-3.4.1 1.2.2 2.3.3 3.3l-1.7 1.7-1.3 1.3zm-.9-3.5c-1.2 1.2-2.6 2.3-3.8 3.5h-2.8c3.4-3.1 6.7-6.3 9.8-9.7l.3 2.7c-1.2 1.1-2.3 2.3-3.5 3.5zm-10.8-32.9 1.5-.6c-.1.3-.3.6-.4.9-.2.4-.4.7-.5 1.1l-.6-1.4zm1.6.4c.2-.4.4-.8.6-1.3l1.5-.6c-.9 1.3-1.9 2.9-2.5 4.4l-.4-.9c.4-.5.6-1.1.8-1.6zm3.4 11.9c-.6.7-1.2 1.4-1.7 2.1.2-.9.4-1.7.6-2.3.3.1.7.2 1.1.2zm9.2-10.7c0 .1-.1.3-.2.5-1.9 2.7-3.8 5.5-5.6 8.4h-1.4c1.9-3.3 3.8-6.6 5.8-9.8.5.3 1 .6 1.4.9zm-4.1 10.8c.4 0 .8-.1 1.2-.1 0 .1.1.2.1.4-.1-.1-.1-.1-.2 0-.3.3-.6.6-.9.8-.1-.4-.2-.8-.2-1.1zm-2.8 4.8 1.2-1.2c.1 1.2.2 2.3.2 3-.4.4-.9.8-1.3 1.2-.1-.9-.1-1.9-.1-3zm3-3.2c.4-.4.7-.8 1.1-1.2v-.1c.2.8.5 1.9.8 3.1-.5.5-1.1.9-1.6 1.4-.1-.9-.2-2.1-.3-3.2zm-3 2.1c0-.9.1-1.8.1-2.8.2-.2.4-.4.7-.6.1.7.2 1.5.3 2.4-.4.3-.7.7-1.1 1zm.2-3.6h.1c-.1 0-.1.1-.1.1v-.1zm-4.5 3.3c.3-.4.6-.9.9-1.2.5-.7 1.1-1.4 1.6-2.1-.1.7-.1 1.4-.2 2.1-1 .9-1.9 1.9-2.8 2.9.2-.6.3-1.2.5-1.7zm-.8 3.2c1.1-1.2 2.1-2.3 3.2-3.5v2.5c-1.3 1.3-2.5 2.6-3.8 3.9.1-.8.3-1.8.6-2.9zm-.9 4.5c0-.1 0-.3.1-.4 1.3-1.3 2.7-2.6 4-3.9.1 1.1.1 2 .2 2.7-1.5 1.4-3 2.8-4.4 4.2-.1-1.1 0-2 .1-2.6zm-.3 7.8c4-3.8 8.1-7.6 12-11.5.2.9.3 1.8.5 2.6v.1c-4.3 3.8-8.5 7.8-12.5 12v-3.2zm0-1v-3.3c1.5-1.4 3.1-2.8 4.6-4.2.1.5.5.9 1 .9h.1c.6-.1.9-.6.9-1.1 0 0-.1-.6-.1-1.5.4-.4.9-.8 1.3-1.2 0 .5.5.9 1 .9.6 0 1-.4 1-1 0-.1 0-.8-.1-1.7.6-.5 1.1-1.1 1.6-1.6.2.9.4 1.9.7 3-4.3 3.1-8.4 6.8-12 10.8zm11.4-23.4c-.1.4-.3.7-.4 1.1-.5.8-1 1.5-1.5 2.3-.5.1-.9.1-1.3.1.8-1 1.4-2.2 2-3.2.8-1.2 1.5-2.4 2.2-3.5-.3 1-.7 2.2-1 3.2zm.2-6.3c-2.3 3.1-4.4 6.4-6.2 9.9-.8-.1-1.4-.2-1.7-.3 2.6-2.8 4.5-6.6 6.1-10 .1-.2-.2-.4-.3-.2-1.9 3.4-4.3 6.6-6.1 9.9v.1c-.1 0-.2-.1-.2-.1l-.6-1.5c2.2-2.9 4.1-6.2 5.9-9.3.1-.2-.2-.4-.3-.2-2 2.9-4.1 5.8-5.9 8.9l-.4-.9c1.6-2.8 3.2-5.5 4.9-8.3.1-.1-.1-.3-.2-.1-1.8 2.4-3.5 5.1-4.9 7.8l-.4-1.1c1.4-2.4 2.7-4.9 4.3-7.3.1-.1-.1-.3-.2-.1-1.5 2.1-3.1 4.4-4.3 6.8l-.4-1c.4-.8.8-1.7 1.2-2.5.5-1 1.1-1.9 1.7-2.8.8-.3 1.4-.5 1.9-.7.8.3 3.6 1.5 6.1 3zm-28.1-26.8c1.9 2.9 10.6 15.2 19.8 22.4-2.4.9-6.7 2.5-8.4 3.7-1.8 1.2-6.1 6.7-8.3 9.6-2.4-8.4-4.8-17.6-6.4-25.9.5-1.4 2.6-6.6 3.3-9.8zm-50.8 38.3c2.1-2.3 4.3-4.6 6.3-7 .2.5.4 1.1.6 1.8-2.5 2.6-5 5.2-7.4 7.9.2-.8.3-1.7.5-2.7zm-1.1 7.5c0-.1 0-.1 0 0 3-3.1 6-6.2 8.9-9.4.3 1.1.6 2.3.9 3.6-3.6 2.8-6.8 6.4-9.8 9.9v-4.1zm.1-.9c.1-.8.2-1.8.4-3.1 2.6-2.6 5.1-5.4 7.7-8.1.2.6.3 1.2.5 1.9-2.9 3.1-5.8 6.2-8.6 9.3zm3.5-15.7c.8-.6 2.2-.3 3 0 .1.3.3.8.6 1.6-2 2.1-4 4.4-5.9 6.7.7-3.9 1.6-7.7 2.3-8.3zm-.1 33.4c.8-.6 1.5-1.2 2.1-2 .1-.1-.1-.3-.2-.2-1 .6-1.8 1.5-2.5 2.3H24h.1c1.6-1.8 3.4-3.5 4.8-5.4.1-.2-.1-.4-.3-.2-1.7 1.5-3.1 3.3-4.6 5v-3.1c2-2.2 4-4.3 5.7-6.6.1-.1-.1-.3-.3-.2-2 1.9-3.7 4-5.5 6v-3c2.6-2.7 5.3-5.4 7.6-8.4.1-.2-.1-.3-.3-.2-2.6 2.4-5 5.2-7.3 7.9v-3.7c3.2-3.4 6.8-6.5 10-9.9 0 .1.1.2.1.3 2 8.3 2.6 18.7 2.8 21.6l-9.3-.2zm8.5-22.1c-1.6-6.8-2.8-10.1-3.4-11.6 5-2.1 13.6-5.7 15.8-6.1 2.2-.4 7-2.2 9.6-3.2 0 .2-.1.3-.1.5 0 .1.2.2.2.1.1-.2.2-.5.3-.7.3-.1.6-.2.8-.3l.2.2c-.9 1.3-1.8 2.7-2.4 4.1-.1.2.2.3.3.2.9-1.2 1.7-2.6 2.4-4l.5.4c-.6 1-1.2 2.1-1.7 3.2l-2 1.2c-.4.3-.6.9-.3 1.3l.7 1.3c-.3.7-.7 1.4-.8 2.1 0 .1.2.2.2.1.3-.5.6-1.1.9-1.7l.7 1.3c-.4.9-.9 1.8-1.1 2.7 0 .2.2.3.3.1.4-.8.7-1.7 1-2.5l.6 1.2c-.5 1.1-1 2.2-1.4 3.4 0 .2.2.3.3.1.5-1 .9-2 1.3-3.1l.6 1.2c-.7 1.3-1.5 2.6-2 4-.1.2.2.3.3.1.8-1.2 1.3-2.5 1.9-3.8l.5 1c-.3.7-.6 1.4-1 2.1-.3.7-.7 1.4-.9 2.1 0 .2.2.2.3.1.4-.6.7-1.4 1-2.1.3-.6.5-1.3.8-1.9l.9 1.7c-.3.6-.6 1.2-.8 1.8-.3.6-.7 1.3-.8 2 0 .1.2.3.3.2.5-.6.7-1.4 1-2.1.2-.5.4-.9.6-1.4l.8 1.6c-.6 1.4-1.2 2.8-1.4 4.2 0 .2.3.2.3.1.7-1.1 1-2.4 1.4-3.7l1 1.8c-.5 1.4-1.1 2.8-1.5 4.2-.1.2.2.3.4.2.7-1.1 1.2-2.4 1.4-3.8l1.1 2c-.5 1.4-1 3-1.1 4.4 0 .2.2.2.3.1.6-1.2.8-2.6 1.1-3.9l.9 1.7c-.6 1.5-1.4 3.1-1.8 4.7 0 .2.2.3.3.1.7-1.3 1.2-2.9 1.7-4.3l.8 1.6c-.7 1.7-1.3 3.4-1.9 5.1-.1.3.3.4.5.2.1-.1.2-.2.2-.3.1-.1 0-.2-.1-.2.5-1.4 1-2.9 1.5-4.3l1 1.8c-.8 1.4-1.4 3-1.8 4.5-.1.3.4.4.5.1.5-1.4.9-2.9 1.5-4.3l2.2 4.3c-.6 1.6-1.3 3.2-1.7 4.9-.1.2.3.4.4.2.7-1.4 1.1-3 1.5-4.5l1.4 2.6c-.8 1.9-1.5 3.8-2.1 5.7v.1h-32c.3-2.9-.3-13.6-2.4-22.2zm25.9-19.5-2.3 1.5 1.2-2.4 1.1.9zm12 41.6c.2-.5.3-1 .4-1.5.1-.4.2-.7.3-1.1l.7 1.3c-.2.4-.3.8-.4 1.2l-1 .1zm-.1-1.6c-.2.5-.4 1.1-.5 1.6h-1.9c.7-1.7 1.3-3.4 1.8-5.2l1.1 2.1c-.1.5-.3 1-.5 1.5zm1.7 1.6c.1-.2.1-.4.2-.6l.3.6h-.5zm2.7 0-19.6-37.2L69 174c.5-.3.6-.9.3-1.4-.3-.5-.9-.6-1.4-.3l-4.2 2.7-3.4-2.8-.4-.4c1.4-.6 3.6-1.5 5.6-2.3 2.1-.8 4.1-2.1 5.4-3.1 1.7 8.6 4.2 17.9 6.6 26.3-.1.3 0 .6.3.9 3.2 11.2 6.3 20.6 7.5 24l-7.1.1zm9.2 0c-.9-2.6-4.2-12.5-7.7-24.6 2.2-2.9 7.1-9.2 8.7-10.3.3-.2.7-.4 1.2-.7l4 9.8c-.5 1.7-2.5 9.2-3 12.6-.2 1.1-.2 2.9-.3 4.7-.1.1-.1.3 0 .4v4.1l-.3.3c-.2.2.1.5.3.4 0 1.4.1 2.5.1 3.2l-3 .1zm5.1-1c4.2-4.1 8.2-8.3 12.5-12.2.1.9.3 2 .4 3.1-3.5 3.5-7.1 6.9-10.7 10.2h-2.1c-.1-.4-.1-.7-.1-1.1zm11.5 1c.3-.3.6-.7.8-1 .4-.5.9-1 1.3-1.5.1 1 .2 1.9.2 2.5H104zm8.3 0h-3.9c-.2-2.6-.9-10.1-1.5-14.3-.7-4.5-2.1-9.8-2.4-11 .2-.6.7-2.1 1.2-3.5.8-2.2 1.3-3.6 1.6-4.5 3 3 9.9 10.9 11.6 12.8-3.1 10.1-5.8 18.2-6.6 20.5zm2.1 0c2-6 10.2-30.9 14.3-51.2 1.3.9 3.3 2.3 5.4 3.1 2 .8 4.3 1.7 5.6 2.3l-.4.4-3.3 2.7-4.2-2.7c-.5-.3-1.1-.2-1.4.3s-.2 1.1.3 1.4l10.3 6.6-19.6 37.2-7-.1zm9.3 0 19.5-37c.2-.5.1-1-.4-1.3l-5.1-3.2 2.5-2c1.9.8 8.3 3.2 11 3.8 2.2.4 10.8 4 15.8 6.1-.6 1.5-1.8 4.8-3.4 11.6-2.1 8.6-2.7 19.2-2.8 22.1l-37.1-.1zm39.4-3.3c2.4-2.2 4.6-4.6 6.9-6.9.2-.2-.1-.4-.3-.3-2.2 2.1-4.4 4.1-6.6 6.3.1-.9.1-1.8.2-2.9.7-.8 1.4-1.6 2.1-2.3 1.2-1.3 2.4-2.6 3.7-3.8.2-.2-.1-.4-.3-.3-1.4 1.3-2.7 2.6-4 3.9-.5.5-.9 1-1.4 1.4.1-.8.2-1.6.3-2.5 1.3-1.5 2.5-3.1 3.8-4.6.2-.2-.1-.5-.3-.3-1.1 1.3-2.2 2.6-3.3 3.8.1-.8.2-1.7.3-2.5.1-.1.2-.3.4-.4.7-.8 1.4-1.6 2.1-2.3.1-.2-.1-.4-.2-.2-.7.7-1.4 1.5-2.1 2.2.2-1 .3-2.1.5-3.1.2-.2.3-.4.5-.6.3-.4.6-.7.9-1.1.1-.2-.1-.3-.3-.2-.4.3-.7.6-1 1l.6-2.7c1.9-7.8 3.1-10.9 3.5-11.8.8-.3 2.2-.6 3 0 1.2 1.2 3.6 14.1 3.6 16.6V217c-.3.2-.6.5-.9.7h-2.3c.9-1 1.7-2 2.6-2.9.2-.2-.1-.5-.3-.3-1.1 1.1-2.2 2.1-3.2 3.2h-3.4c1.9-1.7 3.8-3.5 5.7-5.2.2-.2-.1-.5-.3-.3-2.1 1.9-4.2 3.7-6.2 5.6h-3.7c2.7-2.2 5.2-4.8 7.7-7.2.2-.2-.1-.5-.3-.3-2.7 2.5-5.6 4.8-8.1 7.5h-.1c0-.8 0-2 .2-3.4zm12.5 3.3.1-.1v.1h-.1zM69.4 206.2c-.5 1.7-1.3 3.5-1.5 5.3 0 .2.2.2.3.1.8-1.6 1.1-3.6 1.5-5.3.1-.2-.3-.3-.3-.1z" fill="#000000" stroke-width="none" opacity="1"></path></g><g id="svga-group-head" transform="matrix(1,0,0,1,0,0)"><g id="svga-group-ears-left-move" transform="matrix(1,0,0,1,0,0)"><g id="svga-group-ears-left" transform="matrix(1,0,0,1,0,0)"><path id="SvgjsPath32638" d="M59.9 81.9s-4.4-4.7-5.8-6.2c-1.4-1.4-3.1-4.7-5-4.1-1.9.5-1.2 2.7-1.3 5.8-.1 3.1.3 9.1 2.2 12.4 1.9 3.3 2.9 4.5 3.5 8 .6 3.5 2.8 4.2 4.1 3.2 1.3-1 4.3-7 4.4-10.2 0-3.2-1.2-7.5-2.1-8.9z" fill="#ffffff" stroke-width="none" opacity="1"></path><path id="SvgjsPath32639" d="M55.2 102.2c-.8-.3-2.3-1.3-2.8-4.2-.5-2.9-1.2-4-2.7-6.5l-.6-1.1c-2.1-3.6-2.5-10.1-2.4-13v-2c0-2-.1-4.1 2.1-4.7 2.1-.6 3.7 1.5 5 3.2.4.5.7.9 1 1.2 1.4 1.4 5.8 6.2 5.8 6.2l.1.1c.9 1.4 2.3 6 2.2 9.4-.1 3.4-3.2 9.8-4.8 11-.5.4-1.2.6-1.8.6-.4 0-.7-.1-1.1-.2zm-1.8-25.7c-.4-.4-.7-.9-1.1-1.4-.8-1.1-2.1-2.7-2.9-2.5-.6.2-.7.6-.6 2.8v2.1c-.1 3.1.3 8.9 2.1 11.9l.6 1.1c1.5 2.6 2.4 4 3 7.2.3 1.4.8 2.4 1.5 2.7.3.1.7.1 1-.1 1-.8 3.9-6.5 4-9.4.1-3-1.1-7.1-1.8-8.2-.7-.7-4.6-4.9-5.8-6.2z" fill="#000000" stroke-width="none" opacity="1"></path><path id="SvgjsPath32640" d="M48.2 76.3c.5-1.9 2.1-1 3 .4 1.9 2.6 3.2 6.6 3.6 10 0 .1-.1.2-.1.1-.1.1-.2.1-.2-.1-1.2-.5-1.6-.2-1.2.8 0 .3.1.6.3.9.2.5.6 1 .9 1.5.5.8 1.2 1.5 1.7 2.3.2.3 0 .6-.2.4-1.4-1-3.9-4.3-3.2-6.6.3-.8 1-1.1 1.5-.7-1.1-3.6-4-12-5.8-8.8-.1.1-.3 0-.3-.2z" fill="#000000" stroke-width="none" opacity="1"></path><path id="SvgjsPath32641" d="M51.1 76.8c-1 2-1.4 4.4-.9 7.1.3 1.5 2.9 9.5 4.9 8.4.2-.1.4.3.2.5-2 1.8-4.2-4.5-4.9-6.5-1.1-3.4-1.4-7.5.5-9.7.1-.1.2.1.2.2z" fill="#000000" stroke-width="none" opacity="1"></path></g></g><g id="svga-group-ears-right-move" transform="matrix(1,0,0,1,0,0)"><g id="svga-group-ears-right" transform="matrix(1,0,0,1,0,0)"><path id="SvgjsPath32642" d="M140.1 81.9s4.4-4.7 5.8-6.2c1.4-1.4 3.1-4.7 5-4.1 1.9.5 1.2 2.7 1.3 5.8s-.3 9.1-2.2 12.4c-1.9 3.3-2.9 4.5-3.5 8-.6 3.5-2.8 4.2-4.1 3.2-1.3-1-4.3-7-4.4-10.2 0-3.2 1.2-7.5 2.1-8.9z" fill="#ffffff" stroke-width="none" opacity="1"></path><path id="SvgjsPath32643" d="M143.7 102.4c-.6 0-1.3-.2-1.8-.6-1.5-1.2-4.7-7.5-4.8-11-.1-3.4 1.2-8 2.2-9.4l.1-.1s4.4-4.7 5.8-6.2c.3-.3.6-.8 1-1.2 1.3-1.7 2.9-3.8 5-3.2 2.2.6 2.1 2.7 2.1 4.7v2c.1 2.9-.2 9.4-2.4 13l-.6 1.1c-1.5 2.5-2.2 3.7-2.7 6.5-.5 2.9-2 3.9-2.8 4.2-.4.1-.7.2-1.1.2zm-2.8-19.9c-.7 1.2-1.9 5.2-1.8 8.2.1 2.9 2.9 8.6 4 9.4.3.2.6.3 1 .1.7-.3 1.3-1.3 1.5-2.7.6-3.2 1.4-4.7 3-7.2l.6-1.1c1.8-3 2.2-8.7 2.1-11.9v-2.1c.1-2.2 0-2.6-.6-2.8-.8-.2-2 1.4-2.9 2.5-.4.5-.8 1-1.1 1.4-1.3 1.5-5.2 5.7-5.8 6.2z" fill="#000000" stroke-width="none" opacity="1"></path><path id="SvgjsPath32644" d="M151.8 76.3c-.5-1.9-2.1-1-3 .4-1.9 2.6-3.2 6.6-3.6 10 0 .1.1.2.1.1.1.1.2.1.2-.1 1.2-.5 1.6-.2 1.2.8 0 .3-.1.6-.3.9-.2.5-.6 1-.9 1.5-.5.8-1.2 1.5-1.7 2.3-.2.3 0 .6.2.4 1.4-1 3.9-4.3 3.2-6.6-.3-.8-1-1.1-1.5-.7 1.1-3.6 4-12 5.8-8.8.1.1.3 0 .3-.2z" fill="#000000" stroke-width="none" opacity="1"></path><path id="SvgjsPath32645" d="M148.9 76.8c1 2 1.4 4.4.9 7.1-.3 1.5-2.9 9.5-4.9 8.4-.2-.1-.4.3-.2.5 2 1.8 4.2-4.5 4.9-6.5 1.1-3.4 1.4-7.5-.5-9.7-.1-.1-.2.1-.2.2z" fill="#000000" stroke-width="none" opacity="1"></path></g></g><g id="svga-group-faceshape-wrap" transform="matrix(1,0,0,1,0,0)"><g id="svga-group-faceshape-single"><path id="SvgjsPath32712" d="M143.8 68.6c-.1-3.3-.3-9-1.4-14.4-2.3-11.6-15.1-29.3-42.4-29.3S63.6 38.4 59.6 48.5c-2.5 6.3-3.2 15.5-3.4 20 0 0-1.7 23.4 1.3 28.8 3 5.3 9.6 11.4 14.5 20.9 3.6 7 3.5 17.6 8.5 21.7s30.2 4.4 35.7 1.3c5.5-3.1 6.6-11.8 10.3-18.8 3.9-7.4 12.4-16.3 15.7-21 3.1-4.8 1.6-32.8 1.6-32.8z" fill="#ffffff" stroke-width="none" opacity="1"></path><path id="SvgjsPath32713" d="M100.9 144.4c-8.7 0-18.1-1.2-21.1-3.7-3.2-2.6-4.5-7.5-5.7-12.6-.8-3.2-1.7-6.6-3.1-9.3-2.9-5.6-6.3-10-9.4-13.8-2.1-2.6-3.9-4.9-5.1-7.1-3.1-5.4-1.6-26.8-1.4-29.4.2-4.9.9-14 3.4-20.4 6.6-16.5 20.1-24.4 41.5-24.4 12.3 0 23.2 3.7 31.3 10.6 6.3 5.3 10.9 12.7 12.2 19.6 1.1 5.6 1.3 11.6 1.4 14.6.2 3.1 1.4 28.5-1.9 33.4-1.2 1.8-3.1 4.1-5.2 6.6-3.6 4.4-8 9.8-10.4 14.3-1.2 2.2-2.1 4.8-3 7.1-1.9 5.1-3.7 10-7.7 12.2-2.6 1.6-9 2.3-15.8 2.3zM100 26c-20.3 0-33.2 7.5-39.4 23-2.4 6.1-3.1 14.9-3.3 19.6-.5 6.4-1.2 24 1.1 28.1 1.2 2 2.9 4.3 4.9 6.8 3.1 4 6.6 8.3 9.6 14.1 1.5 2.9 2.4 6.5 3.2 9.9 1.2 4.8 2.3 9.3 5 11.4 4.5 3.7 29.4 4.1 34.4 1.2 3.3-1.8 4.9-6.3 6.7-11 .9-2.4 1.9-5 3.1-7.4 2.5-4.8 7-10.4 10.7-14.7 2.1-2.5 3.9-4.8 5.1-6.5 2.2-3.2 2.1-20.9 1.6-32 0-3.1-.3-8.8-1.4-14.2-1.3-6.5-5.6-13.3-11.5-18.3-7.7-6.5-18-10-29.8-10z" fill="#000000" stroke-width="none" opacity="1"></path></g></g><g id="svga-group-mouth-single-move" transform="matrix(1,0,0,1,0,0)"><g id="svga-group-mouth-single" transform="matrix(1,0,0,1,0,0)"><path id="SvgjsPath32572" d="M114.07 122.53c-2.77.92-5.12-.93-7.77-1.33-2.22-.34-3.67 1.03-5.76 1.07-2.16.04-3.87-1.48-6.13-1.2-2.67.33-4.97 2.19-7.74 1.2-.72-.26-1.03.89-.32 1.15 2.38.85 4.33-.11 6.63-.78 1.63-.48 3.04-.47 4.64.15.96.37 1.9.81 2.95.79.68-.01 1.27-.22 1.9-.46 2.01-.76 3.55-.88 5.64-.18 2.15.71 4.03 1.49 6.27.75.73-.25.42-1.41-.31-1.16z" fill="#000000" stroke-width="none" opacity="1"></path><path id="SvgjsPath32573" d="M89.08 120.01c3.33-2.12 7.22-4.39 11.15-2.37a.3.3 0 0 0 .18.03c.04.01.09 0 .13-.01 3.68-1.25 7.57-.4 10.38 2.29.28.27.7-.16.42-.42-2.94-2.82-7.07-3.75-10.93-2.45-4.09-2.02-8.13.19-11.63 2.42-.32.2-.02.72.3.51z" fill="#000000" stroke-width="none" opacity="1"></path><path id="SvgjsPath32574" d="M107.89 127.49c-5.48 1.72-11.21 1.4-16.45-.94-.35-.15-.65.36-.3.51 5.39 2.41 11.27 2.77 16.91 1 .37-.11.21-.68-.16-.57z" fill="#000000" stroke-width="none" opacity="1"></path></g></g><g id="svga-group-eyes-left-move" transform="matrix(1,0,0,1,0,0)"><g id="svga-group-eyes-left" transform="matrix(1,0,0,1,0,0)"><g id="svga-group-eyesback-left"></g><g id="svga-group-eyesiriswrapper-left"><g id="svga-group-eyesiriscontrol-left" transform="matrix(1,0,0,1,0,0)"><g id="svga-group-eyesiris-left" transform="matrix(1,0,0,1,0,0)"><path id="SvgjsPath32759" d="M75.2 84.6c-1.5 1.9-1.3 4.5.4 6 1.8 1.7 4.9 2.1 7.1.1 1.1-1.1 1.8-2.7 1.5-4.1-.1-.5-.3-1-.6-1.4-.2-.6-.5-1.1-1-1.5-2.1-1.9-5.6-1.5-7.4.9z" fill="#ffffff" stroke-width="none" opacity="1"></path><path id="SvgjsPath32760" d="M79.3 92.3c-1.5 0-2.9-.6-3.9-1.5-1.8-1.7-2-4.4-.4-6.4 1-1.2 2.4-2 4-2.1 1.4-.1 2.8.3 3.8 1.2.5.4.8 1 1.1 1.6.3.4.5 1 .6 1.5.3 1.4-.3 3.2-1.6 4.4-1.1.9-2.4 1.3-3.6 1.3zm-3.9-7.5c-1.4 1.7-1.2 4.1.4 5.6 1.7 1.5 4.7 2 6.6.1 1.1-1.1 1.7-2.6 1.4-3.8-.1-.4-.3-.9-.5-1.3v-.1c-.2-.5-.5-1-.9-1.4-.9-.8-2.1-1.2-3.3-1.1-1.5.2-2.8.9-3.7 2zm4.7 4.9c0-.1-.1-.1-.1-.2 0-.2 0-.4.1-.5.2-.3.4-.4.7-.4.2 0 .4.1.5.2l.2.2c.4-.4.6-.9.6-1.5 0-.5-.2-1-.5-1.3-.2-.7-.8-1.2-1.5-1.4-.4-.1-.9-.1-1.3 0 .3.8-.1 1.9-1.1 1.9-.3 0-.6-.1-.8-.2-.4 1-.2 2.2.7 3 .6.4 1.6.5 2.5.2z" fill="#000000" stroke-width="none" opacity="1"></path></g></g></g><g id="svga-group-eyesfront-left"><path id="SvgjsPath32682" d="M79 72.1c-8.2 0-14.8 6.6-14.8 14.8s6.6 14.8 14.8 14.8 14.8-6.6 14.8-14.8c0-8.1-6.6-14.8-14.8-14.8zm4.1 22.2c-3.7-.2-6.6-1.6-9.8-3.7-3.1-2.1-5.2-7.2-4-8.6 1.3-1.4 3.3-1.8 10-.3s8 5.7 8.6 7.4c.5 1.7.5 5 .5 5s-1.6.4-5.3.2z" fill="#ffffff" stroke-width="none" opacity="1"></path><path id="SvgjsPath32683" d="M86 84.7c-2.4-2.8-8.5-4.6-12.6-4.6-2.2 0-3.8.5-4.7 1.5-.5.6-1 1.6-.4 3.3 1.1 3.5 5.9 8.1 9.5 9.1 3.5 1 7 1.2 8.8 1.1h.2c-1.7.5-3.3 1.2-4.9 1.9-.2.1-.1.4.2.4 1.8-.3 3.9-1 5.6-1.9.2-.1.2-.4 0-.5.1 0 .1 0 .2-.1.3-.1.4-.4.3-.7v-.1h.2c.3 0 .6-.2.6-.5.1-.2.4-5-3-8.9zm1.7 9h-.2c-.5.2-4.8.3-9.4-.9-3.3-.9-7.8-5.2-8.7-8.3-.3-1-.2-1.7.2-2.3.6-.7 2-1.1 3.8-1.1 4.3 0 9.8 2 11.7 4.2 3.1 3.5 2.7 8 2.7 8 0 .1 0 .2.1.3 0 .2-.1.1-.2.1zm-2 2.8c-2.1.8-4.2 1.4-6.4 2.2-.2.1-.2.4.1.4 2.3-.3 4.5-1.1 6.5-2.2.2-.1 0-.5-.2-.4z" fill="#000000" stroke-width="none" opacity="1"></path></g></g></g><g id="svga-group-eyes-right-move" transform="matrix(1,0,0,1,0,0)"><g id="svga-group-eyes-right" transform="matrix(1,0,0,1,0,0)"><g id="svga-group-eyesback-right"></g><g id="svga-group-eyesiriswrapper-right"><g id="svga-group-eyesiriscontrol-right" transform="matrix(1,0,0,1,0,0)"><g id="svga-group-eyesiris-right" transform="matrix(1,0,0,1,0,0)"><path id="SvgjsPath32761" d="M117.2 84.6c-1.5 1.9-1.3 4.5.4 6 1.8 1.7 4.9 2.1 7.1.1 1.1-1.1 1.8-2.7 1.5-4.1-.1-.5-.3-1-.6-1.4-.2-.6-.5-1.1-1-1.5-2.1-1.9-5.6-1.5-7.4.9z" fill="#ffffff" stroke-width="none" opacity="1"></path><path id="SvgjsPath32762" d="M122.1 89.7c0-.1-.1-.1-.1-.2 0-.2 0-.4.1-.5.2-.3.4-.4.7-.4.2 0 .4.1.5.2l.2.2c.4-.4.6-.9.6-1.5 0-.5-.2-1-.5-1.3-.2-.7-.8-1.2-1.5-1.4-.4-.1-.9-.1-1.3 0 .3.8-.1 1.9-1.1 1.9-.3 0-.6-.1-.8-.2-.4 1-.2 2.2.7 3 .7.4 1.7.5 2.5.2zm-.8 2.6c-1.5 0-2.9-.6-3.9-1.5-1.8-1.7-2-4.4-.4-6.4 1-1.2 2.4-2 4-2.1 1.4-.1 2.8.3 3.8 1.2.5.4.8 1 1.1 1.6.3.4.5 1 .6 1.5.3 1.4-.3 3.2-1.6 4.4-1.1.9-2.3 1.3-3.6 1.3zm-3.9-7.5c-1.4 1.7-1.2 4.1.4 5.6 1.7 1.5 4.7 2 6.6.1 1.1-1.1 1.7-2.6 1.4-3.8-.1-.4-.3-.9-.5-1.3v-.1c-.2-.5-.5-1-.9-1.4-.9-.8-2.1-1.2-3.3-1.1-1.5.2-2.8.9-3.7 2z" fill="#000000" stroke-width="none" opacity="1"></path></g></g></g><g id="svga-group-eyesfront-right"><path id="SvgjsPath32684" d="M121 72.1c-8.2 0-14.8 6.6-14.8 14.8s6.6 14.8 14.8 14.8 14.8-6.6 14.8-14.8c0-8.1-6.6-14.8-14.8-14.8zm6.4 18.5c-3 2.3-5.9 3.8-9.5 4.2s-5.4 0-5.4 0-.1-3.3.3-5 1.6-6 8.2-7.8 8.6-1.5 10-.2-.5 6.5-3.6 8.8z" fill="#ffffff" stroke-width="none" opacity="1"></path><path id="SvgjsPath32687" d="M131.5 81.3c-.9-.9-2.5-1.3-4.8-1.2-4.1.2-10.1 2.4-12.3 5.3-3.2 4.1-2.5 8.8-2.5 9 0 .3.3.5.6.5.1 0 .1 0 .2-.1v.1c-.1.3.1.6.4.7.2.1.7.1 1.3.1 1.9 0 5.3-.4 8.7-1.5 3.6-1.2 8.1-6 9-9.6.5-1.8 0-2.8-.6-3.3zm-.4 3c-.8 3.2-5 7.7-8.3 8.8-4.5 1.5-8.8 1.6-9.3 1.4h-.2c-.1 0-.2 0-.3.1 0-.1.1-.2.1-.3 0 0-.6-4.5 2.3-8.2 1.8-2.4 7.2-4.6 11.5-4.9 1.9-.1 3.2.2 3.9.9.4.5.5 1.2.3 2.2zm-18.6 11.6c-.3-.3-.7-.7-.9-1.1-.2-.2-.5 0-.4.2.4.8 1 1.8 1.9 2.1.2.1.4-.2.3-.4-.2-.3-.6-.5-.9-.8z" fill="#000000" stroke-width="none" opacity="1"></path></g></g></g><g id="svga-group-facehighlight-single"></g><g id="svga-group-eyebrows-left-move" transform="matrix(1,0,0,1,0,0)"><g id="svga-group-eyebrows-left-rotate" transform="matrix(1,0,0,1,0,0)"><g id="svga-group-eyebrows-left" transform="matrix(1,0,0,1,0,0)"><path id="SvgjsPath32591" d="M71.56 71.57c4.09-.17 10.75 3.28 13.7 4.98 2.94 1.7 6.34 1.7 5.89-1.02s-11.66-6.91-15.17-7.47c-3.51-.57-6.79 1.13-12.23 6.79 0 0 5.09-3.17 7.81-3.28z" fill="#ffffff" stroke-width="none" opacity="1"></path><path id="SvgjsPath32592" d="M63.35 75.18c.16.2.45.25.67.11.05-.03 5.01-3.1 7.56-3.21 3.37-.13 9.14 2.45 13.42 4.92 1.41.81 2.85 1.24 4.03 1.24.72 0 1.34-.16 1.8-.48.69-.48.98-1.3.82-2.31-.53-3.17-12.15-7.34-15.59-7.89-3.79-.61-7.23 1.27-12.68 6.94-.18.19-.19.48-.03.68zm7.74-4.08c-.56.02-1.8.07-2.68.11.59-.47 1.16-.88 1.7-1.22l2.22 1.08c-.27-.02-.54-.02-.8-.01-.13.01-.28.02-.44.04zm3.44.3a.24.24 0 0 0-.08-.06l-3.62-1.76c.47-.26.93-.46 1.38-.63l3.17 2.66c-.28-.08-.57-.14-.85-.21zm2.55.75-4.11-3.45c.58-.15 1.15-.22 1.72-.23l4.06 4.3c-.55-.21-1.11-.42-1.67-.62zm.16-3.29c0 .01 0 .01.01.02 1.26 1.57 2.93 3.66 4 5-.3-.14-.61-.28-.92-.42l-4.61-4.89c.06.01.12.01.18.01.38.05.84.15 1.34.28zm5.43 5.71c-.69-.88-3.1-3.88-4.32-5.41.62.18 1.28.4 1.96.64l3.66 5.45c-.39-.21-.83-.44-1.3-.68zm2.61 1.41L81.4 70.2c.57.21 1.15.44 1.73.68.01.01 0 .03.01.04l3.36 5.68c-.33-.14-.66-.3-.99-.49-.07-.04-.15-.09-.23-.13zm2.23.98-3.34-5.64c.63.28 1.25.56 1.83.85v.01l2.49 4.99c-.3-.05-.63-.11-.98-.21zm1.77.23-2.25-4.5c.62.33 1.19.66 1.69.98l1.05 3.45c-.16.04-.32.06-.49.07zm1.1-.38-.75-2.47c.58.47.94.91 1.01 1.28.11.69-.09 1.03-.26 1.19zm-23.63-4.18c.27-.25.53-.47.79-.69.22-.01.52-.02.84-.04-.56.22-1.11.47-1.63.73z" fill="#000000" stroke-width="none" opacity="1"></path></g></g></g><g id="svga-group-eyebrows-right-move" transform="matrix(1,0,0,1,0,0)"><g id="svga-group-eyebrows-right-rotate" transform="matrix(1,0,0,1,0,0)"><g id="svga-group-eyebrows-right" transform="matrix(1,0,0,1,0,0)"><path id="SvgjsPath32593" d="M128.44 71.57c-4.09-.17-10.75 3.28-13.7 4.98-2.94 1.7-6.34 1.7-5.89-1.02s11.66-6.91 15.17-7.47c3.51-.57 6.79 1.13 12.23 6.79 0 0-5.09-3.17-7.81-3.28z" fill="#ffffff" stroke-width="none" opacity="1"></path><path id="SvgjsPath32594" d="M136.62 74.5c-5.45-5.67-8.88-7.55-12.68-6.94-3.44.55-15.06 4.72-15.59 7.89-.17 1.01.12 1.83.82 2.31.46.32 1.08.48 1.8.48 1.18 0 2.62-.43 4.03-1.24 4.28-2.47 10.05-5.05 13.42-4.91 2.55.11 7.51 3.17 7.56 3.21.22.14.51.09.67-.11a.53.53 0 0 0-.03-.69zm-8.16-3.44c-.26-.01-.52 0-.8.01l2.22-1.08c.54.34 1.11.76 1.7 1.22-.88-.04-2.12-.09-2.68-.11-.15-.02-.3-.03-.44-.04zm-3.84.55 3.17-2.66c.45.16.91.37 1.38.63l-3.62 1.76c-.03.02-.06.04-.08.06-.28.07-.57.13-.85.21zm-3.37 1.17 4.06-4.3c.57 0 1.14.08 1.72.23l-4.11 3.45c-.56.19-1.12.4-1.67.62zm2.86-4.21c.06-.01.12-.01.18-.01l-4.61 4.89c-.31.14-.62.28-.92.42 1.07-1.34 2.74-3.43 4-5 0-.01 0-.01.01-.02.49-.12.95-.22 1.34-.28zm-8.08 6.68 3.66-5.45c.69-.24 1.35-.45 1.96-.64-1.22 1.52-3.63 4.53-4.32 5.41-.47.24-.91.47-1.3.68zm-1.54.86c-.33.19-.66.34-.99.49l3.36-5.68c.01-.01 0-.02.01-.04.58-.24 1.16-.47 1.73-.68l-3.88 5.78c-.08.04-.16.09-.23.13zm-2.99 1.05 2.49-4.99v-.01c.59-.29 1.2-.57 1.83-.85l-3.34 5.64c-.34.11-.67.17-.98.21zm-1.26-.04 1.05-3.45c.49-.32 1.07-.65 1.69-.98l-2.25 4.5c-.18-.01-.34-.03-.49-.07zm-.88-1.5c.06-.38.43-.81 1.01-1.28l-.75 2.47c-.17-.16-.37-.5-.26-1.19zm22.26-3.72c.33.01.62.03.84.04.26.22.52.44.79.69-.52-.26-1.07-.51-1.63-.73z" fill="#000000" stroke-width="none" opacity="1"></path></g></g></g><g id="svga-group-beardwrap" transform="matrix(1,0,0,1,0,0)"><g id="svga-group-beard-single-move" transform="matrix(1,0,0,1,0,0)"><g id="svga-group-beard-single" transform="matrix(1,0,0,1,0,0)"></g></g></g><g id="svga-group-mustache-single-move" transform="matrix(1,0,0,1,0,0)"><g id="svga-group-mustache-single" transform="matrix(1,0,0,1,0,0)"></g></g><g id="svga-group-nose-single-move" transform="matrix(1,0,0,1,0,0)"><g id="svga-group-nose-single" transform="matrix(1,0,0,1,0,0)"><path id="SvgjsPath32798" d="M104.93 103.81s-1.26 2.44-5.33 2.36-5.29-1.95-5.29-1.95-1.22 2.24-4.03 1.55-2.81-4.07-2.4-5.12 3.29-4.68 8.01-5.73c4.72-1.06 9.76-.53 13.62 3.17 3.86 3.7 1.46 7 0 7.65-1.45.63-4.54-.14-4.58-1.93z" fill="#ffffff" stroke-width="none" opacity="1"></path><path id="SvgjsPath32799" d="M109.74 97.52c-.61-.46-1.19.57-.59 1.02 1.59 1.2 2.46 3.4 1.34 5.22-1.12 1.81-3.65 1.96-4.82.18.25-.31.49-.64.7-.99.39-.65-.62-1.24-1.02-.59-2.57 4.25-8.53 4.56-11.45.48-.44-.61-1.46-.02-1.02.59.22.3.45.58.69.84-.07.04-.13.1-.18.17-1.53 2.07-4.48.92-5.05-1.33-.53-2.07.82-3.89 2.52-4.88.66-.38.06-1.4-.59-1.02-2.63 1.52-4.23 4.76-2.48 7.57 1.52 2.43 4.93 2.51 6.6.26 3.07 2.52 7.51 2.43 10.43-.23 1.55 2.06 4.67 2.1 6.34.01 1.94-2.42.85-5.59-1.42-7.3z" fill="#000000" stroke-width="none" opacity="1"></path><path id="SvgjsPath32800" d="M94.64 95.97c2.56-1.04 5.23-1.35 7.96-.87.74.13 1.06-1 .31-1.14-2.93-.52-5.82-.25-8.59.87-.69.28-.39 1.42.32 1.14z" fill="#000000" stroke-width="none" opacity="1"></path></g></g><g id="svga-group-hair-front" transform="matrix(1,0,0,1,0,0)"><path id="SvgjsPath32732" d="M53.2 71.9S56 77 56.8 84.7c.3 2.8 3.1 3.5 3.1 3.5s.6-20.4 2.6-23.8c2-3.4 1.1-9.6 3.1-14.1s6.1-11.5 9.2-11.7 17.6 9.2 25.8 9.2 23.7-9.2 25.7-9.2 7.1 6.9 8.6 10.6c1.6 3.7 1.4 17.5 2.4 18.4 1 1 1.8 4.7 2.2 7.8s.7 12.6.7 12.6 2.7-.5 3.5-3.8.4-9.9 1.4-11.1 2-2.4 2-4.9.2-15.7-1.1-20c-1.4-4.3-4.7-13.5-7.6-15.3 0 0 .4-3.5-3.3-7.1-3.7-3.5-10.4-8.6-20.4-10.4 0 0-10.4-3.7-19.2-2.9s-12.7-8-12.7-8-1.2 5.9.8 9.8c0 0-7.6-5.1-8.6-9 0 0-.4 4.1 1.2 8.2 0 0-3.3-2.5-4.1-5.3 0 0-1.6 3.3-.6 6.9 0 0-3.5-.6-4.1-2.9 0 0-5.1 8.2-3.5 18.4 0 0-2.5 1.8-4.1 5.3s-3.9 11-4.3 15.7c-.7 4.7-2.3 20.3-2.3 20.3z" fill="#ffffff" stroke-width="none" opacity="1"></path><path id="SvgjsPath32733" d="M146.9 47.9c-1.2-3.9-4.4-12.9-7.6-15.5v-.5c.1-.2.1-.5-.1-.6-.3-1.5-1.1-3.8-3.5-6.1-6-5.7-13-9.2-20.8-10.6-1.1-.4-10.9-3.7-19.6-3-8 .7-11.6-7.1-11.7-7.5-.2-.4-.6-.6-1-.6s-.8.4-.9.8c0 .2-.7 3.8-.1 7.4-2.4-1.9-5.3-4.6-5.8-6.6-.1-.5-.6-.8-1-.8-.5 0-.9.4-.9.9 0 .1-.2 2.3.3 5-.6-.7-1-1.5-1.2-2.2-.1-.4-.5-.7-.9-.7s-.8.2-1 .6c-.1.1-1.3 2.7-1 5.9-.8-.4-1.7-.9-1.9-1.8-.1-.4-.4-.7-.8-.7-.4-.1-.8.1-1 .5-.2.3-5.1 8.4-3.8 18.5-.9.7-2.7 2.5-4 5.3-1.6 3.6-4 11.1-4.4 16-.4 4.6-1.9 20.2-1.9 20.3 0 .2 0 .4.1.6 0 0 2.7 5 3.5 12.4.4 3.4 3.7 4.3 3.9 4.3h.3c.2 0 .4-.1.6-.2.2-.2.4-.5.4-.8.3-8.1 1.1-21 2.5-23.3.3-.6.6-1.3.8-2 .1-.1.1-.2.1-.3.4-1.5.6-3.1.8-4.9.3-2.4.5-5 1.4-7 2.3-5.2 6.1-10.9 8.3-11.1 1-.1 4.3 1.5 7.5 3 5.8 2.8 13.1 6.2 18.3 6.2 5.8 0 14.7-4.2 20.6-7 2.2-1 4.6-2.2 5.1-2.2 1.3.1 6 6 7.7 10 .8 1.9 1.1 6.9 1.4 11 .4 5.6.5 7.1 1.2 7.7.5.5 1.4 3.2 1.9 7.3.4 3.1.6 12.4.6 12.5 0 .3.1.6.4.7.2.2.5.3.8.2.1 0 3.4-.6 4.3-4.5.4-1.6.5-3.7.6-5.8.1-1.7.3-4.4.6-4.9 1-1.2 2.2-2.6 2.2-5.5v-1c-.1-4.3 0-15.3-1.3-19.4zm-1 7.5c-1.5 4.3-3.4 9.1-8 10.6-.2-1.3-.3-3.6-.5-5.5-.1-.9-.1-1.9-.2-2.8 3.6-2.4 6.2-6 7.4-10.2.1.3.2.7.3 1 .6 1.5.8 4.1 1 6.9zm-1.9-9.9c-.1.1-.2.2-.2.3-.9 4.2-3.2 7.8-6.7 10.4-.2-2.1-.4-4.1-.7-5.6 3-1.3 5.5-3.5 7.1-6.3.2.4.3.8.5 1.2zM137.3 32c-2.4 2-5.1 3.5-8 4.6-.7-4.1.8-8.1 3.9-11 .4.3.7.6 1.1 1 2.3 2.2 2.9 4.3 3 5.4zM126 37.5c-.1 0-.2.1-.2.1-1.5-2.4-2.5-5-2.8-7.8-.2-2.6.2-7.8 3.1-9.2 2.1 1.2 4.2 2.6 6.1 4.2-3.4 3.1-4.9 7.6-4.1 12.2-.7.2-1.4.4-2.1.5zm-13.5-21.7c-6 6.5 1.7 19.4 6.7 24.7-1.1.5-2.3 1.1-3.5 1.6-5.6-3.3-10.6-7.6-14.4-12.9-1.3-1.7-9.2-15.3-6.4-15.7h.5c6.5-.6 13.8 1.4 17.1 2.3zm-20.1-2.4c3.3 12.3 11.1 22.7 22 29.3-.9.4-1.7.8-2.6 1.1-14.4-3.7-24.8-15-27.5-29.1.1-.3.2-.6 0-.9l-.3-.6c-.3-1.7-.4-3.5-.4-5.3 1.7 2.2 4.6 4.9 8.8 5.5zm-9.6 1.7c.1.1.2.1.3.1 2 9.8 7.5 18.3 15.5 23.9-10.2-5.9-18-15.3-21.9-26.7 0-.1-.1-.2-.2-.3-.3-1.1-.5-2.1-.7-3 2.6 3 6.5 5.6 7 6zm-7.5-.8c.2.2.5.2.8.2 5.6 14.7 17.7 26 32.8 30.5-2.3.8-4.4 1.4-6.4 1.7C85.8 42.3 73.9 28.5 72 11.3c0-.1 0-.3.1-.4 1.3 1.9 3.1 3.3 3.2 3.4zm-4.2 1.8h.5c3.1 14 12.9 25.4 26.4 30.4-4.3-.8-9.8-3.3-14.3-5.5 0-.1-.1-.1-.2-.1-9.8-5.4-15.8-15.4-16.1-26.5 1.5 1.3 3.5 1.6 3.7 1.7zm-4.8.1c.7 8.6 4.7 16.5 11.2 22-1.2-.5-2.1-.7-2.8-.7h-.4c-4.1-1.5-8.1-3.6-9.9-7.5-.7-5.5.7-10.6 1.9-13.8zm-8.9 29c1.5 2.9 3.7 5.3 6.5 7.1-.4 1.7-.6 3.5-.8 5.2-.1 1.3-.3 2.6-.5 3.8-2.9-1.8-5.1-4.3-6.6-7.4.1-.9.1-1.6.2-2.2.1-1.9.6-4.2 1.2-6.5zm2.2 31.5c-2.4-3.4-4-7.2-4.7-11.3.1-.7.1-1.3.2-2 1.3 2.5 3.1 4.6 5.2 6.5-.3 2-.5 4.4-.7 6.8zm-1.8 7.8c-.8-6.9-3-11.7-3.6-12.9 0-.4.1-1.3.2-2.5 1 3.4 2.7 6.5 5 9.4-.2 3.2-.4 6.2-.4 7.9-.5-.3-1.1-.9-1.2-1.9zm2.7-16.2c-2.3-2.1-4-4.6-5.2-7.4.2-1.7.3-3.4.5-4.9 1.6 2.7 3.8 4.9 6.5 6.5-.2.5-.3.9-.6 1.3-.5.9-.9 2.5-1.2 4.5zm4.2-18.4c-.2.4-.3.8-.4 1.2-2.9-1.8-5.1-4.5-6.4-7.7l.9-3c2 2.6 4.7 4.5 7.8 5.5-1.1 2.1-1.8 3.8-1.9 4zm2.6-5.1c-3.3-1-6-3-8-5.9.4-1 .7-1.9 1.1-2.7 1.1-2.6 2.8-4.1 3.5-4.6 1.9 3.3 5.3 5.3 8.9 6.7-2.1 1.3-4 4-5.5 6.5zm53.1-4.8c-4.4-4.5-13-17.8-6.6-23.7.2.1.4.1.4.1h.2c3.7.6 7.2 1.8 10.4 3.5-1.9 1.4-2.6 4.1-2.9 6.4-.6 4.2.5 8.3 2.7 11.8-1 .4-2.3 1-4.2 1.9zm7.6-1.7c3.5-1 6.6-2.6 9.4-4.8l.3.3c.7.4 1.4 1.4 2.2 2.7-2 2.8-4.7 4.9-7.9 6.2-1.2-1.9-2.7-3.5-4-4.4zm4.9 5.4c3.1-1.3 5.7-3.3 7.8-6 .8 1.5 1.6 3.2 2.3 5.1-1.4 3-3.8 5.3-6.9 6.6-.1-.2-.1-.4-.2-.6-.5-1.3-1.7-3.2-3-5.1zm5.3 23.4c4.1-1.3 6.3-4.8 7.8-8.6 0 1.6.1 3.1.1 4.5-1.1 3.4-3.4 6.1-6.4 7.8-.4-1.4-.9-2.9-1.5-3.7zm4.5 16.9c-.3 1.3-1 2.1-1.6 2.5 0-1.4-.1-3.6-.2-5.7.9-.5 1.7-1.1 2.4-1.9-.2 1.9-.3 3.8-.6 5.1zm3.4-15.8c0 2.1-.8 3.1-1.8 4.3-.5.6-.7 1.9-.9 3.8-.5 1.3-1.4 2.4-2.6 3.2-.1-1.6-.2-3.1-.3-4.1-.1-.8-.3-1.9-.5-3.1 2.6-1.4 4.7-3.5 6.1-6.1v2z" fill="#000000" stroke-width="none" opacity="1"></path></g><g id="svga-group-glasses-single-move" transform="matrix(1,0,0,1,0,0)"><g id="svga-group-glasses-single" transform="matrix(1,0,0,1,0,0)"></g></g></g></g></g><rect id="svga-credit-rect" width="200" height="15" x="0" y="185" fill="#ecf0f1" opacity="0.5" style="display: none;"></rect><text id="svga-credit-text" font-family="Avenir Next, Roboto, Helvetica, Arial, sans-serif" font-size="10px" text-anchor="start" font-weight="400" size="10px" anchor="start" weight="400" fill="#333333" x="33.402061462402344" y="182.71133995056152" style="display: none;"><tspan id="SvgjsTspan32122" dy="13" x="33.402061462402344">Created on AvatarMaker.com</tspan></text></g></svg>