<svg xmlns="http://www.w3.org/2000/svg" version="1.1" width="600px" height="600px" viewBox="0 0 200 200" style="overflow:hidden!important;"><defs id="SvgjsDefs70115"></defs><g id="svga-group-wrapper"><g id="svga-group-backs-single"></g><g id="svga-group-humanwrap-move" transform="matrix(1,0,0,1,0,0)"><g id="svga-group-humanwrap" transform="matrix(1,0,0,1,0,0)"><g id="svga-group-hair-back-move" transform="matrix(1,0,0,1,0,0)"><g id="svga-group-hair-back" transform="matrix(1,0,0,1,0,0)"></g></g><g id="svga-group-humanbody-back"><path id="SvgjsPath70525" d="M77.6 118.3c0 19.3 3.4 44.1-10 51.9-13.4 7.9-31.9 11.3-37.8 22s-4.4 25.3-4.4 25.3h149.3s.7-18.9-5.1-26.4c-8.1-10.4-27.8-15.5-37.7-20.9s-13.4-25.1-13.4-52.4l-40.9.5z" fill="#ffffff" stroke-width="none" opacity="1"></path><path id="SvgjsPath70526" d="M175.8 218.7H24.4l-.1-1c-.1-.6-1.5-15.1 4.5-26 4.1-7.4 13.5-11.3 23.5-15.5 5-2.1 10.2-4.3 14.8-6.9 10.6-6.2 10.1-23.9 9.6-41-.1-3.5-.2-6.8-.2-10v-1.1l43.2-.4v1.1c0 29.9 4.2 46.7 12.8 51.4 2.9 1.6 6.7 3.2 10.8 4.9 10 4.1 21.3 8.8 27.2 16.3 6.1 7.7 5.4 26.4 5.4 27.1l-.1 1.1zm-149.3-2.2h147.1c0-4.1-.2-18.5-4.9-24.6-5.5-7-16.6-11.6-26.3-15.6-4.1-1.7-8-3.3-11-5-5.1-2.8-8.7-8.9-10.9-18.7-2-8.4-2.9-19.4-3-33.5l-38.6.4c0 2.8.1 5.7.2 8.8.5 17.8 1 36.1-10.7 43-4.7 2.7-9.9 4.9-15 7.1-9.6 4-18.7 7.8-22.4 14.5-5 8.6-4.7 20.1-4.5 23.6z" fill="#000000" stroke-width="none" opacity="1"></path><path id="SvgjsPath70527" d="M93.9 153.8c-.5 1.8-.4 3.4.5 5.2.8 1.6 2.1 2.7 3.9 2.9.4 0 .7-.5.5-.8-1.6-2.2-3.5-4.2-3.7-7.1 0-.7-1-.9-1.2-.2zm18.6 33.7c8.8.5 18.1-.7 26.6-2.9.7-.2.6-1.4-.2-1.3-8.8 1.1-17.7 2-26.5 3.3-.5.1-.3.9.1.9zm-49.4-5c3.8.9 7.6 1.9 11.5 2.8 3.6.8 7.4 2 11.1 2.1.7 0 .8-.9.2-1.2-3.5-1.4-7.5-1.7-11.2-2.5-3.8-.7-7.5-1.3-11.3-2-.5 0-.7.7-.3.8z" fill="#000000" stroke-width="none" opacity="1"></path></g><g id="svga-group-chinshadow-single"></g><g id="svga-group-humanbody-front"></g><g id="svga-group-clothes-single"><path id="SvgjsPath70661" d="M75.1 157.9s-1.2.2-3.7 3.2-4.6 5.4-4.6 5.4v2.2s-6.8 4.1-12.2 5.4-23.2 10.7-23.2 10.7-6.1 8.5-7.1 15.1-.7 18.3-.7 18.3h153s-.5-14.6-1.7-19.5-5.1-12.7-5.1-12.7-16.1-8.8-22.2-11c-6.1-2.2-15.6-5.9-15.6-5.9v-1.9s-2.9-3.4-5.1-5.6c-2.2-2.2-1.7-3.4-3.4-3.9 0 0 0 5.9-1 9.8s-9.8 9-12.7 10c-2.9 1-3.9 0-4.9 2.9-1 2.9-2.9 7.3-2.9 7.3s-4.2-4.9-6.8-6.8-6.1-3.7-10.5-3.2c-4.4.4-8.1-15.7-9.6-19.8z" fill="#ffffff" stroke-width="none" opacity="1"></path><path id="SvgjsPath70662" d="M175.9 198.4c-1.2-4.9-5-12.6-5.2-12.9-.1-.2-.2-.3-.4-.4-.7-.4-16.2-8.9-22.3-11-5.1-1.8-12.7-4.7-14.9-5.6v-1.3c0-.2-.1-.5-.2-.6-.1-.1-3-3.5-5.2-5.7-.9-.9-1.3-1.6-1.6-2.2-.5-.8-.9-1.6-2.2-2-.3-.1-.6 0-.9.2s-.4.5-.4.8c0 .1 0 5.8-.9 9.5-.7 2.8-6.6 6.8-10.3 8.6-.1 0-.2.1-.2.1-.6.3-1.1.5-1.5.6-.8.3-1.4.4-2 .5-1.7.3-2.7.6-3.5 3.1-.6 1.8-1.6 4.3-2.3 5.8-1.4-1.6-4-4.4-6-5.8-2.4-1.7-6.1-3.9-11.2-3.4-2.8.3-6.1-11.2-7.4-15.6-.4-1.4-.8-2.7-1.1-3.5-.2-.5-.7-.8-1.1-.6-.4.1-1.8.5-4.2 3.5-2.4 2.9-4.6 5.3-4.6 5.3-.2.2-.3.4-.3.7v1.6c-1.6.9-7.1 4-11.4 5-5.4 1.2-22.7 10.4-23.4 10.8l-.3.3c-.2.4-6.2 8.8-7.2 15.6-1 6.6-.8 18-.7 18.5 0 .5.5 1 1 1h153c.3 0 .5-.1.7-.3.2-.2.3-.5.3-.7-.4-.8-.9-15-2.1-19.9zm-.4 16.4c-.6.8-1.2 1.5-1.8 2.3h-2.2c1.4-1.4 2.7-2.8 4-4.2-.1.7 0 1.3 0 1.9zm-6.5-28.1c.7 1.4 3.9 8 4.9 12.2.7 2.8 1.1 8.9 1.4 13.5-1.6 1.6-3.2 3.1-4.8 4.8h-3.4c2.1-1.9 4-4.2 5.9-6.3.2-.2-.1-.5-.3-.3-2.1 2.2-4.6 4.2-6.6 6.6h-2.6c2.3-2.6 4.3-5.2 7-7.4.2-.2-.1-.4-.3-.3-2.6 2.2-5.4 4.8-7.3 7.7h-3.3l.1-.1c.1-.1 0-.2-.1-.2 1.5-.9 3.1-3.1 4.4-4.6 1.6-1.8 3.1-3.5 4.7-5.3.1-.2-.1-.4-.2-.2-3.1 3.4-6.2 6.7-9.2 10.1-.1-.7-.1-1.7-.2-2.9 3.2-3.5 6.2-7.2 9.3-10.8.1-.2-.1-.4-.2-.2-3 3.4-6.1 6.8-9.1 10.4-.1-1.2-.1-2.4-.2-3.8 2.2-2.9 4.5-5.6 7-8.2.1-.1-.1-.3-.2-.2-2.5 2.4-4.8 4.9-6.9 7.6v-4.6c2.1-2.7 4.1-5.3 6.5-7.8.1-.1-.1-.3-.2-.2-2.2 2.1-4.5 4.4-6.3 7 0-.9.1-1.9.2-2.7 1.5-1.9 3-3.7 4.7-5.4.1-.1-.1-.3-.2-.2-1.5 1.4-3.1 3-4.4 4.6.2-1.1.4-2.1.7-3.1.6-.8 1.1-1.5 1.6-2.3.1-.1-.1-.3-.2-.2-.4.4-.7.9-1.1 1.4 1.3-4.4 3.4-8.4 5.3-10.6 1.8 1 3.1 1.7 3.6 2zm-45.6-19.1c.6-2.4.8-5.6.9-7.7.3.6.8 1.4 1.8 2.3 1.8 1.8 4.1 4.4 4.8 5.3v1.6c-.2 1.6.5 6 1.4 9.4.3 1 .8 2.6 1.5 4.4.9 2.6 2.5 7.2 2.6 8.9-1.1-.4-1.9-1-3.8-2.5-1.1-.9-2.7-2.1-4.9-3.7-3.9-2.8-5.9-4.8-7.6-6.3-1-.9-1.8-1.7-2.7-2.4-.7-.6-1.4-.9-2.1-1.1 3.6-2.3 7.4-5.4 8.1-8.2zm-8 14.6c0-1.5-.5-3.2-.7-4.7.4.2.9.4 1.4.8.1 1.1 0 2.3.2 3.4-.3.2-.6.4-.9.5zm1.1-3.6c.3.2.5.4.8.7v.1c.1.4.1.9.2 1.3 0 .1.2.1.2 0 0-.4 0-.7-.1-1.1l.9.9c-.6.4-1.3.8-1.9 1.1.2-1 0-2-.1-3zm-2.1-1.2c.2 1.6.2 3.4.6 5-.4.2-.8.4-1.2.5 0-1.9-.3-3.8-.5-5.7.3.1.6.1 1.1.2zm-4.3.9c.5-.1 1.1-.4 1.8-.8.2-.1.5-.2 1-.3.2 1.9.2 3.9.6 5.8-.3.1-.7.2-1 .3-.2-1.8-.8-3.6-1.2-5.3 0-.2-.3-.1-.3.1.3 1.7.5 3.7 1.1 5.4-.6.2-1.3.4-1.9.6-.2-.7-.4-1.4-.5-2.1 0-.1.1-.2.1-.4 0-.4-.2-.7-.4-1-.2-.6-.3-1.3-.4-2 .2 0 .7-.1 1.1-.3zm-2.4 6.3c-.2-.6-.4-1.3-.6-1.9.3.3.7.5 1.1.5.4 0 .8-.2 1.1-.5.2.5.3 1.1.5 1.6-.6 0-1.4.2-2.1.3zm.1-5.7c.2 0 .5-.1.8-.1.1.5.1 1 .2 1.5-.2-.1-.4-.1-.6-.1-.7 0-1.2.4-1.4 1.1-.1-.6-.2-1.2-.3-1.9.3-.3.7-.4 1.3-.5zm-1.6.9c.1 1.7.4 3.3 1.1 4.8-.5.1-1.1.1-1.6.2-.1-.7-.3-1.4-.6-2.1.3-.7.5-1.4.8-2.1.1-.3.2-.6.3-.8zm-.9 5c-.3 0-.7 0-1.1.1l.6-1.5c.2.5.3 1 .5 1.4zm-10.5-3c.1 1.2.1 2.6.5 3.8.1.2.3.1.3 0 .1-1-.1-2.2-.3-3.3.2.2.4.3.6.5.1 1 .2 2.1.5 3 0 .1.2.1.2 0 .1-.8-.1-1.7-.2-2.6.9.9 1.9 1.8 2.7 2.7-1.6.1-3.2 0-4.8-.1 0-1.6-.4-3.2-.7-4.8.3.2.6.4 1 .6 0 .1.1.2.2.2zm-1.7 3.9c-.1-.8-.4-1.6-.6-2.4-.2-1-.4-2.1-.5-3.1 0-.2-.3-.2-.3 0 .1 1.8.2 3.9 1.1 5.4-.7-.1-1.3-.2-2-.3-.5-2.1-.9-4.1-.9-6.2 1.1.4 2.1.9 3.2 1.5v.1c.2 1.6.3 3.4.7 4.9-.1.1-.4.1-.7.1zm-4.2-.7c-.4-2.1-.9-4.2-1.2-6.4.7.1 1.3.2 2 .4 0 2.1.2 4.3.9 6.3-.6 0-1.2-.2-1.7-.3zm-1.7-6.4c.1 2.1.4 4.3 1.2 6.3-.5-.1-1-.2-1.5-.4-.4-2-.9-4-1.3-6 .6.1 1.1.1 1.6.1zm-2.1 0h.2c.2 2 .5 4 1.2 5.8-.5-.1-.9-.2-1.4-.4-.2-.8-.5-1.5-.7-2.3-.2-.7-.3-1.4-.4-2.2.4-.3.8-.7 1.1-.9zm-1.5 1.3c.2 1.4.4 2.8.9 4-.5-.1-.9-.3-1.4-.5-.3-.7-.7-1.5-1.1-2.2.6-.4 1.1-.9 1.6-1.3zm-1.9 1.7c.2.5.4 1.1.7 1.6-.6-.2-1.2-.4-1.8-.7.4-.3.7-.6 1.1-.9zm-15.1.8c0-4.3 1.2-13.5 1.2-13.6V166.9c.7-.7 2.5-2.8 4.4-5.1 1-1.2 1.8-1.9 2.3-2.3.2.6.4 1.4.7 2.2 2.2 7.5 4.5 14.4 7.4 16.4-2.2 2-6.7 5.9-9 8.2-2.5 2.5-6.8 5.2-8.9 6.3.1-.8.4-2.1.7-3.1.6-2.4 1.2-5.1 1.2-7.1zM36 186.9c-.9-.7-1.8-1.3-2.8-2 .5-.2 1.1-.6 1.8-.9l-.2.2c.2.3.7 1.3 1.2 2.7zm-6.8 3.3c3.1 2.1 6.2 4.4 9.5 6.2h.1c.4 1.4.7 2.8 1.1 4.3-3.8-2.9-8-5.4-11.8-8.4.4-.7.8-1.4 1.1-2.1zm1.6-2.7c2.2 1.9 4.5 3.9 7 5.3.3 1 .6 2.1.9 3.2-2.9-2.2-6.1-4.2-9.3-6.2.6-.9 1-1.7 1.4-2.3zm.3-.4c.5-.8.9-1.3 1-1.6.1-.1.3-.2.6-.3 1.2.9 2.4 1.9 3.6 2.7.4 1.1.8 2.4 1.2 3.9-2-1.7-4.3-3.1-6.4-4.7zm-6.5 26.4c2 1.3 3.9 2.7 6.1 3.6.1 0 .2-.1.1-.2-1.8-1.6-4-2.7-6.1-3.9 0-1 0-2.1.1-3.3 3.3 3 7.1 5.8 11.2 7.4.2.1.3-.2.1-.3-3.9-2.4-7.7-4.6-11.3-7.6 0-1.1.1-2.1.1-3.2 4.9 4.1 10 8 15.5 11.1H24.6v-3.6zm16.5 3.6c-5.4-3.9-10.9-7.5-16.2-11.5.1-1.5.2-3 .4-4.3 5.1 3.6 10.2 7.4 15.6 10.4.2.1.4-.2.2-.3-5-3.8-10.5-7.1-15.8-10.5 0-.3.1-.6.1-.9.2-1.1.5-2.2.9-3.3 4.6 3 9.3 6.3 14.2 8.9.2.1.3-.2.2-.3-4.5-3.3-9.4-6.1-14.1-9h-.1c.4-1.2 1-2.4 1.5-3.6 3.7 3.2 7.8 6.5 12.1 8.6.1.3.2.6.2.9 1.5 6.6 1.7 12.9 1.7 14.9h-.9zm2.8 0c0-2-.1-8.5-1.7-15.4-1.7-7.4-4.3-16.3-5.7-18.6 5.6-2.9 14.8-7.5 18.4-8.2 3.8-.9 8.3-3.1 10.7-4.5-.4 3-1 8.7-1 11.9 0 1.8-.6 4.4-1.1 6.6-.8 3.4-1.1 4.8-.3 5.6.2.2.5.3.9.3.2 0 .3 0 .5-.1 2-.7 7.4-4 10.5-7.1 1.3-1.3 3.3-3.1 5.2-4.8.8.4 1.7.8 2.5 1.1.1.1.1.1.1.2.1.1.3.1.3-.1.5.2 1.1.4 1.6.6.1.1.1.1.2 0 .6.2 1.1.3 1.7.5v.1c.1.1.2.1.2 0 .6.1 1.2.3 1.8.4h.1c3.5.7 7.1 1 10.7.7.6.6 1.1 1.2 1.3 1.5-.1.4-.6 1.3-1.8 2.5-2.4 2.2-3.2 3.6-3 6.9.2 2.4 1.1 15.8 1.4 19.8l-53.5.1zm54.2-19.9c-.2-2.5.2-3.4 2.3-5.3 2.1-1.9 2.5-3.4 2.6-4 .2-.4.6-1.4 1.1-2.6 2.1 0 4.1-.2 6-.6 0 0 0 .1.1.1.1.1.3 0 .2-.1v-.1c.2 0 .3-.1.5-.1-1.1 5-5.6 7.9-5.7 13.4-.2 6.2 1.2 13 2.2 19.2h-7.8c-.4-3.8-1.4-17.5-1.5-19.9zm9.7 19.9c-.6-6.1-2-12.3-2.1-18.4-.1-6 4.8-8.9 5.6-14.4.3-.1.7-.2 1-.3.1.1.2.1.2-.1.9-.3 1.7-.6 2.6-1v.1c0 .1.2.1.2 0v-.2c1.2-.6 2.4-1.3 3.6-2.1 1.6 1.5 3.7 3.6 7.6 6.4 2.2 1.6 3.7 2.8 4.8 3.7 2.2 1.8 3.2 2.6 5.1 3h.4c.4 0 .8-.2 1.1-.5 1-1.1.3-3.8-2.3-11.2-.6-1.7-1.2-3.3-1.4-4.3-.7-2.8-1.2-5.6-1.3-7.4 2.9 1.1 9.6 3.6 14.3 5.3 3.7 1.3 11.2 5.2 16.4 7.9-2.4 3.1-5.4 9.1-6.5 15.5-.5 3.2-.5 8.1-.3 12.1-.1.2-.3.4-.4.6s.2.4.3.2c0-.1.1-.1.1-.2.1 2.1.2 3.8.3 5l-49.3.3zm66.5 0c.4-.6.8-1.1 1.2-1.7 0 .7.1 1.2.1 1.7h-1.3zm-73.2-22.8c.8 0 1.5.7 1.5 1.5s-.7 1.5-1.5 1.5-1.5-.7-1.5-1.5.7-1.5 1.5-1.5zm.6 15.4c.8 0 1.5.7 1.5 1.5s-.7 1.5-1.5 1.5-1.5-.7-1.5-1.5.6-1.5 1.5-1.5z" fill="#000000" stroke-width="none" opacity="1"></path></g><g id="svga-group-head" transform="matrix(1,0,0,1,0,0)"><g id="svga-group-ears-left-move" transform="matrix(1,0,0,1,0,0)"><g id="svga-group-ears-left" transform="matrix(1,0,0,1,0,0)"><path id="SvgjsPath70674" d="M59.9 81.9s-4.4-4.7-5.8-6.2c-1.4-1.4-3.1-4.7-5-4.1-1.9.5-1.2 2.7-1.3 5.8-.1 3.1.3 9.1 2.2 12.4 1.9 3.3 2.9 4.5 3.5 8 .6 3.5 2.8 4.2 4.1 3.2 1.3-1 4.3-7 4.4-10.2 0-3.2-1.2-7.5-2.1-8.9z" fill="#ffffff" stroke-width="none" opacity="1"></path><path id="SvgjsPath70675" d="M55.2 102.2c-.8-.3-2.3-1.3-2.8-4.2-.5-2.9-1.2-4-2.7-6.5l-.6-1.1c-2.1-3.6-2.5-10.1-2.4-13v-2c0-2-.1-4.1 2.1-4.7 2.1-.6 3.7 1.5 5 3.2.4.5.7.9 1 1.2 1.4 1.4 5.8 6.2 5.8 6.2l.1.1c.9 1.4 2.3 6 2.2 9.4-.1 3.4-3.2 9.8-4.8 11-.5.4-1.2.6-1.8.6-.4 0-.7-.1-1.1-.2zm-1.8-25.7c-.4-.4-.7-.9-1.1-1.4-.8-1.1-2.1-2.7-2.9-2.5-.6.2-.7.6-.6 2.8v2.1c-.1 3.1.3 8.9 2.1 11.9l.6 1.1c1.5 2.6 2.4 4 3 7.2.3 1.4.8 2.4 1.5 2.7.3.1.7.1 1-.1 1-.8 3.9-6.5 4-9.4.1-3-1.1-7.1-1.8-8.2-.7-.7-4.6-4.9-5.8-6.2z" fill="#000000" stroke-width="none" opacity="1"></path><path id="SvgjsPath70676" d="M48.2 76.3c.5-1.9 2.1-1 3 .4 1.9 2.6 3.2 6.6 3.6 10 0 .1-.1.2-.1.1-.1.1-.2.1-.2-.1-1.2-.5-1.6-.2-1.2.8 0 .3.1.6.3.9.2.5.6 1 .9 1.5.5.8 1.2 1.5 1.7 2.3.2.3 0 .6-.2.4-1.4-1-3.9-4.3-3.2-6.6.3-.8 1-1.1 1.5-.7-1.1-3.6-4-12-5.8-8.8-.1.1-.3 0-.3-.2z" fill="#000000" stroke-width="none" opacity="1"></path><path id="SvgjsPath70677" d="M51.1 76.8c-1 2-1.4 4.4-.9 7.1.3 1.5 2.9 9.5 4.9 8.4.2-.1.4.3.2.5-2 1.8-4.2-4.5-4.9-6.5-1.1-3.4-1.4-7.5.5-9.7.1-.1.2.1.2.2z" fill="#000000" stroke-width="none" opacity="1"></path></g></g><g id="svga-group-ears-right-move" transform="matrix(1,0,0,1,0,0)"><g id="svga-group-ears-right" transform="matrix(1,0,0,1,0,0)"><path id="SvgjsPath70678" d="M140.1 81.9s4.4-4.7 5.8-6.2c1.4-1.4 3.1-4.7 5-4.1 1.9.5 1.2 2.7 1.3 5.8s-.3 9.1-2.2 12.4c-1.9 3.3-2.9 4.5-3.5 8-.6 3.5-2.8 4.2-4.1 3.2-1.3-1-4.3-7-4.4-10.2 0-3.2 1.2-7.5 2.1-8.9z" fill="#ffffff" stroke-width="none" opacity="1"></path><path id="SvgjsPath70679" d="M143.7 102.4c-.6 0-1.3-.2-1.8-.6-1.5-1.2-4.7-7.5-4.8-11-.1-3.4 1.2-8 2.2-9.4l.1-.1s4.4-4.7 5.8-6.2c.3-.3.6-.8 1-1.2 1.3-1.7 2.9-3.8 5-3.2 2.2.6 2.1 2.7 2.1 4.7v2c.1 2.9-.2 9.4-2.4 13l-.6 1.1c-1.5 2.5-2.2 3.7-2.7 6.5-.5 2.9-2 3.9-2.8 4.2-.4.1-.7.2-1.1.2zm-2.8-19.9c-.7 1.2-1.9 5.2-1.8 8.2.1 2.9 2.9 8.6 4 9.4.3.2.6.3 1 .1.7-.3 1.3-1.3 1.5-2.7.6-3.2 1.4-4.7 3-7.2l.6-1.1c1.8-3 2.2-8.7 2.1-11.9v-2.1c.1-2.2 0-2.6-.6-2.8-.8-.2-2 1.4-2.9 2.5-.4.5-.8 1-1.1 1.4-1.3 1.5-5.2 5.7-5.8 6.2z" fill="#000000" stroke-width="none" opacity="1"></path><path id="SvgjsPath70680" d="M151.8 76.3c-.5-1.9-2.1-1-3 .4-1.9 2.6-3.2 6.6-3.6 10 0 .1.1.2.1.1.1.1.2.1.2-.1 1.2-.5 1.6-.2 1.2.8 0 .3-.1.6-.3.9-.2.5-.6 1-.9 1.5-.5.8-1.2 1.5-1.7 2.3-.2.3 0 .6.2.4 1.4-1 3.9-4.3 3.2-6.6-.3-.8-1-1.1-1.5-.7 1.1-3.6 4-12 5.8-8.8.1.1.3 0 .3-.2z" fill="#000000" stroke-width="none" opacity="1"></path><path id="SvgjsPath70681" d="M148.9 76.8c1 2 1.4 4.4.9 7.1-.3 1.5-2.9 9.5-4.9 8.4-.2-.1-.4.3-.2.5 2 1.8 4.2-4.5 4.9-6.5 1.1-3.4 1.4-7.5-.5-9.7-.1-.1-.2.1-.2.2z" fill="#000000" stroke-width="none" opacity="1"></path></g></g><g id="svga-group-faceshape-wrap" transform="matrix(1,0,0,1,0,0)"><g id="svga-group-faceshape-single"><path id="SvgjsPath70748" d="M142.4 53.6c-2.3-11.4-15.1-28.8-42.4-28.8S63.6 38.2 59.6 48.1c-2.5 6.2-3.2 15.2-3.4 19.7 0 0 1.2 30.4 10.8 47.3 9.6 16.8 24.8 25.4 29.4 28.6s28.8-15.1 36.1-27.9 10.1-35.4 11.4-47.9c-.1-3.3-.4-9-1.5-14.3z" fill="#ffffff" stroke-width="none" opacity="1"></path><path id="SvgjsPath70749" d="M97.8 145.3c-.8 0-1.6-.2-2.1-.6-.5-.4-1.2-.8-1.9-1.3-6.2-4.1-19.2-12.6-27.8-27.7-9.7-17-10.9-46.6-11-47.9v-.2c.2-4.8 1-13.8 3.5-20.1 6.5-16.1 20.1-24 41.5-24 27.6 0 41.2 17.8 43.6 29.8.8 4 1.4 8.9 1.5 14.4v.2c-.9 8.5-3.6 34.4-11.6 48.4-6.5 11.4-25.9 26.9-34.1 28.7-.5.2-1.1.3-1.6.3zM57.5 67.8c.1 1.4 1.5 30.6 10.6 46.7 8.3 14.6 21 22.9 27 26.9.8.5 1.5 1 2 1.3.1.1.6.3 1.8 0 7.6-1.7 26.3-16.8 32.5-27.5 7.7-13.5 10.4-38.9 11.3-47.4-.2-5.3-.7-10-1.5-13.9C138.9 42.7 126.1 26 100 26c-20.3 0-33.1 7.4-39.2 22.5-2.4 6-3.1 14.6-3.3 19.3z" fill="#000000" stroke-width="none" opacity="1"></path></g></g><g id="svga-group-mouth-single-move" transform="matrix(1,0,0,1,0,0)"><g id="svga-group-mouth-single" transform="matrix(1,0,0,1,0,0)"><path id="SvgjsPath70618" d="M112.2 120.05c-1.79 1.43-4.1 2.13-6.39 1.98-2.06-.14-3.99-1.05-6.06-1.13-1.77-.06-3.02.82-4.65 1.31-2.9.88-5.36-.7-7.55-2.41-.52-.41-1.26.32-.74.74 1.69 1.32 3.43 2.6 5.61 2.92 2.72.4 4.69-1.6 7.32-1.52 2.65.09 4.97 1.36 7.68 1.09 2.05-.2 3.89-.97 5.5-2.25.53-.41-.21-1.14-.72-.73z" fill="#000000" stroke-width="none" opacity="1"></path><path id="SvgjsPath70619" d="M109.34 125.39c-4.97 3.2-11.23 3.51-16.47.76-.59-.31-1.12.59-.52.9 5.56 2.91 12.24 2.64 17.52-.76.56-.36.04-1.26-.53-.9z" fill="#000000" stroke-width="none" opacity="1"></path><path id="SvgjsPath70620" d="M97.67 116.12c1.44-.34 2.86-.27 4.26.2.64.21.91-.79.28-1-1.58-.53-3.2-.59-4.82-.2-.64.15-.37 1.16.28 1z" fill="#000000" stroke-width="none" opacity="1"></path></g></g><g id="svga-group-eyes-left-move" transform="matrix(1,0,0,1,0,0)"><g id="svga-group-eyes-left" transform="matrix(1,0,0,1,0,0)"><g id="svga-group-eyesback-left"></g><g id="svga-group-eyesiriswrapper-left"><g id="svga-group-eyesiriscontrol-left" transform="matrix(1,0,0,1,0,0)"><g id="svga-group-eyesiris-left" transform="matrix(1,0,0,1,0,0)"><path id="SvgjsPath70813" d="M83.5 85.1c-1.1-2.1-3.5-2.9-5.7-2.2-2.4.8-4.2 3.3-3.3 5.9.5 1.4 1.6 2.6 3.1 2.9.5.1 1 .1 1.6.1.6.1 1.2 0 1.8-.2 2.6-.9 3.8-4 2.5-6.5z" fill="#ffffff" stroke-width="none" opacity="1"></path><path id="SvgjsPath70814" d="M82.3 85.8c0-.1-.1-.1-.1-.2-.7-1.4-2.3-2-3.8-1.7.5 1.1.9 2.3 1 3.5 0 .2-.3.4-.5.3-.9-.7-1.8-1.6-2.3-2.6-.3.4-.5.8-.7 1.2-.1.3-.1.6-.1.9-.2.9 0 2 .8 2.7.3.3.8.5 1.2.6 1.2.6 2.7.5 3.7-.6.1-.1.1-.2.2-.2.5-.5.8-1.1 1-1.7.2-.9 0-1.6-.4-2.2zm-2.8 6.3h-.4c-.5 0-1.1 0-1.6-.1-1.4-.3-2.7-1.5-3.2-3-.9-2.7 1-5.2 3.4-6.1 2.3-.8 4.8.1 5.9 2.2.6 1.2.7 2.7.2 4-.5 1.3-1.6 2.3-2.9 2.8-.4.1-.9.2-1.4.2zm-.4-.4c.6.1 1.2 0 1.8-.2 1.2-.4 2.2-1.4 2.7-2.6.5-1.2.4-2.6-.2-3.7-1-1.9-3.4-2.8-5.5-2.1-2.3.8-4.1 3.2-3.2 5.7.5 1.4 1.7 2.6 3 2.8.4.1.9.2 1.4.1z" fill="#000000" stroke-width="none" opacity="1"></path></g></g></g><g id="svga-group-eyesfront-left"><path id="SvgjsPath70718" d="M79 72.1c-8.2 0-14.8 6.6-14.8 14.8s6.6 14.8 14.8 14.8 14.8-6.6 14.8-14.8c0-8.1-6.6-14.8-14.8-14.8zm4.1 22.2c-3.7-.2-6.6-1.6-9.8-3.7-3.1-2.1-5.2-7.2-4-8.6 1.3-1.4 3.3-1.8 10-.3s8 5.7 8.6 7.4c.5 1.7.5 5 .5 5s-1.6.4-5.3.2z" fill="#ffffff" stroke-width="none" opacity="1"></path><path id="SvgjsPath70719" d="M86 84.7c-2.4-2.8-8.5-4.6-12.6-4.6-2.2 0-3.8.5-4.7 1.5-.5.6-1 1.6-.4 3.3 1.1 3.5 5.9 8.1 9.5 9.1 3.5 1 7 1.2 8.8 1.1h.2c-1.7.5-3.3 1.2-4.9 1.9-.2.1-.1.4.2.4 1.8-.3 3.9-1 5.6-1.9.2-.1.2-.4 0-.5.1 0 .1 0 .2-.1.3-.1.4-.4.3-.7v-.1h.2c.3 0 .6-.2.6-.5.1-.2.4-5-3-8.9zm1.7 9h-.2c-.5.2-4.8.3-9.4-.9-3.3-.9-7.8-5.2-8.7-8.3-.3-1-.2-1.7.2-2.3.6-.7 2-1.1 3.8-1.1 4.3 0 9.8 2 11.7 4.2 3.1 3.5 2.7 8 2.7 8 0 .1 0 .2.1.3 0 .2-.1.1-.2.1zm-2 2.8c-2.1.8-4.2 1.4-6.4 2.2-.2.1-.2.4.1.4 2.3-.3 4.5-1.1 6.5-2.2.2-.1 0-.5-.2-.4z" fill="#000000" stroke-width="none" opacity="1"></path></g></g></g><g id="svga-group-eyes-right-move" transform="matrix(1,0,0,1,0,0)"><g id="svga-group-eyes-right" transform="matrix(1,0,0,1,0,0)"><g id="svga-group-eyesback-right"></g><g id="svga-group-eyesiriswrapper-right"><g id="svga-group-eyesiriscontrol-right" transform="matrix(1,0,0,1,0,0)"><g id="svga-group-eyesiris-right" transform="matrix(1,0,0,1,0,0)"><path id="SvgjsPath70815" d="M125.6 85.1c-1.1-2.1-3.5-2.9-5.7-2.2-2.4.8-4.2 3.3-3.3 5.9.5 1.4 1.6 2.6 3.1 2.9.5.1 1 .1 1.6.1.6.1 1.2 0 1.8-.2 2.5-.9 3.7-4 2.5-6.5z" fill="#ffffff" stroke-width="none" opacity="1"></path><path id="SvgjsPath70816" d="M124.4 85.8c0-.1-.1-.1-.1-.2-.7-1.4-2.3-2-3.8-1.7.5 1.1.9 2.3 1 3.5 0 .2-.3.4-.5.3-.9-.7-1.8-1.6-2.3-2.6-.3.4-.5.8-.7 1.2-.1.3-.1.6-.1.9-.2.9 0 2 .8 2.7.3.3.8.5 1.2.6 1.2.6 2.7.5 3.7-.6.1-.1.1-.2.2-.2.5-.5.8-1.1 1-1.7.1-.9 0-1.6-.4-2.2zm-2.8 6.3h-.4c-.5 0-1.1 0-1.6-.1-1.4-.3-2.7-1.5-3.2-3-.9-2.7 1-5.2 3.4-6.1 2.3-.8 4.8.1 5.9 2.2.6 1.2.7 2.7.2 4-.5 1.3-1.6 2.3-2.9 2.8-.4.1-.9.2-1.4.2zm-.4-.4c.6.1 1.2 0 1.8-.2 1.2-.4 2.2-1.4 2.7-2.6.5-1.2.4-2.6-.2-3.7-1-1.9-3.4-2.8-5.5-2.1-2.3.8-4.1 3.2-3.2 5.7.5 1.4 1.7 2.6 3 2.8.3.1.8.2 1.4.1z" fill="#000000" stroke-width="none" opacity="1"></path></g></g></g><g id="svga-group-eyesfront-right"><path id="SvgjsPath70720" d="M121 72.1c-8.2 0-14.8 6.6-14.8 14.8s6.6 14.8 14.8 14.8 14.8-6.6 14.8-14.8c0-8.1-6.6-14.8-14.8-14.8zm6.4 18.5c-3 2.3-5.9 3.8-9.5 4.2s-5.4 0-5.4 0-.1-3.3.3-5 1.6-6 8.2-7.8 8.6-1.5 10-.2-.5 6.5-3.6 8.8z" fill="#ffffff" stroke-width="none" opacity="1"></path><path id="SvgjsPath70723" d="M131.5 81.3c-.9-.9-2.5-1.3-4.8-1.2-4.1.2-10.1 2.4-12.3 5.3-3.2 4.1-2.5 8.8-2.5 9 0 .3.3.5.6.5.1 0 .1 0 .2-.1v.1c-.1.3.1.6.4.7.2.1.7.1 1.3.1 1.9 0 5.3-.4 8.7-1.5 3.6-1.2 8.1-6 9-9.6.5-1.8 0-2.8-.6-3.3zm-.4 3c-.8 3.2-5 7.7-8.3 8.8-4.5 1.5-8.8 1.6-9.3 1.4h-.2c-.1 0-.2 0-.3.1 0-.1.1-.2.1-.3 0 0-.6-4.5 2.3-8.2 1.8-2.4 7.2-4.6 11.5-4.9 1.9-.1 3.2.2 3.9.9.4.5.5 1.2.3 2.2zm-18.6 11.6c-.3-.3-.7-.7-.9-1.1-.2-.2-.5 0-.4.2.4.8 1 1.8 1.9 2.1.2.1.4-.2.3-.4-.2-.3-.6-.5-.9-.8z" fill="#000000" stroke-width="none" opacity="1"></path></g></g></g><g id="svga-group-facehighlight-single"></g><g id="svga-group-eyebrows-left-move" transform="matrix(1,0,0,1,0,0)"><g id="svga-group-eyebrows-left-rotate" transform="matrix(1,0,0,1,0,0)"><g id="svga-group-eyebrows-left" transform="matrix(1,0,0,1,0,0)"><path id="SvgjsPath70639" d="M63.17 77.98 75.4 65.9l16.47 6.47-2.53 4.02-13.47-7.38z" fill="#ffffff" stroke-width="none" opacity="1"></path><path id="SvgjsPath70640" d="M62.78 78.31c.17.2.47.24.69.09l12.44-8.79 13.19 7.23c.12.06.24.08.36.05.13-.03.24-.11.32-.22l2.53-4.03c.08-.13.1-.29.06-.44a.503.503 0 0 0-.3-.32L75.6 65.41a.51.51 0 0 0-.55.12L62.81 77.61c-.19.19-.2.5-.03.7zm10.38-8.02-1.93.44 2.27-2.24 1.17.73-1.51 1.07zm1.82-1.28-1.22-.77 1.1-1.09.65 1.47-.53.39zm3.8 1.01.38-2.09.89.35-.75 2.03-.52-.29zm.82.45.76-2.07.99.39-1.39 1.88-.36-.2zm.68.37 1.42-1.91 1.5.59-1.08 2.34-1.84-1.02zm3.7 2.02 1.39-2.5.61.24-1.05 2.78-.95-.52zm1.33.74 1.85-2.53 1.16.45-1.21 3.06-1.8-.98zm2.17 1.19 1.79-2.26-1.09 2.64-.7-.38zm2.9-2.46-1.53 2.08.95-2.3.58.22zm-1.06-.42-1.56 1.97.89-2.24.67.27zm-2.48-.97-1.3 1.77.75-1.99.55.22zm-2.89-1.13-1.14 1.34.7-1.52.44.18zm.14 2.16.44-1.93.52.21-.96 1.72zm-.51.68-1.09-.59 1.66-1.95-.57 2.54zm-5.12-2.81-.48-.26-.2-2.19 1.06.41-.38 2.04zm-.84-.46-.52-.29-.7-2.25 1.03.41.19 2.13zm10.95 6 2.14-2.92.4.15-1.94 3.09-.6-.32zm-12.45-6.83a.583.583 0 0 0-.29-.06l-.72-1.6.4-.4.47.18.67 2.17-.53-.29zm-8.16 5.41 2.8-2.77 1.65-.38-4.45 3.15z" fill="#000000" stroke-width="none" opacity="1"></path></g></g></g><g id="svga-group-eyebrows-right-move" transform="matrix(1,0,0,1,0,0)"><g id="svga-group-eyebrows-right-rotate" transform="matrix(1,0,0,1,0,0)"><g id="svga-group-eyebrows-right" transform="matrix(1,0,0,1,0,0)"><path id="SvgjsPath70641" d="m136.69 78.29-11.96-12.35-16.61 6.1 2.44 4.08 13.63-7.08z" fill="#ffffff" stroke-width="none" opacity="1"></path><path id="SvgjsPath70642" d="M137.06 77.93 125.1 65.58a.514.514 0 0 0-.55-.13l-16.61 6.1c-.15.05-.25.17-.31.31-.05.15-.04.31.05.44l2.44 4.08c.08.12.19.2.31.23.12.02.25.02.36-.05l13.34-6.94 12.24 9.07c.21.16.52.13.69-.07.19-.19.18-.5 0-.69zm-11.68-8.65 1.19-.71 2.22 2.29-1.92-.48-1.49-1.1zm-.83-.61.69-1.46 1.08 1.11-1.24.74-.53-.39zm-3.82 1.58-.7-2.04.9-.33.33 2.1-.53.27zm-.68.36-1.34-1.91 1-.37.72 2.08-.38.2zm-2.18 1.13-1.03-2.37 1.51-.56 1.38 1.95-1.86.98zm-2.82 1.47-.99-2.8.61-.23 1.34 2.53-.96.5zm-2.22 1.15-1.15-3.09 1.17-.43 1.8 2.57-1.82.95zm-1.08.56-1.03-2.67 1.74 2.3-.71.37zm-1.57-3.1.9 2.32-1.48-2.11.58-.21zm1.19-.43.84 2.26-1.51-2 .67-.26zm2.36-.87.71 2-1.26-1.8.55-.2zm2.8-1.03.67 1.53-1.11-1.37.44-.16zm-1.55.58.53-.2.39 1.94-.92-1.74zm.9-.12 1.62 1.99-1.1.57-.52-2.56zm5.37-2.19 1.07-.39-.25 2.19-.48.25-.34-2.05zm1.43-.52 1.04-.38-.75 2.23-.53.28.24-2.13zm-11.93 8.2-1.88-3.14.4-.14 2.08 2.97-.6.31zm12.65-6.57.72-2.16.48-.17.39.41-.75 1.58c-.1-.01-.19.01-.29.05l-.55.29zm4.19 2.04 1.64.42 2.74 2.83-4.38-3.25z" fill="#000000" stroke-width="none" opacity="1"></path></g></g></g><g id="svga-group-beardwrap" transform="matrix(1,0,0,1,0,0)"><g id="svga-group-beard-single-move" transform="matrix(1,0,0,1,0,0)"><g id="svga-group-beard-single" transform="matrix(1,0,0,1,0,0)"></g></g></g><g id="svga-group-mustache-single-move" transform="matrix(1,0,0,1,0,0)"><g id="svga-group-mustache-single" transform="matrix(1,0,0,1,0,0)"></g></g><g id="svga-group-nose-single-move" transform="matrix(1,0,0,1,0,0)"><g id="svga-group-nose-single" transform="matrix(1,0,0,1,0,0)"><path id="SvgjsPath70844" d="M105.44 100.55s2.43 2.68 3.35 5.44c.92 2.76.84 4.52-1.34 5.1-2.17.59-3.76-.84-3.76-.84s-1.76 2.84-4.1 2.43c-2.34-.42-3.18-2.17-3.18-2.17s-2.76 1.59-4.27.67-1.84-3.85-1-5.6c.84-1.76 3.26-4.85 3.26-4.85s-.75-3.93.17-6.36 1.92-3.76 4.77-4.52c2.84-.75 4.27 1.09 5.1 2.09.84 1 1.92 4.43 1 8.61z" fill="#ffffff" stroke-width="none" opacity="1"></path><path id="SvgjsPath70845" d="M107.82 102.5c-.44-.7-1.56-.06-1.12.65.93 1.49 1.85 3.27 1.93 5.07.11 2.62-2.86 3.29-4.45 1.49-.27-.31-.83-.22-1.02.13-1.47 2.75-4.68 2.97-6.33.24a.66.66 0 0 0-1.02-.13c-1.54 1.46-4.29.98-4.55-1.35-.19-1.68.64-3.51 1.36-4.99.36-.74-.75-1.4-1.12-.65-1.04 2.14-2.53 5.49-.83 7.68 1.36 1.75 3.75 1.83 5.45.69 2.09 2.69 5.76 2.6 7.73-.17 1.71 1.29 4.43 1.27 5.63-.78 1.4-2.36-.4-5.85-1.66-7.88z" fill="#000000" stroke-width="none" opacity="1"></path><path id="SvgjsPath70846" d="M95.91 104.08c-1.08-2.69-1.49-5.59-.98-8.46.47-2.64 1.77-5.03 1.77-7.75 0-1.38-.28-2.76-.22-4.14.05-1.34.47-2.63.57-3.97.17-2.41-.85-4.61-1.87-6.73-.36-.75-1.48-.09-1.12.65.61 1.27 1.24 2.55 1.54 3.94.36 1.64-.03 3.09-.28 4.7-.4 2.64.43 5.25-.19 7.88-.56 2.38-1.53 4.57-1.68 7.04-.15 2.47.3 4.9 1.21 7.19.31.75 1.56.42 1.25-.35z" fill="#000000" stroke-width="none" opacity="1"></path><path id="SvgjsPath70847" d="M103.25 83.61c.04 1.38-.22 2.76-.22 4.14-.01 2.62 1.21 4.93 1.71 7.46.58 2.97.2 5.96-.92 8.75-.31.77.94 1.11 1.25.34.91-2.29 1.37-4.73 1.21-7.19-.16-2.47-1.11-4.66-1.68-7.04-.62-2.62.21-5.24-.19-7.88-.23-1.48-.62-2.9-.34-4.41.27-1.49.95-2.87 1.6-4.22.36-.75-.75-1.4-1.12-.65-.97 2.01-1.98 4.14-1.89 6.43.05 1.43.55 2.82.59 4.27z" fill="#000000" stroke-width="none" opacity="1"></path></g></g><g id="svga-group-hair-front" transform="matrix(1,0,0,1,0,0)"><path id="SvgjsPath70789" d="M131.7 46.3s3.4 2.9 5.6 6.1c2.2 3.2 2.2 27.8 2.2 31s3.7.5 4.1-.5c.5-1 .5-7.1 1-9 .5-2 2.2-3.9 2.2-3.9s.2-19.8-1.2-23.7c-1.5-3.9-4.4-4.9-4.4-4.9s2.4-4.1 1.5-9.5c-1-5.4-7.3-19.3-29.5-24.6s-46.8 3.9-49.5 20.5c0 0-11 9.3-10.5 22.4 0 0-1.2 11.7 0 21 0 0 2.9 1 3.4 3.4s0 11 .7 11.7 1.5 1.2 2.2 1.2 1-5.4 1-5.4.5 1.5 3.4 2.2-1.8 6.7-1.8 6.7 8.3-2.9 6.3-8.1c-2-5.1-6.9-8.4-3.9-13.4 3.9-6.6 11-.7 14.9-10.2S75 44.7 76.2 42.2c1.2-2.4 6.6-.5 6.6-.5s10 1.5 14.4-1.2c0 0 6.6 2.7 12.2 1.5 0 0 10.2 3.9 15.6 2 .1-.1 3 3.1 6.7 2.3z" fill="#ffffff" stroke-width="none" opacity="1"></path><path id="SvgjsPath70790" d="M146.5 46c-1.1-2.9-2.9-4.3-4-5 .7-1.6 1.9-5.1 1.1-9.2-1.3-7-9.1-20.3-30.3-25.4C99.5 3 83.9 5.2 73.6 12.1c-6.1 4-9.8 9.3-10.9 15.2-1.8 1.6-11 10.5-10.6 22.9-.1 1.1-1.2 12.1 0 21.1 0 .4.3.7.7.8 0 0 2.4.8 2.8 2.7.2 1 .2 3.3.2 5.5.1 4.9.1 6.2.8 6.8 1 1 2 1.5 2.9 1.5.7 0 1.4 0 1.8-4.1.6.3 1.3.7 2.3.9.2 0 .2.1.2.1.3.7-1.1 3.2-2.4 4.9-.3.3-.3.8 0 1.2.2.3.5.4.8.4.1 0 .2 0 .3-.1.2-.1 5.2-1.9 6.8-5.3.6-1.3.6-2.7.1-4-.7-1.7-1.6-3.2-2.5-4.6-1.9-2.9-3.2-5-1.5-8 1.5-2.6 3.5-2.9 5.9-3.4 3.1-.6 6.7-1.3 9-7 2.7-6.7-.1-11.3-2-14.4-.6-.9-1.4-2.2-1.2-2.6.6-1.2 3.9-.5 5.4 0h.2c.4.1 9.8 1.4 14.6-1.1 1.6.6 7.1 2.4 12 1.4 1.7.6 10.2 3.5 15.4 2 1 .9 3.5 2.7 6.5 2.4.9.8 3.4 3.2 5.1 5.6 1.2 1.8 2 13.7 2 30.4 0 1.9 1.1 2.3 1.6 2.4 1.8.4 4-1.6 4.5-2.5.3-.6.4-1.9.6-4.8.1-1.7.2-3.6.4-4.5.4-1.7 2-3.5 2-3.5.2-.2.2-.4.2-.6.2-.6.4-19.8-1.1-23.8zm-.7 19.4c-1.2 2.6-3.1 4.6-5.5 6.1 0-.7 0-1.5-.1-2.2 2.3-1.2 4.2-3 5.5-5.1.1.4.1.8.1 1.2zm-6.2-6.6c2.3-.7 4.3-1.9 6-3.6.1 2.1.1 4.3.2 6.4-1.2 2.6-3.1 4.7-5.6 6.2-.1-3.2-.3-6.3-.6-9zm5.9-5.3c-1.6 2-3.6 3.3-6 4.1-.2-1.6-.4-3-.7-4.1 2.5-.6 4.7-2 6.4-3.9.1 1.1.2 2.4.3 3.9zM62 30.8c-.2 2.3-.1 5.6 1.2 9.5 1.5 4.3 4.2 6.8 6.3 8.8 1.5 1.4 2.8 2.6 3.5 4.2.5 1.2.5 2.2 0 3.1-.8 1.5-2.9 2.8-5.9 3.6-2.3.6-5 2.6-7 5.4.7-1.5 1.6-3.1 2.7-4.6 1.2-1.7 2.7-3.4 2.4-5.7-.2-1.6-1.3-2.8-2.4-3.8-3.9-3.9-6.8-7-5.6-13.2v-.2c1.4-3 3.3-5.4 4.8-7.1zm-6.4 10.5c0 1.4.3 2.7.8 4.1 1.2 3.2 3.6 4.2 5.5 6.8 3.9 5.3-1.6 8.8-3.3 13.1 0-.7-.1-1.4-.3-2.1-.8-3.2-4.4-5-4.4-8.4v-.7c.1-2.2.3-3.7.3-3.7v-.1c-.2-3.3.4-6.3 1.4-9zM54 70.5c-.5-4.1-.5-8.6-.4-12.3.7 1.1 1.7 2.1 2.5 3.4 1.7 2.9.8 6.3 1.3 9.5-.1.3-.1.6-.2.9-.1.4-.1.8-.1 1.3-.8-1.6-2.2-2.4-3.1-2.8zm5.4 11.6c-.1 1.5-.3 3.4-.5 4.3-.2-.1-.5-.3-.9-.7-.2-.7-.2-3.6-.3-5.5v-2.1c.4 1.2 1.1 2.3 1.9 3.4-.1.2-.1.4-.2.6zm23.7-41.4c-.8-.3-4.7-1.5-6.8 0-1-3.3-.9-6.6.3-9.8.4-1 .8-1.9 1.4-2.8 8.4-6.1 20.3.9 18.4 11.7-4 2.1-12.3 1-13.3.9zm14.6-1.2c1.5-10.6-9.1-17.7-17.8-13.9 2.3-2.6 5.4-4.9 9.1-6.5 2.7-1.2 6.1-1.8 9.7-1.8 10.4 1.8 16.3 13.8 10.1 23.7-5.1.9-10.9-1.4-11.1-1.5zm12.4 1.6c5.3-9 1.3-19.5-6.9-23.5 7.8.9 15.7 4.3 19.3 10 5.3 8.1 2.6 14.1 1.9 15.5-4.5 1.3-12.7-1.4-14.3-2zm16.2 2.6c1.1-2.2 3.4-8.7-2.1-17.2-6.7-10.4-25.5-13.7-36.1-9.2-5.9 2.5-10.4 6.7-12.8 11.5-.2.4-.4.9-.6 1.3-1.7 4.4-1.5 9 .6 13.5.3.8.8 1.6 1.4 2.6 1.8 2.9 4.2 6.9 1.9 12.6-1.9 4.7-4.5 5.2-7.6 5.8-2.5.5-5.3 1-7.3 4.3-2.4 4-.4 7.1 1.5 10.1.8 1.3 1.7 2.7 2.3 4.2.3.9.3 1.7-.1 2.5-.5 1-1.5 1.9-2.5 2.6.6-1.2 1-2.6.7-3.6-.1-.4-.4-.7-.7-.9v-.1c-5.8-3.9-6.4-8.4-5.9-11.5.8-5.1 5.1-9.5 8.3-10.4 2.6-.7 5.9-2 7.2-4.7.7-1.4.7-3 0-4.7-.8-2-2.3-3.4-4-4.9-2.1-1.9-4.5-4.1-5.8-8-2.3-6.6-.5-11.5-.5-11.5 0-.1.1-.1.1-.2.9-5.5 4.4-10.4 10.1-14.2 9.9-6.6 24.9-8.7 38.2-5.5 20.2 4.9 27.6 17.3 28.8 23.8.9 4.7-1.2 8.5-1.3 8.8-2.6 3.9-8.7 4.4-8.7 4.4h-.1c-2.1.7-4-.7-5-1.4zm7.6 3.3c2.2-.5 5.5-1.6 7.6-4.3.8.5 2.3 1.6 3.2 4 .1.3.2.7.3 1.2-1.6 2.3-3.9 3.8-6.6 4.5-.1-.2-.2-.3-.2-.5-1.4-2-3.1-3.7-4.3-4.9zm9.7 26.6c-.3 1-.4 2.9-.5 4.8-.1 1.5-.2 3.6-.4 4-.3.5-1.8 1.5-2.2 1.5 0 0-.1-.1-.1-.5 0-3.1 0-6.7-.1-10.5 2.2-1.2 4.1-2.8 5.4-4.9v1.6c-.4.7-1.6 2.3-2.1 4z" fill="#000000" stroke-width="none" opacity="1"></path></g><g id="svga-group-glasses-single-move" transform="matrix(1,0,0,1,0,0)"><g id="svga-group-glasses-single" transform="matrix(1,0,0,1,0,0)"><path id="SvgjsPath70761" d="M73.13 87.29c-1.14 4.02.41 8.46 4.19 11.34 3.78 2.88 9.98 2.58 13.4-.49 3.29-2.96 5.01-7.97 2.14-13.4-2.88-5.42-8.3-5.34-10.85-5.18s-7.15 1.64-8.88 7.73z" fill="#ffffff" stroke-width="none" opacity="0.35"></path><path id="SvgjsPath70762" d="M126.23 87.29c1.14 4.02-.41 8.46-4.19 11.34-3.78 2.88-9.98 2.58-13.4-.49-3.29-2.96-5.01-7.97-2.14-13.4 2.88-5.42 8.3-5.34 10.85-5.18s7.15 1.64 8.88 7.73z" fill="#ffffff" stroke-width="none" opacity="0.35"></path><path id="SvgjsPath70763" d="M128.89 86.01c-.22-.2-1.51-.13-2.31-.06-2.31-6.19-7.55-7.03-9.17-7.14-2.06-.13-8.32-.54-11.56 5.57-.78 1.47-1.23 2.89-1.43 4.24-2.59-.07-6.96-.07-9.46-.01-.2-1.35-.65-2.76-1.43-4.23-3.24-6.11-9.5-5.71-11.56-5.57-1.63.1-6.87.94-9.17 7.14-.8-.07-2.09-.14-2.31.06-.33.3-.16 2.6-.03 2.8.08.11.93.1 1.63.06-.39 3.84 1.38 7.76 4.8 10.35 1.9 1.45 4.36 2.16 6.82 2.16 2.77 0 5.55-.91 7.53-2.69 2.05-1.84 3.72-4.64 3.85-8 2.49.03 6.67 0 9.23-.07.11 3.39 1.78 6.21 3.85 8.07 1.98 1.78 4.76 2.69 7.53 2.69 2.46 0 4.92-.71 6.82-2.16 3.42-2.6 5.18-6.52 4.8-10.35.71.04 1.56.05 1.63-.06.1-.2.27-2.5-.06-2.8zM90.22 97.58c-3.18 2.86-9 3.08-12.44.45-3.45-2.63-4.99-6.77-3.92-10.54 1.78-6.29 6.73-7.09 8.2-7.18 3.15-.2 7.64.07 10.14 4.78.66 1.24 1.05 2.44 1.23 3.58-.23.02-.37.04-.38.06-.19.24-.17 1.64-.04 1.86.02.03.22.05.55.06-.13 2.91-1.57 5.33-3.34 6.93zm31.36.45c-3.44 2.62-9.26 2.41-12.44-.45-1.79-1.61-3.24-4.06-3.34-7.01.42-.02.67-.04.7-.07.22-.17.17-1.47 0-1.73-.02-.03-.23-.06-.57-.08.19-1.15.58-2.35 1.24-3.6 2.5-4.71 6.98-4.98 10.14-4.78 1.47.09 6.42.89 8.2 7.18 1.07 3.77-.47 7.91-3.93 10.54z" fill="#000000" stroke-width="none" opacity="1"></path></g></g></g></g></g><rect id="svga-credit-rect" width="200" height="15" x="0" y="185" fill="#ecf0f1" opacity="0.5" style="display: none;"></rect><text id="svga-credit-text" font-family="Avenir Next, Roboto, Helvetica, Arial, sans-serif" font-size="10px" text-anchor="start" font-weight="400" size="10px" anchor="start" weight="400" fill="#333333" x="33.402061462402344" y="182.71133995056152" style="display: none;"><tspan id="SvgjsTspan70168" dy="13" x="33.402061462402344">Created on AvatarMaker.com</tspan></text></g></svg>