<svg xmlns="http://www.w3.org/2000/svg" version="1.1" width="600px" height="600px" viewBox="0 0 200 200" style="overflow:hidden!important;"><defs id="SvgjsDefs54000"></defs><g id="svga-group-wrapper"><g id="svga-group-backs-single"></g><g id="svga-group-humanwrap-move" transform="matrix(1,0,0,1,0,0)"><g id="svga-group-humanwrap" transform="matrix(1,0,0,1,0,0)"><g id="svga-group-hair-back-move" transform="matrix(1,0,0,1,0,0)"><g id="svga-group-hair-back" transform="matrix(1,0,0,1,0,0)"></g></g><g id="svga-group-humanbody-back"><path id="SvgjsPath54410" d="M77.6 118.3c0 19.3 3.4 44.1-10 51.9-13.4 7.9-31.9 11.3-37.8 22s-4.4 25.3-4.4 25.3h149.3s.7-18.9-5.1-26.4c-8.1-10.4-27.8-15.5-37.7-20.9s-13.4-25.1-13.4-52.4l-40.9.5z" fill="#ffffff" stroke-width="none" opacity="1"></path><path id="SvgjsPath54411" d="M175.8 218.7H24.4l-.1-1c-.1-.6-1.5-15.1 4.5-26 4.1-7.4 13.5-11.3 23.5-15.5 5-2.1 10.2-4.3 14.8-6.9 10.6-6.2 10.1-23.9 9.6-41-.1-3.5-.2-6.8-.2-10v-1.1l43.2-.4v1.1c0 29.9 4.2 46.7 12.8 51.4 2.9 1.6 6.7 3.2 10.8 4.9 10 4.1 21.3 8.8 27.2 16.3 6.1 7.7 5.4 26.4 5.4 27.1l-.1 1.1zm-149.3-2.2h147.1c0-4.1-.2-18.5-4.9-24.6-5.5-7-16.6-11.6-26.3-15.6-4.1-1.7-8-3.3-11-5-5.1-2.8-8.7-8.9-10.9-18.7-2-8.4-2.9-19.4-3-33.5l-38.6.4c0 2.8.1 5.7.2 8.8.5 17.8 1 36.1-10.7 43-4.7 2.7-9.9 4.9-15 7.1-9.6 4-18.7 7.8-22.4 14.5-5 8.6-4.7 20.1-4.5 23.6z" fill="#000000" stroke-width="none" opacity="1"></path><path id="SvgjsPath54412" d="M93.9 153.8c-.5 1.8-.4 3.4.5 5.2.8 1.6 2.1 2.7 3.9 2.9.4 0 .7-.5.5-.8-1.6-2.2-3.5-4.2-3.7-7.1 0-.7-1-.9-1.2-.2zm18.6 33.7c8.8.5 18.1-.7 26.6-2.9.7-.2.6-1.4-.2-1.3-8.8 1.1-17.7 2-26.5 3.3-.5.1-.3.9.1.9zm-49.4-5c3.8.9 7.6 1.9 11.5 2.8 3.6.8 7.4 2 11.1 2.1.7 0 .8-.9.2-1.2-3.5-1.4-7.5-1.7-11.2-2.5-3.8-.7-7.5-1.3-11.3-2-.5 0-.7.7-.3.8z" fill="#000000" stroke-width="none" opacity="1"></path></g><g id="svga-group-chinshadow-single"></g><g id="svga-group-humanbody-front"></g><g id="svga-group-clothes-single"><path id="SvgjsPath54546" d="M74.7 150.8s-1.1 8.9-2.1 11c0 0-1.6 5.2-11.4 8.9S37.9 180 33.6 183s-12.8 13.7-9.8 35.4h152.8s.9-16.4-2.7-24c-3.7-7.5-8.7-10.1-13.7-12.8-5-2.7-21.9-10.1-25.4-11.9s-6.4-3.7-7.8-5.5c-1.4-1.8-4.1-12.3-4.1-12.3s-2.5 1.8-7.5 3.2-10.5 1.1-12.8 3.2-1.6 10.5-1.6 10.5l-2.5-.2s0-7.1-1.1-9.6-7.8-3.4-13.7-4.8c-6-1.4-9-3.4-9-3.4z" fill="#ffffff" stroke-width="none" opacity="1"></path><path id="SvgjsPath54547" d="M174.8 193.9c-3.7-7.5-8.7-10.3-13.6-12.9l-.6-.3c-2.9-1.6-9.5-4.6-15.4-7.2-4.4-2-8.5-3.9-10-4.6-2.8-1.5-6.1-3.4-7.4-5.2-.9-1.2-2.9-8-3.9-12-.1-.3-.3-.6-.6-.7s-.7-.1-.9.1c0 0-2.5 1.8-7.2 3-1.8.5-3.7.8-5.6 1.1-3.2.5-6 .9-7.6 2.4-2.1 1.9-2.1 7.5-2 10.1h-.4c0-2.1-.2-6.9-1.2-9.1-1.2-2.5-5.8-3.5-11.2-4.7-1.1-.2-2.1-.5-3.2-.7-5.6-1.3-8.5-3.2-8.6-3.3-.3-.2-.7-.2-1-.1s-.5.4-.6.8c-.3 2.4-1.3 9.1-2 10.7v.1c0 .1-1.7 4.9-10.8 8.3-10.3 3.8-23.5 9.5-27.9 12.4-5.2 3.5-13.1 15.2-10.2 36.4.1.5.5.9 1 .9h152.8c.5 0 1-.4 1-.9-.1-.8.8-16.9-2.9-24.6zm-40.5-23.3c1.5.8 5.5 2.6 10.1 4.7 5.8 2.6 12.5 5.6 15.3 7.2l.6.3c.3.2.7.4 1 .6-3.9 4.2-6.4 11.3-7.5 20.4-.1.1-.2.3 0 .4 0 .4-.1.8-.1 1.2-.1-.1-.3-.1-.4-.1-.2-.1-.4.3-.1.4.2.1.3.1.5.2-.3 3.6-.5 7.5-.4 11.6h-52.2V209h8.7c.6 0 1-.4 1-1s-.4-1-1-1h-8.7v-11.3l7.3.2c.5 0 1-.4 1-1s-.4-1-1-1l-7.3-.2v-13.1c3.5 0 6.7.1 6.8.1.6 0 1-.4 1-1s-.4-1-1-1c-.3 0-3.4 0-6.8-.1V172c7.9 0 16.7-1.7 25.9-6.5 1.5 1.9 4.5 3.6 7.3 5.1zm-47.7-14.7c4.2.9 9.1 1.9 9.8 3.5.9 1.9 1.1 7.3 1.1 9.2 0 .5.4.9.9 1l2.5.2c.3 0 .6-.1.8-.3.2-.2.3-.5.3-.8-.3-3.3-.1-8.5 1.3-9.7 1.2-1.1 3.8-1.5 6.6-1.9 1.9-.3 3.8-.6 5.8-1.1 3.2-.9 5.4-1.9 6.7-2.6.7 2.5 2.2 7.9 3.4 10.4-5.9 3.1-11.8 4.9-17.3 5.6-.1-3.8-.2-7.6 0-11.5 0-.2-.3-.2-.3 0-.3 3.8-.4 7.7-.1 11.5-5.5.8-10.7.6-15.3-.1.2-2.2.1-4.6.1-6.8 0-.3-.4-.3-.4 0-.1 2.2-.3 4.5-.2 6.7-.6-.1-1.2-.2-1.7-.3l.1-.1c-.1-3.6-.2-7 .3-10.6 0-.3-.4-.4-.4-.1-.6 3.5-1 7.3-.3 10.8-.6-.1-1.2-.2-1.8-.4.4-3.7.5-7.6.6-11.3 0-.2-.3-.2-.4 0-.3 3.7-.7 7.5-.7 11.3-.6-.1-1.2-.3-1.8-.5.6-3.5.8-7.1 1.1-10.7 0-.2-.3-.2-.4 0-.4 3.5-1 7.1-1.2 10.6-.7-.2-1.3-.4-2-.6.1-3.4.4-6.7 1.4-10.1.1-.2-.3-.3-.4-.1-1 3.2-1.7 6.6-1.6 10-.5-.1-.9-.3-1.3-.4.1-3.9.2-7.6 1.2-11.5v-.1c.1 0 .2.1.4.1 1 .2 2.1.4 3.2.7zm-6-1.5c.7.2 1.4.4 2.2.6 0 0-.1 0-.1.1-1.1 3.6-1.8 7.7-1.3 11.4-.6-.2-1.2-.4-1.7-.6.1-3.9.2-7.7.9-11.5zm-1.4 11.3c-.7-.3-1.3-.6-1.9-.8 0 0 0-.1.1-.1.2-3.8.3-7.5.9-11.2.6.2 1.3.5 2 .7-.8 3.7-1.4 7.6-1.1 11.4zm-3.7-13.3c.6.3 1.3.7 2.3 1.1-.7 3.7-1.1 7.5-.9 11.3-.9-.4-1.6-.8-2.3-1.1.7-3.3 1.2-7 1.2-10.4 0-.2-.3-.2-.3-.1-.7 3.2-1.2 6.8-1.4 10.1-.3-.2-.7-.4-.9-.5.2-.4.3-.7.3-.8.8-1.6 1.6-7 2-9.6zm-13.9 19.2c5.9-2.2 9-5 10.6-7 2.8 1.6 13.1 6.9 26.8 7.4v6.6c-3.7 0-7.3-.1-7.7-.1-.6 0-1 .4-1 1s.4 1 1 1h2.2c-1.2.5-2.7.8-3.5-.5-1-1.6 1.1-3.4 2.2-1.7.1.2.6.1.5-.2-.3-.9-1.2-1.3-2.1-1.1-1 .2-1.5 1.2-1.5 2.1.1 2.5 3.5 3 5 1.6.1-.1.1-.2 0-.2 1.4 0 3.1 0 4.8.1v13.1l-6.8-.2c-.5-.1-1 .4-1 1s.4 1 1 1l6.8.2V207h-7.8c-.6 0-1 .4-1 1s.4 1 1 1h7.8v8.4H45.8c.4-25.4-5.6-33.1-8.6-35.4 5.7-3 16-7.3 24.4-10.4zm-37.2 43.3c2.7.7 5.4 1.3 8.2 1.9.2 0 .2-.2.1-.3-2.7-.8-5.5-1.5-8.3-2.1 0-.7-.1-1.3-.1-2 2.8.8 5.6 1.6 8.5 2 .3.1.4-.4.1-.4-2.8-.9-5.8-1.5-8.6-2.1V209c3.4.7 6.8 1.5 10.3 1.9.2 0 .3-.3 0-.4-3.4-.9-6.9-1.4-10.3-2 0-1.1.1-2.1.1-3.1 2.9.8 5.9 1.6 8.9 2.1.2 0 .3-.3.1-.4-2.9-1-5.9-1.6-8.9-2.2.1-.8.2-1.5.3-2.2 2.1.8 4.2 1.5 6.4 2 .3.1.5-.3.2-.4-2.1-.9-4.3-1.5-6.5-2.1.1-.8.2-1.5.4-2.2 2.3.4 4.6.9 7 1.1.2 0 .3-.4 0-.4-2.3-.5-4.6-.8-6.9-1.1.2-.9.4-1.7.6-2.5 2.7.8 5.4 1.5 8.1 2 .2 0 .3-.3.1-.4-2.6-.9-5.3-1.5-8-2.1.2-.7.4-1.4.7-2 2.3.7 4.6 1.4 6.9 1.9.2.1.3-.3.1-.4-2.2-.8-4.6-1.4-6.9-2 .2-.6.5-1.3.8-1.9 2.3.8 4.6 1.7 7 2.2.2 0 .3-.2.1-.3-2.2-1-4.5-1.6-6.9-2.4.3-.7.7-1.3 1-1.9 2.2.4 4.5.9 6.8 1 .2 0 .3-.3 0-.4-2.1-.5-4.4-.8-6.6-1.1.5-.7.9-1.4 1.4-2 1.9.6 3.9 1.3 5.9 1.7.3.1.4-.3.1-.4-1.8-.7-3.8-1.2-5.7-1.7.7-.8 1.3-1.5 2-2.1 1.7.5 3.3.9 5 1.1.2 0 .2-.3 0-.4-1.4-.6-3-.9-4.5-1.2.3-.2.5-.4.8-.6.1-.1.3-.2.5-.3.4.1.8.2 1.3.4.3.1.6.3.9.4 2.7 2.6 7.4 10.5 7 33.1H24.6c-.1-.8-.1-1.6-.2-2.4zm151.2 2.5h-20.5v-1.8c.9.4 1.8.7 2.7.8.2 0 .4-.3.2-.4-.9-.5-1.9-.9-2.9-1.1V212c1.6.6 3.1 1.3 4.7 1.7.1 0 .2-.2.1-.2-1.6-.7-3.2-1.3-4.8-1.9 0-.8.1-1.6.1-2.4 1.4.6 2.7 1.3 4.1 1.8.1 0 .2-.1.1-.2-1.3-.8-2.8-1.4-4.2-2 0-.7.1-1.4.1-2 1.3.6 2.6 1.1 3.9 1.4.1 0 .2-.2.1-.3-1.2-.8-2.6-1.3-4-1.8 0-.3.1-.7.1-1 1.1.5 2.3 1 3.4 1.4.2.1.4-.3.2-.4-1.1-.6-2.3-1.1-3.5-1.6.1-.6.1-1.1.2-1.7 1.1.6 2.2 1.2 3.3 1.5.1.1.2-.1.1-.2-1-.7-2.2-1.3-3.4-1.8.1-.9.3-1.7.4-2.5.8.5 1.5.9 2.3 1.2.2.1.3-.2.1-.4-.7-.6-1.6-1-2.4-1.4.1-.7.3-1.3.4-2 .9.5 1.7 1 2.7 1.4.2.1.3-.2.1-.3-.8-.6-1.8-1.1-2.7-1.5 1.3-5.4 3.4-9.6 6-12.3 3.7 2.2 7.2 4.9 9.9 10.5 3.5 6 3.3 18.8 3.1 22.4zm-82.3-21.1c.1-.2-.1-.4-.3-.3-1 .8-2.5 1-3-.4-.6-1.4.8-2.5 2.1-2.3.3.1.4-.3.1-.4-1.8-.7-3.4 1.2-2.8 2.9.5 1.6 3.1 2.2 3.9.5zM89.8 210c.7.3 1.7.4 2.3-.2.2-.2 0-.5-.2-.4-.5.2-1 .3-1.6.2-.7-.2-1.1-.8-1.1-1.5-.1-1.5 1.6-2.1 2.8-1.4.2.1.4-.2.2-.3-1.5-1.1-3.6 0-3.5 1.8-.1.7.4 1.5 1.1 1.8zm20.1-4.8c-.2 0-.3.3-.1.4.9.4 1.7 1.1 1.9 2.1.1.6.1 1.2-.2 1.7-.5.8-1.7 1.1-2.2.1-.1-.2-.5-.1-.4.2.7 1.9 2.9.9 3.4-.6.5-1.7-.6-3.8-2.4-3.9zm.4-9.9c.2-1.5-1.6-2.8-2.8-1.9-.2.1-.1.4.1.3.9-.2 2.2.4 2.1 1.5-.1 1.1-1.5 1.5-2.3 1.1-.2-.1-.4.2-.2.3 1.1.8 2.9.1 3.1-1.3zM110 180c.3-1.3-1.4-3.1-2.7-2.2-.2.1-.1.4.1.4.5 0 1 0 1.4.3.5.3.8.9.7 1.6-.3 1-1.5 1.4-2.4.9-.2-.1-.4.2-.2.3 1.1.8 2.9 0 3.1-1.3zm48.5 13.4c-.3-.1-.5.3-.2.4.9.4 1.7.9 2.6 1.1.2.1.2-.2.1-.3-.7-.5-1.6-.8-2.5-1.2zm-52.9-23.9c-.2-3.4-.6-6.6-.7-10 0-.2-.3-.2-.3 0-.2 3.3-.1 6.8.7 10.1 0 .2.3.1.3-.1zm8.1-1.7c-.4-3.3-1.2-6.6-1.8-9.9 0-.2-.3-.1-.3.1.6 3.3 1 6.6 1.9 9.8 0 .2.2.2.2 0zm3.2-.6c-.1-3.1-.8-6.2-1.3-9.2 0-.2-.4-.1-.4.1.4 3 .6 6.2 1.4 9.1.1.2.3.1.3 0zm2.5-1.4c-.2-1.4-.6-2.7-1-4.1-.1-.2-.4-.1-.4.1.3 1.3.6 2.8 1.1 4.1.1.1.3 0 .3-.1z" fill="#000000" stroke-width="none" opacity="1"></path></g><g id="svga-group-head" transform="matrix(1,0,0,1,0,0)"><g id="svga-group-ears-left-move" transform="matrix(1,0,0,1,0,0)"><g id="svga-group-ears-left" transform="matrix(1,0,0,1,0,0)"><path id="SvgjsPath54559" d="M60.8 86.8s-2.1-5.1-4.3-8.3c-2.2-3.2-5.5-7.6-7.6-8.7s-3.6-.4-3 2.6 3 12.6 3.6 15.6c.7 3 2.2 9.4 4.2 13.6 1.9 4.2 3.1 6.1 5.2.5 2.1-5.7 3.4-11.8 1.9-15.3z" fill="#ffffff" stroke-width="none" opacity="1"></path><path id="SvgjsPath54560" d="M52.9 102c-2-4.4-3.6-11.1-4.2-13.8-.2-1-.7-2.9-1.2-5-.9-3.9-2.1-8.7-2.4-10.7-.4-2.2.2-3.3.9-3.7.5-.4 1.6-.8 3.5.2 2.3 1.2 6.6 3.9 8.9 7.3 2.2 3.3 3.3 10 3.4 10.2 1.7 4.1 1.3 10.3-.6 15.3-1 2.8-3.3 4.7-4.5 4.8h-.1c-1.5-.1-2.5-1.9-3.7-4.6zm2.9-23.1c-3-4.5-5.7-7.6-7.2-8.4-.9-.5-1.4-.5-1.6-.3-.2.2-.4.8-.2 2 .4 1.9 1.5 6.7 2.4 10.6.5 2.1.9 4 1.2 5 .6 2.6 2.2 9.2 4.1 13.4.4.9 1.5 3.3 2 3.5.1 0 .6-.3 1.6-2.9 2.4-6.6 3.1-11.8 2-14.7-.1-.1-2.2-5.1-4.3-8.2z" fill="#000000" stroke-width="none" opacity="1"></path><path id="SvgjsPath54561" d="M47.6 73.1c3.5 4 6.5 10.6 7 16.9 0 .4-.4.5-.5.1-.1-.6-.2-1.1-.4-1.7-.3-.8-.9-.9-1.6-.2.1.5.1 1 .3 1.4.2.6.4 1.3.6 1.9.6 1.5 1.3 2.6 2 3.9.1.3 0 .7-.3.5-1.7-1.4-3.4-5.4-3.4-8.2 0-.8.3-1.6.9-1.7.4 0 .7.1.9.4-1.3-4.9-3-8.9-5.8-13 0-.2.1-.5.3-.3z" fill="#000000" stroke-width="none" opacity="1"></path></g></g><g id="svga-group-ears-right-move" transform="matrix(1,0,0,1,0,0)"><g id="svga-group-ears-right" transform="matrix(1,0,0,1,0,0)"><path id="SvgjsPath54562" d="M139.2 86.8s2.1-5.1 4.3-8.3c2.2-3.2 5.5-7.6 7.6-8.7 2.1-1.1 3.6-.4 3 2.6-.6 3-2.9 12.7-3.6 15.7-.7 3-2.2 9.4-4.2 13.6-1.9 4.2-3.1 6.1-5.2.5-2.1-5.8-3.4-11.9-1.9-15.4z" fill="#ffffff" stroke-width="none" opacity="1"></path><path id="SvgjsPath54563" d="M143.5 106.5s-.1 0 0 0c-1.3 0-3.5-1.9-4.6-4.8-1.8-5-2.3-11.2-.6-15.3.1-.2 1.2-6.9 3.4-10.2 2.3-3.4 6.6-6.1 8.9-7.3 1.9-1 3-.5 3.5-.2.6.5 1.3 1.5.9 3.7-.4 1.9-1.5 6.8-2.4 10.7-.5 2.1-.9 4-1.2 5-.6 2.7-2.2 9.4-4.2 13.8-1.3 2.8-2.3 4.6-3.7 4.6zM140 87.1c-1.2 2.8-.5 8 2 14.7 1 2.6 1.5 2.9 1.6 2.9.5-.2 1.6-2.6 2-3.5 1.9-4.2 3.5-10.8 4.1-13.4.2-1 .7-2.9 1.2-5 .9-3.9 2.1-8.7 2.4-10.6.2-1.2 0-1.8-.2-2-.2-.1-.7-.1-1.5.3-1.5.8-4.2 4-7.2 8.4-2.3 3.1-4.4 8.1-4.4 8.2z" fill="#000000" stroke-width="none" opacity="1"></path><path id="SvgjsPath54564" d="M152.4 73.1c-3.5 4-6.5 10.6-7 16.9 0 .4.4.5.5.1.1-.6.2-1.1.4-1.7.3-.8.9-.9 1.6-.2-.1.5-.1 1-.3 1.4-.2.6-.4 1.3-.6 1.9-.6 1.5-1.3 2.6-2 3.9-.1.3 0 .7.3.5 1.7-1.4 3.4-5.4 3.4-8.2 0-.8-.3-1.6-.9-1.7-.4 0-.7.1-.9.4 1.3-4.9 3-8.9 5.8-13 0-.2-.1-.5-.3-.3z" fill="#000000" stroke-width="none" opacity="1"></path></g></g><g id="svga-group-faceshape-wrap" transform="matrix(1,0,0,1,0,0)"><g id="svga-group-faceshape-single"><path id="SvgjsPath54631" d="M142.2 53.9c-2.3-11.4-15.1-28.8-42.4-28.8S63.4 38.5 59.3 48.4c-2.5 6.2-3.2 15.2-3.4 19.7 0 0 .3 26 5 39.8s19.3 26.1 23.3 29.7c4 3.6 4.8 6.9 7.8 8.2 2.7 1.1 5-.5 6.9-.5 2.1 0 5.6 2.7 8.8-1.9 3.4-4.9 18.4-12.1 25.6-24.9 7.1-12.8 8.8-33.5 10.2-50.4.1-3.2-.1-8.9-1.3-14.2z" fill="#ffffff" stroke-width="none" opacity="1"></path><path id="SvgjsPath54632" d="M94.3 147.1c-.8 0-1.6-.1-2.4-.5-1.9-.8-3.7-2.3-4.6-3.9-.8-1.4-1.6-2.9-3.5-4.5-.4-.3-.8-.7-1.4-1.2-5.6-4.8-17.9-16.2-22.3-29C55.4 94.2 55 68.9 55 67.8c.2-4.8.9-13.8 3.4-20.1 6.6-16.2 20.1-24 41.5-24 12.3 0 23.2 3.6 31.3 10.4 6.3 5.2 10.9 12.5 12.2 19.3 1.1 5.5 1.3 11.4 1.4 14.4v.6c-1.4 16.7-3.1 37.5-10.3 50.5-4.7 8.4-12.7 14.5-18.6 19-3.2 2.4-5.9 4.4-7 6-2.8 4.1-6.2 3.2-8.2 2.6-.6-.2-1.1-.3-1.5-.3-.5 0-1.2.2-1.9.4-.8.2-1.9.5-3 .5zm-37-79.2c0 1 .4 26.2 5 39.4 4.2 12.2 16.1 23.3 21.6 28 .5.5 1 .9 1.4 1.2 2.1 1.9 3.1 3.7 3.9 5.1.8 1.4 2.3 2.4 3.6 2.9 1.4.6 2.6.2 4-.2.8-.2 1.7-.5 2.5-.5.7 0 1.4.2 2.1.4 2 .5 3.8 1 5.7-1.7 1.3-1.9 4-4 7.5-6.6 5.7-4.3 13.6-10.2 18-18.2 6.9-12.5 8.7-33 10-49.5v-.4c0-3-.3-8.7-1.4-14-1.3-6.4-5.6-13.1-11.5-18-7.7-6.5-18-9.9-29.9-9.9-20.3 0-33.2 7.4-39.4 22.6-2.2 6-2.9 14.7-3.1 19.4z" fill="#000000" stroke-width="none" opacity="1"></path></g></g><g id="svga-group-mouth-single-move" transform="matrix(1,0,0,1,0,0)"><g id="svga-group-mouth-single" transform="matrix(1,0,0,1,0,0)"><path id="SvgjsPath54508" d="M117.6 112.37a.3.3 0 0 1-.04-.08c-.02-.02-.03-.04-.05-.05l-.02-.02c-.01-.01-.03-.02-.04-.03-.01-.01-.03-.02-.04-.03-.17-.13-.41-.16-.59-.02a49.858 49.858 0 0 1-36.79.18.417.417 0 0 0-.37-.07c-.39.05-.58.57-.35.87l.01.01c2.75 3.88 5.17 8.27 8.57 11.62 3.08 3.03 6.65 3.26 10.79 3.13 3.71-.11 7.51-.08 10.24-2.97 3.34-3.54 5.98-7.87 8.61-11.94a.57.57 0 0 0 .07-.6zm-1.87 1.3c-1.18 1.78-2.39 3.53-3.64 5.26-3.6 2.43-8.04 2.66-12.26 2.51-4.95-.18-9.86-.9-14.67-2.1a.569.569 0 0 0-.29 0c-1.28-1.8-2.48-3.66-3.73-5.49a50.934 50.934 0 0 0 34.59-.18zm-5.8 8.18c-.05-.18-.1-.35-.15-.54.27-.1.53-.21.79-.33-.21.3-.42.58-.64.87zm-1.05 1.35c-.23-.45-.4-.93-.5-1.42.08-.02.16-.04.25-.08.11.44.25.88.41 1.3-.05.07-.11.13-.16.2zm-.64.72c-.23-.64-.45-1.29-.68-1.93 0-.01-.01-.01-.01-.01.1-.02.21-.05.3-.07.13.61.35 1.18.65 1.73-.08.09-.17.19-.26.28zm-.68.68c-.29-.81-.51-1.63-.67-2.48l.17-.03c0 .04-.01.09.01.14.26.71.5 1.42.76 2.13l-.27.24zm-.6.49c-.27-.95-.52-1.9-.71-2.86.03-.01.07-.01.1-.02.17.94.43 1.86.77 2.76-.05.05-.1.08-.16.12zm-.59.4c-.25-1.06-.55-2.11-.89-3.15l.23-.03v.01c.21 1.04.48 2.07.78 3.1-.03.01-.08.04-.12.07zm-.69.36-1.14-3.42c.13-.01.27-.02.41-.04.37 1.11.68 2.22.94 3.35-.08.05-.14.09-.21.11zm-.96.36c-.41-1.21-.74-2.45-.99-3.71.09 0 .17-.01.25-.02.4 1.19.79 2.38 1.19 3.58-.14.06-.3.1-.45.15zm-2.7.44c-.35-1.37-.7-2.74-1.05-4.1.09 0 .17.01.26 0h.25c.14 1.38.39 2.74.74 4.08-.07.01-.13.02-.2.02zm-1.11.07c-.28-1.4-.56-2.79-.85-4.2.12 0 .24 0 .36.01.35 1.39.71 2.77 1.06 4.16l-.57.03zm-.66.03c-.28-1.41-.56-2.82-.83-4.23.03 0 .06.01.09 0 .28 1.41.57 2.81.85 4.23a.205.205 0 0 0-.11 0zm-.95.01c-.3-1.42-.57-2.86-.82-4.3.12.01.24.01.36.02.28 1.42.56 2.84.84 4.28-.11-.01-.25 0-.38 0zm-1.36-4.33c.24 1.45.52 2.89.81 4.33-.48-1.42-.84-2.87-1.08-4.35.09.01.18.02.27.02zm4.83 4.15a27.81 27.81 0 0 1-.73-4.02c.11 0 .22 0 .33-.01.26 1.33.52 2.65.77 3.98-.14.02-.25.04-.37.05zm.89-.13-.75-3.91c.09 0 .18 0 .27-.01.25 1.29.6 2.57 1.01 3.81-.18.04-.35.08-.53.11zm5.49-4.91c.04-.02.08-.03.13-.05.08.3.17.6.25.89-.03.04-.06.08-.09.11-.12-.3-.21-.62-.29-.95zm-12.95.81c.25 1.5.58 2.99.95 4.46-.16.01-.31 0-.47.01-.3-1.5-.53-3.01-.69-4.53.07.01.15.01.22.02-.01.01-.01.02-.01.04zm-.16 4.47-1.05-4.63c.15.01.3.03.45.04.16 1.54.39 3.07.7 4.58-.04 0-.07.01-.1.01zm-.84-.03c-.37-1.57-.73-3.14-1.1-4.71.1.01.21.03.31.04.36 1.56.7 3.12 1.06 4.68-.09 0-.18-.01-.27-.01zm-1.01-.08a36.26 36.26 0 0 1-.99-4.74c.11.01.23.03.34.04l1.11 4.74c-.16-.02-.31-.03-.46-.04zm-1.03-.18-.84-4.69c.11.02.22.03.33.05.22 1.6.54 3.17.97 4.73-.16-.03-.31-.06-.46-.09zm-.81-.2c-.4-1.55-.8-3.11-1.2-4.65.21.03.42.06.62.1-.01.04-.02.08 0 .12l.81 4.5c-.08-.03-.15-.06-.23-.07zm-.9-.35c-.49-1.46-.87-2.95-1.17-4.47.1.02.19.04.29.05.39 1.51.77 3.02 1.17 4.54-.09-.03-.19-.08-.29-.12zm-.95-.51c-.44-1.36-.81-2.73-1.11-4.11l.36.06c-.01.04-.02.08-.01.13.26 1.38.62 2.74 1.04 4.08-.09-.05-.2-.1-.28-.16zm-1-.73a48.71 48.71 0 0 1-.96-3.54c.09.02.18.04.27.05.26 1.25.57 2.48.95 3.7-.09-.07-.18-.14-.26-.21zm-.94-.84c-.32-.96-.64-1.93-.98-2.89.12.02.25.05.36.07.23 1.01.49 2 .78 2.98-.05-.05-.1-.11-.16-.16zm-1.57-3.03c0 .01 0 .02.01.02.17.51.34 1.02.51 1.51-.27-.53-.52-1.06-.78-1.6.09.03.18.05.26.07zm-1.2-.29c.09.02.18.05.28.07.11.25.23.49.34.73-.22-.26-.43-.53-.62-.8zm11.91 6.22c-.38-1.47-.7-2.96-.95-4.45l.36.03c.24 1.5.6 2.97 1.08 4.41h-.11c-.12.01-.24 0-.38.01z" fill="#000000" stroke-width="none" opacity="1"></path></g></g><g id="svga-group-eyes-left-move" transform="matrix(1,0,0,1,0,0)"><g id="svga-group-eyes-left" transform="matrix(1,0,0,1,0,0)"><g id="svga-group-eyesback-left"></g><g id="svga-group-eyesiriswrapper-left"><g id="svga-group-eyesiriscontrol-left" transform="matrix(1,0,0,1,0,0)"><g id="svga-group-eyesiris-left" transform="matrix(1,0,0,1,0,0)"><path id="SvgjsPath54674" d="M83.6 85.1c-1.1-2.1-3.5-2.9-5.7-2.2-2.4.8-4.2 3.3-3.3 5.9.5 1.4 1.6 2.6 3.1 2.9.5.1 1 .1 1.6.1.6.1 1.2 0 1.8-.2 2.6-.9 3.8-4 2.5-6.5z" fill="#ffffff" stroke-width="none" opacity="1"></path><path id="SvgjsPath54675" d="M81.8 86.2c0-.1 0-.1-.1-.2-.6-1.2-2.2-1.7-3.4-1.1.3.2.5.6.6.8.2.4.6 1.1.1 1.3-.4.2-1.1 0-1.4-.2-.2-.1-.4-.3-.5-.5 0 .1-.1.1-.1.2-.1.2-.1.5-.1.7-.2.7 0 1.5.6 2.1.3.2.6.4.9.4.6.3 1.3.4 2 .1-.1-.1-.2-.3-.2-.4 0-.3.2-.6.5-.7.3-.1.6 0 .8.2.3-.3.5-.8.6-1.2.2-.5 0-1.1-.3-1.5zM79.6 92h-.4c-.5 0-1.1 0-1.6-.1-1.4-.3-2.7-1.5-3.2-3-.9-2.7 1-5.2 3.4-6.1 2.3-.8 4.8.1 5.9 2.2.6 1.2.7 2.7.2 4-.5 1.3-1.6 2.3-2.9 2.8-.4.1-.9.2-1.4.2zm-.4-.3c.6.1 1.2 0 1.8-.2 1.2-.4 2.2-1.4 2.7-2.6.5-1.2.4-2.6-.2-3.7-1-1.9-3.4-2.8-5.5-2.1-2.3.8-4.1 3.2-3.2 5.7.5 1.4 1.7 2.6 3 2.8.4.1.9.1 1.4.1z" fill="#000000" stroke-width="none" opacity="1"></path></g></g></g><g id="svga-group-eyesfront-left"><path id="SvgjsPath54597" d="M79 72.1c-8.2 0-14.8 6.6-14.8 14.8s6.6 14.8 14.8 14.8 14.8-6.6 14.8-14.8c0-8.1-6.6-14.8-14.8-14.8zm7.3 22.1c-.7 0-1.5-1.6-1.5-1.6-5.4 1.4-10.9 2-14.3-.8s-1.8-6-1.8-6c4.8-2 16.8-2.5 16.8-2.5 2.7 2.7 3.1 6.4 3.1 8 0 1.7-1.5 2.9-2.3 2.9z" fill="#ffffff" stroke-width="none" opacity="1"></path><path id="SvgjsPath54598" d="m89.5 87.6-.6.6c-.1-.5-.3-1-.5-1.4.2-.1.4-.3.6-.4v.2c-.1.3.1.6.3.7h.2c.2 0 .4-.1.5-.4 0-.1.9-2.7-.9-3.8-1.8-1.1-12.2-.2-23 2.5-.3.1-.4.4-.4.6.1.3.4.4.6.4.7-.2 1.3-.3 1.9-.5-.1.5-.2 1.1-.2 1.6l-.6-.6c-.1-.1-.2 0-.1.1.2.3.5.6.8.9 0 .4.1.7.3 1.1-.7-.8-1.4-1.4-2.1-2.1-.1-.1-.3.1-.2.2 1 1.2 2 2.5 3.1 3.5.7 1 1.7 1.9 2.8 2.5.8.7 1.6 1.4 2.5 1.9.1.1.3-.1.2-.2-.4-.4-.8-.7-1.2-1 .9.3 1.9.4 3 .4 3.2 0 6.8-1 8.5-1.4.5 1.4 1.3 1.6 1.8 1.6h.4c1.3-.3 2.4-2.4 2.1-5 0-.3-.1-.6-.2-.9.3-.2.6-.5.8-.8.2-.1-.2-.5-.4-.3zm-.6-3.1c.2.3.2.7.2 1-.3.3-.6.6-1 .9-.2-.3-.4-.7-.5-1 .5-.1.9-.5 1.3-.9zm-1.4-.6c.5.1.8.1 1 .2l-1.2.9c-.2-.3-.3-.5-.5-.7.3-.1.5-.3.7-.4zm-.7 9.7c-.5.1-.8-.5-1-.9.2-.1.3-.4.2-.6-.1-.3-.4-.4-.7-.3-.1 0-8 2.6-11.8 1.2-2-.7-3.6-2.2-4.2-3.9-.4-1.1-.4-2.2 0-3V86c6.5-1.4 12.2-2.1 15.6-2.2.4.4 2.7 2.8 3.1 5.9.4 2.1-.4 3.7-1.2 3.9zm-16.7-1.1c-.9-1-2-1.9-3.1-2.8-.1-.1-.2 0-.1.1.4.5.9.9 1.3 1.4-.1.1-.2.2-.1.4.7.9 1.7 1.9 2.9 2 .2 0 .3-.3.2-.4-.4-.2-.8-.4-1.1-.7z" fill="#000000" stroke-width="none" opacity="1"></path></g></g></g><g id="svga-group-eyes-right-move" transform="matrix(1,0,0,1,0,0)"><g id="svga-group-eyes-right" transform="matrix(1,0,0,1,0,0)"><g id="svga-group-eyesback-right"></g><g id="svga-group-eyesiriswrapper-right"><g id="svga-group-eyesiriscontrol-right" transform="matrix(1,0,0,1,0,0)"><g id="svga-group-eyesiris-right" transform="matrix(1,0,0,1,0,0)"><path id="SvgjsPath54676" d="M125.6 85.1c-1.1-2.1-3.5-2.9-5.7-2.2-2.4.8-4.2 3.3-3.3 5.9.5 1.4 1.6 2.6 3.1 2.9.5.1 1 .1 1.6.1.6.1 1.2 0 1.8-.2 2.5-.9 3.7-4 2.5-6.5z" fill="#ffffff" stroke-width="none" opacity="1"></path><path id="SvgjsPath54677" d="M123.8 86.2c0-.1 0-.1-.1-.2-.6-1.2-2.2-1.7-3.4-1.1.3.2.5.6.6.8.2.4.6 1.1.1 1.3-.4.2-1.1 0-1.4-.2-.2-.1-.4-.3-.5-.5 0 .1-.1.1-.1.2-.1.2-.1.5-.1.7-.2.7 0 1.5.6 2.1.3.2.6.4.9.4.6.3 1.3.4 2 .1-.1-.1-.2-.3-.2-.4 0-.3.2-.6.5-.7.3-.1.6 0 .8.2.3-.3.5-.8.6-1.2.1-.5 0-1.1-.3-1.5zm-2.2 5.8h-.4c-.5 0-1.1 0-1.6-.1-1.4-.3-2.7-1.5-3.2-3-.9-2.7 1-5.2 3.4-6.1 2.3-.8 4.8.1 5.9 2.2.6 1.2.7 2.7.2 4-.5 1.3-1.6 2.3-2.9 2.8-.4.1-.9.2-1.4.2zm-.4-.3c.6.1 1.2 0 1.8-.2 1.2-.4 2.2-1.4 2.7-2.6.5-1.2.4-2.6-.2-3.7-1-1.9-3.4-2.8-5.5-2.1-2.3.8-4.1 3.2-3.2 5.7.5 1.4 1.7 2.6 3 2.8.3.1.8.1 1.4.1z" fill="#000000" stroke-width="none" opacity="1"></path></g></g></g><g id="svga-group-eyesfront-right"><path id="SvgjsPath54599" d="M121 72.1c-8.2 0-14.8 6.6-14.8 14.8s6.6 14.8 14.8 14.8 14.8-6.6 14.8-14.8c0-8.1-6.6-14.8-14.8-14.8zm8.3 19.7c-3.4 2.8-9 2.2-14.3.8 0 0-.8 1.7-1.5 1.6-.7 0-2.3-1.2-2.3-2.8 0-1.7.4-5.3 3.1-8 0 0 11.9.5 16.8 2.5 0-.1 1.6 3.1-1.8 5.9z" fill="#ffffff" stroke-width="none" opacity="1"></path><path id="SvgjsPath54602" d="M133.8 85.7c-10.8-2.7-21.2-3.6-23-2.5s-.9 3.7-.9 3.8c.1.2.2.3.3.3.3.2.5.4.8.6-.2.6-.3 1.1-.4 1.8-.3 2.6.8 4.7 2.1 5h.4c.5 0 1.3-.3 1.8-1.6 1.6.5 5.3 1.4 8.5 1.4 1.2 0 2.3-.1 3.2-.5 2.3-.8 4.1-2.5 4.9-4.5.4-1.1.5-2.3.2-3.2.6.1 1.3.3 1.9.5.3.1.6-.1.6-.4 0-.3-.2-.6-.4-.7zm-22.5-1.6s.1-.1.2-.1c.1.3.3.5.6.6.2.1.5-.1.4-.4-.1-.1-.2-.3-.3-.4.3 0 .7-.1 1.2-.1-.3.4-.7.8-1 1.4-.1 0-.1-.1-.2-.1-.4-.3-.7-.5-1.1-.7 0-.1.1-.1.2-.2zm-.5.7c.3.2.6.5.9.7l.3.3c-.1.1-.1.3-.2.4-.3-.3-.7-.6-1.1-.8 0-.2 0-.4.1-.6zm.4 2.6c-.1-.1-.3-.2-.4-.3.1-.1.2-.3.1-.5 0 0 0-.2-.1-.4.2.2.4.4.7.6l-.3.6zm19.2-1.3c.4.8.4 1.9 0 3-.7 1.7-2.3 3.2-4.2 3.9-3.8 1.4-11.7-1.2-11.8-1.2-.3-.1-.6.1-.7.3-.1.2 0 .5.2.6-.2.4-.5 1-1 .9-.7-.2-1.6-1.8-1.3-3.9.4-3.1 2.7-5.5 3.1-5.9 3.5.1 9.1.7 15.6 2.2.1 0 .1.1.1.1zm-1.1 7.4c-1.3.4-2.9 1.6-4.3 1.3-.3-.1-.4.3-.1.4.8.2 1.4 0 2.1-.3.8-.3 1.6-.7 2.4-1.1.1-.2 0-.4-.1-.3z" fill="#000000" stroke-width="none" opacity="1"></path></g></g></g><g id="svga-group-facehighlight-single"></g><g id="svga-group-eyebrows-left-move" transform="matrix(1,0,0,1,0,0)"><g id="svga-group-eyebrows-left-rotate" transform="matrix(1,0,0,1,0,0)"><g id="svga-group-eyebrows-left" transform="matrix(1,0,0,1,0,0)"><path id="SvgjsPath54524" d="M90.49 68.58c2.18 1.95.79 6.2-1.27 7.47-2.07 1.27-24.64.48-25.6-.48-.95-.95 20.67-12.55 26.87-6.99z" fill="#ffffff" stroke-width="none" opacity="1"></path><path id="SvgjsPath54525" d="M63.26 75.94c.85.85 9.96 1.15 12.73 1.22 1.18.03 2.9.07 4.72.07 3.69 0 7.81-.14 8.78-.74 1.35-.83 2.42-2.75 2.59-4.65.14-1.5-.31-2.79-1.25-3.64-3.27-2.93-10.08-1.38-15.21.43-5.81 2.05-11.11 5.04-12.21 6.2-.57.6-.26 1-.15 1.11zm9.05.07-5.45-2.29c.73-.42 1.59-.87 2.53-1.33l4.46 3.68-1.54-.06zm-.99-4.54 2.37 3.57-3.62-2.99c.4-.19.82-.38 1.25-.58zm5.67-2.22 1.4 5.48-3.14-4.88c.57-.21 1.15-.41 1.74-.6zm5.38-1.37c.48-.08.94-.14 1.38-.19l.31 8.46c-.79.03-1.68.04-2.66.05l-2.16-7.63c1.06-.28 2.11-.52 3.13-.69zm4.45-.21-1.63 8.44c-.15.01-.3.01-.45.02l-.31-8.49c.88-.06 1.68-.05 2.39.03zm.68.1c.58.11 1.09.27 1.55.49l-1.91 7.71c-.36.04-.77.07-1.24.1l1.6-8.3zm2.65 1.19c.07.07.13.15.19.22l-1.74 3.74 1.07-4.32c.17.12.33.23.48.36zm-1.2 6.66c-.14.09-.47.17-.97.25l2.79-5.99c.24.53.35 1.16.29 1.87-.14 1.58-1.03 3.2-2.11 3.87zm-9.48.58-1.83-7.16c.31-.1.63-.19.94-.28l2.11 7.45c-.39-.01-.8-.01-1.22-.01zm-4.26-.08-3.26-4.93c.85-.37 1.74-.74 2.65-1.09l3.91 6.09c-.7-.01-1.43-.02-2.2-.04l-1.1-.03zm-10.83-.8c.34-.29.94-.69 1.74-1.17l4.17 1.75c-2.91-.17-5.01-.39-5.91-.58z" fill="#000000" stroke-width="none" opacity="1"></path></g></g></g><g id="svga-group-eyebrows-right-move" transform="matrix(1,0,0,1,0,0)"><g id="svga-group-eyebrows-right-rotate" transform="matrix(1,0,0,1,0,0)"><g id="svga-group-eyebrows-right" transform="matrix(1,0,0,1,0,0)"><path id="SvgjsPath54526" d="M109.51 68.58c-2.18 1.95-.79 6.2 1.27 7.47 2.07 1.27 24.64.48 25.6-.48.95-.95-20.67-12.55-26.87-6.99z" fill="#ffffff" stroke-width="none" opacity="1"></path><path id="SvgjsPath54527" d="M136.58 74.83c-1.1-1.16-6.39-4.15-12.21-6.2-5.14-1.81-11.95-3.36-15.21-.43-.94.84-1.38 2.14-1.25 3.64.17 1.91 1.24 3.82 2.59 4.65.97.6 5.09.74 8.78.74 1.82 0 3.53-.03 4.72-.07 2.77-.07 11.88-.38 12.73-1.22.12-.11.43-.51-.15-1.11zm-10.43 1.24 4.46-3.68c.94.47 1.8.92 2.53 1.33l-5.45 2.29-1.54.06zm3.79-4.02-3.62 2.99 2.37-3.57c.42.2.84.39 1.25.58zm-5.19-2.2-3.14 4.88 1.4-5.48c.59.19 1.17.39 1.74.6zm-3.99-1.28-2.16 7.63c-.98-.01-1.87-.02-2.66-.05l.31-8.46c.44.05.9.11 1.38.19 1.02.17 2.07.41 3.13.69zm-5.2-.93-.31 8.49c-.15-.01-.31-.01-.45-.02l-1.63-8.44c.72-.08 1.52-.09 2.39-.03zm-1.46 8.43c-.47-.03-.88-.06-1.24-.1l-1.91-7.71c.46-.22.97-.38 1.55-.49l1.6 8.3zm-3.77-7.46 1.07 4.32-1.74-3.74c.06-.07.12-.16.19-.22.15-.14.31-.25.48-.36zm-1.39 3.14c-.06-.71.05-1.34.29-1.87l2.79 5.99c-.5-.08-.83-.16-.97-.25-1.08-.67-1.97-2.29-2.11-3.87zm10.37 4.45 2.11-7.45c.32.09.63.18.94.28l-1.83 7.16c-.42.01-.83.01-1.22.01zm4.38-.05c-.77.02-1.5.03-2.2.04l3.91-6.09c.91.35 1.8.72 2.65 1.09l-3.26 4.93-1.1.03zm6.02-.25 4.17-1.75c.79.47 1.39.88 1.74 1.17-.9.19-3 .41-5.91.58z" fill="#000000" stroke-width="none" opacity="1"></path></g></g></g><g id="svga-group-beardwrap" transform="matrix(1,0,0,1,0,0)"><g id="svga-group-beard-single-move" transform="matrix(1,0,0,1,0,0)"><g id="svga-group-beard-single" transform="matrix(1,0,0,1,0,0)"></g></g></g><g id="svga-group-mustache-single-move" transform="matrix(1,0,0,1,0,0)"><g id="svga-group-mustache-single" transform="matrix(1,0,0,1,0,0)"><path id="SvgjsPath54702" d="M100 119.2c-1-.3-14.2 1.8-20.3-.1s-10.5-11.2-3.8-13.3c6.7-2.1 5.9 6.7 1.6 5.5s.5-.8.8-2.2-2.3-2-3.5-.3.8 4.1 2.5 4.4 6.6-1.5 10.2-2c3.6-.5 7.7-.3 12.1 1.8 0 0 2.5-1.9 5.9-2 3.4-.1 10.9.9 13 2.4s3.2 1.7 5.7 1.2 3.1-4.6 1.6-5.1-3.3.7-2.9 1.5c.4.7 1.6.5 1.3.9s-2.1.8-2.7-.1c-.5-.9-1.4-3.9 2-4.6 3.4-.6 7.2 1.5 5.6 6.2-1.6 4.8-8.6 6.1-11.9 6.1-3.1.1-11.1 1.7-17.2-.3z" fill="#ffffff" stroke-width="none" opacity="1"></path><path id="SvgjsPath54703" d="M128.9 108.4c-1.2-1.3-3.3-2-5.4-1.6-1.3.2-2.1.8-2.5 1.7-.6 1.2-.1 2.7.3 3.4.2.4.7.7 1.4.8.7.1 1.6-.2 1.9-.6.2-.2.1-.4.1-.5-.1-.3-.4-.3-.6-.4-.3-.1-.6-.2-.7-.4-.1-.1 0-.2.1-.3.4-.5 1.4-.9 2.3-.6.4.1.6.8.6 1.5-.1 1.2-.8 2.6-2.1 2.8-2.4.5-3.4.3-5.4-1.1-2.3-1.6-10.1-2.6-13.2-2.5-3 .1-5.3 1.5-5.9 1.9-3.8-1.8-7.8-2.4-12.1-1.7-1.5.2-3.3.7-4.9 1.1-2.2.6-4.2 1.1-5.1.9-.9-.2-2-1.1-2.4-2.1-.2-.5-.3-1.1.1-1.8.6-.9 1.8-1 2.3-.7.2.1.6.3.5.7-.1.4-1 .6-1.5.8-.7.2-1.1.3-1.1.8 0 .4.4.7 2.1 1.1 1.3.3 2.4-.1 3.2-1.1.8-1.2.8-3.1 0-4.2-.5-.7-1.9-1.8-4.8-.9-2.3.7-3.6 2.4-3.6 4.7 0 3.8 3.5 8.1 7.4 9.3 4.4 1.4 12.2.7 16.9.3 1.6-.1 3.2-.3 3.4-.2 2.4.8 5.1 1 7.7 1 1 0 1.9 0 2.9-.1H111.1c1.2-.1 2.3-.2 3.3-.3 1.3-.1 2.4-.2 3.3-.2 2.8 0 10.5-1.2 12.2-6.4.5-2.6-.2-4.2-1-5.1zm-28.8 10.4c-.4-.1-1.4 0-3.7.2-4.6.4-12.3 1.1-16.6-.3-1.2-.4-2.3-1-3.3-1.9 3.8 1.2 8.3 0 11.6-1.9.2-.1 0-.3-.1-.2-3.8 1.8-8.1 2.9-12.1 1.5-1.7-1.7-2.9-4-2.9-6.1 0-.2 0-.4.1-.7.1 1.4.8 2.4 2 3 .1.1.3-.1.2-.2-.9-.7-1.6-1.3-1.7-2.6-.1-.8 0-1.5.3-2.1.5-.6 1.2-1.1 2.3-1.5 1.8-.6 3.2-.3 3.9.6.7.9.7 2.3 0 3.3-.3.5-1 1.2-2.4.8l-1.2-.4c.1 0 .2-.1.2-.1.8-.2 1.9-.6 2-1.3.2-.7-.2-1.3-.9-1.6-1-.4-2.4-.2-3.3 1-.5.7-.5 1.6-.2 2.5.5 1.2 1.8 2.3 2.9 2.6 1.1.2 3.1-.3 5.4-.9.8-.2 1.7-.4 2.6-.6-.1.1-.2.1-.3.2-3.1 1.9-5.8 2.5-9.5 1.9-.2 0-.3.2-.1.3 2 .7 4.2.7 6.3 0 2-.7 3.6-2 5.5-2.8.1 0 .3-.1.4-.1 4.2-.6 8.1-.1 11.8 1.8l.2.1.2-.1s2.5-1.8 5.7-1.9h.8c2.7 3.3 7.7 6.2 12 6.1.2 0 .2-.2 0-.2-4.6-.6-7.9-3.1-11.4-5.8 1.5.1 3.5.3 5.3.6 4.6 2 7.9 5.7 13.2 5.3-2.5 1.4-5.8 2.1-8 2.1-.4 0-.8 0-1.2.1-3.7-.6-6.7-1.7-10.1-3.8-.1-.1-.2.1-.1.2 2 1.8 4.7 3.2 7.5 3.8-1.3.1-2.7.2-4.2.3-2.9-.8-5.3-1.9-7.7-4-.1-.1-.2 0-.1.1 1.4 1.7 3.5 3.1 5.8 3.9-2.5-.2-4.9-.5-7.1-1.2zm28.7-5.5c-.5 1.4-1.5 2.5-2.8 3.4-3.2 0-6-.6-8.7-2.4-1.1-.7-2-1.5-3.1-2.1 1.8.4 3.3.9 4.1 1.4 2.2 1.5 3.4 1.8 6 1.2 1.7-.4 2.6-2.1 2.7-3.5.1-.9-.2-1.7-.7-2.1-.8-1.2-2.4-1.8-3.8-.9-.1.1 0 .3.1.2.9-.2 1.9-.2 2.7.3-1-.1-2 .3-2.6.9-.3.4-.4.8-.2 1.2.2.4.6.6 1 .7-.2.1-.6.2-1 .1-.2 0-.6-.1-.7-.4-.3-.6-.7-1.8-.2-2.7.3-.7 1-1.1 2-1.3 1.7-.3 3.3.1 4.3 1 .7 1.2 1 2.3.2 3.6-.7 1.3-2.1 1.9-3.2 2.7-.2.1-.1.4.1.3 1.8-.6 3.7-2.5 4-4.4.2 1.1.1 1.9-.2 2.8zm-30.2 1c-2.5 3.3-5.9 4.2-9.8 4.8-.1 0-.1.2 0 .2 3.8-.2 8-1.5 10.1-4.9 0-.1-.2-.2-.3-.1zm-2.1-.5c-4.2 3.4-8.8 4.7-14.1 4.3-.2 0-.2.2 0 .3 5.1.9 10.6-.8 14.3-4.4.1-.1-.1-.3-.2-.2z" fill="#000000" stroke-width="none" opacity="1"></path></g></g><g id="svga-group-nose-single-move" transform="matrix(1,0,0,1,0,0)"><g id="svga-group-nose-single" transform="matrix(1,0,0,1,0,0)"><path id="SvgjsPath54712" d="M105.44 100.55s2.43 2.68 3.35 5.44c.92 2.76.84 4.52-1.34 5.1-2.17.59-3.76-.84-3.76-.84s-1.76 2.84-4.1 2.43c-2.34-.42-3.18-2.17-3.18-2.17s-2.76 1.59-4.27.67-1.84-3.85-1-5.6c.84-1.76 3.26-4.85 3.26-4.85s-.75-3.93.17-6.36 1.92-3.76 4.77-4.52c2.84-.75 4.27 1.09 5.1 2.09.84 1 1.92 4.43 1 8.61z" fill="#ffffff" stroke-width="none" opacity="1"></path><path id="SvgjsPath54713" d="M107.82 102.5c-.44-.7-1.56-.06-1.12.65.93 1.49 1.85 3.27 1.93 5.07.11 2.62-2.86 3.29-4.45 1.49-.27-.31-.83-.22-1.02.13-1.47 2.75-4.68 2.97-6.33.24a.66.66 0 0 0-1.02-.13c-1.54 1.46-4.29.98-4.55-1.35-.19-1.68.64-3.51 1.36-4.99.36-.74-.75-1.4-1.12-.65-1.04 2.14-2.53 5.49-.83 7.68 1.36 1.75 3.75 1.83 5.45.69 2.09 2.69 5.76 2.6 7.73-.17 1.71 1.29 4.43 1.27 5.63-.78 1.4-2.36-.4-5.85-1.66-7.88z" fill="#000000" stroke-width="none" opacity="1"></path><path id="SvgjsPath54714" d="M95.91 104.08c-1.08-2.69-1.49-5.59-.98-8.46.47-2.64 1.77-5.03 1.77-7.75 0-1.38-.28-2.76-.22-4.14.05-1.34.47-2.63.57-3.97.17-2.41-.85-4.61-1.87-6.73-.36-.75-1.48-.09-1.12.65.61 1.27 1.24 2.55 1.54 3.94.36 1.64-.03 3.09-.28 4.7-.4 2.64.43 5.25-.19 7.88-.56 2.38-1.53 4.57-1.68 7.04-.15 2.47.3 4.9 1.21 7.19.31.75 1.56.42 1.25-.35z" fill="#000000" stroke-width="none" opacity="1"></path><path id="SvgjsPath54715" d="M103.25 83.61c.04 1.38-.22 2.76-.22 4.14-.01 2.62 1.21 4.93 1.71 7.46.58 2.97.2 5.96-.92 8.75-.31.77.94 1.11 1.25.34.91-2.29 1.37-4.73 1.21-7.19-.16-2.47-1.11-4.66-1.68-7.04-.62-2.62.21-5.24-.19-7.88-.23-1.48-.62-2.9-.34-4.41.27-1.49.95-2.87 1.6-4.22.36-.75-.75-1.4-1.12-.65-.97 2.01-1.98 4.14-1.89 6.43.05 1.43.55 2.82.59 4.27z" fill="#000000" stroke-width="none" opacity="1"></path></g></g><g id="svga-group-hair-front" transform="matrix(1,0,0,1,0,0)"><path id="SvgjsPath54652" d="M60.9 43.2s-3.1.8-3.3 2.9c-.2 2.1-2.3 3.9-2 6.6.3 2.7-2 6.4-1.2 8.3.8 1.8-1.1 3.7-.8 5.7.4 2-.3 3.7.3 4.6.6.8 5.9 5.9 6.4 5.2s.1-3.3.6-4.7c.6-1.4.2-4.8.9-6.3s.4-3.3 1.1-5.7.7-3 .8-5-.1-4.5-2.8-11.6z" fill="#ffffff" stroke-width="none" opacity="1"></path><path id="SvgjsPath54653" d="M139.1 43.2s3.1.8 3.3 2.9c.2 2.1 2.3 3.9 2 6.6-.3 2.7 2 6.4 1.2 8.3-.8 1.8 1.1 3.7.8 5.7-.4 2 .3 3.7-.3 4.6-.6.8-5.9 5.9-6.4 5.2s-.1-3.3-.6-4.7-.2-4.8-.9-6.3-.4-3.3-1.1-5.7c-.7-2.4-.7-3-.8-5-.1-2 .2-4.5 2.8-11.6z" fill="#ffffff" stroke-width="none" opacity="1"></path><path id="SvgjsPath54654" d="m61.9 42.9-.4-.9-.9.2c-.2 0-3.7 1-4 3.8-.1.7-.4 1.5-.9 2.2-.6 1.2-1.4 2.7-1.2 4.5.1 1.1-.3 2.4-.7 3.8-.5 1.8-1 3.5-.4 4.8.3.6 0 1.3-.3 2.3-.3.9-.7 2-.5 3.2.2.8.1 1.6.1 2.3-.1 1-.1 1.9.4 2.6.3.4 5.3 5.6 7 5.7h.1c.4 0 .7-.2 1-.4.5-.6.5-1.6.6-2.7 0-.8 0-1.7.2-2.2.3-.8.4-2 .4-3.3.1-1.1.1-2.4.4-2.9.4-.9.5-1.9.7-3 .1-.9.2-1.8.5-2.9.7-2.4.7-3.1.8-4.9v-.3c.1-2.4-.4-5.1-2.9-11.9zm-.4 19.8c-.1.9-.2 1.7-.5 2.3-.5.9-.5 2.4-.6 3.7 0 1-.1 2.1-.3 2.6-.4.9-.4 2-.4 2.9v.9c-1.4-1-4.4-3.7-4.9-4.5-.1-.2-.1-.9 0-1.4 0-.8.1-1.7-.1-2.8-.1-.6.1-1.3.4-2.2.4-1.1.9-2.4.3-3.8-.3-.6.1-2.1.5-3.4.4-1.5.9-3.1.8-4.5-.1-1.3.4-2.3 1-3.4.5-.9 1-1.9 1.1-3 .1-.8 1-1.4 1.7-1.7 2.4 6.5 2.5 8.6 2.4 10.2v.3c-.1 1.7-.1 2.3-.7 4.5-.5 1.3-.6 2.4-.7 3.3zm-2 10c-1.1-1.2-2.2-2.3-3.2-3.5-.6-.6-1.4.3-.9.9 1.1 1.2 2.2 2.3 3.2 3.5.6.6 1.4-.3.9-.9zm-.7-4.2c-.8-1-1.6-2.1-2.3-3.3-.4-.7-1.5-.1-1.1.6.7 1.2 1.6 2.4 2.5 3.5.6.7 1.5-.2.9-.8zm2-3.9c-.3-.5-.7-1-1-1.5-.4-.7-1.5 0-1.1.6.3.5.7 1 1 1.5.4.7 1.5.1 1.1-.6zm-1.1-5.5c-.7-1-1.3-2.1-1.8-3.3-.3-.7-1.5-.4-1.2.3.5 1.3 1.1 2.4 1.9 3.6.4.7 1.5.1 1.1-.6zm2.5-2.6c-.7-1-1.3-2-1.8-3-.3-.7-1.4-.1-1.1.6.5 1.1 1.1 2.1 1.8 3 .5.7 1.6.1 1.1-.6zm-1.3-7.7c-.2-.4-.4-.9-.4-1.3-.1-.8-1.3-.8-1.3 0 .1.7.2 1.3.6 2 .4.6 1.5 0 1.1-.7zm86 14.9c-.3-.9-.6-1.6-.3-2.3.6-1.3.1-3-.4-4.8-.4-1.3-.8-2.7-.7-3.8.2-1.9-.6-3.3-1.2-4.5-.4-.8-.8-1.5-.9-2.2-.3-2.8-3.9-3.8-4-3.8l-.9-.2-.3.8c-2.6 6.8-3 9.6-2.9 11.9v.3c.1 1.8.1 2.5.8 4.9.3 1.1.4 2 .5 2.9.1 1.1.2 2.1.7 3 .3.6.3 1.8.4 2.9.1 1.3.1 2.4.4 3.3.2.5.2 1.4.3 2.2 0 1.1 0 2.1.5 2.7.2.3.6.4 1 .4 1.8-.1 6.7-5.2 7-5.7.5-.7.5-1.7.4-2.6 0-.7-.1-1.5.1-2.3.2-1.1-.2-2.2-.5-3.1zm-1.6 5.6c0 .5.1 1.2 0 1.4-.5.8-3.5 3.5-4.9 4.5v-.9c0-1 0-2.1-.4-2.9-.2-.5-.3-1.6-.3-2.6-.1-1.4-.1-2.8-.6-3.7-.3-.6-.4-1.4-.5-2.3-.1-.9-.2-2-.6-3.2-.6-2.2-.6-2.7-.7-4.5v-.3c-.1-1.6.1-3.8 2.4-10.2.7.3 1.6.9 1.7 1.7.1 1.1.6 2 1.1 3 .6 1.1 1.1 2.2 1 3.4-.1 1.5.3 3 .8 4.5.4 1.4.8 2.8.5 3.4-.6 1.4-.2 2.7.3 3.8.3.8.6 1.5.4 2.2-.3 1-.2 2-.2 2.7zm-4.7 3.4c1.1-1.2 2.2-2.3 3.2-3.5.6-.6 1.4.3.9.9-1.1 1.2-2.2 2.3-3.2 3.5-.6.6-1.5-.3-.9-.9zm.6-4.2c.8-1 1.6-2.1 2.3-3.3.4-.7 1.5-.1 1.1.6-.7 1.2-1.6 2.4-2.5 3.5-.5.7-1.4-.2-.9-.8zm-1.9-3.9c.3-.5.7-1 1-1.5.4-.7 1.5 0 1.1.6-.3.5-.7 1-1 1.5-.5.7-1.6.1-1.1-.6zm1.1-5.5c.7-1 1.3-2.1 1.8-3.3.3-.7 1.5-.4 1.2.3-.5 1.3-1.1 2.4-1.9 3.6-.5.7-1.6.1-1.1-.6zm-2.5-2.6c.7-1 1.3-2 1.8-3 .3-.7 1.4-.1 1.1.6-.5 1.1-1.1 2.1-1.8 3-.5.7-1.6.1-1.1-.6zm1.2-7.7c.2-.4.4-.9.4-1.3.1-.8 1.3-.8 1.3 0-.1.7-.2 1.3-.6 2-.4.6-1.4 0-1.1-.7z" fill="#000000" stroke-width="none" opacity="1"></path></g><g id="svga-group-glasses-single-move" transform="matrix(1,0,0,1,0,0)"><g id="svga-group-glasses-single" transform="matrix(1,0,0,1,0,0)"></g></g></g></g></g><rect id="svga-credit-rect" width="200" height="15" x="0" y="185" fill="#ecf0f1" opacity="0.5" style="display: none;"></rect><text id="svga-credit-text" font-family="Avenir Next, Roboto, Helvetica, Arial, sans-serif" font-size="10px" text-anchor="start" font-weight="400" size="10px" anchor="start" weight="400" fill="#333333" x="33.402061462402344" y="182.71133995056152" style="display: none;"><tspan id="SvgjsTspan54053" dy="13" x="33.402061462402344">Created on AvatarMaker.com</tspan></text></g></svg>