<svg xmlns="http://www.w3.org/2000/svg" version="1.1" width="600px" height="600px" viewBox="0 0 200 200" style="overflow:hidden!important;"><defs id="SvgjsDefs57035"></defs><g id="svga-group-wrapper"><g id="svga-group-backs-single"></g><g id="svga-group-humanwrap-move" transform="matrix(1,0,0,1,0,0)"><g id="svga-group-humanwrap" transform="matrix(1,0,0,1,0,0)"><g id="svga-group-hair-back-move" transform="matrix(1,0,0,1,0,0)"><g id="svga-group-hair-back" transform="matrix(1,0,0,1,0,0)"></g></g><g id="svga-group-humanbody-back"><path id="SvgjsPath57445" d="M77.6 118.3c0 19.3 3.4 44.1-10 51.9-13.4 7.9-31.9 11.3-37.8 22s-4.4 25.3-4.4 25.3h149.3s.7-18.9-5.1-26.4c-8.1-10.4-27.8-15.5-37.7-20.9s-13.4-25.1-13.4-52.4l-40.9.5z" fill="#ffffff" stroke-width="none" opacity="1"></path><path id="SvgjsPath57446" d="M175.8 218.7H24.4l-.1-1c-.1-.6-1.5-15.1 4.5-26 4.1-7.4 13.5-11.3 23.5-15.5 5-2.1 10.2-4.3 14.8-6.9 10.6-6.2 10.1-23.9 9.6-41-.1-3.5-.2-6.8-.2-10v-1.1l43.2-.4v1.1c0 29.9 4.2 46.7 12.8 51.4 2.9 1.6 6.7 3.2 10.8 4.9 10 4.1 21.3 8.8 27.2 16.3 6.1 7.7 5.4 26.4 5.4 27.1l-.1 1.1zm-149.3-2.2h147.1c0-4.1-.2-18.5-4.9-24.6-5.5-7-16.6-11.6-26.3-15.6-4.1-1.7-8-3.3-11-5-5.1-2.8-8.7-8.9-10.9-18.7-2-8.4-2.9-19.4-3-33.5l-38.6.4c0 2.8.1 5.7.2 8.8.5 17.8 1 36.1-10.7 43-4.7 2.7-9.9 4.9-15 7.1-9.6 4-18.7 7.8-22.4 14.5-5 8.6-4.7 20.1-4.5 23.6z" fill="#000000" stroke-width="none" opacity="1"></path><path id="SvgjsPath57447" d="M93.9 153.8c-.5 1.8-.4 3.4.5 5.2.8 1.6 2.1 2.7 3.9 2.9.4 0 .7-.5.5-.8-1.6-2.2-3.5-4.2-3.7-7.1 0-.7-1-.9-1.2-.2zm18.6 33.7c8.8.5 18.1-.7 26.6-2.9.7-.2.6-1.4-.2-1.3-8.8 1.1-17.7 2-26.5 3.3-.5.1-.3.9.1.9zm-49.4-5c3.8.9 7.6 1.9 11.5 2.8 3.6.8 7.4 2 11.1 2.1.7 0 .8-.9.2-1.2-3.5-1.4-7.5-1.7-11.2-2.5-3.8-.7-7.5-1.3-11.3-2-.5 0-.7.7-.3.8z" fill="#000000" stroke-width="none" opacity="1"></path></g><g id="svga-group-chinshadow-single"></g><g id="svga-group-humanbody-front"></g><g id="svga-group-clothes-single"><path id="SvgjsPath57580" d="M51.4 218s1-21.2-3-40.2l14.1-6.3s3.3 21.9 15.1 30.3 43.4 7.6 50.9-1.3c7.4-8.9 11.1-27.9 11.1-27.9l15.4 6.3s-2.1 12-2.8 22.9-.2 16.2-.2 16.2H51.4z" fill="#ffffff" stroke-width="none" opacity="1"></path><path id="SvgjsPath57581" d="m155.4 177.9-15.4-6.3c-.3-.1-.6-.1-.9.1-.3.1-.4.4-.5.7 0 .2-3.7 18.8-10.9 27.4-7.2 8.6-38.2 9.3-49.5 1.1-11.3-8.1-14.6-29.4-14.7-29.7 0-.3-.2-.6-.5-.7-.3-.1-.6-.2-.9 0L48 176.8c-.4.2-.7.7-.6 1.1 3.9 18.6 3 39.8 3 40 0 .3.1.5.3.7.2.2.5.3.7.3h6.2c.1.1.2.1.3 0H152c.3 0 .6-.1.7-.3s.3-.5.3-.8c0-.1-.5-5.4.2-16.1.6-10.7 2.8-22.6 2.8-22.8.1-.3-.2-.8-.6-1zm-102.6-1c-1 1.3-2 2.7-2.7 4.1-.2-.9-.3-1.8-.5-2.7l3.2-1.4zm98.4 24.8c-.5 8.2-.4 13.2-.2 15.3H67c.9-1 1.9-2 2.8-3.1.1-.2-.1-.4-.2-.2-1.1 1.1-2.1 2.2-3.2 3.3h-6.5c1-1.1 2-2.3 3-3.5.1-.1-.1-.3-.2-.2-1.2 1.1-2.3 2.4-3.3 3.7h-5.5c2.2-2.6 4.5-5.2 6.5-7.9.1-.2-.2-.4-.3-.2-2.4 2.6-4.7 5.4-6.9 8.1h-.6c.1-2.1.2-7.3-.1-13.9 3-3.9 6.1-7.7 8.9-11.7.1-.1-.1-.3-.2-.2-3 3.6-5.9 7.5-8.7 11.3-.1-1.6-.2-3.3-.3-5.1 3.6-4.7 7.1-9.6 10-14.8.1-.1-.1-.2-.2-.1-3.2 4.8-6.4 9.6-9.8 14.3-.1-1.3-.2-2.7-.3-4 2.6-4.3 5.4-8.4 8.5-12.4.1-.2-.1-.4-.3-.2-3.2 3.6-5.9 7.7-8.2 11.9l-.6-5.1c.1 0 .2.1.2 0 .2-.2.4-.5.6-.7.1-.1 0-.3-.2-.2 1.3-.9 2.5-3.7 3.5-5.2 1.4-2 2.8-3.9 4.2-5.8.2-.2-.2-.4-.3-.2-2.9 3.8-5.7 7.6-8.2 11.7-.2-1.4-.4-2.9-.7-4.4 1.2-2 2.3-3.9 3.7-5.8l7.8-3.5c.9 4.9 4.8 22.2 15.2 29.7 12.2 8.8 44.4 7.9 52.2-1.5 6.5-7.8 10.1-22.8 11.1-27.1l13.6 5.6c-.6 2.8-2.3 12.9-2.8 22.1zM58 202.8c-1.9 2-3.6 4.2-5.4 6.4-.2.2.1.5.3.3 1.8-2.1 3.7-4.2 5.3-6.5.1-.2-.1-.3-.2-.2z" fill="#000000" stroke-width="none" opacity="1"></path></g><g id="svga-group-head" transform="matrix(1,0,0,1,0,0)"><g id="svga-group-ears-left-move" transform="matrix(1,0,0,1,0,0)"><g id="svga-group-ears-left" transform="matrix(1,0,0,1,0,0)"><path id="SvgjsPath57590" d="M58.9 77.8s-2.5-2.4-5.4-3.5c-2.9-1.1-6.1.7-7.1 3.7-1 2.9 1.3 15.1 5 19.5s6.2 4.8 8.7 2.5c2.6-2.4 7-10.8-1.2-22.2z" fill="#ffffff" stroke-width="none" opacity="1"></path><path id="SvgjsPath57591" d="M56.8 102.3c-1.9-.1-3.8-1.5-6.1-4.2-3.9-4.7-6.3-17.1-5.2-20.5.6-1.8 1.9-3.3 3.6-4.1 1.5-.7 3.2-.8 4.8-.2 3.1 1.2 5.6 3.6 5.7 3.7l.1.1c8.7 12.2 3.5 21.2 1.1 23.5-1.2 1.1-2.4 1.6-3.7 1.6-.1.1-.2.1-.3.1zm-3.6-27.1c-1.3-.5-2.5-.2-3.2.1-1.2.6-2.1 1.6-2.6 2.9-.8 2.5 1.3 14.3 4.9 18.5 1.9 2.3 3.4 3.4 4.7 3.5.8.1 1.6-.3 2.5-1.1 2.1-1.9 6.5-9.8-1.3-20.7-.4-.3-2.6-2.2-5-3.2z" fill="#000000" stroke-width="none" opacity="1"></path><path id="SvgjsPath57592" d="M50.2 77.4c3.3.6 5.4 6.1 6 9.8.1.1.1.2.2.3.4.6-.4 1.2-.8.6-.5-.8-1-1.6-1.8-1.9-1.4-.5-2.1 1.1-1.8 2.6.4 1.9 1.6 3 2.6 4.4.1.1 0 .3-.1.2-1.7-1-4.3-4.8-3.1-7.2.9-1.7 2.3-1.4 3.4-.4-.8-2.1-1.4-4.3-3-5.9-.5-.5-1.5-1.4-2.2-1.3-1.3.2-1.3 2.1-1.3 3.4-.1 1.7.1 3.4.4 5 0 .2-.2.2-.3.1-.6-2.4-2-10.4 1.8-9.7z" fill="#000000" stroke-width="none" opacity="1"></path></g></g><g id="svga-group-ears-right-move" transform="matrix(1,0,0,1,0,0)"><g id="svga-group-ears-right" transform="matrix(1,0,0,1,0,0)"><path id="SvgjsPath57593" d="M141.1 77.8s2.5-2.4 5.4-3.5c2.9-1.1 6.1.7 7.1 3.7 1 2.9-1.3 15.1-5 19.5s-6.2 4.8-8.7 2.5c-2.6-2.4-7-10.8 1.2-22.2z" fill="#ffffff" stroke-width="none" opacity="1"></path><path id="SvgjsPath57594" d="M142.9 102.3c-1.3 0-2.5-.5-3.7-1.6-2.5-2.2-7.6-11.3 1.1-23.5l.1-.1c.1-.1 2.7-2.5 5.7-3.7 1.5-.6 3.2-.5 4.8.2 1.7.8 3 2.3 3.6 4.1 1.1 3.3-1.3 15.8-5.2 20.5-2.3 2.7-4.2 4.1-6.1 4.2-.1-.1-.2-.1-.3-.1zm-1.1-23.9c-7.8 10.9-3.4 18.8-1.3 20.7.9.8 1.7 1.2 2.5 1.1 1.3-.1 2.8-1.2 4.7-3.5 3.5-4.2 5.7-16.1 4.9-18.5-.4-1.3-1.4-2.4-2.6-2.9-.7-.3-1.9-.6-3.2-.1-2.4 1-4.6 2.9-5 3.2z" fill="#000000" stroke-width="none" opacity="1"></path><path id="SvgjsPath57595" d="M149.8 77.4c-3.3.6-5.4 6.1-6 9.8-.1.1-.1.2-.2.3-.4.6.4 1.2.8.6.5-.8 1-1.6 1.8-1.9 1.4-.5 2.1 1.1 1.8 2.6-.4 1.9-1.6 3-2.6 4.4-.1.1 0 .3.1.2 1.7-1 4.3-4.8 3.1-7.2-.9-1.7-2.3-1.4-3.4-.4.8-2.1 1.4-4.3 3-5.9.5-.5 1.5-1.4 2.2-1.3 1.3.2 1.3 2.1 1.3 3.4.1 1.7-.1 3.4-.4 5 0 .2.2.2.3.1.6-2.4 2-10.4-1.8-9.7z" fill="#000000" stroke-width="none" opacity="1"></path></g></g><g id="svga-group-faceshape-wrap" transform="matrix(1,0,0,1,0,0)"><g id="svga-group-faceshape-single"><path id="SvgjsPath57662" d="M143.8 67.9c-.1-3.3-.3-8.9-1.4-14.2-2.3-11.4-15.1-28.8-42.4-28.8S63.6 38.2 59.6 48.1c-2.5 6.2-3.2 15.2-3.4 19.7 0 0-.1 28.7 1.7 38.2 2.5 13.7 6.7 29.1 31.6 34.1 0 0 7.9 10 18.7.4 0 0 26.6-5 32.9-27.5 4-14.7 2.7-45.1 2.7-45.1z" fill="#ffffff" stroke-width="none" opacity="1"></path><path id="SvgjsPath57663" d="M98.8 145.8h-1c-4.7-.4-7.9-3.6-8.9-4.6-24.7-5.1-29.4-20-32.1-34.9-1.8-9.5-1.7-37.3-1.7-38.4.2-4.8.9-13.8 3.4-20.1 6.6-16.2 20.1-24 41.5-24 12.3 0 23.2 3.6 31.3 10.4 6.3 5.2 10.9 12.5 12.2 19.3 1.1 5.5 1.3 11.4 1.4 14.4.1 1.5 1.3 30.9-2.8 45.6-2.6 9.5-9.3 17.4-19.3 22.8-6.7 3.6-12.7 5.1-14.1 5.4-3.3 2.7-6.6 4.1-9.9 4.1zM57.3 67.9c0 .9 0 28.8 1.6 37.9C61.5 120 66 134.3 89.6 139l.4.1.3.3s3 3.7 7.6 4.1c3.1.3 6.3-1 9.5-3.8l.2-.2.3-.1c.3 0 26-5.1 32-26.6 4-14.4 2.7-44.6 2.7-44.9 0-3-.3-8.7-1.4-14-1.3-6.4-5.6-13.1-11.5-18-7.7-6.5-18-9.9-29.9-9.9-20.3 0-33.2 7.4-39.4 22.6-2.2 5.9-2.9 14.6-3.1 19.3z" fill="#000000" stroke-width="none" opacity="1"></path></g></g><g id="svga-group-mouth-single-move" transform="matrix(1,0,0,1,0,0)"><g id="svga-group-mouth-single" transform="matrix(1,0,0,1,0,0)"><path id="SvgjsPath57543" d="M106.7 125.7c-3.7 2.1-8.2 2.2-12 .3-.5-.2-1 .5-.5.8 4.1 2 8.9 1.9 12.9-.3.6-.3.1-1.1-.4-.8zM92 118c1.2-1.4 2.6-2.8 4.7-2.6 1.2.2 2.2 1.1 3.4 1.1 1 0 1.7-.6 2.6-.9 2-.8 3.8.3 5.5 1.4.2.2.5-.2.2-.4-1.3-.8-2.7-1.7-4.3-1.8-1.9 0-3.1 1.6-5 1.1-1.4-.4-2.5-1.2-4-.8-1.4.4-2.5 1.6-3.4 2.7-.2.1.1.4.3.2zm18.7 5.4c-2.8 0-4.6-1.6-5.3-2.4-4.2 3.3-8.4 1-9.6.2-3.8 2.8-8.1 1.9-8.3 1.9-.3-.1-.4-.3-.4-.6.1-.3.3-.4.6-.4 0 0 4.3.9 7.8-1.9.2-.2.4-.2.6 0 .2.1 4.7 3.5 9.1-.3.1-.1.2-.1.4-.1.1 0 .3.1.3.2.1.1 2.5 3.2 6.4 2.2.3-.1.5.1.6.4.1.3-.1.5-.4.6-.7.1-1.3.2-1.8.2z" fill="#000000" stroke-width="none" opacity="1"></path></g></g><g id="svga-group-eyes-left-move" transform="matrix(1,0,0,1,0,0)"><g id="svga-group-eyes-left" transform="matrix(1,0,0,1,0,0)"><g id="svga-group-eyesback-left"></g><g id="svga-group-eyesiriswrapper-left"><g id="svga-group-eyesiriscontrol-left" transform="matrix(1,0,0,1,0,0)"><g id="svga-group-eyesiris-left" transform="matrix(1,0,0,1,0,0)"><path id="SvgjsPath57708" d="M83.4 89.5c1.1-2 .1-4.9-1.7-6.1-2-1.3-4.8-.9-6.3 1.3-.8 1.2-1.2 2.8-.6 4.1.2.4.8 1.9 2 2.5 2.3 1.3 5.3.7 6.6-1.8z" fill="#ffffff" stroke-width="none" opacity="1"></path><path id="SvgjsPath57709" d="M81.9 83.2c-2.2-1.5-5.1-.9-6.8 1.3-1 1.3-1.2 3.1-.7 4.4.2.5.8 2 2.1 2.6.9.4 1.8.7 2.7.7 1.8 0 3.5-.9 4.4-2.6 1.2-2 .3-5-1.7-6.4zm-6.8 5.5c-.5-1.1-.2-2.6.6-3.8.9-1.2 2.2-1.9 3.6-1.9.2 0 .4 0 .7.1.1 0 .1.1.2.2 0 0 .1.1.1 0h.3c.1.1.1.1.1.2s.2.1.2.1c.1-.1.1-.1.2-.1.1.1.2.1.3.2.1.1.2.3.2.4 0 .1.1.1.1.1.2 0 .3.1.4.2.1.1.1.2.1.4 0 .1.1.1.2.1h.3c.2.2.2.5.2.8 0 .1 0 .2.1.2.2 0 .4.2.4.4 0 .1-.1.2-.1.3-.1.1 0 .2.1.2.1.1.6.8.2.9-.1 0-.1.1-.1.2.1.1.2.3.2.4 0 .1-.1.2-.1.4-.1.1-.1.1-.3.2-.1 0-.1.1-.1.2.1.3 0 .5-.3.7h-.2c-.1 0-.2.1-.2.2.1.4-.2.7-.6.6-.1 0-.1.1-.1.2v.2c-.2.3-.5.2-.8.1-.1-.1-.2 0-.2.2v.2c-.1.1-.4.1-.5 0-.1-.1-.3-.1-.3.1-.1.1-.3.2-.4 0-.1-.1-.2-.1-.2 0l-.2.2c-.1 0-.2.1-.2-.1 0-.1-.1-.1-.2-.1-.1.1-.2.1-.2.1-.1 0-.2-.1-.3-.1 0 0-.1-.1-.1-.2-.1-.1-.2-.1-.3 0l-.3-.3-.1-.1c-.2 0-.3-.1-.5-.1l-.1-.1c0-.1-.1-.2-.2-.2h-.2c-.9-.7-1.3-1.6-1.4-1.9zm1.7-2.8c-.2-.3-.6-.5-1-.5-.1 0-.1.1 0 .1.2.1.3.1.5.2s.3.2.4.3c0 .1.1 0 .1-.1zm.3-2.2s-.1 0 0 0c.1.5.3 1 .6 1.4 0 0 .1 0 .1-.1-.1-.4-.4-.9-.7-1.3zm2 .1c0-.1-.1-.1 0 0 0 .3 0 .6.1.9 0 .1.1 0 .1 0-.1-.4-.2-.7-.2-.9zm2.7.5c-.3.2-.5.6-.7.8-.1.1 0 .2.1.1.2-.2.5-.4.6-.9.1.1 0 0 0 0zm1 3.3h-.3c-.1 0-.2 0-.4-.1-.1 0-.2.1-.1.2.2.1.5.2.8.1v-.2zm.1.9c-.3-.1-.6-.1-.8-.2-.1 0-.1.1 0 .1.2.1.5.2.8.1 0 .1 0 0 0 0zm-4.6 1.8c0-.1-.1-.1-.1 0v.4c0 .1-.1.2-.1.3 0 .1.1.1.1.1.1-.2.2-.5.1-.8zm-1.8-1c-.1 0-.2.1-.2.1-.1.1-.2.1-.2.1-.1 0-.1.1 0 .1s.2 0 .3-.1c.1 0 .2-.1.1-.2.1 0 .1-.1 0 0zm-1-1.7c-.2 0-.4 0-.7.1-.1 0-.1.1 0 .1.3 0 .5 0 .7-.2 0 .1.1.1 0 0zm5.2 1c.2 0 .4.1.5.3.6-.9.7-2.2-.2-3.1-.6-.5-1.4-.8-2.2-.6-.1 0-.2.1-.4.1.6.6.3 1.8-.7 1.8-.3 0-.5-.1-.7-.2-.2.6-.2 1.3.2 1.9.7 1 2 1.4 3.1.8-.3-.2-.2-1 .4-1z" fill="#000000" stroke-width="none" opacity="1"></path></g></g></g><g id="svga-group-eyesfront-left"><path id="SvgjsPath57628" d="M79 72.1c-8.2 0-14.8 6.6-14.8 14.8s6.6 14.8 14.8 14.8 14.8-6.6 14.8-14.8c0-8.1-6.6-14.8-14.8-14.8zm10.3 18.2c-.6.3-5.5 1.7-11.3 1.2s-9.2-1.6-9.2-1.6-2.1-.7-1.9-1.5 2.3-3.5 5.7-4.5 6.8-1 9.5-.3c2.6.6 6.2 2.8 7.3 4.1 1 1.3.5 2.2-.1 2.6z" fill="#ffffff" stroke-width="none" opacity="1"></path><path id="SvgjsPath57629" d="M90 88.1c-1.4-2.7-8.2-6.4-14.3-5.8-7.6.7-9.8 5.6-9.8 5.8-.1.3 0 .6.3.8.3.1.6 0 .8-.3.1-.2 2-4.4 8.9-5.1 5.8-.5 12 3.1 13.2 5.2.1.2.2.5.1.7-1.2 1.5-9.5 2.6-21.6-.5-.3-.1-.6.1-.7.4s.1.6.4.7c5.5 1.4 10.5 2.1 14.5 2.1 4.3 0 7.3-.7 8.3-1.9.1-.4.5-1-.1-2.1zm-2 3.6s-5 3.5-14.3 3.5c-.3 0-.6.3-.6.6s.3.6.6.6c9.7 0 14.8-3.6 15-3.7.3-.2.3-.6.1-.8-.1-.3-.5-.4-.8-.2zm-18.9 3.1c.3.1.6.1.8.1.1 0 .2-.2.1-.3-.6-.3-1.3-.5-1.9-.8s-1.2-.7-1.9-1c-.2-.1-.5.2-.2.4.5.4 1.2.9 1.9 1.2-.3-.1-.4.3-.2.4 1.5.9 3.5 1.7 5.3 1.9.2 0 .3-.2.1-.3-1.3-.6-2.6-1.1-4-1.6z" fill="#000000" stroke-width="none" opacity="1"></path></g></g></g><g id="svga-group-eyes-right-move" transform="matrix(1,0,0,1,0,0)"><g id="svga-group-eyes-right" transform="matrix(1,0,0,1,0,0)"><g id="svga-group-eyesback-right"></g><g id="svga-group-eyesiriswrapper-right"><g id="svga-group-eyesiriscontrol-right" transform="matrix(1,0,0,1,0,0)"><g id="svga-group-eyesiris-right" transform="matrix(1,0,0,1,0,0)"><path id="SvgjsPath57710" d="M125.4 89.5c1.1-2 .1-4.9-1.7-6.1-2-1.3-4.8-.9-6.3 1.3-.8 1.2-1.2 2.8-.6 4.1.2.4.8 1.9 2 2.5 2.4 1.3 5.4.7 6.6-1.8z" fill="#ffffff" stroke-width="none" opacity="1"></path><path id="SvgjsPath57711" d="M123.9 83.2c-2.2-1.5-5.1-.9-6.8 1.3-1 1.3-1.2 3.1-.7 4.4.2.5.8 2 2.1 2.6.9.4 1.8.7 2.7.7 1.8 0 3.5-.9 4.4-2.6 1.2-2 .4-5-1.7-6.4zm-6.8 5.5c-.5-1.1-.2-2.6.6-3.8.9-1.2 2.2-1.9 3.6-1.9.2 0 .4 0 .7.1.1 0 .1.1.2.2 0 0 .1.1.1 0h.3c.1.1.1.1.1.2s.2.1.2.1c.1-.1.1-.1.2-.1.1.1.2.1.3.2.1.1.2.3.2.4 0 .1.1.1.1.1.2 0 .3.1.4.2.1.1.1.2.1.4 0 .1.1.1.2.1h.3c.2.2.2.5.2.8 0 .1 0 .2.1.2.2 0 .4.2.4.4 0 .1-.1.2-.1.3-.1.1 0 .2.1.2.1.1.6.8.2.9-.1 0-.1.1-.1.2.1.1.2.3.2.4 0 .1-.1.2-.1.4-.1.1-.1.1-.3.2-.1 0-.1.1-.1.2.1.3 0 .5-.3.7h-.2c-.1 0-.2.1-.2.2.1.4-.2.7-.6.6-.1 0-.1.1-.1.2v.2c-.2.3-.5.2-.8.1-.1-.1-.2 0-.2.2v.2c-.1.1-.4.1-.5 0-.1-.1-.3-.1-.3.1-.1.1-.3.2-.4 0-.1-.1-.2-.1-.2 0l-.2.2c-.1 0-.2.1-.2-.1 0-.1-.1-.1-.2-.1-.1.1-.2.1-.2.1-.1 0-.2-.1-.3-.1 0 0-.1-.1-.1-.2-.1-.1-.2-.1-.3 0l-.3-.3-.1-.1c-.2 0-.3-.1-.5-.1l-.1-.1c0-.1-.1-.2-.2-.2h-.2c-.9-.7-1.3-1.6-1.4-1.9zm1.7-2.8c-.2-.3-.6-.5-1-.5-.1 0-.1.1 0 .1.2.1.3.1.5.2s.3.2.4.3c.1.1.2 0 .1-.1zm.4-2.2c-.1 0-.1 0 0 0 .1.5.3 1 .6 1.4 0 0 .1 0 .1-.1-.2-.4-.4-.9-.7-1.3zm1.9.1c0-.1-.1-.1 0 0 0 .3 0 .6.1.9 0 .1.1 0 .1 0 0-.4-.1-.7-.2-.9zm2.7.5c-.3.2-.5.6-.7.8-.1.1 0 .2.1.1.2-.2.5-.4.6-.9.1.1.1 0 0 0zm1 3.3h-.3c-.1 0-.2 0-.4-.1-.1 0-.2.1-.1.2.2.1.5.2.8.1.1-.1 0-.2 0-.2zm.1.9c-.3-.1-.6-.1-.8-.2-.1 0-.1.1 0 .1.2.1.5.2.8.1.1.1.1 0 0 0zm-4.6 1.8c0-.1-.1-.1-.1 0v.4c0 .1-.1.2-.1.3 0 .1.1.1.1.1.2-.2.2-.5.1-.8zm-1.7-1c-.1 0-.2.1-.2.1-.1.1-.2.1-.2.1-.1 0-.1.1 0 .1s.2 0 .3-.1c0 0 .1-.1.1-.2.1 0 0-.1 0 0zm-1.1-1.7c-.2 0-.4 0-.7.1-.1 0-.1.1 0 .1.3 0 .5 0 .7-.2.1.1.1.1 0 0zm5.3 1c.2 0 .4.1.5.3.6-.9.7-2.2-.2-3.1-.6-.5-1.4-.8-2.2-.6-.1 0-.2.1-.4.1.6.6.3 1.8-.7 1.8-.3 0-.5-.1-.7-.2-.2.6-.2 1.3.2 1.9.7 1 2 1.4 3.1.8-.4-.2-.2-1 .4-1z" fill="#000000" stroke-width="none" opacity="1"></path></g></g></g><g id="svga-group-eyesfront-right"><path id="SvgjsPath57630" d="M121 72.1c-8.2 0-14.8 6.6-14.8 14.8s6.6 14.8 14.8 14.8 14.8-6.6 14.8-14.8c0-8.1-6.6-14.8-14.8-14.8zm9.4 17.7s-3.4 1.1-9.2 1.6c-5.8.5-10.8-.8-11.3-1.2-.6-.3-1.1-1.3 0-2.6s4.7-3.5 7.3-4.1c2.6-.6 6-.7 9.5.3 3.4 1 5.5 3.7 5.7 4.5.1.9-2 1.5-2 1.5z" fill="#ffffff" stroke-width="none" opacity="1"></path><path id="SvgjsPath57633" d="M133.3 88.1c-.1-.2-2.3-5.1-9.8-5.8-6.1-.6-12.9 3.2-14.3 5.8-.5 1-.2 1.7 0 2 1 1.2 4 1.9 8.3 1.9 4 0 9.1-.6 14.5-2.1.3-.1.5-.4.4-.7-.1-.3-.4-.5-.7-.4-12.1 3.2-20.4 2-21.6.5-.1-.2 0-.5.1-.7 1.1-2.2 7.3-5.8 13.2-5.2 6.9.6 8.8 4.9 8.9 5.1.1.3.5.4.8.3.2-.1.3-.4.2-.7zm-7.9 7.1c-9.3 0-14.2-3.5-14.3-3.5-.3-.2-.6-.1-.8.1-.2.3-.1.6.1.8.2.2 5.3 3.7 15 3.7.3 0 .6-.3.6-.6s-.3-.5-.6-.5z" fill="#000000" stroke-width="none" opacity="1"></path></g></g></g><g id="svga-group-facehighlight-single"></g><g id="svga-group-eyebrows-left-move" transform="matrix(1,0,0,1,0,0)"><g id="svga-group-eyebrows-left-rotate" transform="matrix(1,0,0,1,0,0)"><g id="svga-group-eyebrows-left" transform="matrix(1,0,0,1,0,0)"><path id="SvgjsPath57558" d="M63.19 79.72s3.09-9.26 3.97-9.85c.88-.59 24.4 1.03 24.4 1.03s-3.38 5.44-4.7 6.17c-1.32.73-17.49-1.18-18.67-.73-1.18.44-5 3.38-5 3.38z" fill="#ffffff" stroke-width="none" opacity="1"></path><path id="SvgjsPath57559" d="m62.42 80.79 1-.77c1.05-.81 3.98-2.98 4.9-3.32.48-.16 4.29.13 7.64.39 6.37.49 10.29.76 11.07.32 1.37-.76 4.49-5.74 4.84-6.31l.34-.54-.64-.04c-.06 0-5.95-.41-11.87-.74-12.11-.67-12.53-.38-12.76-.23-.92.61-3.39 7.84-4.12 10.05l-.4 1.19zm4.66-10.17-.7 6.32c-.4.27-.82.55-1.22.84.41-1.73 1.4-5.91 1.46-6.11.01-.02-.01-.04-.01-.06.17-.41.33-.74.47-.99zm3.39-.47-.35 5.77c-.26-.01-.48-.02-.69-.02l-1.16-5.76c.54-.02 1.29-.01 2.2.01zm2.48 5.94c-.48-.03-.93-.07-1.33-.09l.9-5.79c.64.02 1.31.05 2.03.08l-1.6 5.8zm2.12-5.77.71.03-1.92 5.81-.4-.03 1.61-5.81zm-3.96 5.65-.48-.03.35-5.78 1.02.03-.89 5.78zm6.06-1.72.96-3.78c.28.01.56.03.85.04l-1.81 3.74zm1.03-.96-.96 3.13c-.18-.01-.36-.03-.54-.04l1.5-3.09zm3.97-2.6-2.57 5.89c-.62-.04-1.23-.09-1.83-.13l1.81-5.91c.85.06 1.72.1 2.59.15zm-1.87 5.95 2.85-3.8-1.89 3.86-.96-.06zm1.52.09 2.89-5.89 2.37.15-2.63 5.86c-.77-.02-1.67-.06-2.63-.12zm2.22-5.92-3.24 4.32 1.92-4.4c.44.02.88.05 1.32.08zm2.62 5.93c-.07.04-.21.06-.38.08l3.57-5.65c.35.02.69.05 1.03.07-1.11 1.75-3.31 5-4.22 5.5zm-1.66.12 2.62-5.83c.56.04 1.11.07 1.65.11l-3.62 5.72H85zm-10.6-.66 1.92-5.82 1.29.06-1.5 5.88c-.03 0-.06 0-.08-.01-.59-.03-1.12-.07-1.63-.11zm-6.35-.22c-.27.1-.67.33-1.12.61l.71-6.42c.03 0 .06-.01.1-.01l1.16 5.74c-.42 0-.7.03-.85.08zm-4.1 2.68c.46-1.36.95-2.7 1.4-3.92-.35 1.48-.71 3-.83 3.5-.2.15-.4.29-.57.42z" fill="#000000" stroke-width="none" opacity="1"></path></g></g></g><g id="svga-group-eyebrows-right-move" transform="matrix(1,0,0,1,0,0)"><g id="svga-group-eyebrows-right-rotate" transform="matrix(1,0,0,1,0,0)"><g id="svga-group-eyebrows-right" transform="matrix(1,0,0,1,0,0)"><path id="SvgjsPath57560" d="M136.81 79.72s-3.09-9.26-3.97-9.85c-.88-.59-24.4 1.03-24.4 1.03s3.38 5.44 4.7 6.17c1.32.73 17.49-1.18 18.67-.73s5 3.38 5 3.38z" fill="#ffffff" stroke-width="none" opacity="1"></path><path id="SvgjsPath57561" d="M137.18 79.6c-.73-2.2-3.2-9.43-4.12-10.05-.23-.15-.66-.44-12.76.23-5.92.33-11.81.73-11.87.74l-.64.04.34.54c.35.57 3.47 5.54 4.84 6.31.78.43 4.7.17 11.07-.32 3.36-.26 7.16-.55 7.64-.39.92.34 3.85 2.52 4.9 3.32l1 .77-.4-1.19zm-3.78-7.99c0 .02-.01.04-.01.06.05.2 1.05 4.39 1.46 6.11-.4-.29-.82-.58-1.22-.84l-.7-6.32c.13.25.29.58.47.99zm-1.66-1.48-1.16 5.76c-.21 0-.43.01-.69.02l-.35-5.77c.9-.01 1.65-.02 2.2-.01zm-6.29.17c.71-.03 1.39-.06 2.03-.08l.9 5.79c-.4.03-.85.06-1.33.09l-1.6-5.8zm1.08 5.83-.4.03-1.92-5.81.71-.03 1.61 5.81zm1.47-5.94 1.02-.03.35 5.78-.48.03-.89-5.78zm-6.97.33c.28-.02.57-.03.85-.04l.96 3.78-1.81-3.74zm2.27 5.86c-.18.01-.36.03-.54.04l-.96-3.13 1.5 3.09zm-2.88-5.83 1.81 5.91c-.6.05-1.22.09-1.83.13l-2.57-5.89c.87-.06 1.74-.1 2.59-.15zm-1.68 6.15-1.89-3.86 2.85 3.8-.96.06zm-3.18.15-2.63-5.86 2.37-.15 2.89 5.89c-.97.06-1.87.1-2.63.12zm1.73-6.12 1.92 4.4-3.24-4.32c.43-.03.87-.06 1.32-.08zm-8.17.51c.34-.02.68-.05 1.03-.07l3.57 5.65c-.18-.02-.31-.05-.38-.08-.91-.5-3.11-3.75-4.22-5.5zm5.23 5.62-3.62-5.72c.54-.04 1.09-.07 1.65-.11l2.62 5.83h-.65zm9.63-.54c-.03 0-.06 0-.08.01l-1.5-5.88 1.29-.06 1.92 5.82c-.52.03-1.05.07-1.63.11zm7.12-.43 1.16-5.74c.04 0 .07.01.1.01l.71 6.42c-.45-.28-.85-.51-1.12-.61-.15-.04-.43-.07-.85-.08zm4.38 2.36c-.12-.5-.48-2.02-.83-3.5.46 1.21.94 2.56 1.4 3.92-.17-.14-.37-.28-.57-.42z" fill="#000000" stroke-width="none" opacity="1"></path></g></g></g><g id="svga-group-beardwrap" transform="matrix(1,0,0,1,0,0)"><g id="svga-group-beard-single-move" transform="matrix(1,0,0,1,0,0)"><g id="svga-group-beard-single" transform="matrix(1,0,0,1,0,0)"></g></g></g><g id="svga-group-mustache-single-move" transform="matrix(1,0,0,1,0,0)"><g id="svga-group-mustache-single" transform="matrix(1,0,0,1,0,0)"></g></g><g id="svga-group-nose-single-move" transform="matrix(1,0,0,1,0,0)"><g id="svga-group-nose-single" transform="matrix(1,0,0,1,0,0)"><path id="SvgjsPath57759" d="M107.63 99.2c1.29 1 2.64 2.88 2 4.05-.65 1.17-5.7 2.82-9.1 3.29-3.41.47-9.98-.82-11.04-2-1.06-1.17-.06-2.94.41-3.88s4.4-8.69 5.46-10.04 4.11-2.06 6.69 1.06c2.59 3.12 5.58 7.52 5.58 7.52z" fill="#ffffff" stroke-width="none" opacity="1"></path><path id="SvgjsPath57760" d="M107.86 98.84c-.48-.37-.95.45-.48.81 1.48 1.13 2.98 3.12.69 4.31-1.34.7-2.91 1.17-4.34 1.6-3.34 1-6.52.84-9.88.01-.18-.04-.4-.09-.64-.14.28.01.57.05.84.01.4-.05.36-.1.7-.15.23-.04.38-.34.31-.54 0 .01-.11-.27-.12-.28-.03-.13-.04-.26-.11-.39-.18-.33-.5-.63-.77-.89-.64-.61-1.63-1.09-2.54-.98-.63.07-1.19.39-1.36 1.04-.14.52.04 1.04.41 1.4-.68-.34-1.16-.82-1.12-1.51.08-1.45 1.24-2.99 1.89-4.25 1.57-3.02 3.14-6.03 4.71-9.05.28-.54-.53-1.02-.81-.48-1.15 2.21-2.3 4.41-3.45 6.62-.97 1.86-2.09 3.69-2.89 5.63-.55 1.33-.63 2.87.78 3.68.77.44 1.72.6 2.56.83 1.06.29 2.12.56 3.2.76 4.37.82 8.34-.11 12.39-1.79 1.1-.46 2.25-1.1 2.43-2.39.24-1.72-1.18-2.93-2.4-3.86z" fill="#000000" stroke-width="none" opacity="1"></path><path id="SvgjsPath57761" d="M103.34 105.26c.57.04 1.22-.13 1.76-.27.6-.16 1.32-.39 1.85-.71 1-.6.62-2.31-.61-2.26-.8.03-1.76.4-2.39.91-.32.26-.57.52-.79.86-.06.15-.07.16-.03.05l-.14.17c-.12.15-.18.3-.24.49-.11.4.21.73.59.76z" fill="#000000" stroke-width="none" opacity="1"></path></g></g><g id="svga-group-hair-front" transform="matrix(1,0,0,1,0,0)"><path id="SvgjsPath57682" d="M60.9 43.2s-3.1.8-3.3 2.9c-.2 2.1-2.3 3.9-2 6.6.3 2.7-2 6.4-1.2 8.3.8 1.8-1.1 3.7-.8 5.7.4 2-.3 3.7.3 4.6.6.8 5.9 5.9 6.4 5.2s.1-3.3.6-4.7c.6-1.4.2-4.8.9-6.3s.4-3.3 1.1-5.7.7-3 .8-5-.1-4.5-2.8-11.6z" fill="#ffffff" stroke-width="none" opacity="1"></path><path id="SvgjsPath57683" d="M139.1 43.2s3.1.8 3.3 2.9c.2 2.1 2.3 3.9 2 6.6-.3 2.7 2 6.4 1.2 8.3-.8 1.8 1.1 3.7.8 5.7-.4 2 .3 3.7-.3 4.6-.6.8-5.9 5.9-6.4 5.2s-.1-3.3-.6-4.7-.2-4.8-.9-6.3-.4-3.3-1.1-5.7c-.7-2.4-.7-3-.8-5-.1-2 .2-4.5 2.8-11.6z" fill="#ffffff" stroke-width="none" opacity="1"></path><path id="SvgjsPath57684" d="M112.1 26.6s-2.5 2.9-6.2 4.7-15.4 1.3-18.2.3-6-3.8-6-3.8-.1-3.8 2.2-4.3 4 .1 5.1-.3 4.9-2.1 6.6-1.5c1.8.6 4.3-2.1 7.1-1.2s3.7 1.8 3.7 1.8 2.8-.1 3.5.9 2.2 3.4 2.2 3.4z" fill="#ffffff" stroke-width="none" opacity="1"></path><path id="SvgjsPath57685" d="m61.5 42-.9.2c-.2 0-3.7 1-4 3.8-.1.7-.4 1.5-.9 2.2-.6 1.2-1.4 2.7-1.2 4.5.1 1.1-.3 2.4-.7 3.8-.5 1.8-1 3.5-.4 4.8.3.6 0 1.3-.3 2.3-.3.9-.7 2-.5 3.2.2.8.1 1.6.1 2.3-.1 1-.1 1.9.4 2.6.3.4 5.3 5.6 7 5.7h.1c.4 0 .7-.2 1-.4.5-.6.5-1.6.6-2.7 0-.8 0-1.7.2-2.2.3-.8.4-2 .4-3.3.1-1.1.1-2.4.4-2.9.4-.9.5-1.9.7-3 .1-.9.2-1.8.5-2.9.7-2.4.7-3.1.8-4.9v-.3c.1-2.4-.3-5.1-2.9-11.9l-.4-.9zm1.3 12.7v.3c-.1 1.7-.1 2.3-.7 4.5-.3 1.2-.5 2.3-.6 3.2s-.2 1.7-.5 2.3c-.5.9-.5 2.4-.6 3.7 0 1-.1 2.1-.3 2.6-.4.9-.4 2-.4 2.9v.9c-1.4-1-4.4-3.7-4.9-4.5-.1-.2-.1-.9 0-1.4 0-.8.1-1.7-.1-2.8-.1-.6.1-1.3.4-2.2.4-1.1.9-2.4.3-3.8-.3-.6.1-2.1.5-3.4.4-1.5.9-3.1.8-4.5-.1-1.3.4-2.3 1-3.4.5-.9 1-1.9 1.1-3 .1-.8 1-1.4 1.7-1.7 2.2 6.6 2.3 8.7 2.3 10.3zm-6.5 14.6c-.6-.6-1.4.3-.9.9 1.1 1.2 2.2 2.3 3.2 3.5.6.6 1.4-.3.9-.9-1.1-1.2-2.2-2.4-3.2-3.5zm1.7.1c.5.6 1.4-.3.9-.9-.8-1-1.6-2.1-2.3-3.3-.4-.7-1.5-.1-1.1.6.7 1.3 1.6 2.4 2.5 3.6zm1.8-6.3c-.4-.7-1.5 0-1.1.6.3.5.7 1 1 1.5.4.7 1.5 0 1.1-.6-.3-.5-.7-1-1-1.5zm-1.2-3.3c.4.7 1.5 0 1.1-.6-.7-1-1.3-2.1-1.8-3.3-.3-.7-1.5-.4-1.2.3.5 1.2 1.2 2.4 1.9 3.6zm.8-5.7c.5 1.1 1.1 2.1 1.8 3 .5.7 1.5 0 1.1-.6-.7-1-1.3-2-1.8-3-.4-.8-1.5-.1-1.1.6zm-.1-6.6c.1.7.2 1.3.6 2 .4.7 1.4.1 1.1-.6-.2-.4-.4-.9-.4-1.3-.1-.9-1.4-.9-1.3-.1zm87.6 16.2c-.3-.9-.6-1.6-.3-2.3.6-1.3.1-3-.4-4.8-.4-1.3-.8-2.7-.7-3.8.2-1.9-.6-3.3-1.2-4.5-.4-.8-.8-1.5-.9-2.2-.3-2.8-3.9-3.8-4-3.8l-.9-.2-.3.8c-2.6 6.8-3 9.6-2.9 11.9v.3c.1 1.8.1 2.5.8 4.9.3 1.1.4 2 .5 2.9.1 1.1.2 2.1.7 3 .3.6.3 1.8.4 2.9.1 1.3.1 2.4.4 3.3.2.5.2 1.4.3 2.2 0 1.1 0 2.1.5 2.7.2.3.6.4 1 .4 1.8-.1 6.7-5.2 7-5.7.5-.7.5-1.7.4-2.6 0-.7-.1-1.5.1-2.3.2-1.1-.2-2.2-.5-3.1zm-1.5 2.8c-.2 1.1-.1 2-.1 2.8 0 .5.1 1.2 0 1.4-.5.8-3.5 3.5-4.9 4.5v-.9c0-1 0-2.1-.4-2.9-.2-.5-.3-1.6-.3-2.6-.1-1.4-.1-2.8-.6-3.7-.3-.6-.4-1.4-.5-2.3-.1-.9-.2-2-.6-3.2-.6-2.2-.6-2.7-.7-4.5v-.3c-.1-1.6.1-3.8 2.4-10.2.7.3 1.6.9 1.7 1.7.1 1.1.6 2 1.1 3 .6 1.1 1.1 2.2 1 3.4-.1 1.5.3 3 .8 4.5.4 1.4.8 2.8.5 3.4-.6 1.4-.2 2.7.3 3.8.2.8.5 1.5.3 2.1zm-1.6 2.8c-1.1 1.2-2.2 2.3-3.2 3.5-.5.6.3 1.5.9.9 1.1-1.2 2.2-2.3 3.2-3.5.5-.6-.3-1.5-.9-.9zm-1.7.1c.9-1.1 1.8-2.3 2.5-3.5.4-.7-.7-1.3-1.1-.6-.7 1.1-1.5 2.2-2.3 3.3-.5.5.4 1.4.9.8zm-1.8-6.3c-.3.5-.7 1-1 1.5-.4.7.6 1.3 1.1.6.3-.5.7-1 1-1.5.4-.7-.7-1.3-1.1-.6zm1.2-3.3c.7-1.1 1.4-2.3 1.9-3.6.3-.7-.9-1.1-1.2-.3-.5 1.2-1.1 2.2-1.8 3.3-.5.6.6 1.2 1.1.6zm-1.9-6.3c-.5 1.1-1.1 2.1-1.8 3-.5.7.6 1.3 1.1.6.7-1 1.3-2 1.8-3 .3-.7-.8-1.4-1.1-.6zm.6-4.1c.3-.6.5-1.3.6-2 .1-.8-1.2-.8-1.3 0 0 .5-.2.9-.4 1.3-.3.8.7 1.4 1.1.7zm-29.6-26.7c-.8-1.2-2.9-1.3-3.9-1.3-.5-.4-1.6-1.1-3.7-1.7-1.8-.6-3.5.1-4.9.7-.9.4-1.7.7-2.2.5-1.9-.6-5 .6-6.7 1.3l-.5.2c-.4.2-1 .1-1.7.1-.9 0-2-.1-3.3.2-3.1.6-2.9 5-2.9 5.2v.4l.3.2c.1.1 3.4 2.9 6.3 4 1.5.6 5.4 1 9.4 1 2.6 0 7.2-.2 9.5-1.3 3.8-1.8 6.4-4.8 6.5-4.9l.4-.5-.3-.5c-.2-.4-1.6-2.6-2.3-3.6zm-5.1 7.8c-1.4.7-4.3 1-7.3 1.1.1-.6.2-1.2.3-1.9.1-.8-1.1-1.1-1.2-.3-.1.6-.2 1.3-.3 1.9v.3h-2.1c.1-.1.2-.3.1-.5-.3-1.3-.5-2.7-.4-4 0-.8-1.2-.8-1.3 0 0 1.5.1 2.9.5 4.4 0 .1.1.1.1.2-2.7-.1-5-.4-6-.8-2.1-.8-4.6-2.7-5.5-3.4 0-.7.2-2.8 1.5-3 1.1-.2 2-.2 2.9-.1.9 0 1.7.1 2.4-.2l.5-.2c1.2-.5 4.3-1.7 5.5-1.3 1.1.4 2.3-.1 3.4-.6 1.2-.5 2.5-1 3.7-.6 2.5.8 3.3 1.5 3.3 1.5l.3.3h.4c1.2-.1 2.5.2 2.8.5.5.7 1.3 2 1.8 2.8-.8.8-2.8 2.7-5.4 3.9zm-15.9-2.6c-.2-.8-1.4-.4-1.2.3.3.9.8 1.7 1.5 2.2.6.5 1.5-.4.9-.9-.6-.3-1-.9-1.2-1.6zm16.3-.5c0 .7-.3 1.4-.7 1.9-.5.6.4 1.5.9.9.7-.8 1.1-1.8 1.1-2.8-.1-.9-1.3-.9-1.3 0zm-.9-1.7c-.3-1.2-1-2.3-2-3.1-.6-.5-1.5.4-.9.9.8.7 1.4 1.5 1.6 2.6.3.7 1.5.4 1.3-.4zm-4.2-1.6c-.6-.5-1.5.4-.9.9.5.4.9.9 1.2 1.5.1.3.4.5.8.4.3-.1.6-.5.4-.8-.3-.8-.8-1.5-1.5-2zm-16.4 1c.1.8.3 1.6.4 2.4s1.4.5 1.2-.3c-.1-.8-.3-1.6-.4-2.4-.1-.8-1.3-.5-1.2.3zm6.4-.6c-.2.6-.2 1.1 0 1.7.2.8 1.5.4 1.2-.3-.1-.4-.1-.7 0-1 .2-.8-1-1.2-1.2-.4z" fill="#000000" stroke-width="none" opacity="1"></path></g><g id="svga-group-glasses-single-move" transform="matrix(1,0,0,1,0,0)"><g id="svga-group-glasses-single" transform="matrix(1,0,0,1,0,0)"></g></g></g></g></g><rect id="svga-credit-rect" width="200" height="15" x="0" y="185" fill="#ecf0f1" opacity="0.5" style="display: none;"></rect><text id="svga-credit-text" font-family="Avenir Next, Roboto, Helvetica, Arial, sans-serif" font-size="10px" text-anchor="start" font-weight="400" size="10px" anchor="start" weight="400" fill="#333333" x="33.402061462402344" y="182.71133995056152" style="display: none;"><tspan id="SvgjsTspan57088" dy="13" x="33.402061462402344">Created on AvatarMaker.com</tspan></text></g></svg>