<svg xmlns="http://www.w3.org/2000/svg" version="1.1" width="600px" height="600px" viewBox="0 0 200 200" style="overflow:hidden!important;"><defs id="SvgjsDefs32823"></defs><g id="svga-group-wrapper"><g id="svga-group-backs-single"></g><g id="svga-group-humanwrap-move" transform="matrix(1,0,0,1,0,0)"><g id="svga-group-humanwrap" transform="matrix(1,0,0,1,0,0)"><g id="svga-group-hair-back-move" transform="matrix(1,0,0,1,0,0)"><g id="svga-group-hair-back" transform="matrix(1,0,0,1,0,0)"></g></g><g id="svga-group-humanbody-back"><path id="SvgjsPath33233" d="M77.6 118.3c0 19.3 3.4 44.1-10 51.9-13.4 7.9-31.9 11.3-37.8 22s-4.4 25.3-4.4 25.3h149.3s.7-18.9-5.1-26.4c-8.1-10.4-27.8-15.5-37.7-20.9s-13.4-25.1-13.4-52.4l-40.9.5z" fill="#ffffff" stroke-width="none" opacity="1"></path><path id="SvgjsPath33234" d="M175.8 218.7H24.4l-.1-1c-.1-.6-1.5-15.1 4.5-26 4.1-7.4 13.5-11.3 23.5-15.5 5-2.1 10.2-4.3 14.8-6.9 10.6-6.2 10.1-23.9 9.6-41-.1-3.5-.2-6.8-.2-10v-1.1l43.2-.4v1.1c0 29.9 4.2 46.7 12.8 51.4 2.9 1.6 6.7 3.2 10.8 4.9 10 4.1 21.3 8.8 27.2 16.3 6.1 7.7 5.4 26.4 5.4 27.1l-.1 1.1zm-149.3-2.2h147.1c0-4.1-.2-18.5-4.9-24.6-5.5-7-16.6-11.6-26.3-15.6-4.1-1.7-8-3.3-11-5-5.1-2.8-8.7-8.9-10.9-18.7-2-8.4-2.9-19.4-3-33.5l-38.6.4c0 2.8.1 5.7.2 8.8.5 17.8 1 36.1-10.7 43-4.7 2.7-9.9 4.9-15 7.1-9.6 4-18.7 7.8-22.4 14.5-5 8.6-4.7 20.1-4.5 23.6z" fill="#000000" stroke-width="none" opacity="1"></path><path id="SvgjsPath33235" d="M93.9 153.8c-.5 1.8-.4 3.4.5 5.2.8 1.6 2.1 2.7 3.9 2.9.4 0 .7-.5.5-.8-1.6-2.2-3.5-4.2-3.7-7.1 0-.7-1-.9-1.2-.2zm18.6 33.7c8.8.5 18.1-.7 26.6-2.9.7-.2.6-1.4-.2-1.3-8.8 1.1-17.7 2-26.5 3.3-.5.1-.3.9.1.9zm-49.4-5c3.8.9 7.6 1.9 11.5 2.8 3.6.8 7.4 2 11.1 2.1.7 0 .8-.9.2-1.2-3.5-1.4-7.5-1.7-11.2-2.5-3.8-.7-7.5-1.3-11.3-2-.5 0-.7.7-.3.8z" fill="#000000" stroke-width="none" opacity="1"></path></g><g id="svga-group-chinshadow-single"></g><g id="svga-group-humanbody-front"></g><g id="svga-group-clothes-single"><path id="SvgjsPath33367" d="M77.6 140.5s-8.6 2.8-13.1 5.9-5.6 10-5.6 10-2.3-3.3-4.5 1.9-1.8 5.6-4 7.9c-2.3 2.3-1 6.8-.2 7.9 0 0-4 2.8-8.4 4s-10.3 4.2-12.1 6.6-9.6 12.8-5.6 34h153.6s0-21-3-27.5-7.7-7.5-7.7-7.5-9.8-7-11.7-8.2-11-4.2-11-4.2-.5-4.2-1.2-7.2-4.6-8.1-6.6-8.4c-2.1-.4-3-2.8-5.6-7-2.6-4.2-5.8-6.5-7.3-7-1.6-.5-3.3-.2-3.3-.2s1.2 8.9 1.2 13.6-.9 7.7-4.6 12.2c-3.7 4.6-6.1 5.8-11.4 9.3s-6.3 5.4-6.3 5.4-3.2-5.1-8.8-8.6S83 166 79 162.5s-1.1-6.1-1.4-11.2c-.3-5.1 0-10.8 0-10.8z" fill="#ffffff" stroke-width="none" opacity="1"></path><path id="SvgjsPath33368" d="M175.6 190.8c-2.8-6.1-7.1-7.7-8.2-8-1.3-.9-9.8-7-11.6-8.1-1.8-1.1-8.5-3.4-10.6-4.1-.2-1.3-.6-4.3-1.2-6.6-.7-3-4.7-8.7-7.5-9.1-1.1-.2-1.8-1.3-3.3-3.9-.5-.8-1-1.6-1.6-2.6-2.6-4.2-5.9-6.8-7.9-7.4-1.8-.6-3.8-.2-3.8-.2-.5.1-.9.6-.8 1.1 0 .1 1.2 8.9 1.2 13.5 0 4.2-.7 7.1-4.3 11.6-3 3.8-5.1 5.1-9 7.6-.7.4-1.4.9-2.2 1.4-3.1 2.1-4.8 3.6-5.7 4.6-1.3-1.8-4.1-5.1-8.3-7.7-3.3-2.1-5.2-4.4-7.1-6.6-1.2-1.4-2.5-2.9-4.1-4.4-2.2-1.9-1.9-3.4-1.5-5.7.3-1.4.6-2.9.4-4.8-.3-4.9 0-10.7 0-10.7 0-.3-.1-.6-.4-.9-.3-.2-.6-.3-.9-.2-.4.1-8.8 2.9-13.4 6.1-3.5 2.4-5 6.7-5.7 9-.4-.2-.8-.3-1.3-.2-1.4.1-2.5 1.3-3.5 3.6-.7 1.7-1.2 2.9-1.5 3.8-.7 1.9-.9 2.4-2.3 3.8-2.2 2.2-1.7 6.2-.8 8.3-1.3.8-4.3 2.5-7.3 3.4-4.6 1.3-10.7 4.3-12.6 7l-.1.2c-6.4 8.9-8.3 20.6-5.6 34.6.1.5.5.8 1 .8h153.6c.6 0 1-.4 1-1 0-1.2-.1-21.6-3.1-28.2zm-33-23.6c.3 1.9.6 3.7.6 4.1 0 .2-.1.8-.6 1.6.3-1.8.2-3.8 0-5.7zm-20.7-19.4c.5.2 1.2.5 1.9.9-.2.1-.3.1-.5.1l-1.2.3c-.2-.5-.2-.9-.2-1.3zm-.1 12.5h1.5c-.6.4-1.3 1-2 1.6.2-.5.4-1 .5-1.6zm4.2-3.1c-1.2.1-2.6.4-3.8.6.1-.5.1-1 .1-1.5 1.3-.1 2.7-.3 3.9-.5 0 .5-.1 1-.2 1.4zm.1-5c.1.5.1.9.1 1.3-1.3 0-2.7.4-3.9.8 0-.5 0-1-.1-1.5 1.3-.2 2.7-.3 3.9-.6zm-3.8 3.6v-1.1c.7-.2 1.4-.3 2.2-.4.6-.1 1.2-.1 1.8-.2v1.1c-1.3 0-2.7.3-4 .6zm-.1-3.5c0-.4-.1-.8-.1-1.1.6-.1 1.1-.1 1.7-.2.6-.1 1.2-.2 1.7-.3.2.3.3.6.4 1-1.2 0-2.5.3-3.7.6zm1.9-2c-.6.1-1.3.2-1.9.4 0-.3-.1-.7-.1-1 .4-.1.9-.2 1.3-.3.3-.1.7-.1 1-.3l.9.9c-.5.1-.9.2-1.2.3zm-1.9 8c1.1-.1 2.4-.2 3.5-.4-.3.7-.9 1.3-1.6 1.8-.7 0-1.5.1-2.2.1l.3-1.5zM76 159.6c-1.2-1.1-2.3-2.2-2.7-3.1-.1-.1-.1-.2-.1-.4.9.7 1.8 1.5 2.8 2.1-.1.5-.1 1 0 1.4zm-.5-10.9c.3.4.7.7 1.1 1 0 .4 0 .9.1 1.3-.3-.2-.5-.4-.8-.6-.4-.3-.7-.6-1.1-.9.1-.2.4-.5.7-.8zm.3-.3c.2-.2.4-.3.6-.4v1c-.1-.2-.3-.4-.6-.6zm-1.4 1.5c.4.4.8.7 1.2 1 .3.3.6.6 1 .8v1c-.8-.7-1.8-1.4-2.7-2 .2-.2.3-.5.5-.8zm-.7 1.4c.9.8 1.8 1.7 2.8 2.3 0 .3-.1.6-.1.9-.4-.3-.9-.6-1.4-.9-.6-.4-1.2-.8-1.7-1.2.1-.4.3-.8.4-1.1zm-.5 1.5c.5.4 1.1.8 1.6 1.2.5.4 1 .8 1.6 1.1 0 .2-.1.4-.1.5 0 .1-.1.3-.1.4-.5-.3-1-.6-1.4-.9l-1.8-1.2c0-.3.1-.7.2-1.1zm2.7 4.8c-.9-.8-1.9-1.5-2.9-2.1v-1c.4.4.9.7 1.4 1.1.5.4 1.1.8 1.7 1.2-.1.2-.1.5-.2.8zm-22.1 4.8c.3-.9.8-2 1.5-3.7.9-2.1 1.6-2.3 1.8-2.4.3 0 .6.2.8.4.1 2.2 1.5 13.1 16.7 21.5.2.1.3.1.5.1.3 0 .7-.2.8-.5.1.2.2.5.3.7.1.1.3.1.3-.1-.2-2-.6-3.7-.3-5.7 0-.2-.3-.4-.4-.1-.2 1.2-.4 2.5-.2 3.8l-.1-.1c-.1-.1-.2-.1-.3-.2-.3-1.7-.5-3.3-.4-5 0-.3-.4-.3-.4 0-.2 1.5-.2 3.1.1 4.6-.4-.3-.9-.5-1.3-.8-.2-.5-.3-1.1-.4-1.6-.2-1.1-.1-2.1.1-3.1 0-.2-.3-.3-.3-.1-.3 1.3-.4 3 0 4.4-.4-.2-.7-.5-1-.7-.1-2.3-.2-4.5.1-6.8 0-.3-.4-.2-.4 0-.3 2.1-.4 4.2-.2 6.4-.6-.4-1.2-.9-1.7-1.4-.1-2.1-.1-4.2.3-6.4 0-.2-.2-.3-.3-.1-.5 2-.7 4-.6 6-.4-.4-.8-.8-1.2-1.1 0-1-.1-2.1 0-3.1.1-1.4.4-2.8.8-4.1.1-.2-.2-.3-.3-.1-.7 2-1.3 4.5-1 6.7-.4-.4-.7-.8-1.1-1.1-.2-1 .2-3.2.2-3.5.2-1.4.5-2.7 1-4 .1-.2-.2-.2-.3-.1-.8 2.3-1.3 4.7-1.4 7.1-.3-.3-.5-.6-.8-1 .1-.1.1-.2.1-.2.1-.1-.1-.3-.2-.2.2-2.9.8-5.8 1.8-8.5.1-.2-.2-.3-.3-.1-1 2.7-1.7 5.5-1.9 8.3-.3-.5-.6-.9-.9-1.4.7-2.8 1.1-5.7 2.1-8.5.1-.3-.3-.4-.4-.1-.9 2.5-1.8 5.3-2 8-.4-.6-.7-1.2-1-1.8.7-3 1.1-5.8 2.5-8.6.1-.2-.2-.4-.3-.2-1.3 2.4-2.4 5.3-2.6 8.1-.3-.8-.6-1.6-.8-2.2 1.2-2.8 1.9-5.8 3.1-8.6.1-.2-.2-.4-.3-.2-1.2 2.5-2.6 5.3-3.1 8-.3-1.4-.4-2.3-.4-2.6 1.2-2.5 2.1-5.1 3.3-7.6.5-.6 1.1-1.2 1.8-1.7 3.3-2.3 8.9-4.4 11.5-5.3 0 1-.1 2.4-.1 3.9-1.9.7-3.5 2.3-4.5 4.5-1.1 2.5-1.3 5.3-.5 7.1 1.1 2.4 5.2 5.4 8.7 7.8.3.2.5.3.6.4l1.5 1.8c2 2.3 4 4.8 7.6 7 5.3 3.3 8.4 8.2 8.4 8.2.2.3.5.5.9.5.3 0 .7-.2.8-.5 0 0 1.1-1.8 6-5.1.8-.5 1.5-1 2.2-1.4 3.2-2.1 5.4-3.5 7.8-6.2.2 0 .4-.1.5-.3.1-.1 5.5-6.1 8.3-7.9 3.5-2.4 3.9-5.5 3.3-9.8-.6-4.3-5-5.9-6.5-6.3-.2-1.3-.3-2.4-.4-3.2.5 0 1.2 0 1.9.2 1.4.5 4.3 2.6 6.8 6.6.6.9 1.1 1.8 1.5 2.6 0 0 0 .1.1.1l-.7-.7c-.1-.1-.3.1-.2.2.7.8 1.3 1.7 2 2.5v.1s.3 1.1.3 2.9c-.5-.8-1.1-1.6-1.4-2.5-.1-.2-.4-.1-.4.1.4 1.2.9 2.4 1.8 3.3 0 .3 0 .7-.1 1.1-.5-.7-1.1-1.3-1.5-1.9-.1-.2-.5 0-.3.2.5.7.9 1.4 1.4 2.1.1.2.2.3.3.5-.1.6-.2 1.2-.3 1.9-.5-.6-1-1.2-1.4-1.8-.1-.2-.4.1-.3.2.5.7 1 1.6 1.6 2.3-.1.5-.3 1.1-.6 1.7-.2-.4-.4-.9-.5-1.3-.1-.2-.5-.1-.4.1.2.6.4 1.4.6 2.1-.2.5-.5 1.1-.9 1.6-.1-.3-.1-.6-.1-.9 0-.3-.4-.3-.4 0 0 .5.1 1.1.1 1.6-.4.5-.8 1.1-1.2 1.6-.1-.6-.2-1.3-.3-1.9 0-.2-.4-.2-.4.1.1.8.1 1.6.2 2.3-.4.4-.8.9-1.2 1.3 0-.8-.1-1.5-.2-2.3 0-.3-.4-.3-.4 0 0 .9-.1 1.9 0 2.9-.3.3-.6.6-.9.8 0-.2 0-.5-.1-.7 0-.8-.1-1.5-.1-2.2 0-.3-.4-.3-.4 0 0 .8 0 1.5.1 2.2v1.2c-.4.4-.9.7-1.3 1.1 0-.2-.1-.4-.1-.7 0-.6 0-1.1.1-1.7 0-.3-.3-.4-.4-.1-.2.9-.4 2-.1 2.9-.3.3-.7.5-1 .8 0-.4-.1-.8-.1-1.2 0-.3-.5-.3-.5 0v1.6c-.4.3-.7.5-1.1.8 0-.4-.1-.9-.1-1.3 0-.3-.5-.3-.5 0 0 .6 0 1.1.1 1.6-.4.3-.8.5-1.1.7v-1.8c0-.3-.4-.3-.4 0 0 .6-.1 1.1-.1 1.7v.5c-.4.2-.7.4-1.1.6v-1.4c0-.3-.4-.2-.4 0-.1.5-.1 1.1-.1 1.6-.2.1-.5.2-.7.3-.1 0-.1 0-.1.1 0-.4.1-.7.1-1.1 0-.2-.4-.2-.4 0-.1.4-.1.8-.2 1.3-.3.1-.7.3-1 .4v-1.3c0-.2-.4-.2-.4 0 0 .5-.1 1-.2 1.5-.5.2-1 .4-1.4.5v-1c0-.3-.4-.3-.4 0 0 .4-.1.8-.1 1.2-.3.1-.6.2-.8.3 0-.4.1-.7.1-1.1 0-.2-.4-.3-.4-.1-.1.4-.1.9-.2 1.3-.2.1-.4.1-.4.1-.5.2-.8.7-.7 1.2.1.4.5.7 1 .7h.3c.1 0 1.5-.5 4.4-1.6v.1c0 .2.3.1.3 0s0-.1.1-.2c.4-.1.7-.3 1.1-.4 3.7-1.5 13.6-8.3 16.3-15 1.5-3.6 1.7-6.9 1.6-9 .4.2.8.4 1.2.4 1.4.2 5 4.6 5.8 7.4-.1 0-.2.1-.2.2.3 3.2.1 6.4.2 9.5-.2.2-.4.5-.6.7v-8.7c0-.2-.4-.2-.4 0-.1 3.1-.2 6.2-.2 9.3l-.5.5c0-2.4-.3-4.8-.4-7.2 0-.2-.4-.3-.4 0 .1 2.6-.1 5.2.2 7.8-.2.1-.4.3-.5.4.1-2 0-4.1-.1-6.1 0-.2-.4-.2-.4 0-.1 2.2-.4 4.5-.3 6.7-.2.2-.5.3-.7.5.2-2 .1-4 0-6 0-.2-.4-.2-.4 0 0 2.1-.2 4.3-.3 6.4-.4.2-.9.5-1.4.7.2-1.9 0-3.9 0-5.8 0-.3-.4-.3-.4 0-.1 2-.3 4.1-.2 6.1-.4.2-.8.4-1.3.6.2-1.3.2-2.7.3-4 0-.3-.4-.3-.4 0-.2 1.4-.5 2.9-.6 4.3-.4.2-.9.4-1.3.5.2-1.4.2-2.9.6-4.3.1-.3-.4-.4-.4-.1-.3 1.4-.8 3.1-.9 4.7-.5.2-.9.3-1.4.5.1-1.2 0-2.6.1-3.8 0-.3-.4-.3-.4 0-.1 1.2-.4 2.7-.3 4-.6.2-1.3.4-1.9.7 0-.4 0-.9.1-1.3.1-.9.3-1.7.6-2.5.1-.2-.3-.3-.4-.1-.5 1.2-1 2.7-1 4.1l-.9.3v-.1c.1-.7.1-1.4 0-2.1 0-.3-.5-.3-.5 0 0 .7 0 1.3-.1 2 0 .1-.1.3-.1.5-.4.1-.8.3-1.2.4.1-.6.1-1.2.1-1.8 0-.3-.4-.3-.5 0-.1.6-.2 1.3-.3 2-.5.1-1 .3-1.5.5v-1c0-.3-.5-.3-.4 0v1.2c-.5.2-1 .3-1.5.5.1-.5.3-1.1.4-1.6.1-.3-.3-.4-.4-.1-.2.6-.4 1.3-.6 1.9-.4.1-.8.2-1.2.4.1-.6.2-1.1.3-1.6.1-.3-.4-.4-.4-.1-.2.6-.4 1.3-.5 1.9-.2.1-.4.1-.6.2.1-.4.2-.9.4-1.3.1-.2-.3-.4-.4-.1-.2.5-.4 1-.6 1.6-.2.1-.3.1-.5.1 0-.2.1-.4.1-.6.1-.2-.3-.3-.3-.1-.1.3-.2.5-.3.8-.5.1-.9.3-1.3.4 0-.1-.2-.2-.3 0 0 .1-.1.1-.1.1-.8.2-1.6.4-2.2.6-1.6.4-2.7.8-3.1.9-.3.1-1.2.2-2.4.2-.2-1.3-.6-2.7-1.5-4.8-.2-.5-.8-.7-1.3-.5s-.7.8-.5 1.3c.8 1.7 1.1 2.9 1.3 3.9H101c-.3-.4-.6-.7-1-1-.2-.2-.5.1-.3.3l.7.7h-1.2c-.2-.2-.4-.5-.6-.7-.4-.6-.7-1.2-.9-1.9-.1-.3-.5-.2-.4.1.2.8.6 1.7 1.1 2.5-.4 0-.9 0-1.3-.1-.1-1.8-.1-3.5-.1-4.4 0-.6-.4-1-1-1s-1 .4-1 1c0 .4 0 2.2.1 4.3h-.2c-.3-.4-.7-.8-.9-1.3-.4-.7-.6-1.5-.7-2.3 0-.2-.4-.3-.4 0 .1 1.1.4 2.6 1.2 3.5-.5 0-.9-.1-1.4-.1-.2-.4-.5-.9-.7-1.3-.3-.7-.5-1.5-.5-2.3 0-.2-.4-.3-.4 0 0 1.1.3 2.6 1 3.6-.3 0-.5 0-.8-.1-.2-.6-.7-1.1-.9-1.7-.3-.7-.4-1.4-.4-2.1 0-.3-.4-.3-.4 0-.1 1.1.2 2.9 1.1 3.8-.4 0-.8-.1-1.3-.1-.3-.6-.8-1.2-1.1-1.8-.3-.8-.5-1.6-.5-2.4 0-.3-.4-.3-.4 0 0 1.3.3 3.1 1.3 4.1-.6-.1-1.2-.1-1.8-.2-.3-.4-.5-.9-.7-1.4-.3-.8-.4-1.6-.5-2.4 0-.3-.5-.3-.4 0 0 1.2.3 2.6.9 3.7-.4-.1-.9-.1-1.3-.2-.2-.4-.5-.9-.7-1.4-.3-.8-.5-1.5-.5-2.3 0-.3-.4-.3-.4 0 .1 1.2.3 2.5 1 3.6-.5-.1-.9-.1-1.3-.2-.4-.6-.8-1.1-1-1.7-.4-.8-.6-1.7-.8-2.6 0-.2-.4-.1-.3.1.1 1.3.5 3 1.3 4.1-.7-.1-1.3-.3-1.8-.4-1-1.4-1.8-2.7-2.2-4.5-.1-.2-.3-.1-.3.1.2 1.4.8 2.9 1.7 4.1-.2-.1-.5-.2-.6-.3-.3-.2-.8-.4-1.3-.6-.7-1.5-1.4-3-1.8-4.7-.1-.3-.5-.2-.4.1.2 1.4.6 2.9 1.3 4.1-.3-.1-.7-.3-1-.4-.8-1.6-1.6-3-1.9-4.9 0-.2-.4-.2-.4.1.2 1.5.6 3.2 1.4 4.5-.3-.1-.6-.2-.9-.4-.4-.8-.8-1.5-1.1-2.2-.4-1.1-.7-2.2-.8-3.3 0-.3-.5-.2-.5.1.2 1.6.6 3.6 1.5 5.1l-1.5-.6c-.3-.7-.7-1.3-1-2-.4-.9-.7-1.9-.9-2.9-.1-.3-.5-.2-.4.1.3 1.4.7 3.2 1.6 4.5-.2-.1-.4-.1-.5-.2-.5-.2-1-.4-1.6-.6-.9-1.5-1.5-3-1.8-4.8 0-.2-.4-.2-.4.1 0 1.5.5 3.1 1.3 4.4-.7-.3-1.4-.6-2.1-.8-.8-1.7-1.5-3.4-1.7-5.3 0-.3-.4-.3-.4 0 .1 1.7.5 3.5 1.3 5-.4-.2-.8-.3-1.2-.5-.5-.8-1-1.5-1.4-2.4-.5-1.2-.8-2.5-.9-3.8 0-.3-.4-.3-.4 0 .1 1.9.6 4.1 1.7 5.8-.6-.3-1.3-.5-1.9-.8-1.2-2.1-2.1-4-2.2-6.6 0-.3-.4-.3-.4 0 0 2.1.5 4.4 1.6 6.1-.5-.2-1.1-.5-1.6-.7-1.3-2.3-2.1-4.5-2-7.2 0-.3-.4-.3-.4 0-.2 2.3.3 4.8 1.6 6.8-.3-.2-.7-.3-1-.5-1.3-2.7-2.2-5.2-2.2-8.2 0-.3-.4-.3-.4 0-.1 2.7.5 5.6 1.9 7.9-.7-.4-1.3-.7-1.9-1-1.6-2.4-2.2-4.8-2-7.9v-.1c.8-1.9 1.1-2.7 1.9-4.7zm-3.3 5.3c-.3 2.1.2 4.4 1.3 6.3-.3-.2-.6-.4-.8-.6-.6-.7-1.5-3.7-.5-5.7zM33.2 183c.3.9.8 2.5 1.4 4.6-.7-.3-1.5-.5-2.1-.9-.7-.4-1.3-1-1.8-1.6.5-.7 1.4-1.4 2.5-2.1zm-2.8 2.5c1.1 1.3 2.7 2.5 4.4 2.6.2.8.5 1.7.7 2.7l-.1-.1c-2.4-.9-4.4-1.8-6.2-3.4l1.2-1.8zm-6.2 27.4c3.5 2.2 7.7 4.1 11.8 4.8H24.9c-.3-1.6-.5-3.2-.7-4.8zm12.9 4.8c0-.1 0-.2-.1-.3-4.5-1.5-8.6-2.9-12.8-5.1-.1-.9-.1-1.9-.2-2.8 4.6 2.7 10 5.1 15.2 6.1.2 0 .3-.2.1-.3-5.1-2.2-10.2-4.2-15.3-6.5v-2.9c3.5 2.5 7.6 4.5 11.9 5.4.3.1.4-.4.1-.5-4.2-1.6-8.2-3.2-12-5.5 0-1.2.1-2.3.3-3.4 2.9 1.7 5.9 3.1 9.1 4 .3.1.4-.4.1-.5-3.1-1.3-6.2-2.6-9.2-4.1.1-.9.3-1.8.4-2.6 3 2.4 6.6 4.4 10.4 5 .2 0 .3-.2.1-.3-3.7-1.5-7.1-3.1-10.4-5.2l.6-2.4c2.8 1.9 5.8 3.8 9 4.7.2.1.3-.2.1-.3-3-1.7-6-3.1-8.9-4.9.3-.9.5-1.7.9-2.5 2.4 1.8 5.3 3.1 8.3 3.6.3 0 .4-.3.1-.4-2.9-1-5.6-2.2-8.2-3.8.2-.6.5-1.2.8-1.8 2.2 2 4.9 3.6 7.8 3.9.2 0 .2-.2 0-.3-2.8-1.1-5.3-2.2-7.6-4.1.4-.7.7-1.4 1.1-2.1 1.7 1.8 4.1 3.1 6.5 3.3.1 0 .1 0 .2-.1 1.4 5.9 3.1 14.8 4.1 26.7h-2.5zm4.5 0C39.9 196.6 36 184.9 35 182c2.2-1.2 4.9-2.3 7-2.9 3.5-1 6.7-2.9 8.1-3.7 3.3 2.5 11.8 5.9 18.6 8.6 3.8 1.5 7.2 2.8 8.6 3.6 2.4 1.3 10.3 2.2 17.6 2.6.2 1.5.4 2.9.7 3.8.7 1.9.5 3.3-.2 7.5l-.3 1.8c-.3 1.9-.7 3.4-1.1 4.8-.7 2.6-1.3 4.6-.2 6.8.2.4.5.6.9.6.1 0 .3 0 .4-.1.5-.2.7-.8.5-1.3-.8-1.6-.3-3 .3-5.4.4-1.3.8-3 1.2-5l.3-1.8c.7-4.3 1-6.1.1-8.5-.2-.6-.4-1.8-.6-3 2.3.1 4.5.2 6.4.2 0 .5-.1 1.1-.1 1.7-.1.7-.1 1.5-.2 2.4-.2 4.4.8 10 .9 10.9l-.2 9c0 .6.4 1 1 1 .5 0 1-.4 1-1l.2-9.1v-.2c0-.1-1.1-6-.9-10.5 0-.9.1-1.7.2-2.4s.1-1.3.1-1.9c1.5 0 2.5-.1 2.9-.3.4-.1 1.5-.4 3-.9 2.4-.7 5.7-1.6 9.2-2.7.1.1.3.1.4 0l.1-.1c6.8-2.1 14.4-4.6 17.7-6.8 4.4-2.9 5.9-5.5 6.4-7 3 1 8.4 2.9 9.8 3.8 1.6 1 9.1 6.4 11.1 7.8-.6 3.2-3.3 18.3-2.9 33.6l-121.4-.2zm123.3-1.3c.9.5 1.8.9 2.8 1.3H165c0-.4 0-.9-.1-1.3zm4.4 1.3c-1.4-.7-2.9-1.4-4.4-1.9v-3.1c2.8 2 6 3.5 9.3 4 .3 0 .4-.4.1-.4-3.4-1.1-6.5-2.3-9.4-4.2 0-1.1.1-2.1.1-3.2 2.6 1.2 5.3 2.4 8 3.2.2.1.4-.3.2-.4-2.6-1.3-5.4-2.4-8.1-3.4.1-1.1.1-2.1.2-3.1 2.3 1.5 4.8 2.8 7.4 3.6.2.1.4-.3.2-.4-2.6-1.2-5.1-2.3-7.6-3.8.1-.9.1-1.8.2-2.7 1.8 1.7 4.7 2.7 7.1 2.8.2 0 .3-.3.1-.4-1.4-.4-2.8-.8-4.2-1.4-1-.5-1.9-1.1-2.9-1.7.1-.9.2-1.7.2-2.6 2.1 1.2 4.2 2.5 6.4 3.3.2.1.3-.2.1-.3-2-1.4-4.3-2.4-6.5-3.4.1-1.1.2-2.1.4-3 1.6 1.1 3.2 2.2 4.9 3.1.2.1.3-.1.1-.2-1.6-1.2-3.3-2.3-5-3.2.3-2.3.6-4.3.8-6 1 .9 2 1.8 3.1 2.5.2.1.4-.1.2-.3-.9-1-2.1-1.9-3.2-2.7.2-1.4.4-2.5.6-3.2 1.4.7 4.1 2.4 6 6.6 2.5 5.4 2.8 21.9 2.9 26.1l-7.3-.2zm-2.3-25.9c-.3-.1-.4.2-.2.4 1.2.9 2.5 1.9 3.8 2.4.2.1.5-.2.3-.4-1.2-1-2.6-1.8-3.9-2.4zm-87.4-12.2c-.1-.8-.4-1.6-.6-2.5-.2-1-.2-1.9-.1-2.9 0-.3-.4-.3-.4 0-.2 1.7-.1 4 .8 5.5.1.2.3.1.3-.1zm1.9.9c.1-1.6-.3-3.4-.5-5 0-.3-.4-.3-.4 0 .1 1.7.1 3.5.5 5.1.1.2.4.1.4-.1zm1.2.1c.1-1.3-.3-2.7-.5-4.1 0-.2-.3-.1-.3.1.1 1.3.1 2.8.5 4.1 0 .2.3.1.3-.1zm2 1c-.2-1.5-.8-2.8-1-4.3 0-.3-.4-.3-.4 0 .1 1.4.3 3.2 1.1 4.4.1.2.3.1.3-.1zm2.1.2c.1.1.2-.1.1-.2-.3-.3-.6-.6-.8-1-.2-.4-.4-.8-.4-1.2 0-.3-.5-.2-.4.1 0 .9.5 2 1.5 2.3zm2.4.7c.1.1.3 0 .3-.2-.4-.9-1.1-1.8-1.7-2.6-.2-.2-.6 0-.4.2.6.9 1.1 1.8 1.8 2.6zm19 .3c.2-.5.2-1.2.2-1.8 0-.2-.4-.2-.4 0-.1.6-.3 1.2-.1 1.8.1.1.3.1.3 0zm1.3-.4c.2-.4.2-.8.3-1.2.1-.5.2-.9.3-1.4.1-.3-.3-.4-.4-.1l-.3 1.5c-.1.4-.2.8-.1 1.2-.1.1.1.2.2 0z" fill="#000000" stroke-width="none" opacity="1"></path></g><g id="svga-group-head" transform="matrix(1,0,0,1,0,0)"><g id="svga-group-ears-left-move" transform="matrix(1,0,0,1,0,0)"><g id="svga-group-ears-left" transform="matrix(1,0,0,1,0,0)"><path id="SvgjsPath33381" d="M60.8 86.8s-2.1-5.1-4.3-8.3c-2.2-3.2-5.5-7.6-7.6-8.7s-3.6-.4-3 2.6 3 12.6 3.6 15.6c.7 3 2.2 9.4 4.2 13.6 1.9 4.2 3.1 6.1 5.2.5 2.1-5.7 3.4-11.8 1.9-15.3z" fill="#ffffff" stroke-width="none" opacity="1"></path><path id="SvgjsPath33382" d="M52.9 102c-2-4.4-3.6-11.1-4.2-13.8-.2-1-.7-2.9-1.2-5-.9-3.9-2.1-8.7-2.4-10.7-.4-2.2.2-3.3.9-3.7.5-.4 1.6-.8 3.5.2 2.3 1.2 6.6 3.9 8.9 7.3 2.2 3.3 3.3 10 3.4 10.2 1.7 4.1 1.3 10.3-.6 15.3-1 2.8-3.3 4.7-4.5 4.8h-.1c-1.5-.1-2.5-1.9-3.7-4.6zm2.9-23.1c-3-4.5-5.7-7.6-7.2-8.4-.9-.5-1.4-.5-1.6-.3-.2.2-.4.8-.2 2 .4 1.9 1.5 6.7 2.4 10.6.5 2.1.9 4 1.2 5 .6 2.6 2.2 9.2 4.1 13.4.4.9 1.5 3.3 2 3.5.1 0 .6-.3 1.6-2.9 2.4-6.6 3.1-11.8 2-14.7-.1-.1-2.2-5.1-4.3-8.2z" fill="#000000" stroke-width="none" opacity="1"></path><path id="SvgjsPath33383" d="M47.6 73.1c3.5 4 6.5 10.6 7 16.9 0 .4-.4.5-.5.1-.1-.6-.2-1.1-.4-1.7-.3-.8-.9-.9-1.6-.2.1.5.1 1 .3 1.4.2.6.4 1.3.6 1.9.6 1.5 1.3 2.6 2 3.9.1.3 0 .7-.3.5-1.7-1.4-3.4-5.4-3.4-8.2 0-.8.3-1.6.9-1.7.4 0 .7.1.9.4-1.3-4.9-3-8.9-5.8-13 0-.2.1-.5.3-.3z" fill="#000000" stroke-width="none" opacity="1"></path></g></g><g id="svga-group-ears-right-move" transform="matrix(1,0,0,1,0,0)"><g id="svga-group-ears-right" transform="matrix(1,0,0,1,0,0)"><path id="SvgjsPath33384" d="M139.2 86.8s2.1-5.1 4.3-8.3c2.2-3.2 5.5-7.6 7.6-8.7 2.1-1.1 3.6-.4 3 2.6-.6 3-2.9 12.7-3.6 15.7-.7 3-2.2 9.4-4.2 13.6-1.9 4.2-3.1 6.1-5.2.5-2.1-5.8-3.4-11.9-1.9-15.4z" fill="#ffffff" stroke-width="none" opacity="1"></path><path id="SvgjsPath33385" d="M143.5 106.5s-.1 0 0 0c-1.3 0-3.5-1.9-4.6-4.8-1.8-5-2.3-11.2-.6-15.3.1-.2 1.2-6.9 3.4-10.2 2.3-3.4 6.6-6.1 8.9-7.3 1.9-1 3-.5 3.5-.2.6.5 1.3 1.5.9 3.7-.4 1.9-1.5 6.8-2.4 10.7-.5 2.1-.9 4-1.2 5-.6 2.7-2.2 9.4-4.2 13.8-1.3 2.8-2.3 4.6-3.7 4.6zM140 87.1c-1.2 2.8-.5 8 2 14.7 1 2.6 1.5 2.9 1.6 2.9.5-.2 1.6-2.6 2-3.5 1.9-4.2 3.5-10.8 4.1-13.4.2-1 .7-2.9 1.2-5 .9-3.9 2.1-8.7 2.4-10.6.2-1.2 0-1.8-.2-2-.2-.1-.7-.1-1.5.3-1.5.8-4.2 4-7.2 8.4-2.3 3.1-4.4 8.1-4.4 8.2z" fill="#000000" stroke-width="none" opacity="1"></path><path id="SvgjsPath33386" d="M152.4 73.1c-3.5 4-6.5 10.6-7 16.9 0 .4.4.5.5.1.1-.6.2-1.1.4-1.7.3-.8.9-.9 1.6-.2-.1.5-.1 1-.3 1.4-.2.6-.4 1.3-.6 1.9-.6 1.5-1.3 2.6-2 3.9-.1.3 0 .7.3.5 1.7-1.4 3.4-5.4 3.4-8.2 0-.8-.3-1.6-.9-1.7-.4 0-.7.1-.9.4 1.3-4.9 3-8.9 5.8-13 0-.2-.1-.5-.3-.3z" fill="#000000" stroke-width="none" opacity="1"></path></g></g><g id="svga-group-faceshape-wrap" transform="matrix(1,0,0,1,0,0)"><g id="svga-group-faceshape-single"><path id="SvgjsPath33453" d="M143.8 67.9c-.1-3.3-.3-8.9-1.4-14.2-2.3-11.4-15.1-28.8-42.4-28.8S63.6 38.3 59.5 48.2c-2.5 6.2-3.2 15.2-3.4 19.7 0 0 2.7 50.9 7.7 59.6 8.7 15.2 57.9 15.9 69.6 5.2 7.4-6.7 10.5-45 10.4-64.8z" fill="#ffffff" stroke-width="none" opacity="1"></path><path id="SvgjsPath33454" d="M102.1 141.8c-6.1 0-12.2-.4-17.7-1.3-8.9-1.4-17.6-5.7-21.5-12.5-5.1-8.9-7.9-58-7.9-60.2.2-4.8.9-13.8 3.4-20.1 6.6-16.2 20.1-24 41.5-24 12.3 0 23.2 3.6 31.3 10.4 6.3 5.2 10.9 12.5 12.2 19.3 1.1 5.5 1.3 11.4 1.4 14.4v4.1c.2 28-4.1 55.4-10.7 61.5-5.7 5.4-17 8.4-32 8.4zM57.3 67.9c0 18 3.7 52.4 7.6 59 2.7 4.7 7.9 9.6 19.9 11.4 20.3 3.1 41.1-.2 48-6.5 6.4-5.9 10.1-40.8 9.9-59.8v-4.1c0-3-.3-8.7-1.4-14-1.3-6.4-5.6-13.1-11.5-18-7.7-6.5-18-9.9-29.9-9.9-20.3 0-33.2 7.4-39.4 22.6-2.3 5.9-3 14.6-3.2 19.3z" fill="#000000" stroke-width="none" opacity="1"></path></g></g><g id="svga-group-mouth-single-move" transform="matrix(1,0,0,1,0,0)"><g id="svga-group-mouth-single" transform="matrix(1,0,0,1,0,0)"><path id="SvgjsPath33341" d="M116.39 119.06c-.48.32-.96.58-1.44.79-4.68-1.1-8.95-3.9-13.82-4.09-5.63-.22-9.84 4.92-15.37 4.6-.54-.31-1.06-.72-1.54-1.23-.51-.55-1.33.27-.82.82 3.99 4.34 10.34 1.66 15.19.91 6.23-.96 12.57 3.08 18.39-.79.62-.42.04-1.43-.59-1.01zm-4.57 1.54c.2-.27.41-.54.61-.81a.3.3 0 0 0 .04-.08l.63.21-.46.58c-.27.04-.54.08-.82.1zm-1.07.03c.27-.38.59-.72.96-1.02.05-.04.08-.09.09-.14.04.01.08.03.12.04-.28.37-.56.75-.85 1.12h-.32zm-1.27-.06c.31-.53.63-1.06.94-1.59.01-.01.01-.02.01-.03.27.1.54.21.8.31-.46.39-.86.84-1.17 1.35-.2-.01-.39-.02-.58-.04zm-1.55-.18c.45-.55.9-1.1 1.34-1.65.06-.07.08-.15.07-.22l.54.21-1.05 1.77c-.29-.03-.59-.07-.9-.11zm-1.34-.22c.39-.61.79-1.22 1.18-1.82.2-.32-.3-.61-.5-.29-.43.67-.87 1.34-1.3 2.01-.27-.05-.54-.09-.81-.14.4-.77.91-1.47 1.54-2.09.1-.09.1-.21.06-.3.71.25 1.41.52 2.11.8-.53.65-1.06 1.3-1.59 1.96-.24-.05-.47-.09-.69-.13zm-3.06-.49c.54-.75 1.09-1.5 1.63-2.24.22-.3-.28-.59-.5-.29-.6.82-1.19 1.64-1.79 2.46-.33-.04-.66-.06-1-.08.57-.97 1.24-1.87 2.02-2.68.04-.04.06-.09.07-.13.79.18 1.58.42 2.37.68a.21.21 0 0 0-.06.04c-.72.7-1.29 1.51-1.72 2.4-.33-.06-.68-.11-1.02-.16zm10.17.43c.1.03.2.06.31.09-.16.05-.32.09-.48.13.05-.08.11-.15.17-.22zm-18.15.21c1.01-1.34 2.14-2.58 3.34-3.75a.19.19 0 0 0 .07-.11c.34-.06.68-.1 1.02-.12l-.02.02c-.91 1.19-1.82 2.39-2.73 3.58-.55.12-1.11.25-1.68.38zm-1.9.43c.88-1.12 1.79-2.22 2.64-3.37.05-.06.06-.12.05-.18.53-.21 1.08-.39 1.64-.54-1.19 1.2-2.31 2.47-3.29 3.85-.35.09-.69.17-1.04.24zm-1.92.35c.63-.79 1.28-1.57 1.9-2.36.08-.1.08-.2.04-.3.57-.29 1.14-.57 1.72-.83-.86 1.11-1.75 2.2-2.6 3.32-.36.06-.71.12-1.06.17zm-1.48.15c.4-.51.81-1.02 1.21-1.53a.32.32 0 0 0 .07-.22c.41-.19.81-.39 1.22-.6-.61.77-1.24 1.52-1.84 2.29-.22.03-.44.05-.66.06zm-.92.01c.21-.32.39-.66.61-.98.03-.04.04-.08.05-.12.19-.07.38-.15.57-.23-.35.44-.7.88-1.05 1.33h-.18zm-1.07-.08c.09-.13.17-.26.26-.39.04-.06.05-.12.04-.17.2-.05.39-.11.59-.17-.16.27-.32.53-.51.77a4.04 4.04 0 0 1-.38-.04zm-.44-.4c-.06.1-.13.19-.19.29-.21-.05-.43-.11-.63-.17.28-.03.55-.07.82-.12zm10.27-1.01c.79-1.04 1.58-2.08 2.38-3.12.1-.13.06-.26-.04-.34.44-.01.87 0 1.3.03-.73 1.07-1.47 2.14-2.2 3.2-.47.06-.95.14-1.44.23zm2.18-.27c.66-.95 1.31-1.91 1.97-2.86.06-.08.06-.17.03-.24.36.04.72.1 1.08.17-.83.89-1.54 1.86-2.13 2.91-.32 0-.63.01-.95.02z" fill="#000000" stroke-width="none" opacity="1"></path><path id="SvgjsPath33342" d="M109.44 123.87c-5.5 2.1-11.36 2.23-16.95.38-.36-.12-.51.44-.15.56 5.68 1.89 11.67 1.76 17.26-.38.34-.13.19-.69-.16-.56z" fill="#000000" stroke-width="none" opacity="1"></path></g></g><g id="svga-group-eyes-left-move" transform="matrix(1,0,0,1,0,0)"><g id="svga-group-eyes-left" transform="matrix(1,0,0,1,0,0)"><g id="svga-group-eyesback-left"></g><g id="svga-group-eyesiriswrapper-left"><g id="svga-group-eyesiriscontrol-left" transform="matrix(1,0,0,1,0,0)"><g id="svga-group-eyesiris-left" transform="matrix(1,0,0,1,0,0)"><path id="SvgjsPath33495" d="M75.2 84.7c-1.5 1.9-1.3 4.5.4 6 1.8 1.7 4.9 2.1 7.1.1 1.1-1.1 1.8-2.7 1.5-4.1-.1-.5-.3-1-.6-1.4-.2-.6-.5-1.1-1-1.5-2.1-1.8-5.6-1.4-7.4.9z" fill="#ffffff" stroke-width="none" opacity="1"></path><path id="SvgjsPath33496" d="M84.4 86.7c-.1-.5-.3-1-.6-1.5-.2-.6-.6-1.1-1.1-1.6-1-.9-2.3-1.4-3.8-1.2-1.6.1-3.1.9-4 2.1-1.6 2-1.4 4.8.4 6.4 1 .9 2.5 1.5 3.9 1.5 1.2 0 2.5-.4 3.5-1.4 1.4-1.2 2.1-2.9 1.7-4.3zm-.6-.1c-.7.1-1.4.2-2 .2 0-.1-.1-.2-.1-.2.4-.1.8-.3 1.2-.5.2-.1.4-.1.6-.3.1.3.2.5.3.8zm-.9-1.8.3.6v.1c-.6.3-1.2.5-1.8.8-.1-.1-.1-.2-.2-.3.7-.3 1.2-.8 1.7-1.2zm-.6-.7c.2.2.3.3.4.5-.6.4-1.2.8-1.6 1.3l-.1-.1c-.1-.1-.2-.1-.3-.2.2-.3.5-.7.7-1.1.1-.2.3-.4.5-.7.2.1.3.2.4.3zm-2.1.1c0-.4.1-.7.1-1.1.5.1.9.3 1.3.5-.2.2-.3.5-.5.7-.2.4-.5.7-.6 1.1-.1-.1-.3-.1-.4-.2.1-.3.1-.7.1-1zM79 83h.4c.2 0 .5 0 .7.1-.1.3-.1.6-.1 1 0 .3-.1.7-.1 1.1-.2 0-.4-.1-.6-.1 0-.3-.1-.7-.2-1 0-.4-.1-.7-.1-1.1zm-4.5 3.9c.7.2 1.5.4 2.2.3 0 .2-.1.5 0 .7-.7-.1-1.5 0-2.2 0v-1zm.1 1.3c.7-.1 1.5-.1 2.2-.1 0 .1.1.2.1.3-.4.1-.7.3-1.1.4-.3.1-.6.2-.9.4-.2-.3-.3-.6-.3-1zm.7 1.7c-.1-.1-.2-.3-.3-.4.3-.1.6-.3.9-.4.3-.1.7-.3 1-.4-.5.4-1.1.8-1.6 1.2zm.5.6-.3-.3c.6-.4 1.1-.8 1.6-1.2.1.1.1.2.2.2-.2.2-.4.5-.6.7-.2.3-.4.5-.6.8-.1-.1-.2-.2-.3-.2zm.5.4c.2-.3.4-.6.7-.8.2-.2.4-.4.6-.7.1.1.2.2.3.2-.2.2-.4.6-.5.8-.2.2-.4.5-.6.7-.2 0-.3-.1-.5-.2zm.8.4c.2-.2.3-.4.5-.6.2-.3.5-.6.6-1 .1 0 .2.1.3.1-.2.6-.3 1.2-.5 1.8-.4-.1-.7-.2-.9-.3zm1.1.4c.3-.5.5-1.2.5-1.8.2 0 .4.1.6.1-.1.6 0 1.2 0 1.8-.4 0-.8 0-1.1-.1zm1.4.1c0-.6 0-1.2-.1-1.8.2 0 .4 0 .6-.1.2.6.3 1.2.5 1.7-.4.1-.7.2-1 .2zm3.2-1.7c-.5-.2-.9-.6-1.3-.9 0 .1-.1.2-.1.3.3.3.7.7 1.1.9l-.2.2c-.2.2-.4.3-.6.4-.1-.2-.3-.5-.4-.7-.1-.2-.2-.3-.3-.5-.1 0-.2.1-.3.1.1.2.2.4.3.5.1.2.3.5.5.8-.3.2-.5.3-.8.4-.2-.6-.4-1.1-.6-1.7.1 0 .1 0 .2-.1-.2-.1-.3-.2-.3-.4-.8.3-1.7 0-2.3-.5-.4-.4-.6-.9-.6-1.4-.2-.2-.4-.4-.5-.6-.4-.1-.8-.1-1.1-.1-.3-.1-.6-.1-.9-.2.1-.4.2-.8.4-1.1.3.2.7.4 1 .5.2.1.4.2.5.3 0-.1 0-.3.1-.4-.2-.1-.3-.2-.5-.2-.3-.2-.6-.3-1-.4.1-.1.2-.2.3-.4.2-.2.4-.4.6-.7.1.2.4.4.6.6.1.2.3.3.4.4.1-.1.2-.1.3-.2l-.1-.1-.6-.6c-.1-.1-.2-.3-.3-.4.3-.2.6-.4.8-.5.1.3.3.6.4.8.1.2.3.5.5.7.2 0 .3.1.4.1l-.6-.9c-.1-.2-.2-.5-.4-.8.4-.2.8-.3 1.2-.3 0 .3.1.7.2 1.1.1.3.1.7.2 1-.2 0-.3.1-.5.1.2.1.3.2.4.4h.4c.5 0 1 .2 1.3.5.2.2.3.4.4.6.1.2.2.4.2.6.1.3 0 .7-.2 1 .2.1.3.2.3.4 0 0 0-.1.1-.1.2.2.6.4.9.5.2.1.5.3.8.4 0 .2-.1.4-.3.6zm.6-.8c-.2 0-.9-.4-1-.5-.2-.1-.3-.2-.5-.2 0 0-.1 0-.2-.1.1-.2.2-.4.2-.6.6.2 1.3.3 2 .3-.2.3-.3.7-.5 1.1zm.5-1.5c-.7-.1-1.3-.2-2-.3v-.4c.7 0 1.4-.1 2-.2v.9zm-3.1.4h.2c.4-1-.2-2.1-1.3-2.4-.2-.1-.4-.1-.6-.1.4.8 0 2-1.2 2h-.3c.1.6.4 1.2 1 1.5.4.2.9.2 1.4.1-.2-.5.1-1.1.8-1.1z" fill="#000000" stroke-width="none" opacity="1"></path></g></g></g><g id="svga-group-eyesfront-left"><path id="SvgjsPath33419" d="M79 72.1c-8.2 0-14.8 6.6-14.8 14.8s6.6 14.8 14.8 14.8 14.8-6.6 14.8-14.8c0-8.1-6.6-14.8-14.8-14.8zm10.3 18.2c-.6.3-5.5 1.7-11.3 1.2s-9.2-1.6-9.2-1.6-2.1-.7-1.9-1.5 2.3-3.5 5.7-4.5 6.8-1 9.5-.3c2.6.6 6.2 2.8 7.3 4.1 1 1.3.5 2.2-.1 2.6z" fill="#ffffff" stroke-width="none" opacity="1"></path><path id="SvgjsPath33420" d="M90 88.1c-1.4-2.7-8.2-6.4-14.3-5.8-7.6.7-9.8 5.6-9.8 5.8-.1.3 0 .6.3.8.3.1.6 0 .8-.3.1-.2 2-4.4 8.9-5.1 5.8-.5 12 3.1 13.2 5.2.1.2.2.5.1.7-1.2 1.5-9.5 2.6-21.6-.5-.3-.1-.6.1-.7.4s.1.6.4.7c5.5 1.4 10.5 2.1 14.5 2.1 4.3 0 7.3-.7 8.3-1.9.1-.4.5-1-.1-2.1zm-2 3.6s-5 3.5-14.3 3.5c-.3 0-.6.3-.6.6s.3.6.6.6c9.7 0 14.8-3.6 15-3.7.3-.2.3-.6.1-.8-.1-.3-.5-.4-.8-.2zm-18.9 3.1c.3.1.6.1.8.1.1 0 .2-.2.1-.3-.6-.3-1.3-.5-1.9-.8s-1.2-.7-1.9-1c-.2-.1-.5.2-.2.4.5.4 1.2.9 1.9 1.2-.3-.1-.4.3-.2.4 1.5.9 3.5 1.7 5.3 1.9.2 0 .3-.2.1-.3-1.3-.6-2.6-1.1-4-1.6z" fill="#000000" stroke-width="none" opacity="1"></path></g></g></g><g id="svga-group-eyes-right-move" transform="matrix(1,0,0,1,0,0)"><g id="svga-group-eyes-right" transform="matrix(1,0,0,1,0,0)"><g id="svga-group-eyesback-right"></g><g id="svga-group-eyesiriswrapper-right"><g id="svga-group-eyesiriscontrol-right" transform="matrix(1,0,0,1,0,0)"><g id="svga-group-eyesiris-right" transform="matrix(1,0,0,1,0,0)"><path id="SvgjsPath33497" d="M117.2 84.7c-1.5 1.9-1.3 4.5.4 6 1.8 1.7 4.9 2.1 7.1.1 1.1-1.1 1.8-2.7 1.5-4.1-.1-.5-.3-1-.6-1.4-.2-.6-.5-1.1-1-1.5-2.1-1.8-5.5-1.4-7.4.9z" fill="#ffffff" stroke-width="none" opacity="1"></path><path id="SvgjsPath33498" d="M126.5 86.7c-.1-.5-.3-1-.6-1.5-.2-.6-.6-1.1-1.1-1.6-1-.9-2.3-1.4-3.8-1.2-1.6.1-3.1.9-4 2.1-1.6 2-1.4 4.8.4 6.4 1 .9 2.5 1.5 3.9 1.5 1.2 0 2.5-.4 3.5-1.4 1.4-1.2 2-2.9 1.7-4.3zm-.7-.1c-.7.1-1.4.2-2 .2 0-.1-.1-.2-.1-.2.4-.1.8-.3 1.2-.5.2-.1.4-.1.6-.3.1.3.2.5.3.8zm-.8-1.8.3.6v.1c-.6.3-1.2.5-1.8.8-.1-.1-.1-.2-.2-.3.6-.3 1.1-.8 1.7-1.2zm-.6-.7c.2.2.3.3.4.5-.6.4-1.2.8-1.6 1.3l-.1-.1c-.1-.1-.2-.1-.3-.2.2-.3.5-.7.7-1.1.1-.2.3-.4.5-.7.1.1.2.2.4.3zm-2.1.1c0-.4.1-.7.1-1.1.5.1.9.3 1.3.5-.2.2-.3.5-.5.7-.2.4-.5.7-.6 1.1-.1-.1-.3-.1-.4-.2 0-.3 0-.7.1-1zM121 83h.4c.2 0 .5 0 .7.1-.1.3-.1.7-.1 1.1 0 .3-.1.7-.1 1.1-.2 0-.4-.1-.6-.1 0-.3-.1-.7-.2-1 0-.5 0-.8-.1-1.2zm-4.4 3.9c.7.2 1.5.4 2.2.3 0 .2-.1.5 0 .7-.7-.1-1.5 0-2.2 0-.1-.3-.1-.6 0-1zm0 1.3c.7-.1 1.5-.1 2.2-.1 0 .1.1.2.1.3-.4.1-.7.3-1.1.4-.3.1-.6.2-.9.4-.1-.3-.2-.6-.3-1zm.7 1.7c-.1-.1-.2-.3-.3-.4.3-.1.6-.3.9-.4.3-.1.7-.3 1-.4-.5.4-1.1.8-1.6 1.2zm.5.6-.3-.3c.6-.4 1.1-.8 1.6-1.2.1.1.1.2.2.2-.2.2-.4.5-.6.7-.2.3-.4.5-.6.8-.1-.1-.2-.2-.3-.2zm.5.4c.2-.3.4-.6.7-.8.2-.2.4-.4.6-.7.1.1.2.2.3.2-.2.2-.4.6-.5.8-.2.2-.4.5-.6.7-.1 0-.3-.1-.5-.2zm.8.4c.2-.2.3-.4.5-.6.2-.3.5-.6.6-1 .1 0 .2.1.3.1-.2.6-.3 1.2-.5 1.8l-.9-.3zm1.1.4c.3-.5.5-1.2.5-1.8.2 0 .4.1.6.1-.1.6 0 1.2 0 1.8-.4 0-.7 0-1.1-.1zm1.4.1c0-.6 0-1.2-.1-1.8.2 0 .4 0 .6-.1.2.6.3 1.2.5 1.7-.4.1-.7.2-1 .2zm3.3-1.7c-.5-.2-.9-.6-1.3-.9 0 .1-.1.2-.1.3.3.3.7.7 1.1.9l-.2.2c-.2.2-.4.3-.6.4-.1-.2-.3-.5-.4-.7-.1-.2-.2-.3-.3-.5-.1 0-.2.1-.3.1.1.2.2.4.3.5.1.2.3.5.5.8-.3.2-.5.3-.8.4-.2-.6-.4-1.1-.6-1.7.1 0 .1 0 .2-.1-.2-.1-.3-.2-.3-.4-.8.3-1.7 0-2.3-.5-.4-.4-.6-.9-.6-1.4-.2-.2-.4-.4-.5-.6-.4-.1-.8-.1-1.1-.1-.3-.1-.6-.1-.9-.2.1-.4.2-.8.4-1.1.3.2.7.4 1 .5.2.1.4.2.5.3 0-.1 0-.3.1-.4-.2-.1-.3-.2-.5-.2-.3-.2-.6-.3-1-.4.1-.1.2-.2.3-.4.2-.2.4-.4.6-.7.1.2.4.4.6.6.1.2.3.3.4.4.1-.1.2-.1.3-.2l-.1-.1-.6-.6c-.1-.1-.2-.3-.3-.4.3-.2.6-.4.8-.5.1.3.3.6.4.8.1.2.3.5.5.7.2 0 .3.1.4.1l-.6-.9c-.1-.2-.2-.5-.4-.8.4-.2.8-.3 1.2-.3 0 .3.1.7.2 1.1.1.3.1.7.2 1-.2 0-.3.1-.5.1.2.1.3.2.4.4h.4c.5 0 1 .2 1.3.5.2.2.3.4.4.6.1.2.2.4.2.6.1.3 0 .7-.2 1 .2.1.3.2.3.4 0 0 0-.1.1-.1.2.2.6.4.9.5.2.1.5.3.8.4 0 .2-.2.4-.3.6zm.5-.8c-.2 0-.9-.4-1-.5-.2-.1-.3-.2-.5-.2 0 0-.1 0-.2-.1.1-.2.2-.4.2-.6.6.2 1.3.3 2 .3-.1.3-.3.7-.5 1.1zm.5-1.5c-.7-.1-1.3-.2-2-.3v-.4c.7 0 1.4-.1 2-.2v.9zm-3.1.4h.2c.4-1-.2-2.1-1.3-2.4-.2-.1-.4-.1-.6-.1.4.8 0 2-1.2 2h-.3c.1.6.4 1.2 1 1.5.4.2.9.2 1.4.1-.1-.5.1-1.1.8-1.1z" fill="#000000" stroke-width="none" opacity="1"></path></g></g></g><g id="svga-group-eyesfront-right"><path id="SvgjsPath33421" d="M121 72.1c-8.2 0-14.8 6.6-14.8 14.8s6.6 14.8 14.8 14.8 14.8-6.6 14.8-14.8c0-8.1-6.6-14.8-14.8-14.8zm9.4 17.7s-3.4 1.1-9.2 1.6c-5.8.5-10.8-.8-11.3-1.2-.6-.3-1.1-1.3 0-2.6s4.7-3.5 7.3-4.1c2.6-.6 6-.7 9.5.3 3.4 1 5.5 3.7 5.7 4.5.1.9-2 1.5-2 1.5z" fill="#ffffff" stroke-width="none" opacity="1"></path><path id="SvgjsPath33424" d="M133.3 88.1c-.1-.2-2.3-5.1-9.8-5.8-6.1-.6-12.9 3.2-14.3 5.8-.5 1-.2 1.7 0 2 1 1.2 4 1.9 8.3 1.9 4 0 9.1-.6 14.5-2.1.3-.1.5-.4.4-.7-.1-.3-.4-.5-.7-.4-12.1 3.2-20.4 2-21.6.5-.1-.2 0-.5.1-.7 1.1-2.2 7.3-5.8 13.2-5.2 6.9.6 8.8 4.9 8.9 5.1.1.3.5.4.8.3.2-.1.3-.4.2-.7zm-7.9 7.1c-9.3 0-14.2-3.5-14.3-3.5-.3-.2-.6-.1-.8.1-.2.3-.1.6.1.8.2.2 5.3 3.7 15 3.7.3 0 .6-.3.6-.6s-.3-.5-.6-.5z" fill="#000000" stroke-width="none" opacity="1"></path></g></g></g><g id="svga-group-facehighlight-single"></g><g id="svga-group-eyebrows-left-move" transform="matrix(1,0,0,1,0,0)"><g id="svga-group-eyebrows-left-rotate" transform="matrix(1,0,0,1,0,0)"><g id="svga-group-eyebrows-left" transform="matrix(1,0,0,1,0,0)"><path id="SvgjsPath33357" d="M86.9 72.3c.2-.2.5-.1.6.1.8 1.3 2.4 4.7 2.5 4.9.1.2 0 .6-.2.7-.1 0-.1.1-.2.1-.2 0-.3-.1-.4-.3 0 0-1.7-3.5-2.4-4.8-.2-.2-.1-.5.1-.7zm-3.1-.5c.2-.2.5-.2.6 0 .9 1 2.8 3.6 2.9 3.7.2.2.1.5-.1.7-.1.1-.2.1-.3.1-.1 0-.3-.1-.3-.2 0 0-1.9-2.6-2.8-3.6-.1-.2-.1-.5 0-.7zm-5.4-1c-.2-.2-.3-.5-.2-.7.1-.2.4-.3.6-.2 1.7 1.2 5.2 5.9 5.4 6.1.2.2.1.5-.1.7-.1.1-.2.1-.3.1-.1 0-.2-.1-.3-.2 0 .1-3.5-4.6-5.1-5.8zm-4.3-.8c.1-.2.4-.4.6-.2 1.3.7 5.3 3.4 5.4 3.5.2.1.3.5.2.7-.1.2-.2.2-.4.2-.1 0-.2 0-.2-.1 0 0-4.1-2.8-5.4-3.5-.2 0-.3-.3-.2-.6zm-.7 1.8c.1-.2.4-.3.6-.2.1.1 3.5 2.4 3.9 2.7.2.2.3.5.1.7-.1.2-.2.2-.4.2-.1 0-.2 0-.2-.1-.3-.2-2.7-1.8-3.8-2.6-.2-.2-.3-.5-.2-.7zm-5.2-.2c.1-.3.3-.4.6-.3 2.7 1 5.5 2.8 5.6 2.8.2.1.3.4.2.7-.1.2-.2.3-.4.3-.1 0-.2 0-.2-.1 0 0-2.8-1.8-5.5-2.8-.2-.1-.3-.4-.3-.6zm1 2.4c1.1.2 3.6 1.3 3.7 1.3.2.1.3.4.2.7-.1.2-.2.3-.4.3h-.2c-.7-.3-2.7-1.2-3.5-1.3-.2 0-.4-.3-.4-.6.2-.2.4-.4.6-.4zm-1.1 2.3c-.4-.1-3.6-.5-4.4-.3-.2.1-.5-.1-.6-.3s.1-.6.3-.6c1-.3 4.4.1 4.9.3.2.1.4.4.3.6-.1.2-.2.3-.4.3h-.1zm-5.3 1.3c.8-.3 4.3-.6 5.1-.6.2 0 .4.2.4.5s-.1.5-.4.5c-.8 0-4.2.3-4.7.6H63c-.2 0-.3-.1-.4-.3-.1-.3 0-.6.2-.7zm27.8-3.4c.2-.1.5.1.5.4.3 1.3.6 4.5.7 4.6 0 .3-.1.5-.4.6h-.1c-.2 0-.4-.2-.4-.4 0 0-.4-3.2-.6-4.5-.1-.4.1-.7.3-.7zM83 73.1c-.1 0-.3-.1-.3-.2l-1.9-2.6c-.2-.2-.1-.5.1-.7.2-.2.5-.2.6.1l1.9 2.6c.2.2.1.5-.1.7-.1.1-.2.1-.3.1zm6.8 2.1h-.1c-.2 0-.4-.1-.4-.3l-1.2-4c-.1-.3.1-.6.3-.7.2-.1.5.1.6.3l1.2 4c0 .3-.1.6-.4.7z" fill="#000000" stroke-width="none" opacity="1"></path></g></g></g><g id="svga-group-eyebrows-right-move" transform="matrix(1,0,0,1,0,0)"><g id="svga-group-eyebrows-right-rotate" transform="matrix(1,0,0,1,0,0)"><g id="svga-group-eyebrows-right" transform="matrix(1,0,0,1,0,0)"><path id="SvgjsPath33358" d="M113.1 72.3c-.2-.2-.5-.1-.6.1-.8 1.3-2.4 4.7-2.5 4.9-.1.2 0 .6.2.7.1 0 .1.1.2.1.2 0 .3-.1.4-.3 0 0 1.7-3.5 2.4-4.8.2-.2.1-.5-.1-.7zm3.1-.5c-.2-.2-.5-.2-.6 0-.9 1-2.8 3.6-2.9 3.7-.2.2-.1.5.1.7.1.1.2.1.3.1.1 0 .3-.1.3-.2 0 0 1.9-2.6 2.8-3.6.1-.2.1-.5 0-.7zm5.4-1c.2-.2.3-.5.2-.7-.1-.2-.4-.3-.6-.2-1.7 1.2-5.2 5.9-5.4 6.1-.2.2-.1.5.1.7.1.1.2.1.3.1.1 0 .2-.1.3-.2 0 .1 3.5-4.6 5.1-5.8zm4.3-.8c-.1-.2-.4-.4-.6-.2-1.3.7-5.3 3.4-5.4 3.5-.2.1-.3.5-.2.7.1.2.2.2.4.2.1 0 .2 0 .2-.1 0 0 4.1-2.8 5.4-3.5.2 0 .3-.3.2-.6zm.7 1.8c-.1-.2-.4-.3-.6-.2-.1.1-3.5 2.4-3.9 2.7-.2.2-.3.5-.1.7.1.2.2.2.4.2.1 0 .2 0 .2-.1.3-.2 2.7-1.8 3.8-2.6.2-.2.3-.5.2-.7zm5.2-.2c-.1-.3-.3-.4-.6-.3-2.7 1-5.5 2.8-5.6 2.8-.2.1-.3.4-.2.7.1.2.2.3.4.3.1 0 .2 0 .2-.1 0 0 2.8-1.8 5.5-2.8.2-.1.3-.4.3-.6zm-1 2.4c-1.1.2-3.6 1.3-3.7 1.3-.2.1-.3.4-.2.7.1.2.2.3.4.3h.2c.7-.3 2.7-1.2 3.5-1.3.2 0 .4-.3.4-.6s-.4-.4-.6-.4zm1.1 2.3c.4-.1 3.6-.5 4.4-.3.2.1.5-.1.6-.3.1-.3-.1-.6-.3-.6-1-.3-4.4.1-4.9.3-.2.1-.4.4-.3.6.1.2.2.3.4.3h.1zm5.3 1.3c-.8-.3-4.3-.6-5.1-.6-.2 0-.4.2-.4.5s.2.5.4.5c.8 0 4.2.3 4.7.6h.2c.2 0 .4-.1.4-.3.1-.3 0-.6-.2-.7zm-27.8-3.4c-.2-.1-.5.1-.5.4-.3 1.3-.6 4.5-.7 4.6 0 .3.1.5.4.6h.1c.2 0 .4-.2.4-.4 0 0 .4-3.2.6-4.5.1-.4-.1-.7-.3-.7zm7.6-1.1c.1 0 .3-.1.3-.2l1.9-2.6c.2-.2.1-.5-.1-.7-.2-.2-.5-.2-.6.1l-1.9 2.6c-.2.2-.1.5.1.7.1.1.2.1.3.1zm-6.8 2.1h.1c.2 0 .4-.1.4-.3l1.2-4c.1-.3-.1-.6-.3-.7-.2-.1-.5.1-.6.3l-1.2 4c0 .3.1.6.4.7z" fill="#000000" stroke-width="none" opacity="1"></path></g></g></g><g id="svga-group-beardwrap" transform="matrix(1,0,0,1,0,0)"><g id="svga-group-beard-single-move" transform="matrix(1,0,0,1,0,0)"><g id="svga-group-beard-single" transform="matrix(1,0,0,1,0,0)"></g></g></g><g id="svga-group-mustache-single-move" transform="matrix(1,0,0,1,0,0)"><g id="svga-group-mustache-single" transform="matrix(1,0,0,1,0,0)"></g></g><g id="svga-group-nose-single-move" transform="matrix(1,0,0,1,0,0)"><g id="svga-group-nose-single" transform="matrix(1,0,0,1,0,0)"><path id="SvgjsPath33534" d="M106.15 93.53c1.1 1.62 2.48 9.1 2.48 11.5 0 2.4-.33 3.23-1.24 3.39s-2.23-1.66-2.9-2.15c-.66-.5-1.49-.17-2.15 1.08-.66 1.24-1.74 2.23-2.73 2.23s-2.32-1.32-2.65-2.23c-.33-.91-.91-1.32-1.57-1.24-.66.08-2.07 1.57-2.81 1.41-.74-.17-1.66-.25-1.41-2.81s.74-7.53 2.15-10.1 11.26-3.39 12.83-1.08z" fill="#ffffff" stroke-width="none" opacity="1"></path><path id="SvgjsPath33535" d="M108.63 101.17a51.2 51.2 0 0 0-1.93-7.81c-.21-.65-1.25-.37-1.03.28.73 2.21 1.32 4.46 1.74 6.74.16.86 1.63 8.13-.68 7.41-.53-.16-1.05-1.16-1.43-1.52-.34-.31-.7-.58-1.16-.66-1.29-.2-1.96 1.07-2.58 1.98-.72 1.05-1.89 1.92-3.06.87-.66-.59-.87-1.55-1.45-2.22-.91-1.04-1.93-.86-3-.14-.43.29-.87.9-1.42.95-1.09.11-.95-1.21-.95-1.79 0-1.32.16-2.68.35-3.99.32-2.19.85-4.34 1.56-6.44.22-.65-.81-.93-1.03-.28-.71 2.1-1.24 4.25-1.56 6.44-.26 1.75-.75 3.97-.29 5.7.33 1.23 1.36 1.76 2.54 1.25.65-.28 1.15-1.03 1.8-1.25 1.34-.44 1.71 1.32 2.33 2.11.73.92 1.86 1.43 3.03 1.11.64-.17 1.14-.57 1.55-1.07.46-.56.81-1.59 1.44-1.96 1.17-.68 2.01 1.55 3.06 1.97 1.08.43 1.98-.38 2.37-1.34.8-1.88.12-4.4-.2-6.34z" fill="#000000" stroke-width="none" opacity="1"></path><path id="SvgjsPath33536" d="M97.9 98.24a4.3 4.3 0 0 1 4.71 1.77c.38.57 1.3.04.92-.54a5.382 5.382 0 0 0-5.92-2.26c-.65.18-.37 1.21.29 1.03z" fill="#000000" stroke-width="none" opacity="1"></path></g></g><g id="svga-group-hair-front" transform="matrix(1,0,0,1,0,0)"><path id="SvgjsPath33473" d="M63.9 50.4c-1.1 2.2-2.6 6.8-3 13.5s1.7 21.2 0 23.5c-1.7 2.4-4.3 1.3-4.7-.6s-1.5-15-2.4-20.3-.6-18.8 0-20.5-.6-13.9.6-17.1c1.3-3.2 5.6-6.5 6.6-7.3 2.1-1.5 6-3.4 8.1-4.5C71.4 16 78.6 9 85.7 7s26.9-3 30.4-.4c3.4 2.6 7.3 4.9 9.6 6.2 2.4 1.3 10.3 5.3 13 8.3 2.8 3 5.1 12.8 5.8 16.9s1.9 13.5 1.7 17.5-.9 15-.9 18.2-.6 12.8-1.7 13.9c-1.1 1.1-4.7 1.1-5.1-1.1s1.1-16.2.2-21.8c-.9-5.6-3.4-15.6-5.1-18-1.7-2.4-5.8-10.5-10.3-10-4.5.4-12.8 6.2-22.7 6.8-6.4.4-16-2.8-21.4-6-5.3-3.1-10.2 2.4-15.3 12.9z" fill="#ffffff" stroke-width="none" opacity="1"></path><path id="SvgjsPath33474" d="M145.5 37.9c-.4-2.8-2.7-13.9-6-17.4-2.6-2.8-9.2-6.3-12.4-8l-.9-.5c-2.3-1.2-6.1-3.6-9.5-6.1-3.8-2.9-24.3-1.6-31.2.3-5.2 1.4-10.4 5.4-13.8 8.1-1.2 1-2.3 1.8-2.8 2.1-2.1 1.1-6.1 3-8.2 4.6-.1 0-5.4 3.8-7 7.7-.8 2.1-.7 7-.6 11.4.1 2.3.1 5.2-.1 5.8-.7 2-.9 15.7-.1 21 .5 2.8 1 7.9 1.4 12.3.4 4 .7 7.1.9 8.1.3 1.4 1.4 2.4 2.7 2.7.2 0 .5.1.7.1 1.2 0 2.3-.6 3.1-1.8 1.2-1.6 1-6.2.5-13.7-.2-3.8-.5-7.8-.3-10.4.5-7.7 2.3-12 2.9-13.1C68.6 43 72 38.8 75 37.9c1.2-.4 2.5-.2 3.7.6 5.6 3.4 15.3 6.6 22 6.1 6.1-.4 11.6-2.7 16-4.6 2.7-1.1 5-2.1 6.7-2.3 3.1-.3 6.4 5 8.2 7.8.5.7.9 1.4 1.2 1.8 1.5 2 4 11.6 5 17.5.5 3.2.2 9.4-.1 14.4-.2 4.1-.3 6.5-.1 7.4.2 1.1 1.1 2 2.3 2.4 1.6.5 3.6.1 4.5-.8 1.7-1.7 2-14.5 2-14.6 0-2.6.4-10.2.7-15.2l.2-2.9c.1-4-1.2-13.3-1.8-17.6zm-.3 17.6-.2 2.9c-.2 2.8-.3 6.3-.5 9.4-1.2 1.9-2.7 3.5-4.6 4.7.1-3.1.1-6-.2-7.9-.2-1.4-.6-3.3-1-5.3 2.8-1.8 5-4.2 6.5-7.1v3.3zm-10.4-8.7c3.8-3 6.6-6.9 8.2-11.5.2 1.1.4 2 .5 2.8.4 2.7 1.1 7.2 1.4 11.2-1.2 3.6-3.4 6.5-6.6 8.6-1-4.2-2.3-8.9-3.5-11.1zm-8.7-32.6c2 1.1 6 3.2 8.9 5.3-6.3 3.6-9.4 10.4-8.2 17.4-.5-.3-.9-.6-1.4-.7-3.3-2.4-6.2-5.2-8.5-8.6-3.3-4.8-7.5-17.1 1.9-17.7 2.4 1.6 4.8 3 6.4 3.9l.9.4zm-21-8.1c4.9 0 9.1.4 10.3 1.3.6.5 1.3.9 1.9 1.4-4.7 1.3-6.5 6.7-5.3 11.7 1.5 6.1 5.9 11.4 10.9 15.3h-.2c-7.6-.4-15.6-1.7-21.3-7.2-6.7-6.4-7.1-18.2 2.3-22.2.2-.1.2-.2.3-.3h1.1zM60.7 23.2C59.8 30 63.5 36.3 70 39c-1.4 1.5-2.8 3.5-4.3 6-6.9-2.3-11-8.7-10.2-15.8.9-2.3 3.5-4.7 5.2-6zM60 70.4c-3-1.6-4.5-4.9-5.5-8.2-.3-4.9-.2-11.2 0-14.2 1.2 3.1 3.6 5.7 6.7 7.2-.6 2.2-1.1 5.1-1.3 8.7-.1 1.7-.1 4 .1 6.5zm.1 16.4c-.5.7-1.1 1-1.8.9-.6-.1-1-.6-1.2-1.2-.2-.8-.5-4.2-.9-7.9-.4-4.3-.9-9.2-1.4-12.2 1.2 2.3 2.8 4.2 5.2 5.3.1.9.1 1.8.2 2.7.3 4.8.7 11.3-.1 12.4zM63 50c-.3.6-.9 1.9-1.5 3.9-3.5-1.8-5.8-5-6.6-8.8.1-1.1 0-2.8 0-5.3 0-1.3-.1-2.7-.1-4.1 1.5 4.8 5.1 8.6 10.2 10.4-.6 1.2-1.3 2.5-2 3.9zm11.5-14c-1.2.3-2.3 1-3.5 2.1-6.7-2.4-10.3-8.9-8.9-15.9 2.1-1.4 5.6-3.2 7.6-4.1.6-.3 1.4-.9 2.4-1.7-3 6.7 1.8 14.4 7 20.1-1.5-.9-3.1-1-4.6-.5zm26.1 6.6c-5.1.3-12.5-1.8-17.8-4.3-6.6-6.2-14.6-16.2-7.8-24.2 3.1-2.3 7.1-5 11-6.1 1.9-.5 4.7-1 7.7-1.3-5.9 3.7-9.1 10.6-8 17.8 1.3 8.7 7.7 14.9 15.5 18.1-.2-.1-.4 0-.6 0zm15.4-4.4c-3.5 1.5-7.6 3.2-12.2 4-7.4-2.4-13.9-7.3-16.2-15C85 18.7 88.7 9.7 97 6.4c1.5-.1 3-.2 4.5-.2-6.6 4-7.9 12.8-3.9 19.5 4.6 7.7 13.3 10.3 21.8 11.2-1.1.3-2.2.8-3.4 1.3zm12.4-.1c-1.9-7.2 1.1-14.3 7.8-17.8.7.5 1.3 1.1 1.8 1.6 1.7 1.8 3.3 6.7 4.4 11.1-1.3 5.2-4.1 9.6-8.3 12.9-.2-.4-.5-.8-.8-1.3-1.2-2-2.9-4.7-4.9-6.5zm14.5 48.8c-.3.3-1.5.6-2.5.3-.6-.2-.9-.4-.9-.8-.1-.7 0-3.9.2-6.9.1-1.7.2-3.6.2-5.4 1.8-1 3.3-2.3 4.6-3.9-.1 1.5-.1 2.8-.1 3.6-.1 3.9-.8 12.1-1.5 13.1z" fill="#000000" stroke-width="none" opacity="1"></path></g><g id="svga-group-glasses-single-move" transform="matrix(1,0,0,1,0,0)"><g id="svga-group-glasses-single" transform="matrix(1,0,0,1,0,0)"></g></g></g></g></g><rect id="svga-credit-rect" width="200" height="15" x="0" y="185" fill="#ecf0f1" opacity="0.5" style="display: none;"></rect><text id="svga-credit-text" font-family="Avenir Next, Roboto, Helvetica, Arial, sans-serif" font-size="10px" text-anchor="start" font-weight="400" size="10px" anchor="start" weight="400" fill="#333333" x="33.402061462402344" y="182.71133995056152" style="display: none;"><tspan id="SvgjsTspan32876" dy="13" x="33.402061462402344">Created on AvatarMaker.com</tspan></text></g></svg>