<svg xmlns="http://www.w3.org/2000/svg" version="1.1" width="600px" height="600px" viewBox="0 0 200 200" style="overflow:hidden!important;"><defs id="SvgjsDefs60161"></defs><g id="svga-group-wrapper"><g id="svga-group-backs-single"></g><g id="svga-group-humanwrap-move" transform="matrix(1,0,0,1,0,0)"><g id="svga-group-humanwrap" transform="matrix(1,0,0,1,0,0)"><g id="svga-group-hair-back-move" transform="matrix(1,0,0,1,0,0)"><g id="svga-group-hair-back" transform="matrix(1,0,0,1,0,0)"></g></g><g id="svga-group-humanbody-back"><path id="SvgjsPath60571" d="M77.6 118.3c0 19.3 3.4 44.1-10 51.9-13.4 7.9-31.9 11.3-37.8 22s-4.4 25.3-4.4 25.3h149.3s.7-18.9-5.1-26.4c-8.1-10.4-27.8-15.5-37.7-20.9s-13.4-25.1-13.4-52.4l-40.9.5z" fill="#ffffff" stroke-width="none" opacity="1"></path><path id="SvgjsPath60572" d="M175.8 218.7H24.4l-.1-1c-.1-.6-1.5-15.1 4.5-26 4.1-7.4 13.5-11.3 23.5-15.5 5-2.1 10.2-4.3 14.8-6.9 10.6-6.2 10.1-23.9 9.6-41-.1-3.5-.2-6.8-.2-10v-1.1l43.2-.4v1.1c0 29.9 4.2 46.7 12.8 51.4 2.9 1.6 6.7 3.2 10.8 4.9 10 4.1 21.3 8.8 27.2 16.3 6.1 7.7 5.4 26.4 5.4 27.1l-.1 1.1zm-149.3-2.2h147.1c0-4.1-.2-18.5-4.9-24.6-5.5-7-16.6-11.6-26.3-15.6-4.1-1.7-8-3.3-11-5-5.1-2.8-8.7-8.9-10.9-18.7-2-8.4-2.9-19.4-3-33.5l-38.6.4c0 2.8.1 5.7.2 8.8.5 17.8 1 36.1-10.7 43-4.7 2.7-9.9 4.9-15 7.1-9.6 4-18.7 7.8-22.4 14.5-5 8.6-4.7 20.1-4.5 23.6z" fill="#000000" stroke-width="none" opacity="1"></path><path id="SvgjsPath60573" d="M93.9 153.8c-.5 1.8-.4 3.4.5 5.2.8 1.6 2.1 2.7 3.9 2.9.4 0 .7-.5.5-.8-1.6-2.2-3.5-4.2-3.7-7.1 0-.7-1-.9-1.2-.2zm18.6 33.7c8.8.5 18.1-.7 26.6-2.9.7-.2.6-1.4-.2-1.3-8.8 1.1-17.7 2-26.5 3.3-.5.1-.3.9.1.9zm-49.4-5c3.8.9 7.6 1.9 11.5 2.8 3.6.8 7.4 2 11.1 2.1.7 0 .8-.9.2-1.2-3.5-1.4-7.5-1.7-11.2-2.5-3.8-.7-7.5-1.3-11.3-2-.5 0-.7.7-.3.8z" fill="#000000" stroke-width="none" opacity="1"></path></g><g id="svga-group-chinshadow-single"></g><g id="svga-group-humanbody-front"></g><g id="svga-group-clothes-single"><path id="SvgjsPath60763" d="M71.6 164.7s3-7.6 3.5-10.7h1.2s10.7 16.1 21.4 23.9c0 0 16-9.8 25.6-21.8 0 0 6 11.3 9.5 18.3l-13.6 44.3H82.8l-17.4-39.1 6.2-14.9z" fill="#ffffff" stroke-width="none" opacity="1"></path><path id="SvgjsPath60764" d="M71.6 164.7s-3.1 2.7-6.4 3.9-7 2.9-7 2.9l1.5 1.4s-8.3 3.3-11.4 3.9-16.9 6.6-16.9 6.6-2.7-1.2-4.3 0-4.1 15.4-4.1 17.5v17.9h63.6c.1-.1-10.5-30.6-15-54.1z" fill="#ffffff" stroke-width="none" opacity="1"></path><path id="SvgjsPath60765" d="M128.1 164.7s3.1 2.7 6.4 3.9 7 2.9 7 2.9l-1.4 1.4s8.3 3.3 11.4 3.9 16.9 6.6 16.9 6.6 2.7-1.2 4.3 0 3.9 15.3 3.9 17.4v17.9H113s10.6-30.5 15.1-54z" fill="#ffffff" stroke-width="none" opacity="1"></path><path id="SvgjsPath60766" d="M173.3 182.7c-1.7-1.2-4-.6-4.9-.3-2.3-1-13.9-5.9-16.8-6.5-2.2-.4-7.3-2.4-9.8-3.3l.4-.4c.2-.2.3-.6.3-.9-.1-.3-.3-.6-.6-.7 0 0-3.8-1.7-7.1-2.9-3.1-1.2-6.1-3.7-6.1-3.7-.1-.1-.1-.1-.2-.1-2.3-4.4-4.3-8.1-4.3-8.2-.2-.3-.4-.5-.8-.5-.3 0-.7.1-.9.4-8.4 10.4-21.9 19.3-24.8 21.2-10.3-7.7-20.5-23.1-20.6-23.2-.2-.3-.5-.4-.8-.4h-1.2c-.5 0-.9.4-1 .8-.4 2.7-2.9 9-3.4 10.3-.7.6-3.3 2.6-5.9 3.6-3.3 1.2-7 2.9-7.1 2.9-.3.1-.5.4-.6.7-.1.3 0 .7.3.9l.4.4c-2.5 1-7.6 2.9-9.8 3.3-2.9.6-14.5 5.5-16.8 6.5-1-.3-3.2-1-4.9.3-2.2 1.7-4.3 16.6-4.3 18.1v17.9c0 .6.5 1 1 1h51.4c.1.1.2.1.3 0h95.5c.1.1.3.1.4 0h6.1c.6 0 1-.4 1-1V201c0-1.7-2.1-16.6-4.4-18.3zm-50.1-24.8c.8 1.5 2.2 4.3 3.8 7.3-1.9 9.6-4.8 20.4-7.5 29.7-2.6-2.9-8.7-9.8-11.2-12.2-2.2-2.2-6.1-4.1-8.3-5 4.2-2.8 15.4-10.7 23.2-19.8zm-20.1 59.8h-3.8c1.1-.9 2.1-1.9 3.1-2.9 1.2-1.1 2.3-2.2 3.4-3.4.1 1.2.2 2.3.3 3.3l-1.7 1.7-1.3 1.3zm-.9-3.5c-1.2 1.2-2.6 2.3-3.8 3.5h-2.8c3.4-3.1 6.7-6.3 9.8-9.7l.3 2.7c-1.2 1.1-2.3 2.3-3.5 3.5zm-10.8-32.9 1.5-.6c-.1.3-.3.6-.4.9-.2.4-.4.7-.5 1.1l-.6-1.4zm1.6.4c.2-.4.4-.8.6-1.3l1.5-.6c-.9 1.3-1.9 2.9-2.5 4.4l-.4-.9c.4-.5.6-1.1.8-1.6zm3.4 11.9c-.6.7-1.2 1.4-1.7 2.1.2-.9.4-1.7.6-2.3.3.1.7.2 1.1.2zm9.2-10.7c0 .1-.1.3-.2.5-1.9 2.7-3.8 5.5-5.6 8.4h-1.4c1.9-3.3 3.8-6.6 5.8-9.8.5.3 1 .6 1.4.9zm-4.1 10.8c.4 0 .8-.1 1.2-.1 0 .1.1.2.1.4-.1-.1-.1-.1-.2 0-.3.3-.6.6-.9.8-.1-.4-.2-.8-.2-1.1zm-2.8 4.8 1.2-1.2c.1 1.2.2 2.3.2 3-.4.4-.9.8-1.3 1.2-.1-.9-.1-1.9-.1-3zm3-3.2c.4-.4.7-.8 1.1-1.2v-.1c.2.8.5 1.9.8 3.1-.5.5-1.1.9-1.6 1.4-.1-.9-.2-2.1-.3-3.2zm-3 2.1c0-.9.1-1.8.1-2.8.2-.2.4-.4.7-.6.1.7.2 1.5.3 2.4-.4.3-.7.7-1.1 1zm.2-3.6h.1c-.1 0-.1.1-.1.1v-.1zm-4.5 3.3c.3-.4.6-.9.9-1.2.5-.7 1.1-1.4 1.6-2.1-.1.7-.1 1.4-.2 2.1-1 .9-1.9 1.9-2.8 2.9.2-.6.3-1.2.5-1.7zm-.8 3.2c1.1-1.2 2.1-2.3 3.2-3.5v2.5c-1.3 1.3-2.5 2.6-3.8 3.9.1-.8.3-1.8.6-2.9zm-.9 4.5c0-.1 0-.3.1-.4 1.3-1.3 2.7-2.6 4-3.9.1 1.1.1 2 .2 2.7-1.5 1.4-3 2.8-4.4 4.2-.1-1.1 0-2 .1-2.6zm-.3 7.8c4-3.8 8.1-7.6 12-11.5.2.9.3 1.8.5 2.6v.1c-4.3 3.8-8.5 7.8-12.5 12v-3.2zm0-1v-3.3c1.5-1.4 3.1-2.8 4.6-4.2.1.5.5.9 1 .9h.1c.6-.1.9-.6.9-1.1 0 0-.1-.6-.1-1.5.4-.4.9-.8 1.3-1.2 0 .5.5.9 1 .9.6 0 1-.4 1-1 0-.1 0-.8-.1-1.7.6-.5 1.1-1.1 1.6-1.6.2.9.4 1.9.7 3-4.3 3.1-8.4 6.8-12 10.8zm11.4-23.4c-.1.4-.3.7-.4 1.1-.5.8-1 1.5-1.5 2.3-.5.1-.9.1-1.3.1.8-1 1.4-2.2 2-3.2.8-1.2 1.5-2.4 2.2-3.5-.3 1-.7 2.2-1 3.2zm.2-6.3c-2.3 3.1-4.4 6.4-6.2 9.9-.8-.1-1.4-.2-1.7-.3 2.6-2.8 4.5-6.6 6.1-10 .1-.2-.2-.4-.3-.2-1.9 3.4-4.3 6.6-6.1 9.9v.1c-.1 0-.2-.1-.2-.1l-.6-1.5c2.2-2.9 4.1-6.2 5.9-9.3.1-.2-.2-.4-.3-.2-2 2.9-4.1 5.8-5.9 8.9l-.4-.9c1.6-2.8 3.2-5.5 4.9-8.3.1-.1-.1-.3-.2-.1-1.8 2.4-3.5 5.1-4.9 7.8l-.4-1.1c1.4-2.4 2.7-4.9 4.3-7.3.1-.1-.1-.3-.2-.1-1.5 2.1-3.1 4.4-4.3 6.8l-.4-1c.4-.8.8-1.7 1.2-2.5.5-1 1.1-1.9 1.7-2.8.8-.3 1.4-.5 1.9-.7.8.3 3.6 1.5 6.1 3zm-28.1-26.8c1.9 2.9 10.6 15.2 19.8 22.4-2.4.9-6.7 2.5-8.4 3.7-1.8 1.2-6.1 6.7-8.3 9.6-2.4-8.4-4.8-17.6-6.4-25.9.5-1.4 2.6-6.6 3.3-9.8zm-50.8 38.3c2.1-2.3 4.3-4.6 6.3-7 .2.5.4 1.1.6 1.8-2.5 2.6-5 5.2-7.4 7.9.2-.8.3-1.7.5-2.7zm-1.1 7.5c0-.1 0-.1 0 0 3-3.1 6-6.2 8.9-9.4.3 1.1.6 2.3.9 3.6-3.6 2.8-6.8 6.4-9.8 9.9v-4.1zm.1-.9c.1-.8.2-1.8.4-3.1 2.6-2.6 5.1-5.4 7.7-8.1.2.6.3 1.2.5 1.9-2.9 3.1-5.8 6.2-8.6 9.3zm3.5-15.7c.8-.6 2.2-.3 3 0 .1.3.3.8.6 1.6-2 2.1-4 4.4-5.9 6.7.7-3.9 1.6-7.7 2.3-8.3zm-.1 33.4c.8-.6 1.5-1.2 2.1-2 .1-.1-.1-.3-.2-.2-1 .6-1.8 1.5-2.5 2.3H24h.1c1.6-1.8 3.4-3.5 4.8-5.4.1-.2-.1-.4-.3-.2-1.7 1.5-3.1 3.3-4.6 5v-3.1c2-2.2 4-4.3 5.7-6.6.1-.1-.1-.3-.3-.2-2 1.9-3.7 4-5.5 6v-3c2.6-2.7 5.3-5.4 7.6-8.4.1-.2-.1-.3-.3-.2-2.6 2.4-5 5.2-7.3 7.9v-3.7c3.2-3.4 6.8-6.5 10-9.9 0 .1.1.2.1.3 2 8.3 2.6 18.7 2.8 21.6l-9.3-.2zm8.5-22.1c-1.6-6.8-2.8-10.1-3.4-11.6 5-2.1 13.6-5.7 15.8-6.1 2.2-.4 7-2.2 9.6-3.2 0 .2-.1.3-.1.5 0 .1.2.2.2.1.1-.2.2-.5.3-.7.3-.1.6-.2.8-.3l.2.2c-.9 1.3-1.8 2.7-2.4 4.1-.1.2.2.3.3.2.9-1.2 1.7-2.6 2.4-4l.5.4c-.6 1-1.2 2.1-1.7 3.2l-2 1.2c-.4.3-.6.9-.3 1.3l.7 1.3c-.3.7-.7 1.4-.8 2.1 0 .1.2.2.2.1.3-.5.6-1.1.9-1.7l.7 1.3c-.4.9-.9 1.8-1.1 2.7 0 .2.2.3.3.1.4-.8.7-1.7 1-2.5l.6 1.2c-.5 1.1-1 2.2-1.4 3.4 0 .2.2.3.3.1.5-1 .9-2 1.3-3.1l.6 1.2c-.7 1.3-1.5 2.6-2 4-.1.2.2.3.3.1.8-1.2 1.3-2.5 1.9-3.8l.5 1c-.3.7-.6 1.4-1 2.1-.3.7-.7 1.4-.9 2.1 0 .2.2.2.3.1.4-.6.7-1.4 1-2.1.3-.6.5-1.3.8-1.9l.9 1.7c-.3.6-.6 1.2-.8 1.8-.3.6-.7 1.3-.8 2 0 .1.2.3.3.2.5-.6.7-1.4 1-2.1.2-.5.4-.9.6-1.4l.8 1.6c-.6 1.4-1.2 2.8-1.4 4.2 0 .2.3.2.3.1.7-1.1 1-2.4 1.4-3.7l1 1.8c-.5 1.4-1.1 2.8-1.5 4.2-.1.2.2.3.4.2.7-1.1 1.2-2.4 1.4-3.8l1.1 2c-.5 1.4-1 3-1.1 4.4 0 .2.2.2.3.1.6-1.2.8-2.6 1.1-3.9l.9 1.7c-.6 1.5-1.4 3.1-1.8 4.7 0 .2.2.3.3.1.7-1.3 1.2-2.9 1.7-4.3l.8 1.6c-.7 1.7-1.3 3.4-1.9 5.1-.1.3.3.4.5.2.1-.1.2-.2.2-.3.1-.1 0-.2-.1-.2.5-1.4 1-2.9 1.5-4.3l1 1.8c-.8 1.4-1.4 3-1.8 4.5-.1.3.4.4.5.1.5-1.4.9-2.9 1.5-4.3l2.2 4.3c-.6 1.6-1.3 3.2-1.7 4.9-.1.2.3.4.4.2.7-1.4 1.1-3 1.5-4.5l1.4 2.6c-.8 1.9-1.5 3.8-2.1 5.7v.1h-32c.3-2.9-.3-13.6-2.4-22.2zm25.9-19.5-2.3 1.5 1.2-2.4 1.1.9zm12 41.6c.2-.5.3-1 .4-1.5.1-.4.2-.7.3-1.1l.7 1.3c-.2.4-.3.8-.4 1.2l-1 .1zm-.1-1.6c-.2.5-.4 1.1-.5 1.6h-1.9c.7-1.7 1.3-3.4 1.8-5.2l1.1 2.1c-.1.5-.3 1-.5 1.5zm1.7 1.6c.1-.2.1-.4.2-.6l.3.6h-.5zm2.7 0-19.6-37.2L69 174c.5-.3.6-.9.3-1.4-.3-.5-.9-.6-1.4-.3l-4.2 2.7-3.4-2.8-.4-.4c1.4-.6 3.6-1.5 5.6-2.3 2.1-.8 4.1-2.1 5.4-3.1 1.7 8.6 4.2 17.9 6.6 26.3-.1.3 0 .6.3.9 3.2 11.2 6.3 20.6 7.5 24l-7.1.1zm9.2 0c-.9-2.6-4.2-12.5-7.7-24.6 2.2-2.9 7.1-9.2 8.7-10.3.3-.2.7-.4 1.2-.7l4 9.8c-.5 1.7-2.5 9.2-3 12.6-.2 1.1-.2 2.9-.3 4.7-.1.1-.1.3 0 .4v4.1l-.3.3c-.2.2.1.5.3.4 0 1.4.1 2.5.1 3.2l-3 .1zm5.1-1c4.2-4.1 8.2-8.3 12.5-12.2.1.9.3 2 .4 3.1-3.5 3.5-7.1 6.9-10.7 10.2h-2.1c-.1-.4-.1-.7-.1-1.1zm11.5 1c.3-.3.6-.7.8-1 .4-.5.9-1 1.3-1.5.1 1 .2 1.9.2 2.5H104zm8.3 0h-3.9c-.2-2.6-.9-10.1-1.5-14.3-.7-4.5-2.1-9.8-2.4-11 .2-.6.7-2.1 1.2-3.5.8-2.2 1.3-3.6 1.6-4.5 3 3 9.9 10.9 11.6 12.8-3.1 10.1-5.8 18.2-6.6 20.5zm2.1 0c2-6 10.2-30.9 14.3-51.2 1.3.9 3.3 2.3 5.4 3.1 2 .8 4.3 1.7 5.6 2.3l-.4.4-3.3 2.7-4.2-2.7c-.5-.3-1.1-.2-1.4.3s-.2 1.1.3 1.4l10.3 6.6-19.6 37.2-7-.1zm9.3 0 19.5-37c.2-.5.1-1-.4-1.3l-5.1-3.2 2.5-2c1.9.8 8.3 3.2 11 3.8 2.2.4 10.8 4 15.8 6.1-.6 1.5-1.8 4.8-3.4 11.6-2.1 8.6-2.7 19.2-2.8 22.1l-37.1-.1zm39.4-3.3c2.4-2.2 4.6-4.6 6.9-6.9.2-.2-.1-.4-.3-.3-2.2 2.1-4.4 4.1-6.6 6.3.1-.9.1-1.8.2-2.9.7-.8 1.4-1.6 2.1-2.3 1.2-1.3 2.4-2.6 3.7-3.8.2-.2-.1-.4-.3-.3-1.4 1.3-2.7 2.6-4 3.9-.5.5-.9 1-1.4 1.4.1-.8.2-1.6.3-2.5 1.3-1.5 2.5-3.1 3.8-4.6.2-.2-.1-.5-.3-.3-1.1 1.3-2.2 2.6-3.3 3.8.1-.8.2-1.7.3-2.5.1-.1.2-.3.4-.4.7-.8 1.4-1.6 2.1-2.3.1-.2-.1-.4-.2-.2-.7.7-1.4 1.5-2.1 2.2.2-1 .3-2.1.5-3.1.2-.2.3-.4.5-.6.3-.4.6-.7.9-1.1.1-.2-.1-.3-.3-.2-.4.3-.7.6-1 1l.6-2.7c1.9-7.8 3.1-10.9 3.5-11.8.8-.3 2.2-.6 3 0 1.2 1.2 3.6 14.1 3.6 16.6V217c-.3.2-.6.5-.9.7h-2.3c.9-1 1.7-2 2.6-2.9.2-.2-.1-.5-.3-.3-1.1 1.1-2.2 2.1-3.2 3.2h-3.4c1.9-1.7 3.8-3.5 5.7-5.2.2-.2-.1-.5-.3-.3-2.1 1.9-4.2 3.7-6.2 5.6h-3.7c2.7-2.2 5.2-4.8 7.7-7.2.2-.2-.1-.5-.3-.3-2.7 2.5-5.6 4.8-8.1 7.5h-.1c0-.8 0-2 .2-3.4zm12.5 3.3.1-.1v.1h-.1zM69.4 206.2c-.5 1.7-1.3 3.5-1.5 5.3 0 .2.2.2.3.1.8-1.6 1.1-3.6 1.5-5.3.1-.2-.3-.3-.3-.1z" fill="#000000" stroke-width="none" opacity="1"></path></g><g id="svga-group-head" transform="matrix(1,0,0,1,0,0)"><g id="svga-group-ears-left-move" transform="matrix(1,0,0,1,0,0)"><g id="svga-group-ears-left" transform="matrix(1,0,0,1,0,0)"><path id="SvgjsPath60788" d="M57.9 81.4s-3-4.7-6.1-5.6-6.6 2.1-6.1 7.8c.6 5.7 8.7 18.9 15.9 19.7 6.2.7-1.1-18.5-3.7-21.9z" fill="#ffffff" stroke-width="none" opacity="1"></path><path id="SvgjsPath60789" d="M61.5 104.2c-7.7-.8-16.1-14.5-16.7-20.4-.3-3.4.8-6.4 3-7.9 1.3-.9 2.9-1.2 4.4-.8 3.3.9 6.2 5.3 6.6 5.9 2.1 2.7 8.5 18 5.5 22-.5.7-1.4 1.1-2.3 1.1-.3.1-.4.1-.5.1zM48.9 77.1c-1.7 1.1-2.5 3.6-2.3 6.4.5 5.4 8.5 18.3 15 18.9.4 0 .7 0 .9-.3 2.1-2.9-3.2-17.2-5.5-20.3v-.1c-.8-1.2-3.3-4.6-5.5-5.2-.2-.1-.5-.1-.7-.1-.7.2-1.3.4-1.9.7z" fill="#000000" stroke-width="none" opacity="1"></path><path id="SvgjsPath60790" d="M50.5 79.3c2.6 1.4 5 5.6 6.2 9.6v.1c0 .3-.2.4-.3.1-.4-1.2-1-1.2-1.7 0-.2.7-.1 1.5.1 2.3.2.7.5 1.4.8 1.9.6 1.2 1.4 2 2.1 3 .2.3 0 .7-.2.5-1.6-1-3.9-4.6-3.4-7.6.2-1.4 1.1-2.2 1.8-1.7-.9-2.1-1.9-3.9-3.2-5.4-.7-.8-2.3-2.7-3.1-2.3-1.5.6-.7 4.6-.5 6.4 0 .3-.2.4-.3.1-1-2.9-1.1-8.5 1.7-7z" fill="#000000" stroke-width="none" opacity="1"></path><path id="SvgjsPath60791" d="M56.9 97.8c-2.8-.9-4.8-4.6-6-8.8-.7-2.5-2.1-8.3.6-8.2.2 0 .3.5.1.6-2.5 1.1.2 8.9 1 10.7 1.1 2.6 2.5 4.3 4.3 5.2.2.2.2.6 0 .5z" fill="#000000" stroke-width="none" opacity="1"></path></g></g><g id="svga-group-ears-right-move" transform="matrix(1,0,0,1,0,0)"><g id="svga-group-ears-right" transform="matrix(1,0,0,1,0,0)"><path id="SvgjsPath60792" d="M142.1 81.4s3-4.7 6.1-5.6 6.6 2.1 6.1 7.8c-.6 5.7-8.7 18.9-15.9 19.7-6.2.7 1.1-18.5 3.7-21.9z" fill="#ffffff" stroke-width="none" opacity="1"></path><path id="SvgjsPath60793" d="M138.1 104.2c-1 0-1.8-.4-2.3-1.1-2.9-4 3.4-19.3 5.5-22 .4-.6 3.3-5.1 6.6-5.9 1.5-.4 3-.1 4.4.8 2.2 1.5 3.3 4.4 3 7.9-.6 5.9-9 19.6-16.7 20.4-.2-.1-.3-.1-.5-.1zm11.1-27.6c-.2 0-.5 0-.7.1-2.2.6-4.7 3.9-5.5 5.2v.1c-2.4 3-7.7 17.4-5.5 20.3.2.3.4.4.9.3 6.5-.7 14.5-13.6 15-18.9.3-2.9-.6-5.3-2.3-6.4-.6-.5-1.2-.7-1.9-.7z" fill="#000000" stroke-width="none" opacity="1"></path><path id="SvgjsPath60794" d="M149.5 79.3c-2.6 1.4-5 5.6-6.2 9.6v.1c0 .3.2.4.3.1.4-1.2 1-1.2 1.7 0 .2.7.1 1.5-.1 2.3-.2.7-.5 1.4-.8 1.9-.6 1.2-1.4 2-2.1 3-.2.3 0 .7.2.5 1.6-1 3.9-4.6 3.4-7.6-.2-1.4-1.1-2.2-1.8-1.7.9-2.1 1.9-3.9 3.2-5.4.7-.8 2.3-2.7 3.1-2.3 1.5.6.7 4.6.5 6.4 0 .3.2.4.3.1 1-2.9 1.1-8.5-1.7-7z" fill="#000000" stroke-width="none" opacity="1"></path><path id="SvgjsPath60795" d="M143.1 97.8c2.8-.9 4.8-4.6 6-8.8.7-2.5 2.1-8.3-.6-8.2-.2 0-.3.5-.1.6 2.5 1.1-.2 8.9-1 10.7-1.1 2.6-2.5 4.3-4.3 5.2-.2.2-.2.6 0 .5z" fill="#000000" stroke-width="none" opacity="1"></path></g></g><g id="svga-group-faceshape-wrap" transform="matrix(1,0,0,1,0,0)"><g id="svga-group-faceshape-single"><path id="SvgjsPath60862" d="M142.4 53.6c-2.3-11.4-15.1-28.8-42.4-28.8S63.6 38.2 59.6 48.1c-2.5 6.2-3.2 15.2-3.4 19.7 0 0 .5 33.6 2.2 41.1 1.8 7.4 11.2 32.6 35.6 33.9 21.8 1.1 35.2-11.4 41.9-27s7.8-48 7.8-48c.1-3.2-.2-8.9-1.3-14.2z" fill="#ffffff" stroke-width="none" opacity="1"></path><path id="SvgjsPath60863" d="M96.8 144c-.9 0-1.9 0-2.8-.1-10.8-.6-19.9-5.6-27.1-15.1-5.2-6.8-8.4-14.9-9.5-19.7-1.8-7.5-2.2-39.9-2.3-41.3.2-4.8.9-13.8 3.4-20.1 6.6-16.2 20.1-24 41.5-24 12.3 0 23.2 3.6 31.3 10.4 6.3 5.2 10.9 12.5 12.2 19.3 1.1 5.5 1.3 11.4 1.4 14.4 0 1.3-1.2 32.8-7.9 48.4-4.5 10.6-15.7 27.8-40.2 27.8zM57.3 67.9c0 1.2.5 33.7 2.2 40.8 1.1 4.6 4.1 12.3 9.1 18.8 6.8 8.9 15.3 13.7 25.4 14.2 25.1 1.3 36.4-15.9 40.8-26.3 6.5-15 7.7-46.4 7.7-47.5 0-3-.3-8.7-1.4-14-1.3-6.4-5.6-13.1-11.5-18-7.7-6.5-18-9.9-29.9-9.9-20.3 0-33.2 7.4-39.4 22.6-2.1 5.9-2.8 14.6-3 19.3z" fill="#000000" stroke-width="none" opacity="1"></path></g></g><g id="svga-group-mouth-single-move" transform="matrix(1,0,0,1,0,0)"><g id="svga-group-mouth-single" transform="matrix(1,0,0,1,0,0)"><path id="SvgjsPath60719" d="M112.09 122.28c-4.06 2.21-8.33-1.66-12.49-1.68-4.63-.02-8.93 3-13.59 1.51-.61-.19-.87.76-.26.95 5.13 1.64 9.77-1.99 14.86-1.4 4.08.47 7.86 3.71 11.97 1.47.57-.3.07-1.15-.49-.85z" fill="#000000" stroke-width="none" opacity="1"></path><path id="SvgjsPath60720" d="M109.43 127.04c-5.64 4.59-13.64 4.06-18.65-1.2-.22-.23-.57.12-.35.35 5.21 5.46 13.5 5.96 19.35 1.2.24-.2-.11-.55-.35-.35z" fill="#000000" stroke-width="none" opacity="1"></path><path id="SvgjsPath60721" d="M89.48 120.45c4.34-4.83 11.23-5.79 16.74-2.35.27.17.52-.26.25-.43-5.69-3.55-12.85-2.56-17.33 2.43-.22.23.12.58.34.35z" fill="#000000" stroke-width="none" opacity="1"></path></g></g><g id="svga-group-eyes-left-move" transform="matrix(1,0,0,1,0,0)"><g id="svga-group-eyes-left" transform="matrix(1,0,0,1,0,0)"><g id="svga-group-eyesback-left"></g><g id="svga-group-eyesiriswrapper-left"><g id="svga-group-eyesiriscontrol-left" transform="matrix(1,0,0,1,0,0)"><g id="svga-group-eyesiris-left" transform="matrix(1,0,0,1,0,0)"><path id="SvgjsPath60910" d="M83.8 89.7c1.1-2 .1-4.9-1.7-6.1-2-1.3-4.8-.9-6.3 1.3-.8 1.2-1.2 2.8-.6 4.1.2.4.8 1.9 2 2.5 2.3 1.2 5.3.6 6.6-1.8z" fill="#ffffff" stroke-width="none" opacity="1"></path><path id="SvgjsPath60911" d="M80.9 88.7c.3 0 .5.1.6.3.3-.3.4-.7.4-1.2s-.2-.9-.5-1.2c-.2-.6-.7-1.1-1.4-1.3-.4-.1-.8-.1-1.2 0 .2.7-.1 1.5-.8 1.9-.3.2-.7.3-1.1.2-.1.7.2 1.5.8 2 .7.6 1.7.7 2.4.3-.1-.3.1-1 .8-1zm3.1-2.6c-.2-.6-.4-1.2-.8-1.7-.2-.3-.4-.5-.6-.8-.2-.2-.5-.4-.8-.6-.6-.3-1.2-.6-1.9-.7s-1.4-.1-2.1.1c-.7.2-1.3.5-1.8 1-.5.4-1 1-1.3 1.6-.3.6-.5 1.3-.6 2-.1.7.1 1.5.4 2.1.3.6.6 1.2 1.1 1.7.2.2.5.5.8.7.2.1.3.2.5.3.1 0 .2.1.2.1.1 0 .2.1.2.1 1.2.4 2.6.4 3.8 0 .6-.2 1.1-.5 1.6-.9s.8-.9 1.1-1.4c-.1.3-.3.5-.5.8-.2.2-.4.4-.7.6-.5.4-1 .6-1.6.8s-1.2.1-1.8 0-1.1-.3-1.6-.6c-.1 0-.1-.1-.2-.1s-.1-.1-.2-.1c-.1-.1-.2-.2-.3-.2-.2-.2-.3-.4-.5-.6s-.3-.5-.4-.7-.2-.5-.3-.8c-.2-.6-.2-1.3 0-1.9-.2-.3-.3-.6-.3-.9 0-1.1 1.1-2 2.2-1.7.2-.2.5-.3.7-.4 1-.4 2.1-.4 3.2 0 1 .4 1.9 1.3 2.3 2.4.2.6.3 1.2.3 1.8 0 .6-.1 1.2-.4 1.8.3-.5.4-1.2.5-1.8.1-.8 0-1.4-.2-2z" fill="#000000" stroke-width="none" opacity="1"></path></g></g></g><g id="svga-group-eyesfront-left"><path id="SvgjsPath60832" d="M79 72.1c-8.2 0-14.8 6.6-14.8 14.8s6.6 14.8 14.8 14.8 14.8-6.6 14.8-14.8c0-8.1-6.6-14.8-14.8-14.8zm9.2 21.1c-.5-.2-1.9.2-5.8.1s-7.9-1.2-11-3-3.9-6.2-3.9-6.2 4.4-.9 10.3-.6 9.1 2.3 10.1 4c1.1 1.8 2.2 5.3 2.2 5.3-.1.7-1.5.6-1.9.4z" fill="#ffffff" stroke-width="none" opacity="1"></path><path id="SvgjsPath60833" d="M90.7 92.3c-.2 0-.3.1-.5.1-.1-.2-.1-.4-.2-.7.2-.1.4-.2.6-.4.2-.2.1-.5-.2-.5-.2 0-.4.1-.6.2-.1-.1-.1-.3-.2-.5.4-.2.7-.4 1-.6.2-.2.1-.5-.2-.5-.4 0-.7.2-1.1.4-.1-.2-.2-.4-.3-.7.5-.2.9-.4 1.3-.7.2-.1 0-.5-.2-.4-.5.1-.9.3-1.4.5-.1-.1-.1-.3-.2-.4.4-.2.8-.4 1.1-.7.2-.2 0-.4-.2-.4-.4.1-.8.3-1.2.5-.1-.2-.2-.3-.3-.5.4-.2.8-.4 1.1-.7.2-.2 0-.4-.2-.4-.5.1-.9.3-1.3.5-.1-.2-.3-.4-.5-.6.5-.2.9-.4 1.4-.7.2-.1.1-.4-.1-.4-.6 0-1.2.3-1.7.6l-.3-.3c.5-.2.9-.4 1.3-.7.1-.1 0-.3-.2-.3-.5.2-1 .5-1.4.8l-.1-.1c-.1 0-.1-.1-.2-.1l.9-.6c.1-.1 0-.3-.1-.3-.5 0-1 .2-1.4.5-.1-.1-.2-.1-.4-.2l.3-.3c.1-.1 0-.4-.2-.4-.3-.1-.7.1-.9.3-4.7-1.7-13.6-1.5-17.8-.1-.3.1-.5.5-.4.8s.5.5.8.4c.1 0 .3-.1.4-.1-.1.1-.1.3-.1.5.1.4 2 8.7 15.8 8.7 1.5 0 3.2-.1 5.1-.3.4 0 .6-.4.6-.7 0-.4-.4-.6-.7-.6-17.1 2.1-19.3-6.9-19.4-7.3 0-.2-.2-.4-.4-.4 5.2-1.2 14.6-.9 17.4 1.2 3 2.3 4.3 8.5 4.4 8.6.1.3.3.5.6.5h.1c.4-.1.6-.4.5-.8 0-.1-.1-.5-.3-1 .2 0 .4-.2.5-.4.1-.1-.1-.3-.3-.3zm-24.2-5c-.2-.2-.5.1-.3.3 1.5 2 3.4 3.9 5.8 4.8.2.1.3-.2.2-.4-2-1.5-4-2.9-5.7-4.7z" fill="#000000" stroke-width="none" opacity="1"></path></g></g></g><g id="svga-group-eyes-right-move" transform="matrix(1,0,0,1,0,0)"><g id="svga-group-eyes-right" transform="matrix(1,0,0,1,0,0)"><g id="svga-group-eyesback-right"></g><g id="svga-group-eyesiriswrapper-right"><g id="svga-group-eyesiriscontrol-right" transform="matrix(1,0,0,1,0,0)"><g id="svga-group-eyesiris-right" transform="matrix(1,0,0,1,0,0)"><path id="SvgjsPath60912" d="M125.8 89.7c1.1-2 .1-4.9-1.7-6.1-2-1.3-4.8-.9-6.3 1.3-.8 1.2-1.2 2.8-.6 4.1.2.4.8 1.9 2 2.5 2.3 1.2 5.3.6 6.6-1.8z" fill="#ffffff" stroke-width="none" opacity="1"></path><path id="SvgjsPath60913" d="M122.9 88.7c.3 0 .5.1.6.3.3-.3.4-.7.4-1.2s-.2-.9-.5-1.2c-.2-.6-.7-1.1-1.4-1.3-.4-.1-.8-.1-1.2 0 .2.7-.1 1.5-.8 1.9-.3.2-.7.3-1.1.2-.1.7.2 1.5.8 2 .7.6 1.7.7 2.4.3 0-.3.2-1 .8-1zm3.2-2.6c-.2-.6-.4-1.2-.8-1.7-.2-.3-.4-.5-.6-.8-.2-.2-.5-.4-.8-.6-.6-.3-1.2-.6-1.9-.7s-1.4-.1-2.1.1c-.7.2-1.3.5-1.8 1-.5.4-1 1-1.3 1.6-.3.6-.5 1.3-.6 2-.1.7.1 1.5.4 2.1.3.6.6 1.2 1.1 1.7.2.2.5.5.8.7.2.1.3.2.5.3.1 0 .2.1.2.1.1 0 .2.1.2.1 1.2.4 2.6.4 3.8 0 .6-.2 1.1-.5 1.6-.9s.8-.9 1.1-1.4c-.1.3-.3.5-.5.8-.2.2-.4.4-.7.6-.5.4-1 .6-1.6.8s-1.2.1-1.8 0-1.1-.3-1.6-.6c-.1 0-.1-.1-.2-.1s-.1-.1-.2-.1c-.1-.1-.2-.2-.3-.2-.2-.2-.3-.4-.5-.6s-.3-.5-.4-.7-.2-.5-.3-.8c-.2-.6-.2-1.3 0-1.9-.2-.3-.3-.6-.3-.9 0-1.1 1.1-2 2.2-1.7.2-.2.5-.3.7-.4 1-.4 2.1-.4 3.2 0 1 .4 1.9 1.3 2.3 2.4.2.6.3 1.2.3 1.8 0 .6-.1 1.2-.4 1.8.3-.5.4-1.2.5-1.8 0-.8-.1-1.4-.2-2z" fill="#000000" stroke-width="none" opacity="1"></path></g></g></g><g id="svga-group-eyesfront-right"><path id="SvgjsPath60834" d="M121 72.1c-8.2 0-14.8 6.6-14.8 14.8s6.6 14.8 14.8 14.8 14.8-6.6 14.8-14.8c0-8.1-6.6-14.8-14.8-14.8zm7.6 18.2c-3.1 1.8-7.1 2.9-11 3s-5.3-.3-5.8-.1c-.5.2-1.9.3-1.9-.4 0 0 1.1-3.5 2.2-5.3s4.3-3.8 10.1-4 10.3.6 10.3.6-.8 4.4-3.9 6.2z" fill="#ffffff" stroke-width="none" opacity="1"></path><path id="SvgjsPath60837" d="M133.8 83.8c-4.8-1.6-16.1-1.7-19.7 1.1-3.4 2.6-4.8 9.1-4.8 9.3-.1.4.2.7.5.8h.1c.3 0 .6-.2.6-.5 0-.1 1.4-6.3 4.4-8.6 2.7-2.1 12.2-2.4 17.4-1.2-.2.1-.3.2-.4.4-.1.4-2.3 9.4-19.4 7.3-.4 0-.7.2-.7.6s.2.7.6.7c1.8.2 3.5.3 5.1.3 13.8 0 15.7-8.3 15.8-8.7 0-.2 0-.4-.1-.5.1 0 .3.1.4.1.3.1.7-.1.8-.4-.1-.2-.3-.6-.6-.7z" fill="#000000" stroke-width="none" opacity="1"></path></g></g></g><g id="svga-group-facehighlight-single"></g><g id="svga-group-eyebrows-left-move" transform="matrix(1,0,0,1,0,0)"><g id="svga-group-eyebrows-left-rotate" transform="matrix(1,0,0,1,0,0)"><g id="svga-group-eyebrows-left" transform="matrix(1,0,0,1,0,0)"><path id="SvgjsPath60741" d="M70.6 67.28s-7.13 5.85-7.29 6.25c-.16.4 6.09-1.68 8.42-1.76s16.03 5.77 16.99 5.93c.96.16 2.4-4.01 2.4-4.49s-17.96-7.7-20.52-5.93z" fill="#ffffff" stroke-width="none" opacity="1"></path><path id="SvgjsPath60742" d="m62.73 73.63.21.26c.29.33.55.27 3.24-.44 1.83-.48 4.34-1.14 5.56-1.19 1.49-.07 8.55 2.73 12.77 4.38 2.54 1 3.78 1.48 4.13 1.54.05.01.09.01.14.01.23 0 .46-.1.69-.29 1.03-.87 2.15-4.11 2.15-4.7 0-.37-.34-.54-.69-.73-1.74-.92-17.79-7.54-20.61-5.61l-.03.03c-7.23 5.93-7.38 6.31-7.44 6.45l-.12.29zm5.62-1.76-1.91-.48c.47-.39.96-.81 1.46-1.23l1.88 1.39c-.45.09-.94.2-1.43.32zm5.11-4.23.13 3.98c-.39-.11-.73-.19-1.04-.25l-1.48-3.77c.41-.14 1.19-.14 2.39.04zm.81 4.17-.14-4.06c.56.11 1.2.24 1.92.42l-1.08 3.86c-.25-.08-.48-.15-.7-.22zm1.32.43 1.09-3.9c.54.14 1.12.31 1.74.49l-2.22 3.61c-.2-.06-.41-.13-.61-.2zm1.26.44 2.24-3.64c.29.09.58.18.89.28l-1.7 3.88c-.5-.19-.97-.36-1.43-.52zm4.36-2.96c.31.1.61.21.92.31l-2.26 3.75c-.33-.12-.65-.24-.97-.36l1.71-3.9c.2.07.39.13.6.2zm-.72 4.3 2.27-3.76c.41.15.82.29 1.22.44l-1.82 3.97c-.56-.22-1.12-.44-1.67-.65zm5.43-2.59c-1.37 2.27-1.97 3.33-2.23 3.83-.31-.12-.61-.24-.91-.36l1.83-3.98c.45.18.89.34 1.31.51zm.32 4.83 1.71-4.02c.59.25 1.11.47 1.54.66l-2.2 3.77c-.32-.12-.67-.26-1.05-.41zm1.68.65 2.17-3.73c.2.1.37.18.48.25-.22.9-1.27 3.52-1.82 3.78-.12-.04-.42-.15-.83-.3zm-3.61-1.41c.37-.69 1.31-2.29 2.24-3.83.27.11.53.21.79.32l-1.72 4.03-.75-.3a9.31 9.31 0 0 1-.56-.22zM71.7 71.27c-.29.01-.64.05-1.02.11l-2.26-1.66c.73-.61 1.45-1.2 2.09-1.73l1.29 3.29c-.02-.01-.07-.01-.1-.01zm-6.88 1.51c.29-.25.63-.55 1-.86l1.17.29c-.36.09-.72.19-1.07.28-.36.09-.75.19-1.1.29z" fill="#000000" stroke-width="none" opacity="1"></path></g></g></g><g id="svga-group-eyebrows-right-move" transform="matrix(1,0,0,1,0,0)"><g id="svga-group-eyebrows-right-rotate" transform="matrix(1,0,0,1,0,0)"><g id="svga-group-eyebrows-right" transform="matrix(1,0,0,1,0,0)"><path id="SvgjsPath60743" d="M129.4 67.28s7.13 5.85 7.29 6.25-6.09-1.68-8.42-1.76c-2.32-.08-16.03 5.77-16.99 5.93-.96.16-2.4-4.01-2.4-4.49s17.96-7.7 20.52-5.93z" fill="#ffffff" stroke-width="none" opacity="1"></path><path id="SvgjsPath60744" d="M137.16 73.34c-.06-.14-.21-.52-7.44-6.45l-.03-.03c-2.81-1.93-18.86 4.69-20.61 5.61-.36.19-.69.36-.69.73 0 .59 1.12 3.83 2.15 4.7.23.19.46.29.69.29.05 0 .09 0 .14-.01.34-.06 1.58-.54 4.13-1.54 4.22-1.66 11.28-4.45 12.77-4.38 1.22.04 3.73.7 5.56 1.19 2.69.71 2.95.77 3.24.44l.21-.26-.12-.29zm-6.94-1.8 1.88-1.39c.5.42 1 .83 1.46 1.23l-1.91.48-1.43-.32zm-1.3-3.94-1.48 3.77c-.3.06-.65.14-1.04.25l.13-3.98c1.21-.18 1.99-.18 2.39-.04zm-3.88 4.43-1.08-3.86c.72-.18 1.35-.32 1.92-.42l-.14 4.06c-.23.07-.46.14-.7.22zm-1.25.42-2.22-3.61c.62-.19 1.2-.35 1.74-.49l1.09 3.9c-.19.06-.4.13-.61.2zm-2.07.74-1.7-3.88c.31-.1.6-.19.89-.28l2.24 3.64c-.46.17-.93.34-1.43.52zm-2.33-3.67 1.71 3.9c-.32.12-.64.24-.97.36l-2.26-3.75c.3-.11.61-.21.92-.31.21-.07.4-.13.6-.2zm-1.55 5.15-1.82-3.97c.4-.15.8-.29 1.22-.44l2.27 3.76c-.55.21-1.11.43-1.67.65zm-2.45-3.74 1.83 3.98c-.3.12-.6.24-.91.36-.26-.5-.86-1.56-2.23-3.83.42-.18.86-.34 1.31-.51zm-2.69 5.74-2.2-3.77c.43-.19.94-.41 1.54-.66l1.71 4.02c-.37.15-.72.29-1.05.41zm-1.46.53c-.55-.26-1.6-2.87-1.82-3.78.12-.07.28-.15.48-.25l2.17 3.73c-.4.16-.7.27-.83.3zm3.89-1.48c-.25.1-.51.2-.75.3l-1.72-4.03c.25-.1.51-.21.79-.32.93 1.54 1.88 3.14 2.24 3.83-.18.08-.37.15-.56.22zm13.06-4.45 1.29-3.29c.65.53 1.37 1.13 2.09 1.73l-2.26 1.66c-.38-.06-.73-.1-1.02-.11-.02.01-.07.01-.1.01zm5.89 1.22c-.34-.09-.7-.18-1.07-.28l1.17-.29 1 .86c-.35-.1-.74-.2-1.1-.29z" fill="#000000" stroke-width="none" opacity="1"></path></g></g></g><g id="svga-group-beardwrap" transform="matrix(1,0,0,1,0,0)"><g id="svga-group-beard-single-move" transform="matrix(1,0,0,1,0,0)"><g id="svga-group-beard-single" transform="matrix(1,0,0,1,0,0)"></g></g></g><g id="svga-group-mustache-single-move" transform="matrix(1,0,0,1,0,0)"><g id="svga-group-mustache-single" transform="matrix(1,0,0,1,0,0)"></g></g><g id="svga-group-nose-single-move" transform="matrix(1,0,0,1,0,0)"><g id="svga-group-nose-single" transform="matrix(1,0,0,1,0,0)"><path id="SvgjsPath60955" d="M98.92 93.95c1.67-.17 5.27 2.68 7.28 4.93 2.01 2.26 3.68 6.36 1.76 7.94-1.92 1.59-2.34.5-4.85 2.51s-3.43 2.43-5.19.67c-1.76-1.76-3.6-2.43-5.69-2.59-2.09-.17-2.17-3.18-1.51-4.77.67-1.58 3.35-8.19 8.2-8.69z" fill="#ffffff" stroke-width="none" opacity="1"></path><path id="SvgjsPath60956" d="M95.87 86.37c-2.3 5.24-4.2 10.53-5.58 16.08-.46 1.86-.89 4.11 1.08 5.31.8.49 1.67.41 2.57.46 1.73.1 2.47 1.27 3.64 2.32 1.29 1.15 2.92 1.71 4.42.64.88-.63 1.4-1.66 2.32-2.24 1.04-.66 2.37-.46 3.4-1.18 3.48-2.43.4-7.31-1.36-9.73-.43-.59-1.43-.02-.99.58.94 1.29 1.82 2.69 2.41 4.18.34.86.5 1.77.21 2.69-.45 1.45-1.62 1.62-2.88 1.94-1.49.38-2.16 1.33-3.22 2.35-2.2 2.12-3.74-.64-5.42-1.87-.51-.37-1.01-.62-1.63-.74-.9-.17-2.06.13-2.87-.38-1.47-.94-.87-2.69-.55-4.01.27-1.09.51-2.19.82-3.27 1.2-4.3 2.85-8.46 4.65-12.54.26-.68-.73-1.26-1.02-.59z" fill="#000000" stroke-width="none" opacity="1"></path></g></g><g id="svga-group-hair-front" transform="matrix(1,0,0,1,0,0)"><path id="SvgjsPath60883" d="M53.2 71.9S56 77 56.8 84.7c.3 2.8 3.1 3.5 3.1 3.5s.6-20.4 2.6-23.8c2-3.4 1.1-9.6 3.1-14.1s6.1-11.5 9.2-11.7 17.6 9.2 25.8 9.2 23.7-9.2 25.7-9.2 7.1 6.9 8.6 10.6c1.6 3.7 1.4 17.5 2.4 18.4 1 1 1.8 4.7 2.2 7.8s.7 12.6.7 12.6 2.7-.5 3.5-3.8.4-9.9 1.4-11.1 2-2.4 2-4.9.2-15.7-1.1-20c-1.4-4.3-4.7-13.5-7.6-15.3 0 0 .4-3.5-3.3-7.1-3.7-3.5-10.4-8.6-20.4-10.4 0 0-10.4-3.7-19.2-2.9s-12.7-8-12.7-8-1.2 5.9.8 9.8c0 0-7.6-5.1-8.6-9 0 0-.4 4.1 1.2 8.2 0 0-3.3-2.5-4.1-5.3 0 0-1.6 3.3-.6 6.9 0 0-3.5-.6-4.1-2.9 0 0-5.1 8.2-3.5 18.4 0 0-2.5 1.8-4.1 5.3s-3.9 11-4.3 15.7c-.7 4.7-2.3 20.3-2.3 20.3z" fill="#ffffff" stroke-width="none" opacity="1"></path><path id="SvgjsPath60884" d="M146.9 47.9c-1.2-3.9-4.4-12.9-7.6-15.5v-.5c.1-.2.1-.5-.1-.6-.3-1.5-1.1-3.8-3.5-6.1-6-5.7-13-9.2-20.8-10.6-1.1-.4-10.9-3.7-19.6-3-8 .7-11.6-7.1-11.7-7.5-.2-.4-.6-.6-1-.6s-.8.4-.9.8c0 .2-.7 3.8-.1 7.4-2.4-1.9-5.3-4.6-5.8-6.6-.1-.5-.6-.8-1-.8-.5 0-.9.4-.9.9 0 .1-.2 2.3.3 5-.6-.7-1-1.5-1.2-2.2-.1-.4-.5-.7-.9-.7s-.8.2-1 .6c-.1.1-1.3 2.7-1 5.9-.8-.4-1.7-.9-1.9-1.8-.1-.4-.4-.7-.8-.7-.4-.1-.8.1-1 .5-.2.3-5.1 8.4-3.8 18.5-.9.7-2.7 2.5-4 5.3-1.6 3.6-4 11.1-4.4 16-.4 4.6-1.9 20.2-1.9 20.3 0 .2 0 .4.1.6 0 0 2.7 5 3.5 12.4.4 3.4 3.7 4.3 3.9 4.3h.3c.2 0 .4-.1.6-.2.2-.2.4-.5.4-.8.3-8.1 1.1-21 2.5-23.3.3-.6.6-1.3.8-2 .1-.1.1-.2.1-.3.4-1.5.6-3.1.8-4.9.3-2.4.5-5 1.4-7 2.3-5.2 6.1-10.9 8.3-11.1 1-.1 4.3 1.5 7.5 3 5.8 2.8 13.1 6.2 18.3 6.2 5.8 0 14.7-4.2 20.6-7 2.2-1 4.6-2.2 5.1-2.2 1.3.1 6 6 7.7 10 .8 1.9 1.1 6.9 1.4 11 .4 5.6.5 7.1 1.2 7.7.5.5 1.4 3.2 1.9 7.3.4 3.1.6 12.4.6 12.5 0 .3.1.6.4.7.2.2.5.3.8.2.1 0 3.4-.6 4.3-4.5.4-1.6.5-3.7.6-5.8.1-1.7.3-4.4.6-4.9 1-1.2 2.2-2.6 2.2-5.5v-1c-.1-4.3 0-15.3-1.3-19.4zm-1 7.5c-1.5 4.3-3.4 9.1-8 10.6-.2-1.3-.3-3.6-.5-5.5-.1-.9-.1-1.9-.2-2.8 3.6-2.4 6.2-6 7.4-10.2.1.3.2.7.3 1 .6 1.5.8 4.1 1 6.9zm-1.9-9.9c-.1.1-.2.2-.2.3-.9 4.2-3.2 7.8-6.7 10.4-.2-2.1-.4-4.1-.7-5.6 3-1.3 5.5-3.5 7.1-6.3.2.4.3.8.5 1.2zM137.3 32c-2.4 2-5.1 3.5-8 4.6-.7-4.1.8-8.1 3.9-11 .4.3.7.6 1.1 1 2.3 2.2 2.9 4.3 3 5.4zM126 37.5c-.1 0-.2.1-.2.1-1.5-2.4-2.5-5-2.8-7.8-.2-2.6.2-7.8 3.1-9.2 2.1 1.2 4.2 2.6 6.1 4.2-3.4 3.1-4.9 7.6-4.1 12.2-.7.2-1.4.4-2.1.5zm-13.5-21.7c-6 6.5 1.7 19.4 6.7 24.7-1.1.5-2.3 1.1-3.5 1.6-5.6-3.3-10.6-7.6-14.4-12.9-1.3-1.7-9.2-15.3-6.4-15.7h.5c6.5-.6 13.8 1.4 17.1 2.3zm-20.1-2.4c3.3 12.3 11.1 22.7 22 29.3-.9.4-1.7.8-2.6 1.1-14.4-3.7-24.8-15-27.5-29.1.1-.3.2-.6 0-.9l-.3-.6c-.3-1.7-.4-3.5-.4-5.3 1.7 2.2 4.6 4.9 8.8 5.5zm-9.6 1.7c.1.1.2.1.3.1 2 9.8 7.5 18.3 15.5 23.9-10.2-5.9-18-15.3-21.9-26.7 0-.1-.1-.2-.2-.3-.3-1.1-.5-2.1-.7-3 2.6 3 6.5 5.6 7 6zm-7.5-.8c.2.2.5.2.8.2 5.6 14.7 17.7 26 32.8 30.5-2.3.8-4.4 1.4-6.4 1.7C85.8 42.3 73.9 28.5 72 11.3c0-.1 0-.3.1-.4 1.3 1.9 3.1 3.3 3.2 3.4zm-4.2 1.8h.5c3.1 14 12.9 25.4 26.4 30.4-4.3-.8-9.8-3.3-14.3-5.5 0-.1-.1-.1-.2-.1-9.8-5.4-15.8-15.4-16.1-26.5 1.5 1.3 3.5 1.6 3.7 1.7zm-4.8.1c.7 8.6 4.7 16.5 11.2 22-1.2-.5-2.1-.7-2.8-.7h-.4c-4.1-1.5-8.1-3.6-9.9-7.5-.7-5.5.7-10.6 1.9-13.8zm-8.9 29c1.5 2.9 3.7 5.3 6.5 7.1-.4 1.7-.6 3.5-.8 5.2-.1 1.3-.3 2.6-.5 3.8-2.9-1.8-5.1-4.3-6.6-7.4.1-.9.1-1.6.2-2.2.1-1.9.6-4.2 1.2-6.5zm2.2 31.5c-2.4-3.4-4-7.2-4.7-11.3.1-.7.1-1.3.2-2 1.3 2.5 3.1 4.6 5.2 6.5-.3 2-.5 4.4-.7 6.8zm-1.8 7.8c-.8-6.9-3-11.7-3.6-12.9 0-.4.1-1.3.2-2.5 1 3.4 2.7 6.5 5 9.4-.2 3.2-.4 6.2-.4 7.9-.5-.3-1.1-.9-1.2-1.9zm2.7-16.2c-2.3-2.1-4-4.6-5.2-7.4.2-1.7.3-3.4.5-4.9 1.6 2.7 3.8 4.9 6.5 6.5-.2.5-.3.9-.6 1.3-.5.9-.9 2.5-1.2 4.5zm4.2-18.4c-.2.4-.3.8-.4 1.2-2.9-1.8-5.1-4.5-6.4-7.7l.9-3c2 2.6 4.7 4.5 7.8 5.5-1.1 2.1-1.8 3.8-1.9 4zm2.6-5.1c-3.3-1-6-3-8-5.9.4-1 .7-1.9 1.1-2.7 1.1-2.6 2.8-4.1 3.5-4.6 1.9 3.3 5.3 5.3 8.9 6.7-2.1 1.3-4 4-5.5 6.5zm53.1-4.8c-4.4-4.5-13-17.8-6.6-23.7.2.1.4.1.4.1h.2c3.7.6 7.2 1.8 10.4 3.5-1.9 1.4-2.6 4.1-2.9 6.4-.6 4.2.5 8.3 2.7 11.8-1 .4-2.3 1-4.2 1.9zm7.6-1.7c3.5-1 6.6-2.6 9.4-4.8l.3.3c.7.4 1.4 1.4 2.2 2.7-2 2.8-4.7 4.9-7.9 6.2-1.2-1.9-2.7-3.5-4-4.4zm4.9 5.4c3.1-1.3 5.7-3.3 7.8-6 .8 1.5 1.6 3.2 2.3 5.1-1.4 3-3.8 5.3-6.9 6.6-.1-.2-.1-.4-.2-.6-.5-1.3-1.7-3.2-3-5.1zm5.3 23.4c4.1-1.3 6.3-4.8 7.8-8.6 0 1.6.1 3.1.1 4.5-1.1 3.4-3.4 6.1-6.4 7.8-.4-1.4-.9-2.9-1.5-3.7zm4.5 16.9c-.3 1.3-1 2.1-1.6 2.5 0-1.4-.1-3.6-.2-5.7.9-.5 1.7-1.1 2.4-1.9-.2 1.9-.3 3.8-.6 5.1zm3.4-15.8c0 2.1-.8 3.1-1.8 4.3-.5.6-.7 1.9-.9 3.8-.5 1.3-1.4 2.4-2.6 3.2-.1-1.6-.2-3.1-.3-4.1-.1-.8-.3-1.9-.5-3.1 2.6-1.4 4.7-3.5 6.1-6.1v2z" fill="#000000" stroke-width="none" opacity="1"></path></g><g id="svga-group-glasses-single-move" transform="matrix(1,0,0,1,0,0)"><g id="svga-group-glasses-single" transform="matrix(1,0,0,1,0,0)"></g></g></g></g></g><rect id="svga-credit-rect" width="200" height="15" x="0" y="185" fill="#ecf0f1" opacity="0.5" style="display: none;"></rect><text id="svga-credit-text" font-family="Avenir Next, Roboto, Helvetica, Arial, sans-serif" font-size="10px" text-anchor="start" font-weight="400" size="10px" anchor="start" weight="400" fill="#333333" x="33.402061462402344" y="182.71133995056152" style="display: none;"><tspan id="SvgjsTspan60214" dy="13" x="33.402061462402344">Created on AvatarMaker.com</tspan></text></g></svg>