<svg xmlns="http://www.w3.org/2000/svg" version="1.1" width="600px" height="600px" viewBox="0 0 200 200" style="overflow:hidden!important;"><defs id="SvgjsDefs52453"></defs><g id="svga-group-wrapper"><g id="svga-group-backs-single"></g><g id="svga-group-humanwrap-move" transform="matrix(1,0,0,1,0,0)"><g id="svga-group-humanwrap" transform="matrix(1,0,0,1,0,0)"><g id="svga-group-hair-back-move" transform="matrix(1,0,0,1,0,0)"><g id="svga-group-hair-back" transform="matrix(1,0,0,1,0,0)"><path id="SvgjsPath53102" d="M81.9 28.3s36.8-8.4 46.4-4.5 16.8 9 21 21.9 2.1 38.6 1.8 52.4 4.5 26.9 4.5 26.9c-4.2-4.8-7.5-13.8-7.5-13.8 0 9.6 9.3 28.7 9.3 28.7-5.7-3.3-15.3-18-15.3-18 0 5.7 4.8 18.3 4.8 18.3-4.5-3.3-9.9-11.7-9.9-11.7.6 6 3.6 18.6 3.6 18.6-4.5-3.6-10.5-16.2-10.5-16.2 0 4.5.9 12.6.9 12.6-4.2-4.5-5.1-8.1-5.1-8.1.3 8.7 3.9 19.5 3.9 19.5-3-2.7-6.9-6-6.9-6s.9 7.8.9 9c0 7.2-10.8-14.1-10.8-14.1 0 3.3 1.8 15.6 1.8 15.6-3-3.6-10.2-11.7-10.2-11.7l-.6 12-8.4-10.8-2.7 7.2-2.1-6.9-5.7 9.9-.9-12.9-10.5 9.3.9-9-5.1 7.8c1.2-4.2 2.4-13.8 2.4-13.8l-7.8 8.1c2.1-4.5 3.3-16.8 3.3-16.8-3 6-12.3 13.8-12.3 13.8.9-3.9 1.2-8.7 1.2-8.7l-7.8 7.5c5.4-8.7 6.3-18.6 6.3-18.6L44 134.2c4.8-9.3 6.3-21.6 6.3-21.6-3.3 4.8-10.2 9-10.2 9 8.7-9.6 8.4-33.8 9.9-59.9 1.5-26 13.8-29.3 13.8-29.3l18.1-4.1z" fill="#ffffff" stroke-width="none" opacity="1"></path><path id="SvgjsPath53103" d="M104 160.7c-.3 0-.6-.1-.8-.4l-7.3-9.4-2.1 5.5c-.2.4-.5.7-1 .6-.4 0-.8-.3-.9-.7l-1.4-4.7-4.5 7.9c-.2.4-.7.6-1.1.5s-.7-.5-.8-.9l-.8-10.8-9 7.9c-.3.3-.8.3-1.1.1-.4-.2-.6-.6-.5-1l.5-4.9-2.8 4.4c-.3.4-.8.6-1.3.4-.4-.2-.7-.7-.5-1.2.7-2.6 1.5-7.4 2-10.6l-5.7 5.9c-.3.4-.9.4-1.3.1-.4-.3-.5-.8-.3-1.2 1.2-2.6 2.2-8.2 2.7-12.2-3.9 5.1-9.8 10.1-10.1 10.4-.3.3-.8.3-1.2.1s-.5-.7-.5-1.1c.5-2 .8-4.2.9-5.9l-5.9 5.6c-.4.4-.9.4-1.3.1s-.5-.9-.2-1.3c3.6-5.8 5.2-12.3 5.8-15.7l-8.8 6.9c-.4.3-.9.3-1.3 0s-.5-.8-.2-1.2c3.1-6 4.8-13.4 5.6-17.7-3.5 3.6-7.9 6.3-8.1 6.4-.4.3-1 .2-1.3-.2s-.3-.9 0-1.3c7.1-7.9 8-26.3 9-47.7.2-3.8.4-7.7.6-11.6 1.5-26.5 14-30.1 14.5-30.2l18-4.2c1.5-.3 37.2-8.4 47-4.4s17.3 9.3 21.5 22.5c3.5 10.6 2.7 29.9 2.1 44-.1 3.2-.2 6.2-.3 8.8-.3 13.4 4.4 26.4 4.4 26.6.2.5 0 1-.4 1.2s-.9.2-1.3-.2c-1.7-2-3.3-4.6-4.6-7.1 2.5 9.4 7.9 20.8 8 20.9.2.4.1.9-.2 1.2s-.8.4-1.2.1c-4.1-2.4-10-10.3-13.3-14.9 1.2 5.9 4.2 13.8 4.2 13.9.2.4 0 .9-.3 1.2-.4.3-.8.3-1.2 0-2.7-2-5.7-5.7-7.7-8.4 1.1 6.2 3 14.2 3 14.3.1.4-.1.8-.4 1.1-.4.2-.8.2-1.2-.1-3-2.4-6.5-8.3-8.7-12.4.3 3.9.7 7.9.7 7.9 0 .4-.2.8-.6 1-.4.2-.9.1-1.1-.2-1.2-1.3-2.1-2.5-2.8-3.5 1.1 7 3.3 13.8 3.3 13.9.1.4 0 .9-.4 1.2-.4.2-.9.2-1.2-.1-1.6-1.5-3.5-3.1-4.9-4.3.3 2.4.6 5.8.6 6.6 0 .5 0 2.1-1.3 2.4-.6.2-2.5.6-9.1-11.7.5 4.6 1.4 10.5 1.4 10.6.1.4-.2.9-.6 1.1-.4.2-.9.1-1.2-.3-2.1-2.5-6.2-7.2-8.5-9.8l-.5 9.5c0 .4-.3.8-.7.9.2-.2.1-.2 0-.2zm9-17.9c.4 0 .7.2.9.5 3.1 6.1 7.1 13 8.9 14.7v-.1c0-.8-.5-5.8-.9-8.9 0-.4.2-.8.5-1 .4-.2.8-.1 1.1.1 0 0 2 1.7 4.3 3.7-1.1-3.9-2.7-10.5-2.9-16.3 0-.5.4-1 .9-1 .5-.1 1 .3 1.1.7 0 0 .6 2.2 2.8 5.2-.3-2.8-.6-6.7-.6-9.4 0-.5.3-.9.8-1s.9.1 1.1.5c0 .1 4 8.4 7.8 13.2-.9-4.2-2.4-11-2.8-15.1 0-.5.2-.9.7-1 .4-.1.9 0 1.2.4 0 .1 3.3 5.1 6.7 8.8-1.4-4.2-3.5-11-3.5-14.8 0-.4.3-.8.7-1 .4-.1.9 0 1.1.4.1.1 6.5 9.9 11.7 15.1-2.7-6.2-7.6-18.1-7.6-25.3 0-.5.3-.9.8-1s.9.2 1.1.6c0 .1 1.5 4.1 3.7 8.1-1.3-5.2-2.8-12.9-2.6-20.9.1-2.6.2-5.6.3-8.8.6-13.9 1.3-33-2-43.3-4-12.4-10.8-17.3-20.4-21.2-9.2-3.7-45.4 4.4-45.8 4.5l-18 4.2c-.1 0-11.6 3.5-13 28.4-.2 3.9-.4 7.8-.6 11.6-.9 18.4-1.6 34.6-6.5 44.3 1.9-1.5 4.1-3.5 5.5-5.6.3-.4.7-.5 1.2-.4s.7.6.6 1.1c-.1.4-1.2 9.6-4.7 18.1l7.6-5.9c.3-.2.7-.3 1.1-.1.3.2.6.6.5 1 0 .3-.6 6.6-3.6 13.6l3.4-3.3c.3-.3.7-.4 1.1-.2.4.2.6.6.6 1 0 .2-.2 2.9-.7 5.9 2.9-2.7 7.9-7.5 9.8-11.5.2-.4.7-.6 1.2-.5s.8.6.7 1.1c0 .4-.7 7.5-2 12.9l4.8-5c.3-.3.8-.4 1.2-.2.4.2.6.6.6 1 0 .3-.6 4.5-1.3 8.6l2.2-3.3c.3-.4.7-.5 1.2-.4.4.2.7.6.7 1l-.6 6.4 8.6-7.6c.3-.3.7-.3 1-.2.4.1.6.5.6.9l.7 9.6 4.1-7c.2-.3.6-.5 1-.5s.7.3.8.7L93 153l1.7-4.4c.1-.3.4-.6.8-.6.4-.1.7.1.9.4l6.7 8.6.5-9.3c0-.4.3-.8.7-.9.4-.1.8 0 1.1.3.1.1 4.6 5.2 8 9.1-.5-3.9-1.3-10.1-1.3-12.3 0-.5.3-.9.8-1-.1-.1 0-.1.1-.1z" fill="#000000" stroke-width="none" opacity="1"></path></g></g><g id="svga-group-humanbody-back"><path id="SvgjsPath52863" d="M77.6 118.3c0 19.3 3.4 44.1-10 51.9-13.4 7.9-31.9 11.3-37.8 22s-4.4 25.3-4.4 25.3h149.3s.7-18.9-5.1-26.4c-8.1-10.4-27.8-15.5-37.7-20.9s-13.4-25.1-13.4-52.4l-40.9.5z" fill="#ffffff" stroke-width="none" opacity="1"></path><path id="SvgjsPath52864" d="M175.8 218.7H24.4l-.1-1c-.1-.6-1.5-15.1 4.5-26 4.1-7.4 13.5-11.3 23.5-15.5 5-2.1 10.2-4.3 14.8-6.9 10.6-6.2 10.1-23.9 9.6-41-.1-3.5-.2-6.8-.2-10v-1.1l43.2-.4v1.1c0 29.9 4.2 46.7 12.8 51.4 2.9 1.6 6.7 3.2 10.8 4.9 10 4.1 21.3 8.8 27.2 16.3 6.1 7.7 5.4 26.4 5.4 27.1l-.1 1.1zm-149.3-2.2h147.1c0-4.1-.2-18.5-4.9-24.6-5.5-7-16.6-11.6-26.3-15.6-4.1-1.7-8-3.3-11-5-5.1-2.8-8.7-8.9-10.9-18.7-2-8.4-2.9-19.4-3-33.5l-38.6.4c0 2.8.1 5.7.2 8.8.5 17.8 1 36.1-10.7 43-4.7 2.7-9.9 4.9-15 7.1-9.6 4-18.7 7.8-22.4 14.5-5 8.6-4.7 20.1-4.5 23.6z" fill="#000000" stroke-width="none" opacity="1"></path><path id="SvgjsPath52865" d="M93.9 153.8c-.5 1.8-.4 3.4.5 5.2.8 1.6 2.1 2.7 3.9 2.9.4 0 .7-.5.5-.8-1.6-2.2-3.5-4.2-3.7-7.1 0-.7-1-.9-1.2-.2zm18.6 33.7c8.8.5 18.1-.7 26.6-2.9.7-.2.6-1.4-.2-1.3-8.8 1.1-17.7 2-26.5 3.3-.5.1-.3.9.1.9zm-49.4-5c3.8.9 7.6 1.9 11.5 2.8 3.6.8 7.4 2 11.1 2.1.7 0 .8-.9.2-1.2-3.5-1.4-7.5-1.7-11.2-2.5-3.8-.7-7.5-1.3-11.3-2-.5 0-.7.7-.3.8z" fill="#000000" stroke-width="none" opacity="1"></path></g><g id="svga-group-chinshadow-single"></g><g id="svga-group-humanbody-front"></g><g id="svga-group-clothes-single"><path id="SvgjsPath53000" d="M63.33 170.93s-12.22 5.29-16.7 6.92c-4.48 1.63-12.63 5.91-17.11 11.2-4.48 5.29-5.09 12.63-5.7 17.92-.61 5.29.58 11.73.58 11.73h152.36s.2-14.17-2.65-22.32-5.7-9.78-14.87-15.48c-9.16-5.7-18.53-7.94-26.07-11.61 0 0-3.05 12.83-30.55 14.26-27.48 1.43-34-6.92-39.29-12.62z" fill="#ffffff" stroke-width="none" opacity="1"></path><path id="SvgjsPath53001" d="M175.06 196.05c-2.9-8.3-5.87-10.15-14.69-15.63l-.6-.37c-5.81-3.62-11.81-5.9-17.1-7.91-3.23-1.23-6.28-2.39-9.06-3.75a1.02 1.02 0 0 0-.87 0c-.27.13-.47.38-.54.67-.03.12-3.19 12.12-29.63 13.49-11.02.58-18.6-.45-24.07-2.24-.04-.14-.21-.21-.31-.1-.46-.16-.91-.31-1.34-.48.01-.02.01-.04.02-.06.08-.25-.3-.35-.39-.11 0 .01 0 .01-.01.02-6.05-2.41-9.18-5.81-11.8-8.66l-.63-.68c-.29-.31-.74-.4-1.13-.24-.12.05-12.24 5.3-16.64 6.9-3.9 1.42-12.58 5.64-17.53 11.49-4.44 5.25-5.25 12.38-5.83 17.59l-.1.86c-.62 5.38.54 11.76.59 12.02.09.47.5.82.98.82h152.36a1 1 0 0 0 1-.99c.03-.56.19-14.42-2.68-22.64zm-4.34-4.67c-.51-.5-1.02-1-1.52-1.51.1-.08.19-.16.26-.22.46.55.87 1.12 1.26 1.73zm-1.89-1.17c.98 1.01 1.94 2.08 2.94 3.08.48 1 .94 2.12 1.4 3.42l.03.11c-1.74-1.87-3.76-3.55-5.68-5.25.51-.59.95-1.04 1.31-1.36zm-66.15-5.66c23.41-1.21 29.59-10.57 31.06-13.88.7.33 1.42.64 2.15.95-1.03 1.47-3.85 5.21-8.22 8.8-3.79 3.11-12.73 6.36-23.97 7.02.1-.66.16-1.34.25-2 .03-.19-.28-.19-.3 0-.08.66-.2 1.34-.27 2.01-.68.04-1.37.06-2.07.08.11-.96.07-1.97.08-2.92l1.29-.06zm-4.2 2.99c-.61-.01-1.22-.03-1.83-.05.07-.92.03-1.87.04-2.79.62 0 1.25 0 1.9-.02-.05.93-.14 1.92-.11 2.86zm.5-2.86c.67-.01 1.35-.03 2.04-.06-.08.95-.2 1.95-.18 2.92-.6.01-1.2.02-1.82.01.06-.95-.01-1.94-.04-2.87zm-2.73.03c-.03.91-.09 1.85-.06 2.76a65.89 65.89 0 0 1-3.39-.24c.04-.87.02-1.74.01-2.6 1.1.04 2.25.07 3.44.08zm-18.35-2.47c.39.13.8.25 1.21.37-.18.58-.36 1.18-.48 1.77-.35-.11-.7-.23-1.04-.34.11-.45.11-.94.2-1.4.04-.15.08-.27.11-.4zm1.71.51c.27.07.55.15.83.22-.1.6-.25 1.24-.31 1.86-.32-.09-.63-.18-.94-.28.18-.58.31-1.19.42-1.8zm1.26.33c1.02.25 2.11.48 3.26.67-.15.66-.3 1.35-.36 2.02a66.49 66.49 0 0 1-3.1-.79c.12-.62.14-1.29.2-1.9zm3.79.76c.58.09 1.17.18 1.78.26-.23.71-.39 1.46-.38 2.16-.43-.08-.87-.17-1.3-.26l-.39-.09c.15-.67.23-1.39.29-2.07zm2.14 1.07c.05-.25.12-.5.19-.75.45.06.92.11 1.39.15-.11.77-.22 1.55-.21 2.32-.51-.08-1.03-.17-1.55-.27.07-.48.08-.98.18-1.45zm2.02-.55c.48.05.97.09 1.47.12-.21.76-.38 1.63-.34 2.42-.46-.06-.92-.13-1.38-.2.16-.75.21-1.55.25-2.34zm1.67 1.71c.05-.53.15-1.04.28-1.55l1.56.09c-.03.85-.07 1.71-.06 2.57-.6-.06-1.2-.13-1.81-.21.01-.3 0-.6.03-.9zm-13.05-3.99c-.03.09-.07.18-.09.28-.11.45-.26 1-.24 1.5-.48-.17-.95-.34-1.41-.51.21-.55.4-1.11.57-1.68.38.14.77.28 1.17.41zm-2.2 1.08c-.4-.16-.8-.32-1.18-.48.22-.56.4-1.11.61-1.67.36.16.74.32 1.13.47-.21.56-.4 1.12-.56 1.68zm-6.64-5.73c-.52.46-.95 1.02-1.3 1.62-.5-.34-.96-.67-1.4-1 .55-.48 1.12-.97 1.64-1.48.34.28.69.57 1.06.86zm.33.25c.4.3.82.6 1.26.89-.36.33-.68.72-1 1.09l-.33.39c-.45-.27-.88-.54-1.29-.82.4-.57.86-1.07 1.36-1.55zm.65 2.22c.32-.36.66-.72.93-1.12.3.19.61.39.93.58-.46.42-.86.94-1.18 1.49a30.4 30.4 0 0 1-1.01-.57c.1-.13.22-.25.33-.38zm2.29-.29c.72.41 1.49.8 2.31 1.18-.27.54-.49 1.11-.59 1.69-1.06-.47-2.05-.95-2.96-1.43.38-.52.8-.97 1.24-1.44zm-4.71-3.37c-.55.49-1.08 1.03-1.6 1.55-.67-.52-1.26-1.03-1.78-1.51.27-.35.56-.67.89-.96.27-.23.56-.42.85-.61.51.5 1.05 1.01 1.64 1.53zm-1.98-1.88c-.66.4-1.24 1.03-1.68 1.65-.67-.64-1.21-1.23-1.63-1.74.33-.23.65-.47.97-.71.31-.23.63-.45.94-.68.44.49.91.98 1.4 1.48zm-2.11-2.24.14.16c.07.08.14.15.21.23-.36.26-.71.54-1.06.8l-.81.6c-.26-.33-.48-.63-.64-.87.92-.38 1.67-.7 2.16-.92zm-34.94 21.39c3.3 2.32 6.88 4.55 10.66 6 .42.86.84 1.79 1.24 2.78-3.8-2.44-8.08-4.62-12.15-6.46-.21-.09-.38.18-.18.31 3.94 2.51 8.31 5 12.62 6.88.35.91.69 1.86 1.01 2.87-4.79-2.96-10-5.52-15.06-8.01.58-2.22 1.42-4.4 2.68-6.38 2.36 1.56 4.76 3.26 7.31 4.42.17.08.4-.15.22-.29-2.21-1.75-4.8-3.12-7.27-4.52.24-.35.49-.69.75-1.02 1.39.84 2.81 1.74 4.29 2.36 1.28 1.53 2.75 3.62 4.15 6.34-3.39-1.84-6.81-3.56-10.08-5.64-.21-.17-.41.2-.19.36zm2.17-3.83c.17-.2.36-.4.54-.6.43.32 1.27 1.01 2.32 2.12-.93-.55-1.9-1.04-2.86-1.52zm-5.05 28.02c-.09-.6-.22-1.5-.33-2.57.27.18.53.37.83.48.19.07.33-.2.2-.34-.29-.29-.68-.47-1.03-.69a.21.21 0 0 1-.06-.04c-.06-.64-.11-1.33-.15-2.05 2.35 1.98 4.97 3.93 7.81 5 .17.06.25-.19.12-.28-2.66-1.83-5.42-3.37-7.96-5.37-.05-1.15-.05-2.35.03-3.51 5.06 3.02 10.09 6.25 15.34 8.91.21.11.39-.19.19-.32-4.95-3.29-10.31-6.1-15.47-9.05-.01-.01-.02 0-.03 0 .02-.27.05-.53.08-.79l.1-.86c.28-2.47.59-5.22 1.27-7.94 4.87 2.8 9.89 5.66 15.01 7.97.1.05.2 0 .25-.07.53 1.69 1 3.52 1.41 5.51-5.55-3.1-11.15-6.03-16.6-9.31-.25-.15-.47.23-.23.39 5.33 3.59 11.04 7.02 16.97 9.57.23 1.19.43 2.43.61 3.73-5.98-3.51-12.01-6.6-17.65-10.69-.21-.15-.4.19-.2.35 5.39 4.15 11.38 8.26 17.81 10.59.03.01.05 0 .07 0 .06.46.12.92.17 1.39H25.25zm20.56 0c-2.15-19.99-10.98-28.11-13.53-30.06 4.49-4.18 10.97-7.49 14.7-8.85 2.71-.99 8.13-3.26 12.08-4.94 1.5 2.4 7.65 10.32 25.28 14.1a73.48 73.48 0 0 0 15.4 1.63c13.64 0 24.62-3.84 29.22-7.62 5-4.11 8-8.31 8.84-9.57 1.36.54 2.75 1.07 4.18 1.62 5.46 2.08 11.11 4.23 16.75 7.74l.6.37c4.04 2.51 6.74 4.2 8.76 6.08-.7.55-1.94 1.69-3.35 3.62-.1.03-.18.12-.17.23-3.01 4.21-6.75 12.03-7.84 25.65H45.81zm119.12 0c-1.79-1.72-3.73-3.28-5.65-4.85.14-.98.3-1.93.47-2.84 2.53 2.85 5.37 5.59 8.57 7.69h-3.39zm-3.55 0c-.74-.73-1.62-1.34-2.47-1.94.09-.83.19-1.64.3-2.42 1.71 1.5 3.43 3 5.24 4.36h-3.07zm-2.52-1.47c.61.52 1.24 1.03 1.9 1.47h-2.04c.04-.5.09-.99.14-1.47zm10.35 1.47c-3.34-2.56-6.52-5.13-9.35-8.27.19-.97.4-1.9.62-2.78 3.51 4.03 7.52 7.91 12.05 10.78.21.13.47-.19.27-.35-4.28-3.46-8.43-6.85-12.19-10.89-.01-.01-.01 0-.02-.01a49 49 0 0 1 .96-3.3c4 3.23 7.92 6.59 12.08 9.62.16.12.37-.15.22-.28-3.91-3.39-8.09-6.46-12.16-9.65-.01-.01-.02 0-.03-.01.5-1.48 1.02-2.81 1.56-4 3.48 3.92 7.31 7.78 11.67 10.7.18.12.39-.15.23-.29-3.99-3.56-8.02-6.94-11.7-10.83.39-.85.79-1.62 1.19-2.33 3.09 3.13 6.11 6.5 9.53 9.22.18.14.4-.07.25-.25-2.82-3.39-6.3-6.35-9.53-9.39.39-.66.76-1.26 1.13-1.79 2.55 2.64 5.08 5.41 7.93 7.66.17.13.37-.07.24-.24-2.31-2.84-5.16-5.34-7.87-7.85.32-.45.63-.85.93-1.21 2.02 1.95 4.01 4.01 6.25 5.68 2.06 6.71 2.29 16.89 2.3 20.08h-6.56z" fill="#000000" stroke-width="none" opacity="1"></path></g><g id="svga-group-head" transform="matrix(1,0,0,1,0,0)"><g id="svga-group-ears-left-move" transform="matrix(1,0,0,1,0,0)"><g id="svga-group-ears-left" transform="matrix(1,0,0,1,0,0)"><path id="SvgjsPath53010" d="M60.8 80.5c-.2-.3-3.3-4.3-5.9-6.7s-3.4-2.4-4.6-.9c-1.3 1.5-2.9 9.1-2.5 12.4.4 3.4 3.6 8.7 5.2 11.7 1.7 3 3.3 6.7 5.1 6.3 1.9-.4 4.4-4.6 5.7-7.7 1.2-3.1.6-10.9-3-15.1z" fill="#ffffff" stroke-width="none" opacity="1"></path><path id="SvgjsPath53011" d="M52.9 98.9c-.3-.5-.5-1-.8-1.4l-.6-1c-1.8-3.1-4.4-7.8-4.8-11-.4-3.5 1.2-11.4 2.7-13.2.6-.7 1.2-1.3 2.2-1.4 1.2-.1 2.3.7 3.9 2.2 1.6 1.4 3.5 3.6 5.8 6.5l.2.3c3.9 4.6 4.5 12.8 3.2 16.1-1.1 3-3.9 7.8-6.4 8.3h-.5c-2 .1-3.4-2.6-4.9-5.4zm7.2-17.8s-.1-.1-.2-.3c-2.2-2.8-4.1-5-5.6-6.3-1.2-1.1-2.1-1.7-2.4-1.7-.2 0-.4.2-.8.7-1 1.2-2.6 8.4-2.3 11.7.3 2.8 2.8 7.3 4.5 10.3l.6 1c.3.5.5 1 .8 1.4.9 1.7 2.5 4.6 3.3 4.4 1.2-.2 3.6-3.7 4.9-7.1 1.1-2.8.4-10.2-2.8-14.1z" fill="#000000" stroke-width="none" opacity="1"></path><path id="SvgjsPath53012" d="M50 87c-.3-2.3-.5-7.8.8-9.6 2.2-2.9 6 6.4 6.9 9.3 0 .1.1.2.1.3.2.3-.1.7-.4.6-.4-.2-.9-.6-1.3-.8-1.1-.5-1.6.5-1.3 1.8.4 1.8 1.4 2.9 2.2 4.3.1.2 0 .4-.2.3-1.6-.9-3.5-4.5-3.1-6.6.3-2 1.9-1.8 3.1-.8-.7-1.7-1.5-3.3-2.5-4.8-.6-.9-1.2-2-2.2-2.2-1.2-.2-1 .3-1.2 1.8-.8 4.8-.3 10.4 2.5 14.5.1.1 0 .2-.1.1-1.7-2.3-2.9-4.9-3.3-8.2z" fill="#000000" stroke-width="none" opacity="1"></path></g></g><g id="svga-group-ears-right-move" transform="matrix(1,0,0,1,0,0)"><g id="svga-group-ears-right" transform="matrix(1,0,0,1,0,0)"><path id="SvgjsPath53013" d="M139.2 80.5c.2-.3 3.3-4.3 5.9-6.7 2.6-2.4 3.4-2.4 4.6-.9s2.9 9.1 2.5 12.4c-.4 3.4-3.6 8.7-5.2 11.7-1.7 3-3.3 6.7-5.1 6.3s-4.4-4.6-5.7-7.7c-1.2-3.1-.6-10.9 3-15.1z" fill="#ffffff" stroke-width="none" opacity="1"></path><path id="SvgjsPath53014" d="M142.1 104.4h-.5c-2.5-.5-5.2-5.4-6.4-8.3-1.3-3.4-.7-11.5 3.2-16.1l.2-.3c2.3-2.9 4.2-5.1 5.8-6.5 1.6-1.4 2.7-2.2 3.9-2.2 1 .1 1.6.7 2.2 1.4 1.5 1.8 3.1 9.7 2.7 13.2-.4 3.2-3 7.9-4.8 11l-.6 1c-.3.5-.5.9-.8 1.4-1.4 2.7-2.8 5.4-4.9 5.4zm-2.2-23.3c-3.2 3.9-3.9 11.2-2.8 14.1 1.3 3.4 3.7 6.9 4.9 7.1.8.2 2.4-2.7 3.3-4.4.3-.5.5-1 .8-1.4l.6-1c1.7-3 4.2-7.5 4.5-10.3.4-3.3-1.3-10.5-2.3-11.7-.4-.4-.6-.7-.8-.7-.3 0-1.2.5-2.4 1.7-1.5 1.4-3.3 3.5-5.6 6.3 0 .2-.1.3-.2.3z" fill="#000000" stroke-width="none" opacity="1"></path><path id="SvgjsPath53015" d="M150 87c.3-2.3.5-7.8-.8-9.6-2.2-2.9-6 6.4-6.9 9.3 0 .1-.1.2-.1.3-.2.3.1.7.4.6.4-.2.9-.6 1.3-.8 1.1-.5 1.6.5 1.3 1.8-.4 1.8-1.4 2.9-2.2 4.3-.1.2 0 .4.2.3 1.6-.9 3.5-4.5 3.1-6.6-.3-2-1.9-1.8-3.1-.8.7-1.7 1.5-3.3 2.5-4.8.6-.9 1.2-2 2.2-2.2 1.2-.2 1 .3 1.2 1.8.8 4.8.3 10.4-2.5 14.5-.1.1 0 .2.1.1 1.7-2.3 2.9-4.9 3.3-8.2z" fill="#000000" stroke-width="none" opacity="1"></path></g></g><g id="svga-group-faceshape-wrap" transform="matrix(1,0,0,1,0,0)"><g id="svga-group-faceshape-single"><path id="SvgjsPath53080" d="M143.8 67.9c-.1-3.3-.3-8.9-1.4-14.2-2.3-11.4-15.1-28.8-42.4-28.8S63.6 38.3 59.5 48.2c-2.5 6.2-3.2 15.2-3.4 19.7 0 0 2.7 50.9 7.7 59.6 8.7 15.2 57.9 15.9 69.6 5.2 7.4-6.7 10.5-45 10.4-64.8z" fill="#ffffff" stroke-width="none" opacity="1"></path><path id="SvgjsPath53081" d="M102.1 141.8c-6.1 0-12.2-.4-17.7-1.3-8.9-1.4-17.6-5.7-21.5-12.5-5.1-8.9-7.9-58-7.9-60.2.2-4.8.9-13.8 3.4-20.1 6.6-16.2 20.1-24 41.5-24 12.3 0 23.2 3.6 31.3 10.4 6.3 5.2 10.9 12.5 12.2 19.3 1.1 5.5 1.3 11.4 1.4 14.4v4.1c.2 28-4.1 55.4-10.7 61.5-5.7 5.4-17 8.4-32 8.4zM57.3 67.9c0 18 3.7 52.4 7.6 59 2.7 4.7 7.9 9.6 19.9 11.4 20.3 3.1 41.1-.2 48-6.5 6.4-5.9 10.1-40.8 9.9-59.8v-4.1c0-3-.3-8.7-1.4-14-1.3-6.4-5.6-13.1-11.5-18-7.7-6.5-18-9.9-29.9-9.9-20.3 0-33.2 7.4-39.4 22.6-2.3 5.9-3 14.6-3.2 19.3z" fill="#000000" stroke-width="none" opacity="1"></path></g></g><g id="svga-group-mouth-single-move" transform="matrix(1,0,0,1,0,0)"><g id="svga-group-mouth-single" transform="matrix(1,0,0,1,0,0)"><path id="SvgjsPath52971" d="M106.7 125.7c-3.7 2.1-8.2 2.2-12 .3-.5-.2-1 .5-.5.8 4.1 2 8.9 1.9 12.9-.3.6-.3.1-1.1-.4-.8zM92 118c1.2-1.4 2.6-2.8 4.7-2.6 1.2.2 2.2 1.1 3.4 1.1 1 0 1.7-.6 2.6-.9 2-.8 3.8.3 5.5 1.4.2.2.5-.2.2-.4-1.3-.8-2.7-1.7-4.3-1.8-1.9 0-3.1 1.6-5 1.1-1.4-.4-2.5-1.2-4-.8-1.4.4-2.5 1.6-3.4 2.7-.2.1.1.4.3.2zm18.7 5.4c-2.8 0-4.6-1.6-5.3-2.4-4.2 3.3-8.4 1-9.6.2-3.8 2.8-8.1 1.9-8.3 1.9-.3-.1-.4-.3-.4-.6.1-.3.3-.4.6-.4 0 0 4.3.9 7.8-1.9.2-.2.4-.2.6 0 .2.1 4.7 3.5 9.1-.3.1-.1.2-.1.4-.1.1 0 .3.1.3.2.1.1 2.5 3.2 6.4 2.2.3-.1.5.1.6.4.1.3-.1.5-.4.6-.7.1-1.3.2-1.8.2z" fill="#000000" stroke-width="none" opacity="1"></path></g></g><g id="svga-group-eyes-left-move" transform="matrix(1,0,0,1,0,0)"><g id="svga-group-eyes-left" transform="matrix(1,0,0,1,0,0)"><g id="svga-group-eyesback-left"></g><g id="svga-group-eyesiriswrapper-left"><g id="svga-group-eyesiriscontrol-left" transform="matrix(1,0,0,1,0,0)"><g id="svga-group-eyesiris-left" transform="matrix(1,0,0,1,0,0)"><path id="SvgjsPath53129" d="M83.4 85c-1.1-2.1-3.5-2.9-5.7-2.2-2.4.8-4.2 3.3-3.3 5.9.5 1.4 1.6 2.6 3.1 2.9.5.1 1 .1 1.6.1.6.1 1.2 0 1.8-.2 2.5-.9 3.8-4 2.5-6.5z" fill="#ffffff" stroke-width="none" opacity="1"></path><path id="SvgjsPath53130" d="M79.4 92.1H79c-.5 0-1.1 0-1.6-.1-1.5-.3-2.8-1.6-3.3-3.2-.9-2.8 1.1-5.4 3.5-6.3 2.4-.8 5 .1 6.1 2.3.7 1.3.7 2.8.2 4.1-.5 1.3-1.6 2.4-2.9 2.8-.6.3-1.1.4-1.6.4zm-.4-.7c.6.1 1.2 0 1.7-.2 1.2-.4 2.1-1.3 2.6-2.5s.4-2.5-.2-3.6c-1-1.9-3.2-2.7-5.3-2-2.2.8-4 3.1-3.1 5.5.5 1.4 1.6 2.5 2.8 2.7.4.1.9.2 1.5.1zm2.6-5.3c0-.1 0-.1-.1-.2-.6-1.2-2.2-1.7-3.4-1.1.3.2.5.6.6.8.2.4.6 1.1.1 1.3-.4.2-1.1 0-1.4-.2-.2-.1-.4-.3-.5-.5 0 .1-.1.1-.1.2-.1.2-.1.5-.1.7-.2.7 0 1.5.6 2.1.3.2.6.4.9.4.6.3 1.3.4 2 .1-.1-.1-.2-.3-.2-.4 0-.3.2-.6.5-.7.3-.1.6 0 .8.2.3-.3.5-.8.6-1.2.1-.5 0-1-.3-1.5zm-5.2 1.3c-.5-.1-.9-.1-1.4-.2-.1 0-.1.1 0 .1.4.1 1 .3 1.4.3 0-.1.1-.2 0-.2zm-.1.9c-.2 0-.4.1-.7.1-.2.1-.5.1-.8.1-.1 0-.1.1 0 .1.5 0 1.1 0 1.5-.3.1 0 .1 0 0 0zm.4.9c-.2.1-.4.3-.6.4-.2.1-.4.2-.6.4-.1.1 0 .2.1.1.4-.3.9-.5 1.1-.9.1 0 .1-.1 0 0zm1 .7c-.3.3-.5.7-.7 1-.1.1.1.2.1.1.2-.3.5-.7.7-1 0-.1-.1-.2-.1-.1zm.9.4c-.1.4-.2.8-.2 1.2 0 .1.1.1.2 0 0-.4.1-.8.2-1.2-.1-.1-.2-.1-.2 0zm1.6.5c-.1-.2-.1-.3-.2-.5 0 0-.1 0-.1.1 0 .2.1.3.2.5s.1.4.2.6c0 .1.1.1.1 0-.1-.3-.2-.5-.2-.7zm1.3-.2-.3-.3c-.1-.1-.2-.2-.3-.4-.1-.1-.1 0-.1.1.1.1.2.3.3.4 0 .1.2.2.4.2 0 .1 0 0 0 0zm1-.8c-.1-.1-.3-.2-.5-.3l-.6-.3c-.1 0-.2.1-.1.1.2.1.4.3.6.4.2.1.4.2.6.2 0 0 .1 0 0-.1zm.6-1.4c-.2-.1-.3-.1-.5-.1s-.4-.1-.5-.2c-.1 0-.1.1-.1.1.3.1.7.3 1.1.3v-.1zm.2-1.9c-.4.1-.8.3-1.1.5-.1.1 0 .2.1.1.2-.1.4-.2.6-.2.2-.1.4-.1.6-.2 0-.1-.1-.3-.2-.2zm-.9-2.2-.1-.1s-.1 0-.1.1c0 0-.4.5-.5.5-.2.2-.3.4-.4.6-.1.1.1.1.1.1.3-.4.6-.7.9-1 .2-.1.2-.1.1-.2zm-2.1-.8c-.1.2-.1.4-.2.5-.1.2-.1.4-.2.6 0 .1.1.1.1 0 .1-.2.2-.4.2-.6.1-.2.2-.4.2-.6.1.1 0 0-.1.1zm-1.4.8c-.1-.2-.1-.3-.2-.5s-.1-.3-.2-.5c0-.1-.1-.1-.1 0-.1.3.2.8.3 1.1.1.1.3 0 .2-.1zm-1.3 0c-.1-.2-.2-.3-.3-.5 0-.1-.1 0-.1.1.1.2.2.4.2.6.1.2.2.4.3.4.1 0 .1 0 .1-.1 0-.2-.1-.4-.2-.5zm-.7 1-.3-.3c-.1-.1-.3-.2-.4-.3-.1-.1-.2 0-.1.1s.2.3.4.4c.1.1.2.2.4.3 0 0 .1-.1 0-.2zm-.8.9c-.3-.2-.7-.2-1-.3-.1 0-.1.1 0 .1.3.1.6.3.9.4.1-.1.1-.2.1-.2z" fill="#000000" stroke-width="none" opacity="1"></path></g></g></g><g id="svga-group-eyesfront-left"><path id="SvgjsPath53048" d="M79 72.1c-8.2 0-14.8 6.6-14.8 14.8s6.6 14.8 14.8 14.8 14.8-6.6 14.8-14.8c0-8.1-6.6-14.8-14.8-14.8zm4 21.1c-5.2.2-9.2-1.8-9.2-1.8s-10-6.3-3.4-8.9c6.4-2.5 14.5.2 17.2 2.8 2.7 2.6 2.3 7 2.3 7s-5 .8-6.9.9z" fill="#ffffff" stroke-width="none" opacity="1"></path><path id="SvgjsPath53049" d="M91.6 90.8c-.3.4-.7.8-1 1.1 0 .1-.1.1-.1.1 0-.2.1-.4.1-.6.1-.1.1-.2.2-.3.2-.4.5-.8.8-1.1.2-.2-.1-.5-.3-.3-.2.2-.4.5-.7.8V90c.1-.1.2-.3.3-.4.4-.5.7-1.1 1.1-1.6.1-.2-.2-.4-.3-.2-.4.5-.8.9-1.2 1.4 0-.1 0-.2-.1-.3.1-.1.1-.3.2-.4.3-.5.7-1 1.1-1.5.1-.2-.1-.4-.3-.3-.4.5-.9.9-1.3 1.4-.1-.2-.1-.3-.2-.5.5-.5.8-1.1 1.2-1.7.1-.2-.1-.3-.3-.2-.4.4-.8.9-1.1 1.4-.1-.1-.1-.2-.2-.4.5-.5.9-1.1 1.2-1.6.1-.2-.2-.4-.3-.2-.4.4-.9.8-1.3 1.3-.1-.1-.2-.2-.3-.4 0-.1.1-.1.1-.2l.9-1.2c.1-.2-.1-.3-.2-.2-.3.3-.7.7-1 1.1l-.2.2c-.1-.1-.2-.2-.2-.3.3-.3.5-.7.7-1.1.1-.1-.1-.3-.2-.2-.2.3-.5.6-.8.9-.1-.1-.3-.2-.4-.3.2-.2.4-.4.6-.7.1-.1-.1-.3-.2-.2-.2.2-.4.5-.6.7-.1-.1-.3-.2-.4-.3.2-.2.3-.4.5-.6.1-.1-.1-.3-.2-.1-.1.2-.3.4-.4.6-.2-.1-.5-.3-.6-.4.2-.2.4-.4.5-.7.1-.3 0-.3-.3-.2-.3.2-.3.3-.7.6-.1-.1-.2-.1-.3-.2.2-.2 0-.4-.3-.3-.1 0-.1.1-.2.1-1.2-.6-2.5-1-4.1-1.4-4.1-1-7.7-.9-10.6.3-1.3.5-2.2 1.2-2.5 2.2-.4 1-.1 2.2.7 3.5 1.9 3 5.3 5.1 9.4 5.9 1.6.3 3.2.4 5.1.3 1.8-.1 3.8-.4 6-.9.2 0 .3-.2.4-.3.1.2.2.3.4.4h.2c0 .2.2.3.3.2.3-.2.6-.6.8-1l.9-1.2s-.2-.1-.3 0zm-2.3 1.3c-.1-.2-.3-.4-.6-.4h-.1c-4.2.9-7.6 1.1-10.6.6-3.8-.7-6.9-2.7-8.7-5.4-.4-.7-.9-1.7-.6-2.5.2-.6.8-1.1 1.9-1.5 2.7-1.1 6-1.1 9.9-.2 3 .7 5.1 1.7 6.6 3.2 1.9 1.7 2.7 4.1 2.2 6.2zm-19 0c-1.1-1.2-2.2-2.5-3.1-3.8-.1-.1-.3 0-.2.1 1.4 2.7 3.8 5.4 6.6 6.8.1.1.2-.1.1-.2-1.1-.9-2.3-1.8-3.4-2.9z" fill="#000000" stroke-width="none" opacity="1"></path></g></g></g><g id="svga-group-eyes-right-move" transform="matrix(1,0,0,1,0,0)"><g id="svga-group-eyes-right" transform="matrix(1,0,0,1,0,0)"><g id="svga-group-eyesback-right"></g><g id="svga-group-eyesiriswrapper-right"><g id="svga-group-eyesiriscontrol-right" transform="matrix(1,0,0,1,0,0)"><g id="svga-group-eyesiris-right" transform="matrix(1,0,0,1,0,0)"><path id="SvgjsPath53131" d="M125.4 85c-1.1-2.1-3.5-2.9-5.7-2.2-2.4.8-4.2 3.3-3.3 5.9.5 1.4 1.6 2.6 3.1 2.9.5.1 1 .1 1.6.1.6.1 1.2 0 1.8-.2 2.6-.9 3.8-4 2.5-6.5z" fill="#ffffff" stroke-width="none" opacity="1"></path><path id="SvgjsPath53132" d="M121.4 92.1h-.4c-.5 0-1.1 0-1.6-.1-1.5-.3-2.8-1.6-3.3-3.2-.9-2.8 1.1-5.4 3.5-6.3 2.4-.8 5 .1 6.1 2.3.7 1.3.7 2.8.2 4.1-.5 1.3-1.6 2.4-2.9 2.8-.6.3-1.1.4-1.6.4zm-.4-.7c.6.1 1.2 0 1.7-.2 1.2-.4 2.1-1.3 2.6-2.5s.4-2.5-.2-3.6c-1-1.9-3.2-2.7-5.3-2-2.2.8-4 3.1-3.1 5.5.5 1.4 1.6 2.5 2.8 2.7.5.1 1 .2 1.5.1zm2.6-5.3c0-.1 0-.1-.1-.2-.6-1.2-2.2-1.7-3.4-1.1.3.2.5.6.6.8.2.4.6 1.1.1 1.3-.4.2-1.1 0-1.4-.2-.2-.1-.4-.3-.5-.5 0 .1-.1.1-.1.2-.1.2-.1.5-.1.7-.2.7 0 1.5.6 2.1.3.2.6.4.9.4.6.3 1.3.4 2 .1-.1-.1-.2-.3-.2-.4 0-.3.2-.6.5-.7.3-.1.6 0 .8.2.3-.3.5-.8.6-1.2.1-.5 0-1-.3-1.5zm-5.2 1.3c-.5-.1-.9-.1-1.4-.2-.1 0-.1.1 0 .1.4.1 1 .3 1.4.3.1-.1.1-.2 0-.2zm-.1.9c-.2 0-.4.1-.7.1-.2.1-.5.1-.8.1-.1 0-.1.1 0 .1.6 0 1.2 0 1.5-.3.1 0 .1 0 0 0zm.5.9c-.2.1-.4.3-.6.4-.2.1-.4.2-.6.4-.1.1 0 .2.1.1.4-.3.9-.5 1.1-.9.1 0 0-.1 0 0zm.9.7c-.3.3-.5.7-.7 1-.1.1.1.2.1.1.2-.3.5-.7.7-1 0-.1-.1-.2-.1-.1zm.9.4c-.1.4-.2.8-.2 1.2 0 .1.1.1.2 0 0-.4.1-.8.2-1.2 0-.1-.2-.1-.2 0zm1.6.5c-.1-.2-.1-.3-.2-.5 0 0-.1 0-.1.1 0 .2.1.3.2.5s.1.4.2.6c0 .1.1.1.1 0-.1-.3-.2-.5-.2-.7zm1.3-.2-.3-.3c-.1-.1-.2-.2-.3-.4-.1-.1-.1 0-.1.1.1.1.2.3.3.4.1.1.2.2.4.2 0 .1.1 0 0 0zm1.1-.8c-.1-.1-.3-.2-.5-.3l-.6-.3c-.1 0-.2.1-.1.1.2.1.4.3.6.4.2.1.4.2.6.2v-.1zm.5-1.4c-.2-.1-.3-.1-.5-.1s-.4-.1-.5-.2c-.1 0-.1.1-.1.1.3.1.7.3 1.1.3.1 0 .1-.1 0-.1zm.2-1.9c-.4.1-.8.3-1.1.5-.1.1 0 .2.1.1.2-.1.4-.2.6-.2.2-.1.4-.1.6-.2 0-.1-.1-.3-.2-.2zm-.8-2.2-.1-.1s-.1 0-.1.1c0 0-.4.5-.5.5-.2.2-.3.4-.4.6-.1.1.1.1.1.1.3-.4.6-.7.9-1 .1-.1.1-.1.1-.2zm-2.1-.8c-.1.2-.1.4-.2.5-.1.2-.1.4-.2.6 0 .1.1.1.1 0 .1-.2.2-.4.2-.6.1-.2.2-.4.2-.6 0 .1-.1 0-.1.1zm-1.4.8c-.1-.2-.1-.3-.2-.5s-.1-.3-.2-.5c0-.1-.1-.1-.1 0-.1.3.2.8.3 1.1.1.1.2 0 .2-.1zm-1.4 0c-.1-.2-.2-.3-.3-.5 0-.1-.1 0-.1.1.1.2.2.4.2.6.1.2.2.4.3.4.1 0 .1 0 .1-.1.1-.2-.1-.4-.2-.5zm-.6 1-.3-.3c-.1-.1-.3-.2-.4-.3-.1-.1-.2 0-.1.1s.2.3.4.4c.1.1.2.2.4.3v-.2zm-.9.9c-.3-.2-.7-.2-1-.3-.1 0-.1.1 0 .1.3.1.6.3.9.4.1-.1.2-.2.1-.2z" fill="#000000" stroke-width="none" opacity="1"></path></g></g></g><g id="svga-group-eyesfront-right"><path id="SvgjsPath53050" d="M121 72.1c-8.2 0-14.8 6.6-14.8 14.8s6.6 14.8 14.8 14.8 14.8-6.6 14.8-14.8c0-8.1-6.6-14.8-14.8-14.8zm5.6 19.4s-3.8 2.2-9.1 2.2c-2 0-6.9-.5-6.9-.5s-.6-4.4 1.9-7.1 10.5-5.9 17-3.7c6.7 2.3-2.9 9.1-2.9 9.1z" fill="#ffffff" stroke-width="none" opacity="1"></path><path id="SvgjsPath53053" d="M133.1 83.2c-.3.2-.6.5-.8.7v-.1c-.1-.2-.2-.3-.3-.5.3-.3.6-.7.8-.9.2-.2-.1-.6-.3-.3-.2.3-.5.5-.8.8-.1-.1-.3-.3-.5-.4.2-.2.5-.4.7-.7.2-.2 0-.5-.2-.4-.3.2-.6.4-1 .7-.2-.1-.4-.2-.7-.3.1-.1.3-.3.5-.4.2-.1 0-.5-.2-.3-.2.1-.5.3-.8.5-.2-.1-.3-.1-.5-.1.2-.2.4-.4.6-.7.2-.2-.1-.5-.3-.3-.3.2-.6.4-.9.7l-.2.2c-.2 0-.3-.1-.5-.1.3-.2.5-.5.8-.7.2-.2-.1-.4-.2-.2-.3.3-.8.5-1.1.9-.3 0-.6-.1-1-.1l.4-.4c.1-.2-.1-.4-.3-.3-.3.2-.6.4-.8.7-2 0-4.2.3-6.5.9-3.1.9-5.3 2.1-6.9 3.8-2.1 2.2-2.9 5.2-2.1 7.7.1.3.4.5.7.4.2-.1.3-.2.4-.4.1.1.2.2.4.3 2.2.4 4.2.6 6.1.6 1.8 0 3.5-.2 5-.6 3.6-.8 6.6-2.8 8.4-5.3h.1c.5-.3.9-.9 1.3-1.4.1-.2-.1-.3-.2-.2-.2.2-.4.5-.6.7 0-.1.1-.1.1-.2.1-.2.2-.3.2-.5.3-.2.5-.5.7-.8.1-.1-.1-.3-.2-.2-.1.1-.2.1-.2.2.1-.2.1-.5.2-.7.2-.2.5-.3.7-.5.1-.1-.1-.3-.2-.2-.2.1-.3.3-.5.4 0-.3 0-.6-.1-.9.3-.3.6-.6.9-.8.3-.3.1-.4-.1-.3zm-2.3 3.6c-1.6 2.8-4.7 4.9-8.4 5.8-3 .7-6.3.7-10.6 0h-.1c-.2 0-.5.2-.6.4-.6-2 .1-4.5 1.8-6.3 1.5-1.5 3.5-2.6 6.4-3.5 3.6-1.1 6.8-1.2 9.5-.4.6.1 1.5.6 1.5.6.4.3.7.6.9.9.4.7 0 1.7-.4 2.5zm-17.7 9.5c-.7-.5-1.4-1-1.9-1.6-.2-.2-.4.1-.3.2 1 1.3 2.5 2.7 4.1 2.9.3 0 .5-.3.2-.5-.7-.3-1.4-.6-2.1-1z" fill="#000000" stroke-width="none" opacity="1"></path></g></g></g><g id="svga-group-facehighlight-single"></g><g id="svga-group-eyebrows-left-move" transform="matrix(1,0,0,1,0,0)"><g id="svga-group-eyebrows-left-rotate" transform="matrix(1,0,0,1,0,0)"><g id="svga-group-eyebrows-left" transform="matrix(1,0,0,1,0,0)"><path id="SvgjsPath52986" d="M62.66 77.41c.04-.09 4.24-8.75 14.97-7.95 10.68.8 13.58 8.22 13.7 8.53.2.53-.07 1.12-.6 1.32-.12.04-.24.07-.36.07-.42 0-.81-.25-.96-.67-.02-.06-2.54-6.5-11.93-7.21-9.3-.7-12.81 6.47-12.96 6.77-.24.51-.85.73-1.36.49-.52-.23-.74-.84-.5-1.35z" fill="#000000" stroke-width="none" opacity="1"></path></g></g></g><g id="svga-group-eyebrows-right-move" transform="matrix(1,0,0,1,0,0)"><g id="svga-group-eyebrows-right-rotate" transform="matrix(1,0,0,1,0,0)"><g id="svga-group-eyebrows-right" transform="matrix(1,0,0,1,0,0)"><path id="SvgjsPath52987" d="M137.34 77.41c-.04-.09-4.24-8.75-14.97-7.95-10.68.8-13.58 8.22-13.7 8.53-.2.53.07 1.12.6 1.32.12.04.24.07.36.07.42 0 .81-.25.96-.67.02-.06 2.54-6.5 11.93-7.21 9.3-.7 12.81 6.47 12.96 6.77.24.51.85.73 1.36.49.52-.23.74-.84.5-1.35z" fill="#000000" stroke-width="none" opacity="1"></path></g></g></g><g id="svga-group-beardwrap" transform="matrix(1,0,0,1,0,0)"><g id="svga-group-beard-single-move" transform="matrix(1,0,0,1,0,0)"><g id="svga-group-beard-single" transform="matrix(1,0,0,1,0,0)"></g></g></g><g id="svga-group-mustache-single-move" transform="matrix(1,0,0,1,0,0)"><g id="svga-group-mustache-single" transform="matrix(1,0,0,1,0,0)"></g></g><g id="svga-group-nose-single-move" transform="matrix(1,0,0,1,0,0)"><g id="svga-group-nose-single" transform="matrix(1,0,0,1,0,0)"><path id="SvgjsPath53174" d="M106.15 93.53c1.1 1.62 2.48 9.1 2.48 11.5 0 2.4-.33 3.23-1.24 3.39s-2.23-1.66-2.9-2.15c-.66-.5-1.49-.17-2.15 1.08-.66 1.24-1.74 2.23-2.73 2.23s-2.32-1.32-2.65-2.23c-.33-.91-.91-1.32-1.57-1.24-.66.08-2.07 1.57-2.81 1.41-.74-.17-1.66-.25-1.41-2.81s.74-7.53 2.15-10.1 11.26-3.39 12.83-1.08z" fill="#ffffff" stroke-width="none" opacity="1"></path><path id="SvgjsPath53175" d="M108.63 101.17a51.2 51.2 0 0 0-1.93-7.81c-.21-.65-1.25-.37-1.03.28.73 2.21 1.32 4.46 1.74 6.74.16.86 1.63 8.13-.68 7.41-.53-.16-1.05-1.16-1.43-1.52-.34-.31-.7-.58-1.16-.66-1.29-.2-1.96 1.07-2.58 1.98-.72 1.05-1.89 1.92-3.06.87-.66-.59-.87-1.55-1.45-2.22-.91-1.04-1.93-.86-3-.14-.43.29-.87.9-1.42.95-1.09.11-.95-1.21-.95-1.79 0-1.32.16-2.68.35-3.99.32-2.19.85-4.34 1.56-6.44.22-.65-.81-.93-1.03-.28-.71 2.1-1.24 4.25-1.56 6.44-.26 1.75-.75 3.97-.29 5.7.33 1.23 1.36 1.76 2.54 1.25.65-.28 1.15-1.03 1.8-1.25 1.34-.44 1.71 1.32 2.33 2.11.73.92 1.86 1.43 3.03 1.11.64-.17 1.14-.57 1.55-1.07.46-.56.81-1.59 1.44-1.96 1.17-.68 2.01 1.55 3.06 1.97 1.08.43 1.98-.38 2.37-1.34.8-1.88.12-4.4-.2-6.34z" fill="#000000" stroke-width="none" opacity="1"></path><path id="SvgjsPath53176" d="M97.9 98.24a4.3 4.3 0 0 1 4.71 1.77c.38.57 1.3.04.92-.54a5.382 5.382 0 0 0-5.92-2.26c-.65.18-.37 1.21.29 1.03z" fill="#000000" stroke-width="none" opacity="1"></path></g></g><g id="svga-group-hair-front" transform="matrix(1,0,0,1,0,0)"><path id="SvgjsPath53100" d="M76.9 39.3s-9.6.7-12.1 11.2c-2.2 9.4 2.8 64-18.3 77.1 0 0 9.8-12.5 8.6-26.8-1.2-14.3-2.7-40.4-1.5-52S60.7 29.5 72 26.5c0 0 2.7-14.3 27.9-16.6s36 9.8 42.2 22.6 4.8 28.5 2.1 49.9-3.6 37.2 5.6 46.7c0 0-11.9-2.7-16.1-19.9s9.6-33.6 1.6-57.1c-4.4-12.9-10.8-14.8-14.6-13.1-3.7 1.8-21.5 8.1-43.8.3z" fill="#ffffff" stroke-width="none" opacity="1"></path><path id="SvgjsPath53101" d="M150.7 128.4c-9.1-9.4-7.9-25.6-5.4-45.9 2.8-22.1 4.1-37.6-2.2-50.5-5.4-11.1-15.8-25.7-43.1-23.1-23 2.2-27.8 13.9-28.7 16.8-11.1 3.1-17.4 10.9-18.6 23-1.3 12.2.4 39.5 1.5 52.2 1.1 13.7-8.3 25.9-8.4 26.1-.3.4-.3.9 0 1.3s.9.4 1.3.2C63.7 118.2 64.5 84.1 65 63.7c.2-6 .3-10.8.8-12.9 2.1-9 9.6-10.3 11-10.4 24.8 8.5 43.7 0 44.5-.4 1-.4 2.5-.8 4.5 0 2.4 1 5.9 4 8.7 12.4 4.4 13 2.1 23.5-.1 33.8-1.7 7.9-3.4 15.5-1.5 23.2 4.3 17.6 16.3 20.5 16.8 20.7h.2c.4 0 .7-.2.9-.5.3-.4.2-.9-.1-1.2zM88.9 13.1c-7.7 5.1-12.3 14.1-11.3 24.1-2.4-3.5-3.8-7.4-4.1-11.7 1-2.7 4.5-8.9 15.4-12.4zM51.2 122.2c2.7-5.1 5.7-12.9 5-21.4C55.1 88.1 53.5 61 54.7 49c1.2-11.4 7.1-18.6 17.7-21.4h.1c.5 3.2 1.5 6.2 3.1 8.9-9.4-4.3-17.3 6.6-18.5 15.4-2.3 17 6.8 33.5 2.4 50.4v.3c-1.7 7.7-4.3 14.7-8.3 19.6zm12.6-71.9c-.6 2.3-.7 6.9-.8 13.3-.2 6.8-.4 15.3-1.2 23.8-.5-6-1.7-12.1-2.6-18.1-1.1-6.8-2-14.3-.1-21.1 2.2-7.4 9.7-14.6 17.4-9.8-1.5.2-10.3 1.8-12.7 11.9zm25.2-9c-7.1-11.3 8.2-20.6 17.7-22.4 9.9-1.8 19.2 1.3 25.9 8.1-5.3-3.9-11.8-5.8-18.5-3.6-7.8 2.5-12.5 10.7-9.8 18.5-4.4.4-9.6.3-15.3-.6zm31.5-3.2c-.4.2-6 2.7-14.9 3.6-3.1-8.7 3.5-16.9 12.3-17.8 8-.9 14.8 3.5 19.7 9.4 9.1 15 5.6 33-.2 49 1-5.1 1.9-10.6 1.7-16.6l.2-.2c3.6-7.7 4.4-17.7-.9-24.8-3.8-5.1-10.6-6.8-15.8-3.2-.9.2-1.5.4-2.1.6zm16 13.7c-3.1-9.1-7.1-12.4-9.8-13.6-.6-.3-1.3-.4-1.9-.6 6.4-3 13.1 2.6 15.1 9 1.8 5.5 1.2 11.3-.9 16.6-.5-3.6-1.2-7.4-2.5-11.4zm-1.6 57.2c-1.5-6.3-.6-12.5.8-19.1 8.6-21.4 15.7-50.2-5.4-66.7-9-7.1-21-7.8-31.4-3.2-8 3.6-16.2 12.2-11.6 21-2.7-.5-5.5-1.2-8.4-2.1v-.3c-2-12 4.7-23 15.3-27 1.8-.3 3.7-.6 5.8-.8 25.8-2.4 35.6 10.5 41.2 22 6 12.4 4.7 27.6 2 49.4-2.3 18.7-3.5 34 3.3 44.2-3.5-2-9-6.9-11.6-17.4z" fill="#000000" stroke-width="none" opacity="1"></path></g><g id="svga-group-glasses-single-move" transform="matrix(1,0,0,1,0,0)"><g id="svga-group-glasses-single" transform="matrix(1,0,0,1,0,0)"></g></g></g></g></g><rect id="svga-credit-rect" width="200" height="15" x="0" y="185" fill="#ecf0f1" opacity="0.5" style="display: none;"></rect><text id="svga-credit-text" font-family="Avenir Next, Roboto, Helvetica, Arial, sans-serif" font-size="10px" text-anchor="start" font-weight="400" size="10px" anchor="start" weight="400" fill="#333333" x="33.402061462402344" y="182.71133995056152" style="display: none;"><tspan id="SvgjsTspan52506" dy="13" x="33.402061462402344">Created on AvatarMaker.com</tspan></text></g></svg>