<svg xmlns="http://www.w3.org/2000/svg" version="1.1" width="600px" height="600px" viewBox="0 0 200 200" style="overflow:hidden!important;"><defs id="SvgjsDefs29024"></defs><g id="svga-group-wrapper"><g id="svga-group-backs-single"></g><g id="svga-group-humanwrap-move" transform="matrix(1,0,0,1,0,0)"><g id="svga-group-humanwrap" transform="matrix(1,0,0,1,0,0)"><g id="svga-group-hair-back-move" transform="matrix(1,0,0,1,0,0)"><g id="svga-group-hair-back" transform="matrix(1,0,0,1,0,0)"></g></g><g id="svga-group-humanbody-back"><path id="SvgjsPath29434" d="M77.6 118.3c0 19.3 3.4 44.1-10 51.9-13.4 7.9-31.9 11.3-37.8 22s-4.4 25.3-4.4 25.3h149.3s.7-18.9-5.1-26.4c-8.1-10.4-27.8-15.5-37.7-20.9s-13.4-25.1-13.4-52.4l-40.9.5z" fill="#ffffff" stroke-width="none" opacity="1"></path><path id="SvgjsPath29435" d="M175.8 218.7H24.4l-.1-1c-.1-.6-1.5-15.1 4.5-26 4.1-7.4 13.5-11.3 23.5-15.5 5-2.1 10.2-4.3 14.8-6.9 10.6-6.2 10.1-23.9 9.6-41-.1-3.5-.2-6.8-.2-10v-1.1l43.2-.4v1.1c0 29.9 4.2 46.7 12.8 51.4 2.9 1.6 6.7 3.2 10.8 4.9 10 4.1 21.3 8.8 27.2 16.3 6.1 7.7 5.4 26.4 5.4 27.1l-.1 1.1zm-149.3-2.2h147.1c0-4.1-.2-18.5-4.9-24.6-5.5-7-16.6-11.6-26.3-15.6-4.1-1.7-8-3.3-11-5-5.1-2.8-8.7-8.9-10.9-18.7-2-8.4-2.9-19.4-3-33.5l-38.6.4c0 2.8.1 5.7.2 8.8.5 17.8 1 36.1-10.7 43-4.7 2.7-9.9 4.9-15 7.1-9.6 4-18.7 7.8-22.4 14.5-5 8.6-4.7 20.1-4.5 23.6z" fill="#000000" stroke-width="none" opacity="1"></path><path id="SvgjsPath29436" d="M93.9 153.8c-.5 1.8-.4 3.4.5 5.2.8 1.6 2.1 2.7 3.9 2.9.4 0 .7-.5.5-.8-1.6-2.2-3.5-4.2-3.7-7.1 0-.7-1-.9-1.2-.2zm18.6 33.7c8.8.5 18.1-.7 26.6-2.9.7-.2.6-1.4-.2-1.3-8.8 1.1-17.7 2-26.5 3.3-.5.1-.3.9.1.9zm-49.4-5c3.8.9 7.6 1.9 11.5 2.8 3.6.8 7.4 2 11.1 2.1.7 0 .8-.9.2-1.2-3.5-1.4-7.5-1.7-11.2-2.5-3.8-.7-7.5-1.3-11.3-2-.5 0-.7.7-.3.8z" fill="#000000" stroke-width="none" opacity="1"></path></g><g id="svga-group-chinshadow-single"></g><g id="svga-group-humanbody-front"></g><g id="svga-group-clothes-single"><path id="SvgjsPath29574" d="M77.8 138.6c-5.2-1.2-10.8-2-10.3 3.7s1.4 7.9 1.4 7.9-5.6.9-4.8 5.7c.7 4.8 1.8 6.3 1.8 6.3s-2.3 1.2-2.9 3.2c-.5 2-.4 3.6-.4 3.6s-14.5 7-18.6 8.4-11.8 5.6-12.5 6.6c-.7 1.1-3.8 2.1-6.1 7.4s-5.9 14.5-3.2 27.3h156.1s-.2-20.5-4.1-25.9-5.9-6.4-5.9-6.4-.9-4.8-5.2-6.6-12.4-6.6-15.4-7.5c-3.1-.9-15.2-3.4-15.9-4.7s2-4.8-.2-7.9c-1.4-2-2.8-3.3-2.8-3.3s4-4.1 1.1-6.9c-2.9-2.9-3.5-4.2-3.5-4.2s1-3.6.3-6.4-7.5-1.1-9.8-1c-2.4.1-32.3 2.3-39.1.7z" fill="#ffffff" stroke-width="none" opacity="1"></path><path id="SvgjsPath29575" d="M175 192.2c-1.4-1.8-2.5-3.2-3.4-4.2l.1-.1c.1-.1 0-.3-.2-.2 0 0-.1 0-.1.1-1.1-1.1-1.8-1.8-2.2-2.1-.3-1.3-1.7-5.3-5.7-6.9-1.9-.8-4.6-2.2-7.2-3.6-3.4-1.8-6.5-3.4-8.3-4-.9-.3-2.5-.6-4.3-1.1-3.2-.8-9.9-2.4-11.1-3.2 0-.3.2-.9.3-1.4.4-1.7 1.1-4.2-.5-6.5-.9-1.2-1.7-2.2-2.2-2.8 1.5-1.9 2.9-5.1.5-7.6-1.9-1.9-2.8-3.1-3.2-3.6.3-1.1.8-4 .2-6.5-.8-3.2-5.8-2.4-9.2-1.9-.7.1-1.3.2-1.7.2-11 .9-33.3 2.1-38.7.8-4-.9-8-1.6-10.1.3-1.1 1-1.6 2.5-1.4 4.5.3 3.6.8 5.9 1.1 7-2.3.7-5.1 2.7-4.6 6.6.5 3.1 1 4.8 1.5 5.8-.8.6-2.1 1.8-2.5 3.3-.4 1.3-.4 2.5-.4 3.2-2.8 1.3-14.4 6.9-17.9 8.1-3.7 1.3-12.1 5.5-13 7-.1.2-.5.5-.9.8-1.3 1-3.5 2.8-5.3 6.7-2.7 6-5.9 15.4-3.3 27.9.1.5.5.8 1 .8h156.1c.3 0 .5-.1.7-.3s.3-.4.3-.7c-.1-.8-.3-20.8-4.4-26.4zm-18.1 25.5h-1.5v-1.4c7.8.4 15.7-2.5 21.3-7.9.1 1.2.2 2.5.3 3.6-4.7 3.4-9.8 5.3-15.5 5.7h-4.6zm-.5-13.5c6.6 1.7 13.7 0 19.4-3.7.1.8.3 1.5.4 2.3-6.1 5.1-12.4 8.1-20.5 8.3.1-2.1.3-4.5.7-6.9zm-.8 7.4c7.5.1 15.3-2.7 20.6-8.1.2 1.4.4 2.9.5 4.4-6.2 5.4-13 8.1-21.2 8.1 0-1.4 0-2.8.1-4.4zm20-11.5c-6.1 3.6-12.2 4.4-19.2 3.7.2-1.2.4-2.5.7-3.6 5.3.1 14.3-.5 16.9-5.6.7 1.3 1.2 3.3 1.6 5.5zm-1.9-6.1c-3.1 4.9-10.9 5.6-16.5 5.8 0-.1.1-.2.1-.3.4-1.7 1.1-3.1 1.8-4.3 4.5.6 9.3-.9 13.1-3.2l1.2 1.5c.1.1.2.3.3.5zm-1.8-2.6c-4 2.2-7.9 2.8-12.5 3.1.9-1.5 1.9-2.7 3.1-3.6 2.6.4 5.4-.1 7.6-1.6.5.6 1.1 1.3 1.8 2.1zm-2.2-2.5c-2.1 1.2-4.3 1.8-6.7 1.6 1.7-1.4 3.6-2.4 5.2-3 .2.2.7.7 1.5 1.4zm-39-28.7c1.1 1.5.6 3.3.2 4.8-.2.9-.4 1.6-.3 2.3-.5.7-1.8 1.7-3.5 2.9 1.7-3.2 1.3-7.5-.1-10.8.7-.7 1.3-1.3 1.7-1.8.5.7 1.2 1.6 2 2.6zm-63.6 10.3c-.8-2.1-.8-4.3.4-6.4.7.4 1.5.8 2.3 1.2-1.3 1.6-1.6 4.1-.9 6.2-.6-.3-1.2-.7-1.8-1zm5.5-18.4c-2.6 2.9-3.1 7.4-2.2 11.2-1-.5-1.9-1-2.6-1.4-.6-2.5-.4-5.1.8-7.6.4-.9 1.4-1.8 2.2-2.8.5.3 1.2.5 1.8.6zm5-12.5c.2.1.4.1.7.2-3.2 2.8-4 7.8-1.6 11.3-.7-.1-1.3-.3-2.1-.5-1.5-4-1.2-7.9 1.2-11.4.6.1 1.3.2 1.8.4zm11.5.5c1.4 0 2.8-.1 4.3-.1v1.7c-1.5-.3-3-.7-4.6-1.1 0-.1 0-.2.1-.3.1 0 .2-.1.2-.2zm17.2-.6c-.6 1.2-.7 2.3-.7 3.8v.4h-.1c-.9.1-2.8-.2-5.3-.6-.1-1.1-.1-2.3.2-3.3 2-.1 4-.2 5.9-.3zm5.8-.4c.1 1.1.2 2.2.2 3.4-2.2.6-4.5 1-6.2 1.2.1-1.6.3-3.1.9-4.2 1.9-.2 3.6-.3 5.1-.4zm3.1-.2c.2.6.1 1.8 0 2.8-.7.2-1.5.4-2.2.6 0-1.1-.1-2.1-.2-3.2.9-.1 1.8-.2 2.4-.2zm3.5 1.6c0-.4.3-.8.2-1.3 0-.2-.1-.5-.1-.7 1-.2 2.7-.4 4.2-.4.4.5.7 1.2.9 1.6.2.7.2 1.6.2 2.3 0 1.4-.4 2.7-.9 4v.1c-.8.4-1.8.9-3.1 1.4.7-1.6.6-3.5-.5-5.1.3-.1.6-.2.8-.4.5-.2.7-.9.4-1.3-.2-.5-.8-.7-1.3-.4-.3 0-.5.1-.8.2zm7.4 17.1c-1.2 1.2-2.8 2.7-4.5 4 .8-4 1-9-1.8-12 1.8-.6 3.2-1.2 4.2-1.8 2.2 2.9 2.9 6.3 2.1 9.8zm-13.1 7.7c.1-.4.1-.8.2-1.2 1-3.7 1.1-6.6.2-10.3-.2-.8-.3-1.7-.4-2.5.9-.2 1.8-.3 2.6-.5.8 2.4 1.4 4.8 1.4 7.4 0 2-1.2 4.4-1.4 6.3-.7.2-1.6.5-2.6.8zm-3.9 1c.1-2.6 0-5.3-.3-7.8-.3-2.1-1.2-4-1.7-6 1.5-.4 3-.7 4.5-.9.2 0 .4-.1.7-.1.7 5.4 2.1 9.1-.4 14.2-1 .1-1.9.3-2.8.6zm-33-.6v-.1c-2.1-4.6-2.1-8.4 1-12.3 1.3.3 2.6.5 3.8.7-.9 1.4-2.1 2.6-2.7 4.2-1 2.8 0 5.7-.2 8.5-.7-.2-1.3-.5-2-.8 0-.1 0-.1.1-.2zm2.7-25.7c1.1.4 2.5.8 4 1.2-1.2 1.1-1.3 2.3-1.2 4.1.1 2.3.6 4.5.1 6.7-1.3-.2-2.6-.4-4-.7-2.4-4-2.2-8 1.1-11.3zm.9 16.7c.5-.9 1.2-1.8 1.9-2.7 1.9.3 3.7.5 5.3.6-1.2 4.6-2.4 10.1.1 14.2-2.7-.3-5.5-1-8.1-1.9.1-.3.1-.6.2-.9.3-3.2-1.3-5.8.6-9.3zm8.4 12.3c-.1 0-.1 0 0 0H87.8c-2.5-4.9-.8-9.3-.2-14.3 1.2.1 2.4.1 3.5.1.8 0 1.6 0 2.4-.1-3.7 3.8-1.9 9.9.3 14.1-2.1.3-4.1.3-5.7.2zm5.8-25.1c2 .4 3.9.8 5.6 1.1 0 .5-.1 1-.2 1.6-.3 1.9-.6 3.7.2 5.5-1.8.3-3.7.6-5.9.7-.8-3.1-.4-5.8.3-8.9zm11.3 1.8h.4c0 1.6.1 3.4.2 5-.2.1-.4.1-.7.2-1.6.4-3.2.8-5 1.1-1-2.2-.2-4.3 0-6.6v-.2c2.3.3 4.1.5 5.1.5zm10.1-2c.4 1.8 1.1 3.4-.1 5.1-.7.2-1.5.3-2.3.5-.1-1.6 0-3.3 0-4.9.9-.2 1.6-.4 2.4-.7zm-3.2 5.7c-.3.1-.6.1-.8.1-1.6.2-3.1.6-4.6.9-.2-1.3-.4-3.1-.5-4.8 1.7-.1 3.9-.6 6.1-1.1-.2 1.7-.3 3.3-.2 4.9zm-17.8 19.4c-2.1-4.9-3.1-9.1-.3-14.1 2.3-.1 4.3-.4 6.2-.8-1.3 4.7.9 9.2 1.2 13.9-2.4.5-4.8.8-7.1 1zm7.8-2.4c-.5-4.4-2.4-8-1.3-12.5 1.8-.3 3.4-.7 5-1.1.2 0 .3-.1.5-.1v.1c.6 2.6 1.9 4.5 2.1 7.2.2 2.1.1 4.2 0 6.4v.1c-2 .5-4.1.9-6.2 1.3-.1-.5-.1-1-.1-1.4zm14.1-15.8c1.1-.2 2-.5 2.9-.8 2.8 3.8 2.6 7.6 1.9 12.2-.8.6-1.6 1-2.4 1.4-.4.1-.8.3-1.3.5.1-1.9.4-3.7.5-5.8-.1-2.6-.6-5.1-1.6-7.5zm2.6-8c.4.4.8.9 1 1.5.4 1.3.2 2.5-.3 3.6-.9.3-2 .6-3.3.9.8-1.4.4-3.1-.1-4.6-.1-.2-.1-.3-.1-.5 1-.3 1.9-.6 2.8-.9zm-19.3.3c-1.6-.3-3.5-.7-5.4-1.1V140c1.9-.1 3.8-.1 5.7-.2-.2.4-.3.9-.3 1.4v1.7zm-6.2.9c-1.4 2.7-1.3 6.1-.3 9-1.7.1-3.5.1-5.6-.1-1.4-3.4-1.3-6.9-.1-10.3 2.1.5 4.1.9 6 1.4zm-6.5 8.8c-1.3-.1-2.7-.2-4.1-.5.1-.2.2-.4.2-.6.9-3.2-1.8-7.4.4-10.2 1.1.3 2.3.6 3.6.9-1.5 3.4-1.4 7.1-.1 10.4zm-10.5.4c-3.1 3.3-3.7 9.1-.8 12.6-1.7-.7-3.2-1.4-4.6-2.1-.9-4.2.2-7.6 2.3-11.3 1.1.4 2.1.6 3.1.8zm-6.7 18.9c-.7-2.2-.3-4.1.6-6.4 1.4.7 2.9 1.4 4.6 2.1-.6 1.4-1.3 2.9-1.7 4.3-.2.6-.2 1.2-.1 1.8-1.2-.6-2.3-1.2-3.4-1.8zm4.4 2.2c-.7-1.4.1-3 .7-4.4.2-.6.5-1.3.7-1.9.7.3 1.5.6 2.3.9-.1.2-.1.4-.2.6-.8 2.2-1.5 4-.9 6-.9-.4-1.7-.8-2.6-1.2zm3.2 1.3c-.7-2.3.3-4.4 1.2-6.5 2.8 1 5.9 1.7 8.9 2-.5 2.1-.7 4.4.2 6.4-3-.3-5.6-.7-7.3-1-.9-.2-2-.5-3-.9zm11.1 2c-.9-2.2-.7-4.2-.4-6.4.7.1 1.3.1 2.1.1s1.8 0 2.7-.1c-1 2-.9 4.8-.2 6.9-1.4-.2-2.8-.3-4.2-.5zm4.9.5c-.5-1.4-.7-2.9-.4-4.5.2-.9.5-1.7.9-2.5 2.4-.2 5.1-.6 7.7-1v.2c-.2 3-1.2 6 .3 8.5-2.7-.2-5.6-.4-8.5-.7zm9.3.7c-1.6-2.5-.9-5.8-.5-8.8 2.1-.4 4.2-.8 6.2-1.3-.2 3.4-.5 6.9-.7 10.3-1.4 0-3.2-.1-5-.2zm6.4-10.2c1-.2 2-.5 3-.7 2.3 3.5 2.1 7.8-.3 11.1-.8.1-2 .1-3.7.1.3-3.4.8-7 1-10.5zm5.3 3.6c-.2-2.1-.8-3.3-1.1-4.7 1.1-.3 2.1-.6 3.1-.9.4.8 1.1 1.6 1.2 2.3.8 3 .2 5.9-1.3 8.3-1.4.7-2.7 1.2-3.6 1.5 1.2-1.9 1.9-4 1.7-6.5zm3.4-4.7c-.1-.4-.2-.8-.2-1.2.8-.3 1.4-.5 2-.7.8-.3 1.6-.8 2.4-1.3 2 2.5 3.2 5.2 2.3 8.4-2.2 1.4-4.6 2.9-6.8 4 1.3-2.9 1.1-5.9.3-9.2zm4.7-3.7c1.6-1.1 3.1-2.4 4.3-3.6 1.4 3.9.6 7.2-.7 11.2-.4.3-.9.6-1.3.9.7-3.1.1-6.4-2.3-8.5zm6.8-13.5c2.1 2.1-1 5.4-1.1 5.5v.1s-.3.4-.8.9c.4-3.2-.5-6.5-2.6-9 .6-.4 1.1-.7 1.5-1 .5.8 1.4 1.9 3 3.5zm-3.4-11.1c.5 2.1 0 4.8-.2 5.6-.3.3-.8.6-1.4 1 .8-2 1.3-5.8-.1-7.4.8 0 1.5.3 1.7.8zm-8.8-.2c.3 0 .6-.1 1-.1.1.7-.1 1.4 0 2.1-.7.2-1.4.5-2.2.7v-.6c.1-.6.4-1.1.3-1.7 0-.1-.1-.3-.1-.4h1zm-28.6 1.4c-.1.1-.1.2-.1.4-.5-.1-1-.2-1.5-.4h1.6zM75.2 139c-2.4 3.2-3 7.6-1.5 11.4-.7-.2-1.4-.3-2.1-.5.1-.4-.1-.9-.1-1.4-.4-.9-.7-1.9-.9-2.9-.5-2.3-.4-4.6.3-6.8 1.3-.2 2.9 0 4.3.2zm-5.9.4c.3-.3.8-.5 1.4-.6-.5 1.7-.8 3.3-.7 5.1.2 2.4 1.1 3.6.7 5.6-.3-.1-.6-.2-.9-.2-.3-.9-.8-3.1-1.2-7.1-.2-1.3.1-2.2.7-2.8zm-.4 11.8c.3.1.7.2 1 .3 0 .1-.1.2-.1.3-.3.6-1 1.2-1.3 1.8-1.5 2.5-1.9 5.4-1.4 8.1-.2-.1-.3-.2-.4-.2-.3-.5-1-2.1-1.5-5.7-.6-3.5 2.8-4.4 3.7-4.6zM64 165.6c.3-1 1.3-1.9 1.9-2.3.2.1.3.2.5.3l.6.3c-1.1 1.8-1.5 4-.9 6-1.1-.7-2-1.2-2.5-1.5 0-.6.1-1.6.4-2.8zm-19.6 12.7c3.7-1.3 15.6-7 18.2-8.2 2.2 1.4 11.3 7 17.2 8.1 5.4 1 21.5 2.6 29.1 2.6 1.4 0 2.5-.1 3.2-.2 3.7-.7 16.5-8.1 19.9-11.8 1.5.7 4.6 1.6 11.2 3.2 1.8.4 3.4.8 4.2 1.1 1.6.5 4.8 2.2 7.9 3.8 2.7 1.4 5.4 2.9 7.4 3.7 2.8 1.1 4 3.8 4.4 5.1-6.1 2.7-10 7-11.6 13.1-1.7 6.4-2 15.2-2 18.8H44.3c0-3.4-.3-15.1-2.2-21.3-2-6.3-6.4-10.7-8.9-12.5 2.1-1.3 7.7-4.2 11.2-5.5zm-14.5 39.4c-2.8-.3-5.2-1.1-7.4-2.9-.2-1.4-.3-2.8-.3-4.2 4.6 4.2 11.1 7.1 17.3 6.6.2 0 .2-.4 0-.4-6.8-.9-12.1-2.6-17.3-7 0-1.4.1-2.6.2-3.9 5.3 4.9 12.5 8 19.8 7.8.1 1.8.1 3.2.1 4.1l-12.4-.1zm1.1-31.9c.2-.2.4-.3.6-.5 1.5 1.1 4.5 3.7 6.7 7.6-3.5-1-6.5-2.8-8.7-5.9.5-.5 1-.9 1.4-1.2zm-1.7 1.5c2.1 3.2 5.6 5.8 9.4 6.3.5 1.1 1 2.2 1.4 3.4.3.8.5 1.8.7 2.8-6.1-.1-11.1-2.2-15.1-6.7.2-.5.4-.9.6-1.4 1-2.1 2-3.4 3-4.4zm-3.7 6.2c3.4 4.7 9.6 7.5 15.4 6.7.7 4 1.1 9 1.2 12.8-7.5-.6-13.8-2.7-19.7-7.6.1-1.1.3-2.1.5-3.1.9 1.2 2.5 2 3.8 2.7 3.1 1.7 6.4 3 9.9 3.6.3.1.4-.4.1-.4-2.6-.8-5.1-1.5-7.6-2.6-1.8-.8-5-2-6.1-4 .3-1.4.7-2.8 1.1-4.1 3.8 4.4 9.6 6.9 15.6 6.3.2 0 .3-.4 0-.4-6-.1-11.3-2.2-15.4-6.4.3-1.2.7-2.4 1.2-3.5zm-3 21.9c1.2 1 2.5 1.8 4 2.3H23c-.2-.8-.3-1.5-.4-2.3zm143.8 2.3c3.9-.8 7.5-2.5 10.7-4.9.1 1.9.2 3.6.2 4.9h-10.9zM39.2 196.9c.3 0 .2-.4 0-.4-4.7-.6-8.7-2.6-11.5-6.6-.1-.2-.4 0-.3.2 2.5 4 7 6.9 11.8 6.8z" fill="#000000" stroke-width="none" opacity="1"></path></g><g id="svga-group-head" transform="matrix(1,0,0,1,0,0)"><g id="svga-group-ears-left-move" transform="matrix(1,0,0,1,0,0)"><g id="svga-group-ears-left" transform="matrix(1,0,0,1,0,0)"><path id="SvgjsPath29584" d="M60.8 80.5c-.2-.3-3.3-4.3-5.9-6.7s-3.4-2.4-4.6-.9c-1.3 1.5-2.9 9.1-2.5 12.4.4 3.4 3.6 8.7 5.2 11.7 1.7 3 3.3 6.7 5.1 6.3 1.9-.4 4.4-4.6 5.7-7.7 1.2-3.1.6-10.9-3-15.1z" fill="#ffffff" stroke-width="none" opacity="1"></path><path id="SvgjsPath29585" d="M52.9 98.9c-.3-.5-.5-1-.8-1.4l-.6-1c-1.8-3.1-4.4-7.8-4.8-11-.4-3.5 1.2-11.4 2.7-13.2.6-.7 1.2-1.3 2.2-1.4 1.2-.1 2.3.7 3.9 2.2 1.6 1.4 3.5 3.6 5.8 6.5l.2.3c3.9 4.6 4.5 12.8 3.2 16.1-1.1 3-3.9 7.8-6.4 8.3h-.5c-2 .1-3.4-2.6-4.9-5.4zm7.2-17.8s-.1-.1-.2-.3c-2.2-2.8-4.1-5-5.6-6.3-1.2-1.1-2.1-1.7-2.4-1.7-.2 0-.4.2-.8.7-1 1.2-2.6 8.4-2.3 11.7.3 2.8 2.8 7.3 4.5 10.3l.6 1c.3.5.5 1 .8 1.4.9 1.7 2.5 4.6 3.3 4.4 1.2-.2 3.6-3.7 4.9-7.1 1.1-2.8.4-10.2-2.8-14.1z" fill="#000000" stroke-width="none" opacity="1"></path><path id="SvgjsPath29586" d="M50 87c-.3-2.3-.5-7.8.8-9.6 2.2-2.9 6 6.4 6.9 9.3 0 .1.1.2.1.3.2.3-.1.7-.4.6-.4-.2-.9-.6-1.3-.8-1.1-.5-1.6.5-1.3 1.8.4 1.8 1.4 2.9 2.2 4.3.1.2 0 .4-.2.3-1.6-.9-3.5-4.5-3.1-6.6.3-2 1.9-1.8 3.1-.8-.7-1.7-1.5-3.3-2.5-4.8-.6-.9-1.2-2-2.2-2.2-1.2-.2-1 .3-1.2 1.8-.8 4.8-.3 10.4 2.5 14.5.1.1 0 .2-.1.1-1.7-2.3-2.9-4.9-3.3-8.2z" fill="#000000" stroke-width="none" opacity="1"></path></g></g><g id="svga-group-ears-right-move" transform="matrix(1,0,0,1,0,0)"><g id="svga-group-ears-right" transform="matrix(1,0,0,1,0,0)"><path id="SvgjsPath29587" d="M139.2 80.5c.2-.3 3.3-4.3 5.9-6.7 2.6-2.4 3.4-2.4 4.6-.9s2.9 9.1 2.5 12.4c-.4 3.4-3.6 8.7-5.2 11.7-1.7 3-3.3 6.7-5.1 6.3s-4.4-4.6-5.7-7.7c-1.2-3.1-.6-10.9 3-15.1z" fill="#ffffff" stroke-width="none" opacity="1"></path><path id="SvgjsPath29588" d="M142.1 104.4h-.5c-2.5-.5-5.2-5.4-6.4-8.3-1.3-3.4-.7-11.5 3.2-16.1l.2-.3c2.3-2.9 4.2-5.1 5.8-6.5 1.6-1.4 2.7-2.2 3.9-2.2 1 .1 1.6.7 2.2 1.4 1.5 1.8 3.1 9.7 2.7 13.2-.4 3.2-3 7.9-4.8 11l-.6 1c-.3.5-.5.9-.8 1.4-1.4 2.7-2.8 5.4-4.9 5.4zm-2.2-23.3c-3.2 3.9-3.9 11.2-2.8 14.1 1.3 3.4 3.7 6.9 4.9 7.1.8.2 2.4-2.7 3.3-4.4.3-.5.5-1 .8-1.4l.6-1c1.7-3 4.2-7.5 4.5-10.3.4-3.3-1.3-10.5-2.3-11.7-.4-.4-.6-.7-.8-.7-.3 0-1.2.5-2.4 1.7-1.5 1.4-3.3 3.5-5.6 6.3 0 .2-.1.3-.2.3z" fill="#000000" stroke-width="none" opacity="1"></path><path id="SvgjsPath29589" d="M150 87c.3-2.3.5-7.8-.8-9.6-2.2-2.9-6 6.4-6.9 9.3 0 .1-.1.2-.1.3-.2.3.1.7.4.6.4-.2.9-.6 1.3-.8 1.1-.5 1.6.5 1.3 1.8-.4 1.8-1.4 2.9-2.2 4.3-.1.2 0 .4.2.3 1.6-.9 3.5-4.5 3.1-6.6-.3-2-1.9-1.8-3.1-.8.7-1.7 1.5-3.3 2.5-4.8.6-.9 1.2-2 2.2-2.2 1.2-.2 1 .3 1.2 1.8.8 4.8.3 10.4-2.5 14.5-.1.1 0 .2.1.1 1.7-2.3 2.9-4.9 3.3-8.2z" fill="#000000" stroke-width="none" opacity="1"></path></g></g><g id="svga-group-faceshape-wrap" transform="matrix(1,0,0,1,0,0)"><g id="svga-group-faceshape-single"><path id="SvgjsPath29656" d="M143.8 68.6c-.1-3.3-.3-9-1.4-14.4-2.3-11.6-15.1-29.3-42.4-29.3S63.6 38.4 59.6 48.5c-2.5 6.3-3.2 15.5-3.4 20 0 0-1.7 23.4 1.3 28.8 3 5.3 9.6 11.4 14.5 20.9 3.6 7 3.5 17.6 8.5 21.7s30.2 4.4 35.7 1.3c5.5-3.1 6.6-11.8 10.3-18.8 3.9-7.4 12.4-16.3 15.7-21 3.1-4.8 1.6-32.8 1.6-32.8z" fill="#ffffff" stroke-width="none" opacity="1"></path><path id="SvgjsPath29657" d="M100.9 144.4c-8.7 0-18.1-1.2-21.1-3.7-3.2-2.6-4.5-7.5-5.7-12.6-.8-3.2-1.7-6.6-3.1-9.3-2.9-5.6-6.3-10-9.4-13.8-2.1-2.6-3.9-4.9-5.1-7.1-3.1-5.4-1.6-26.8-1.4-29.4.2-4.9.9-14 3.4-20.4 6.6-16.5 20.1-24.4 41.5-24.4 12.3 0 23.2 3.7 31.3 10.6 6.3 5.3 10.9 12.7 12.2 19.6 1.1 5.6 1.3 11.6 1.4 14.6.2 3.1 1.4 28.5-1.9 33.4-1.2 1.8-3.1 4.1-5.2 6.6-3.6 4.4-8 9.8-10.4 14.3-1.2 2.2-2.1 4.8-3 7.1-1.9 5.1-3.7 10-7.7 12.2-2.6 1.6-9 2.3-15.8 2.3zM100 26c-20.3 0-33.2 7.5-39.4 23-2.4 6.1-3.1 14.9-3.3 19.6-.5 6.4-1.2 24 1.1 28.1 1.2 2 2.9 4.3 4.9 6.8 3.1 4 6.6 8.3 9.6 14.1 1.5 2.9 2.4 6.5 3.2 9.9 1.2 4.8 2.3 9.3 5 11.4 4.5 3.7 29.4 4.1 34.4 1.2 3.3-1.8 4.9-6.3 6.7-11 .9-2.4 1.9-5 3.1-7.4 2.5-4.8 7-10.4 10.7-14.7 2.1-2.5 3.9-4.8 5.1-6.5 2.2-3.2 2.1-20.9 1.6-32 0-3.1-.3-8.8-1.4-14.2-1.3-6.5-5.6-13.3-11.5-18.3-7.7-6.5-18-10-29.8-10z" fill="#000000" stroke-width="none" opacity="1"></path></g></g><g id="svga-group-mouth-single-move" transform="matrix(1,0,0,1,0,0)"><g id="svga-group-mouth-single" transform="matrix(1,0,0,1,0,0)"><path id="SvgjsPath29532" d="M106.7 125.7c-3.7 2.1-8.2 2.2-12 .3-.5-.2-1 .5-.5.8 4.1 2 8.9 1.9 12.9-.3.6-.3.1-1.1-.4-.8zM92 118c1.2-1.4 2.6-2.8 4.7-2.6 1.2.2 2.2 1.1 3.4 1.1 1 0 1.7-.6 2.6-.9 2-.8 3.8.3 5.5 1.4.2.2.5-.2.2-.4-1.3-.8-2.7-1.7-4.3-1.8-1.9 0-3.1 1.6-5 1.1-1.4-.4-2.5-1.2-4-.8-1.4.4-2.5 1.6-3.4 2.7-.2.1.1.4.3.2zm18.7 5.4c-2.8 0-4.6-1.6-5.3-2.4-4.2 3.3-8.4 1-9.6.2-3.8 2.8-8.1 1.9-8.3 1.9-.3-.1-.4-.3-.4-.6.1-.3.3-.4.6-.4 0 0 4.3.9 7.8-1.9.2-.2.4-.2.6 0 .2.1 4.7 3.5 9.1-.3.1-.1.2-.1.4-.1.1 0 .3.1.3.2.1.1 2.5 3.2 6.4 2.2.3-.1.5.1.6.4.1.3-.1.5-.4.6-.7.1-1.3.2-1.8.2z" fill="#000000" stroke-width="none" opacity="1"></path></g></g><g id="svga-group-eyes-left-move" transform="matrix(1,0,0,1,0,0)"><g id="svga-group-eyes-left" transform="matrix(1,0,0,1,0,0)"><g id="svga-group-eyesback-left"></g><g id="svga-group-eyesiriswrapper-left"><g id="svga-group-eyesiriscontrol-left" transform="matrix(1,0,0,1,0,0)"><g id="svga-group-eyesiris-left" transform="matrix(1,0,0,1,0,0)"><path id="SvgjsPath29696" d="M75 84.3c-1.5 1.9-1.3 4.5.4 6 1.8 1.7 4.9 2.1 7.1.1 1.1-1.1 1.9-2.3 1.5-3.7-.1-.5-.7-3-2.1-3.8-2.5-1.4-5.1-.9-6.9 1.4z" fill="#ffffff" stroke-width="none" opacity="1"></path><path id="SvgjsPath29697" d="M79.1 92.1c-1.5 0-2.9-.6-3.9-1.5-1.8-1.7-2-4.4-.4-6.4 1.9-2.4 4.7-3 7.3-1.5 1.3.8 2 2.9 2.3 4.1.3 1.4-.2 2.7-1.6 4-1.2.8-2.4 1.3-3.7 1.3zm-3.9-7.6c-1.4 1.7-1.2 4.1.4 5.6 1.7 1.5 4.7 2 6.6.1 1.2-1.2 1.7-2.3 1.4-3.4-.4-1.8-1.1-3.2-2-3.6-2.2-1.4-4.6-.9-6.4 1.3zm4 6.3c-1.1 0-2.2-.4-3-1.2-1.4-1.3-1.5-3.4-.3-4.9 1.4-1.8 3.6-2.2 5.5-1.1 1 .6 1.5 2.2 1.7 3.1.2 1-.2 2-1.2 3-.8.8-1.8 1.1-2.7 1.1zm-2.9-5.7c-1 1.2-.9 3 .3 4 1.2 1.1 3.4 1.5 4.8.1.9-.8 1.2-1.7 1.1-2.4-.3-1.3-.8-2.3-1.4-2.7-1.8-.9-3.5-.5-4.8 1zm4.9 1.3c0-.2-.1-.4-.2-.6-.4-.8-1.3-1.1-2.1-.9.2.2.2.4.2.7 0 .2 0 .3-.1.4 0 .1-.1.2-.2.3-.2.2-.5.3-.8.3-.3 0-.6-.1-.8-.3l-.2-.2c-.1.2-.2.5-.2.7 0 .3.1.5.3.7 0 .2.1.3.2.4.5.9 1.6 1.1 2.5.7h.2c-.2-.3 0-.8.5-.8.2 0 .4.1.4.2.1-.1.1-.1.1-.2.4-.4.4-.9.2-1.4zm.9.9c0-.7-.2-1.9-.9-2.5-1.3-1.1-2.9-1.1-4.3.1-1.1 1-1.3 2.6-.4 3.7.6.8 1.6 1.3 2.6 1.3.5 0 1.1-.1 1.6-.5 1-.6 1.4-1.2 1.4-2.1zM81 88.7c0 .2-.2.3-.5.3-1.3.8-2.8.3-3.6-.7-.6-.8-.6-1.9 0-2.7v-.1c0-.2 0-.3.1-.4 0-.1.1-.2.2-.3.2-.2.5-.3.8-.3.2 0 .3 0 .5.1.8-.2 1.7-.1 2.4.6.4.3.7 1.1.7 2.2 0 .4-.2.9-.6 1.3z" fill="#000000" stroke-width="none" opacity="1"></path></g></g></g><g id="svga-group-eyesfront-left"><path id="SvgjsPath29622" d="M79 72.1c-8.2 0-14.8 6.6-14.8 14.8s6.6 14.8 14.8 14.8 14.8-6.6 14.8-14.8c0-8.1-6.6-14.8-14.8-14.8zM86.6 91c-1 .7-4.1 2.3-8.1 2.2s-11-2.6-11.7-3.5c-.7-1 2-3.2 3.2-4 1.1-.8 4.2-3.3 7.8-3.4 3.6-.1 6.2.8 8.4 2.2 2.2 1.3 3.7 3.7 3.7 3.7s-2.4 2.2-3.3 2.8z" fill="#ffffff" stroke-width="none" opacity="1"></path><path id="SvgjsPath29623" d="M79.4 93.7h.3c5.7-.1 9.7-4.3 9.8-4.5.2-.2.2-.5 0-.7s-.5-.2-.7 0c0 0-3.9 4.1-9.2 4.2-5.3.1-11.5-2.6-12.5-3.4.2-1 4.8-5.5 8.2-6.2 3.4-.7 10.8-.5 14.4 5.8.1.2.4.3.7.2.2-.1.3-.4.2-.7-3.9-6.7-11.8-7-15.4-6.2-3.4.7-8.4 5.1-8.9 6.8-.1.5 0 .8.2.9 1 1 7.4 3.8 12.9 3.8z" fill="#000000" stroke-width="none" opacity="1"></path></g></g></g><g id="svga-group-eyes-right-move" transform="matrix(1,0,0,1,0,0)"><g id="svga-group-eyes-right" transform="matrix(1,0,0,1,0,0)"><g id="svga-group-eyesback-right"></g><g id="svga-group-eyesiriswrapper-right"><g id="svga-group-eyesiriscontrol-right" transform="matrix(1,0,0,1,0,0)"><g id="svga-group-eyesiris-right" transform="matrix(1,0,0,1,0,0)"><path id="SvgjsPath29698" d="M116.9 84.3c-1.5 1.9-1.3 4.5.4 6 1.8 1.7 4.9 2.1 7.1.1 1.1-1.1 1.9-2.3 1.5-3.7-.1-.5-.7-3-2.1-3.8-2.4-1.4-5-.9-6.9 1.4z" fill="#ffffff" stroke-width="none" opacity="1"></path><path id="SvgjsPath29699" d="M121.1 92.1c-1.5 0-2.9-.6-3.9-1.5-1.8-1.7-2-4.4-.4-6.4 1.9-2.4 4.7-3 7.3-1.5 1.3.8 2 2.9 2.3 4.1.3 1.4-.2 2.7-1.6 4-1.2.8-2.5 1.3-3.7 1.3zm-3.9-7.6c-1.4 1.7-1.2 4.1.4 5.6 1.7 1.5 4.7 2 6.6.1 1.2-1.2 1.7-2.3 1.4-3.4-.4-1.8-1.1-3.2-2-3.6-2.3-1.4-4.7-.9-6.4 1.3zm3.9 6.3c-1.1 0-2.2-.4-3-1.2-1.4-1.3-1.5-3.4-.3-4.9 1.4-1.8 3.6-2.2 5.5-1.1 1 .6 1.5 2.2 1.7 3.1.2 1-.2 2-1.2 3-.8.8-1.7 1.1-2.7 1.1zm-2.8-5.7c-1 1.2-.9 3 .3 4 1.2 1.1 3.4 1.5 4.8.1.9-.8 1.2-1.7 1.1-2.4-.3-1.3-.8-2.3-1.4-2.7-1.8-.9-3.6-.5-4.8 1zm4.9 1.3c0-.2-.1-.4-.2-.6-.4-.8-1.3-1.1-2.1-.9.2.2.2.4.2.7 0 .2 0 .3-.1.4 0 .1-.1.2-.2.3-.2.2-.5.3-.8.3-.3 0-.6-.1-.8-.3l-.2-.2c-.1.2-.2.5-.2.7 0 .3.1.5.3.7 0 .2.1.3.2.4.5.9 1.6 1.1 2.5.7h.2c-.2-.3 0-.8.5-.8.2 0 .4.1.4.2.1-.1.1-.1.1-.2.4-.4.4-.9.2-1.4zm.9.9c0-.7-.2-1.9-.9-2.5-1.3-1.1-2.9-1.1-4.3.1-1.1 1-1.3 2.6-.4 3.7.6.8 1.6 1.3 2.6 1.3.5 0 1.1-.1 1.6-.5 1-.6 1.4-1.2 1.4-2.1zm-1.1 1.4c-.1.2-.2.4-.5.4-1.3.8-2.8.3-3.6-.7-.6-.8-.6-1.9 0-2.7v-.1c0-.2 0-.3.1-.4 0-.1.1-.2.2-.3.2-.2.5-.3.8-.3.2 0 .3 0 .5.1.8-.2 1.7-.1 2.4.6.4.3.7 1.1.7 2.2 0 .3-.2.8-.6 1.2z" fill="#000000" stroke-width="none" opacity="1"></path></g></g></g><g id="svga-group-eyesfront-right"><path id="SvgjsPath29624" d="M121 72.1c-8.2 0-14.8 6.6-14.8 14.8s6.6 14.8 14.8 14.8 14.8-6.6 14.8-14.8c0-8.1-6.6-14.8-14.8-14.8zm-.1 21.1c-3.9.1-7.1-1.5-8.1-2.2s-3.4-2.8-3.4-2.8 1.5-2.4 3.7-3.7c2.2-1.3 4.9-2.2 8.4-2.2 3.6.1 6.6 2.6 7.8 3.4 1.1.8 3.9 3.1 3.2 4-.7 1-7.7 3.4-11.6 3.5z" fill="#ffffff" stroke-width="none" opacity="1"></path><path id="SvgjsPath29627" d="M120 93.7h-.3c-5.7-.1-9.7-4.3-9.8-4.5-.2-.2-.2-.5 0-.7s.5-.2.7 0c0 0 3.9 4.1 9.2 4.2 5.3.1 11.5-2.6 12.5-3.4-.2-1-4.8-5.5-8.2-6.2-3.4-.7-10.8-.5-14.4 5.8-.1.2-.4.3-.7.2-.2-.1-.3-.4-.2-.7 3.9-6.7 11.8-7 15.4-6.2 3.4.7 8.4 5.1 8.9 6.8.1.5 0 .8-.2.9-1 1-7.4 3.8-12.9 3.8z" fill="#000000" stroke-width="none" opacity="1"></path></g></g></g><g id="svga-group-facehighlight-single"></g><g id="svga-group-eyebrows-left-move" transform="matrix(1,0,0,1,0,0)"><g id="svga-group-eyebrows-left-rotate" transform="matrix(1,0,0,1,0,0)"><g id="svga-group-eyebrows-left" transform="matrix(1,0,0,1,0,0)"><path id="SvgjsPath29552" d="M63.19 79.72s3.09-9.26 3.97-9.85c.88-.59 24.4 1.03 24.4 1.03s-3.38 5.44-4.7 6.17c-1.32.73-17.49-1.18-18.67-.73-1.18.44-5 3.38-5 3.38z" fill="#ffffff" stroke-width="none" opacity="1"></path><path id="SvgjsPath29553" d="m62.42 80.79 1-.77c1.05-.81 3.98-2.98 4.9-3.32.48-.16 4.29.13 7.64.39 6.37.49 10.29.76 11.07.32 1.37-.76 4.49-5.74 4.84-6.31l.34-.54-.64-.04c-.06 0-5.95-.41-11.87-.74-12.11-.67-12.53-.38-12.76-.23-.92.61-3.39 7.84-4.12 10.05l-.4 1.19zm4.66-10.17-.7 6.32c-.4.27-.82.55-1.22.84.41-1.73 1.4-5.91 1.46-6.11.01-.02-.01-.04-.01-.06.17-.41.33-.74.47-.99zm3.39-.47-.35 5.77c-.26-.01-.48-.02-.69-.02l-1.16-5.76c.54-.02 1.29-.01 2.2.01zm2.48 5.94c-.48-.03-.93-.07-1.33-.09l.9-5.79c.64.02 1.31.05 2.03.08l-1.6 5.8zm2.12-5.77.71.03-1.92 5.81-.4-.03 1.61-5.81zm-3.96 5.65-.48-.03.35-5.78 1.02.03-.89 5.78zm6.06-1.72.96-3.78c.28.01.56.03.85.04l-1.81 3.74zm1.03-.96-.96 3.13c-.18-.01-.36-.03-.54-.04l1.5-3.09zm3.97-2.6-2.57 5.89c-.62-.04-1.23-.09-1.83-.13l1.81-5.91c.85.06 1.72.1 2.59.15zm-1.87 5.95 2.85-3.8-1.89 3.86-.96-.06zm1.52.09 2.89-5.89 2.37.15-2.63 5.86c-.77-.02-1.67-.06-2.63-.12zm2.22-5.92-3.24 4.32 1.92-4.4c.44.02.88.05 1.32.08zm2.62 5.93c-.07.04-.21.06-.38.08l3.57-5.65c.35.02.69.05 1.03.07-1.11 1.75-3.31 5-4.22 5.5zm-1.66.12 2.62-5.83c.56.04 1.11.07 1.65.11l-3.62 5.72H85zm-10.6-.66 1.92-5.82 1.29.06-1.5 5.88c-.03 0-.06 0-.08-.01-.59-.03-1.12-.07-1.63-.11zm-6.35-.22c-.27.1-.67.33-1.12.61l.71-6.42c.03 0 .06-.01.1-.01l1.16 5.74c-.42 0-.7.03-.85.08zm-4.1 2.68c.46-1.36.95-2.7 1.4-3.92-.35 1.48-.71 3-.83 3.5-.2.15-.4.29-.57.42z" fill="#000000" stroke-width="none" opacity="1"></path></g></g></g><g id="svga-group-eyebrows-right-move" transform="matrix(1,0,0,1,0,0)"><g id="svga-group-eyebrows-right-rotate" transform="matrix(1,0,0,1,0,0)"><g id="svga-group-eyebrows-right" transform="matrix(1,0,0,1,0,0)"><path id="SvgjsPath29554" d="M136.81 79.72s-3.09-9.26-3.97-9.85c-.88-.59-24.4 1.03-24.4 1.03s3.38 5.44 4.7 6.17c1.32.73 17.49-1.18 18.67-.73s5 3.38 5 3.38z" fill="#ffffff" stroke-width="none" opacity="1"></path><path id="SvgjsPath29555" d="M137.18 79.6c-.73-2.2-3.2-9.43-4.12-10.05-.23-.15-.66-.44-12.76.23-5.92.33-11.81.73-11.87.74l-.64.04.34.54c.35.57 3.47 5.54 4.84 6.31.78.43 4.7.17 11.07-.32 3.36-.26 7.16-.55 7.64-.39.92.34 3.85 2.52 4.9 3.32l1 .77-.4-1.19zm-3.78-7.99c0 .02-.01.04-.01.06.05.2 1.05 4.39 1.46 6.11-.4-.29-.82-.58-1.22-.84l-.7-6.32c.13.25.29.58.47.99zm-1.66-1.48-1.16 5.76c-.21 0-.43.01-.69.02l-.35-5.77c.9-.01 1.65-.02 2.2-.01zm-6.29.17c.71-.03 1.39-.06 2.03-.08l.9 5.79c-.4.03-.85.06-1.33.09l-1.6-5.8zm1.08 5.83-.4.03-1.92-5.81.71-.03 1.61 5.81zm1.47-5.94 1.02-.03.35 5.78-.48.03-.89-5.78zm-6.97.33c.28-.02.57-.03.85-.04l.96 3.78-1.81-3.74zm2.27 5.86c-.18.01-.36.03-.54.04l-.96-3.13 1.5 3.09zm-2.88-5.83 1.81 5.91c-.6.05-1.22.09-1.83.13l-2.57-5.89c.87-.06 1.74-.1 2.59-.15zm-1.68 6.15-1.89-3.86 2.85 3.8-.96.06zm-3.18.15-2.63-5.86 2.37-.15 2.89 5.89c-.97.06-1.87.1-2.63.12zm1.73-6.12 1.92 4.4-3.24-4.32c.43-.03.87-.06 1.32-.08zm-8.17.51c.34-.02.68-.05 1.03-.07l3.57 5.65c-.18-.02-.31-.05-.38-.08-.91-.5-3.11-3.75-4.22-5.5zm5.23 5.62-3.62-5.72c.54-.04 1.09-.07 1.65-.11l2.62 5.83h-.65zm9.63-.54c-.03 0-.06 0-.08.01l-1.5-5.88 1.29-.06 1.92 5.82c-.52.03-1.05.07-1.63.11zm7.12-.43 1.16-5.74c.04 0 .07.01.1.01l.71 6.42c-.45-.28-.85-.51-1.12-.61-.15-.04-.43-.07-.85-.08zm4.38 2.36c-.12-.5-.48-2.02-.83-3.5.46 1.21.94 2.56 1.4 3.92-.17-.14-.37-.28-.57-.42z" fill="#000000" stroke-width="none" opacity="1"></path></g></g></g><g id="svga-group-beardwrap" transform="matrix(1,0,0,1,0,0)"><g id="svga-group-beard-single-move" transform="matrix(1,0,0,1,0,0)"><g id="svga-group-beard-single" transform="matrix(1,0,0,1,0,0)"><path id="SvgjsPath29542" d="M142.4 84c-2 .3-3 6.8-5.2 11.5s-7.8 17.1-10.7 18.3c-3 1.2-3-.9-5.8-3.3s-12.8-4.9-21.9-.8c0 0-10.3-2.4-17.2-2-6.9.5-7.8 3.2-9.7 4.1s-5.9-3.7-8.3-8.7-4.1-13.3-5.6-15c-1.6-1.7-5.1 9.4-6.8 14.3-1.7 4.9-1 12.3 5.5 23.1 6.6 10.8 21 27 27.2 32.4 6.2 5.5 21.5 3.5 26.7 2.6 5.8-1 26.2-25.8 31.2-32.8s9.4-18.8 9.4-23.8-6.8-20.2-8.8-19.9zM114 133.7c-3.6 2.7-8.7 4-10.8 2.5-2.1-1.4-1-5.1-1-5.1h-6.5s1 3-2 4.8c-2.9 1.8-9.8-1.8-13.1-6.7-3.3-4.9-3.1-12.6-3.1-12.6 10.1 4.4 21.4.1 21.4.1 9.6 3.7 21 .2 21 .2-.2 4.9-2.3 14.1-5.9 16.8z" fill="#ffffff" stroke-width="none" opacity="1"></path><path id="SvgjsPath29543" d="M151.7 103.9c0-4.9-5.7-17.8-8.3-20-.4-.3-.8-.5-1.1-.4-1.6.2-2.4 2.8-3.6 6.3-.6 1.8-1.2 3.8-2 5.5l-.4.8c-2 4.4-7.5 16.2-10.1 17.2-1.7.7-2 .2-3.2-1.1-.5-.6-1.1-1.4-2-2.1-2.9-2.5-13.1-5-22.3-.9-1.5-.3-10.7-2.4-17.2-1.9-5.3.3-7.2 2-8.6 3.2-.5.4-.9.7-1.3.9-.2.1-.4.1-.7 0-1.9-.7-4.9-4.4-6.8-8.4-1-2.3-2-5.3-2.9-7.9-1.1-3.5-2-6.3-3-7.3-.3-.3-.6-.4-1-.3-1.5.3-3.2 4.6-6.1 12.8-.2.7-.5 1.4-.7 2-2.1 6-.2 13.9 5.6 23.5 6.5 10.7 20.8 26.9 27.3 32.6 1.2 1 2.6 1.8 4.2 2.3.1.1.2.2.3.4.1.2.4.1.4-.1 1.2.4 2.6.7 4 .9.1.2.3.1.4 0 1.8.2 3.7.3 5.6.3 2.1 0 4.2-.1 6-.3.2.1.4.1.5 0 .8-.1 1.5-.1 2.1-.2.1.1.4.1.5-.1.9-.1 1.6-.2 2.3-.3.1.1.3.1.4-.1.2 0 .3 0 .4-.1 4.4-.8 15.7-13.3 23.8-23 .1.1.2.1.3 0 .2-.2.3-.5.4-.8 3.2-3.9 5.9-7.4 7.2-9.2 5.4-7.4 9.6-19.3 9.6-24.2zm-7-16.4c-.1.1-.2.2-.2.3-.6-1.2-1.3-2.3-2.1-3.3h.1c.4.2 1.2 1.3 2.2 3zm-22.5 25.3-1.8-1.5c-.8-.6-1.6-1.3-2.5-1.8 1.1.4 2 .9 2.6 1.4.6.6 1.2 1.3 1.7 1.9zm12.9 22.6c-.2-.3-.8-.3-.7.1v.8c-.4.4-.8.9-1.1 1.4.1-1 .1-2 .2-2.9.1-.5-.7-.4-.8 0-.1.9-.2 1.7-.4 2.6-.1.5-.2 1.1-.2 1.7-.5.6-.9 1.1-1.4 1.7.1-.6.1-1.1.1-1.6.1-1.2.2-2.4.4-3.6.1-.4-.6-.6-.7-.2-.4 1.9-1.2 4.5-.7 6.4-.4.4-.7.9-1.1 1.3.5-1.5.4-3.6.2-5-.1-.6-.9-.6-.9 0 0 1 0 2-.1 3s-.5 2-.3 2.9c0 .1.1.1.1.2-.7.8-1.4 1.6-2.2 2.4.8-2.4 1.2-4.9 1.2-7.4 0-.3-.5-.4-.5-.1-.6 2.8-1.1 5.7-1.7 8.5-.4.4-.7.8-1.1 1.2.5-2.1 1.1-4.2 1.1-6.3 0-.4-.5-.4-.6-.1-.6 2.2-.8 4.6-1.3 6.8 0 .1 0 .3.1.3-.8.9-1.6 1.7-2.4 2.5.9-1.9 1.5-4 1.7-6.1 0-.3-.4-.4-.5-.1-.7 2.6-1.4 5-2.5 7.5-.5.5-1.1 1-1.6 1.5.7-1.6 1.4-3.3 1.7-5 .1-.2-.3-.4-.4-.2-.8 1.8-1.4 3.7-2.1 5.5-.1.1 0 .2.1.3-1.4 1.3-2.7 2.4-3.8 3.1.9-1.9 1.8-3.8 2.3-5.8.1-.3-.3-.5-.5-.2-1.1 1.9-1.8 4.2-2.6 6.2v.2c-.4.2-.8.4-1.2.5.4-.9.8-1.9 1-2.9.1-.3-.4-.6-.6-.2-.6 1-1 2.2-1.3 3.3-.5.1-1.1.2-1.9.3.5-1.3 1-2.6 1.2-3.9.1-.3-.4-.5-.5-.2-.7 1.3-1.1 2.8-1.5 4.3-.6.1-1.2.1-1.9.2.2-.8.4-1.7.3-2.4 0-.3-.5-.4-.6-.1-.3.8-.4 1.7-.6 2.6-.6.1-1.2.1-1.8.1.3-1.2.6-2.5.5-3.7 0-.4-.6-.4-.7-.1-.5 1.2-.6 2.6-.7 3.9-.4 0-.9 0-1.3.1.2-.6.3-1.2.4-1.7.2-1 .3-2.1.3-3.1 0-.1-.1-.2-.2-.2.4-1.8.1-3.8.1-5.6 0-.5-.8-.5-.8 0-.1 1.8-.4 3.9.2 5.7 0 .1.1.1.2.2l-.6 2.7c-.1.4-.2.8-.2 1.2-.1.3-.1.5-.2.8-.1.1-.1.2-.1.2-1.4 0-2.9 0-4.4-.1-.7-2.2-1.5-4.2-1.8-6.6-.1-.4-.8-.5-.7 0 .2 2.2.5 4.6 1.6 6.5-.5-.1-1.1-.1-1.6-.2-.7-2-1.5-3.9-2.1-5.9-.1-.3-.6-.2-.5.1.4 1.9 1 3.9 1.8 5.7l-1.5-.3c-1.2-1.9-2.4-3.7-3.1-5.9-.2-.5-1-.3-.9.2.5 1.8 1.3 3.8 2.5 5.3-.4-.1-.8-.3-1.2-.4-1.5-2.6-3.1-5.1-4.2-7.9-.1-.3-.6-.2-.5.1.9 2.5 2 5 3.5 7.2-.8-.4-1.6-.9-2.2-1.4v-.2c-.9-1.9-2.2-3.6-3.2-5.5-.1-.2-.6-.1-.5.2.5 1.2 1 2.5 1.7 3.7-1.7-1.7-3.8-3.8-6-6.2.1-.1.1-.2 0-.3-.9-1.9-2-3.5-2.6-5.5-.1-.4-.7-.2-.6.2.2 1 .5 2.1.9 3.1-.5-.6-1.1-1.2-1.6-1.8-.5-1.8-1.3-3.5-1.8-5.2-.1-.4-.8-.2-.7.2.2 1 .5 2.1.9 3.2-2.9-3.4-5.8-7-8.3-10.4.2 0 .4-.1.3-.3-.2-1.3-.6-2.6-.8-3.9-.1-.3-.7-.3-.6.1.1 1.3.3 2.6.9 3.8-1.9-2.6-3.6-5-5-7.3 0-.1-.1-.1-.1-.2.2 0 .3 0 .3-.2.2-1 .1-2.2.2-3.3 0-.5-.7-.5-.8 0-.1.9-.3 2-.1 2.9-.9-1.6-1.8-3.1-2.5-4.6.1 0 .2 0 .2-.2.1-.5-.1-1.1-.1-1.6 0-.3-.6-.3-.5 0v.9c-.5-1-.9-2-1.2-3 .2.2.5 0 .5-.2.1-.7-.2-1.3 0-2 .1-.4-.5-.6-.7-.2-.1.4-.2.9-.2 1.5-.5-1.4-.8-2.8-1.1-4.1.1 0 .1-.1.1-.1.9-3.3 1.4-6.5 2.8-9.6.2-.5-.5-.9-.7-.4-1.1 2.2-2.2 4.8-2.5 7.4-.1-2 .2-3.9.7-5.6.2-.6.4-1.3.7-2 1.2-3.5 4.1-11.8 5.2-12.1.2.2.4.6.6 1-1.9 1.9-3.3 4.4-4 7-.1.3.3.4.5.2 1.2-2.2 2.5-4.3 3.9-6.3.3.8.7 1.8 1.1 2.9-1.1.6-1.9 1.8-2.6 2.8-.8 1.2-1.5 2.4-1.9 3.7-.1.4.4.6.7.3.8-1.1 1.5-2.3 2.2-3.4.6-.9 1.4-1.7 1.9-2.6.2.4.3.9.5 1.4.1.4.3.8.4 1.3-2 1.8-4.1 4.3-4.7 6.9-.1.5.5.7.8.3.8-1.1 1.3-2.3 2-3.4.7-1 1.4-1.9 2.2-2.8.3.8.5 1.6.8 2.4-2.2 1.9-3.7 4.8-4.2 7.6-.1.3.4.6.6.2 1.3-2.4 2-5 4-7 .3.9.7 1.8 1.1 2.6.1.1.1.3.2.4-1.6 1.7-3.4 3.8-4 6.1-.1.4.5.6.7.3.7-.9 1.1-2 1.7-2.9.6-.9 1.3-1.8 2-2.6.6 1.1 1.3 2.2 2 3.2-1.1.8-1.8 2.1-2.5 3.3-.8 1.4-1.6 3-1.8 4.6 0 .2.3.3.5.1 1.5-2.2 2.1-5.6 4.3-7.3.6.8 1.2 1.5 1.8 2.1-2.3 2.5-3.3 6-3.3 9.3 0 .3.4.3.5.1.9-3.1 1.2-6.2 3.4-8.9.7.6 1.3 1 1.9 1.2.3.1.5.1.7.1-.1.1-.2.3-.3.4-.8.9-1.4 1.9-1.9 3.1-.1.3.3.4.4.2.6-.7 1.1-1.5 1.6-2.2.3-.4.7-.9 1-1.3.1-.1.2-.3.4-.5.3-.2.5-.3.8-.6.1 0 .2-.1.2-.2.1 0 .1-.1.2-.1 1.4-1.2 3.1-2.6 7.9-2.9 6.7-.4 16.9 1.9 17 2h.2l.2-.1c6.7-3.1 13.9-2.4 18.2-.9-.2 0-.4.3-.2.5 1.7 1.6 3.8 3.4 5.8 4.6.2.1.4-.1.4-.2.8.7 1.7.9 3.4.3 1-.4 2.1-1.7 3.4-3.7.2.9.2 1.8.4 2.8 0 .2.3.2.3 0 .1-.9-.1-2-.4-2.9 0-.1-.1-.1-.2-.1.5-.8 1-1.6 1.5-2.5.2 1.9.3 3.9 1 5.7.1.2.5.2.5-.1-.1-1.9-.7-3.9-1.1-5.8 0-.1-.2-.2-.3-.1 1.1-1.9 2.2-4.1 3.3-6.4v.1c.3 1.3.4 2.9.9 4.2.1.3.6.3.7-.1.1-1.4-.5-3-1-4.2-.1-.2-.3-.2-.5-.1.7-1.5 1.4-3.1 2.2-4.6l.4-.8c.4-.8.7-1.6 1-2.4.5 1.7.8 3.6 1.7 5.2.1.2.6.1.5-.1-.2-1.9-1.1-3.8-1.7-5.6-.1-.1-.1-.2-.2-.2.3-.9.6-1.8.9-2.6.6-2 1.4-4.2 2.1-5.1 1.4 2.4 2.3 4.8 3.2 7.3.1.3.6.3.6-.1-.1-.9-.2-1.8-.5-2.6 1.4 3.8 2.4 7.6 3.6 11.5.1.4.8.3.7-.1-.2-2.1-.7-4.2-1.3-6.2 1.4 3.5 2.5 7.1 2.5 9.2v.4c-.1-.4-.1-.8-.1-1.3 0-.6-.9-.6-.9 0 0 1.2.1 2.7.7 3.8-.1.8-.3 1.6-.6 2.4v-.2c-.2-1.2-.3-2.4-.5-3.6-.1-.5-.9-.5-.8 0 .1 1.1.2 2.1.4 3.2.1.9.1 1.8.4 2.6-.1.4-.3.8-.4 1.2-.2-1.3-.5-2.6-.7-3.8-.1-.4-.7-.3-.7.1.2 1.8.3 3.7.7 5.5-.3.7-.6 1.4-.9 2.2-.2-1.6-.7-3.3-1-4.8-.1-.5-.9-.3-.8.2.3 2 .5 4.2 1.1 6.1-.9 2.1-1.9 4.1-3 6 .3-1.6.3-3.2.4-4.8 0-.5-.8-.5-.9 0-.1 1.7-.4 3.5-.1 5.2 0 .2.2.2.3.2-.6 1-1.2 2-1.9 2.8-1.7 1.4-3.9 4.3-6.6 7.6zM124.7 117c-3.5-1-6.3-2.3-8.2-5.5-.2-.3-.7 0-.6.3.9 1.8 2.4 3.6 4.3 4.7l-.4.1s-.2 0-.4.1c.2-.2.2-.4-.1-.5-1.5-.7-3.1-1.2-4.5-2.3-1.3-1-2.3-2.4-2.9-3.9-.2-.3-.7-.1-.6.2.8 3.4 4.1 6 7.6 6.6-.9.2-2.6.6-4.6.8-3.5-1.5-6.2-4.2-7-8-.1-.3-.7-.3-.6.1.5 3.6 2.7 6.8 6.1 8.1-.9.1-1.8.1-2.8.2-3.6-1.8-5.2-5.1-6.5-8.9-.1-.3-.6-.2-.6.2.6 3.2 2.1 6.9 4.9 8.7-1.6-.1-3.2-.2-4.8-.5-1.3-1.1-2.1-2.4-2.4-4.1-.1-.4-.7-.3-.7.1-.1 1.3.4 2.6 1.2 3.6-.7-.2-1.4-.4-2.1-.7l-.2-.1-.2.1s-.4.2-1.2.4c.1-.2.2-.3.3-.5.8-1.2 1.7-2.5 2.1-3.9.1-.4-.4-.6-.6-.2-1.1 1.5-1.8 3.7-3.1 5-1.7.4-4.1.9-6.9 1 3.5-1.2 7-3.9 8.4-7.1.1-.2-.2-.3-.3-.2-1.4 1.6-2.5 3.2-4.2 4.5-1.7 1.3-3.6 2.2-5.7 2.9-1.1 0-2.2-.1-3.3-.2 3.1-.3 6-2.1 8.3-4 .2-.2-.1-.6-.3-.4-3.3 2-6.3 4.2-10.4 4-.1 0-.1 0-.2.1-.6-.1-1.3-.3-1.9-.5 1.6-.1 3.1-.8 4.6-1.6 2.3-1.2 4.5-2.6 6.3-4.4.2-.2-.1-.5-.3-.4-3.1 2.1-7.1 5.5-11.1 5.7 2.4-.8 4.6-2.7 6.1-4.6.2-.2-.1-.5-.3-.3-1.5 1.2-3.2 2.7-5 3.6-2.5 1.2-4.8.5-7.4 0-.2-.1-.4.3-.2.4 1.4.6 3 1.2 4.6 1.2v.9c-.2-.1-.4 0-.4.2-.2 1.3-.3 2.9.1 4.2.1.3.6.2.6-.1 0-.3.1-.6.1-.9.4 2.6 1.2 5.9 2.9 8.5 1.3 2 3.2 3.8 5.2 5.1.1 2.3.2 4.6.9 6.8.1.2.5.2.5-.1-.2-2.1-.5-4.2-.6-6.3 3 1.8 6.1 2.4 7.9 1.3 2.2-1.3 2.5-3.4 2.3-4.7h2.2l-.1.1c-.1 2-.3 4.2-.1 6.2.1.4.6.4.6 0 .3-2 0-4.2-.1-6.2 0-.1 0-.1-.1-.1h2.6c0 .1-.1.2-.1.4-.2-.1-.4 0-.4.2.1 2.4-.3 4.7-.2 7.1 0 .3.5.4.6.1.3-1.4.4-2.8.3-4.1.2.5.6 1 1.1 1.4.2.1.5.3.7.4-.1 1.6-.1 3.3.1 4.9 0 .3.5.4.5.1.3-1.6.2-3.2 0-4.8.4.1.9.1 1.4.1h.8c.2 1.7 0 3.4.2 5.1 0 .3.5.4.6.1.4-1.7.1-3.5-.2-5.2 2.5-.3 5.3-1.6 7.4-3.2 1.1-.8 2.1-2.3 3-4.1-.1 2-.2 4 .1 6 0 .3.5.3.5 0 .2-2.4.1-4.8.1-7.2 0-.1 0-.2-.1-.2.4-1 .8-2 1.1-3.1-.1 1.6 0 3.4.4 5 .1.3.5.2.6-.1 0-1.7-.3-3.5-.4-5.2 0-.2-.2-.3-.4-.2.8-2.8 1.3-5.7 1.4-7.9v-.4c1.2.7 2.6 1.1 4 1 .5-.4.6-.9.2-1zm-11 16.2c-3.4 2.6-8.2 3.8-10.1 2.5-1.8-1.2-.8-4.4-.8-4.5l.2-.7h-8.1l.2.7c0 .1.8 2.6-1.7 4.1-2.4 1.5-9-1.5-12.3-6.5-2.5-3.8-2.9-9.3-3-11.4 9.3 3.6 19.2.5 20.8-.1 4 1.5 8.3 1.8 11.9 1.6h.4c3.7-.2 6.7-.9 8.1-1.2-.4 5.4-2.6 13.2-5.6 15.5zM73.9 114c2.8-1.5 5.3-3.3 8.1-4.6.3-.1.1-.6-.2-.5-2.9 1.2-6 2.5-8.3 4.6-.3.3.1.7.4.5zm-19.7-9.2c-.9 2.4-1.8 5.1-1.6 7.7 0 .4.7.6.8.1.6-2.5.9-5 1.7-7.5.2-.7-.7-.9-.9-.3zm1.6 3.5c-.9 3-1.5 6.4-.8 9.5.1.4.7.3.7-.1.2-3.1.3-6.1 1.1-9.1.2-.7-.8-1-1-.3zm2.1 2.9c-.6 2.6-1.2 5.6-.9 8.3 0 .4.7.5.7.1.4-2.7.5-5.5.8-8.3.1-.3-.6-.4-.6-.1zm2.4 2.6c-.9 2.8-1.3 6-.3 8.8.1.3.5.2.5-.1.1-2.9-.2-5.7.5-8.6.2-.4-.5-.6-.7-.1zm1.9 4.4c-.7 2.8-1.2 6.4.2 9.1.2.3.5.1.6-.1 0-1.4-.3-2.7-.3-4.1 0-1.6.2-3.1.5-4.6 0-.7-.9-.9-1-.3zm3.4 3.2c.1-.6-.9-.6-1 0-.3 2.8-.1 5.9 1.6 8.3.2.3.6.1.5-.2-.8-2.7-1.5-5.2-1.1-8.1zm4 6.9c-.7-3.1-1.3-5.9-.7-9.2.1-.6-.9-.9-1-.3-.6 3.2-.6 6.8.9 9.7.3.5.9.2.8-.2zm2.8 1.9c-.2-3.8-.9-7.2-.3-11 .1-.6-.9-.9-1-.2-.6 3.7-.9 7.9.7 11.4.1.2.6.1.6-.2zm1.8-11.2c-.7 4.7-.7 9.5 1.1 14 .1.4.6.2.6-.1-.8-4.6-1.3-8.9-.7-13.6 0-.7-.9-.9-1-.3zm8 21.7c-2.1-5.4-4-10.5-4.9-16.3-.1-.7-1.2-.4-1.1.3.9 5.6 2.4 11.3 5.4 16.2.1.4.7.2.6-.2zm-7.9-6.3c.8 3.2 1.9 6.7 4 9.2.3.3.7-.1.6-.4-1.3-3.1-2.9-5.8-3.7-9.1-.1-.6-1-.3-.9.3zm-3-2c.7 3.1 1.6 6.4 3.3 9.2.2.3.7.1.6-.2-1-3.1-2.2-6-3-9.2-.2-.6-1-.4-.9.2zm-1.6-2.1c-.2-.6-1-.3-.9.2.7 3.1 1.5 6.7 3.3 9.4.2.4.9.1.7-.3-.8-3.1-2.3-6-3.1-9.3zM67 132c.4 2.2 1.2 4.8 2.7 6.5.2.2.7 0 .6-.3-.8-2.2-2-4.1-2.4-6.4-.2-.6-1-.3-.9.2zm-2.5-1.6c.3 1.6.5 3.5 1.3 5 .2.3.7.2.7-.2-.2-1.7-.9-3.3-1.2-5-.2-.4-.9-.2-.8.2zm-4.7-6.4c0-.5-.7-.5-.8 0-.1 1.1-.2 2.7.5 3.7.2.2.5.2.5-.1 0-.6-.2-1.2-.3-1.7.1-.7.1-1.3.1-1.9zm13.3-5.8c.1-.5.4-1 .4-1.6 0-.1-.2-.2-.3-.2-.5.3-.7 1-.8 1.6-.1.5.6.7.7.2zm11.4 23.7c-.2-1.8-.6-3.6-1-5.4-.3-1.1-.3-2.5-1.3-3.2-.3-.2-.7.2-.4.5.8.8.8 2.9 1 3.9.3 1.4.7 2.9 1.2 4.3 0 .3.5.2.5-.1zm-5.1-2.6c.2 3.2.8 6.5 2.6 9.2.2.2.6.1.5-.2-.9-3.1-2-5.9-2.5-9.1-.1-.2-.7-.1-.6.1zm-3.3 4.2c.7 2.6 1.4 5.6 3.1 7.7.2.3.7 0 .6-.3-.7-2.6-2.2-5-3-7.6-.1-.4-.8-.3-.7.2zm-8.5-5.4c.4.9.8 2 1.5 2.8.2.2.4 0 .4-.2-.2-1-.9-2-1.4-2.9-.2-.3-.7 0-.5.3zm15.8 6.2c.2 2.3.6 4.7 1.9 6.7.2.2.6.1.5-.2-.7-2.2-1.5-4.3-1.9-6.5-.1-.3-.5-.2-.5 0zm1.9-.4c.5 3.1 1.3 6.1 2.7 9 .1.2.4.1.4-.1-.9-3-1.8-6-2.4-9 0-.5-.7-.3-.7.1zm4.2-1.8c-.1-1.9-.5-3.7-.8-5.6-.1-.4-.6-.2-.6.1.3 1.8.5 3.7 1 5.4.1.4.4.4.4.1zm-1.9.8c.3 2.8.7 5.8 1.6 8.5.1.3.6.2.5-.1-.4-2.8-1.1-5.6-1.6-8.4 0-.4-.6-.3-.5 0zm8.5 12.2c-.1 1.9 0 3.9.8 5.6.2.4.6.1.6-.2-.3-1.8-.7-3.5-.6-5.4-.1-.5-.8-.5-.8 0zm-4.7-8.2c0 2.1.2 4.4 1.2 6.2.2.3.6.1.6-.2-.3-2-.9-3.9-1-6 0-.5-.8-.5-.8 0zm2.8-.9c.1 2.7.2 5.4 1.2 8 .1.2.5.2.4-.1-.2-2.6-.8-5.2-.9-7.9 0-.4-.7-.4-.7 0zm-2.2-1.9c-.1-2-.5-4-.6-6 0-.3-.5-.3-.5 0 0 2 .1 4.1.6 6 .1.3.5.3.5 0zm2.6 1.2c.1-1.1-.2-2.2-.2-3.4 0-1.1 0-2.2.2-3.4.1-.3-.6-.4-.6-.1-.4 2.1-.8 4.9.1 6.9 0 .5.4.3.5 0zm2.1-13c0 3.1-.1 6.3.2 9.4 0 .3.5.3.5 0 .4-3.1.2-6.3-.1-9.4-.1-.4-.6-.4-.6 0zm2 7.9c.1 2.6.2 5.2.8 7.8.1.3.6.3.6-.1 0-2.6-.4-5.1-.6-7.7-.1-.5-.8-.5-.8 0zm-.8 10.1c.1.4.7.3.7-.1-.1-2.5-.6-4.9-.7-7.4 0-.3-.5-.3-.6 0-.1 2.4-.2 5.1.6 7.5zm-.2 1.6c.1 2.1.2 4.1.7 6.1.1.2.4.2.5-.1.1-2.1-.2-4.1-.6-6.2-.1-.2-.6-.1-.6.2zm5.4-2.1c-.2 1.9-.5 3.8-.1 5.7.1.3.5.3.6 0 .3-1.9.2-3.8.4-5.7 0-.5-.9-.5-.9 0zm2.9.5c-.1 2-.4 4.1-.5 6.1 0 .3.4.3.5.1.7-2 .8-4.1.8-6.1 0-.5-.7-.5-.8-.1zm-2.6-2.9c0-1.7-.3-3.3-.4-5 0-.2-.4-.2-.4 0-.1 1.6-.2 3.5.3 5.1.2.2.5.1.5-.1zm1.2-7c0 2.2-.3 4.5.1 6.7.1.3.6.3.7 0 .3-2.2.1-4.5.1-6.7-.1-.4-.9-.4-.9 0zm4.6 4.4c.3-2.1.1-4.3 0-6.5 0-.7-1.1-.7-1.1 0 .1 2.2-.1 4.4.3 6.6.1.5.7.3.8-.1zm1.9.1c.3-2.7.3-5.4.4-8.2 0-.5-.7-.5-.8 0-.1 2.7-.3 5.4-.2 8.2 0 .4.5.4.6 0zm-2.1 1.8c-.2 2.1-.5 4.2-.3 6.3 0 .2.4.4.5.1.4-2.1.3-4.3.3-6.4.1-.4-.5-.4-.5 0zm2.1 1.3c-.2 1.7-.6 3.6-.5 5.4 0 .4.6.5.7.1.6-1.7.6-3.7.8-5.5 0-.6-.9-.6-1 0zm2.5-3.7c0 2.1-.3 4.2-.4 6.3 0 .3.4.3.5.1.6-2 .6-4.3.4-6.4 0-.3-.5-.3-.5 0zm3.1.5c-.4 2.1-.9 4.4-.7 6.6 0 .4.6.5.7.1.5-2.1.6-4.3.9-6.4 0-.6-.8-.8-.9-.3zm2.2-3.5c-.5 1.9-.5 4-.7 5.9 0 .4.5.3.6 0 .3-1.9.7-3.9.7-5.9 0-.2-.5-.3-.6 0zm1.5-2.8c.5 2.4.1 4.6 0 7 0 .2.3.3.4.1 1-2.2.7-5 .3-7.3-.1-.4-.8-.3-.7.2zm2.8-2.6c-.3 1.8-.9 4-.6 5.8.1.3.6.3.6 0 .5-1.8.4-3.8.8-5.6.1-.5-.7-.7-.8-.2zm2.3-2.9c0 1.7-.4 3.2-.6 4.9 0 .3.4.4.5.1.7-1.5.9-3.4.9-5 0-.5-.8-.5-.8 0zm-12.1 3.3c0 2.1-.2 4.4.2 6.5.1.4.6.2.6-.1.3-2.1 0-4.3-.1-6.5 0-.3-.7-.3-.7.1zm2.9 0c-.3 1.9-.5 4.1.1 6 .1.3.6.2.6-.1.1-1.9-.1-3.8.2-5.7 0-.5-.8-.7-.9-.2zm3.2-2.3c-.1 1.3-.3 2.6-.3 3.9 0 .3.4.4.5.1.3-1.3.4-2.7.5-4 .1-.5-.7-.5-.7 0zm-3.2 1c.1-.6-.1-1.1-.1-1.7 0-.4-.7-.4-.6 0 .1.6 0 1.2.2 1.8 0 .2.4.1.5-.1zm4.7-13.3c0 3.5 0 7.1.5 10.6 0 .2.4.3.4 0 .2-3.5-.1-7.1-.4-10.6 0-.3-.5-.4-.5 0zm2.1 3c-.3 3.2-.7 6.6-.3 9.9.1.4.6.4.6 0 .2-3.3.1-6.6.3-9.9 0-.4-.6-.4-.6 0zm2 8.2c.6-2.2.4-4.8.5-7.1 0-.5-.8-.5-.8 0-.1 2.3-.5 4.8-.1 7.1 0 .2.3.2.4 0zm-2.7-13.5c.2 1.4.3 2.9.8 4.2.1.2.5.2.5-.1-.1-1.4-.4-2.9-.7-4.3-.1-.2-.7-.1-.6.2zm3.7 5.9c.2-2.1-.3-4.3-.4-6.4 0-.4-.7-.4-.7 0 .1 2.2.1 4.4.5 6.5.1.4.6.3.6-.1zm2.4-2.8c.3-2.7.1-5.3-.3-8-.1-.4-.7-.2-.6.2.4 2.6.5 5.2.6 7.8 0 .3.3.3.3 0zm-1 4c.7 3.4.3 6.8.8 10.1 0 .2.5.2.5 0 .6-3.4.1-7-.8-10.3 0-.3-.6-.2-.5.2zm3.3-2.4c-.2 3.3-.5 6.8-.1 10.1.1.4.6.4.6 0 .4-3.3.2-6.8.4-10.1.1-.6-.8-.6-.9 0zm2.7-.7c-.2 3.3-1 7.1-.4 10.3.1.3.5.2.6 0 .9-3.1.6-7.1.8-10.3 0-.6-1-.6-1 0zm2.1-1.5c-.1 3.3-.7 6.9-.3 10.2 0 .3.5.4.6.1.7-3.3.5-6.9.6-10.3.1-.6-.9-.6-.9 0zm3.4-.3c-.2 2.2-.5 4.5-.4 6.7 0 .4.6.5.7.1.5-2.2.5-4.6.7-6.8 0-.6-.9-.6-1 0zm-1.9 5.9c-.2 1.7-.6 3.4-.6 5.1 0 .4.5.4.6.1.6-1.6.6-3.5.8-5.2 0-.4-.7-.4-.8 0zm3.9-6c.3 1.6.1 3.3.3 4.9 0 .3.5.4.6.1.4-1.6.1-3.5-.2-5.2 0-.4-.8-.2-.7.2zm-9.7-.9c.1-2-.4-4.1-.7-6.1-.1-.3-.7-.3-.6.1.2 2 .2 4.1.7 6.1.1.3.6.2.6-.1zm2.2.1c.1.4.6.2.6-.1.2-1.8-.2-3.8-.4-5.6 0-.4-.6-.4-.6 0 .1 1.8-.1 3.9.4 5.7zm2.7-.2c1-2 .7-4.7.3-6.8-.1-.5-.9-.3-.8.2.2 1.1.2 2.3.2 3.4-.1 1-.3 2-.2 3.1-.1.2.3.4.5.1zm-2.4-15.1c.3 2.1.3 4.2.7 6.3.1.3.5.2.5-.1.2-2.2-.2-4.3-.6-6.4 0-.3-.6-.1-.6.2zm-4.8 19c0 .8 0 1.6.1 2.4 0 .1.3.1.3 0 .1-.8.1-1.6.1-2.4 0-.3-.5-.3-.5 0zm9.6-21.1c.1-1.7-.5-3.5-.8-5.2-.1-.4-.8-.3-.7.1.2 1.7.3 3.6.9 5.2.1.3.6.3.6-.1zm3.6-8.3c-.1-1.9-.8-3.7-1.4-5.5-.1-.4-.7-.2-.6.2.4 1.8.8 3.6 1.5 5.4.1.2.5.2.5-.1zm1.1-3.2c-.2-1.6-.9-3.1-1.4-4.6-.1-.3-.5-.2-.5.1.3 1.5.7 3.2 1.4 4.6.1.3.5.2.5-.1zm5.1 13.2c-.5-3.7-1.7-7.3-2.8-10.9-.1-.4-.7-.2-.6.2.8 3.6 1.4 7.4 2.7 10.8.1.3.7.3.7-.1zm-2.4 2.3c.1.3.5.2.5-.1.2-3.1-.9-6.5-1.7-9.5-.1-.5-.9-.3-.8.2.7 3.1 1 6.4 2 9.4zm-1.4 2.2c.2-3.4-.8-7-1.5-10.3-.1-.3-.7-.3-.6.1.4 3.3.5 7.1 1.6 10.3.1.3.5.2.5-.1zm-3.2-5.8c.3 2.8.1 6.1.9 8.8.1.2.5.3.5 0 .6-2.8-.3-6.2-.8-8.9.1-.4-.6-.3-.6.1zm-1.8 1.1c.3 3.5 0 7.3.8 10.7.1.4.6.3.7-.1.4-3.4-.4-7.3-1-10.7.1-.3-.5-.3-.5.1zm-.7 13.1c.5-3.6-.1-7.2-.7-10.8-.1-.3-.6-.2-.6.1.4 3.5.2 7.1.6 10.6.1.4.7.5.7.1zm2.3 2.4c.2-.9-.2-1.8-.4-2.7-.1-.4-.7-.2-.7.2.1.9.2 1.8.7 2.6.1.1.4.1.4-.1zm1.8-1.2c.1-1.6-.4-3.3-.7-4.8-.1-.3-.6-.3-.6.1.2 1.6.2 3.3.8 4.8.1.2.5.2.5-.1zm.4-5.7c.4 2.3.6 4.7 1.4 6.9.1.3.6.3.6-.1-.1-2.4-.8-4.7-1.3-7.1 0-.4-.7-.2-.7.3zm-3.3-13c.1.4.2.9.6 1.2.1.1.4.1.4-.1.1-.5-.1-.9-.3-1.3l-.6-1.5c-.2-.4-.9-.2-.7.2l.6 1.5zm2.3-6.6c0 1.3-.1 2.9.5 4.1.2.4.8.2.8-.2.1-.7-.1-1.3-.2-1.9-.1-.7-.1-1.3-.1-2 0-.6-1-.6-1 0z" fill="#000000" stroke-width="none" opacity="1"></path></g></g></g><g id="svga-group-mustache-single-move" transform="matrix(1,0,0,1,0,0)"><g id="svga-group-mustache-single" transform="matrix(1,0,0,1,0,0)"></g></g><g id="svga-group-nose-single-move" transform="matrix(1,0,0,1,0,0)"><g id="svga-group-nose-single" transform="matrix(1,0,0,1,0,0)"><path id="SvgjsPath29744" d="M96.13 77.79s-5.71 19.9-6.24 24.21c-.29 2.31 5.38 2.5 5.38 2.5s-.29 6.15.48 7.11 2.5.48 3.84-.86 3.65-6.05 3.65-6.05 2.02.19 3.55-.58 2.31-2.59.86-5c-1.44-2.4-6.24-20.65-7.69-21.52s-2.19-.87-3.83.19z" fill="#ffffff" stroke-width="none" opacity="1"></path><path id="SvgjsPath29745" d="M102.52 104.6c-.71 1.64-1.4 3.33-2.54 4.72-.67.81-1.89 1.99-3.06 1.81-1.16-.18-.82-1.68-.84-2.56-.09-4.17-.11-8.35-.05-12.52.12-8.22.54-16.43 1.24-24.62.07-.87-1.29-.87-1.36 0-1.13 13.3-1.5 26.66-1.11 40 .01.22.12.49.34.59 4.5 2.05 7.15-3.45 8.57-6.74.33-.79-.84-1.48-1.19-.68z" fill="#000000" stroke-width="none" opacity="1"></path><path id="SvgjsPath29746" d="M105.15 103.66c.41-.94 1.45-1.47 2.35-.75.68.54 1.65-.41.96-.96-1.51-1.22-3.68-.81-4.49 1.02-.34.79.83 1.49 1.18.69z" fill="#000000" stroke-width="none" opacity="1"></path><path id="SvgjsPath29747" d="M91.39 103.02c.68-.26 1.37.02 1.68.68.37.8 1.54.1 1.18-.69-.54-1.17-2.01-1.77-3.21-1.31-.82.32-.47 1.63.35 1.32z" fill="#000000" stroke-width="none" opacity="1"></path></g></g><g id="svga-group-hair-front" transform="matrix(1,0,0,1,0,0)"><path id="SvgjsPath29676" d="M99 45.7s-12.3-5.1-15.2-4.9c-6.4.3-9.6 25-9.6 25l-2.3-10.7s-3.7 13.1-3.5 19.5c0 0-3.9-9.4-3.7-15.2 0 0-5.3 18-4.7 28.3 0 0-5.9-8.4-6.4-19.7l-2.1 3.9s-1.6-8-.2-16.4 8-19.3 8-19.3L53 40.1s13.9-16.4 19.1-18c5.1-1.6 10-2.1 10-2.1s-4.3-3-3.7-3 9.4-.8 13.1.8c3.7 1.6 9.2 3.7 9.2 3.7s9-5.3 15.2-5.5l-4.9 3.9s13.7 0 18 3.1c4.3 3.1 14.4 14.2 14.4 14.2s-4.1-.8-3.5-.4 6.8 10.3 8 16.6 2.1 12.1 2.1 12.1l-3.9-3.7s.6 7.6.6 11.1-4.3 17.1-4.3 17.1-1.6-26.5-2.3-28.3l-2.7 9.4s-2.7-15.6-5.7-20.7l-2.1 12.3s-3.7-14.4-5.7-17c0 0-.6 15.3-1.8 22.9 0 0-3.7-20.5-6.2-26.2-2.4-5.7-16.9 3.3-16.9 3.3z" fill="#ffffff" stroke-width="none" opacity="1"></path><path id="SvgjsPath29677" d="M149 53.1c-1-4.9-4.7-11.9-6.9-15.3.4.1.8.2 1.2.2.4.1.9-.1 1.1-.5.2-.4.2-.8-.1-1.2-.4-.5-10.2-11.2-14.5-14.3-3.3-2.4-11.5-3-15.8-3.2l2.8-2.2c.3-.3.5-.7.3-1.1-.1-.4-.5-.7-1-.7-5.6.2-13.3 4.4-15.2 5.4-1.4-.5-5.7-2.2-8.7-3.5-3.5-1.5-10.6-1.1-13-.9h-.5c-.4 0-.9.3-1 .7-.2.6-.3.9 2.1 2.7-1.9.3-4.8.8-7.7 1.8-5.2 1.7-18.1 16.7-19.5 18.4-.3.4-.3.9 0 1.3s.9.5 1.3.2L57 39c-2.1 3.9-5.3 10.6-6.2 16.3-1.5 8.5.1 16.4.2 16.8.1.4.4.7.8.8.4.1.8-.2 1-.5l.5-.9c1.3 9.7 6 16.5 6.2 16.8.3.4.7.5 1.1.4.4-.1.7-.6.7-1-.4-6.6 1.8-16.8 3.3-22.8 1 4.9 3.1 9.9 3.2 10.2.2.4.7.7 1.1.6.5-.1.8-.5.8-1-.1-4 1.3-10.7 2.4-15.1l1.4 6.5c.1.5.5.8 1 .8s.9-.4 1-.9c1.3-9.9 4.8-24 8.7-24.2 1.9-.1 10.1 2.9 14.7 4.8.3.1.6.1.9-.1 2.8-1.7 10.8-6 14.3-4.9.6.2 1 .6 1.3 1.1 2.4 5.6 6.1 25.8 6.1 26 .1.5.5.8 1 .8s.9-.4 1-.8c.8-5.2 1.4-13.9 1.6-19 1.5 4.1 3.2 10.4 4 13.2.1.5.5.8 1 .8s.9-.4.9-.8l1.5-9.1c2.4 6.3 4.3 17.4 4.3 17.5.1.5.5.8.9.8.5 0 .9-.3 1-.7l1.3-4.6c.5 6 1.2 16.2 1.7 23.3 0 .5.4.9.9.9h.1c.4 0 .8-.3 1-.7.2-.6 4.4-13.9 4.4-17.5 0-2.2-.2-6-.4-8.6l2 1.9c.3.3.8.4 1.1.2.4-.2.6-.6.5-1-.3-.1-1.1-5.9-2.3-12.2zm-2.2 7.8c-.3-.3-.7-.4-1.1-.2-.4.2-.6.6-.6 1 0 .1.6 7.6.6 11 0 1.8-1.4 7.2-2.7 11.6-.5-8.2-1.5-21.5-1.9-23-.1-.4-.5-.7-.9-.7s-.8.3-.9.7l-1.5 5.3c-1-5.1-2.9-13.3-5.1-16.9-.2-.4-.6-.5-1-.5s-.7.4-.8.8l-1.3 7.8c-1.3-4.5-3.3-11.1-4.7-12.9-.3-.3-.7-.5-1.1-.3-.4.1-.7.5-.7.9 0 .1-.3 9-1 16.5-1.3-6.6-3.4-16.3-5-20.1-.5-1.1-1.3-1.9-2.5-2.2-4.6-1.4-13.3 3.5-15.5 4.8-2.5-1-12.4-4.9-15.1-4.8-5.5.3-8.6 12.8-10 20.5l-1.1-5.3c-.1-.5-.5-.8-.9-.8s-.9.3-1 .7-2.3 8.4-3.2 14.9c-1-3.1-2.1-7.3-2-10.3 0-.5-.3-.9-.8-1s-1 .2-1.1.7c-.4.7-4.4 14.6-4.9 24.9-1.7-3.4-4.1-9.2-4.4-16 0-.5-.3-.8-.8-.9-.4-.1-.9.1-1.1.5l-.6 1.2c-.3-3-.6-8 .2-13.1 1.4-8.1 7.8-18.8 7.9-18.9.2-.4.2-.9-.2-1.2-.3-.3-.8-.4-1.2-.1l-.6.4C63 30.5 69.5 24 72.4 23c5-1.6 9.8-2 9.8-2 .4 0 .8-.3.9-.7.1-.4 0-.8-.4-1.1-.6-.4-1.3-.9-1.9-1.4 5.1-.2 8.5.1 10.3.9 3.7 1.6 9.2 3.7 9.3 3.7.3.1.6.1.9-.1.1 0 5.8-3.4 11-4.8l-1.9 1.5c-.3.3-.5.7-.3 1.1s.5.7.9.7c3.7 0 14.1.5 17.5 2.9 3 2.2 9.1 8.5 12.2 11.8-1.2-.1-1.5.1-1.7.6-.2.4-.1.9.4 1.2.8.9 6.5 10 7.6 16 .7 3.5 1.2 6.9 1.6 9.2l-1.8-1.6zM99.2 25.6c-1.1 5-1.6 10-1.5 15.1 0 .8 1.3.8 1.3 0-.1-5 .3-9.9 1.4-14.8.2-.7-1-1.1-1.2-.3zm17.6 4.9c-4.1-.9-9.1 1-12.6 3-.7.4-.1 1.5.6 1.1 2.8-1.6 5.8-2.6 9-2.8 4.3-.3 6.3 2.9 7.1 6.8.2.8 1.4.5 1.2-.3-.5-3.1-2-7.1-5.3-7.8zm-29.3 2.8c-5-.5-7.9-.9-11.1 3.3-3 3.9-4.8 8.4-5.7 13.2-.1.8 1.1 1.1 1.2.3.7-3.9 2-7.7 4.2-11 1.3-2 2.4-3.6 4.6-4.5 2.3-.9 4.4-.4 6.8-.1.8.2.8-1.1 0-1.2zm1-6.3c-20.1-7-31.7 22.6-31.2 37.8 0 .8 1.3.8 1.3 0-.3-8.4 1.6-16.7 6-23.9 4.9-8 13.4-16.2 23.6-12.7.7.3 1-.9.3-1.2zm22-1.5c-.8.2-.4 1.5.3 1.2 15.4-5 24.1 14.4 26.5 26.5.2.8 1.4.5 1.2-.3-2.5-12.8-11.8-32.6-28-27.4z" fill="#000000" stroke-width="none" opacity="1"></path></g><g id="svga-group-glasses-single-move" transform="matrix(1,0,0,1,0,0)"><g id="svga-group-glasses-single" transform="matrix(1,0,0,1,0,0)"></g></g></g></g></g><rect id="svga-credit-rect" width="200" height="15" x="0" y="185" fill="#ecf0f1" opacity="0.5" style="display: none;"></rect><text id="svga-credit-text" font-family="Avenir Next, Roboto, Helvetica, Arial, sans-serif" font-size="10px" text-anchor="start" font-weight="400" size="10px" anchor="start" weight="400" fill="#333333" x="33.402061462402344" y="182.71133995056152" style="display: none;"><tspan id="SvgjsTspan29077" dy="13" x="33.402061462402344">Created on AvatarMaker.com</tspan></text></g></svg>