<svg xmlns="http://www.w3.org/2000/svg" version="1.1" width="600px" height="600px" viewBox="0 0 200 200" style="overflow:hidden!important;"><defs id="SvgjsDefs47785"></defs><g id="svga-group-wrapper"><g id="svga-group-backs-single"></g><g id="svga-group-humanwrap-move" transform="matrix(1,0,0,1,0,0)"><g id="svga-group-humanwrap" transform="matrix(1,0,0,1,0,0)"><g id="svga-group-hair-back-move" transform="matrix(1,0,0,1,0,0)"><g id="svga-group-hair-back" transform="matrix(1,0,0,1,0,0)"></g></g><g id="svga-group-humanbody-back"><path id="SvgjsPath48195" d="M77.6 118.3c0 19.3 3.4 44.1-10 51.9-13.4 7.9-31.9 11.3-37.8 22s-4.4 25.3-4.4 25.3h149.3s.7-18.9-5.1-26.4c-8.1-10.4-27.8-15.5-37.7-20.9s-13.4-25.1-13.4-52.4l-40.9.5z" fill="#ffffff" stroke-width="none" opacity="1"></path><path id="SvgjsPath48196" d="M175.8 218.7H24.4l-.1-1c-.1-.6-1.5-15.1 4.5-26 4.1-7.4 13.5-11.3 23.5-15.5 5-2.1 10.2-4.3 14.8-6.9 10.6-6.2 10.1-23.9 9.6-41-.1-3.5-.2-6.8-.2-10v-1.1l43.2-.4v1.1c0 29.9 4.2 46.7 12.8 51.4 2.9 1.6 6.7 3.2 10.8 4.9 10 4.1 21.3 8.8 27.2 16.3 6.1 7.7 5.4 26.4 5.4 27.1l-.1 1.1zm-149.3-2.2h147.1c0-4.1-.2-18.5-4.9-24.6-5.5-7-16.6-11.6-26.3-15.6-4.1-1.7-8-3.3-11-5-5.1-2.8-8.7-8.9-10.9-18.7-2-8.4-2.9-19.4-3-33.5l-38.6.4c0 2.8.1 5.7.2 8.8.5 17.8 1 36.1-10.7 43-4.7 2.7-9.9 4.9-15 7.1-9.6 4-18.7 7.8-22.4 14.5-5 8.6-4.7 20.1-4.5 23.6z" fill="#000000" stroke-width="none" opacity="1"></path><path id="SvgjsPath48197" d="M93.9 153.8c-.5 1.8-.4 3.4.5 5.2.8 1.6 2.1 2.7 3.9 2.9.4 0 .7-.5.5-.8-1.6-2.2-3.5-4.2-3.7-7.1 0-.7-1-.9-1.2-.2zm18.6 33.7c8.8.5 18.1-.7 26.6-2.9.7-.2.6-1.4-.2-1.3-8.8 1.1-17.7 2-26.5 3.3-.5.1-.3.9.1.9zm-49.4-5c3.8.9 7.6 1.9 11.5 2.8 3.6.8 7.4 2 11.1 2.1.7 0 .8-.9.2-1.2-3.5-1.4-7.5-1.7-11.2-2.5-3.8-.7-7.5-1.3-11.3-2-.5 0-.7.7-.3.8z" fill="#000000" stroke-width="none" opacity="1"></path></g><g id="svga-group-chinshadow-single"></g><g id="svga-group-humanbody-front"></g><g id="svga-group-clothes-single"><path id="SvgjsPath48326" d="M171.5 182.77c-1.41-1.21-5.23-1.81-5.23-1.81s-6.03-3.22-9.65-4.02c-3.62-.8-16.28-6.03-16.28-6.03l2.81-2.21s-12.06-7.44-14.87-9.45c-2.81-2.01-4.62-5.83-5.83-6.03 0 0-.6 2.41-.2 6.83.4 4.42 3.62 14.67 3.62 14.67s-1.64 12.35-2.66 16.33c-8.37 6.39-23.24 16.8-23.24 16.8-10.3-6.02-20.65-14.2-25.57-18.26-1.01-4.92-2.33-14.87-2.33-14.87s3.22-10.25 3.62-14.67c.4-4.42-.2-6.83-.2-6.83-1.21.2-3.01 4.02-5.83 6.03s-14.87 9.45-14.87 9.45l2.81 2.21s-12.66 5.23-16.28 6.03c-3.62.8-9.65 4.02-9.65 4.02s-3.82.6-5.23 1.81c-1.41 1.21-4.82 22.91-4.42 34.97H175.91c.42-12.06-3-33.77-4.41-34.97z" fill="#ffffff" stroke-width="none" opacity="1"></path><path id="SvgjsPath48327" d="M172.15 182.01c-1.45-1.24-4.7-1.86-5.55-2.01-.97-.51-6.32-3.27-9.75-4.04-2.74-.61-11.02-3.91-14.53-5.33l1.46-1.15c.26-.2.4-.52.38-.84s-.2-.62-.47-.79c-.12-.07-12.06-7.44-14.82-9.41-1.35-.96-2.51-2.46-3.44-3.66-1.07-1.39-1.85-2.39-2.81-2.55a.987.987 0 0 0-1.13.74c-.03.1-.64 2.63-.23 7.17.38 4.17 3.12 13.13 3.59 14.67-.22 1.62-1.6 11.82-2.52 15.66-7.43 5.65-19.72 14.31-22.4 16.19-9.83-5.82-19.7-13.59-24.62-17.63-.89-4.49-2.02-12.78-2.21-14.23 0-.01.01-.04.02-.05.16.1.42-.06.28-.24-.05-.06-.1-.13-.15-.19.73-2.39 3.09-10.33 3.45-14.19.41-4.54-.2-7.06-.23-7.17-.13-.51-.62-.84-1.13-.74-.96.16-1.74 1.16-2.81 2.55-.6.77-1.29 1.65-2.07 2.44-.09 0-.18.09-.18.19-.38.37-.77.73-1.19 1.03-2.75 1.97-14.7 9.33-14.82 9.41-.28.17-.46.47-.47.79s.12.64.38.84l1.46 1.15c-3.5 1.42-11.79 4.72-14.53 5.33-3.43.76-8.78 3.52-9.75 4.04-.85.15-4.11.77-5.55 2.01-2.06 1.76-5.13 24.83-4.77 35.76.02.54.46.97 1 .97h55.87c.09 0 .18-.03.27-.06v.06h41.52c0-.03 0-.05-.01-.08.12.05.24.08.36.08h55.87c.54 0 .98-.43 1-.97.37-10.92-2.71-33.99-4.77-35.75zm-1.97 34.73c1.64-1.41 3.19-2.95 4.7-4.48.04 1.01.06 2 .07 2.95-.53.54-1.1 1.05-1.69 1.53h-3.08zm-4 0c2.9-2.35 5.71-4.82 8.57-7.22.04.72.08 1.43.11 2.13-1.9 1.71-3.86 3.37-5.74 5.1h-2.94zm4.6-33.28c.92 1.29 3.21 14.33 3.94 25.7-.08-.04-.18-.06-.26.01-2.75 2.28-5.55 4.52-8.27 6.84-.07-.06-.17-.07-.24.01-.22.23-.43.48-.64.72h-2.42c2.91-2.62 5.8-5.26 8.7-7.89.25-.22-.12-.59-.36-.36-3.07 2.75-6.16 5.49-9.23 8.25h-2.27c3.41-3.4 6.88-6.72 10.52-9.88.24-.21-.11-.57-.35-.35-3.77 3.3-7.46 6.69-11 10.24h-2.35c3.66-3.69 7.33-7.32 11.29-10.69.22-.19-.1-.5-.31-.31-4.07 3.41-8.07 6.99-11.66 10.9.04-.61.09-1.42.16-2.35.09-.07.18-.14.3-.23.08-.06.04-.19-.04-.24 3.25-3.46 6.6-6.8 10.19-9.92.22-.19-.1-.51-.32-.32-3.52 3.01-6.9 6.2-10.04 9.6.07-.85.16-1.77.26-2.74.25-.16.51-.31.76-.47.17-.11.02-.36-.16-.28-.05.02-.1.05-.16.07 2.94-2.94 5.86-5.88 9.01-8.61.2-.17-.09-.46-.29-.29-3.12 2.67-6.21 5.44-9.03 8.43.1-.89.22-1.82.34-2.75.05-.05.05-.13.03-.19.01-.09.02-.19.04-.28 2.45-2.6 5.02-5.06 7.76-7.35.18-.15-.08-.41-.26-.26a91.8 91.8 0 0 0-7.39 6.83c.13-.87.27-1.74.43-2.59.83-.96 1.56-2 2.45-2.92.98-1.03 2.03-1.97 3.16-2.85.15-.12-.05-.39-.21-.27-1.84 1.4-3.8 3.07-5.19 5.01.23-1.13.49-2.21.77-3.2.31-.47.62-.95.98-1.39.62-.75 1.3-1.44 2.04-2.07.14-.12-.06-.31-.2-.2-.8.69-1.69 1.52-2.43 2.43.3-.86.63-1.61.98-2.22 2.8-4.75 5.76-10.94 6.73-13.01 1.39.26 3.52.83 4.24 1.44zm-33.3-8.6c.28-.27.56-.54.84-.8.73-.67 1.45-1.34 2.17-2.01.25.1.59.24.99.4-1.07 1.09-2.14 2.18-3.19 3.28l-.81-.87zm3.92-6.07c-.04.02-.08.03-.12.06l-5.43 4.21c-2.31-2.63-3.95-4.73-3.98-4.77a.992.992 0 0 0-1.4-.18c-.44.34-.52.96-.18 1.4.23.29 5.61 7.25 10.96 11.85 3.69 3.18 6.92 5.6 8.56 6.8-3.33 2.4-12.87 9.37-15.76 12.51-2.93 3.18-6.98 12.16-8.34 15.27-1.22-1.72-2.66-3.3-4.04-4.9l.21-2.13c1.29 1.79 2.58 3.64 4.08 5.23.14.14.37-.04.27-.21-1.22-2.02-2.8-3.88-4.28-5.75.09-.86.17-1.73.26-2.6 1.42 1.83 2.82 3.69 4.35 5.42.11.12.33-.04.23-.18-1.41-2-2.99-3.89-4.53-5.79.17-1.67.35-3.32.53-4.86 1.2 1.57 2.42 3.14 3.73 4.62.11.13.33-.04.24-.18-1.22-1.72-2.56-3.36-3.91-4.99.14-1.19.28-2.31.41-3.31 1.16 1.62 2.3 3.28 3.6 4.78.09.11.27-.03.2-.15-1.11-1.82-2.44-3.53-3.72-5.25.13-.93.25-1.73.36-2.38 1.15 1.59 2.3 3.18 3.58 4.65.06.07.18-.02.13-.1-1.09-1.77-2.36-3.44-3.61-5.1.07-.36.14-.65.2-.84.11-.36.23-.84.36-1.4.62.86 1.23 1.71 1.89 2.54.05.06.15-.02.11-.09-.61-.96-1.26-1.89-1.92-2.83.43-2 .91-4.91 1.33-7.66.58-1.19 1.12-2.4 1.66-3.61.1-.23-.23-.43-.34-.2-.37.81-.75 1.62-1.11 2.43.25-1.71.48-3.28.63-4.42.74-1.33 1.53-2.63 2.41-3.89.14-.2-.18-.38-.32-.19-.67.94-1.32 1.91-1.93 2.9l.09-.64c0-.02-.01-.04-.01-.06.76-1.43 1.47-2.9 2.22-4.32.07-.14-.13-.26-.21-.12-.69 1.23-1.44 2.46-2.16 3.7-.07-.22-.16-.53-.28-.91.97-1.58 1.82-3.27 2.74-4.85.13-.23-.22-.43-.35-.21-.84 1.42-1.77 2.84-2.61 4.29-.08-.28-.17-.57-.26-.89 1.32-2.03 2.39-4.31 3.55-6.39.12-.22-.21-.42-.34-.2-1.1 1.91-2.4 3.83-3.43 5.81-.1-.35-.2-.71-.31-1.09 1.6-2.2 2.98-4.61 4.42-6.91.13-.21-.19-.39-.32-.19-1.42 2.15-2.96 4.29-4.26 6.53-.1-.37-.21-.75-.31-1.14 1.16-2.3 2.41-4.4 4.24-6.27.18-.18-.1-.46-.28-.28-1.67 1.66-3.2 3.62-4.16 5.79-.11-.41-.21-.82-.32-1.23.07.02.15.01.2-.07 1.24-1.76 2.25-3.74 3.29-5.64 2.57 1.79 10.42 6.67 13.49 8.58zm-18.14-8.82c-.02-.23-.03-.43-.04-.64.16-.34.32-.68.5-.99.27-.48.57-.94.88-1.39.23.29.48.58.73.87-.36.5-.71 1-1.04 1.53-.3.48-.63 1.01-.91 1.56-.06-.35-.1-.66-.12-.94zm-.13-3.04c.22-.34.44-.68.65-1.02.02.03.05.06.07.09l.43.55a22.446 22.446 0 0 0-1.13 1.75c-.02-.48-.02-.94-.02-1.37zm1.46 2.81c.31-.55.65-1.09 1-1.62.25.28.52.54.79.8-1.01 1.32-1.97 2.78-2.57 4.33-.1-.49-.2-.96-.28-1.4.39-.67.68-1.43 1.06-2.11zm2.13-.49c.29.26.59.51.9.74-1.13 1.83-2.35 3.68-3.27 5.61-.12-.51-.24-1.01-.36-1.5.89-1.65 1.7-3.29 2.73-4.85zm-3.24-3.72c-.11.14-.21.28-.33.43.01-.28.03-.55.05-.78.1.11.18.23.28.35zM67.67 169.5c.06-.07.08-.16.12-.24 1.19 1.33 2.39 2.76 3.68 4.04-.14.45-.24.78-.29.96-.49-.44-.99-.89-1.45-1.36a37.5 37.5 0 0 1-2.48-2.87l.42-.53zm.81-8.24c1.6 1.71 3.19 3.5 4.95 5.04-.04.17-.09.35-.13.52-1.63-1.85-3.62-3.5-5.43-5.16l.61-.4zm.94-.62c1.38 1.53 2.78 3.1 4.31 4.46l-.15.62c-1.48-1.65-3.15-3.16-4.76-4.68.21-.14.41-.28.6-.4zm.83-.57c.01-.01.02-.02.03-.02 1.19 1.29 2.38 2.68 3.76 3.71-.05.23-.1.47-.16.7-1.26-1.43-2.68-2.76-4.07-4.08.16-.12.31-.22.44-.31zm1.25-1.06c.89 1.12 1.82 2.26 2.86 3.19-.07.35-.14.71-.22 1.08-1.01-1.27-2.31-2.4-3.54-3.5.31-.25.62-.5.9-.77zm.91-.93c.71.84 1.43 1.69 2.23 2.43-.04.33-.1.68-.16 1.05-.77-1.03-1.69-1.99-2.6-2.92.17-.2.36-.37.53-.56zm.88-1.04c.47.64.96 1.29 1.48 1.89-.02.27-.03.54-.06.82-.62-.71-1.31-1.39-1.98-2.05.19-.22.38-.44.56-.66zm.84-1.07c.17.23.37.44.52.65l.18.24c0 .37 0 .77-.01 1.2-.39-.48-.8-.95-1.21-1.41.17-.21.34-.43.5-.64 0-.01.01-.03.02-.04zm.66-.2-.24-.33.21-.27.03.6zm-7.25 6.1c1.8 1.87 3.58 3.93 5.59 5.58l-.27 1.02c-1.31-1.73-2.97-3.28-4.44-4.86-.19-.21-.5.1-.31.31 1.5 1.66 2.94 3.53 4.62 5.02-.07.26-.14.52-.22.78-.28-.27-.56-.53-.84-.8-.82-.81-1.66-1.61-2.49-2.41-.16-.16-.41.08-.25.25.8.83 1.59 1.67 2.39 2.5.33.34.66.71 1.01 1.06-.09.32-.18.62-.26.92-.44-.44-.89-.85-1.32-1.28-.95-.94-1.92-1.85-2.88-2.77-.14-.14-.35.07-.22.22.91.98 1.81 1.96 2.74 2.92.5.51.98 1.06 1.5 1.57-.07.23-.13.45-.19.65-1.23-1.29-2.58-2.49-3.83-3.69a.938.938 0 0 0-.38-.74.99.99 0 0 0-1.4.18c-.03.04-1.66 2.14-3.98 4.77l-5.43-4.21c-.04-.03-.08-.04-.12-.06 2.36-1.48 7.55-4.7 10.98-6.93zm-36.11 20.15c.17.36.4.85.68 1.43-1.06-.29-2.14-.54-3.21-.78.84-.29 1.79-.51 2.53-.65zm-3.31.94c1.42.39 2.85.82 4.3 1.14.13.27.26.54.41.84-1.89-.53-3.85-.91-5.78-1.29.02-.04.04-.09.06-.11.23-.22.59-.41 1.01-.58zm-5.11 33.78c-.01-.54-.01-1.1 0-1.67 1.91.46 3.88.86 5.81 1.08.24.03.27-.34.05-.41-1.89-.53-3.9-.91-5.86-1.2.01-.37.01-.74.02-1.12 3.02.66 6.06 1.42 9.13 1.79.2.02.23-.29.05-.35-2.99-.83-6.11-1.29-9.16-1.84.01-.41.03-.82.05-1.23 2.32.51 4.64 1.04 7 1.33.21.03.25-.32.05-.37-2.3-.6-4.67-.98-7.03-1.37.03-.75.08-1.52.13-2.29 1.69.43 3.54.67 5.24.56.25-.02.25-.36 0-.39-1.75-.21-3.47-.4-5.21-.68.05-.74.11-1.48.17-2.23 2.08.49 4.19 1 6.31 1.23.21.02.24-.3.05-.35-2.06-.6-4.21-.93-6.33-1.27.04-.5.09-.99.13-1.49 2.25.53 4.5 1.09 6.78 1.39.23.03.26-.33.05-.39-2.21-.66-4.51-1.06-6.79-1.5.04-.43.09-.87.13-1.3 2.25.4 4.5.86 6.77 1.04.22.02.26-.33.05-.38-2.22-.5-4.52-.73-6.79-1.01.09-.84.18-1.67.28-2.49 2.39.6 4.8 1.29 7.24 1.55.2.02.22-.28.05-.34-2.32-.79-4.81-1.17-7.23-1.63l.18-1.39c2.43.62 4.87 1.24 7.34 1.57.22.03.25-.32.05-.38-2.38-.74-4.87-1.19-7.33-1.64.09-.68.18-1.35.27-2 2.42.4 4.88.82 7.33.96.19.01.24-.3.05-.34-2.39-.54-4.87-.8-7.31-1.08.12-.83.24-1.63.36-2.4 2.6.56 5.21 1.18 7.85 1.48.2.02.24-.3.05-.35-2.57-.67-5.22-1.04-7.85-1.45.1-.61.2-1.2.29-1.77 2.16.52 4.36 1.07 6.56 1.3.23.02.26-.33.05-.39-2.11-.65-4.34-1-6.53-1.36.13-.73.26-1.42.38-2.06 2.15.65 4.32 1.31 6.52 1.72.24.04.33-.28.1-.36-2.12-.76-4.34-1.29-6.53-1.82.11-.56.22-1.07.33-1.53 2.35.62 4.74 1.4 7.14 1.71.22.03.23-.3.05-.36-2.26-.85-4.72-1.26-7.08-1.81.15-.64.3-1.16.42-1.53 2.07.51 4.15 1.04 6.25 1.36 1.36 2.78 3.25 6.47 5.07 9.56 2.73 4.63 3.7 17.63 3.94 21.71H23.01zm16.87-22.72c-2.72-4.61-5.6-10.62-6.6-12.76 1.89-.95 5.73-2.78 8.26-3.34 3.3-.73 13.61-4.92 15.97-5.89l3.25 2.52c-1.65 1.8-3.52 3.71-5.36 5.29-5.23 4.5-9.5 7.46-9.55 7.49-.27.19-.43.49-.43.82s.15.63.42.82c.02.02.51.36 1.31.94-.36.49-.54 1.35-.26 1.72.06.08.2.11.25 0 .16-.32.09-.7.2-1.04.05-.14.12-.27.19-.4.33.24.7.5 1.09.8-.21.43-.4.87-.51 1.32-.03.14.15.22.23.1.24-.35.43-.76.6-1.18.29.21.59.43.91.66-.16.41-.26.84-.24 1.27.01.12.18.15.21.03.1-.38.18-.74.3-1.1.42.31.85.63 1.3.96-.18.39-.34.78-.43 1.17-.03.14.15.22.24.1.21-.31.37-.67.52-1.03.4.3.81.61 1.23.92-.11.34-.2.67-.23 1.01-.02.16.23.22.31.08.13-.25.23-.52.32-.8.4.3.8.61 1.21.92-.15.4-.29.8-.37 1.2-.03.18.2.3.3.13.19-.32.34-.66.48-1.01.28.22.56.43.84.65-.1.29-.21.58-.33.88-.05.13.15.24.24.14.19-.22.34-.46.47-.72.36.28.71.55 1.05.83-.21.5-.4 1.01-.49 1.51-.03.17.18.27.28.12.25-.39.44-.85.61-1.31.2.16.4.32.6.49-.37.73-.62 1.5-.55 2.18.01.14.2.22.28.08.33-.56.41-1.25.66-1.85.01-.02.02-.04.03-.07.37.3.73.6 1.07.89-.1.17-.2.34-.3.52-.32.56-.74 1.14-.89 1.77-.04.16.16.28.27.16.45-.47.71-1.13 1.01-1.7.08-.15.16-.31.24-.46.31.27.61.53.89.78-.19.36-.39.73-.58 1.1-.33.62-.78 1.25-.92 1.94-.03.15.15.28.27.16.49-.51.74-1.24 1.06-1.86.17-.34.35-.68.52-1.02.43.39.79.75 1.08 1.07.02.02.04.05.06.07-.53.98-1.09 2-1.38 3.03-.06.2.2.28.31.13.58-.81 1-1.79 1.41-2.75.26.32.53.69.8 1.09-.25.44-.51.89-.76 1.33-.36.62-.8 1.25-1 1.94-.04.14.15.27.26.15.48-.53.78-1.24 1.12-1.87l.63-1.17c.17.27.35.54.52.83-.92 1.62-1.82 3.24-2.71 4.87-.15.27.26.51.41.24.86-1.57 1.7-3.16 2.53-4.75.23.38.45.79.68 1.2-1.05 1.95-2.2 3.86-3.19 5.84-.1.19.17.43.32.24 1.3-1.66 2.3-3.69 3.08-5.7.28.51.56 1.04.83 1.57-1.16 2.17-2.41 4.31-3.44 6.54-.11.25.16.45.37.28.11-.09.23-.18.34-.27.11-.09.06-.2-.04-.26 1.08-1.9 2.01-3.9 2.99-5.85.24.48.48.97.72 1.46-1.27 2.07-2.55 4.25-3.37 6.52H44.11c-.23-4.05-1.21-17.59-4.23-22.71zm29.87 22.72h-1.52l1.17-1.92c.23.53.44 1.01.61 1.42-.09.16-.18.33-.26.5zm-2.1 0H66.4c.7-1.32 1.39-2.64 2.08-3.96.25.55.49 1.08.7 1.57-.5.79-1.02 1.59-1.53 2.39zm-1.84 0h-1.37c1.09-1.97 2.03-4.01 3.1-6 .26.54.51 1.08.75 1.6-.83 1.47-1.66 2.93-2.48 4.4zm6.59 0c-.78-1.89-5.25-12.55-8.49-16.08-.9-.98-2.44-2.32-4.24-3.79.06-.08.1-.17.16-.26.15-.21-.19-.4-.34-.2-.05.06-.09.13-.14.2-1.15-.93-2.39-1.9-3.63-2.85.01-.02.01-.04.02-.06.07-.2-.18-.29-.31-.17-2.9-2.21-5.74-4.28-7.27-5.38 1.64-1.19 4.87-3.62 8.56-6.8 4.3-3.7 8.61-8.91 10.26-10.97 1.17 1.67 2.55 3.42 4.15 4.72.02.17.06.42.1.73-1.45-1.53-2.98-3-4.29-4.67-.11-.14-.36.05-.25.19 1.42 1.86 2.9 3.83 4.67 5.42.05.35.1.74.16 1.16-.17-.16-.34-.31-.5-.47-.97-.94-1.97-1.86-2.93-2.81-.15-.14-.37.08-.23.23.96.95 1.88 1.95 2.83 2.91.31.32.63.66.94 1 .04.3.09.61.13.92a.435.435 0 0 1-.06-.07c-.83-.92-1.67-1.82-2.52-2.73-.15-.16-.36.07-.23.23.75.9 1.5 1.8 2.27 2.69.23.26.45.54.68.81.05.36.11.72.16 1.09l-1.59-1.8c-.13-.15-.34.07-.22.22.61.75 1.21 1.5 1.82 2.24l.1.13c.07.44.14.88.21 1.33l-.03-.03c-.57-.56-1.15-1.1-1.72-1.65-.15-.14-.37.08-.23.23.54.58 1.09 1.16 1.64 1.73.15.16.31.32.46.49.07.44.14.87.21 1.3l-.75-1.02c-.14-.2-.48-.01-.33.19.41.58.83 1.16 1.24 1.74.38 2.18.75 4.08 1.06 5.07.76 2.42 2.25 17.82 2.88 24.83H72.4zm46.74 0H78.82c-.36-4.02-1.81-19.82-2.76-24.51 5.48 4.41 14.49 11.28 23.41 16.49.34.2.76.18 1.08-.04.67-.47 12.78-8.95 21.12-15.19-.19 1.15-.38 2.61-.59 4.24-.02.04-.02.07-.01.12-.81 6.59-1.67 15.93-1.93 18.89zm2.17-1.87c.54.68 1.16 1.33 1.85 1.87h-.96c-.1-.28-.27-.52-.42-.77-.07-.11-.25-.01-.18.1.14.23.26.46.43.67h-.88c.04-.57.1-1.2.16-1.87zm2.83 1.87c-.98-.81-1.92-1.61-2.76-2.59.07-.77.15-1.59.23-2.44 1.27 1.57 2.52 3.18 3.93 4.6-.07.17-.14.32-.18.43h-1.22zm3.4 0c1.32-3.02 5.29-11.8 7.98-14.72 3.3-3.58 16.45-12.95 16.58-13.05.27-.19.42-.5.42-.82s-.16-.63-.43-.82c-.03-.02-1.61-1.11-4.01-2.97.03-.06.06-.12.12-.18.17-.18-.09-.44-.27-.27-.06.06-.11.13-.16.2-.29-.22-.58-.46-.89-.7.17-.35.34-.7.52-1.05.1-.21-.2-.39-.31-.18-.17.33-.34.66-.52.99-.36-.28-.72-.58-1.1-.89.03-.05.06-.11.09-.16.28-.51.56-1.03.85-1.54.11-.2-.19-.38-.31-.18-.3.5-.6 1.01-.9 1.51-.02.03-.04.07-.06.1-.33-.27-.67-.55-1.01-.84.3-.36.63-.67 1-.95.19-.14.01-.46-.19-.32-.4.29-.78.61-1.11.98l-.03.03c-.28-.24-.57-.48-.86-.73.1-.16.21-.32.33-.46.4-.48.87-.89 1.37-1.26.2-.15.01-.48-.2-.34-.54.37-1.04.8-1.48 1.29-.12.13-.26.29-.39.45-.01-.01-.02-.01-.03-.02-.2-.17-.41-.36-.61-.55.22-.31.43-.62.68-.91.53-.62 1.12-1.19 1.75-1.71.21-.18-.09-.47-.3-.3-.87.71-1.82 1.59-2.53 2.57-.23-.21-.46-.42-.69-.64.24-.27.47-.56.7-.83.46-.53.91-1.07 1.37-1.6.18-.21-.12-.52-.31-.31l-1.38 1.59c-.24.27-.49.54-.73.82-.24-.23-.48-.46-.72-.7 1.04-1.27 2.06-2.52 3.3-3.64.17-.16-.08-.41-.26-.26-1.22 1.06-2.43 2.21-3.42 3.51-.26-.26-.52-.52-.77-.79 1.11-1.14 2.21-2.29 3.31-3.44v-.01c3.72 1.51 11.65 4.65 14.47 5.28 2.53.56 6.37 2.39 8.26 3.34-1 2.13-3.88 8.15-6.6 12.76-3.02 5.12-4 18.66-4.23 22.72h-26.29zm46.66 0c.26-.24.52-.48.76-.74 0 .25 0 .5-.01.74h-.75z" fill="#000000" stroke-width="none" opacity="1"></path></g><g id="svga-group-head" transform="matrix(1,0,0,1,0,0)"><g id="svga-group-ears-left-move" transform="matrix(1,0,0,1,0,0)"><g id="svga-group-ears-left" transform="matrix(1,0,0,1,0,0)"><path id="SvgjsPath48344" d="M60.7 84.7s-1.8-5-3.3-7.9-3.6-6.3-6.6-7.2-4 3.9-2.9 8.3 4.2 13.9 5 17.6 1.8 8.1 3.6 7.5 7.1-7.7 4.2-18.3z" fill="#ffffff" stroke-width="none" opacity="1"></path><path id="SvgjsPath48345" d="M55.1 103.6c-1.5-.8-2.3-3.8-3.2-8-.4-2.2-1.7-6.4-2.9-10.5-.8-2.7-1.6-5.3-2.1-7.1-.9-3.5-.5-7.1 1-8.6.8-.8 1.8-1 2.9-.7 3.3.9 5.5 4.4 7.2 7.6 1.6 2.9 3.3 7.8 3.4 8v.1c3.1 11.1-2.6 18.5-4.8 19.3-.2.1-.4.1-.6.1-.3.1-.6 0-.9-.2zm1.5-26.4c-1.6-2.9-3.4-6-6.1-6.7-.5-.1-.9 0-1.3.3-1.1 1.1-1.3 4-.6 6.9.5 1.8 1.2 4.3 2 7 1.2 4.1 2.5 8.4 3 10.6.8 4.1 1.6 6.4 2.3 6.8h.1c1.1-.4 6.6-6.8 3.8-17.2-.1-.4-1.8-5.1-3.2-7.7z" fill="#000000" stroke-width="none" opacity="1"></path><path id="SvgjsPath48346" d="M48.8 72.7c1.9-.8 3.6 1.4 4.8 3.3 1.6 2.5 2.6 5.5 2.9 8.6v.2c0 .2 0 .5.1.7 0 .2-.2.2-.2 0-.1-.4-.2-.9-.3-1.4 0 0-.1-.1-.1-.2-1.2-.6-1.8-.3-1.8.8 0 .7.2 1.5.3 2.2.3 1.2.9 2.3 1.3 3.5.1.2-.2.4-.3.2-.9-1.6-2.6-5.3-1.5-7.2.5-.9 1.3-.8 1.9-.2-.5-2-1.2-4.3-2.2-6.2-2.1 4.5-1 9.2.1 14.2 0 .2-.2.3-.3.1-1.4-4.6-2.7-10.7 0-14.5-1.2-2.2-2.8-3.9-4.7-3.8-.1.1-.2-.3 0-.3z" fill="#000000" stroke-width="none" opacity="1"></path></g></g><g id="svga-group-ears-right-move" transform="matrix(1,0,0,1,0,0)"><g id="svga-group-ears-right" transform="matrix(1,0,0,1,0,0)"><path id="SvgjsPath48347" d="M139.3 84.7s1.8-5 3.3-7.9 3.6-6.3 6.6-7.2 4 3.9 2.9 8.3-4.2 13.9-5 17.6c-.7 3.7-1.8 8.1-3.6 7.5s-7.1-7.7-4.2-18.3z" fill="#ffffff" stroke-width="none" opacity="1"></path><path id="SvgjsPath48348" d="M144 103.9c-.2 0-.4 0-.6-.1-2.2-.8-7.9-8.2-4.8-19.3v-.1c.1-.2 1.8-5.1 3.4-8 1.7-3.2 3.9-6.7 7.2-7.6 1.1-.3 2.2 0 2.9.7 1.5 1.5 1.9 5 1 8.6-.5 1.8-1.2 4.4-2.1 7.1-1.2 4.1-2.5 8.3-2.9 10.5-.8 4.2-1.7 7.2-3.2 8-.3.1-.6.2-.9.2zm-3.9-19c-2.9 10.4 2.6 16.8 3.8 17.2h.1c.7-.4 1.5-2.7 2.3-6.8.5-2.3 1.7-6.5 3-10.6.8-2.7 1.6-5.3 2-7 .8-2.9.5-5.9-.6-6.9-.3-.3-.8-.4-1.3-.3-2.7.7-4.6 3.9-6.1 6.7-1.3 2.6-3 7.3-3.2 7.7z" fill="#000000" stroke-width="none" opacity="1"></path><path id="SvgjsPath48349" d="M151.2 72.7c-1.9-.8-3.6 1.4-4.8 3.3-1.6 2.5-2.6 5.5-2.9 8.6v.2c0 .2 0 .5-.1.7 0 .2.2.2.2 0 .1-.4.2-.9.3-1.4.1-.1.1-.2.2-.3 1.2-.6 1.8-.3 1.8.8 0 .7-.2 1.5-.3 2.2-.3 1.2-.9 2.3-1.3 3.5-.1.2.2.4.3.2.9-1.6 2.6-5.3 1.5-7.2-.5-.9-1.3-.8-1.9-.2.5-2 1.2-4.3 2.2-6.2 2.1 4.5 1 9.2-.1 14.2 0 .2.2.3.3.1 1.4-4.6 2.7-10.7 0-14.5 1.2-2.2 2.8-3.9 4.7-3.8 0 .2.1-.2-.1-.2z" fill="#000000" stroke-width="none" opacity="1"></path></g></g><g id="svga-group-faceshape-wrap" transform="matrix(1,0,0,1,0,0)"><g id="svga-group-faceshape-single"><path id="SvgjsPath48418" d="M142.4 53.6c-2.3-11.4-15.1-28.8-42.4-28.8S63.6 38.2 59.6 48.1c-2.5 6.2-3.2 15.2-3.4 19.7 0 0 1.2 30.4 10.8 47.3 9.6 16.8 24.8 25.4 29.4 28.6s28.8-15.1 36.1-27.9 10.1-35.4 11.4-47.9c-.1-3.3-.4-9-1.5-14.3z" fill="#ffffff" stroke-width="none" opacity="1"></path><path id="SvgjsPath48419" d="M97.8 145.3c-.8 0-1.6-.2-2.1-.6-.5-.4-1.2-.8-1.9-1.3-6.2-4.1-19.2-12.6-27.8-27.7-9.7-17-10.9-46.6-11-47.9v-.2c.2-4.8 1-13.8 3.5-20.1 6.5-16.1 20.1-24 41.5-24 27.6 0 41.2 17.8 43.6 29.8.8 4 1.4 8.9 1.5 14.4v.2c-.9 8.5-3.6 34.4-11.6 48.4-6.5 11.4-25.9 26.9-34.1 28.7-.5.2-1.1.3-1.6.3zM57.5 67.8c.1 1.4 1.5 30.6 10.6 46.7 8.3 14.6 21 22.9 27 26.9.8.5 1.5 1 2 1.3.1.1.6.3 1.8 0 7.6-1.7 26.3-16.8 32.5-27.5 7.7-13.5 10.4-38.9 11.3-47.4-.2-5.3-.7-10-1.5-13.9C138.9 42.7 126.1 26 100 26c-20.3 0-33.1 7.4-39.2 22.5-2.4 6-3.1 14.6-3.3 19.3z" fill="#000000" stroke-width="none" opacity="1"></path></g></g><g id="svga-group-mouth-single-move" transform="matrix(1,0,0,1,0,0)"><g id="svga-group-mouth-single" transform="matrix(1,0,0,1,0,0)"><path id="SvgjsPath48288" d="M116.44 117.28c-3.07.92-5.96.99-9.13.84-2.84-.14-3.53 1.63-5.97 2.49-1.48.52-1.78.25-3.08-.45-.54-.3-1.04-.65-1.61-.89-.98-.41-1.93-.5-2.99-.54-3.22-.12-6.47-.04-9.69-.05-.82 0-.82 1.26 0 1.27 3.31.02 6.89-.36 10.17.06 1.97.25 3.07 1.26 4.79 1.95.82.33 1.68.55 2.55.33.68-.17 1.21-.56 1.74-1 1.54-1.29 2.79-1.98 4.87-1.83 2.98.21 5.83-.1 8.69-.96.77-.24.44-1.46-.34-1.22z" fill="#000000" stroke-width="none" opacity="1"></path><path id="SvgjsPath48289" d="M109.97 123.47c-1.64 2.42-6.83 1.59-9.43 1.62-3.14.05-6.48.19-8.86-2.2-.29-.29-.74.16-.45.45 2.75 2.76 6.6 2.42 10.21 2.37 2.84-.04 7.22.82 9.08-1.92.22-.34-.33-.66-.55-.32z" fill="#000000" stroke-width="none" opacity="1"></path><path id="SvgjsPath48290" d="M95.96 116.26c1.41.33 3.14 1.04 4.6.94 1.16-.08 2.35-1.01 3.35-1.53.36-.19.04-.74-.32-.55-1.1.58-2.34 1.48-3.6 1.4-1.26-.08-2.64-.58-3.86-.87-.4-.09-.57.52-.17.61z" fill="#000000" stroke-width="none" opacity="1"></path></g></g><g id="svga-group-eyes-left-move" transform="matrix(1,0,0,1,0,0)"><g id="svga-group-eyes-left" transform="matrix(1,0,0,1,0,0)"><g id="svga-group-eyesback-left"></g><g id="svga-group-eyesiriswrapper-left"><g id="svga-group-eyesiriscontrol-left" transform="matrix(1,0,0,1,0,0)"><g id="svga-group-eyesiris-left" transform="matrix(1,0,0,1,0,0)"><path id="SvgjsPath48458" d="M83.6 85.1c-1.1-2.1-3.5-2.9-5.7-2.2-2.4.8-4.2 3.3-3.3 5.9.5 1.4 1.6 2.6 3.1 2.9.5.1 1 .1 1.6.1.6.1 1.2 0 1.8-.2 2.6-.9 3.8-4 2.5-6.5z" fill="#ffffff" stroke-width="none" opacity="1"></path><path id="SvgjsPath48459" d="M81.8 86.2c0-.1 0-.1-.1-.2-.6-1.2-2.2-1.7-3.4-1.1.3.2.5.6.6.8.2.4.6 1.1.1 1.3-.4.2-1.1 0-1.4-.2-.2-.1-.4-.3-.5-.5 0 .1-.1.1-.1.2-.1.2-.1.5-.1.7-.2.7 0 1.5.6 2.1.3.2.6.4.9.4.6.3 1.3.4 2 .1-.1-.1-.2-.3-.2-.4 0-.3.2-.6.5-.7.3-.1.6 0 .8.2.3-.3.5-.8.6-1.2.2-.5 0-1.1-.3-1.5zM79.6 92h-.4c-.5 0-1.1 0-1.6-.1-1.4-.3-2.7-1.5-3.2-3-.9-2.7 1-5.2 3.4-6.1 2.3-.8 4.8.1 5.9 2.2.6 1.2.7 2.7.2 4-.5 1.3-1.6 2.3-2.9 2.8-.4.1-.9.2-1.4.2zm-.4-.3c.6.1 1.2 0 1.8-.2 1.2-.4 2.2-1.4 2.7-2.6.5-1.2.4-2.6-.2-3.7-1-1.9-3.4-2.8-5.5-2.1-2.3.8-4.1 3.2-3.2 5.7.5 1.4 1.7 2.6 3 2.8.4.1.9.1 1.4.1z" fill="#000000" stroke-width="none" opacity="1"></path></g></g></g><g id="svga-group-eyesfront-left"><path id="SvgjsPath48384" d="M79 72.1c-8.2 0-14.8 6.6-14.8 14.8s6.6 14.8 14.8 14.8 14.8-6.6 14.8-14.8c0-8.1-6.6-14.8-14.8-14.8zm5.9 21.2c-1.8 1.5-4.5 3.2-8.1 3s-7.1-4.5-7.5-6.7c0 0 2.3-3.1 3.8-4.2 1.4-1.1 2.8-3.2 5.8-3.2s5.9.6 7.9 4.6c0-.1-.1 4.9-1.9 6.5z" fill="#ffffff" stroke-width="none" opacity="1"></path><path id="SvgjsPath48385" d="M88.6 83.7c-1.3-2.4-4.2-4.3-7.8-5.3-5.6-1.5-9.6 3.2-10.6 4.6 0 .1-4.6 6.5-4 7.8.1.2.3.4.6.4H67.1c.4.4 1.1.6 1.6.3.1-.1.1-.3 0-.3-.3-.1-.6-.2-.8-.3.4-.2.9-.6 1.5-1.1.8 2.8 2.6 4.9 5.1 6 1.2.6 2.6.8 4 .8 1.7 0 3.4-.4 4.9-1.2 3.2-1.7 4.1-4.9 4.4-7 .2.3.3.7.4.9.2.5.3.8.7.8.2 0 .4-.2.5-.4.4-2 .2-4.1-.8-6zm-11.1-4.4c-.1.8-.1 1.7.3 2.4-.4.1-.8.2-1.2.4l-.3-.9c-.1-.5-.2-.9-.3-1.4.5-.3 1-.4 1.5-.5zm-2.1.6c-.1.8.1 1.8.5 2.4-.4.2-.7.4-1.1.7l-.3-.9c-.1-.5-.2-1-.3-1.6l1.2-.6zm-1.6 1c0 .8.2 1.8.6 2.5-.2.1-.3.3-.5.4l-.7.7c-.1-.3-.2-.5-.3-.8-.2-.6-.3-1.3-.3-1.9l1.2-.9zm-1.7 1.5c-.1.9.1 2 .5 2.8l-.8.8c-.1-.2-.2-.5-.3-.7-.2-.5-.4-1.1-.5-1.6.2-.3.6-.8 1.1-1.3zm-1.6 1.9c.1.8.3 1.6.8 2.2l-.7.7c0-.1-.1-.2-.1-.3-.2-.6-.3-1.3-.4-1.9.1-.3.3-.5.4-.7zm-3.3 5.9c.1-.3.3-.7.6-1.2.1.2.1.4.3.6-.4.2-.7.4-.9.6zm1.4-1.1c0-.4-.1-.7-.2-1.1 0-.1 0-.1-.1-.2.1-.1.1-.2.2-.4.1.3.1.6.2.9 0 .2.1.3.1.5 0 .1-.1.2-.2.3zm.8-.8-.3-1.5-.1-.1c.2-.3.4-.6.5-.9 0 .7.1 1.4.4 2l-.5.5zm13.2 6.4c-2.4 1.3-5.5 1.5-8 .4-1.7-.7-3.8-2.3-4.6-5.8v-.1c.9-.8 2-1.9 3.3-3.2.2.1.4 0 .4-.3v-.1l1-1c2.5-2.5 6.4-2.8 9.3-.7 1.2.9 2 1.9 2.7 3-.1 1-.3 5.7-4.1 7.8zm5.8-6.5c-.2-.5-.5-1-.8-1.6 0-.2-.1-.3-.2-.4-.7-1.1-1.6-2.2-2.8-3.1a8.2 8.2 0 0 0-4.9-1.6c-.4 0-.9 0-1.3.1-.1-.3-.2-.6-.3-1-.1-.4-.1-.9-.1-1.3.8-.1 1.7 0 2.6.2 3.4.9 6 2.6 7.2 4.8.6 1.1.8 2.5.6 3.9z" fill="#000000" stroke-width="none" opacity="1"></path></g></g></g><g id="svga-group-eyes-right-move" transform="matrix(1,0,0,1,0,0)"><g id="svga-group-eyes-right" transform="matrix(1,0,0,1,0,0)"><g id="svga-group-eyesback-right"></g><g id="svga-group-eyesiriswrapper-right"><g id="svga-group-eyesiriscontrol-right" transform="matrix(1,0,0,1,0,0)"><g id="svga-group-eyesiris-right" transform="matrix(1,0,0,1,0,0)"><path id="SvgjsPath48460" d="M125.6 85.1c-1.1-2.1-3.5-2.9-5.7-2.2-2.4.8-4.2 3.3-3.3 5.9.5 1.4 1.6 2.6 3.1 2.9.5.1 1 .1 1.6.1.6.1 1.2 0 1.8-.2 2.5-.9 3.7-4 2.5-6.5z" fill="#ffffff" stroke-width="none" opacity="1"></path><path id="SvgjsPath48461" d="M123.8 86.2c0-.1 0-.1-.1-.2-.6-1.2-2.2-1.7-3.4-1.1.3.2.5.6.6.8.2.4.6 1.1.1 1.3-.4.2-1.1 0-1.4-.2-.2-.1-.4-.3-.5-.5 0 .1-.1.1-.1.2-.1.2-.1.5-.1.7-.2.7 0 1.5.6 2.1.3.2.6.4.9.4.6.3 1.3.4 2 .1-.1-.1-.2-.3-.2-.4 0-.3.2-.6.5-.7.3-.1.6 0 .8.2.3-.3.5-.8.6-1.2.1-.5 0-1.1-.3-1.5zm-2.2 5.8h-.4c-.5 0-1.1 0-1.6-.1-1.4-.3-2.7-1.5-3.2-3-.9-2.7 1-5.2 3.4-6.1 2.3-.8 4.8.1 5.9 2.2.6 1.2.7 2.7.2 4-.5 1.3-1.6 2.3-2.9 2.8-.4.1-.9.2-1.4.2zm-.4-.3c.6.1 1.2 0 1.8-.2 1.2-.4 2.2-1.4 2.7-2.6.5-1.2.4-2.6-.2-3.7-1-1.9-3.4-2.8-5.5-2.1-2.3.8-4.1 3.2-3.2 5.7.5 1.4 1.7 2.6 3 2.8.3.1.8.1 1.4.1z" fill="#000000" stroke-width="none" opacity="1"></path></g></g></g><g id="svga-group-eyesfront-right"><path id="SvgjsPath48386" d="M121 72.1c-8.2 0-14.8 6.6-14.8 14.8s6.6 14.8 14.8 14.8 14.8-6.6 14.8-14.8c0-8.1-6.6-14.8-14.8-14.8zm2.1 24.2c-3.6.2-6.3-1.4-8.1-3-1.8-1.5-1.9-6.5-1.9-6.5 2-3.9 4.9-4.5 7.9-4.6 3 0 4.4 2.1 5.8 3.2 1.4 1.1 3.8 4.2 3.8 4.2-.4 2.1-3.9 6.5-7.5 6.7z" fill="#ffffff" stroke-width="none" opacity="1"></path><path id="SvgjsPath48389" d="M129.8 83.1c-1.1-1.5-5-6.1-10.6-4.6-3.6.9-6.5 2.9-7.8 5.3-1 1.8-1.2 3.9-.5 6.1.1.2.2.3.4.4.2.7.5 1.4 1 1.9.1.1.3 0 .3-.2-.2-.7-.5-1.3-.8-1.9.1-.1.2-.3.3-.6.1-.2.2-.5.4-.9.3 2.1 1.2 5.3 4.4 7 1.5.8 3.2 1.2 4.9 1.2 1.4 0 2.7-.3 4-.8 2.5-1.1 4.3-3.2 5.1-6 1.1 1 1.9 1.4 2.4 1.4h.1c.3 0 .5-.2.6-.4.4-1.4-4.1-7.8-4.2-7.9zm-13.3-2.6c.6-.3 1.2-.5 1.9-.8-.1.6-.3 1.3-.1 1.9-.6.1-1.1.3-1.7.6-.1-.4-.2-.9-.1-1.7.1.1 0 .1 0 0zm-1.8 1.1c.4-.3.9-.6 1.4-.9-.1.6-.1 1.3.1 1.8-.3.2-.5.3-.8.5-.2.2-.5.4-.7.6 0-.1-.1-.2-.1-.3-.1-.5-.1-1 .1-1.5.1-.1.1-.1 0-.2zm-.4.3c-.3.6-.3 1.5 0 2.2-.3.3-.6.6-.9 1l-.3-.6c-.1-.4-.1-.8 0-1.1 0-.1 0-.1-.1-.2.4-.5.8-.9 1.3-1.3zm-2.8 6.3c-.1-.7-.1-1.4.1-2.1.1.4.3.7.5 1-.2.4-.4.8-.6 1.1zm.6-2.6c0-.4 0-.9.1-1.3v-.1c.1-.2.3-.4.4-.6-.1.6 0 1.4.4 1.9-.2.2-.3.5-.5.7-.1.1-.2.2-.3.4l-.1.1c.1-.4.1-.7 0-1.1zm17.9 3.6c-.8 3.5-3 5.1-4.6 5.8-2.5 1.1-5.5 1-8-.4-3.8-2.1-4-6.7-4-7.8.4-.7.9-1.4 1.6-2h.1c.2.1.3-.1.3-.3v-.1c.3-.2.5-.5.8-.7.2-.2.5-.3.8-.5.1.1.2 0 .2-.1 2.7-1.4 6.1-1 8.3 1.3l1.2 1.2c1.2 1.6 2.4 2.7 3.3 3.6zm-2.8-4.2-1.2-1.2c-1.6-1.6-3.6-2.4-5.7-2.4-.5 0-1.1.1-1.6.2.1-.6.1-1.3.1-2 .2-.1.4-.1.6-.2s.4-.1.6-.1c-.1.5-.2 1 0 1.5.1.2.3.2.4 0 .1-.5.1-1.1.1-1.6 4.4-.5 7.5 3.2 8.4 4.5 1.1 1.5 3.3 5.1 3.8 6.5-1.1-.7-3.9-3.5-5.5-5.2z" fill="#000000" stroke-width="none" opacity="1"></path></g></g></g><g id="svga-group-facehighlight-single"></g><g id="svga-group-eyebrows-left-move" transform="matrix(1,0,0,1,0,0)"><g id="svga-group-eyebrows-left-rotate" transform="matrix(1,0,0,1,0,0)"><g id="svga-group-eyebrows-left" transform="matrix(1,0,0,1,0,0)"><path id="SvgjsPath48304" d="M64.92 73.74s20.93-3.78 23.62-3.09c2.69.69 1.03 4.86.09 4.91-.93.05-23.71-1.82-23.71-1.82z" fill="#ffffff" stroke-width="none" opacity="1"></path><path id="SvgjsPath48305" d="M64.51 73.76c.01.22.17.41.38.42.91.08 22.14 1.82 23.71 1.82h.06c.84-.05 1.64-1.67 1.75-2.99.12-1.46-.52-2.48-1.77-2.8-2.74-.7-22.93 2.93-23.79 3.09a.44.44 0 0 0-.34.46zm8.49.19-2.03-.81c.57-.09 1.15-.19 1.74-.28.02.02.03.05.05.07l2.08 1.17-1.84-.15zm3.22.26-2.64-1.49c.74-.12 1.49-.24 2.24-.35l1.53 1.93-1.13-.09zm1.9.15-1.66-2.09 1.43-.21.95 2.36-.72-.06zm1.33.1-1-2.49c.52-.08 1.03-.15 1.54-.22l.05 2.75c-.19-.01-.39-.02-.59-.04zm3.49.27.82-3.45c.55-.06 1.06-.11 1.54-.15l-1.88 3.64c-.15-.01-.31-.03-.48-.04zm3.82-3.71-1.41 3.89c-.41-.03-.85-.06-1.32-.1l1.93-3.74c.29-.02.55-.04.8-.05zm-4.37 3.67c-.21-.02-.42-.03-.64-.05l.47-3.17.97-.12-.8 3.34zm-1.19-.09c-.2-.02-.41-.03-.62-.05l-.05-2.87c.38-.05.76-.1 1.12-.15l-.45 3.07zm7.61-3.37-2.12 3.78c-.24-.02-.5-.03-.77-.05l1.43-3.95h.16c.42 0 .73.02.93.07.15.03.26.09.37.15zm-1.16 3.84c-.11-.01-.22-.01-.34-.02l1.94-3.47c.15.18.25.41.3.68l-1.88 2.71c-.02.03-.01.07-.02.1zm.61.03 1.29-1.86c-.17.99-.72 1.82-.94 1.87-.05.01-.17 0-.35-.01zm-19.87-1.52c.5-.08 1.02-.17 1.55-.26.03.03.04.06.08.08l1 .4c-.89-.08-1.77-.15-2.63-.22z" fill="#000000" stroke-width="none" opacity="1"></path></g></g></g><g id="svga-group-eyebrows-right-move" transform="matrix(1,0,0,1,0,0)"><g id="svga-group-eyebrows-right-rotate" transform="matrix(1,0,0,1,0,0)"><g id="svga-group-eyebrows-right" transform="matrix(1,0,0,1,0,0)"><path id="SvgjsPath48306" d="M135.08 73.74s-20.93-3.78-23.62-3.09c-2.69.69-1.03 4.86-.09 4.91.93.05 23.71-1.82 23.71-1.82z" fill="#ffffff" stroke-width="none" opacity="1"></path><path id="SvgjsPath48307" d="M135.15 73.3c-.86-.16-21.05-3.79-23.79-3.09-1.24.32-1.89 1.34-1.77 2.8.11 1.31.91 2.94 1.75 2.99h.06c1.56 0 22.79-1.74 23.71-1.82.21-.02.37-.2.38-.42a.44.44 0 0 0-.34-.46zm-9.99.8 2.08-1.17c.03-.02.03-.05.05-.07.59.1 1.17.19 1.74.28l-2.03.81-1.84.15zm-2.51.2 1.53-1.93c.75.12 1.5.23 2.24.35l-2.64 1.49-1.13.09zm-1.49.11.95-2.36 1.43.21-1.66 2.09c-.24.03-.48.05-.72.06zm-1.2.1.05-2.75c.5.07 1.02.14 1.54.22l-1 2.49c-.2.01-.4.02-.59.04zm-3.39.26-1.88-3.64c.48.04.99.09 1.54.15l.82 3.45c-.16.01-.32.03-.48.04zm-2.53-3.7 1.93 3.74c-.47.03-.91.07-1.32.1l-1.41-3.89c.25.01.51.03.8.05zm2.77.28c.31.04.64.08.97.12l.47 3.17c-.22.02-.43.03-.64.05l-.8-3.34zm1.53.18 1.12.15-.05 2.87c-.21.02-.41.03-.62.05l-.45-3.07zm-6.79-.45c.2-.05.52-.07.93-.07h.16l1.43 3.95c-.28.02-.53.04-.77.05l-2.12-3.78c.12-.06.23-.12.37-.15zm.78 3.89-1.88-2.71c.05-.27.15-.5.3-.68l1.94 3.47c-.12.01-.23.02-.34.02-.01-.03 0-.07-.02-.1zm-.94.14c-.22-.05-.77-.88-.94-1.87l1.29 1.86c-.18.01-.3.02-.35.01zm17.59-1.32 1-.4c.04-.01.05-.05.08-.08.53.09 1.06.18 1.55.26-.86.08-1.74.15-2.63.22z" fill="#000000" stroke-width="none" opacity="1"></path></g></g></g><g id="svga-group-beardwrap" transform="matrix(1,0,0,1,0,0)"><g id="svga-group-beard-single-move" transform="matrix(1,0,0,1,0,0)"><g id="svga-group-beard-single" transform="matrix(1,0,0,1,0,0)"></g></g></g><g id="svga-group-mustache-single-move" transform="matrix(1,0,0,1,0,0)"><g id="svga-group-mustache-single" transform="matrix(1,0,0,1,0,0)"><path id="SvgjsPath48486" d="M100.6 110.5s-10.6-1-15.5 2.4-3.6 6.4-3.6 6.4l2.2-1.3.4 1.7 2.3-1.2.6 1.7 2.1-1 .8 1.2 1.8-.8.6 1.3 2.1-1 1.3 1 1.4-1.4 1.2 1.6 1.3-1.3 1.3 1.6 1.3-1.6 1.3 1.6 1-1.6 1 1.3s.8-2.1 1.2-1.7c.4.4 1.3 1.7 1.3 1.7l1.6-1.9.9 1.6 1-1.8s.9 1.3 1 .9.5-1.6.5-1.6l1.9.9-.1-2.1 2.3 2.1s1-2.2-.4-5c-1.4-2.9-7.1-4.5-16.1-3.7z" fill="#ffffff" stroke-width="none" opacity="1"></path><path id="SvgjsPath48487" d="M117.1 113.9c-1.6-3.1-7.7-4.6-16.5-3.8-.8-.1-10.8-.9-15.7 2.5-5.1 3.6-3.8 6.8-3.7 6.9l.2.4 2.1-1.2.4 1.6 2.4-1.2.7 1.7 2.1-1.1.8 1.2 1.8-.8.7 1.3 2.2-1.1 1.4 1.1 1.3-1.3 1.2 1.6 1.3-1.3 1.3 1.6 1.3-1.6 1.3 1.6 1-1.5 1.1 1.4.2-.6c.2-.6.5-1.2.7-1.4.3.4.9 1.2 1.1 1.5l.3.4 1.5-1.9 1 1.6 1.1-1.9c.6.7.8.7 1 .7.2 0 .3-.2.4-.3l.4-1.2 2.1 1-.1-1.8 2 1.8.2-.4c-.2-.2.8-2.5-.6-5.5zm-.2 4.6-2.3-2.1c-.6-1.6-2-3-3.3-4.1-.2-.2-.6.1-.3.3 1.7 1.7 3.4 3.3 3.5 5.8l-1.6-.8-.5 1.6c-.2-.2-.3-.4-.5-.6l-.3-.5-1 1.8-.8-1.5-1.6 2c-.3-.4-.8-1.1-1-1.3-.1-.1-.3-.2-.5-.2-.3.1-.7.5-1.1 1.3l-.9-1.2-1 1.6-1.3-1.5-1.3 1.6-1.3-1.5-1.3 1.3-1.2-1.6-1.5 1.5-1.2-1-1.9 1-.6-1.3-1.8.8-.7-1c.8-1.9 1.9-3.4 3.2-4.9.1-.1 0-.3-.2-.2-1.8 1.2-3.1 3.1-3.6 5.2l-1.5.8-.5-1.3c.6-1.2 1.2-2.3 2.2-3.3 1-1.1 2.2-1.7 3.4-2.5.2-.1.1-.4-.2-.4-2.6.7-5.2 3.4-5.9 6l-2 1-.4-1.6c.1 0 .1 0 .2-.1.6-.8 1.3-1.6 2-2.3s1.6-1.2 2.4-1.8c.2-.1.1-.4-.2-.4-1.9.8-3.6 2.5-4.7 4.3-.1.1 0 .2 0 .2l-2.1 1.2c-.1-.9 0-3.1 3.6-5.6 4.7-3.4 15.1-2.4 15.2-2.4 8.3-.7 14.3.6 15.8 3.4 1 2 .8 3.5.6 4.3zm-19.6-6.4c.2-.2-.1-.5-.3-.4-2 1.5-3.6 3.9-3.5 6.5 0 .2.3.2.3 0 .7-2.3 1.6-4.4 3.5-6.1zm.5 1c-1 1.5-1.8 3.3-1.7 5.2 0 .2.3.3.4.1.3-1.8.7-3.4 1.6-5 .2-.3-.2-.5-.3-.3zm3.3-1.1c.1 2.3-.4 4.8-.2 7.1 0 .2.3.2.3.1.7-2.2.5-4.9.3-7.1 0-.3-.4-.3-.4-.1zm1.8.7c.4 1 .7 2.1.8 3.2.1 1-.2 2-.2 2.9 0 .2.3.3.4.1 1-2 .4-4.6-.6-6.4-.2-.1-.5 0-.4.2zm2.9-.5c.8 1 1.4 2.1 1.9 3.2.4 1.1.6 2.2 1 3.2.1.2.3.2.4-.1.2-2.4-1.3-5-2.9-6.7-.3-.1-.6.2-.4.4zm2.7-.3c-.2-.1-.4.2-.2.3 1.9 1.5 2.8 3.3 3.6 5.6.1.2.4.2.4-.1 0-2.3-1.8-4.7-3.8-5.8z" fill="#000000" stroke-width="none" opacity="1"></path></g></g><g id="svga-group-nose-single-move" transform="matrix(1,0,0,1,0,0)"><g id="svga-group-nose-single" transform="matrix(1,0,0,1,0,0)"><path id="SvgjsPath48496" d="M105.44 100.55s2.43 2.68 3.35 5.44c.92 2.76.84 4.52-1.34 5.1-2.17.59-3.76-.84-3.76-.84s-1.76 2.84-4.1 2.43c-2.34-.42-3.18-2.17-3.18-2.17s-2.76 1.59-4.27.67-1.84-3.85-1-5.6c.84-1.76 3.26-4.85 3.26-4.85s-.75-3.93.17-6.36 1.92-3.76 4.77-4.52c2.84-.75 4.27 1.09 5.1 2.09.84 1 1.92 4.43 1 8.61z" fill="#ffffff" stroke-width="none" opacity="1"></path><path id="SvgjsPath48497" d="M107.82 102.5c-.44-.7-1.56-.06-1.12.65.93 1.49 1.85 3.27 1.93 5.07.11 2.62-2.86 3.29-4.45 1.49-.27-.31-.83-.22-1.02.13-1.47 2.75-4.68 2.97-6.33.24a.66.66 0 0 0-1.02-.13c-1.54 1.46-4.29.98-4.55-1.35-.19-1.68.64-3.51 1.36-4.99.36-.74-.75-1.4-1.12-.65-1.04 2.14-2.53 5.49-.83 7.68 1.36 1.75 3.75 1.83 5.45.69 2.09 2.69 5.76 2.6 7.73-.17 1.71 1.29 4.43 1.27 5.63-.78 1.4-2.36-.4-5.85-1.66-7.88z" fill="#000000" stroke-width="none" opacity="1"></path><path id="SvgjsPath48498" d="M95.91 104.08c-1.08-2.69-1.49-5.59-.98-8.46.47-2.64 1.77-5.03 1.77-7.75 0-1.38-.28-2.76-.22-4.14.05-1.34.47-2.63.57-3.97.17-2.41-.85-4.61-1.87-6.73-.36-.75-1.48-.09-1.12.65.61 1.27 1.24 2.55 1.54 3.94.36 1.64-.03 3.09-.28 4.7-.4 2.64.43 5.25-.19 7.88-.56 2.38-1.53 4.57-1.68 7.04-.15 2.47.3 4.9 1.21 7.19.31.75 1.56.42 1.25-.35z" fill="#000000" stroke-width="none" opacity="1"></path><path id="SvgjsPath48499" d="M103.25 83.61c.04 1.38-.22 2.76-.22 4.14-.01 2.62 1.21 4.93 1.71 7.46.58 2.97.2 5.96-.92 8.75-.31.77.94 1.11 1.25.34.91-2.29 1.37-4.73 1.21-7.19-.16-2.47-1.11-4.66-1.68-7.04-.62-2.62.21-5.24-.19-7.88-.23-1.48-.62-2.9-.34-4.41.27-1.49.95-2.87 1.6-4.22.36-.75-.75-1.4-1.12-.65-.97 2.01-1.98 4.14-1.89 6.43.05 1.43.55 2.82.59 4.27z" fill="#000000" stroke-width="none" opacity="1"></path></g></g><g id="svga-group-hair-front" transform="matrix(1,0,0,1,0,0)"><path id="SvgjsPath48438" d="M126.1 44.8s-4.2 10.9-22.1 17.7c0 0-1.2-.2 2.3-4 3.5-3.7-9.5 5.6-13.2 6.3-3.7.7 7.4-9.3 7.4-9.3S82.8 67.3 81 66.4c-1.9-.9 7.4-8.4 7.4-8.4S74 68.2 71.9 68.7 80 57.5 80 57.5s-11.2 7.9-13.9 15.8c-2.8 7.9-4.4 7-4.4 3.5s1.9-10 1.9-10-4.2 5.1-3.5 15.6.9 16.3-.7 13.7c-1.6-2.6-4-17.4-4-17.4s1.2 11.9-.7 10.9c-1.9-.9-6-18.6-6-24.4s1.4-15.3 4-19.8c0 0-3.3 6.5-5.6 9.3s2.6-12.3 6.7-17.2 12.6-10.2 12.6-10.2-11.2 5.3-8.8 2.6c2.3-2.8 20.9-18.1 50.4-10.7 0 0-6-3.5-9.3-5.6s10.7.2 14.9 2.8c4.2 2.6 8.1 8.4 8.1 8.4s13.9.7 19.5 3.5-7 .2-11.4.9c0 0 11.2 5.6 15.8 9.5s7.7 10.9 5.6 10.2-6.3-5.8-6.3-5.8 4 7.9 5.6 16.5 2.3 15.8.9 19.8-3.5-12.8-3.5-12.8.5 11.4-1.9 19.5c-2.3 8.1-5.3 11.9-5.8 8.6s2.1-9.5 2.1-14.9S140 68 140 68s.7 8.8-1.2 6.3c-1.9-2.6-4-8.4-6.3-13-2.2-4.7-5.7-4.9-6.4-16.5z" fill="#ffffff" stroke-width="none" opacity="1"></path><path id="SvgjsPath48439" d="M151.5 59.4c-.8-4.3-2.2-8.4-3.4-11.4 1 .9 2 1.6 2.8 1.9.9.3 1.5-.1 1.8-.6 1.1-2-2.8-8.3-6.4-11.3-3.1-2.6-8.8-5.9-12.5-7.8 1.1.1 2.4.2 3.5.2 4.5.4 6 .5 6.3-.8.3-1.1-1-1.8-1.9-2.2-5.2-2.6-16.9-3.4-19.4-3.6-1-1.4-4.4-6-8.2-8.3-2.7-1.6-15.4-5.1-16.7-3.1-.2.2-.6 1.1.8 2 1.1.7 2.6 1.7 4.1 2.5C73.2 12.2 57 29 56.8 29.2c-.8.9-.6 1.6-.3 2 .3.3.6.7 2.5.3-2.1 1.7-4.3 3.6-5.9 5.4-3.4 4-8.2 16.4-7.5 18.4.1.4.5.7.9.8.7.1 1.2-.5 1.4-.7.3-.4.6-.8 1-1.3-.8 4-1.1 8.2-1.1 11.1 0 5.1 4 24 6.6 25.3.5.2 1 .2 1.4-.1.3-.2.5-.5.7-1.1.7 3.2 1.5 6.2 2.2 7.3.5.7.9 1.1 1.5 1.1.1 0 .3 0 .4-.1 1.3-.4 1.6-1.9.7-15.3-.3-1.1-.3-2.2-.3-3.2.3.8.7 1.2 1.4 1.3 1.1.2 2.5-.5 4.7-6.7.8-2.3 2.5-4.7 4.3-6.9-1 1.6-.8 2-.6 2.3.2.3.7.7 1.3.5 1-.2 4.4-2.3 7.9-4.7-.2.4-.3.8-.3 1.1.1.5.3.9.8 1.1 1.2.6 5.3-1.3 12.4-5.7-2 2.4-1.7 3.1-1.5 3.5.2.3.6.9 1.8.7 2-.4 5.9-2.7 9.4-4.8.2-.1.5-.3.7-.4-.6 1-.6 1.6-.5 2 .2.5.6.8.9.9h.5c12.5-4.7 18.5-11.4 21-15.3.8 6.1 2.5 8.4 4.3 10.5.7 1 1.4 1.8 2.1 3.1.9 1.8 1.7 3.7 2.5 5.6 1.3 3.1 2.6 5.9 3.8 7.6.7 1 1.5.9 1.8.8.2-.1.6-.2.9-1 .3 1.7.6 3.5.6 5.2 0 2.6-.6 5.5-1.2 8-.6 2.8-1.1 5.2-.9 7 .2 1.7 1.1 2 1.6 2 2.9.2 5.4-8 6.1-10.5.8-3 1.3-6.3 1.6-9.4.9 3.9 1.7 4 2.2 4 .4 0 1.1-.1 1.5-1.3 1.6-3.6 1.3-10-.6-20.2zm-.6 18.2c-.6-2.4-1.4-7-1.9-11.1-.1-.5-.5-.9-1.1-.9-.5 0-.9.5-.9 1 0 .1.4 11.3-1.8 19.2-1.4 5-3 7.9-3.9 8.8-.2-1.4.3-3.8.9-6.3.6-2.6 1.2-5.6 1.2-8.4 0-5.5-2.3-11.9-2.4-12.2-.1-.4-.5-.7-.9-.7h-.2c-.5.1-.8.6-.8 1.1.1 1.6.2 3.5.1 4.7-.9-1.6-2-3.9-3-6.4-.8-1.9-1.7-3.8-2.6-5.6-.7-1.4-1.5-2.4-2.3-3.4-1.9-2.4-3.7-4.7-4.1-12.7 0-.5-.4-.9-.8-.9-.5-.1-.9.2-1.1.6 0 .1-3.9 9.7-19.4 16.3.3-.4.7-.9 1.3-1.5.5-.5 1.3-1.4.6-2.2-.7-.9-1.4-.5-6 2.2-2.5 1.5-5.7 3.4-7.7 4.2 1.4-1.7 4.4-4.7 7.2-7.2.4-.4.4-.9.1-1.4-.3-.4-.9-.5-1.3-.2-7 4.7-14.8 9.4-17.7 10.6 1.1-1.5 4.1-4.2 6.8-6.4.4-.3.5-1 .2-1.4s-.9-.5-1.4-.2c-5.1 3.6-10.8 7.5-13.9 9.3 1.6-2.1 4.3-5.5 6.9-8.3.3-.4.3-1 0-1.3-.3-.4-.9-.4-1.3-.1-.7.3-11.7 8.1-14.5 16.2-1.1 3.2-1.9 4.6-2.4 5.1-.1-.3-.1-.7-.1-1.3 0-3.3 1.8-9.7 1.8-9.7.1-.5-.1-.9-.5-1.2-.4-.2-.9-.1-1.2.3-.2.2-4.4 5.5-3.7 16.3.2 3.3.6 8.7.5 11.6-1.1-3.3-2.4-10.7-3.2-15.5-.1-.5-.6-.9-1.1-.8s-.9.6-.9 1.1c.3 3.3.5 7.2.3 9.1-1.7-3.8-5-17.4-5-22.6 0-5.6 1.2-13.7 3.3-18.2.3-.6.5-1.1.6-1.1.2-.5.1-1.1-.4-1.3-.5-.3-1.1-.1-1.3.4l-.6 1.2c-.6 1.2-1.7 3.3-2.9 5.1 1.3-4 3.9-10.3 6.3-13 4-4.7 12.2-10 12.3-10 .4-.3.6-.9.3-1.3-.3-.5-.8-.6-1.3-.4-2.1 1-4.5 2-6.2 2.7 5.6-4.9 23.1-15.2 48-8.9.5.1 1-.1 1.2-.6s0-1-.4-1.2c-.1 0-4.2-2.4-7.4-4.4 3.4.4 9.5 1.8 12 3.3 3.9 2.4 7.8 8 7.8 8.1.2.3.5.4.8.4.1 0 11.5.6 17.6 2.7-.6 0-1.2-.1-1.8-.1-2.8-.2-5.9-.5-7.8-.2-.4.1-.8.4-.8.8s.2.9.5 1c.1.1 11.1 5.6 15.6 9.4 3.1 2.6 5.1 6.3 5.7 8.1-1.5-1-3.7-3.5-5-5-.3-.4-.9-.5-1.3-.2s-.6.8-.4 1.3c0 .1 3.9 7.9 5.5 16.2 1.5 8 1.9 13.8 1.3 17.4zm-30.7-37.4c-3.5 4.5-7.9 8-13.1 10.4-.7.3-.1 1.4.6 1.1 5.3-2.4 9.8-6 13.4-10.6.5-.7-.4-1.6-.9-.9zm-5.8-2.3c-4.5 4.5-9.7 7.9-15.5 10.3-.7.3-.4 1.5.3 1.2 6.1-2.5 11.4-6 16.1-10.6.5-.6-.3-1.5-.9-.9zm-14.6 3.2c-6.2 4.2-12.7 8-19.4 11.3-.7.4-.1 1.4.6 1.1 6.8-3.3 13.2-7 19.4-11.3.7-.5.1-1.6-.6-1.1zm-20.6 7.6c-6.1 4-11.3 9-15.5 15-.5.7.6 1.3 1.1.6 4-5.8 9.1-10.7 15-14.5.7-.5.1-1.6-.6-1.1zM64 55.2c-2.5 4-4.6 8.1-6.4 12.5-.3.7.9 1.1 1.2.3 1.7-4.3 3.8-8.3 6.2-12.2.5-.7-.6-1.3-1-.6zm-9.1 7c-1 4.5-1.3 9.1-.9 13.7.1.8 1.3.8 1.3 0-.4-4.5-.1-9 .9-13.4.1-.7-1.1-1-1.3-.3zm50.6-24.7c-.7.4-.1 1.5.6 1.1 3.6-2.1 6.6-5 8.8-8.4.4-.7-.6-1.3-1.1-.6-2.1 3.2-4.9 5.8-8.3 7.9zM86 44.4c6.1-2.8 11.4-6.6 16-11.5.6-.6-.3-1.5-.9-.9-4.5 4.8-9.8 8.6-15.8 11.3-.6.3 0 1.4.7 1.1zm-5.6-6.3c-5.1 3.2-9.9 6.7-14.5 10.7-.6.5.3 1.4.9.9 4.5-3.9 9.2-7.3 14.2-10.5.7-.4.1-1.5-.6-1.1zm-11.2-3c.7-.4.1-1.5-.6-1.1-6.7 4.2-11.4 10.4-13.7 18-.2.8 1 1.1 1.2.3 2.1-7.2 6.7-13.2 13.1-17.2zm3.6-6.5c4-2.6 8.4-4.4 13.1-5.4.8-.2.5-1.4-.3-1.2-4.8 1-9.3 2.9-13.4 5.5-.7.4-.1 1.5.6 1.1zm10.7 2.6c3-1.7 6.3-2.8 9.7-3.3.8-.1.5-1.3-.3-1.2-3.6.5-6.9 1.7-10 3.5-.7.3-.1 1.4.6 1zm16.9-6.7c3.7.1 7.2.8 10.6 2 .8.3 1.1-.9.3-1.2-3.6-1.3-7.2-1.9-11-2.1-.7 0-.7 1.3.1 1.3zm24.8 7.6c-.5 2.8-1.3 5.5-2.4 8.1-.3.7.9 1.1 1.2.3 1.1-2.6 1.9-5.3 2.4-8.1.1-.8-1.1-1.1-1.2-.3zm4.3 4.6c.1-.8-1.2-.8-1.3 0-.3 3.7.1 7.2 1.1 10.8.2.8 1.4.4 1.2-.3-1-3.5-1.3-7-1-10.5zm4.4 17.2c-.3-.7-1.5-.4-1.2.3 1 2.5 2.4 4.9 4.1 7 .5.6 1.4-.3.9-.9-1.6-1.9-2.9-4-3.8-6.4zm2.1-4.6c-1.9-2.6-3-5.5-3.5-8.7-.1-.8-1.3-.5-1.2.3.5 3.3 1.7 6.3 3.6 9 .5.7 1.6.1 1.1-.6zm3.5 5.1c-.4-.7-1.5-.1-1.1.6 1.6 2.5 2.9 5 4.1 7.7.3.7 1.4.1 1.1-.6-1.2-2.7-2.6-5.3-4.1-7.7zm4.4 13.6c.1 2.1.3 4.1.4 6.2 0 .8 1.3.8 1.3 0-.1-2.1-.3-4.1-.4-6.2-.1-.8-1.3-.8-1.3 0zm-2.1-21.4c-1-1.7-1.9-3.5-2.9-5.2-.4-.7-1.5-.1-1.1.6 1 1.7 1.9 3.5 2.9 5.2.4.7 1.5.1 1.1-.6zm2.4 9.7c1.1 2.4 1.8 4.8 2.3 7.4.1.8 1.3.5 1.2-.3-.4-2.7-1.2-5.2-2.4-7.7-.4-.7-1.5-.1-1.1.6z" fill="#000000" stroke-width="none" opacity="1"></path></g><g id="svga-group-glasses-single-move" transform="matrix(1,0,0,1,0,0)"><g id="svga-group-glasses-single" transform="matrix(1,0,0,1,0,0)"></g></g></g></g></g><rect id="svga-credit-rect" width="200" height="15" x="0" y="185" fill="#ecf0f1" opacity="0.5" style="display: none;"></rect><text id="svga-credit-text" font-family="Avenir Next, Roboto, Helvetica, Arial, sans-serif" font-size="10px" text-anchor="start" font-weight="400" size="10px" anchor="start" weight="400" fill="#333333" x="33.402061462402344" y="182.71133995056152" style="display: none;"><tspan id="SvgjsTspan47838" dy="13" x="33.402061462402344">Created on AvatarMaker.com</tspan></text></g></svg>