<svg xmlns="http://www.w3.org/2000/svg" version="1.1" width="600px" height="600px" viewBox="0 0 200 200" style="overflow:hidden!important;"><defs id="SvgjsDefs14477"></defs><g id="svga-group-wrapper"><g id="svga-group-backs-single"></g><g id="svga-group-humanwrap-move" transform="matrix(1,0,0,1,0,0)"><g id="svga-group-humanwrap" transform="matrix(1,0,0,1,0,0)"><g id="svga-group-hair-back-move" transform="matrix(1,0,0,1,0,0)"><g id="svga-group-hair-back" transform="matrix(1,0,0,1,0,0)"></g></g><g id="svga-group-humanbody-back"><path id="SvgjsPath14735" d="M86.5 122c0 18.8 2.7 50.3-8.1 58s-31.8 13.9-36.7 24.4-3.6 14.4-3.6 14.4h124.1s.6-8.1-4.2-15.4c-6.6-10.1-28.5-17.7-36.5-22.9-8.1-5.2-10.9-32.2-10.9-58.8l-24.1.3z" fill="#ffffff" stroke-width="none" opacity="1"></path></g><g id="svga-group-chinshadow-single"></g><g id="svga-group-humanbody-front"><path id="SvgjsPath14736" d="M163.4 220.1H37.2l-.3-.9c-.1-.5-1.3-4.7 3.6-15.3 3.4-7.3 13.6-12.4 23.5-17.4 5.1-2.5 9.9-5 13.6-7.5 8.6-6 8.1-29.8 7.7-47.1-.1-3.5-.1-6.8-.1-9.8v-1.3l26.7-.4v1.3c0 32 3.8 53.5 10.3 57.7 2.4 1.6 6 3.3 10.2 5.4 9.7 4.7 21.9 10.6 26.7 18 5 7.6 4.4 15.9 4.4 16.2l-.1 1.1zm-124.1-2.6h121.6c-.1-2.4-.6-8.2-4-13.4-4.4-6.7-16.2-12.5-25.6-17-4.3-2.1-8-3.9-10.5-5.5-9.8-6.3-11.4-38.8-11.5-58.6l-21.5.4c0 2.6.1 5.5.1 8.5.4 18.9.9 42.4-8.8 49.3-3.8 2.7-8.7 5.1-13.9 7.7-9.5 4.8-19.4 9.7-22.3 16.1-3.3 6.9-3.7 10.9-3.6 12.5z" fill="#000000" stroke-width="none" opacity="1"></path><path id="SvgjsPath14737" d="M76.8 188.7c4.8 2.3 10.4 3.9 15.7 2.9.4-.1.4-.7 0-.8-5.1-.9-10.2-1.4-15.2-3.2-.6-.2-1.1.8-.5 1.1z" fill="#000000" stroke-width="none" opacity="1"></path><path id="SvgjsPath14738" d="M108.3 191.1c2.4.3 4.9-.4 7.1-1.2 2.1-.8 4.3-1.7 5.8-3.4.5-.5-.1-1.2-.7-.9-2.1.9-3.9 2.3-6.1 3-2 .7-4.1 1-6.2 1.5-.6.1-.4.9.1 1z" fill="#000000" stroke-width="none" opacity="1"></path></g><g id="svga-group-clothes-single"><path id="SvgjsPath15164" d="M156.05 198.79s-23.03 2.08-57.59 2.27c-34.55.19-52.11-4.34-52.11-4.34s-5.48 4.72-7.93 7.55c-2.45 2.83-7.36 4.53-7.36 4.53s.57 4.91 3.4 4.53c2.83-.38 6.61-2.27 8.31-2.08 1.7.19.94 3.21 3.96 3.4s4.72-2.45 6.99-2.08c1.29.22 2.52 1.41 3.8 2.15l-.45 4.08h87.23v-2.9c.75-.43 1.49-.99 1.94-1.44.94-.94 3.96-.19 5.48.76s3.78-.94 5.29-2.83c1.51-1.89 5.48-.19 8.31-.57 2.83-.38 3.78-2.83 3.78-2.83-3.8-1.52-13.05-10.2-13.05-10.2z" fill="#ffffff" stroke-width="none" opacity="1"></path><path id="SvgjsPath15165" d="M169.44 208.05c-2.95-1.18-10.18-7.62-12.71-10-.21-.2-.49-.29-.77-.27-.23.02-23.39 2.08-57.5 2.26-33.98.21-51.68-4.26-51.85-4.31-.32-.08-.65 0-.9.21-.23.2-5.56 4.8-8.03 7.65-2.25 2.59-6.89 4.23-6.94 4.24-.44.15-.72.59-.67 1.06.04.35.44 3.41 2.19 4.78.68.53 1.48.75 2.33.63 1.4-.19 2.94-.69 4.42-1.18 1.45-.48 2.96-.97 3.65-.89.13.01.24.17.52.77.44.93 1.17 2.48 3.49 2.63 1.85.12 3.27-.66 4.42-1.29.95-.52 1.71-.93 2.46-.8.65.11 1.39.63 2.17 1.18.23.16.48.33.73.5l-.38 3.46c-.03.28.06.57.25.78s.46.33.75.33h87.23c.55 0 1-.45 1-1v-2.34c.76-.5 1.39-1.03 1.65-1.3.38-.38 2.75-.03 4.24.9.29.18.6.28.92.33a1.004 1.004 0 0 0 1.19.1c.07-.04.12-.11.18-.17 1.34-.36 2.84-1.49 4.31-3.33.6-.75 2.31-.55 3.97-.35 1.24.15 2.51.31 3.69.15 3.38-.45 4.53-3.34 4.58-3.46.17-.49-.08-1.07-.59-1.27zm-111.08 8.12c.82.23 1.69.24 2.63-.27l.69-.37c1.94-1.05 2.64-1.41 3.35-1.1.2.08.56.58.83.93.82 1.11 2.2 2.96 4.68 1.9 1.06-.46 1.74-.89 2.23-1.21.76-.49.92-.59 1.71-.43.55.11.97.38 1.44.7.85.56 1.91 1.26 3.71.8.88-.22 1.75-.7 2.59-1.16.86-.48 1.55-.83 2.11-.97.08.02.16.05.24.05.15 0 .29-.04.41-.09.2.03.37.11.53.25 2.18 1.96 6.03 2.86 7.64 1.79.18-.12.37-.25.57-.4.78-.56 1.97-1.4 2.53-1.08 1.75 1 4.51 1.69 6.53.34 1.3-.87 2.27-.75 3.46.44.82.82 1.9 1.24 3.03 1.16 1.34-.08 2.64-.82 3.57-2.01.05-.06.18-.23.63-.26 1.32-.1 3.5 1.14 4.35 1.99.34.34.76.53 1.23.62H58.17l.19-1.62zm71.37.73c0 .01.01.01.01.01.01.01.02.03.03.04.33.46.7.71 1.03.85h-10.38c1.57-.23 3.46-1.12 5.22-2.03l.45-.23c1.08-.53 2.81.11 3.64 1.36zm13.55.9h-10.77c.77-.26 1.5-.8 2.18-1.29.33-.25.65-.48.89-.62.52-.25 3.03.25 6.17 1.51.46.18.99.16 1.53.01v.39zm21.89-6.98c-.92.12-2.07-.02-3.18-.15-2.2-.27-4.47-.54-5.77 1.08-1.08 1.35-2.23 2.29-3.07 2.59-1.12-1.84-3.93-6.48-4.93-8.59a.994.994 0 0 0-1.33-.48c-.5.23-.71.83-.48 1.33.78 1.65 2.55 4.67 3.87 6.88-1.7-.55-3.74-.75-4.75.27-.94.94-2.61 1.87-3.03 1.8-2.77-1.11-6.4-2.25-7.9-1.39-.35.2-.71.46-1.09.74-.54.4-1.54 1.13-1.94 1.06a.305.305 0 0 1-.1-.07c-.34-1.16-2.46-8.33-2.74-10.17a.998.998 0 0 0-1.14-.84c-.55.08-.92.59-.84 1.14.21 1.33 1.23 5.01 1.99 7.67-.57-.22-1.17-.34-1.76-.34-.62 0-1.23.13-1.78.4l-.47.24c-4.33 2.22-5.29 1.98-5.49 1.78-1.16-1.16-3.85-2.69-5.89-2.58-.88.05-1.6.41-2.08 1.03-.57.73-1.36 1.19-2.12 1.24-.55.04-1.07-.16-1.49-.58-.72-.72-1.47-1.19-2.24-1.42l-.6-7.83a.997.997 0 1 0-1.99.15l.59 7.63c-.57.14-1.15.39-1.74.78-1.35.9-3.49.12-4.42-.41-1.68-.96-3.49.33-4.69 1.18-.18.13-.36.25-.52.36-.61.41-3.52-.1-5.2-1.61-.41-.37-.84-.59-1.28-.7.01-2.01.04-6.41.16-8.21a.99.99 0 0 0-.93-1.06c-.54-.02-1.03.38-1.06.93-.13 1.91-.15 6.49-.16 8.45-.81.25-1.6.69-2.32 1.08-.73.4-1.48.82-2.11.98-.95.24-1.4-.05-2.13-.54-.54-.36-1.22-.8-2.15-.98-1.58-.32-2.32.16-3.18.71-.46.3-1.03.66-1.94 1.05-.89.38-1.31.06-2.29-1.25-.31-.42-.63-.83-1.01-1.16.09-1.36.38-5.02 1.12-7.86a.996.996 0 0 0-.72-1.22.997.997 0 0 0-1.22.71c-.71 2.71-1.02 5.99-1.15 7.68-1.13.01-2.27.62-3.78 1.44l-.68.37c-.91.49-1.8-.08-3.16-1.04-.93-.66-1.89-1.33-2.99-1.52-1.44-.24-2.61.4-3.75 1.02-1.06.58-2.07 1.12-3.34 1.05-1.14-.07-1.41-.63-1.81-1.48-.16-.35-.36-.75-.64-1.1 1.37-1.46 4.04-4.53 5.84-8.12a.993.993 0 0 0-.45-1.34.988.988 0 0 0-1.34.45c-1.94 3.89-5.09 7.24-6.03 8.2-1.07.04-2.43.49-3.97.99-1.4.46-2.84.94-4.06 1.1-.32.04-.58-.03-.83-.22-.69-.53-1.1-1.79-1.3-2.68 1.55-.63 4.98-2.2 6.99-4.51 2.01-2.32 6.16-5.99 7.44-7.12 3.17.73 20.81 4.42 51.85 4.25 31.6-.17 53.84-1.95 57.22-2.23 1.56 1.45 8.14 7.46 11.97 9.58-.44.56-1.23 1.24-2.49 1.41z" fill="#000000" stroke-width="none" opacity="1"></path></g><g id="svga-group-head" transform="matrix(1,0,0,1,0,0)"><g id="svga-group-ears-left-move" transform="matrix(1,0,0,1,0,0)"><g id="svga-group-ears-left" transform="matrix(1,0,0,1,0,0)"><path id="SvgjsPath15040" d="M66.8 82.4s-3.6-5.4-5.6-7.8-4.7-5-6.3-1.1c-1.6 3.9-2.5 11.6-1.6 16.9s6.8 11 9.6 11.2c2.8.2 5.7-7.6 5.9-10.3.3-2.8-.6-6.9-2-8.9z" fill="#ffffff" stroke-width="none" opacity="1"></path><path id="SvgjsPath15041" d="M52.2 90.4c-1-5.5.1-13.3 1.6-17.2.2-.6 1-2.4 2.9-2.6 2.1-.2 3.9 1.6 5.5 3.5 2.1 2.4 5.5 7.7 5.7 7.9 1.4 2.1 2.4 6.4 2.1 9.3-.2 2.4-2.4 8.8-5.2 10.6-.6.4-1.3.6-2 .5-3.6-.3-9.7-6.4-10.6-12zm8-15.4c-2.3-2.7-3.1-2.7-3.2-2.7-.1 0-.5.3-1 1.4-1.5 3.7-2.5 11.3-1.6 16.5.9 5.3 6.7 10.3 8.5 10.5 1.4-.2 4.4-6.1 4.7-9.5.2-2.6-.7-6.6-1.9-8.5 0 0-3.5-5.4-5.5-7.7z" fill="#000000" stroke-width="none" opacity="1"></path><path id="SvgjsPath15042" d="M57.9 78c2 1.3 3.6 3.5 4.3 6 0 .2-.2.2-.2.1 0 0 0-.1-.1-.1-.6-.5-1.2-1.1-1.9-1.1-1.1 0-1.1 1.4-.8 2.5.4 1.5 1.1 2.9 1.9 4.2.1.2-.1.3-.2.2-1.2-1.5-3-4.6-2.4-6.6.5-1.7 2-.9 3.1.1-.6-1.3-1.4-2.5-2.4-3.5-1.3-1.3-4.1-3.4-4.9-.9 0 .1-.2.1-.2-.1.1-2.5 2.6-1.7 3.8-.8z" fill="#000000" stroke-width="none" opacity="1"></path><path id="SvgjsPath15043" d="M61.7 92.6c1 2.5-1.2 3-2.5 1.9-2.1-1.7-3.5-5.5-3.5-8.4 0-.2.2-.2.2 0 .2 1.7.5 3.3 1.2 4.8.4.9 1 1.9 1.6 2.7.4.5.9.9 1.5 1.1 1.2 0 1.6-.7 1.3-2 0-.1.1-.2.2-.1z" fill="#000000" stroke-width="none" opacity="1"></path></g></g><g id="svga-group-ears-right-move" transform="matrix(1,0,0,1,0,0)"><g id="svga-group-ears-right" transform="matrix(1,0,0,1,0,0)"><path id="SvgjsPath15044" d="M133.2 82.4s3.6-5.4 5.6-7.8 4.7-5 6.3-1.1c1.6 3.9 2.5 11.6 1.6 16.9-.9 5.3-6.8 11-9.6 11.2-2.8.2-5.7-7.6-5.9-10.3-.3-2.8.6-6.9 2-8.9z" fill="#ffffff" stroke-width="none" opacity="1"></path><path id="SvgjsPath15045" d="M137.2 102.4c-.7 0-1.4-.1-2-.5-2.8-1.7-5-8.2-5.2-10.6-.3-2.9.7-7.1 2.1-9.3.1-.2 3.6-5.5 5.7-7.9 1.6-1.9 3.4-3.7 5.5-3.5 2 .2 2.7 2 2.9 2.6 1.6 3.9 2.6 11.8 1.6 17.2-.9 5.6-7 11.7-10.6 12zm-3-19.7c-1.2 1.9-2.1 5.8-1.9 8.5.3 3.4 3.2 9.4 4.7 9.5 1.9-.1 7.6-5.2 8.5-10.5.9-5.3-.1-12.8-1.6-16.5-.4-1.1-.9-1.4-1-1.4-.1 0-.9 0-3.2 2.7-1.9 2.3-5.4 7.7-5.5 7.7z" fill="#000000" stroke-width="none" opacity="1"></path><path id="SvgjsPath15046" d="M142.1 78c-2 1.3-3.6 3.5-4.3 6 0 .2.2.2.2.1 0 0 0-.1.1-.1.6-.5 1.2-1.1 1.9-1.1 1.1 0 1.1 1.4.8 2.5-.4 1.5-1.1 2.9-1.9 4.2-.1.2.1.3.2.2 1.2-1.5 3-4.6 2.4-6.6-.5-1.7-2-.9-3.1.1.6-1.3 1.4-2.5 2.4-3.5 1.3-1.3 4.1-3.4 4.9-.9 0 .1.2.1.2-.1-.1-2.5-2.6-1.7-3.8-.8z" fill="#000000" stroke-width="none" opacity="1"></path><path id="SvgjsPath15047" d="M138.3 92.6c-1 2.5 1.2 3 2.5 1.9 2.1-1.7 3.5-5.5 3.5-8.4 0-.2-.2-.2-.2 0-.2 1.7-.5 3.3-1.2 4.8-.4.9-1 1.9-1.6 2.7-.4.5-.9.9-1.5 1.1-1.2 0-1.6-.7-1.3-2 0-.1-.1-.2-.2-.1z" fill="#000000" stroke-width="none" opacity="1"></path></g></g><g id="svga-group-faceshape-wrap" transform="matrix(1,0,0,1,0,0)"><g id="svga-group-faceshape-single"><path id="SvgjsPath15027" d="M138.2 58.2c-2-10.8-13.3-27.4-37.2-27.4S69.1 43.5 65.5 53c-3 8.1-3 21.3-3 21.3s13.4 67.2 37.1 68.4c13.9.7 37.2-49.4 39.8-68.4 0 0 .2-8.4-1.2-16.1z" fill="#ffffff" stroke-width="none" opacity="1"></path><path id="SvgjsPath15028" d="M99.9 144h-.4c-24.4-1.3-37.7-66.7-38.3-69.4v-.2c0-.6 0-13.6 3.1-21.8 5.8-15.5 17.8-23 36.7-23 10.9 0 20.5 3.4 27.7 10 5.5 5 9.6 11.9 10.8 18.5 1.4 7.7 1.2 16 1.2 16.4v.1c-1.4 9.8-7.9 27.1-15.8 42-5.5 10.3-16 27.4-25 27.4zM63.8 74.2c.3 1.6 3.7 17.5 9.6 33.5 8.1 21.6 17.1 33.3 26.3 33.8 5.5.3 14.1-9.5 22.9-26.1 7.7-14.4 14.2-31.7 15.5-41.1 0-.8.1-8.7-1.2-15.8-1.1-6-4.8-12.4-10-17-6.7-6.1-15.7-9.3-26-9.3-17.7 0-28.9 7-34.3 21.3-2.7 7.3-2.8 19.4-2.8 20.7z" fill="#000000" stroke-width="none" opacity="1"></path></g></g><g id="svga-group-mouth-single-move" transform="matrix(1,0,0,1,0,0)"><g id="svga-group-mouth-single" transform="matrix(1,0,0,1,0,0)"><path id="SvgjsPath15116" d="M112.4 120.4c-.5-.3-1.7-.4-2.1-.6-6.8-4.2-15-4-21.6.5-.3.1-2 .1-2.3.2-.6.2 1.4.8 2 .6 2.1-.7 4.1-1.1 6.4-1.1 1.9 0 3.6 1.2 5.5 1.1 1.6-.1 3.1-1.1 4.7-1.3 2.2-.2 3.5-.5 5.4.7.4.4 2.5.3 2-.1zm-6.4-1.5c-.1-.2-.2-.4-.2-.6.2.1.3.1.5.2v.1c.1.1.1.2.1.4-.2-.1-.3-.2-.4-.1zm-5.7-1.6h.7v.1c.2.8.4 1.6.7 2.4-.2 0-.3.1-.4.1-.3-.9-.6-1.8-1-2.6zm1.2 0c.2 0 .3 0 .5.1v.1c.2.7.4 1.3.6 2-.1 0-.3.1-.4.1-.3-.7-.5-1.5-.7-2.3zm1 .2c.2 0 .4.1.5.1.2.6.4 1.1.6 1.7-.2.1-.4.1-.6.2-.1-.8-.3-1.4-.5-2zm1.1.2c.2 0 .3.1.5.1v.1c.1.4.2.8.4 1.2-.1 0-.3.1-.4.1-.1-.6-.3-1.1-.5-1.5zm1.1.2c.2.1.4.1.6.2v.2c.1.2.2.4.2.7-.2 0-.3 0-.5.1-.1-.5-.2-.8-.3-1.2zm2.1.7c.3.1.7.3 1 .4-.3-.1-.6-.1-.9-.1-.1-.1-.1-.2-.1-.3zm-10.8.6c-.2-.5-.4-.9-.7-1.4.1 0 .3-.1.4-.1l.6 1.5H96zm-.9-.1c-.2-.3-.3-.7-.5-1.1.1 0 .2-.1.3-.1l.6 1.2h-.4zm-.8 0c-.2-.3-.3-.5-.5-.8.1 0 .2-.1.3-.1.1.3.3.6.4.9h-.2zm-.9 0-.3-.6c.1 0 .2-.1.3-.1.1.2.2.4.4.7h-.4zm-.9.2c-.1-.1-.2-.3-.2-.4.1-.1.3-.1.4-.2.1.2.2.3.2.5-.2 0-.3 0-.4.1zm-1.1.2c0-.1-.1-.1-.1-.2.2-.1.3-.2.5-.2.1.1.1.2.2.3-.2 0-.4 0-.6.1zm4.9-1.9c.2 0 .3-.1.5-.1.2.7.5 1.4.7 2-.2-.1-.4-.1-.5-.1-.3-.6-.5-1.2-.7-1.8zm.9-.1c.1 0 .3 0 .4-.1.3.8.7 1.6 1 2.4-.2 0-.4-.1-.6-.1-.2-.7-.5-1.5-.8-2.2zm.9-.2h.6v.1l.9 2.7c-.2 0-.3 0-.5-.1-.3-.9-.6-1.8-1-2.7zm-7.2 2.2s0 .1 0 0c-.1.1-.2.2-.3.2.1-.1.2-.1.3-.2zm9.3.5c-.3-.9-.7-1.8-.9-2.7h.6v.1c.4.8.7 1.7 1 2.6h-.7zm8.2 2.6c-5.6 2-11.6 2-17.2-.2-.3-.1-.4.4-.1.5 5.6 2.2 11.8 2.2 17.4.2.3-.1.2-.6-.1-.5z" fill="#000000" stroke-width="none" opacity="1"></path></g></g><g id="svga-group-eyes-left-move" transform="matrix(1,0,0,1,0,0)"><g id="svga-group-eyes-left" transform="matrix(1,0,0,1,0,0)"><g id="svga-group-eyesback-left"></g><g id="svga-group-eyesiriswrapper-left"><g id="svga-group-eyesiriscontrol-left" transform="matrix(1,0,0,1,0,0)"><g id="svga-group-eyesiris-left" transform="matrix(1,0,0,1,0,0)"><path id="SvgjsPath15078" d="M77.3 84.5c-1.4 1.8-1.2 4.1.4 5.5 1.7 1.5 4.5 1.9 6.5.1 1-1 1.7-2.4 1.4-3.7-.1-.4-.3-.9-.5-1.3-.2-.5-.5-1-.9-1.4-2-1.7-5.2-1.4-6.9.8z" fill="#ffffff" stroke-width="none" opacity="1"></path><path id="SvgjsPath15079" d="M85.8 86.3c-.1-.5-.3-.9-.6-1.3-.2-.6-.5-1-1-1.4-.9-.8-2.2-1.2-3.5-1.1-1.4.1-2.8.8-3.7 1.9-1.5 1.8-1.3 4.3.4 5.9.9.9 2.3 1.4 3.6 1.4 1.1 0 2.3-.4 3.2-1.3 1.3-1.3 1.9-2.8 1.6-4.1zm-.6-.1c-.6.1-1.2.1-1.9.2 0-.1-.1-.2-.1-.2.4-.1.7-.3 1.1-.5.2-.1.4-.1.6-.2.1.2.2.5.3.7zm-.8-1.6.3.6v.1c-.6.3-1.1.5-1.7.8-.1-.1-.1-.2-.2-.3.6-.5 1.1-.9 1.6-1.2zm-.6-.7c.2.1.3.3.4.4-.5.3-1.1.7-1.5 1.2l-.1-.1c-.1-.1-.2-.1-.2-.2.2-.3.4-.7.6-1 .1-.2.3-.4.4-.6.2.1.3.2.4.3zm-1.9.1c0-.3.1-.7.1-1 .4.1.8.2 1.2.5-.2.2-.3.4-.4.6-.2.3-.4.7-.6 1-.1-.1-.3-.1-.4-.2.1-.3.1-.6.1-.9zm-1.1-1.1h.4c.2 0 .4 0 .6.1-.1.3-.1.6-.1 1 0 .3-.1.7-.1 1-.2 0-.3-.1-.5-.1 0-.3-.1-.6-.1-.9-.1-.4-.2-.8-.2-1.1zm-4.1 3.6c.6.2 1.4.4 2 .3v.7c-.7-.1-1.3 0-2 0-.1-.4 0-.7 0-1zm0 1.2c.7-.1 1.3-.1 2-.1 0 .1.1.2.1.2-.3.1-.7.2-1 .4-.3.1-.6.2-.8.3-.1-.2-.2-.5-.3-.8zm.7 1.5c-.1-.1-.2-.3-.3-.4.3-.1.6-.2.8-.4.3-.1.6-.2.9-.4-.4.5-.9.8-1.4 1.2zm.4.5-.3-.3c.5-.3 1-.7 1.5-1.1.1.1.1.2.2.2-.2.2-.4.4-.6.7-.2.2-.4.5-.6.8 0-.1-.1-.2-.2-.3zm.5.4c.2-.2.4-.5.6-.8.2-.2.4-.4.5-.6.1.1.2.1.3.2-.2.2-.3.5-.5.8-.2.2-.3.4-.5.7-.1-.1-.2-.2-.4-.3zm.7.4c.2-.2.3-.4.4-.5l.6-.9c.1 0 .2.1.3.1-.2.5-.2 1.1-.5 1.6-.3-.1-.5-.2-.8-.3zm1 .3c.3-.5.4-1.1.5-1.6.2 0 .3.1.5.1-.1.5 0 1.1 0 1.7-.3 0-.6-.1-1-.2zm1.3.2c0-.5 0-1.1-.1-1.7.2 0 .3 0 .5-.1.1.5.3 1.1.5 1.6-.3.1-.6.1-.9.2zm3-1.6c-.4-.2-.8-.5-1.2-.8 0 .1-.1.2-.1.2.3.3.7.6 1 .8l-.2.2c-.2.2-.3.3-.5.4-.1-.2-.3-.4-.4-.6-.1-.2-.2-.3-.3-.5-.1 0-.2.1-.2.1.1.2.2.3.3.5.1.2.3.5.4.7-.2.1-.5.2-.7.3-.2-.5-.3-1.1-.6-1.6.1 0 .1 0 .1-.1l-.3-.3c-.7.2-1.6 0-2.1-.5-.4-.3-.6-.8-.5-1.3-.2-.1-.4-.3-.4-.6-.3-.1-.7-.1-1-.1-.3 0-.6-.1-.9-.2.1-.3.2-.7.4-1 .3.2.6.3.9.5.2.1.3.2.5.3 0-.1 0-.2.1-.3-.2-.1-.3-.1-.5-.2-.3-.1-.6-.3-.9-.4.1-.1.2-.2.2-.3l.6-.6c.1.2.3.4.5.6.1.1.2.3.4.4.1-.1.2-.1.2-.2l-.1-.1c-.2-.2-.3-.4-.5-.6-.1-.1-.2-.3-.3-.4.2-.2.5-.3.8-.5.1.3.2.5.4.7.1.2.3.4.4.6.1 0 .3 0 .4.1l-.6-.9c-.1-.2-.2-.5-.3-.7.3-.2.7-.2 1.1-.3 0 .3.1.7.2 1 .1.3.1.6.2.9-.2 0-.3.1-.4.1.1.1.3.2.3.3h.4c.5 0 .9.2 1.2.4.2.2.3.3.4.6.1.2.2.3.2.5.1.3 0 .6-.1.9.1.1.2.2.3.4 0 0 0-.1.1-.1.2.2.6.3.8.5.2.1.5.3.7.4-.1.5-.3.6-.4.8zm.5-.8c-.2 0-.8-.4-.9-.5-.2-.1-.3-.2-.5-.2 0 0-.1 0-.2-.1.1-.2.1-.4.2-.6.6.2 1.2.2 1.8.3-.1.4-.2.8-.4 1.1zm.4-1.3-1.8-.3v-.4c.6 0 1.3-.1 1.8-.2.1.4.1.6 0 .9zm-2.8.3h.2c.3-.9-.2-1.9-1.2-2.2-.2-.1-.4-.1-.6-.1.3.7 0 1.8-1.1 1.8h-.3c.1.6.3 1.1 1 1.4.4.2.9.2 1.2.1 0-.4.2-1 .8-1z" fill="#000000" stroke-width="none" opacity="1"></path></g></g></g><g id="svga-group-eyesfront-left"><path id="SvgjsPath15184" d="M81 74.4c-6.9 0-12.5 5.6-12.5 12.5S74.1 99.4 81 99.4s12.5-5.6 12.5-12.5S87.9 74.4 81 74.4zm6.5 16c-.9.6-3.7 2-7.2 2-3.5-.1-9.8-2.3-10.4-3.1s1.8-2.9 2.8-3.6 3.7-2.9 6.9-3c3.2-.1 5.5.7 7.5 1.9s3.3 3.3 3.3 3.3-2.1 1.9-2.9 2.5z" fill="#ffffff" stroke-width="none" opacity="1"></path><path id="SvgjsPath15185" d="M66.7 88.5c.6.2 1.2.3 1.7.3.3 0 .6 0 .9-.1-.1.4.1.6.2.7.2.2.5.4.9.6-.6.2-1.3.4-1.8.7-.2.1-.3.4-.2.6.1.1.2.2.4.2.1 0 .1 0 .2-.1.8-.5 2.4-.9 2.4-.9.1 0 .1 0 .2-.1.3.1.6.3.9.4-.4.2-1 .5-1.3.8-.2.2-.2.4 0 .6.1.1.2.1.3.1.1 0 .2 0 .3-.1.6-.5 1.7-.9 1.7-1 .1 0 .1-.1.1-.1.2.1.5.2.7.2-.2.1-.4.3-.4.5-.1.2 0 .5.2.6h.2c.2 0 .3-.1.4-.2.1-.2.5-.4.8-.5 1.8.5 3.8.9 5.6.9h.3c5.1-.1 8.6-3.9 8.8-4 .2-.2.1-.4 0-.6-.2-.2-.4-.2-.6 0 0 0-3.5 3.7-8.2 3.8-4.9.2-10.4-2.3-11.3-3 .2-.9 4.3-4.9 7.3-5.5 3-.7 9.7-.4 12.9 5.1.1.2.4.3.6.2.2-.1.3-.4.2-.6-3.4-6-10.5-6.3-13.8-5.6-1.2.3-2.5 1-3.8 1.9-.2 0-.5-.1-.7-.1 2.8-2 6.2-2.9 9.7-2.6 4.7.5 8.1 3.8 8.1 3.8.1.1.2.1.3 0 .1-.1.1-.2 0-.3 0 0-3.5-3.5-8.4-3.9-3.8-.4-7.4.7-10.4 2.9-1-.2-1.9-.4-2-.5-.2-.2-.4-.1-.6 0-.2.2-.1.4 0 .6.3.2 1 .4 1.7.6-.4.4-.8.7-1.2 1.2-.6 0-1.4 0-2-.3-.2-.1-.5 0-.6.2s0 .5.2.6c.5.2 1.1.3 1.7.4 0 .1 0 .1.1.2h.1c.1 0 .1 0 .2-.1 0-.1.1-.1.1-.2h.6c-.3.3-.6.6-.8.9h-.1s-1.3.4-2.7-.1c-.2-.1-.5 0-.5.3.1.3.2.5.4.6zm5.8-3.4c-.3.2-.6.5-.9.7l-.8.2c.3-.3.7-.7 1.1-1 .1 0 .4 0 .6.1z" fill="#000000" stroke-width="none" opacity="1"></path></g></g></g><g id="svga-group-eyes-right-move" transform="matrix(1,0,0,1,0,0)"><g id="svga-group-eyes-right" transform="matrix(1,0,0,1,0,0)"><g id="svga-group-eyesback-right"></g><g id="svga-group-eyesiriswrapper-right"><g id="svga-group-eyesiriscontrol-right" transform="matrix(1,0,0,1,0,0)"><g id="svga-group-eyesiris-right" transform="matrix(1,0,0,1,0,0)"><path id="SvgjsPath15080" d="M115.8 84.5c-1.4 1.8-1.2 4.1.4 5.5 1.7 1.5 4.5 1.9 6.5.1 1-1 1.7-2.4 1.4-3.7-.1-.4-.3-.9-.5-1.3-.2-.5-.5-1-.9-1.4-2.1-1.7-5.3-1.4-6.9.8z" fill="#ffffff" stroke-width="none" opacity="1"></path><path id="SvgjsPath15081" d="M124.2 86.3c-.1-.5-.3-.9-.6-1.3-.2-.6-.5-1-1-1.4-.9-.8-2.2-1.2-3.5-1.1-1.4.1-2.8.8-3.7 1.9-1.5 1.8-1.3 4.3.4 5.9.9.9 2.3 1.4 3.6 1.4 1.1 0 2.3-.4 3.2-1.3 1.4-1.3 1.9-2.8 1.6-4.1zm-.6-.1c-.6.1-1.2.1-1.9.2 0-.1-.1-.2-.1-.2.4-.1.7-.3 1.1-.5.2-.1.4-.1.6-.2.2.2.3.5.3.7zm-.7-1.6.3.6v.1c-.6.3-1.1.5-1.7.8-.1-.1-.1-.2-.2-.3.6-.5 1.1-.9 1.6-1.2zm-.6-.7c.2.1.3.3.4.4-.5.3-1.1.7-1.5 1.2l-.1-.1c-.1-.1-.2-.1-.2-.2.2-.3.4-.7.6-1 .1-.2.3-.4.4-.6.2.1.3.2.4.3zm-1.9.1c0-.3.1-.7.1-1 .4.1.8.2 1.2.5-.2.2-.3.4-.4.6-.2.3-.4.7-.6 1-.1-.1-.3-.1-.4-.2 0-.3.1-.6.1-.9zm-1.1-1.1h.4c.2 0 .4 0 .6.1-.1.3-.1.6-.1 1 0 .3-.1.7-.1 1-.2 0-.3-.1-.5-.1 0-.3-.1-.6-.1-.9-.1-.4-.2-.8-.2-1.1-.1 0-.1 0 0 0zm-4.1 3.6c.6.2 1.4.4 2 .3v.7c-.7-.1-1.3 0-2 0-.1-.4-.1-.7 0-1zm0 1.2c.7-.1 1.3-.1 2-.1 0 .1.1.2.1.2-.3.1-.7.2-1 .4-.3.1-.6.2-.8.3-.2-.2-.3-.5-.3-.8zm.7 1.5c-.1-.1-.2-.3-.3-.4.3-.1.6-.2.8-.4.3-.1.6-.2.9-.4-.5.5-1 .8-1.4 1.2zm.4.5-.3-.3c.5-.3 1-.7 1.5-1.1.1.1.1.2.2.2-.2.2-.4.4-.6.7-.2.2-.4.5-.6.8 0-.1-.1-.2-.2-.3zm.5.4c.2-.2.4-.5.6-.8.2-.2.4-.4.5-.6.1.1.2.1.3.2-.2.2-.3.5-.5.8-.2.2-.3.4-.5.7-.1-.1-.3-.2-.4-.3zm.7.4c.2-.2.3-.4.4-.5l.6-.9c.1 0 .2.1.3.1-.2.5-.2 1.1-.5 1.6-.3-.1-.6-.2-.8-.3zm1 .3c.3-.5.4-1.1.5-1.6.2 0 .3.1.5.1-.1.5 0 1.1 0 1.7-.3 0-.7-.1-1-.2zm1.3.2c0-.5 0-1.1-.1-1.7.2 0 .3 0 .5-.1.1.5.3 1.1.5 1.6-.3.1-.6.1-.9.2zm3-1.6c-.4-.2-.8-.5-1.2-.8 0 .1-.1.2-.1.2.3.3.7.6 1 .8l-.2.2c-.2.2-.3.3-.5.4-.1-.2-.3-.4-.4-.6-.1-.2-.2-.3-.3-.5-.1 0-.2.1-.2.1.1.2.2.3.3.5.1.2.3.5.4.7-.2.1-.5.2-.7.3-.2-.5-.3-1.1-.6-1.6.1 0 .1 0 .1-.1l-.3-.3c-.7.2-1.6 0-2.1-.5-.4-.3-.6-.8-.5-1.3-.2-.1-.4-.3-.4-.6-.3-.1-.7-.1-1-.1-.3 0-.6-.1-.9-.2.1-.3.2-.7.4-1 .3.2.6.3.9.5.2.1.3.2.5.3 0-.1 0-.2.1-.3-.2-.1-.3-.1-.5-.2-.3-.1-.6-.3-.9-.4.1-.1.2-.2.2-.3l.6-.6c.1.2.3.4.5.6.1.1.2.3.4.4.1-.1.2-.1.2-.2l-.1-.1c-.2-.2-.3-.4-.5-.6-.1-.1-.2-.3-.3-.4.2-.2.5-.3.8-.5.1.3.2.5.4.7.1.2.3.4.4.6.1 0 .3 0 .4.1l-.6-.9c-.1-.2-.2-.5-.3-.7.3-.2.7-.2 1.1-.3 0 .3.1.7.2 1 .1.3.1.6.2.9-.2 0-.3.1-.4.1.1.1.3.2.3.3h.4c.5 0 .9.2 1.2.4.2.2.3.3.4.6.1.2.2.3.2.5.1.3 0 .6-.1.9.1.1.2.2.3.4 0 0 0-.1.1-.1.2.2.6.3.8.5.2.1.5.3.7.4-.2.5-.3.6-.4.8zm.5-.8c-.2 0-.8-.4-.9-.5-.2-.1-.3-.2-.5-.2 0 0-.1 0-.2-.1.1-.2.1-.4.2-.6.6.2 1.2.2 1.8.3-.1.4-.2.8-.4 1.1zm.4-1.3-1.8-.3v-.4c.6 0 1.3-.1 1.8-.2 0 .4.1.6 0 .9zm-2.8.3h.2c.3-.9-.2-1.9-1.2-2.2-.2-.1-.4-.1-.6-.1.3.7 0 1.8-1.1 1.8h-.3c.1.6.3 1.1 1 1.4.4.2.9.2 1.2.1-.1-.4.2-1 .8-1z" fill="#000000" stroke-width="none" opacity="1"></path></g></g></g><g id="svga-group-eyesfront-right"><path id="SvgjsPath15186" d="M119 74.4c-6.9 0-12.5 5.6-12.5 12.5s5.6 12.5 12.5 12.5 12.5-5.6 12.5-12.5-5.6-12.5-12.5-12.5zm.2 17.9c-3.5.1-6.3-1.4-7.2-2-.9-.6-3-2.5-3-2.5s1.3-2.1 3.3-3.3c2-1.2 4.3-2 7.5-1.9s5.9 2.3 6.9 3 3.4 2.7 2.8 3.6c-.5.8-6.8 3-10.3 3.1z" fill="#ffffff" stroke-width="none" opacity="1"></path><path id="SvgjsPath15189" d="M133.1 87.9c-.1-.2-.3-.3-.5-.3-1.3.5-2.6.1-2.7.1h-.1c-.2-.3-.5-.6-.8-.9h.6c0 .1.1.1.1.2s.1.1.2.1h.1c.1 0 .1-.1.1-.2.6 0 1.1-.1 1.7-.4.2-.1.3-.3.2-.6-.1-.2-.4-.3-.6-.2-.6.3-1.3.3-2 .3l-1.2-1.2c.8-.2 1.5-.4 1.7-.6s.2-.4 0-.6-.4-.2-.6 0c-.2.2-1 .4-2 .5-3-2.2-6.6-3.3-10.4-2.9-4.9.5-8.3 3.9-8.4 3.9-.1.1-.1.2 0 .3.1.1.2.1.3 0 0 0 3.4-3.3 8.1-3.8 3.6-.4 6.9.6 9.7 2.6-.2 0-.5.1-.7.1-1.3-.9-2.6-1.6-3.8-1.9-3.3-.7-10.3-.5-13.8 5.6-.1.2 0 .5.2.6s.5 0 .6-.2c3.2-5.6 9.8-5.8 12.9-5.1 3 .6 7.1 4.6 7.3 5.5-.9.7-6.4 3.2-11.1 3.1s-8.1-3.7-8.2-3.8c-.2-.2-.4-.2-.6 0s-.2.4 0 .6c.1.2 3.7 3.9 8.8 4h.3c1.9 0 3.8-.4 5.6-.9.3.1.7.4.8.5.1.1.2.2.4.2h.2c.2-.1.3-.4.2-.6-.1-.2-.3-.4-.4-.5.2-.1.5-.2.7-.2l.1.1s1.2.5 1.7 1c.1.1.2.1.3.1s.2 0 .3-.1c.2-.2.1-.4 0-.6-.4-.3-.9-.6-1.3-.8.3-.1.6-.3.9-.4 0 0 .1.1.2.1 0 0 1.5.4 2.4.9.1 0 .1.1.2.1.2 0 .3-.1.4-.2.1-.2 0-.5-.2-.6-.5-.3-1.3-.6-1.8-.7.4-.2.7-.4.9-.6.1-.1.2-.3.2-.7.2 0 .5.1.9.1.5 0 1.1-.1 1.7-.3.1-.2.2-.4.2-.7zm-5.4-3c.4.3.7.6 1.1 1-.5-.1-.8-.2-.8-.2-.3-.2-.6-.5-.9-.7.1 0 .4 0 .6-.1z" fill="#000000" stroke-width="none" opacity="1"></path></g></g></g><g id="svga-group-facehighlight-single"></g><g id="svga-group-eyebrows-left-move" transform="matrix(1,0,0,1,0,0)"><g id="svga-group-eyebrows-left-rotate" transform="matrix(1,0,0,1,0,0)"><g id="svga-group-eyebrows-left" transform="matrix(1,0,0,1,0,0)"><path id="SvgjsPath15142" d="M92.86 72.43s-.87 4.5-1.81 5.37c-.94.87-16.75-1.6-18.35-1.38-1.6.22-5.87 4.13-5.87 4.13s5.37-8.41 6.67-9.28c1.31-.87 9.29.87 19.36 1.16z" fill="#ffffff" stroke-width="none" opacity="1"></path><path id="SvgjsPath15143" d="M66.55 80.89a.441.441 0 0 0 .58-.02c1.62-1.48 4.57-3.88 5.64-4.02.57-.08 3.6.27 6.53.62 8.36.97 11.44 1.22 12.05.65 1-.92 1.8-4.83 1.95-5.61a.46.46 0 0 0-.09-.36c-.08-.1-.2-.16-.33-.17-4.71-.14-8.91-.58-12.28-.94-4.52-.48-6.55-.67-7.34-.14-1.34.9-6.24 8.54-6.8 9.41-.12.19-.08.43.09.58zm6.93-9.02.73 4.16c-.27-.02-.52-.04-.73-.05l-1.1-2.78c.44-.59.83-1.06 1.1-1.33zm2.13-.39.08 4.69c-.31-.03-.61-.06-.87-.09l-.79-4.55c.33-.07.88-.08 1.58-.05zm1.61 4.86c-.33-.04-.65-.07-.94-.11l-.08-4.72c.49.03 1.05.08 1.64.13l-.62 4.7zm1.2-4.64c.36.04.73.07 1.1.11-.19.83-.73 3.02-1.14 4.66-.2-.02-.38-.04-.57-.07l.61-4.7zm10.82 5.84c-.15 0-.31-.01-.48-.02l1.4-4.76c.28.01.56.03.84.04l-1.76 4.74zm-1.08-.06c-.46-.03-.95-.07-1.47-.11l1.18-4.76c.55.04 1.12.08 1.69.11l-1.4 4.76zm-2.07-.16c-.18-.02-.36-.03-.54-.05l1.15-4.74c.19.02.38.03.57.05l-1.18 4.74zm-1.13-.11-1.49-.15 1.02-4.72c.52.05 1.06.1 1.61.14l-1.14 4.73zm-2.07-.22c-.42-.05-.83-.09-1.24-.14l1.19-4.69c.35.04.7.07 1.07.11l-1.02 4.72zm7.88.46c-.14.06-.47.09-.91.09l1.75-4.72.72.03c-.36 1.68-1.01 4.06-1.56 4.6zm-11.8-.91c.74-2.96 1.03-4.17 1.14-4.66.13.01.26.03.4.04.56.06 1.14.12 1.74.18l-1.19 4.68c-.58-.07-1.14-.13-1.66-.19-.15-.01-.29-.03-.43-.05zm-6.32-.56c-.14.02-.3.07-.46.13l-1.26-.9c.36-.52.71-1.01 1.04-1.45l.88 2.21c-.08 0-.16 0-.2.01zm-3.79 2.27c.57-.86 1.16-1.73 1.73-2.56l.98.7c-.83.44-1.83 1.15-2.71 1.86z" fill="#000000" stroke-width="none" opacity="1"></path></g></g></g><g id="svga-group-eyebrows-right-move" transform="matrix(1,0,0,1,0,0)"><g id="svga-group-eyebrows-right-rotate" transform="matrix(1,0,0,1,0,0)"><g id="svga-group-eyebrows-right" transform="matrix(1,0,0,1,0,0)"><path id="SvgjsPath15144" d="M107.14 72.43s.87 4.5 1.81 5.37c.94.87 16.75-1.6 18.35-1.38 1.6.22 5.87 4.13 5.87 4.13s-5.37-8.41-6.67-9.28c-1.31-.87-9.29.87-19.36 1.16z" fill="#ffffff" stroke-width="none" opacity="1"></path><path id="SvgjsPath15145" d="M133.54 80.31c-.55-.87-5.45-8.52-6.8-9.41-.79-.53-2.82-.34-7.34.14-3.37.36-7.57.81-12.28.94-.13 0-.25.06-.33.17a.46.46 0 0 0-.09.36c.15.77.95 4.68 1.95 5.61.61.57 3.69.32 12.05-.65 2.93-.34 5.97-.69 6.53-.62 1.06.14 4.02 2.54 5.64 4.02.08.08.19.12.3.12.1 0 .2-.03.28-.1.17-.15.21-.39.09-.58zm-5.91-7.11-1.1 2.78c-.21.01-.46.03-.73.05l.73-4.16c.26.27.65.74 1.1 1.33zm-1.65-1.66-.79 4.55c-.27.03-.56.06-.87.09l.08-4.69c.69-.04 1.24-.03 1.58.05zm-3.81.11c.59-.06 1.14-.1 1.64-.13l-.08 4.72c-.3.03-.61.07-.94.11l-.62-4.7zm.02 4.76c-.19.02-.37.04-.57.07-.41-1.64-.95-3.83-1.14-4.66.38-.04.75-.08 1.1-.11l.61 4.7zM109 72.8c.28-.01.56-.03.84-.04l1.4 4.76c-.17.01-.33.02-.48.02L109 72.8zm1.44-.08c.57-.03 1.14-.07 1.69-.11l1.18 4.76c-.52.05-1.02.08-1.47.11l-1.4-4.76zm2.29-.15c.19-.01.38-.03.57-.05l1.15 4.74c-.18.02-.36.03-.54.05l-1.18-4.74zm1.16-.1c.55-.05 1.09-.09 1.61-.14l1.02 4.72c-.5.05-1 .11-1.49.15l-1.14-4.73zm2.2-.2c.36-.04.72-.07 1.07-.11l1.19 4.69c-.41.05-.82.09-1.24.14l-1.02-4.72zm-8.42.58.72-.03 1.75 4.72c-.44 0-.77-.03-.91-.09-.55-.54-1.2-2.92-1.56-4.6zm12.93 3.74c-.51.06-1.07.12-1.66.19l-1.19-4.68c.6-.06 1.19-.12 1.74-.18.13-.01.26-.03.4-.04.11.5.4 1.71 1.14 4.66-.14.02-.28.04-.43.05zm6.56-.62.88-2.21c.33.44.68.93 1.04 1.45l-1.26.9c-.17-.06-.32-.11-.46-.13-.05-.01-.13-.01-.2-.01zm1.27.42.98-.7c.57.82 1.16 1.7 1.73 2.56-.88-.71-1.88-1.42-2.71-1.86z" fill="#000000" stroke-width="none" opacity="1"></path></g></g></g><g id="svga-group-nose-single-move" transform="matrix(1,0,0,1,0,0)"><g id="svga-group-nose-single" transform="matrix(1,0,0,1,0,0)"><path id="SvgjsPath15124" d="M95.4 104.4c1.9-3.5 3.3-6.9 1.9-10.9-.7-1.9-1.4-3.7-1.3-5.8.1-2.2 1.1-4.2 2.6-5.8.5-.5-.3-1.2-.7-.7-2.4 2.5-3.5 6.2-2.6 9.6.5 2.1 1.7 4 1.7 6.2 0 2.5-1.3 4.7-2.4 6.8-.4.7.5 1.2.8.6z" fill="#000000" stroke-width="none" opacity="1"></path><path id="SvgjsPath15125" d="M106.3 106.9c-1.2-.2-2.1.3-2.8 1.2-1 1.3-1.2 4-3 4.4-2.3.5-3.4-2.5-4.5-3.9-.9-1.1-2-1.9-3.5-1.8-.7 0-.7 1.1 0 1 3.5-.2 3.7 5.5 7.3 5.8 1.2.1 2.1-.6 2.8-1.5.8-1.3 1.3-4.5 3.4-4.2.7.1 1-.9.3-1z" fill="#000000" stroke-width="none" opacity="1"></path></g></g><g id="svga-group-hair-front" transform="matrix(1,0,0,1,0,0)"><path id="SvgjsPath15225" d="M118.4 47.9s2 11.6 1.8 17l12.5.2-.4-5.3s3.5 8.4 2.7 21.6c-.8 13.1-3.9 29-3.9 29s9.2-4.3 11.8-6.1l3.1-15.1-.4 13.5s6.1-3.9 8-5.9c0 0-1.4-17.6-2.4-25.7l4.7 15.3s-2.2-13.9-6.5-24.3-13.9-24.9-22.2-30.8-19.4-7.8-27-5.1c0 0-9-2.5-13.1-2.2-4.1.4-31.2 15.1-36.7 41.9s-4.1 30-4.1 30 3.5 3.7 4.9 4.1l1-7.4 2 10.2s12.3 6.3 17.6 7.1c0 0-6.3-15.1-6.7-27-.4-12 2-31.4 7.1-39.4 0 0-1.8 13.3-2.2 20.2 0 0 30.2 5.5 45.7 1.8.2.1 2.7-11.7 2.7-17.6z" fill="#ffffff" stroke="#000000" stroke-width="1" opacity="1"></path><path id="SvgjsPath15226" d="M89.4 26.6c-7.5 10.1-10.8 22.3-9.6 34.8.1.8 1.3.8 1.2 0-1.2-12.3 2.1-24.2 9.4-34.1.5-.7-.6-1.3-1-.7zM88.8 37c-2.7 8.6-3.4 17.3-2.1 26.2.1.8 1.3.5 1.2-.3-1.3-8.7-.6-17.2 2.1-25.5.3-.8-.9-1.2-1.2-.4zm2.8 6.3c-1.6 5.8-1.7 11.7-.4 17.5.2.8 1.4.5 1.2-.3-1.3-5.7-1.1-11.3.4-16.9.2-.8-1-1.1-1.2-.3zm3.5 4.9c-.3 3.3-.1 6.5.6 9.8.2.8 1.4.5 1.2-.3-.7-3.1-.9-6.3-.6-9.5.2-.8-1.1-.8-1.2 0zm3.8.6c-.1 3.2.1 6.4.6 9.6.1.8 1.3.5 1.2-.3-.5-3.1-.7-6.2-.5-9.3-.1-.8-1.3-.8-1.3 0zm-21.1-10c-2.3 7.1-3.6 14.3-3.8 21.8 0 .8 1.2.8 1.2 0 .2-7.3 1.4-14.5 3.7-21.4.4-.8-.8-1.1-1.1-.4zm30-2.4c.6 8.9 1.2 17.7 1.8 26.6.1.8 1.3.8 1.2 0-.6-8.9-1.2-17.7-1.8-26.6 0-.8-1.2-.8-1.2 0zm1.8-5.8c3 10.8 4.1 21.8 3.3 33-.1.8 1.2.8 1.2 0 .8-11.3-.3-22.4-3.4-33.3-.1-.8-1.3-.5-1.1.3zm8.8 7.3c2.8 8.3 4.3 16.8 4.6 25.5 0 .8 1.3.8 1.2 0-.3-8.9-1.8-17.4-4.7-25.8-.1-.8-1.3-.5-1.1.3zm7.5 8.4c.7 4.7 1.4 9.4 2 14 .1.8 1.3.5 1.2-.3-.7-4.7-1.4-9.4-2-14-.1-.8-1.3-.4-1.2.3zm1.1-7.5c9.9 14.6 14.1 32 12 49.5-.1.8 1.2.8 1.2 0 2.1-17.7-2.2-35.4-12.2-50.1-.3-.7-1.4-.1-1 .6zm-55.1-2.3C61.4 54 57.6 74.6 61.2 94.7c.1.8 1.3.5 1.2-.3-3.5-19.8.3-40.1 10.6-57.3.4-.7-.7-1.3-1.1-.6zm-10 13.4c-5.8 9.9-7.9 21-6.3 32.3.1.8 1.3.5 1.2-.3-1.6-11 .6-21.8 6.2-31.3.4-.8-.7-1.4-1.1-.7z" fill="#000000" stroke-width="none" opacity="1"></path></g><g id="svga-group-glasses-single-move" transform="matrix(1,0,0,1,0,0)"><g id="svga-group-glasses-single" transform="matrix(1,0,0,1,0,0)"></g></g></g></g></g><rect id="svga-credit-rect" width="200" height="15" x="0" y="185" fill="#ecf0f1" opacity="0.5" style="display: none;"></rect><text id="svga-credit-text" font-family="Avenir Next, Roboto, Helvetica, Arial, sans-serif" font-size="10px" text-anchor="start" font-weight="400" size="10px" anchor="start" weight="400" fill="#333333" x="33.402061462402344" y="182.71133995056152" style="display: none;"><tspan id="SvgjsTspan14525" dy="13" x="33.402061462402344">Created on AvatarMaker.com</tspan></text></g></svg>