<svg xmlns="http://www.w3.org/2000/svg" version="1.1" width="600px" height="600px" viewBox="0 0 200 200" style="overflow:hidden!important;"><defs id="SvgjsDefs17348"></defs><g id="svga-group-wrapper"><g id="svga-group-backs-single"></g><g id="svga-group-humanwrap-move" transform="matrix(1,0,0,1,0,0)"><g id="svga-group-humanwrap" transform="matrix(1,0,0,1,0,0)"><g id="svga-group-hair-back-move" transform="matrix(1,0,0,1,0,0)"><g id="svga-group-hair-back" transform="matrix(1,0,0,1,0,0)"><path id="SvgjsPath18065" d="M63.2 87.4s1.7 33.2 1 54.5c-.7 21.3-2.3 31.2-7.3 39.9-5 8.6-11.3 16.9-11.3 20.6s110.3-.7 110.3-.7-12.6-7.3-15.6-29.6-.7-84-.3-90.7-66.5-43.8-76.8 6z" fill="#000000" stroke-width="none" opacity="1"></path><path id="SvgjsPath18066" d="M70.7 107c-.1-.8-1.3-.8-1.2 0 3.1 30.4 6 64.9-15.6 89.7-.5.6.3 1.5.9.9 21.7-25.1 19-59.8 15.9-90.6zm5.8 13.4c-.1-.8-1.3-.5-1.2.3 0 .3.1.6.1.9-.3 0-.7.2-.7.6 1.7 29.5 3 61-13.7 87-.4.7.7 1.3 1.1.6 15.3-23.8 15.6-52.3 14.2-79.7 2 20.3.6 40.6-4 60.5-.2.8 1 1.1 1.2.3 5.6-23.1 6.5-46.9 3-70.5zm3.7 10.3c2.7 21.8.9 43.8-5.3 64.8-.2.8 1 1.1 1.2.3 6.2-21.2 8-43.2 5.3-65.2-.1-.7-1.3-.7-1.2.1zm6.6 6.8c.3 12.1-.4 24.1-2 36-.1.8 1.2.8 1.2 0 1.6-11.9 2.2-23.9 2-36 0-.8-1.2-.8-1.2 0zm31.6-17c.1-.8-1.2-.8-1.2 0-2.4 23.4-.3 46.9 6.4 69.5.2.8 1.4.4 1.2-.3-6.7-22.5-8.8-45.9-6.4-69.2zm28.5 80.6c-8.3-14.8-8.7-32.1-9.3-48.6-.6-17.3-.6-34.7.1-52 0-.8-1.2-.8-1.2 0-.7 18.7-.7 37.3.1 56 .7 15.5 1.5 31.5 9.3 45.3.3.6 1.3 0 1-.7zm-12.4-94.6c.1-.8-1.2-.8-1.2 0-2.8 32.2-5.4 65.6 6.8 96.3.3.7 1.5.4 1.2-.3-12.2-30.7-9.6-63.9-6.8-96zm-6.5 10.2c.1-.8-1.2-.8-1.2 0-2.1 27.9 1.1 55.8 9.3 82.5.2.8 1.4.4 1.2-.3-8.3-26.6-11.4-54.4-9.3-82.2zm-2.9 5c.1-.8-1.2-.8-1.2 0-2.7 28.2.9 56.5 10.7 83 .3.8 1.5.4 1.2-.3-9.8-26.5-13.4-54.6-10.7-82.7zm-56.8-16.6c-.1-.8-1.3-.8-1.2 0C69 139.2 70.5 178 45 204.5c-.6.6.3 1.5.9.9 25.7-26.8 24.4-65.8 22.4-100.3z" fill="#ffffff" stroke-width="none" opacity="1"></path></g></g><g id="svga-group-humanbody-back"><path id="SvgjsPath17606" d="M86.5 122c0 18.8 2.7 50.3-8.1 58s-31.8 13.9-36.7 24.4-3.6 14.4-3.6 14.4h124.1s.6-8.1-4.2-15.4c-6.6-10.1-28.5-17.7-36.5-22.9-8.1-5.2-10.9-32.2-10.9-58.8l-24.1.3z" fill="#ffffff" stroke-width="none" opacity="1"></path></g><g id="svga-group-chinshadow-single"></g><g id="svga-group-humanbody-front"><path id="SvgjsPath17607" d="M163.4 220.1H37.2l-.3-.9c-.1-.5-1.3-4.7 3.6-15.3 3.4-7.3 13.6-12.4 23.5-17.4 5.1-2.5 9.9-5 13.6-7.5 8.6-6 8.1-29.8 7.7-47.1-.1-3.5-.1-6.8-.1-9.8v-1.3l26.7-.4v1.3c0 32 3.8 53.5 10.3 57.7 2.4 1.6 6 3.3 10.2 5.4 9.7 4.7 21.9 10.6 26.7 18 5 7.6 4.4 15.9 4.4 16.2l-.1 1.1zm-124.1-2.6h121.6c-.1-2.4-.6-8.2-4-13.4-4.4-6.7-16.2-12.5-25.6-17-4.3-2.1-8-3.9-10.5-5.5-9.8-6.3-11.4-38.8-11.5-58.6l-21.5.4c0 2.6.1 5.5.1 8.5.4 18.9.9 42.4-8.8 49.3-3.8 2.7-8.7 5.1-13.9 7.7-9.5 4.8-19.4 9.7-22.3 16.1-3.3 6.9-3.7 10.9-3.6 12.5z" fill="#000000" stroke-width="none" opacity="1"></path><path id="SvgjsPath17608" d="M76.8 188.7c4.8 2.3 10.4 3.9 15.7 2.9.4-.1.4-.7 0-.8-5.1-.9-10.2-1.4-15.2-3.2-.6-.2-1.1.8-.5 1.1z" fill="#000000" stroke-width="none" opacity="1"></path><path id="SvgjsPath17609" d="M108.3 191.1c2.4.3 4.9-.4 7.1-1.2 2.1-.8 4.3-1.7 5.8-3.4.5-.5-.1-1.2-.7-.9-2.1.9-3.9 2.3-6.1 3-2 .7-4.1 1-6.2 1.5-.6.1-.4.9.1 1z" fill="#000000" stroke-width="none" opacity="1"></path></g><g id="svga-group-clothes-single"><path id="SvgjsPath18006" d="M35.41 220.36s-1.42-6.88 2.61-14.95 8.07-12.34 37.02-25.39c0 0 6.64 8.54 23.49 8.78s24.92-8.78 24.92-8.78 16.61 7.59 20.65 10.2 12.1 6.88 16.14 12.34 3.28 17.8 3.28 17.8H35.41z" fill="#ffffff" stroke-width="none" opacity="1"></path><path id="SvgjsPath18007" d="M161.04 201.97c-3.42-4.63-9.47-8.33-13.89-11.03-.93-.57-1.79-1.09-2.51-1.56-4.05-2.62-20.09-9.96-20.77-10.27-.4-.18-.87-.08-1.16.24-.08.09-7.99 8.67-24.16 8.45-16.11-.23-22.66-8.32-22.72-8.4-.28-.36-.78-.49-1.2-.3-28.99 13.07-33.31 17.47-37.5 25.86-4.14 8.28-2.76 15.31-2.7 15.6.1.46.51.8.98.8h128.11c.53 0 .97-.41 1-.94.03-.52.73-12.77-3.48-18.45zm-1.6 1.19c.04.06.08.13.13.19-1.01-.51-2.1-.88-3.19-1.19.86-.59 1.46-.74 1.48-.74l-.03-.15c.58.6 1.13 1.24 1.61 1.89zm-13.33-10.51c3.13 1.91 7.1 4.34 10.25 7.19-2.36 1.11-7.69 5.18-8.69 19.52H52.95c-1.33-10.1-3.49-15.72-5.39-18.83.15-.03.14-.28-.01-.3l-.2-.03c-.85-1.32-1.63-2.14-2.26-2.65 4.25-3.76 11.36-7.85 25.22-14.27 1.74 2.41 8.22 9.42 25.7 11.15 1.49.15 2.93.22 4.31.22 16.2 0 25.4-9.37 27.34-11.57 5.21 2.44 13.3 6.31 15.9 7.99.73.47 1.6 1 2.55 1.58zm3.63 25.9c1 .28 2 .56 3.01.81h-3.07c.02-.27.03-.55.06-.81zM38.72 206.27c3.12 1.49 6.63 2.74 10.09 2.79.03 0 .05-.02.07-.03.29 1.01.57 2.11.83 3.32-4.28-.75-8.11-1.54-12.12-3.34.31-.89.69-1.8 1.13-2.74zm4.15-6.52c.7.3 1.43.54 2.18.69.73.95 1.59 2.39 2.46 4.54-2.35-.62-4.67-1.22-6.94-2.12.66-1.07 1.41-2.09 2.3-3.11zm1.54-.08c-.39-.09-.78-.19-1.17-.32.12-.13.25-.27.38-.4.21.16.47.39.79.72zm34.58-15.06c-.41.39-.75.88-1.1 1.32-.21.27-.42.54-.62.82-.58-.36-1.11-.72-1.59-1.07.61-.7 1.29-1.34 1.99-1.95.41.28.84.57 1.32.88zm1.56.92c-.5.74-.94 1.52-1.38 2.29-.58-.3-1.11-.6-1.61-.91.25-.29.5-.57.75-.87.34-.4.71-.8.99-1.25.39.25.81.5 1.25.74zm2.65 1.27c-.55.7-1.04 1.45-1.54 2.19-.75-.31-1.44-.64-2.09-.97.49-.74.98-1.5 1.41-2.28.69.37 1.42.72 2.22 1.06zm1.91.75c-.46.73-.84 1.53-1.21 2.3-.64-.22-1.24-.45-1.82-.69.54-.71 1.11-1.42 1.6-2.16.45.18.93.37 1.43.55zm8.08 4.51c.28-.84.58-1.69.76-2.55.46.05.94.1 1.42.13-.3.85-.53 1.73-.73 2.61-.5-.05-.98-.12-1.45-.19zm-.37-.05c-1.69-.26-3.26-.57-4.71-.92.33-.78.67-1.59.93-2.4 1.4.33 2.92.59 4.55.78-.31.82-.54 1.69-.77 2.54zm-5.14-1.03c-.55-.14-1.09-.29-1.61-.44.4-.76.8-1.54 1.1-2.34.43.12.88.24 1.34.36-.32.79-.58 1.62-.83 2.42zm-2.03-.56c-.47-.14-.93-.29-1.37-.44.43-.75.87-1.52 1.2-2.31.41.14.82.28 1.26.41-.42.74-.77 1.54-1.09 2.34zm31.24-4.56c.41.71.82 1.43 1.26 2.12-.78.44-1.62.88-2.51 1.29-.35-.76-.73-1.52-1.1-2.27-.02-.03-.04-.04-.06-.06a30.4 30.4 0 0 0 2.41-1.08zm2.46-1.37c.28.33.56.67.84 1 .23.26.45.53.68.79-.71.49-1.49.99-2.33 1.48-.41-.71-.85-1.39-1.3-2.08.77-.4 1.47-.8 2.11-1.19zm1.89-1.26c.23.35.47.69.74 1.01.19.23.41.5.65.75-.4.32-.84.65-1.31.98-.25-.28-.53-.55-.78-.83l-.84-.87c.57-.36 1.08-.7 1.54-1.04zm1.65-1.3c.2.22.4.44.61.65.29.3.57.63.88.93-.37.34-.8.7-1.27 1.09-.2-.19-.41-.38-.58-.58-.31-.35-.6-.71-.88-1.09.49-.37.9-.71 1.24-1zm-8.61 5.23c.32.76.63 1.53.97 2.29-3.94 1.78-8.9 3.15-14.82 3.18.14-.95.19-1.93.04-2.86 5.62-.16 10.21-1.29 13.8-2.73 0 .03 0 .08.01.12zm9.4-5.94c.47.22 1.19.55 2.07.96-.26.27-.58.59-.98.96-.29-.32-.61-.62-.91-.93-.2-.2-.41-.4-.61-.61.17-.13.31-.27.43-.38zm-23.59 8.55c-.05.96-.05 1.91-.12 2.86-.73 0-1.48-.03-2.24-.08.12-.58.18-1.18.09-1.77-.02-.15-.27-.15-.29 0-.08.59-.14 1.16-.24 1.73-.36-.03-.72-.05-1.09-.08-.39-.04-.76-.08-1.14-.13.25-.87.48-1.74.63-2.63.91.06 1.85.11 2.82.12.55.02 1.06-.01 1.58-.02zm-22.73-6.28c-.76.54-1.41 1.21-2 1.94-.73-.55-1.34-1.08-1.83-1.56.74-.55 1.51-1.11 2.14-1.77.45.41 1.01.88 1.69 1.39zm-2.58-2.26c.17.18.4.41.66.65-.78.49-1.49 1.11-2.19 1.72-.45-.46-.81-.86-1.07-1.19.85-.38 1.71-.77 2.6-1.18zm-34.45 22.02c2.36 1.04 4.83 1.94 7.39 2.28.36.94.72 2 1.07 3.2-3.4-.85-6.65-1.49-9.9-2.83.01-.01.01-.03.02-.04.46-.92.93-1.78 1.42-2.61zm-4.15 13.45c2.58 1.32 5.43 2.39 8.29 2.63.19.02.22-.27.04-.32-2.87-.83-5.61-1.55-8.32-2.77.04-.89.13-1.91.32-3.02 4.1 2.29 9.02 4.24 13.74 4.2.14 0 .17-.21.03-.25-4.81-1.23-9.2-2.15-13.69-4.39.19-1.04.47-2.16.85-3.33 3.71 2 8.12 3.44 12.36 3.35.41 1.92.79 4.1 1.12 6.57H36.28c-.06-.61-.12-1.52-.1-2.67zm126.38 2.66h-7.79c-1.64-.49-3.32-.85-4.99-1.23.09-.98.21-1.91.34-2.78 2.84 1.28 5.93 2.15 9.01 2.42.21.02.24-.31.05-.36-3.05-.79-6-1.63-8.96-2.64.15-.89.32-1.72.5-2.5 2.27.81 4.55 1.5 6.93 1.99.21.04.3-.26.09-.32-2.32-.65-4.63-1.34-6.9-2.13.22-.88.47-1.69.72-2.43 2.57.87 5.17 1.73 7.81 2.33.22.05.29-.25.09-.33-2.51-.99-5.13-1.74-7.73-2.47.27-.71.55-1.36.83-1.95 2.33.81 4.7 1.65 7.09 2.17.26.06.35-.29.11-.39-2.23-.92-4.62-1.58-6.97-2.23.39-.74.79-1.38 1.18-1.92 2.01.72 4.05 1.57 6.12 2.04.22.05.39-.28.16-.39-1.9-.87-3.98-1.43-5.98-2.06.55-.69 1.08-1.22 1.56-1.62 1.47.47 2.85 1.1 4.27 1.68 2.49 4.55 2.53 12.42 2.46 15.12z" fill="#000000" stroke-width="none" opacity="1"></path></g><g id="svga-group-head" transform="matrix(1,0,0,1,0,0)"><g id="svga-group-ears-left-move" transform="matrix(1,0,0,1,0,0)"><g id="svga-group-ears-left" transform="matrix(1,0,0,1,0,0)"><path id="SvgjsPath17883" d="M62.9 81.4s-3-4.7-6.1-5.6-6.6 2.1-6.1 7.8c.6 5.7 8.7 18.9 15.9 19.7 6.2.7-1.1-18.5-3.7-21.9z" fill="#ffffff" stroke-width="none" opacity="1"></path><path id="SvgjsPath17884" d="M66.5 104.2c-7.7-.8-16.1-14.5-16.7-20.4-.3-3.4.8-6.4 3-7.9 1.3-.9 2.9-1.2 4.4-.8 3.3.9 6.2 5.3 6.6 5.9 2.1 2.7 8.5 18 5.5 22-.5.7-1.4 1.1-2.3 1.1-.3.1-.4.1-.5.1zM53.9 77.1c-1.7 1.1-2.5 3.6-2.3 6.4.5 5.4 8.5 18.3 15 18.9.4 0 .7 0 .9-.3 2.1-2.9-3.2-17.2-5.5-20.3v-.1c-.8-1.2-3.3-4.6-5.5-5.2-.2-.1-.5-.1-.7-.1-.7.2-1.3.4-1.9.7z" fill="#000000" stroke-width="none" opacity="1"></path><path id="SvgjsPath17885" d="M55.5 79.3c2.6 1.4 5 5.6 6.2 9.6v.1c0 .3-.2.4-.3.1-.4-1.2-1-1.2-1.7 0-.2.7-.1 1.5.1 2.3.2.7.5 1.4.8 1.9.6 1.2 1.4 2 2.1 3 .2.3 0 .7-.2.5-1.6-1-3.9-4.6-3.4-7.6.2-1.4 1.1-2.2 1.8-1.7-.9-2.1-1.9-3.9-3.2-5.4-.7-.8-2.3-2.7-3.1-2.3-1.5.6-.7 4.6-.5 6.4 0 .3-.2.4-.3.1-1-2.9-1.1-8.5 1.7-7z" fill="#000000" stroke-width="none" opacity="1"></path><path id="SvgjsPath17886" d="M61.9 97.8c-2.8-.9-4.8-4.6-6-8.8-.7-2.5-2.1-8.3.6-8.2.2 0 .3.5.1.6-2.5 1.1.2 8.9 1 10.7 1.1 2.6 2.5 4.3 4.3 5.2.2.2.2.6 0 .5z" fill="#000000" stroke-width="none" opacity="1"></path></g></g><g id="svga-group-ears-right-move" transform="matrix(1,0,0,1,0,0)"><g id="svga-group-ears-right" transform="matrix(1,0,0,1,0,0)"><path id="SvgjsPath17887" d="M137.1 81.4s3-4.7 6.1-5.6 6.6 2.1 6.1 7.8c-.6 5.7-8.7 18.9-15.9 19.7-6.2.7 1.1-18.5 3.7-21.9z" fill="#ffffff" stroke-width="none" opacity="1"></path><path id="SvgjsPath17888" d="M133.1 104.2c-1 0-1.8-.4-2.3-1.1-2.9-4 3.4-19.3 5.5-22 .4-.6 3.3-5.1 6.6-5.9 1.5-.4 3-.1 4.4.8 2.2 1.5 3.3 4.4 3 7.9-.6 5.9-9 19.6-16.7 20.4-.2-.1-.3-.1-.5-.1zm11.1-27.6c-.2 0-.5 0-.7.1-2.2.6-4.7 3.9-5.5 5.2v.1c-2.4 3-7.7 17.4-5.5 20.3.2.3.4.4.9.3 6.5-.7 14.5-13.6 15-18.9.3-2.9-.6-5.3-2.3-6.4-.6-.5-1.2-.7-1.9-.7z" fill="#000000" stroke-width="none" opacity="1"></path><path id="SvgjsPath17889" d="M144.5 79.3c-2.6 1.4-5 5.6-6.2 9.6v.1c0 .3.2.4.3.1.4-1.2 1-1.2 1.7 0 .2.7.1 1.5-.1 2.3-.2.7-.5 1.4-.8 1.9-.6 1.2-1.4 2-2.1 3-.2.3 0 .7.2.5 1.6-1 3.9-4.6 3.4-7.6-.2-1.4-1.1-2.2-1.8-1.7.9-2.1 1.9-3.9 3.2-5.4.7-.8 2.3-2.7 3.1-2.3 1.5.6.7 4.6.5 6.4 0 .3.2.4.3.1 1-2.9 1.1-8.5-1.7-7z" fill="#000000" stroke-width="none" opacity="1"></path><path id="SvgjsPath17890" d="M138.1 97.8c2.8-.9 4.8-4.6 6-8.8.7-2.5 2.1-8.3-.6-8.2-.2 0-.3.5-.1.6 2.5 1.1-.2 8.9-1 10.7-1.1 2.6-2.5 4.3-4.3 5.2-.2.2-.2.6 0 .5z" fill="#000000" stroke-width="none" opacity="1"></path></g></g><g id="svga-group-faceshape-wrap" transform="matrix(1,0,0,1,0,0)"><g id="svga-group-faceshape-single"><path id="SvgjsPath17868" d="M138.2 58.2c-2-10.8-13.3-27.4-37.2-27.4-23.9 0-31.9 12.7-35.5 22.2-3 8.1-3 21.3-3 21.3s-1.6 19.2-.1 23.7 8.7 8.7 12.9 18.3c4.2 9.6 4.5 13.5 7.5 18s26.1 7.5 30 2.7c3.9-4.8 7.5-18.6 9.3-21.6 1.8-3 12.9-9.9 15-14.7 2.1-4.8 2.3-26.4 2.3-26.4s.2-8.4-1.2-16.1z" fill="#ffffff" stroke-width="none" opacity="1"></path><path id="SvgjsPath17869" d="M103 140.8c-.8 0-1.6 0-2.3-.1-7.6-.4-16.8-2.5-18.9-5.7-1.8-2.7-2.7-5.1-3.9-8.5-.9-2.5-2-5.6-3.8-9.7-2.3-5.3-5.6-8.9-8.3-11.8-2.1-2.3-4-4.4-4.7-6.6-1.5-4.6-.2-21.9 0-24.2 0-1.1.1-13.7 3.1-21.7 5.8-15.5 17.8-23 36.7-23 10.9 0 20.5 3.4 27.7 10 5.5 5 9.6 11.9 10.8 18.5 1.4 7.7 1.2 16 1.2 16.4 0 2.2-.3 22-2.4 26.9-1.4 3.1-5.8 6.7-9.7 9.9-2.4 1.9-4.8 3.9-5.4 5-.6 1-1.5 3.6-2.5 6.5-1.9 5.4-4.3 12.1-6.9 15.3-1.8 2.3-6.9 2.8-10.7 2.8zm-2-108.7c-17.7 0-28.9 7-34.3 21.3-2.9 7.8-2.9 20.8-2.9 20.9v.2c-.4 5.3-1.3 19.7-.1 23.2.6 1.7 2.2 3.5 4.2 5.6 2.8 3.1 6.2 6.9 8.7 12.5 1.8 4.2 2.9 7.3 3.8 9.8 1.2 3.3 2 5.5 3.6 8 1.2 1.8 8.5 4.1 16.9 4.5 5.5.3 9.9-.5 11-1.9 2.3-2.9 4.7-9.6 6.5-14.5 1.1-3.2 2-5.7 2.7-6.9.9-1.4 3.1-3.3 6-5.6 3.5-2.8 7.8-6.4 8.9-8.9 1.6-3.7 2.1-20 2.2-25.9 0-.1.2-8.4-1.2-15.9-1.1-6-4.8-12.4-10-17-6.7-6.2-15.7-9.4-26-9.4z" fill="#000000" stroke-width="none" opacity="1"></path></g></g><g id="svga-group-mouth-single-move" transform="matrix(1,0,0,1,0,0)"><g id="svga-group-mouth-single" transform="matrix(1,0,0,1,0,0)"><path id="SvgjsPath17959" d="M112.49 120.48c-.67.61-1.44.8-2.25.77v-.01c-1.46-3.33-4.65-5.48-8.28-5.63-.17-.01-.23.13-.22.26a1.734 1.734 0 0 1-3.3-.17c0-.01-.01-.01-.01-.01.06-.15-.06-.38-.28-.33-3.48.78-7.44 2.4-7.82 6.45-.94.17-1.81.06-2.46-.74-.38-.48-1.06.2-.67.67.94 1.16 2.29 1.27 3.61.92-.3 1.5.42 2.96 1.76 3.8 2.32 1.46 5.22.65 7.75.55 2.6-.1 5.5.51 7.86-.92 1.43-.87 2.22-2.31 2.04-3.93 1.05.04 2.05-.21 2.95-1.02.45-.4-.23-1.07-.68-.66zM98 115.9c.66 2.01 3.29 2.09 4.14.22 3.29.2 6.12 2.13 7.54 5.08-1.44-.21-2.97-.96-4.24-1.27-1.87-.46-3.82-.65-5.74-.57-1.81.08-3.63.39-5.36.94-.98.31-2.28 1.05-3.52 1.4.41-3.62 4.03-5.07 7.18-5.8zm2.31 10.65c-1.59.06-3.18.41-4.78.29-2.31-.16-4.97-1.72-4.2-4.34.03-.01.06-.02.1-.03 2.77-1.03 5.25-2.03 8.26-2.16 2.92-.12 5.53.54 8.28 1.42.59.19 1.18.33 1.75.4.87 5.1-6.38 4.3-9.41 4.42z" fill="#000000" stroke-width="none" opacity="1"></path></g></g><g id="svga-group-eyes-left-move" transform="matrix(1,0,0,1,0,0)"><g id="svga-group-eyes-left" transform="matrix(1,0,0,1,0,0)"><g id="svga-group-eyesback-left"></g><g id="svga-group-eyesiriswrapper-left"><g id="svga-group-eyesiriscontrol-left" transform="matrix(1,0,0,1,0,0)"><g id="svga-group-eyesiris-left" transform="matrix(1,0,0,1,0,0)"><path id="SvgjsPath17921" d="M77.3 84.5c-1.4 1.8-1.2 4.1.4 5.5 1.7 1.5 4.5 1.9 6.5.1 1-1 1.7-2.4 1.4-3.7-.1-.4-.3-.9-.5-1.3-.2-.5-.5-1-.9-1.4-2-1.7-5.2-1.4-6.9.8z" fill="#ffffff" stroke-width="none" opacity="1"></path><path id="SvgjsPath17922" d="M85.8 86.3c-.1-.5-.3-.9-.6-1.3-.2-.6-.5-1-1-1.4-.9-.8-2.2-1.2-3.5-1.1-1.4.1-2.8.8-3.7 1.9-1.5 1.8-1.3 4.3.4 5.9.9.9 2.3 1.4 3.6 1.4 1.1 0 2.3-.4 3.2-1.3 1.3-1.3 1.9-2.8 1.6-4.1zm-.6-.1c-.6.1-1.2.1-1.9.2 0-.1-.1-.2-.1-.2.4-.1.7-.3 1.1-.5.2-.1.4-.1.6-.2.1.2.2.5.3.7zm-.8-1.6.3.6v.1c-.6.3-1.1.5-1.7.8-.1-.1-.1-.2-.2-.3.6-.5 1.1-.9 1.6-1.2zm-.6-.7c.2.1.3.3.4.4-.5.3-1.1.7-1.5 1.2l-.1-.1c-.1-.1-.2-.1-.2-.2.2-.3.4-.7.6-1 .1-.2.3-.4.4-.6.2.1.3.2.4.3zm-1.9.1c0-.3.1-.7.1-1 .4.1.8.2 1.2.5-.2.2-.3.4-.4.6-.2.3-.4.7-.6 1-.1-.1-.3-.1-.4-.2.1-.3.1-.6.1-.9zm-1.1-1.1h.4c.2 0 .4 0 .6.1-.1.3-.1.6-.1 1 0 .3-.1.7-.1 1-.2 0-.3-.1-.5-.1 0-.3-.1-.6-.1-.9-.1-.4-.2-.8-.2-1.1zm-4.1 3.6c.6.2 1.4.4 2 .3v.7c-.7-.1-1.3 0-2 0-.1-.4 0-.7 0-1zm0 1.2c.7-.1 1.3-.1 2-.1 0 .1.1.2.1.2-.3.1-.7.2-1 .4-.3.1-.6.2-.8.3-.1-.2-.2-.5-.3-.8zm.7 1.5c-.1-.1-.2-.3-.3-.4.3-.1.6-.2.8-.4.3-.1.6-.2.9-.4-.4.5-.9.8-1.4 1.2zm.4.5-.3-.3c.5-.3 1-.7 1.5-1.1.1.1.1.2.2.2-.2.2-.4.4-.6.7-.2.2-.4.5-.6.8 0-.1-.1-.2-.2-.3zm.5.4c.2-.2.4-.5.6-.8.2-.2.4-.4.5-.6.1.1.2.1.3.2-.2.2-.3.5-.5.8-.2.2-.3.4-.5.7-.1-.1-.2-.2-.4-.3zm.7.4c.2-.2.3-.4.4-.5l.6-.9c.1 0 .2.1.3.1-.2.5-.2 1.1-.5 1.6-.3-.1-.5-.2-.8-.3zm1 .3c.3-.5.4-1.1.5-1.6.2 0 .3.1.5.1-.1.5 0 1.1 0 1.7-.3 0-.6-.1-1-.2zm1.3.2c0-.5 0-1.1-.1-1.7.2 0 .3 0 .5-.1.1.5.3 1.1.5 1.6-.3.1-.6.1-.9.2zm3-1.6c-.4-.2-.8-.5-1.2-.8 0 .1-.1.2-.1.2.3.3.7.6 1 .8l-.2.2c-.2.2-.3.3-.5.4-.1-.2-.3-.4-.4-.6-.1-.2-.2-.3-.3-.5-.1 0-.2.1-.2.1.1.2.2.3.3.5.1.2.3.5.4.7-.2.1-.5.2-.7.3-.2-.5-.3-1.1-.6-1.6.1 0 .1 0 .1-.1l-.3-.3c-.7.2-1.6 0-2.1-.5-.4-.3-.6-.8-.5-1.3-.2-.1-.4-.3-.4-.6-.3-.1-.7-.1-1-.1-.3 0-.6-.1-.9-.2.1-.3.2-.7.4-1 .3.2.6.3.9.5.2.1.3.2.5.3 0-.1 0-.2.1-.3-.2-.1-.3-.1-.5-.2-.3-.1-.6-.3-.9-.4.1-.1.2-.2.2-.3l.6-.6c.1.2.3.4.5.6.1.1.2.3.4.4.1-.1.2-.1.2-.2l-.1-.1c-.2-.2-.3-.4-.5-.6-.1-.1-.2-.3-.3-.4.2-.2.5-.3.8-.5.1.3.2.5.4.7.1.2.3.4.4.6.1 0 .3 0 .4.1l-.6-.9c-.1-.2-.2-.5-.3-.7.3-.2.7-.2 1.1-.3 0 .3.1.7.2 1 .1.3.1.6.2.9-.2 0-.3.1-.4.1.1.1.3.2.3.3h.4c.5 0 .9.2 1.2.4.2.2.3.3.4.6.1.2.2.3.2.5.1.3 0 .6-.1.9.1.1.2.2.3.4 0 0 0-.1.1-.1.2.2.6.3.8.5.2.1.5.3.7.4-.1.5-.3.6-.4.8zm.5-.8c-.2 0-.8-.4-.9-.5-.2-.1-.3-.2-.5-.2 0 0-.1 0-.2-.1.1-.2.1-.4.2-.6.6.2 1.2.2 1.8.3-.1.4-.2.8-.4 1.1zm.4-1.3-1.8-.3v-.4c.6 0 1.3-.1 1.8-.2.1.4.1.6 0 .9zm-2.8.3h.2c.3-.9-.2-1.9-1.2-2.2-.2-.1-.4-.1-.6-.1.3.7 0 1.8-1.1 1.8h-.3c.1.6.3 1.1 1 1.4.4.2.9.2 1.2.1 0-.4.2-1 .8-1z" fill="#000000" stroke-width="none" opacity="1"></path></g></g></g><g id="svga-group-eyesfront-left"><path id="SvgjsPath18022" d="M81 74.4c-6.9 0-12.5 5.6-12.5 12.5S74.1 99.4 81 99.4s12.5-5.6 12.5-12.5S87.9 74.4 81 74.4zm6.5 16c-.9.6-3.7 2-7.2 2-3.5-.1-9.8-2.3-10.4-3.1s1.8-2.9 2.8-3.6 3.7-2.9 6.9-3c3.2-.1 5.5.7 7.5 1.9s3.3 3.3 3.3 3.3-2.1 1.9-2.9 2.5z" fill="#ffffff" stroke-width="none" opacity="1"></path><path id="SvgjsPath18023" d="M66.7 88.5c.6.2 1.2.3 1.7.3.3 0 .6 0 .9-.1-.1.4.1.6.2.7.2.2.5.4.9.6-.6.2-1.3.4-1.8.7-.2.1-.3.4-.2.6.1.1.2.2.4.2.1 0 .1 0 .2-.1.8-.5 2.4-.9 2.4-.9.1 0 .1 0 .2-.1.3.1.6.3.9.4-.4.2-1 .5-1.3.8-.2.2-.2.4 0 .6.1.1.2.1.3.1.1 0 .2 0 .3-.1.6-.5 1.7-.9 1.7-1 .1 0 .1-.1.1-.1.2.1.5.2.7.2-.2.1-.4.3-.4.5-.1.2 0 .5.2.6h.2c.2 0 .3-.1.4-.2.1-.2.5-.4.8-.5 1.8.5 3.8.9 5.6.9h.3c5.1-.1 8.6-3.9 8.8-4 .2-.2.1-.4 0-.6-.2-.2-.4-.2-.6 0 0 0-3.5 3.7-8.2 3.8-4.9.2-10.4-2.3-11.3-3 .2-.9 4.3-4.9 7.3-5.5 3-.7 9.7-.4 12.9 5.1.1.2.4.3.6.2.2-.1.3-.4.2-.6-3.4-6-10.5-6.3-13.8-5.6-1.2.3-2.5 1-3.8 1.9-.2 0-.5-.1-.7-.1 2.8-2 6.2-2.9 9.7-2.6 4.7.5 8.1 3.8 8.1 3.8.1.1.2.1.3 0 .1-.1.1-.2 0-.3 0 0-3.5-3.5-8.4-3.9-3.8-.4-7.4.7-10.4 2.9-1-.2-1.9-.4-2-.5-.2-.2-.4-.1-.6 0-.2.2-.1.4 0 .6.3.2 1 .4 1.7.6-.4.4-.8.7-1.2 1.2-.6 0-1.4 0-2-.3-.2-.1-.5 0-.6.2s0 .5.2.6c.5.2 1.1.3 1.7.4 0 .1 0 .1.1.2h.1c.1 0 .1 0 .2-.1 0-.1.1-.1.1-.2h.6c-.3.3-.6.6-.8.9h-.1s-1.3.4-2.7-.1c-.2-.1-.5 0-.5.3.1.3.2.5.4.6zm5.8-3.4c-.3.2-.6.5-.9.7l-.8.2c.3-.3.7-.7 1.1-1 .1 0 .4 0 .6.1z" fill="#000000" stroke-width="none" opacity="1"></path></g></g></g><g id="svga-group-eyes-right-move" transform="matrix(1,0,0,1,0,0)"><g id="svga-group-eyes-right" transform="matrix(1,0,0,1,0,0)"><g id="svga-group-eyesback-right"></g><g id="svga-group-eyesiriswrapper-right"><g id="svga-group-eyesiriscontrol-right" transform="matrix(1,0,0,1,0,0)"><g id="svga-group-eyesiris-right" transform="matrix(1,0,0,1,0,0)"><path id="SvgjsPath17923" d="M115.8 84.5c-1.4 1.8-1.2 4.1.4 5.5 1.7 1.5 4.5 1.9 6.5.1 1-1 1.7-2.4 1.4-3.7-.1-.4-.3-.9-.5-1.3-.2-.5-.5-1-.9-1.4-2.1-1.7-5.3-1.4-6.9.8z" fill="#ffffff" stroke-width="none" opacity="1"></path><path id="SvgjsPath17924" d="M124.2 86.3c-.1-.5-.3-.9-.6-1.3-.2-.6-.5-1-1-1.4-.9-.8-2.2-1.2-3.5-1.1-1.4.1-2.8.8-3.7 1.9-1.5 1.8-1.3 4.3.4 5.9.9.9 2.3 1.4 3.6 1.4 1.1 0 2.3-.4 3.2-1.3 1.4-1.3 1.9-2.8 1.6-4.1zm-.6-.1c-.6.1-1.2.1-1.9.2 0-.1-.1-.2-.1-.2.4-.1.7-.3 1.1-.5.2-.1.4-.1.6-.2.2.2.3.5.3.7zm-.7-1.6.3.6v.1c-.6.3-1.1.5-1.7.8-.1-.1-.1-.2-.2-.3.6-.5 1.1-.9 1.6-1.2zm-.6-.7c.2.1.3.3.4.4-.5.3-1.1.7-1.5 1.2l-.1-.1c-.1-.1-.2-.1-.2-.2.2-.3.4-.7.6-1 .1-.2.3-.4.4-.6.2.1.3.2.4.3zm-1.9.1c0-.3.1-.7.1-1 .4.1.8.2 1.2.5-.2.2-.3.4-.4.6-.2.3-.4.7-.6 1-.1-.1-.3-.1-.4-.2 0-.3.1-.6.1-.9zm-1.1-1.1h.4c.2 0 .4 0 .6.1-.1.3-.1.6-.1 1 0 .3-.1.7-.1 1-.2 0-.3-.1-.5-.1 0-.3-.1-.6-.1-.9-.1-.4-.2-.8-.2-1.1-.1 0-.1 0 0 0zm-4.1 3.6c.6.2 1.4.4 2 .3v.7c-.7-.1-1.3 0-2 0-.1-.4-.1-.7 0-1zm0 1.2c.7-.1 1.3-.1 2-.1 0 .1.1.2.1.2-.3.1-.7.2-1 .4-.3.1-.6.2-.8.3-.2-.2-.3-.5-.3-.8zm.7 1.5c-.1-.1-.2-.3-.3-.4.3-.1.6-.2.8-.4.3-.1.6-.2.9-.4-.5.5-1 .8-1.4 1.2zm.4.5-.3-.3c.5-.3 1-.7 1.5-1.1.1.1.1.2.2.2-.2.2-.4.4-.6.7-.2.2-.4.5-.6.8 0-.1-.1-.2-.2-.3zm.5.4c.2-.2.4-.5.6-.8.2-.2.4-.4.5-.6.1.1.2.1.3.2-.2.2-.3.5-.5.8-.2.2-.3.4-.5.7-.1-.1-.3-.2-.4-.3zm.7.4c.2-.2.3-.4.4-.5l.6-.9c.1 0 .2.1.3.1-.2.5-.2 1.1-.5 1.6-.3-.1-.6-.2-.8-.3zm1 .3c.3-.5.4-1.1.5-1.6.2 0 .3.1.5.1-.1.5 0 1.1 0 1.7-.3 0-.7-.1-1-.2zm1.3.2c0-.5 0-1.1-.1-1.7.2 0 .3 0 .5-.1.1.5.3 1.1.5 1.6-.3.1-.6.1-.9.2zm3-1.6c-.4-.2-.8-.5-1.2-.8 0 .1-.1.2-.1.2.3.3.7.6 1 .8l-.2.2c-.2.2-.3.3-.5.4-.1-.2-.3-.4-.4-.6-.1-.2-.2-.3-.3-.5-.1 0-.2.1-.2.1.1.2.2.3.3.5.1.2.3.5.4.7-.2.1-.5.2-.7.3-.2-.5-.3-1.1-.6-1.6.1 0 .1 0 .1-.1l-.3-.3c-.7.2-1.6 0-2.1-.5-.4-.3-.6-.8-.5-1.3-.2-.1-.4-.3-.4-.6-.3-.1-.7-.1-1-.1-.3 0-.6-.1-.9-.2.1-.3.2-.7.4-1 .3.2.6.3.9.5.2.1.3.2.5.3 0-.1 0-.2.1-.3-.2-.1-.3-.1-.5-.2-.3-.1-.6-.3-.9-.4.1-.1.2-.2.2-.3l.6-.6c.1.2.3.4.5.6.1.1.2.3.4.4.1-.1.2-.1.2-.2l-.1-.1c-.2-.2-.3-.4-.5-.6-.1-.1-.2-.3-.3-.4.2-.2.5-.3.8-.5.1.3.2.5.4.7.1.2.3.4.4.6.1 0 .3 0 .4.1l-.6-.9c-.1-.2-.2-.5-.3-.7.3-.2.7-.2 1.1-.3 0 .3.1.7.2 1 .1.3.1.6.2.9-.2 0-.3.1-.4.1.1.1.3.2.3.3h.4c.5 0 .9.2 1.2.4.2.2.3.3.4.6.1.2.2.3.2.5.1.3 0 .6-.1.9.1.1.2.2.3.4 0 0 0-.1.1-.1.2.2.6.3.8.5.2.1.5.3.7.4-.2.5-.3.6-.4.8zm.5-.8c-.2 0-.8-.4-.9-.5-.2-.1-.3-.2-.5-.2 0 0-.1 0-.2-.1.1-.2.1-.4.2-.6.6.2 1.2.2 1.8.3-.1.4-.2.8-.4 1.1zm.4-1.3-1.8-.3v-.4c.6 0 1.3-.1 1.8-.2 0 .4.1.6 0 .9zm-2.8.3h.2c.3-.9-.2-1.9-1.2-2.2-.2-.1-.4-.1-.6-.1.3.7 0 1.8-1.1 1.8h-.3c.1.6.3 1.1 1 1.4.4.2.9.2 1.2.1-.1-.4.2-1 .8-1z" fill="#000000" stroke-width="none" opacity="1"></path></g></g></g><g id="svga-group-eyesfront-right"><path id="SvgjsPath18024" d="M119 74.4c-6.9 0-12.5 5.6-12.5 12.5s5.6 12.5 12.5 12.5 12.5-5.6 12.5-12.5-5.6-12.5-12.5-12.5zm.2 17.9c-3.5.1-6.3-1.4-7.2-2-.9-.6-3-2.5-3-2.5s1.3-2.1 3.3-3.3c2-1.2 4.3-2 7.5-1.9s5.9 2.3 6.9 3 3.4 2.7 2.8 3.6c-.5.8-6.8 3-10.3 3.1z" fill="#ffffff" stroke-width="none" opacity="1"></path><path id="SvgjsPath18027" d="M133.1 87.9c-.1-.2-.3-.3-.5-.3-1.3.5-2.6.1-2.7.1h-.1c-.2-.3-.5-.6-.8-.9h.6c0 .1.1.1.1.2s.1.1.2.1h.1c.1 0 .1-.1.1-.2.6 0 1.1-.1 1.7-.4.2-.1.3-.3.2-.6-.1-.2-.4-.3-.6-.2-.6.3-1.3.3-2 .3l-1.2-1.2c.8-.2 1.5-.4 1.7-.6s.2-.4 0-.6-.4-.2-.6 0c-.2.2-1 .4-2 .5-3-2.2-6.6-3.3-10.4-2.9-4.9.5-8.3 3.9-8.4 3.9-.1.1-.1.2 0 .3.1.1.2.1.3 0 0 0 3.4-3.3 8.1-3.8 3.6-.4 6.9.6 9.7 2.6-.2 0-.5.1-.7.1-1.3-.9-2.6-1.6-3.8-1.9-3.3-.7-10.3-.5-13.8 5.6-.1.2 0 .5.2.6s.5 0 .6-.2c3.2-5.6 9.8-5.8 12.9-5.1 3 .6 7.1 4.6 7.3 5.5-.9.7-6.4 3.2-11.1 3.1s-8.1-3.7-8.2-3.8c-.2-.2-.4-.2-.6 0s-.2.4 0 .6c.1.2 3.7 3.9 8.8 4h.3c1.9 0 3.8-.4 5.6-.9.3.1.7.4.8.5.1.1.2.2.4.2h.2c.2-.1.3-.4.2-.6-.1-.2-.3-.4-.4-.5.2-.1.5-.2.7-.2l.1.1s1.2.5 1.7 1c.1.1.2.1.3.1s.2 0 .3-.1c.2-.2.1-.4 0-.6-.4-.3-.9-.6-1.3-.8.3-.1.6-.3.9-.4 0 0 .1.1.2.1 0 0 1.5.4 2.4.9.1 0 .1.1.2.1.2 0 .3-.1.4-.2.1-.2 0-.5-.2-.6-.5-.3-1.3-.6-1.8-.7.4-.2.7-.4.9-.6.1-.1.2-.3.2-.7.2 0 .5.1.9.1.5 0 1.1-.1 1.7-.3.1-.2.2-.4.2-.7zm-5.4-3c.4.3.7.6 1.1 1-.5-.1-.8-.2-.8-.2-.3-.2-.6-.5-.9-.7.1 0 .4 0 .6-.1z" fill="#000000" stroke-width="none" opacity="1"></path></g></g></g><g id="svga-group-facehighlight-single"></g><g id="svga-group-eyebrows-left-move" transform="matrix(1,0,0,1,0,0)"><g id="svga-group-eyebrows-left-rotate" transform="matrix(1,0,0,1,0,0)"><g id="svga-group-eyebrows-left" transform="matrix(1,0,0,1,0,0)"><path id="SvgjsPath17984" d="M91.32 71.42c-.19 1.6-1.13 4.23-2.63 4.89-1.5.66-8.46 1.69-13.35 1.32-4.89-.38-8.08-2.26-7.89-2.73.19-.47 5.92-.19 8.46-.66S87 72.27 89.16 71.33c2.16-.94 2.16.09 2.16.09z" fill="#ffffff" stroke-width="none" opacity="1"></path><path id="SvgjsPath17985" d="M67.08 75.33c.5.81 3.68 2.43 8.23 2.78.75.06 1.54.08 2.34.08 4.65 0 9.91-.86 11.23-1.44 1.76-.77 2.72-3.64 2.92-5.27v-.06a.94.94 0 0 0-.44-.77c-.5-.33-1.28-.25-2.4.24-1.9.83-9.15 2.15-12.24 2.72l-.91.17c-1.19.22-3.13.27-4.84.32-3.19.08-3.77.14-3.97.64-.04.09-.09.32.08.59zm3.92-.28c.18 0 .37-.01.55-.01l1.9 1.87c-.51-.09-1-.19-1.46-.3-.01-.01 0-.01-.01-.02l-1.88-1.51c.31-.02.61-.02.9-.03zm7.66 2.16-1.57-2.7c.37-.07.78-.14 1.23-.22l1.18 2.89c-.28.02-.56.03-.84.03zm6.61-.61c-.27.04-.56.09-.85.13l-.31-3.57c.49-.1.96-.21 1.42-.31l-.26 3.75zm.91-3.91c.54-.13 1.04-.25 1.5-.38l-1.1 4.06c-.21.04-.43.08-.65.12l.25-3.8zm-2.4 4.12-.78.09c-.1-.68-.33-2.1-.54-3.41l1.02-.21.3 3.53zm-1.41.17c-.24.02-.49.05-.73.07l-.81-3.22c.33-.06.67-.13 1.01-.2.19 1.19.43 2.68.53 3.35zm-1.38.11-.81.06-1.21-2.98c.4-.07.81-.15 1.23-.23l.79 3.15zm8.36-5.32c.13-.05.24-.1.34-.14-.4 1-1.22 2.98-1.84 4.45-.17.05-.36.1-.58.14l1.12-4.11c.39-.12.72-.23.96-.34zm-.66 3.98c1.16-2.77 1.6-3.87 1.77-4.32.24-.03.34.01.37.03-.19 1.45-1.01 3.6-2.14 4.29zM76.7 77.21l-1.81-2.35c.41-.04.79-.09 1.11-.15l.42-.08 1.5 2.59c-.41.01-.82 0-1.22-.01zm-2.18-.16L72.44 75c.57-.02 1.14-.05 1.68-.08l1.74 2.25-.47-.03c-.3-.02-.58-.05-.87-.09zm-6.21-1.89c.23-.02.52-.04.82-.05l1.25 1c-.94-.33-1.66-.68-2.07-.95z" fill="#000000" stroke-width="none" opacity="1"></path></g></g></g><g id="svga-group-eyebrows-right-move" transform="matrix(1,0,0,1,0,0)"><g id="svga-group-eyebrows-right-rotate" transform="matrix(1,0,0,1,0,0)"><g id="svga-group-eyebrows-right" transform="matrix(1,0,0,1,0,0)"><path id="SvgjsPath17986" d="M108.68 71.42c.19 1.6 1.13 4.23 2.63 4.89 1.5.66 8.46 1.69 13.35 1.32 4.89-.38 8.08-2.26 7.89-2.73-.19-.47-5.92-.19-8.46-.66s-11.09-1.97-13.25-2.91c-2.16-.94-2.16.09-2.16.09z" fill="#ffffff" stroke-width="none" opacity="1"></path><path id="SvgjsPath17987" d="M132.99 74.72c-.2-.5-.78-.55-3.97-.64-1.71-.05-3.66-.1-4.84-.32l-.91-.17c-3.09-.57-10.34-1.89-12.24-2.72-1.12-.49-1.9-.56-2.4-.24-.32.21-.44.55-.44.77v.06c.19 1.63 1.15 4.5 2.92 5.27 1.33.58 6.58 1.44 11.23 1.44.81 0 1.6-.03 2.34-.08 4.54-.35 7.72-1.97 8.23-2.78.18-.25.13-.48.08-.59zm-3.1.35-1.88 1.51c-.01 0 0 .01-.01.02-.45.11-.94.21-1.46.3l1.9-1.87c.18.01.37.01.55.01.3.02.6.02.9.03zm-9.39 2.11 1.18-2.89c.44.08.85.16 1.23.22l-1.57 2.7c-.28 0-.56-.01-.84-.03zm-6.03-4.33c.46.1.93.21 1.42.31l-.31 3.57c-.29-.04-.58-.08-.85-.13l-.26-3.75zm-.39 3.64c-.23-.04-.45-.08-.65-.12l-1.1-4.06c.45.12.96.25 1.5.38l.25 3.8zm2.44-3.2 1.02.21c-.21 1.31-.44 2.73-.54 3.41-.27-.03-.53-.06-.78-.09l.3-3.53zm1.65.33c.34.07.68.13 1.01.2l-.81 3.22c-.25-.02-.49-.04-.73-.07.09-.66.33-2.15.53-3.35zm1.64.32c.42.08.83.16 1.23.23l-1.21 2.98c-.27-.02-.54-.03-.81-.06l.79-3.15zm-8.21-1.83 1.12 4.11c-.22-.05-.41-.1-.58-.14a323.8 323.8 0 0 1-1.84-4.45c.11.04.22.08.34.14.25.11.58.22.96.34zm-2.44-.66c.03-.02.13-.05.37-.03.17.45.61 1.55 1.77 4.32-1.12-.68-1.94-2.83-2.14-4.29zm12.92 5.77 1.5-2.59.42.08c.33.06.7.11 1.11.15l-1.81 2.35c-.4.01-.81.02-1.22.01zm2.54-.07-.47.03 1.74-2.25c.54.04 1.11.06 1.68.08l-2.08 2.05c-.3.03-.58.06-.87.09zm5-1.04 1.25-1c.3.01.59.03.82.05-.41.27-1.13.62-2.07.95z" fill="#000000" stroke-width="none" opacity="1"></path></g></g></g><g id="svga-group-nose-single-move" transform="matrix(1,0,0,1,0,0)"><g id="svga-group-nose-single" transform="matrix(1,0,0,1,0,0)"><path id="SvgjsPath17969" d="M107.5 99.6c-.5-.4-.9.4-.5.8 1.2.9 1.9 2.6 1 4.1-.9 1.4-2.8 1.5-3.8.1.2-.2.4-.5.5-.8.3-.5-.5-1-.8-.5-2 3.3-6.6 3.5-8.9.4-.3-.5-1.1 0-.8.5.2.2.3.5.5.7-.1 0-.1.1-.1.1-1.2 1.6-3.5.7-3.9-1-.4-1.6.6-3 2-3.8.5-.3 0-1.1-.5-.8-2 1.2-3.3 3.7-1.9 5.9 1.2 1.9 3.8 2 5.1.2 2.4 2 5.8 1.9 8.1-.2 1.2 1.6 3.6 1.6 4.9 0 1.7-1.9.9-4.4-.9-5.7z" fill="#000000" stroke-width="none" opacity="1"></path><path id="SvgjsPath17970" d="M95.7 98.4c2-.8 4.1-1.1 6.2-.7.6.1.8-.8.2-.9-2.3-.4-4.5-.2-6.7.7-.4.2-.2 1.1.3.9z" fill="#000000" stroke-width="none" opacity="1"></path></g></g><g id="svga-group-hair-front" transform="matrix(1,0,0,1,0,0)"><path id="SvgjsPath18063" d="M63.6 85.3s.7-2.7 3.6-12.3c3.1-10.3 9.6-19.5 20.2-23.6s25.8-2.2 32.2 2.2 11.6 9.9 13.5 16.6c1.9 6.7 2.2 16.8 4.6 18.3 0 0 3.4-8.4 3.6-15.2.2-6.7 0-13.7-4.3-22.9-4.3-9.1-13.5-15.4-24.5-18.5s-25.5-.2-31.8 2.5c-6.3 2.6-12.8 9.1-16.8 18.8S61.2 74 61.4 75.9c.3 1.9 2.2 9.4 2.2 9.4z" fill="#000000" stroke-width="none" opacity="1"></path><path id="SvgjsPath18064" d="M94.5 45.5c-.8-4.7-.9-9.3-.4-14 .1-.8-1.2-.8-1.2 0-.5 4.8-.4 9.6.4 14.4.1.7 1.4.4 1.2-.4zm-7.9 2.6c-.7-5.4-.3-10.7 1.2-15.9.2-.8-1-1.1-1.2-.3-1.6 5.4-2 10.9-1.2 16.6.1.7 1.3.4 1.2-.4zm-3.7 1c-.6-5.6.4-11.6 2.8-16.7.3-.7-.7-1.4-1.1-.6-2.5 5.3-3.6 11.5-2.9 17.3.1.8 1.3.8 1.2 0zm-10.1 6.3c-.1-4.6.9-9.1 2.8-13.3.3-.7-.7-1.4-1.1-.6-2.1 4.4-3.1 9-3 13.9 0 .8 1.3.8 1.3 0zm-7.2 16C64 58.7 67.8 45.9 76.8 36.7c.6-.6-.3-1.5-.9-.9-9.2 9.4-13.2 22.6-11.6 35.6.1.8 1.3.8 1.3 0zm40.6-39.2c.3 4 .5 8 .8 12 .1.8 1.3.8 1.2 0-.3-4-.5-8-.8-12-.1-.7-1.3-.7-1.2 0zm3.9-.2c1.4 4.8 2.2 9.7 2.2 14.7 0 .8 1.3.8 1.2 0-.1-5.1-.9-10.1-2.3-15-.1-.8-1.3-.5-1.1.3zm12.3 19.8c.2-6-.7-11.8-2.6-17.4-.3-.8-1.5-.4-1.2.3 1.9 5.5 2.8 11.2 2.6 17.1-.1.7 1.1.7 1.2 0zm4.4 2.6c.4-5 .1-10-1-15-.2-.8-1.4-.5-1.2.3 1.1 4.8 1.3 9.7.9 14.6 0 .9 1.2.9 1.3.1zm8.1 11.4c.5-6.7-.6-13.2-3.3-19.4-.3-.7-1.4-.1-1.1.6 2.6 6 3.6 12.3 3.2 18.7-.1.9 1.2.9 1.2.1zm3.4 14c.7-6.5.7-13 0-19.5-.1-.8-1.3-.8-1.2 0 .7 6.5.7 13 0 19.5-.1.8 1.1.8 1.2 0zm-70-13.5c-.8-11 2.4-21.5 9.2-30.2.5-.6-.4-1.5-.9-.9-7 9-10.4 19.8-9.6 31.1.1.8 1.4.8 1.3 0zm11.2-14.7c.4-6.9 2.4-13.4 5.9-19.4.4-.7-.7-1.3-1.1-.6-3.6 6.2-5.6 12.9-6.1 20 0 .8 1.2.8 1.3 0zM122 35.4c4.8 7.2 7.5 15.2 8 23.8.1.8 1.3.8 1.2 0-.5-8.9-3.2-17.1-8.2-24.5-.4-.6-1.5 0-1 .7z" fill="#ffffff" stroke-width="none" opacity="1"></path></g><g id="svga-group-glasses-single-move" transform="matrix(1,0,0,1,0,0)"><g id="svga-group-glasses-single" transform="matrix(1,0,0,1,0,0)"></g></g></g></g></g><rect id="svga-credit-rect" width="200" height="15" x="0" y="185" fill="#ecf0f1" opacity="0.5" style="display: none;"></rect><text id="svga-credit-text" font-family="Avenir Next, Roboto, Helvetica, Arial, sans-serif" font-size="10px" text-anchor="start" font-weight="400" size="10px" anchor="start" weight="400" fill="#333333" x="33.402061462402344" y="182.71133995056152" style="display: none;"><tspan id="SvgjsTspan17396" dy="13" x="33.402061462402344">Created on AvatarMaker.com</tspan></text></g></svg>