<svg xmlns="http://www.w3.org/2000/svg" version="1.1" width="600px" height="600px" viewBox="0 0 200 200" style="overflow:hidden!important;"><defs id="SvgjsDefs39107"></defs><g id="svga-group-wrapper"><g id="svga-group-backs-single"></g><g id="svga-group-humanwrap-move" transform="matrix(1,0,0,1,0,0)"><g id="svga-group-humanwrap" transform="matrix(1,0,0,1,0,0)"><g id="svga-group-hair-back-move" transform="matrix(1,0,0,1,0,0)"><g id="svga-group-hair-back" transform="matrix(1,0,0,1,0,0)"><path id="SvgjsPath39767" d="M72.3 30.8s1.2-8.7 7.5-10.9 13.4 3.1 20 4.1 15.6-5.6 24.3-2.8 9.4 14.7 12.8 17.2c3.4 2.5 10 3.4 16.9 6.2 6.9 2.8 4.1 12.8 5 22.2.9 9.4 3.7 13.1 11.2 16.8 7.5 3.7 1.6 14.4-1.2 19.7-2.8 5.3.3 5.6 5.6 10.6s.9 16.2-5.9 18.7c-6.9 2.5-9.4 7.8-7.2 13.7 2.2 5.9 1.9 18.1-5.9 20.3-7.8 2.2-13.9-3.6-18.6 2.7-4.7 6.2-8.9 9.1-13.9 7.6-5-1.6-11.2-10.2-14-7.1-2.8 3.1-24.7 15.3-30.3 10.6s-7.8-14.7-14-11.9-9.7 4.4-13.7-1.6-4.6-8.9-10.6-8.2-10.6-6.4-10-13.6c.6-7.2 4.6-7.8-.7-15.3-5.3-7.5-1.6-16.2 3.4-21.2s3.1-14.7-1.6-19-6.9-11.9-2.2-17.2c4.7-5.3 9.7-5.9 9.7-10.6s-3.1-8.7 1.9-15.9 17.2-5.3 20.9-6.2c3.7-1.1 10.6-8.9 10.6-8.9z" fill="#ffffff" stroke-width="none" opacity="1"></path><path id="SvgjsPath39768" d="M175 113c-1.2-1.2-2.3-2.1-3.3-2.8-3.2-2.6-3.9-3.2-2.1-6.6l.3-.5c2.2-4.2 6-11.2 4.4-16.2-.6-1.9-1.9-3.3-3.8-4.3-7.4-3.7-9.8-7.3-10.7-16.1-.3-2.6-.2-5.2-.2-7.7.1-6.7.1-13-5.4-15.2-2.9-1.2-5.8-2-8.3-2.8-3.5-1-6.5-2-8.4-3.3-1-.7-1.9-2.8-2.8-5-1.9-4.6-4.3-10.3-10.3-12.2-5.3-1.7-10.8-.1-15.5 1.2-3.3 1-6.4 1.9-9 1.5-2.3-.3-4.7-1.2-7.2-2.2-4.4-1.6-9-3.4-13.3-1.9-6.1 2.1-7.8 9.8-8.1 11.4-2 2.3-7.2 7.5-9.9 8.2-.8.2-2.3.3-4 .3-5.4.2-13.5.5-17.5 6.3-3.9 5.6-3.2 9.5-2.5 12.9.2 1.2.5 2.4.5 3.6 0 2.2-1.3 3.3-4 5.2-1.6 1.2-3.6 2.6-5.5 4.7-5.2 5.9-2.7 13.9 2.2 18.6 2.5 2.3 4.1 6.3 4.2 10.2 0 3-.9 5.7-2.7 7.4-5.7 5.7-9 14.8-3.5 22.5 3.3 4.6 2.8 6.2 1.8 9-.5 1.4-1.1 3.2-1.3 5.6-.4 4.6 1.2 9.2 4.1 12.1 2 2 4.5 2.9 7 2.6 4.3-.4 5.3 1 7.8 5 .5.8 1.1 1.8 1.8 2.8 4.5 6.6 8.7 4.8 15 1.9 3.1-1.4 4.9 1 7.8 5.3 1.5 2.3 3.1 4.7 5.2 6.4 1.1.9 2.6 1.3 4.3 1.3 8.7 0 24.2-9 27.1-11.7 2.5 1.4 4.9 2.6 6.3 2.9l1.2.9c-1.1.1-2.2 0-3.3-.3-.8-.2-1.1 1-.3 1.2 1.5.4 3.4.5 5.1.1 1.4 1.1 2.8 2 4.2 2.4 6.5 2 11.5-3.2 15-7.9 2.4-3.2 5.1-2.8 8.9-2.2 2.7.4 5.8.9 9.2-.1 2.6-.7 4.6-2.4 6-5.1 2.5-4.9 2.2-12.2.6-16.5-.9-2.6-.9-5 0-7.1 1.1-2.3 3.4-4.2 6.6-5.3 4.1-1.5 7.6-6 8.7-11 .8-3.8-.1-7.3-2.4-9.5zm-57.3 28.9c.6-4.4-.2-8.2-1.1-11 3.5 3.5 7.2 6.9 3.9 12.1-1.5 2.4-4.3 4.6-6.1 7.1 1.4-2 2.8-4.5 3.3-8.2zm-5.1 15.4c.8 2.7 3.1 4.5 5.2 6.2 1.4 1.2 4.2 3.1 4.4 5 .3 2.6-1 4.3-2.8 5.1l-1.2-.9c1.5-.8 2.2-2.2.4-5.2-2.5-4.1-4.7-4.1-6.8-9.5-1-2.8.2-4.6 1.9-6.9-1.1 1.9-1.7 3.8-1.1 6.2zm23.3 11.3c-.6.8-1.1 1.4-1.7 2.1.8-3.3-.3-7-.3-10.7 0-8.1 8-8.4 10.1-15 2.3-7.1-7.3-11.8-.9-18.6.4 3.2.6 6.3 2.5 8.5 4 4.7 2.6 15.1-1.2 17.7s-6.1 5-5 7.6c.8 1.7.1 4.2-.4 5.6-1.1.6-2.1 1.5-3.1 2.8zm21.9-64.2c1.7 4.7 7.2 7.7 7.9 12.8.9 6.7-7.4 8.5-10.9 12.6-3.3 3.7-2.8 8.4-1.4 12.8 1.3 4.2 3.5 8.3 2.6 12.8-1 5.1-5.4 9.6-10.5 10.1-1-.1-1.9-.2-2.8-.2 2.8-1.6 6.3-4 7.5-7 2.1-5.4 3.8-11.4 1.4-18s1.2-11.8 4-18.4c2.8-6.6.9-10.4 1.7-16.1.1-.8.2-1.5.3-2.2 0 .2.1.5.2.8zm17.6 17.7c-.9 4.3-3.9 8.2-7.4 9.5-3.7 1.4-6.4 3.6-7.7 6.4-1.2 2.6-1.2 5.6-.1 8.6 1.4 3.9 1.6 10.6-.5 14.9-1.1 2.2-2.7 3.5-4.7 4.1-2.2.6-4.3.6-6.3.3 3.3-1.3 6-3.9 7.5-7.3 3.6-8-3-14.4-2.7-22.3.3-8.7 10.6-8.6 13.2-15.7 1.7-4.7-1.9-8.5-4.6-11.9-3.6-4.5-3.9-8.2-2-13.6.9-2.7 1.6-5.2.8-7.9 0-1.5-.3-3-1.1-4.6-.9-1.9-4.3-6.2-7.5-10.1-.6-2.2-.7-4.5-.6-7.2.3-6.6-.1-12.4-5.7-16.8-6-4.8-14-4.9-21.3-5-.8 0-.8 1.2 0 1.2 7.8.1 17 .3 22.6 6.6 4.9 5.5 2.6 12.3 3.1 18.8-2.5-3-4.5-5.3-4.5-5.3l-8.8-3.3-3.6 2.1c4.3 4.7 1.2 26.7-.9 34.8-2.1 8 .5 12.3 6.4 17.5 2.7 2.4 3.5 5.6 3.9 8.8-1.1 1-2.1 2-2.8 3.3-2.5 5 1.9 8.4 2.8 13.1 1.3 6.8-6.9 8.5-9.4 13.6-2.9 6.1 2.8 13.8-2.6 19l-.1.1c-2.6 2-5 2.6-7.6 1.9 1.4-.2 2.7-.8 3.9-1.9 2-1.8 3.3-4.6 3.1-7.4-.1-2.3-1.3-4.1-2.5-5.9-.9-2-1.8-3.4-2.3-4.5 0-.1-.1-.2-.1-.4-1.4-7.4 11.1-7.6 11.7-15 .3-3.3-1.9-6.1-3.8-8.6-4.6-6.2-6.1-13.4-.8-19.9.5-.6-.4-1.5-.9-.9-1.6 1.9-2.7 4.1-3.4 6.4 0-.7-.1-1.3-.1-2.1-.7-16.2-8.1-13.1-11.5-1.6-2.8 9.7 7 14.6 9.7 20.9s-2.9 9.5-5 13.7-3.8 6.8 0 10.4c3.7 3.5 8.6 8 3 14.7-1.2.4-2.4.6-3.7.4 2.1-1.2 3.4-3.2 2.6-6.2-.8-2.8-3.5-4.5-5.6-6.3-5.1-4.3-4.8-8.4-.6-13.2 3.7-4.2 8.3-8.7 4.4-14.4-3.2-4.8-8.2-7-9.7-13.1-1.9-7.7 1.7-15.2 8.4-19.1.7-.4.1-1.5-.6-1.1-6.2 3.7-10.2 10.3-9.5 17.7.3 2.6 1.1 5.1 2.3 7.3l-13-2.6-14.4 6.3c-1.3 7.7-4.7 6.8-2.5 11.7s17.3 23.4 17.3 23.4 3.6 2.4 7.4 4.6c-3.6 3.2-17 10.3-24.4 10.8-4.8-2.8-1.2-11.6-4.3-16-2.1-3.1-5.7-4.8-9.2-5.8-6.3-1.8-13.5-.7-19.1-4.6-4.8-3.4-5.4-7.9-2.8-12.9 1-1.9 2.1-3.2 2.3-5.4.1-.7.1-1.4 0-2.2.2-1.1 0-1.9-.5-2.7-.7-2.2-1.8-4.3-2.8-6.4 0-4.2.9-11 2.2-17.1 1.6-.9 3.3-1.6 4.9-2.6 7.9-4.8 7.5-14.2 6.5-22.3-.1-.8-1.3-.8-1.2 0 .8 6.2 1.6 14-3 18.9-1.9 2-4.5 3.1-6.9 4.3 1.1-5.1 2.4-9.5 3.3-10.8l.8-8.6S43.2 91 42.3 98.2c-.8 7.1-9.8 12.2-11.7 17.6-1.9 5.4 3.3 8.8 5.5 13.2 2.1 4.4-1 7.5-2.3 14.7-1.3 7.1 6.1 7.5 10.3 9.2 4.2 1.7 7.8 12.6 12.8 11.9 5-.6 11.5-1.9 15.9 2.1 2.8 2.5 4.8 5.8 5.9 7.9.1 1.8.6 3.5 1.8 4.8-.8-.1-1.4-.4-1.9-.8-1.9-1.6-3.4-3.8-4.8-6-2.2-3.2-4.4-6.6-7.7-6.6-.8 0-1.6.2-2.5.6-6.3 2.8-8.9 4-12.5-1.2-.7-1-1.3-1.9-1.8-2.7-2.6-4.1-4.2-6.5-9.7-5.9-2.4.2-4.2-1-5.4-2.1-2.5-2.4-3.9-6.5-3.5-10.4.2-2.2.7-3.8 1.2-5.1 1-3 1.8-5.3-2-10.8-4.8-6.7-1.8-14.8 3.3-19.9 2.2-2.2 3.3-5.3 3.2-8.9-.1-4.4-2-8.9-4.8-11.6-4.3-4-6.5-10.9-2.1-15.8 1.8-2 3.5-3.3 5.1-4.4 2.6-1.9 4.8-3.5 4.8-6.8a16 16 0 0 0-.5-3.9c-.6-3.4-1.2-6.5 2.2-11.4 3.5-5 11-5.3 16-5.5 1.9-.1 3.3-.1 4.4-.4 3.9-1 10.4-8.2 11.1-9l.2-.2v-.3c0-.1 1.2-8.2 6.8-10.1 3.6-1.3 7.6.2 11.9 1.8 2.5.9 5.1 1.9 7.6 2.3 3 .4 6.3-.5 9.8-1.6 4.7-1.4 9.6-2.8 14.3-1.3 5.1 1.6 7.3 6.9 9.1 11.1 1.1 2.6 2 4.8 3.5 5.9 2.1 1.6 5.3 2.5 9 3.6 2.5.8 5.3 1.6 8.1 2.8 4.3 1.8 4.2 6.9 4.2 13.4 0 2.6-.1 5.3.2 8 .9 9.5 3.7 13.6 11.8 17.7 1.4.7 2.4 1.7 2.8 3.1 1.4 4.2-2.1 10.8-4.2 14.7l-.3.5c-2.6 4.8-.6 6.4 2.6 9.1.9.8 2 1.6 3.2 2.8 2.9 2.5 2.6 5.9 2.2 7.8zM73.1 94.6l-2.4.7c-.9-5.2-3.1-10.5-5.3-15.1-.3-.7-1.4-.1-1.1.6 2.2 4.7 4.4 9.6 5.2 14.8l-5.9 1.7s-8.3 10.4-8.3 16.9c0 4.5 1.3 5.8 5 7.8.2.5.3.9.6 1.4 2.2 4 8.9 5.2 10.4 9.4 1 2.8-.3 6.1-2.4 7.7-.5.4-1 .7-1.5 1.1-.9.7-1.8 1.5-2.3 2.6-1 2.4 0 4.8 1.8 6.4 1.7 1.5 3.8 2.1 5.8 2.9 3.4 1.4 6.2 3.3 8.2 6.5 3.3 5.1 3.8 11.4 1.3 16.9-.3.7.7 1.4 1.1.6 3.3-7.1 1.8-15.7-3.8-21.2-1.4-1.4-3-2.5-4.8-3.3-1.1-.5-2.2-.8-3.3-1.2-1-.4-1.9-.9-2.9-1.4-2.8-3.9-2.7-6.8.4-8.4 2.4-1.8 4.9-3.5 4.5-6.9-.4-3.6-3.9-5.9-6.6-7.8-1.8-1.3-3.5-2.6-4.5-4.2 1.3.7 2.8 1.4 4.6 2.4 9 5 9.9 7.7 8.6 12.2s-4.1 4.7-.4 7.7c2.5 2 7.2 4.4 9.7 8.8.2.7.3 1.4.6 2.1.2.9.6 1.9 1 2.7.1.7.1 1.4.1 2.1 0 0 .3-.3.7-.9 1.2 1.8 3 3 5.4 2.9.8 0 .8-1.3 0-1.2-1.6-.9-3.2-1.9-4.8-2.9v-.1c.6-1.6.8-4.1-1.6-6.9-.2-.3-.4-.5-.7-.8-.4-1.3-.9-2.5-1.8-3.7-1-1.3-2.8-2-3.7-3.3-1.5-2.1-1.7-3.6-1.2-5.1 1.4-2.1 4.6-2.7 4.8-7.8.2-6.1-1.8-19.8-1.8-19.8l-8.7-16.9z" fill="#000000" stroke-width="none" opacity="1"></path></g></g><g id="svga-group-humanbody-back"><path id="SvgjsPath39365" d="M86.5 122c0 18.8 2.7 50.3-8.1 58s-31.8 13.9-36.7 24.4-3.6 14.4-3.6 14.4h124.1s.6-8.1-4.2-15.4c-6.6-10.1-28.5-17.7-36.5-22.9-8.1-5.2-10.9-32.2-10.9-58.8l-24.1.3z" fill="#ffffff" stroke-width="none" opacity="1"></path></g><g id="svga-group-chinshadow-single"></g><g id="svga-group-humanbody-front"><path id="SvgjsPath39366" d="M163.4 220.1H37.2l-.3-.9c-.1-.5-1.3-4.7 3.6-15.3 3.4-7.3 13.6-12.4 23.5-17.4 5.1-2.5 9.9-5 13.6-7.5 8.6-6 8.1-29.8 7.7-47.1-.1-3.5-.1-6.8-.1-9.8v-1.3l26.7-.4v1.3c0 32 3.8 53.5 10.3 57.7 2.4 1.6 6 3.3 10.2 5.4 9.7 4.7 21.9 10.6 26.7 18 5 7.6 4.4 15.9 4.4 16.2l-.1 1.1zm-124.1-2.6h121.6c-.1-2.4-.6-8.2-4-13.4-4.4-6.7-16.2-12.5-25.6-17-4.3-2.1-8-3.9-10.5-5.5-9.8-6.3-11.4-38.8-11.5-58.6l-21.5.4c0 2.6.1 5.5.1 8.5.4 18.9.9 42.4-8.8 49.3-3.8 2.7-8.7 5.1-13.9 7.7-9.5 4.8-19.4 9.7-22.3 16.1-3.3 6.9-3.7 10.9-3.6 12.5z" fill="#000000" stroke-width="none" opacity="1"></path><path id="SvgjsPath39367" d="M76.8 188.7c4.8 2.3 10.4 3.9 15.7 2.9.4-.1.4-.7 0-.8-5.1-.9-10.2-1.4-15.2-3.2-.6-.2-1.1.8-.5 1.1z" fill="#000000" stroke-width="none" opacity="1"></path><path id="SvgjsPath39368" d="M108.3 191.1c2.4.3 4.9-.4 7.1-1.2 2.1-.8 4.3-1.7 5.8-3.4.5-.5-.1-1.2-.7-.9-2.1.9-3.9 2.3-6.1 3-2 .7-4.1 1-6.2 1.5-.6.1-.4.9.1 1z" fill="#000000" stroke-width="none" opacity="1"></path></g><g id="svga-group-clothes-single"><path id="SvgjsPath39708" d="M59.18 219.21s6.83-12.86 12.06-18.68c.65-.73 23.1 10.99 27.59 14.07 0 0 19.47-11.46 25.39-14.78 0 0 8.42 10.49 14.53 19.39H59.18z" fill="#ffffff" stroke-width="none" opacity="1"></path><path id="SvgjsPath39709" d="M139.57 218.64c-5.4-7.88-12.69-17.09-14.26-19.06l4.01-15.95a.995.995 0 0 0-.73-1.21.987.987 0 0 0-1.21.73l-4.02 16.02c-5.66 3.19-21.38 12.43-24.49 14.26-2.88-1.85-9.53-5.45-14.81-8.17-7.37-3.8-10.56-5.22-12.05-5.61l-4.42-13.93a.999.999 0 0 0-1.26-.65c-.53.17-.82.73-.65 1.25l4.44 13.99c-5.19 6-11.55 17.93-11.82 18.45-.16.31-.15.68.03.98.18.3.51.48.86.48h79.57c.37 0 .71-.21.88-.53.17-.34.14-.74-.07-1.05zm-78.71-.43c1.89-3.43 6.79-12.02 10.79-16.64 3.27 1.01 22.21 10.83 26.62 13.84.32.22.74.23 1.07.04.19-.11 18.06-10.63 24.63-14.35 1.81 2.27 7.89 10 12.87 17.1H60.86z" fill="#000000" stroke-width="none" opacity="1"></path></g><g id="svga-group-head" transform="matrix(1,0,0,1,0,0)"><g id="svga-group-ears-left-move" transform="matrix(1,0,0,1,0,0)"><g id="svga-group-ears-left" transform="matrix(1,0,0,1,0,0)"><path id="SvgjsPath39590" d="M66.8 82.4s-3.6-5.4-5.6-7.8-4.7-5-6.3-1.1c-1.6 3.9-2.5 11.6-1.6 16.9s6.8 11 9.6 11.2c2.8.2 5.7-7.6 5.9-10.3.3-2.8-.6-6.9-2-8.9z" fill="#ffffff" stroke-width="none" opacity="1"></path><path id="SvgjsPath39591" d="M52.2 90.4c-1-5.5.1-13.3 1.6-17.2.2-.6 1-2.4 2.9-2.6 2.1-.2 3.9 1.6 5.5 3.5 2.1 2.4 5.5 7.7 5.7 7.9 1.4 2.1 2.4 6.4 2.1 9.3-.2 2.4-2.4 8.8-5.2 10.6-.6.4-1.3.6-2 .5-3.6-.3-9.7-6.4-10.6-12zm8-15.4c-2.3-2.7-3.1-2.7-3.2-2.7-.1 0-.5.3-1 1.4-1.5 3.7-2.5 11.3-1.6 16.5.9 5.3 6.7 10.3 8.5 10.5 1.4-.2 4.4-6.1 4.7-9.5.2-2.6-.7-6.6-1.9-8.5 0 0-3.5-5.4-5.5-7.7z" fill="#000000" stroke-width="none" opacity="1"></path><path id="SvgjsPath39592" d="M57.9 78c2 1.3 3.6 3.5 4.3 6 0 .2-.2.2-.2.1 0 0 0-.1-.1-.1-.6-.5-1.2-1.1-1.9-1.1-1.1 0-1.1 1.4-.8 2.5.4 1.5 1.1 2.9 1.9 4.2.1.2-.1.3-.2.2-1.2-1.5-3-4.6-2.4-6.6.5-1.7 2-.9 3.1.1-.6-1.3-1.4-2.5-2.4-3.5-1.3-1.3-4.1-3.4-4.9-.9 0 .1-.2.1-.2-.1.1-2.5 2.6-1.7 3.8-.8z" fill="#000000" stroke-width="none" opacity="1"></path><path id="SvgjsPath39593" d="M61.7 92.6c1 2.5-1.2 3-2.5 1.9-2.1-1.7-3.5-5.5-3.5-8.4 0-.2.2-.2.2 0 .2 1.7.5 3.3 1.2 4.8.4.9 1 1.9 1.6 2.7.4.5.9.9 1.5 1.1 1.2 0 1.6-.7 1.3-2 0-.1.1-.2.2-.1z" fill="#000000" stroke-width="none" opacity="1"></path></g></g><g id="svga-group-ears-right-move" transform="matrix(1,0,0,1,0,0)"><g id="svga-group-ears-right" transform="matrix(1,0,0,1,0,0)"><path id="SvgjsPath39594" d="M133.2 82.4s3.6-5.4 5.6-7.8 4.7-5 6.3-1.1c1.6 3.9 2.5 11.6 1.6 16.9-.9 5.3-6.8 11-9.6 11.2-2.8.2-5.7-7.6-5.9-10.3-.3-2.8.6-6.9 2-8.9z" fill="#ffffff" stroke-width="none" opacity="1"></path><path id="SvgjsPath39595" d="M137.2 102.4c-.7 0-1.4-.1-2-.5-2.8-1.7-5-8.2-5.2-10.6-.3-2.9.7-7.1 2.1-9.3.1-.2 3.6-5.5 5.7-7.9 1.6-1.9 3.4-3.7 5.5-3.5 2 .2 2.7 2 2.9 2.6 1.6 3.9 2.6 11.8 1.6 17.2-.9 5.6-7 11.7-10.6 12zm-3-19.7c-1.2 1.9-2.1 5.8-1.9 8.5.3 3.4 3.2 9.4 4.7 9.5 1.9-.1 7.6-5.2 8.5-10.5.9-5.3-.1-12.8-1.6-16.5-.4-1.1-.9-1.4-1-1.4-.1 0-.9 0-3.2 2.7-1.9 2.3-5.4 7.7-5.5 7.7z" fill="#000000" stroke-width="none" opacity="1"></path><path id="SvgjsPath39596" d="M142.1 78c-2 1.3-3.6 3.5-4.3 6 0 .2.2.2.2.1 0 0 0-.1.1-.1.6-.5 1.2-1.1 1.9-1.1 1.1 0 1.1 1.4.8 2.5-.4 1.5-1.1 2.9-1.9 4.2-.1.2.1.3.2.2 1.2-1.5 3-4.6 2.4-6.6-.5-1.7-2-.9-3.1.1.6-1.3 1.4-2.5 2.4-3.5 1.3-1.3 4.1-3.4 4.9-.9 0 .1.2.1.2-.1-.1-2.5-2.6-1.7-3.8-.8z" fill="#000000" stroke-width="none" opacity="1"></path><path id="SvgjsPath39597" d="M138.3 92.6c-1 2.5 1.2 3 2.5 1.9 2.1-1.7 3.5-5.5 3.5-8.4 0-.2-.2-.2-.2 0-.2 1.7-.5 3.3-1.2 4.8-.4.9-1 1.9-1.6 2.7-.4.5-.9.9-1.5 1.1-1.2 0-1.6-.7-1.3-2 0-.1-.1-.2-.2-.1z" fill="#000000" stroke-width="none" opacity="1"></path></g></g><g id="svga-group-faceshape-wrap" transform="matrix(1,0,0,1,0,0)"><g id="svga-group-faceshape-single"><path id="SvgjsPath39577" d="M143.9 93.1s-3.1-6.2-4.5-18.8c0 0 .2-8.5-1.2-16.1-2-10.8-13.3-27.4-37.2-27.4-23.9 0-31.9 12.7-35.5 22.2-3 8.1-3 21.3-3 21.3s.4 15.1-2.4 20.5c-3.8 7.2-9.3 31.9 5.3 38.6 14.7 6.7 24.8 1.2 24.8 1.2s9.8 7.6 17.7.6c0 0 17.5 6 26.2.9s20.2-17.4 9.8-43z" fill="#ffffff" stroke-width="none" opacity="1"></path><path id="SvgjsPath39578" d="M124.8 139.5c-7 0-14.2-2.1-16.5-2.8-7.2 5.8-15.7 1-18.1-.6-2.7 1.2-12.2 4.4-25.2-1.5-4.2-1.9-7.2-5.3-8.8-10.2-3.6-10.5.1-24.8 2.9-30.2 2.2-4.1 2.3-15.7 2.2-19.8 0-.6 0-13.6 3.1-21.8 5.8-15.5 17.8-23 36.7-23 10.9 0 20.5 3.4 27.7 10 5.5 5 9.6 11.9 10.8 18.5 1.4 7.4 1.2 15.3 1.2 16.3 1.4 12.1 4.3 18.2 4.3 18.3v.1c11.6 28.4-3.2 40.7-10.2 44.6-2.8 1.5-6.5 2.1-10.1 2.1zm-34.4-6.4.7.5c.4.3 9.1 6.9 16.1.7l.6-.5.7.2c.2.1 17 5.7 25.2 1 6.3-3.6 19.9-14.9 9.1-41.4-.3-.6-3.2-6.9-4.6-19.2v-.2c0-.1.2-8.4-1.2-15.9-1.1-6-4.8-12.4-10-17-6.7-6.1-15.7-9.3-26-9.3-17.7 0-28.9 7-34.3 21.3-2.9 7.8-2.9 20.8-2.9 20.9 0 .6.4 15.5-2.5 21.1-2.5 4.8-6 18.5-2.7 28.1 1.4 4.1 3.9 7 7.5 8.7 13.8 6.3 23.6 1.3 23.6 1.3l.7-.3z" fill="#000000" stroke-width="none" opacity="1"></path></g></g><g id="svga-group-mouth-single-move" transform="matrix(1,0,0,1,0,0)"><g id="svga-group-mouth-single" transform="matrix(1,0,0,1,0,0)"><path id="SvgjsPath39666" d="M111.66 121.52c-.08.1-.16.18-.25.26-.64-1.77-1.43-3.67-3.08-4.7-2.15-1.33-4.67-.5-6.96-.16-2.09.31-3.67-.36-5.68-.59-.93-.11-1.82.01-2.7.37-2.32.95-3.7 3.14-4.92 5.21-.07-.04-.14-.08-.2-.13-.42-.34-1.03.26-.6.6.59.47 1.25.71 1.94.79.01.01 0 .03.02.04 3.11 2.87 7.3 3.7 11.43 3.43 2.32-.16 4.68-.55 6.93-1.14 1.37-.36 2.56-1 3.01-2.35.69-.19 1.31-.57 1.79-1.2.34-.43-.4-.86-.73-.43zm-18.05-4.58c2.21-.66 4.3.67 6.53.56 2.35-.11 4.78-1.27 7.11-.46 2.17.76 3.1 3.02 3.81 5.02-1.69 1.09-4.58-.11-6.25-1.12.24-.12.49-.25.72-.39.47-.27.05-1.01-.43-.74-3.6 2.08-7.94 2.19-11.63.28-.49-.25-.92.48-.43.74.29.15.58.28.87.41-1.63.72-3.88 1.55-5.46.87 1.24-2.08 2.69-4.44 5.16-5.17zm11.86 8.59c-2.02.4-4.06.72-6.12.74-3.43.04-6.82-.82-9.46-3.06 1.76-.02 3.66-.87 5.14-1.55 2.9.94 6.01.84 8.84-.3l.01.01c1.55 1.05 4.11 2.2 6.2 1.89-.76 1.65-2.96 1.94-4.61 2.27z" fill="#000000" stroke-width="none" opacity="1"></path></g></g><g id="svga-group-eyes-left-move" transform="matrix(1,0,0,1,0,0)"><g id="svga-group-eyes-left" transform="matrix(1,0,0,1,0,0)"><g id="svga-group-eyesback-left"></g><g id="svga-group-eyesiriswrapper-left"><g id="svga-group-eyesiriscontrol-left" transform="matrix(1,0,0,1,0,0)"><g id="svga-group-eyesiris-left" transform="matrix(1,0,0,1,0,0)"><path id="SvgjsPath39628" d="M84.8 84.7c-1-1.9-3.2-2.7-5.2-2-2.2.8-3.8 3-3.1 5.4.4 1.2 1.5 2.4 2.8 2.7.4.1.9.1 1.4.1.5.1 1.1 0 1.7-.2 2.4-.9 3.6-3.7 2.4-6z" fill="#ffffff" stroke-width="none" opacity="1"></path><path id="SvgjsPath39629" d="M81.1 91.2h-.4c-.5 0-1 0-1.5-.1-1.3-.3-2.5-1.4-3-2.9-.9-2.6 1-4.9 3.2-5.7 2.2-.8 4.6.1 5.6 2.1.6 1.2.7 2.6.2 3.8-.5 1.2-1.5 2.2-2.7 2.6-.4.1-.9.2-1.4.2zm-.3-.6c.5.1 1.1 0 1.6-.2 1.1-.4 1.9-1.2 2.4-2.3.4-1.1.4-2.3-.2-3.3-.9-1.7-3-2.5-4.9-1.8-2 .7-3.6 2.8-2.9 5 .4 1.2 1.5 2.3 2.6 2.5.4.1.9.1 1.4.1zm2.4-4.8c0-.1 0-.1-.1-.1-.6-1.1-2-1.5-3.1-1 .2.2.4.5.6.7.2.3.5 1 .1 1.2-.4.2-1 0-1.3-.2-.2-.1-.3-.3-.5-.5 0 .1-.1.1-.1.2-.1.2-.1.4-.1.6-.2.7 0 1.4.5 1.9.2.2.5.3.8.4.6.3 1.2.4 1.8.1-.1-.1-.2-.2-.2-.4 0-.3.2-.6.5-.7.3-.1.6 0 .7.2.3-.3.5-.7.6-1.1.1-.4 0-.9-.2-1.3zm-4.8 1.1c-.4-.1-.9-.1-1.3-.2-.1 0-.1.1 0 .1.4.1.9.3 1.3.2.1 0 .1-.1 0-.1zm-.1.8c-.2 0-.4.1-.6.1-.2 0-.5.1-.7.1-.1 0-.1.1 0 .1.4 0 1 0 1.3-.3.1.1.1 0 0 0zm.4.8c-.2.1-.3.2-.5.3-.2.1-.4.2-.5.3-.1 0 0 .2.1.1.3 0 .7-.3.9-.7.1.1.1 0 0 0zm.9.7c-.3.3-.4.6-.6.9-.1.1.1.2.1.1.2-.3.5-.6.6-1h-.1zm.8.4c-.1.3-.1.7-.2 1.1 0 .1.1.1.1 0 0-.4.1-.7.1-1.1.1-.1 0-.1 0 0zm1.4.4c-.1-.1-.1-.3-.2-.4 0 0-.1 0-.1.1 0 .2.1.3.2.4.1.2.1.3.2.5 0 .1.1 0 .1 0-.1-.2-.1-.4-.2-.6zm1.3-.2-.3-.3-.3-.3c0-.1-.1 0-.1.1.1.1.2.2.3.4.1 0 .2.2.4.1 0 .1 0 .1 0 0zm.9-.7c-.1-.1-.3-.2-.5-.3-.2-.1-.3-.2-.5-.3-.1 0-.2.1-.1.1.2.1.3.2.5.3.2.1.3.2.5.2.1.1.2.1.1 0zm.5-1.3c-.1-.1-.3-.1-.4-.1-.2 0-.3-.1-.5-.1-.1 0-.1.1-.1.1.3.1.7.3 1 .2.1.1.1 0 0-.1zm.2-1.7c-.3.1-.8.3-1 .5-.1.1 0 .1.1.1.2-.1.3-.2.5-.2.2-.1.3-.1.5-.2.1-.1 0-.2-.1-.2zm-.8-2-.1-.1s-.1 0-.1.1c0 0-.4.4-.4.5-.1.2-.2.3-.4.5-.1.1.1.1.1.1l.9-.9c.1-.1.1-.1 0-.2zm-1.9-.8c-.1.1-.1.3-.2.5s-.1.4-.2.6c0 .1.1.1.1 0 .1-.2.2-.3.2-.5.1-.2.2-.4.1-.5.2-.1.1-.1 0-.1zm-1.3.8c-.1-.2-.1-.3-.2-.5 0-.2-.1-.3-.1-.4 0-.1-.1 0-.1 0 0 .3.2.7.3 1 0 .1.2 0 .1-.1zm-1.2 0c-.1-.2-.2-.3-.3-.5 0-.1-.1 0-.1 0 .1.2.1.3.2.5.1.1.2.3.3.4.1 0 .1 0 .1-.1 0 0-.1-.2-.2-.3zm-.6.9-.3-.3c-.1-.1-.2-.2-.4-.3-.1-.1-.2 0-.1.1l.3.3c.2.1.3.3.5.2 0 .2 0 .1 0 0zm-.8.8-.9-.3c-.1 0-.1.1 0 .1.3.1.6.3.9.3 0 0 .1-.1 0-.1z" fill="#000000" stroke-width="none" opacity="1"></path></g></g></g><g id="svga-group-eyesfront-left"><path id="SvgjsPath39724" d="M81 74.4c-6.9 0-12.5 5.6-12.5 12.5S74.1 99.4 81 99.4s12.5-5.6 12.5-12.5S87.9 74.4 81 74.4zm5.6 17.4c-1.6 1.4-4 2.8-7.3 2.7-3.2-.2-6.3-4-6.7-6 0 0 2.1-2.8 3.4-3.7 1.3-.9 2.5-2.9 5.2-2.8 2.7 0 5.3.5 7.1 4.1 0-.2-.1 4.3-1.7 5.7z" fill="#ffffff" stroke-width="none" opacity="1"></path><path id="SvgjsPath39725" d="m69 85.6 1.9.8c-.8 1.4-1.5 2.8-1.2 3.4.1.2.3.3.5.3.5 0 1.1-.4 2.1-1.3.2.7.5 1.4.9 2.1L71 92.1c-.2.1-.3.4-.2.6.1.1.2.2.4.2.1 0 .2 0 .2-.1l2.3-1.3c.3.4.6.8 1 1.1l-1.6 1.6c-.2.2-.2.5 0 .6.1.1.2.1.3.1.1 0 .2 0 .3-.1l1.7-1.6 1.5.9c.2.1.4.2.7.2l-.6 1.5c-.1.2 0 .5.2.6h.2c.2 0 .3-.1.4-.3l.6-1.5c.7.2 1.3.2 2 .2.3 0 .7 0 1-.1v1.5c0 .2.2.5.5.5.2 0 .5-.2.5-.5v-1.7c.9-.2 1.7-.5 2.4-.9 3.1-1.7 3.8-4.6 3.9-6.4.2.4.3.7.4.9.2.5.3.7.7.7.2 0 .4-.2.4-.3.6-2 .5-3.8-.5-5.5-.7-1-1.8-2.2-3.4-3l.7-1.1c.1-.2.1-.5-.1-.6s-.5-.1-.6.1l-.8 1.2c-.8-.4-1.8-.8-2.8-1-.9-.2-1.8-.3-2.6-.2l-.1-.8c0-.2-.3-.4-.5-.4s-.4.3-.4.5l.1.8c-1.3.3-2.5.9-3.4 1.6l-.7-1.2c-.1-.2-.4-.3-.6-.1-.2.1-.3.4-.1.6l.8 1.2c-.9.8-1.6 1.6-1.9 2.1l-.7-.7c-.2-.2-.5-.2-.6 0-.2.2-.2.5 0 .6l.8.8c-.4.5-.8 1.3-1.3 2.1l-2-.8c-.2-.1-.5 0-.6.3-.2.2-.1.5.1.6zm4.4-1.5 1.2 1.3-1 1-1.3-.5c.3-.7.7-1.3 1.1-1.8zm2.3-2.7 1.1 1.8-.1.1-1.1 1.1-.3.3-1.3-1.4c0-.1.1-.1.1-.2.2-.3.8-1 1.6-1.7zm3.7-2.1.3 2.1c-.8.2-1.6.6-2.3 1.1l-1.1-1.8c.9-.5 1.9-1.1 3.1-1.4zm5.7 1-.9 1.3c-.8-.3-1.6-.4-2.4-.4-.4 0-.8 0-1.1.1l-.3-2.1c.7-.1 1.4 0 2.2.2.8.2 1.7.5 2.5.9zm1 2.3c-.4-.3-.7-.5-1.1-.7l.8-1.2c1.4.8 2.5 1.8 3.1 3 .6 1.1.8 2.3.7 3.5C89 86 88 84 86.1 82.6zm-13 5.5c.8-.8 1.8-1.8 3.1-3l1.1-1.1c.9-.9 1.9-1.4 3-1.7 1.8-.4 3.7-.1 5.3 1.1 1 .8 1.8 1.7 2.4 2.6 0 .9-.1 5.1-3.6 7-2.2 1.2-4.9 1.3-7.1.3-1.5-.6-3.4-2.1-4.2-5.2zm-1.3-1.5 1.1.4c-.9.9-1.7 1.6-2.3 1.9.2-.4.6-1.3 1.2-2.3z" fill="#000000" stroke-width="none" opacity="1"></path></g></g></g><g id="svga-group-eyes-right-move" transform="matrix(1,0,0,1,0,0)"><g id="svga-group-eyes-right" transform="matrix(1,0,0,1,0,0)"><g id="svga-group-eyesback-right"></g><g id="svga-group-eyesiriswrapper-right"><g id="svga-group-eyesiriscontrol-right" transform="matrix(1,0,0,1,0,0)"><g id="svga-group-eyesiris-right" transform="matrix(1,0,0,1,0,0)"><path id="SvgjsPath39630" d="M123.2 84.7c-1-1.9-3.2-2.7-5.2-2-2.2.8-3.8 3-3.1 5.4.4 1.2 1.5 2.4 2.8 2.7.4.1.9.1 1.4.1.5.1 1.1 0 1.7-.2 2.5-.9 3.6-3.7 2.4-6z" fill="#ffffff" stroke-width="none" opacity="1"></path><path id="SvgjsPath39631" d="M119.6 91.2h-.4c-.5 0-1 0-1.5-.1-1.3-.3-2.5-1.4-3-2.9-.9-2.6 1-4.9 3.2-5.7 2.2-.8 4.6.1 5.6 2.1.6 1.2.7 2.6.2 3.8-.5 1.2-1.5 2.2-2.7 2.6-.5.1-.9.2-1.4.2zm-.4-.6c.5.1 1.1 0 1.6-.2 1.1-.4 1.9-1.2 2.4-2.3.4-1.1.4-2.3-.2-3.3-.9-1.7-3-2.5-4.9-1.8-2 .7-3.6 2.8-2.9 5 .4 1.2 1.5 2.3 2.6 2.5.5.1 1 .1 1.4.1zm2.4-4.8c0-.1 0-.1-.1-.1-.6-1.1-2-1.5-3.1-1 .2.2.4.5.6.7.2.3.5 1 .1 1.2-.4.2-1 0-1.3-.2-.2-.1-.3-.3-.5-.5 0 .1-.1.1-.1.2-.1.2-.1.4-.1.6-.2.7 0 1.4.5 1.9.2.2.5.3.8.4.6.3 1.2.4 1.8.1-.1-.1-.2-.2-.2-.4 0-.3.2-.6.5-.7.3-.1.6 0 .7.2.3-.3.5-.7.6-1.1.2-.4.1-.9-.2-1.3zm-4.7 1.1c-.4-.1-.9-.1-1.3-.2-.1 0-.1.1 0 .1.4.1.9.3 1.3.2v-.1zm-.1.8c-.2 0-.4.1-.6.1-.2 0-.5.1-.7.1-.1 0-.1.1 0 .1.4 0 1 0 1.3-.3.1.1 0 0 0 0zm.4.8c-.2.1-.3.2-.5.3-.2.1-.4.2-.5.3-.1 0 0 .2.1.1.3 0 .7-.3.9-.7.1.1 0 0 0 0zm.8.7c-.3.3-.4.6-.6.9-.1.1.1.2.1.1.2-.3.5-.6.6-1h-.1zm.9.4c-.1.3-.1.7-.2 1.1 0 .1.1.1.1 0 0-.4.1-.7.1-1.1.1-.1 0-.1 0 0zm1.4.4c-.1-.1-.1-.3-.2-.4 0 0-.1 0-.1.1 0 .2.1.3.2.4.1.2.1.3.2.5 0 .1.1 0 .1 0-.1-.2-.1-.4-.2-.6zm1.2-.2-.3-.3-.3-.3c0-.1-.1 0-.1.1.1.1.2.2.3.4.1 0 .2.2.4.1 0 .1.1.1 0 0zm1-.7c-.1-.1-.3-.2-.5-.3-.2-.1-.3-.2-.5-.3-.1 0-.2.1-.1.1.2.1.3.2.5.3.2.1.3.2.5.2.1.1.1.1.1 0zm.5-1.3c-.1-.1-.3-.1-.4-.1-.2 0-.3-.1-.5-.1-.1 0-.1.1-.1.1.3.1.7.3 1 .2v-.1zm.2-1.7c-.3.1-.8.3-1 .5-.1.1 0 .1.1.1.2-.1.3-.2.5-.2.2-.1.3-.1.5-.2.1-.1 0-.2-.1-.2zm-.8-2-.1-.1s-.1 0-.1.1c0 0-.4.4-.4.5-.1.2-.2.3-.4.5-.1.1.1.1.1.1l.9-.9v-.2zm-1.9-.8c-.1.1-.1.3-.2.5s-.1.4-.2.6c0 .1.1.1.1 0 .1-.2.2-.3.2-.5.1-.2.2-.4.1-.5.1-.1 0-.1 0-.1zm-1.3.8c-.1-.2-.1-.3-.2-.5 0-.2-.1-.3-.1-.4 0-.1-.1 0-.1 0 0 .3.2.7.3 1 0 .1.1 0 .1-.1zm-1.2 0c-.1-.2-.2-.3-.3-.5 0-.1-.1 0-.1 0 .1.2.1.3.2.5.1.1.2.3.3.4.1 0 .1 0 .1-.1 0 0-.1-.2-.2-.3zm-.6.9-.3-.3c-.1-.1-.2-.2-.4-.3-.1-.1-.2 0-.1.1l.3.3c.2.1.3.3.5.2 0 .2 0 .1 0 0zm-.8.8-.9-.3c-.1 0-.1.1 0 .1.3.1.6.3.9.3v-.1z" fill="#000000" stroke-width="none" opacity="1"></path></g></g></g><g id="svga-group-eyesfront-right"><path id="SvgjsPath39726" d="M119 74.4c-6.9 0-12.5 5.6-12.5 12.5s5.6 12.5 12.5 12.5 12.5-5.6 12.5-12.5-5.6-12.5-12.5-12.5zm2 20c-3.2.2-5.6-1.3-7.3-2.7s-1.7-5.8-1.7-5.8c1.8-3.5 4.4-4 7.1-4.1s3.9 1.9 5.2 2.8c1.3.9 3.4 3.7 3.4 3.7-.4 2.1-3.5 5.9-6.7 6.1z" fill="#ffffff" stroke-width="none" opacity="1"></path><path id="SvgjsPath39729" d="M131.5 85c-.1-.2-.4-.3-.6-.3l-2 .8c-.5-.8-1-1.5-1.3-2.1l.8-.8c.2-.2.2-.5 0-.6-.2-.2-.5-.2-.6 0l-.7.7c-.3-.5-1-1.3-1.9-2.1l.8-1.2c.1-.2.1-.5-.1-.6s-.5-.1-.6.1l-.7 1.2c-.9-.7-2.1-1.3-3.4-1.6l.1-.8c0-.2-.1-.5-.4-.5-.2 0-.5.1-.5.4l-.1.8c-.8-.1-1.7 0-2.6.2-1 .3-1.9.6-2.8 1l-.8-1.2c-.1-.2-.4-.3-.6-.1-.2.1-.3.4-.1.6l.6 1.1c-1.5.9-2.7 2-3.4 3.3-.9 1.6-1.1 3.5-.5 5.5.1.2.2.3.4.3.3 0 .4-.2.7-.7.1-.2.2-.5.4-.9.1 1.7.9 4.7 3.9 6.4.8.4 1.6.7 2.4.9v1.7c0 .2.2.5.5.5s.5-.2.5-.5V95c.3 0 .7.1 1 .1.7 0 1.4-.1 2-.2l.6 1.5c.1.2.2.3.4.3h.2c.2-.1.3-.4.2-.6l-.6-1.4c.2-.1.4-.2.7-.2.5-.2 1-.5 1.5-.9l1.7 1.6c.1.1.2.1.3.1.1 0 .2 0 .3-.1.2-.2.2-.5 0-.6l-1.6-1.6c.4-.3.7-.7 1-1.1l2.3 1.3c.1 0 .2.1.2.1.2 0 .3-.1.4-.2.1-.2.1-.5-.2-.6l-2.2-1.3c.4-.6.7-1.3.9-2.1 1 .9 1.7 1.3 2.1 1.3.2 0 .4-.1.5-.3.2-.5-.4-1.9-1.2-3.4l1.9-.8c.2-.4.3-.7.2-.9zm-3.4.9-1.3.5-1-1 1.2-1.3c.3.5.7 1.1 1.1 1.8zm-1.8-2.7s.1.1.1.2l-1.3 1.4-.3-.3-1.1-1.1-.1-.1 1.1-1.8c.8.6 1.3 1.3 1.6 1.7zm-2.3-2.4-1.1 1.8c-.7-.5-1.5-.9-2.3-1.1l.3-2.1c1.2.2 2.2.8 3.1 1.4zm-6.2-1.4c.8-.2 1.5-.3 2.2-.2l-.3 2.1c-.4-.1-.8-.1-1.1-.1-.8 0-1.6.1-2.4.4l-.9-1.3c.7-.4 1.6-.7 2.5-.9zm-7.1 7.8c-.2-1.3.1-2.4.7-3.5s1.7-2.2 3.1-3l.8 1.2c-.4.2-.7.4-1.1.7-1.8 1.4-2.9 3.4-3.5 4.6zm16.5.9c-.8 3.1-2.7 4.5-4.1 5.2-2.2 1-4.9.9-7.1-.3-3.4-1.9-3.6-6-3.6-7 .6-.9 1.3-1.9 2.4-2.6 1.6-1.2 3.5-1.5 5.3-1.1 1.1.3 2.2.8 3 1.7l1.1 1.1 3 3zm2.5.9c-.5-.3-1.4-1-2.3-1.9l1.1-.4c.6.9 1 1.8 1.2 2.3z" fill="#000000" stroke-width="none" opacity="1"></path></g></g></g><g id="svga-group-facehighlight-single"></g><g id="svga-group-eyebrows-left-move" transform="matrix(1,0,0,1,0,0)"><g id="svga-group-eyebrows-left-rotate" transform="matrix(1,0,0,1,0,0)"><g id="svga-group-eyebrows-left" transform="matrix(1,0,0,1,0,0)"><path id="SvgjsPath39692" d="M77.41 73.32c1.32-.12 4.38-.67 5.89-.48 2.44.45 3.2 2.82 7.84 1.72.97-.66 2.36-3.32-1.07-3.94-3.14-.57-12.13.98-15.06 2.82-4.17 2.63-6.92 7.71-6.92 7.71 2.89-3.69 8.01-7.71 9.32-7.83z" fill="#000000" stroke-width="none" opacity="1"></path></g></g></g><g id="svga-group-eyebrows-right-move" transform="matrix(1,0,0,1,0,0)"><g id="svga-group-eyebrows-right-rotate" transform="matrix(1,0,0,1,0,0)"><g id="svga-group-eyebrows-right" transform="matrix(1,0,0,1,0,0)"><path id="SvgjsPath39693" d="M132.19 80.95s-2.89-5.01-7.14-7.52c-2.98-1.76-12-3.05-15.13-2.4-3.41.71-1.94 3.34-.96 3.97 4.67.97 5.37-1.42 7.79-1.93 1.5-.23 4.58.24 5.9.32 1.33.08 6.56 3.96 9.54 7.56z" fill="#000000" stroke-width="none" opacity="1"></path></g></g></g><g id="svga-group-nose-single-move" transform="matrix(1,0,0,1,0,0)"><g id="svga-group-nose-single" transform="matrix(1,0,0,1,0,0)"><path id="SvgjsPath39677" d="M107.1 102.7c-.4-2.2-.9-4.3-1.6-6.4-.2-.5-1-.3-.8.2.6 1.8 1.1 3.7 1.4 5.5.1.7 1.3 6.7-.6 6.1-.4-.1-.9-1-1.2-1.2-.3-.3-.6-.5-1-.5-1.1-.2-1.6.9-2.1 1.6-.6.9-1.6 1.6-2.5.7-.5-.5-.7-1.3-1.2-1.8-.7-.9-1.6-.7-2.5-.1-.4.2-.7.7-1.2.8-.9.1-.8-1-.8-1.5 0-1.1.1-2.2.3-3.3.3-1.8.7-3.6 1.3-5.3.2-.5-.7-.8-.8-.2-.6 1.7-1 3.5-1.3 5.3-.2 1.4-.6 3.3-.2 4.7.3 1 1.1 1.5 2.1 1 .5-.2.9-.8 1.5-1 1.1-.4 1.4 1.1 1.9 1.7.6.8 1.5 1.2 2.5.9.5-.1.9-.5 1.3-.9.4-.5.7-1.3 1.2-1.6 1-.6 1.6 1.3 2.5 1.6.9.4 1.6-.3 2-1.1.6-1.5 0-3.6-.2-5.2z" fill="#000000" stroke-width="none" opacity="1"></path><path id="SvgjsPath39678" d="M98.3 100.3c1.5-.4 3 .2 3.9 1.5.3.5 1.1 0 .8-.4-1.1-1.6-3-2.4-4.9-1.9-.6.1-.4 1 .2.8z" fill="#000000" stroke-width="none" opacity="1"></path></g></g><g id="svga-group-hair-front" transform="matrix(1,0,0,1,0,0)"><path id="SvgjsPath39765" d="M81.3 51.3s6.6-12.2 16.8-14c10.3-1.9 18.7 2.8 16.2 10.3s-4.7 20.6 5.6 19.7 17.5 5.9 18.1 12.8c.9 9.5-9.4 16.2-8.1 24.7s10.6 3.7 15.6 9.4-9.4 7.5-10.6 13.4c-1.2 5.9 7.2 13.4 12.2 12.2 0 0-5.9-3.4-2.8-6.9 3.1-3.4 13.2-2 18.1-8.1 6.6-8.1 3.4-20.3-5.3-25.6-8.7-5.3 1.9-11.9 7.2-20.6s-4.1-18.4-16.2-24.3-9.1-11.9-6.6-16.2-4.7-13.4-20-11.5-11.6-3.7-17.5-7.8c-5.8-4.3-13-2.4-17.1 3.2s-16.2 2.5-18.1 9.7c0 0-11.9-4.7-15.9 1.2s-1.9 9.7-7.2 13.4c-5.3 3.7-7.2 11.5-3.1 17.5S32 68.5 30.8 76.9s7.5 10.9 9.4 21.5-4.4 13.4-6.5 20.3 9.4 10.6 17.8 14 1.2 14.7 1.2 14.7 15.3-9.1 11.9-19-7.8-9.4-5.6-15.3 11.2-5 11.2-11.9-4.4-4.6-5-11.9c-.6-7.5 2.5-5.6 4.1-14 1.2-6.4-4.4-9.1-4.1-15.9S75.4 47 81.3 51.3z" fill="#ffffff" stroke-width="none" opacity="1"></path><path id="SvgjsPath39766" d="M166.7 111.5c-.9-5.4-4.3-10.4-9-13.2-1.7-1-2.6-2.1-2.8-3.3-.4-2.4 2.2-5.6 5.1-9 1.8-2.2 3.7-4.5 5.3-7 1.7-2.8 2.1-5.8 1.2-9-1.8-6-8.3-12.1-17.8-16.8-4.6-2.2-7.3-4.6-8-7.2-.8-2.6.4-5 1.9-7.7 1-1.8.8-4.2-.7-6.4-2.6-3.9-9.4-7.9-20.2-6.6-9.9 1.2-11.2-.7-12.9-3.4-.9-1.3-1.8-2.9-3.8-4.2-6.2-4.2-14-2.7-18.5 3.7-1.6 2.2-5 3-8.3 3.6-4 .8-8.1 1.7-9.7 5.3-3.1-1-12.3-3.5-16.1 2-1.8 2.7-2.5 4.9-3 6.9-.7 2.5-1.2 4.3-3.9 6.3-6 4.3-7.6 12.7-3.4 18.9.4.6.6 1.2.5 1.5-.3.9-2.2 1.8-4 2.6-3.5 1.6-7.8 3.5-8.5 8.3-.7 4.8 1.6 7.9 4.1 11.2 2.2 2.9 4.5 5.9 5.3 10.7 1.2 6.7-1 10-3.3 13.6-1.2 1.9-2.5 3.8-3.2 6.2-2.2 7.1 7.4 10.9 15.8 14.3.9.3 1.7.7 2.5 1 1.7.7 2.7 1.7 3.2 3.2 1.3 4.1-2.4 9.9-2.4 10l-2.2 3.5 3.6-2.1c.7-.4 15.9-9.6 12.3-20.2-1.5-4.4-3.2-6.8-4.5-8.6-1.6-2.3-2.2-3.1-1.1-6 .9-2.3 3-3.5 5.3-4.7 2.8-1.5 6-3.2 6-7.5 0-3.9-1.4-5.3-2.6-6.5-1.1-1.1-2.1-2.2-2.4-5.4-.3-3.8.3-4.9 1.3-6.5.9-1.5 2-3.3 2.7-7.3.7-3.7-.7-6.2-1.9-8.7-1.2-2.2-2.2-4.3-2.1-7.3.1-3 2.4-6 5.9-7.6 1.4-.7 2.8-1 4.2-1-1.4.6-2.6 1.6-3.4 3.2-.7 1.3-.8 2.8-.5 4.2.7 2.7 5.4 6.1 2.7 9-.5.6.3 1.5.9.9 1.3-1.5 1.4-3.2.7-5-.8-1.8-2.6-3.2-3.1-5.2-.9-4.1 2.6-6.2 6.1-6.4.4.2.8.4 1.2.7l.9.7.6-1s.1-.3.4-.7c3.2-3.9 7.8-7.7 12.8-8.6 6.5-1.1 10.1 4.8 8.3 10.6-.8 2.5-2.3 4.6-3.1 7-.8 2.3-1 5.3.8 7.3 2 2.2 11 .9 10.4 4.6-.1.8 1.1 1.1 1.2.3.2-1.8 0-2.9-1.6-4-1.8-1.2-4.1.1-5.9-.6-1.8-.3-3.9-.3-4.3-4.5.3-2 .9-4 2-5.7.5-1.1 1.1-2.1 1.5-3.3.9-2.6 1.3-5.5.3-8.1-3.3-8.8-12.4-5-18.7-.1 2.8-3.3 7-6.9 12.1-7.8 6-1.1 11.5.1 14.1 3.1 1.4 1.6 1.8 3.7 1 5.9-1 3.1-4.1 13.6-.2 18.5 1.5 1.9 3.8 2.7 6.9 2.5 4.5-.4 8.7.8 12 3.3 2.9 2.3 4.8 5.4 5 8.6.4 4.5-1.9 8.4-4.1 12.2-2.3 3.9-4.6 8-4 12.5.8 5.5 4.9 6.2 8.5 6.8 2.7.4 5.4.9 7.3 3.1.6.7.9 1.3.8 1.8-.2 1.3-2.5 2.7-4.7 4-2.9 1.8-6.3 3.7-6.9 6.8s.9 6.6 4 9.6c3 2.9 6.7 4.4 9.4 3.7l2.4-.6-2.1-1.2c-.8-.4-2.9-2-3.2-3.6-.1-.6.1-1.2.6-1.7 1.1-1.2 3.6-1.8 6.3-2.4 4.1-.9 8.8-2 11.8-5.8 2.6-4.2 3.8-9.1 2.9-14.2zM140 33.1c1.1 1.6 1.3 3.2.7 4.3-1.3 2.2-3.2 5.6-2.1 9.3 1 3.1 3.9 5.8 9.1 8.4 8.9 4.3 15.2 10.2 16.8 15.5.8 2.6.4 5.1-1 7.4-1.4 2.4-3.3 4.6-5.1 6.7-.2.2-.4.4-.5.7.7-1.2 1.3-2.3 1.7-3.5 1.1-3.3 1.1-7 .1-10.4-2-7-7.9-12.1-14.6-14.5-5.5-2-14.4-2.1-13.2-10.3.5-3.6 3.3-5.7 2.7-9.7-.9-5.7-5.7-8.5-10.8-9.7 8.7-.6 14.1 2.6 16.2 5.8zm-108.2 44c.5-3.7 4.2-5.3 7.4-6.7 2.5-1.1 4.6-2.1 5.1-3.9.3-1 0-2-.8-3.2-3.6-5.2-2.3-12.5 2.9-16.1.3-.2.6-.5.9-.7-1 2-1.6 4.2-1.9 6.6-1 9.3 5.8 19.7-1.8 27.5-2 2.1-4.9 3.8-6.1 6.6-.2.6-.4 1.2-.5 1.7l-1.5-2.1c-2.5-3.2-4.4-5.7-3.7-9.7zm129.9 47c-2.6 3.2-6.9 4.2-10.7 5.1-3.1.7-5.8 1.3-7.4 3-.9 1-1.3 2.2-1.1 3.4.2 1.1.8 2.2 1.6 3-1.5-.5-3.2-1.5-4.7-3-2.6-2.5-3.9-5.5-3.4-7.8.5-2.2 3.4-3.9 6-5.4 2.7-1.6 5.3-3.2 5.7-5.4.2-1.1-.2-2.3-1.3-3.4-2.4-2.7-5.6-3.2-8.5-3.7-3.6-.6-6.3-1.1-6.9-5.1-.6-3.8 1.5-7.4 3.7-11.2 2.4-4.1 4.9-8.3 4.4-13.4-.3-3.8-2.5-7.4-5.8-10-3.6-2.8-8.4-4.1-13.4-3.7-2.3.2-4-.3-5.1-1.7-2.6-3.3-1.4-10.8.5-16.6 1-2.9.5-5.7-1.4-7.9-3-3.5-9.3-4.9-16-3.7C89 38 82.8 47 81 49.9c-2.8-1.5-6.4-1.5-9.9.1-4.1 2-6.8 5.6-7 9.3-.2 3.6 1.2 6.1 2.3 8.3 1.2 2.4 2.3 4.4 1.7 7.4-.7 3.6-1.6 5.2-2.5 6.6-1.1 1.8-2 3.3-1.6 7.7.3 4 1.7 5.4 3 6.7 1.1 1.2 2 2.1 2 5.1 0 3-1.9 4.1-5 5.8-2.4 1.3-5.1 2.7-6.2 5.8-1.4 3.9-.3 5.5 1.4 7.8 1.2 1.7 2.8 3.9 4.2 8.1 2.2 6.4-4.2 12.5-8.3 15.7.7-1.8 1.3-4 1.2-6.1v-.2c-.1-3.4-2-5.6-4.7-7.6-2.3-1.7-5.2-2.9-6.9-5.2-3.1-4.5-.4-7.6 2.3-11 2-2.5 4.2-5.1 4.1-8.5 0-6.3-6.6-11-5-17.4 1.1-4.6 5.9-6.1 7.9-10.1 2-4.2.1-8.8-1.5-12.9-2.7-6.7-2.6-13.3 3-18.6 5.8-5.4 14.1-5.7 21.5-4 .8.2 1.1-1 .3-1.2-9.7-2.2-21.3-.6-26.3 9.1-2.3 4.5-2 8.9-.3 13.5 1.5 3.9 3.6 7.7 2.7 12.1-.7 3.6-4.6 5.4-6.7 8-2.7 3.3-2.6 6.7-1.1 10.6 1.7 4.3 5 7.8 3.8 12.7-.8 3.2-3 5.2-5 7.8-2 2.7-3.5 5.7-1.9 8.9 1.7 3.6 5.7 5.2 8.8 7.5l-2.4-.9c-7.7-3-16.4-6.5-14.7-11.8.7-2.2 1.8-3.9 3-5.8 2.4-3.7 4.9-7.6 3.6-15-.5-2.9-1.5-5.2-2.7-7.2-.6-4.1 1.9-5.8 4.3-8 1.6-1.5 3.2-2.9 4.2-4.8 2.3-4.3 1.6-9.4.8-14-1.4-7.7-2-14.8 3.3-21.1s13.8-8.1 21.5-5.4c.8.3 1.1-.9.3-1.2-8.2-2.9-17-.5-22.3 5.3.2-.7.4-1.3.6-2 .5-1.9 1.1-3.9 2.7-6.3 1.3-2 3.8-2.6 6.2-2.6 4.1 0 8.4 1.7 8.5 1.7l1.1.4.3-1.1c.9-3.3 4.4-4 8.5-4.9l1.5-.3c-.2.2-.4.3-.6.5-2.2 2.1-3.6 5-4.6 7.8-.3.8.9 1.1 1.2.3 1.3-3.7 3.2-7.1 6.8-9 1.4-.8 2.9-1.5 4-2.5l1.2-1.2c3.9-5.4 10.6-6.8 15.8-3.2 1.7 1.1 2.5 2.4 3.3 3.7.6.9 1.2 1.7 1.9 2.4-12.6-1-29.2-1.1-30.3 13.5-.1.8 1.2.8 1.2 0 1.1-14.4 19-13.2 31.2-12.1 1.6.7 3.8 1 7.1.8h.2c6.3.2 15.5 2.6 15.3 10.7-.1 3.8-3.5 6.8-3.1 10.6.6 5.8 7.2 7 11.6 8.2 10 2.6 19.5 11.4 16.9 22.7-.9 4.2-4.7 8-5.5 12.1-.4 1.1-.6 2.2-.4 3.2.3 1.8 1.5 3.3 3.8 4.7 4.2 2.6 7.2 7 8.1 11.9.8 4.5-.3 8.9-3 12.3zm-18.8-29.3c3.5-6.8 9.1-12.4 7.6-20.8-1-5.5-5-9.1-10.1-10.9-4.2-1.5-8.7-1-12.8-2.4-7.9-2.7-4.2-9.5-4.2-15.1-.1-5.9-3.9-11.2-8.9-14-11.7-6.7-27.9.8-34.2 11.8-.4.6.7 1.3 1.1.6 7.4-12.9 30.4-20.5 39.1-4.6 2.3 4.2 1.3 8.1.7 12.5-.2 1.8-.4 3.7.3 5.4 1.9 4.4 7 5 11.2 5.6 9.5 1.2 18.8 6 16.4 17.4-1.4 6.5-7 10.7-8.6 17-1 4 1 7.3 4.1 9.7 2.1 1.7 4.5 2.8 6.6 4.4 2.6 2 3.7 3.3 3.7 6.7 0 3.8-1.4 5.1-4.5 7.2-.7.4 0 1.5.6 1.1 4.1-2.7 7.6-6.7 5-11.7-3.9-7.5-18.9-8.7-13.1-19.9zM79.6 45.9c-7.3-3.2-16.4-1.2-20.5 6.1-1.8 3.2-2.5 7-1.9 10.7.4 2.5 1.5 4.3 2.6 6.5 2.7 5.4 1 9.2-1.9 13.9-2.2 3.5-4.8 7.8-2.9 12 .8 1.7 2.3 2.7 3.4 4.1 5 6.5-.4 7.7-3.2 11-2.1 2.5-3 6.1-2.3 9.3 1.2 5.6 7.7 8.3 7.6 14.3 0 .8 1.2.8 1.2 0 0-3.3-1.5-5.5-3.5-7.9-4.4-5.3-6.2-11.3-.3-16.4 1.9-1.7 4.2-2.8 4.2-5.7.1-3.8-4.1-6.3-5.5-9.4-2.6-6.3 3.3-10.6 5.4-16 1.4-3.7.6-6.4-1.1-9.9-2.8-5.8-3.8-11.4 0-17 4-5.8 11.7-7.3 18-4.5.8.3 1.4-.8.7-1.1z" fill="#000000" stroke-width="none" opacity="1"></path></g><g id="svga-group-glasses-single-move" transform="matrix(1,0,0,1,0,0)"><g id="svga-group-glasses-single" transform="matrix(1,0,0,1,0,0)"></g></g></g></g></g><rect id="svga-credit-rect" width="200" height="15" x="0" y="185" fill="#ecf0f1" opacity="0.5" style="display: none;"></rect><text id="svga-credit-text" font-family="Avenir Next, Roboto, Helvetica, Arial, sans-serif" font-size="10px" text-anchor="start" font-weight="400" size="10px" anchor="start" weight="400" fill="#333333" x="33.402061462402344" y="182.71133995056152" style="display: none;"><tspan id="SvgjsTspan39155" dy="13" x="33.402061462402344">Created on AvatarMaker.com</tspan></text></g></svg>