<svg xmlns="http://www.w3.org/2000/svg" version="1.1" width="600px" height="600px" viewBox="0 0 200 200" style="overflow:hidden!important;"><defs id="SvgjsDefs16663"></defs><g id="svga-group-wrapper"><g id="svga-group-backs-single"></g><g id="svga-group-humanwrap-move" transform="matrix(1,0,0,1,0,0)"><g id="svga-group-humanwrap" transform="matrix(1,0,0,1,0,0)"><g id="svga-group-hair-back-move" transform="matrix(1,0,0,1,0,0)"><g id="svga-group-hair-back" transform="matrix(1,0,0,1,0,0)"></g></g><g id="svga-group-humanbody-back"><path id="SvgjsPath16921" d="M86.5 122c0 18.8 2.7 50.3-8.1 58s-31.8 13.9-36.7 24.4-3.6 14.4-3.6 14.4h124.1s.6-8.1-4.2-15.4c-6.6-10.1-28.5-17.7-36.5-22.9-8.1-5.2-10.9-32.2-10.9-58.8l-24.1.3z" fill="#ffffff" stroke-width="none" opacity="1"></path></g><g id="svga-group-chinshadow-single"></g><g id="svga-group-humanbody-front"><path id="SvgjsPath16922" d="M163.4 220.1H37.2l-.3-.9c-.1-.5-1.3-4.7 3.6-15.3 3.4-7.3 13.6-12.4 23.5-17.4 5.1-2.5 9.9-5 13.6-7.5 8.6-6 8.1-29.8 7.7-47.1-.1-3.5-.1-6.8-.1-9.8v-1.3l26.7-.4v1.3c0 32 3.8 53.5 10.3 57.7 2.4 1.6 6 3.3 10.2 5.4 9.7 4.7 21.9 10.6 26.7 18 5 7.6 4.4 15.9 4.4 16.2l-.1 1.1zm-124.1-2.6h121.6c-.1-2.4-.6-8.2-4-13.4-4.4-6.7-16.2-12.5-25.6-17-4.3-2.1-8-3.9-10.5-5.5-9.8-6.3-11.4-38.8-11.5-58.6l-21.5.4c0 2.6.1 5.5.1 8.5.4 18.9.9 42.4-8.8 49.3-3.8 2.7-8.7 5.1-13.9 7.7-9.5 4.8-19.4 9.7-22.3 16.1-3.3 6.9-3.7 10.9-3.6 12.5z" fill="#000000" stroke-width="none" opacity="1"></path><path id="SvgjsPath16923" d="M76.8 188.7c4.8 2.3 10.4 3.9 15.7 2.9.4-.1.4-.7 0-.8-5.1-.9-10.2-1.4-15.2-3.2-.6-.2-1.1.8-.5 1.1z" fill="#000000" stroke-width="none" opacity="1"></path><path id="SvgjsPath16924" d="M108.3 191.1c2.4.3 4.9-.4 7.1-1.2 2.1-.8 4.3-1.7 5.8-3.4.5-.5-.1-1.2-.7-.9-2.1.9-3.9 2.3-6.1 3-2 .7-4.1 1-6.2 1.5-.6.1-.4.9.1 1z" fill="#000000" stroke-width="none" opacity="1"></path></g><g id="svga-group-clothes-single"><path id="SvgjsPath17254" d="M77.4 202.5c-6.6-9.8-9.7-17.7-9.7-17.7-1-.8-2.8-.5-3.3.5s-2.8 0-3.6 1.3c-.8 1.3-2.5.3-3.5 1.8 0 0-2.8-.6-2.8 2.3S61 202 61 219.2h33.7s-10.7-7-17.3-16.7z" fill="#ffffff" stroke-width="none" opacity="1"></path><path id="SvgjsPath17255" d="M141.9 188.4c-1-1.5-2.6-.5-3.4-1.8-.8-1.3-3.1-.3-3.6-1.3s-2.3-1.3-3.3-.5c0 0-3.1 8-9.7 17.7s-17.3 16.7-17.3 16.7h33.7c0-17.2 6.4-25.7 6.4-28.6 0-2.9-2.8-2.2-2.8-2.2z" fill="#ffffff" stroke-width="none" opacity="1"></path><path id="SvgjsPath17256" d="M95.2 218.4c-.1-.1-10.6-7-17-16.5s-9.6-17.4-9.6-17.5c-.1-.2-.2-.3-.3-.4-.7-.6-1.8-.8-2.8-.6-.9.2-1.6.7-2 1.3-.2 0-.5.1-.7.1-.9 0-2.2.1-2.9 1.2-.1.2-.3.3-.9.4-.6.1-1.4.2-2.1.9-.6 0-1.5.1-2.3.6-.5.4-1.1 1.2-1.1 2.7 0 1.1.6 2.4 1.4 4.4 1.9 4.6 5 12.2 5 24.2 0 .6.5 1 1 1h33.7c.4 0 .8-.3 1-.7.2-.4 0-.9-.4-1.1zm-34.4-11.8c1.2.8 2.5 1.3 3.9 1.2.2 0 .3-.3.1-.4-1.5-.4-2.8-.8-4.1-1.6-.1-.6-.3-1.2-.4-1.8 1.2.8 2.6 1.4 4 1.3.2 0 .3-.3.1-.4-1.6-.6-3-1-4.3-1.9-.2-.6-.3-1.2-.5-1.8 1.2.8 2.5 1.3 3.9 1.1h.1c1.2 3.4 2.4 6.6 3.1 8.7-1.9-.4-3.6-.8-5.2-1.7-.4-.9-.5-1.8-.7-2.7zm1.4-7.5c.4 1 .7 1.9 1.1 2.9-1.6-.4-3-.9-4.2-1.8-.3-.9-.6-1.7-.9-2.5 1.1.8 2.5 1.4 4 1.4zm-.1-.4c-1.6-.5-3-1.1-4.3-2.1-.3-.8-.7-1.6-.9-2.3-.3-.6-.5-1.2-.7-1.8 1.2 1.3 2.8 2.4 4.6 2.6.4 1.1.8 2.3 1.3 3.6zm-6.2-9.2c.2-.2.6-.2.9-.2.7.5 1.4 1 2.2 1.3.2.4.3.9.5 1.3-1.3-.6-2.6-1.2-3.6-2.4zm2.3-.6c0-.1.1-.1.2-.2.1.3.3.7.4 1.2-.3-.2-.6-.5-.9-.7l.3-.3zm-2.5 1.2c1 1.3 2.5 2.3 4.1 2.4.2.6.5 1.3.8 2-1.7-.6-3.3-1.4-4.5-2.8-.1-.1-.1-.1-.2-.1-.1-.4-.2-.8-.2-1-.1-.2-.1-.4 0-.5zm6.2 26.1c1.3 1 2.8 1.7 4.5 2H62c0-.7 0-1.3-.1-2zm8.1 2c0-.1 0-.2-.1-.2-3.1-.1-5.4-.9-8-2.4 0-.8-.1-1.5-.2-2.2 2 1.2 4.3 2 6.6 1.7.2 0 .2-.3 0-.3-2.4-.3-4.6-.8-6.7-2-.1-.9-.2-1.9-.3-2.8 1.6 1 3.5 1.7 5.3 1.5.2.6.3 1.1.4 1.5.1.4.5.7 1 .7h.3c.1 0 .2-.1.3-.1 1.5 1.2 3.4 2.2 5.3 2.2.2 0 .2-.2 0-.3-1.8-.5-3.5-1.1-5.1-2.2.2-.2.2-.5.1-.8-.1-.2-.1-.5-.2-.7.9.6 2 1 3 1 .2 0 .2-.2 0-.3-1.2-.3-2.2-.6-3.2-1.3-.1-.4-.3-.9-.5-1.4.6.3 1.3.6 1.9.6.3 0 .3-.3.1-.4-.8-.3-1.5-.6-2.2-1l-.6-1.8c.8.4 1.6.7 2.4.6.2 0 .2-.3.1-.4-1-.4-1.9-.6-2.8-1.1-.2-.5-.3-.9-.5-1.4.8.5 1.6.8 2.4.7.2 0 .3-.3.1-.4-.7-.3-1.5-.5-2.2-.9-.2-.1-.4-.3-.6-.4-.2-.4-.3-.9-.5-1.4.9.5 1.8.9 2.8 1.1.2 0 .3-.2.1-.3-1.1-.5-2.2-1-3.3-1.6-.2-.4-.3-.9-.5-1.4.7.3 1.4.5 2.1.5.2 0 .2-.3.1-.4-.9-.2-1.7-.4-2.4-.8-.3-.8-.6-1.5-.8-2.3.9.8 2 1.3 3.1 1.3.2 0 .3-.3.1-.4-1.3-.5-2.5-1-3.5-1.9-.2-.4-.3-.8-.4-1.2.8.8 1.9 1.3 3 1.2.2 0 .2-.3.1-.4-1.5-.6-2.7-1.1-3.6-2.4-.2-.5-.4-1-.5-1.5.8.8 2 1.5 3.1 1.5.2 0 .2-.2.1-.3-.6-.3-1.3-.5-1.9-.9-.7-.4-1.2-.9-1.7-1.5-.1-.2-.2-.4-.2-.7.8.5 1.8.9 2.7.8.2 0 .2-.2 0-.3-1.1-.4-2.1-.8-3.1-1.4-.2-.5-.3-.9-.5-1.2.1 0 .1 0 .2-.1.8.5 1.8 1 2.7 1.1.2 0 .2-.2.1-.3-.7-.4-1.5-.7-2.2-1.1l.3-.3c.3.1.6.2.9.2.2 0 .3-.3.1-.4-.2-.1-.4-.1-.6-.2.2-.2.6-.2 1.2-.3.3 0 .6 0 .9-.1 1.4 4.4 6.6 19.8 15.9 30.2.2.2.5.3.7.3.1 0 .2 0 .3-.1 2.2 1 4.7 1.4 7.1.6.1 0 .1-.3 0-.3-2.3.1-4.4 0-6.6-.7.2-.3.3-.6.2-.9 1.7.5 3.4.7 5.1.4.2 0 .1-.3-.1-.3-1.9-.1-3.8-.2-5.6-.8-.3-.3-.6-.7-.9-1 1.5.5 3 .8 4.5.5.2 0 .2-.3 0-.3-1.8-.3-3.5-.5-5.2-1.1l-.9-1.2c1.1.4 2.3.6 3.5.6.2 0 .2-.2 0-.3-1.4-.4-2.8-.7-4.2-1.1-.2-.3-.4-.6-.7-.9 1.1.4 2.3.6 3.5.5.2 0 .2-.4 0-.4-1.5-.2-2.8-.5-4.1-1-.4-.6-.8-1.3-1.2-1.9.8.4 1.7.6 2.7.6.2 0 .2-.3.1-.3-1.1-.3-2.1-.5-3.1-1-.4-.6-.7-1.3-1.1-1.9.8.5 1.7.8 2.6.8.2 0 .2-.3.1-.3-1.2-.4-2.2-.8-3.2-1.4-.2-.4-.4-.8-.7-1.3.7.4 1.5.7 2.3.6.2 0 .2-.3.1-.4-1.1-.3-2-.6-2.8-1.2-.2-.4-.4-.8-.6-1.1.6.2 1.2.3 1.8.2.2 0 .2-.3 0-.4-.5-.1-1.1-.2-1.6-.4-.2-.1-.3-.1-.5-.2-.2-.5-.4-.9-.7-1.4.4.2.8.3 1.2.2.2 0 .2-.2.1-.3-.4-.2-.8-.3-1.2-.5-.1-.1-.3-.1-.4-.2-.2-.3-.3-.7-.4-1 .3.1.5.2.8.2.2 0 .2-.2.1-.3-.4-.2-.8-.4-1.2-.5-2.2-5-3.5-9.1-3.9-10.5.1-.1.2-.1.4-.2.3-.1.7 0 .9.1.6 1.6 3.8 8.8 9.7 17.6 4.7 7 11.3 12.5 15 15.2l-21.9.2zm74.6-30.3c-.8-.6-1.7-.7-2.3-.6-.7-.7-1.5-.8-2.1-.9-.6-.1-.8-.1-.9-.4-.7-1.1-2-1.2-2.9-1.2-.2 0-.6 0-.7-.1-.4-.7-1.1-1.1-2-1.3-1-.2-2.1 0-2.8.6-.1.1-.2.2-.3.4 0 .1-3.2 8-9.6 17.5-6.4 9.5-16.9 16.4-17 16.5-.4.2-.5.7-.4 1.1s.5.7 1 .7h33.7c.6 0 1-.4 1-1 0-12 3.1-19.6 5-24.2.8-2 1.4-3.4 1.4-4.4 0-1.5-.6-2.3-1.1-2.7zm-21.1 13.9c.2 1 .6 2 1.4 2.5.2.1.3-.1.2-.2-.2-.5-.6-.9-.8-1.4-.2-.5-.3-1-.4-1.5.2-.3.4-.6.6-1 .2.8.6 1.5 1.2 2 .2.1.4-.1.3-.3-.5-.8-.9-1.4-1.1-2.2.2-.4.4-.7.6-1 .2.5.4 1 .8 1.3.2.1.4 0 .3-.2-.2-.4-.5-.8-.6-1.2-.1-.1-.1-.3-.1-.4.2-.4.4-.7.7-1.1.2.4.5.8.8 1 .1.1.3-.1.2-.2-.2-.4-.5-.7-.7-1.1 0-.1 0-.1-.1-.1.2-.4.5-.8.7-1.2.2.3.4.5.7.7.1.1.3-.1.2-.2-.2-.3-.4-.7-.6-1 .4-.7.8-1.4 1.1-2 .1 0 .1 0 .2-.1s.1-.2 0-.2c1.9-3.6 3-6.1 3.3-6.9.2-.1.6-.2.9-.1.2 0 .3.1.4.2-.9 3.1-6.2 19.5-15.7 30-.4.4-.3 1 .1 1.4.2.2.4.3.7.3.3 0 .5-.1.7-.3.3.5.7 1 1.2 1.4h-7.6c.1-.1.2-.2.1-.3-.6-.5-1.2-.9-1.7-1.5-.2-.2-.4-.5-.6-.8.2-.2.5-.4.8-.6.7 1.3 1.8 2.5 3.2 2.8.2 0 .3-.2.1-.3-.7-.5-1.5-1-2.1-1.6l-.9-1.2c.2-.2.4-.4.7-.6 1 1.3 2.4 2.5 4 2.9.2 0 .3-.2.1-.3-1.4-.8-2.8-1.6-3.8-2.9.4-.4.9-.8 1.3-1.2.8 1.3 1.9 2.6 3.3 3.2.2.1.4-.1.2-.3-1.2-1.1-2.2-2-3.1-3.2l1.1-1.1c.5 1.1 1.2 2 2.3 2.5.2.1.4-.1.2-.3-.9-.8-1.6-1.7-2.1-2.7l.9-.9c.4.9 1.2 1.8 2.2 2.1.2.1.3-.2.2-.3-.8-.7-1.5-1.4-1.9-2.2.3-.4.7-.7 1-1.1.4 1.2 1.1 2.3 2.2 2.7.2.1.3-.2.2-.3-.5-.6-1.1-1.1-1.5-1.7l-.6-1.2c.3-.4.6-.7.9-1.1.3 1.1 1 2.2 2.1 2.7.1 0 .3-.1.2-.2-.4-.6-.9-1.1-1.3-1.7-.2-.4-.4-.9-.5-1.3.3-.3.5-.7.8-1 .3.7.7 1.4 1.3 1.9.2.1.4 0 .3-.2-.4-.7-.9-1.4-1.2-2.1.3-.3.5-.7.8-1 .2.7.6 1.4 1.2 1.9.2.1.4 0 .3-.2-.4-.8-.8-1.4-1.1-2.2l.2-.2c.1-1 .3-1.4.6-1.8zm-12.2 16.4c-.4-.3-.8-.5-1.2-.8-.2-.2-.4-.4-.6-.7.3-.2.6-.5.9-.7.6 1 1.5 1.8 2.5 2.2h-1.6zm-2.2 0c-.3-.2-.5-.4-.7-.6.2-.2.5-.4.8-.6.2.3.4.5.6.7.2.1.3.3.5.4l-1.2.1zm-1-.3.3.3h-.6c0-.1.2-.2.3-.3zm34.4-23.6c-1.9 4.6-5 12.1-5.2 23.9h-.6c0-.1-.1-.2-.2-.2-2 .2-3.8.2-5.8-.3-.2-.1-.3.2-.1.3.2.1.3.1.5.2h-9.7c0-.1 0-.1-.1-.1-.3-.3-.7-.5-.9-.9-.2-.2-.4-.5-.6-.8.2-.3.5-.6.7-.8.6 1.1 1.6 2.1 2.8 2.3.2 0 .3-.2.1-.3-.5-.4-1.1-.7-1.6-1.1-.4-.4-.7-.8-1-1.3.3-.4.6-.7.8-1.1.6 1.3 1.6 2.5 3 3 .2.1.4-.2.2-.4-.6-.5-1.3-.9-1.8-1.5-.4-.5-.8-1-1-1.6.3-.4.6-.8.9-1.3.8 1.4 2 2.8 3.5 3.4.1.1.2-.1.1-.2-1.3-1.2-2.5-2.1-3.3-3.6.3-.4.6-.9.9-1.3.8 1.3 1.9 2.4 3.2 3.2.2.1.4-.1.2-.3-1.2-1-2.3-2-3.2-3.3l.6-.9c.7 1.2 1.8 2.3 3 2.7.2.1.4-.2.2-.4-.6-.5-1.3-1-1.9-1.6-.4-.4-.7-.8-1-1.3.2-.4.4-.7.7-1.1.6 1.2 1.7 2.3 3.1 2.6.2 0 .3-.2.1-.3-1.2-.7-2.3-1.5-3-2.7.2-.4.5-.8.7-1.2.9 1.3 2.1 2.5 3.6 2.9.2.1.3-.2.2-.4-.8-.6-1.6-1-2.3-1.7-.4-.4-.8-.9-1.2-1.4.3-.5.6-1 .8-1.5.7 1.2 1.8 2.3 3.2 2.6.2.1.3-.2.1-.3-1.2-.9-2.2-1.7-3-2.9.3-.6.6-1.2.9-1.7.7 1 1.5 1.9 2.6 2.4.2.1.4-.1.2-.3-.9-.9-1.8-1.7-2.5-2.7.2-.3.3-.7.5-1 .5.7 1.2 1.2 2 1.5.2.1.3-.2.2-.3-.7-.6-1.3-1.2-1.8-1.8.1-.2.2-.5.3-.8.5.7 1.2 1.4 2 1.7.2.1.3-.2.2-.3-.7-.6-1.4-1.1-1.9-1.9.2-.4.3-.8.5-1.1.5.9 1.2 1.8 2.2 2 .2.1.4-.2.2-.4-.4-.4-.9-.7-1.4-1.1-.3-.4-.6-.8-.7-1.2.2-.6.5-1.1.7-1.7.4 1 1.1 1.9 2.1 2.1.1 0 .2-.1.1-.2-.4-.5-.9-.8-1.3-1.3-.3-.4-.5-.8-.7-1.3.1-.3.3-.7.4-1 .1.3.2.5.4.7.3.4.8 1 1.3 1.1.1 0 .2-.1.2-.2-.3-.4-.8-.7-1.1-1.2-.2-.3-.4-.7-.6-1 .1-.2.1-.4.2-.6.2.3.5.5.8.6.2.1.3-.2.2-.3-.3-.3-.6-.6-.8-.9l.3-.9c.1.2.3.3.5.4.2.1.4-.1.3-.3-.2-.3-.4-.5-.6-.8.5-1.4.9-2.5 1.1-3.3.3.1.6.1.9.1.7 0 1.1.1 1.3.3.4.6.9.9 1.4 1.1-1.6 4.4-7.7 20.6-8.7 24.3-.1.5.2 1.1.7 1.2h.5c1.5 1.1 3.4 1.9 5.3 1.7.1 0 .2-.2 0-.3-1.8-.4-3.3-.7-4.8-1.6.1-.1.2-.3.3-.5.1-.3.2-.8.4-1.3 1.1.9 2.4 1.6 3.7 1.8.2 0 .2-.3.1-.4-.7-.4-1.5-.6-2.2-1-.5-.3-1-.6-1.4-1 .1-.4.3-.9.4-1.3.8.8 1.8 1.4 2.9 1.6.2 0 .3-.2.1-.4-.6-.4-1.2-.6-1.8-1-.4-.2-.7-.5-1.1-.8.1-.3.2-.7.4-1.1.7.8 1.5 1.5 2.5 1.8.2.1.4-.2.2-.4-.5-.4-1.1-.8-1.7-1.2-.3-.2-.6-.5-.8-.8.1-.4.3-.9.5-1.3.6.6 1.2 1.1 2 1.3.2.1.3-.2.1-.3-.5-.4-1-.6-1.5-1-.2-.1-.3-.3-.5-.4.2-.5.3-1 .5-1.4.5.7 1.3 1.4 2.2 1.4.2 0 .2-.2.1-.4-.5-.3-1-.5-1.4-.9-.2-.2-.4-.4-.6-.7.2-.6.4-1.2.6-1.7.4.6 1 1.2 1.8 1.3.1 0 .2-.1.1-.2-.3-.3-.8-.6-1.1-.9-.2-.2-.4-.5-.6-.8.2-.6.4-1.1.6-1.7.4.6.9 1.2 1.6 1.4.1 0 .2-.1.1-.2-.3-.3-.6-.5-.9-.8-.3-.3-.5-.6-.6-.9.1-.4.3-.8.4-1.2.4.5.7 1 1.2 1.3.1.1.3-.1.3-.2-.2-.6-.8-1.1-1.2-1.6l.3-.9c.1.2.3.3.6.3.1 0 .1-.1 0-.2-.2-.2-.3-.3-.4-.6l-.1-.1c.1-.3.2-.7.4-1 .1.1.2.1.2.2.1.1.2 0 .1-.1s-.2-.2-.3-.4c1-2.6 1.8-4.8 2.2-6 .1.1.1.1.1.2.2.3.6.5 1.1.4.1 0 .8-.1 1.2.2.2.2.4.6.4 1.1.4 1.1-.2 2.4-.8 4.1zm-7.3-5c-.1-.2-.1-.3-.2-.5-.1-.1-.2 0-.2.1.1.2.3.3.4.4 0 .1 0 0 0 0zm1.5 27.9c-2-.4-3.9-.9-5.6-1.9-.3-.1-.5.3-.2.4 1.8 1 3.8 1.8 5.8 1.8.2.1.2-.2 0-.3z" fill="#000000" stroke-width="none" opacity="1"></path></g><g id="svga-group-head" transform="matrix(1,0,0,1,0,0)"><g id="svga-group-ears-left-move" transform="matrix(1,0,0,1,0,0)"><g id="svga-group-ears-left" transform="matrix(1,0,0,1,0,0)"><path id="SvgjsPath17148" d="M62.9 81.4s-3-4.7-6.1-5.6-6.6 2.1-6.1 7.8c.6 5.7 8.7 18.9 15.9 19.7 6.2.7-1.1-18.5-3.7-21.9z" fill="#ffffff" stroke-width="none" opacity="1"></path><path id="SvgjsPath17149" d="M66.5 104.2c-7.7-.8-16.1-14.5-16.7-20.4-.3-3.4.8-6.4 3-7.9 1.3-.9 2.9-1.2 4.4-.8 3.3.9 6.2 5.3 6.6 5.9 2.1 2.7 8.5 18 5.5 22-.5.7-1.4 1.1-2.3 1.1-.3.1-.4.1-.5.1zM53.9 77.1c-1.7 1.1-2.5 3.6-2.3 6.4.5 5.4 8.5 18.3 15 18.9.4 0 .7 0 .9-.3 2.1-2.9-3.2-17.2-5.5-20.3v-.1c-.8-1.2-3.3-4.6-5.5-5.2-.2-.1-.5-.1-.7-.1-.7.2-1.3.4-1.9.7z" fill="#000000" stroke-width="none" opacity="1"></path><path id="SvgjsPath17150" d="M55.5 79.3c2.6 1.4 5 5.6 6.2 9.6v.1c0 .3-.2.4-.3.1-.4-1.2-1-1.2-1.7 0-.2.7-.1 1.5.1 2.3.2.7.5 1.4.8 1.9.6 1.2 1.4 2 2.1 3 .2.3 0 .7-.2.5-1.6-1-3.9-4.6-3.4-7.6.2-1.4 1.1-2.2 1.8-1.7-.9-2.1-1.9-3.9-3.2-5.4-.7-.8-2.3-2.7-3.1-2.3-1.5.6-.7 4.6-.5 6.4 0 .3-.2.4-.3.1-1-2.9-1.1-8.5 1.7-7z" fill="#000000" stroke-width="none" opacity="1"></path><path id="SvgjsPath17151" d="M61.9 97.8c-2.8-.9-4.8-4.6-6-8.8-.7-2.5-2.1-8.3.6-8.2.2 0 .3.5.1.6-2.5 1.1.2 8.9 1 10.7 1.1 2.6 2.5 4.3 4.3 5.2.2.2.2.6 0 .5z" fill="#000000" stroke-width="none" opacity="1"></path></g></g><g id="svga-group-ears-right-move" transform="matrix(1,0,0,1,0,0)"><g id="svga-group-ears-right" transform="matrix(1,0,0,1,0,0)"><path id="SvgjsPath17152" d="M137.1 81.4s3-4.7 6.1-5.6 6.6 2.1 6.1 7.8c-.6 5.7-8.7 18.9-15.9 19.7-6.2.7 1.1-18.5 3.7-21.9z" fill="#ffffff" stroke-width="none" opacity="1"></path><path id="SvgjsPath17153" d="M133.1 104.2c-1 0-1.8-.4-2.3-1.1-2.9-4 3.4-19.3 5.5-22 .4-.6 3.3-5.1 6.6-5.9 1.5-.4 3-.1 4.4.8 2.2 1.5 3.3 4.4 3 7.9-.6 5.9-9 19.6-16.7 20.4-.2-.1-.3-.1-.5-.1zm11.1-27.6c-.2 0-.5 0-.7.1-2.2.6-4.7 3.9-5.5 5.2v.1c-2.4 3-7.7 17.4-5.5 20.3.2.3.4.4.9.3 6.5-.7 14.5-13.6 15-18.9.3-2.9-.6-5.3-2.3-6.4-.6-.5-1.2-.7-1.9-.7z" fill="#000000" stroke-width="none" opacity="1"></path><path id="SvgjsPath17154" d="M144.5 79.3c-2.6 1.4-5 5.6-6.2 9.6v.1c0 .3.2.4.3.1.4-1.2 1-1.2 1.7 0 .2.7.1 1.5-.1 2.3-.2.7-.5 1.4-.8 1.9-.6 1.2-1.4 2-2.1 3-.2.3 0 .7.2.5 1.6-1 3.9-4.6 3.4-7.6-.2-1.4-1.1-2.2-1.8-1.7.9-2.1 1.9-3.9 3.2-5.4.7-.8 2.3-2.7 3.1-2.3 1.5.6.7 4.6.5 6.4 0 .3.2.4.3.1 1-2.9 1.1-8.5-1.7-7z" fill="#000000" stroke-width="none" opacity="1"></path><path id="SvgjsPath17155" d="M138.1 97.8c2.8-.9 4.8-4.6 6-8.8.7-2.5 2.1-8.3-.6-8.2-.2 0-.3.5-.1.6 2.5 1.1-.2 8.9-1 10.7-1.1 2.6-2.5 4.3-4.3 5.2-.2.2-.2.6 0 .5z" fill="#000000" stroke-width="none" opacity="1"></path></g></g><g id="svga-group-faceshape-wrap" transform="matrix(1,0,0,1,0,0)"><g id="svga-group-faceshape-single"><path id="SvgjsPath17133" d="M138.2 58.2c-2-10.8-13.3-27.4-37.2-27.4-23.9 0-31.9 12.7-35.5 22.2-3 8.1-3 21.3-3 21.3s-1.6 19.2-.1 23.7 8.7 8.7 12.9 18.3c4.2 9.6 4.5 13.5 7.5 18s26.1 7.5 30 2.7c3.9-4.8 7.5-18.6 9.3-21.6 1.8-3 12.9-9.9 15-14.7 2.1-4.8 2.3-26.4 2.3-26.4s.2-8.4-1.2-16.1z" fill="#ffffff" stroke-width="none" opacity="1"></path><path id="SvgjsPath17134" d="M103 140.8c-.8 0-1.6 0-2.3-.1-7.6-.4-16.8-2.5-18.9-5.7-1.8-2.7-2.7-5.1-3.9-8.5-.9-2.5-2-5.6-3.8-9.7-2.3-5.3-5.6-8.9-8.3-11.8-2.1-2.3-4-4.4-4.7-6.6-1.5-4.6-.2-21.9 0-24.2 0-1.1.1-13.7 3.1-21.7 5.8-15.5 17.8-23 36.7-23 10.9 0 20.5 3.4 27.7 10 5.5 5 9.6 11.9 10.8 18.5 1.4 7.7 1.2 16 1.2 16.4 0 2.2-.3 22-2.4 26.9-1.4 3.1-5.8 6.7-9.7 9.9-2.4 1.9-4.8 3.9-5.4 5-.6 1-1.5 3.6-2.5 6.5-1.9 5.4-4.3 12.1-6.9 15.3-1.8 2.3-6.9 2.8-10.7 2.8zm-2-108.7c-17.7 0-28.9 7-34.3 21.3-2.9 7.8-2.9 20.8-2.9 20.9v.2c-.4 5.3-1.3 19.7-.1 23.2.6 1.7 2.2 3.5 4.2 5.6 2.8 3.1 6.2 6.9 8.7 12.5 1.8 4.2 2.9 7.3 3.8 9.8 1.2 3.3 2 5.5 3.6 8 1.2 1.8 8.5 4.1 16.9 4.5 5.5.3 9.9-.5 11-1.9 2.3-2.9 4.7-9.6 6.5-14.5 1.1-3.2 2-5.7 2.7-6.9.9-1.4 3.1-3.3 6-5.6 3.5-2.8 7.8-6.4 8.9-8.9 1.6-3.7 2.1-20 2.2-25.9 0-.1.2-8.4-1.2-15.9-1.1-6-4.8-12.4-10-17-6.7-6.2-15.7-9.4-26-9.4z" fill="#000000" stroke-width="none" opacity="1"></path></g></g><g id="svga-group-mouth-single-move" transform="matrix(1,0,0,1,0,0)"><g id="svga-group-mouth-single" transform="matrix(1,0,0,1,0,0)"><path id="SvgjsPath17212" d="M113.77 117.76c-.37.06-.74.14-1.11.21-2.95-1-5.96-1.67-9.06-2.03-.11-.01-.16.04-.2.12-1.14.59-2.28 1.18-3.43 1.78-1.21-.44-2.36-1-3.45-1.67-.12-.08-.24-.02-.3.07l-8.19 2.31c-.03.01-.03.03-.05.04-.44-.04-.88-.09-1.32-.12-.63-.04-.63.94 0 .98.52.03 1.03.08 1.55.14 3.7 3.09 7.35 7.51 12.61 7.33 5.19-.18 8.91-4.27 12.02-7.98.4-.08.79-.15 1.19-.22.62-.13.36-1.07-.26-.96zm-17.32-1.09c1.09.65 2.23 1.2 3.42 1.64.03.01.04-.01.07 0 .06.03.13.03.21-.01 1.19-.62 2.38-1.24 3.58-1.85 2.71.32 5.35.9 7.94 1.72-3.46.71-6.98 1.58-10.47 1.8-4.03.25-8-.73-11.99-1.25 2.41-.69 4.83-1.37 7.24-2.05zm4.37 9.75c-4.89.13-8.3-3.75-11.73-6.74 4.11.52 8.2 1.56 12.35 1.25 3.56-.27 7.12-1.14 10.64-1.85-2.92 3.46-6.46 7.21-11.26 7.34z" fill="#000000" stroke-width="none" opacity="1"></path></g></g><g id="svga-group-eyes-left-move" transform="matrix(1,0,0,1,0,0)"><g id="svga-group-eyes-left" transform="matrix(1,0,0,1,0,0)"><g id="svga-group-eyesback-left"></g><g id="svga-group-eyesiriswrapper-left"><g id="svga-group-eyesiriscontrol-left" transform="matrix(1,0,0,1,0,0)"><g id="svga-group-eyesiris-left" transform="matrix(1,0,0,1,0,0)"><path id="SvgjsPath17186" d="M84.9 84.8c-1-1.9-3.2-2.7-5.2-2-2.2.8-3.8 3-3.1 5.4.4 1.2 1.5 2.4 2.8 2.7.4.1.9.1 1.4.1.5.1 1.1 0 1.7-.2 2.5-.8 3.6-3.7 2.4-6z" fill="#ffffff" stroke-width="none" opacity="1"></path><path id="SvgjsPath17187" d="M83.8 85.5c0-.1-.1-.1-.1-.2-.7-1.2-2.1-1.8-3.4-1.5.5 1 .8 2.1.9 3.2 0 .2-.3.4-.4.2-.9-.7-1.6-1.4-2.1-2.4-.3.3-.5.7-.6 1.1-.1.3-.1.6-.1.8-.2.9 0 1.8.7 2.4.3.3.7.4 1.1.5 1.1.6 2.4.5 3.4-.5l.2-.2c.4-.4.7-1 .9-1.6 0-.6-.1-1.3-.5-1.8zm-2.5 5.7h-.4c-.5 0-1 0-1.4-.1-1.3-.3-2.4-1.4-2.9-2.8-.8-2.5.9-4.8 3.1-5.5 2.1-.8 4.4.1 5.4 2 .6 1.1.7 2.5.2 3.7s-1.4 2.1-2.6 2.5c-.5.1-1 .2-1.4.2zm-.4-.3c.6.1 1.1 0 1.6-.2 1.1-.4 2-1.2 2.4-2.4.4-1.1.4-2.3-.2-3.4-.9-1.8-3.1-2.6-5-1.9-2.1.7-3.7 2.9-3 5.2.4 1.3 1.5 2.3 2.7 2.6.5.1 1 .1 1.5.1z" fill="#000000" stroke-width="none" opacity="1"></path></g></g></g><g id="svga-group-eyesfront-left"><path id="SvgjsPath17276" d="M81 74.4c-6.9 0-12.5 5.6-12.5 12.5S74.1 99.4 81 99.4s12.5-5.6 12.5-12.5S87.9 74.4 81 74.4zm9.1 15c-.5.3-4.7 1.4-9.7 1-5-.5-7.9-1.4-7.9-1.4s-1.8-.6-1.6-1.3c.2-.7 2-3 4.9-3.8s5.8-.8 8.1-.3c2.2.5 5.3 2.4 6.2 3.5s.5 2.1 0 2.3z" fill="#ffffff" stroke-width="none" opacity="1"></path><path id="SvgjsPath17277" d="M78.8 82.6c-6.5.6-8.3 4.7-8.4 4.9-.1.3 0 .6.3.7s.5 0 .7-.3c.1-.2 1.7-3.8 7.6-4.3 5-.5 10.3 2.6 11.2 4.5.1.2.2.4.1.6-1.1 1.3-8.1 2.2-18.4-.5-.3-.1-.5.1-.6.4s.1.5.4.6c4.7 1.2 9 1.8 12.4 1.8 3.6 0 6.2-.6 7.1-1.6.2-.3.5-.8 0-1.7-1.4-2.4-7.2-5.5-12.4-5.1zm10.5 8.1s-4.3 3-12.2 3c-.3 0-.5.2-.5.5s.2.5.5.5c8.3 0 12.6-3.1 12.8-3.2.2-.2.3-.5.1-.7-.1-.2-.5-.3-.7-.1zm2.8-6.7c-.2-.2-.5 0-.4.2.2.8.5 1.6.5 2.4 0 .9-.3 1.6-.4 2.4 0 .2.2.4.4.2 1.2-1.2 1.2-4-.1-5.2z" fill="#000000" stroke-width="none" opacity="1"></path></g></g></g><g id="svga-group-eyes-right-move" transform="matrix(1,0,0,1,0,0)"><g id="svga-group-eyes-right" transform="matrix(1,0,0,1,0,0)"><g id="svga-group-eyesback-right"></g><g id="svga-group-eyesiriswrapper-right"><g id="svga-group-eyesiriscontrol-right" transform="matrix(1,0,0,1,0,0)"><g id="svga-group-eyesiris-right" transform="matrix(1,0,0,1,0,0)"><path id="SvgjsPath17188" d="M123.4 84.8c-1-1.9-3.2-2.7-5.2-2-2.2.8-3.8 3-3.1 5.4.4 1.2 1.5 2.4 2.8 2.7.4.1.9.1 1.4.1.5.1 1.1 0 1.7-.2 2.5-.8 3.6-3.7 2.4-6z" fill="#ffffff" stroke-width="none" opacity="1"></path><path id="SvgjsPath17189" d="M122.3 85.5c0-.1-.1-.1-.1-.2-.7-1.2-2.1-1.8-3.4-1.5.5 1 .8 2.1.9 3.2 0 .2-.3.4-.4.2-.9-.7-1.6-1.4-2.1-2.4-.3.3-.5.7-.6 1.1-.1.3-.1.5-.1.8-.2.9 0 1.8.7 2.4.3.3.7.4 1.1.5 1.1.6 2.4.5 3.4-.5l.2-.2c.4-.4.7-1 .9-1.6 0-.6-.1-1.3-.5-1.8zm-2.6 5.7h-.4c-.5 0-1 0-1.4-.1-1.3-.3-2.4-1.4-2.9-2.8-.8-2.5.9-4.8 3.1-5.5 2.1-.8 4.4.1 5.4 2 .6 1.1.7 2.5.2 3.7s-1.4 2.1-2.6 2.5c-.4.1-.9.2-1.4.2zm-.3-.3c.6.1 1.1 0 1.6-.2 1.1-.4 2-1.2 2.4-2.4.4-1.1.4-2.3-.2-3.4-.9-1.8-3.1-2.6-5-1.9-2.1.7-3.7 2.9-3 5.2.4 1.3 1.5 2.3 2.7 2.6.5.1 1 .1 1.5.1z" fill="#000000" stroke-width="none" opacity="1"></path></g></g></g><g id="svga-group-eyesfront-right"><path id="SvgjsPath17278" d="M119 74.4c-6.9 0-12.5 5.6-12.5 12.5s5.6 12.5 12.5 12.5 12.5-5.6 12.5-12.5-5.6-12.5-12.5-12.5zm8.4 14.7s-2.9.9-7.9 1.4-9.2-.7-9.7-1-.9-1.1 0-2.2 4-3 6.2-3.5 5.1-.6 8.1.3 4.7 3.1 4.9 3.8c.1.6-1.6 1.2-1.6 1.2z" fill="#ffffff" stroke-width="none" opacity="1"></path><path id="SvgjsPath17281" d="M129.5 87.6c-.1-.2-1.9-4.3-8.4-4.9-5.2-.5-11 2.7-12.2 5-.5.9-.2 1.4 0 1.7.8 1 3.4 1.6 7.1 1.6 3.4 0 7.7-.5 12.4-1.8.3-.1.4-.3.4-.6-.1-.3-.3-.4-.6-.4-10.3 2.7-17.4 1.7-18.4.5-.1-.1 0-.4.1-.6 1-1.8 6.3-4.9 11.2-4.5 5.9.5 7.5 4.2 7.6 4.3.1.3.4.4.7.3.1-.1.2-.4.1-.6zm-6.7 6.1c-7.9 0-12.2-3-12.2-3-.2-.2-.5-.1-.7.1s-.1.5.1.7c.2.1 4.5 3.2 12.8 3.2.3 0 .5-.2.5-.5s-.2-.5-.5-.5z" fill="#000000" stroke-width="none" opacity="1"></path></g></g></g><g id="svga-group-facehighlight-single"></g><g id="svga-group-eyebrows-left-move" transform="matrix(1,0,0,1,0,0)"><g id="svga-group-eyebrows-left-rotate" transform="matrix(1,0,0,1,0,0)"><g id="svga-group-eyebrows-left" transform="matrix(1,0,0,1,0,0)"><path id="SvgjsPath17240" d="M68.11 77.61c.15-.21 3.71-5.16 11.21-5.22h.13c6.02 0 10.44 2.99 11.82 4.89.46.64.63 1.21.49 1.65-.1.3-.31.5-.59.58-.08.02-.16.03-.25.03-.95 0-2.43-1.23-4.12-2.7-.36-.31-.66-.58-.86-.73-1.78-1.36-5.27-2.64-8.23-2.31-3.55.39-5.45 1.11-9 4.35-.15.14-.39.14-.55 0-.15-.13-.17-.37-.05-.54z" fill="#000000" stroke-width="none" opacity="1"></path></g></g></g><g id="svga-group-eyebrows-right-move" transform="matrix(1,0,0,1,0,0)"><g id="svga-group-eyebrows-right-rotate" transform="matrix(1,0,0,1,0,0)"><g id="svga-group-eyebrows-right" transform="matrix(1,0,0,1,0,0)"><path id="SvgjsPath17241" d="M131.89 77.61c-.15-.21-3.71-5.16-11.21-5.22h-.13c-6.02 0-10.44 2.99-11.82 4.89-.46.64-.63 1.21-.49 1.65.1.3.31.5.59.58.08.02.16.03.25.03.95 0 2.43-1.23 4.12-2.7.36-.31.66-.58.86-.73 1.78-1.36 5.27-2.64 8.23-2.31 3.55.39 5.45 1.11 9 4.35.15.14.39.14.55 0 .15-.13.17-.37.05-.54z" fill="#000000" stroke-width="none" opacity="1"></path></g></g></g><g id="svga-group-nose-single-move" transform="matrix(1,0,0,1,0,0)"><g id="svga-group-nose-single" transform="matrix(1,0,0,1,0,0)"><path id="SvgjsPath17221" d="M107 108.4c-.7-.6-1.8-.6-2.6-.4-2.2.5-3.6 2.5-6 1.4-1.4-.6-2.7-1.8-4.3-1.9-.8-.1-1.9.1-2.4.8-.4.6-.1 1.3.6 1.6 1.1.6 2.6-.1 3.7-.6 1.1.6 2.2 1.4 3.5 1.6s2.4-.4 3.5-1l.6-.3c1 .5 2.5 1.1 3.5.4.4-.4.4-1.1-.1-1.6zm-14.3.5c.3-.4 1.1-.3 1.7-.2-.1 0-.2.1-.3.1-.2 0-1.4.1-1.4.1z" fill="#000000" stroke-width="none" opacity="1"></path><path id="SvgjsPath17222" d="M96.7 100.5c-.1-6.5.1-13 .7-19.5.1-.7-1.1-.7-1.1 0-.6 6.5-.8 13-.7 19.5 0 .8 1.1.8 1.1 0z" fill="#000000" stroke-width="none" opacity="1"></path></g></g><g id="svga-group-hair-front" transform="matrix(1,0,0,1,0,0)"><path id="SvgjsPath17323" d="M78.9 49.1s9.9 9.3 21.2 11.7 22.6 2.9 28 5.8c5.4 2.9 9.5 16.6 6.2 33.5 0 0 3.7-4.7 5.8-13.6s2.5-21 1.4-29.6-8.9-20.2-20.8-27.5-38.9-8-46.1 6c0 0-7.2 1.6-11.3 10.9S52 73.8 67.4 99.8c0 0-3.7-14.4-1.9-23.9 1.8-9.5 7-13.6 8.8-16.5 3.5-5.8 4.6-10.3 4.6-10.3z" fill="#ffffff" stroke-width="none" opacity="1"></path><path id="SvgjsPath17324" d="M142.6 56.7c-1.1-8-8.2-20.2-21.3-28.2-8.5-5.1-22.9-6.7-33.7-3.7-6.4 1.8-11.2 5.2-13.7 9.7-1.7.5-7.8 2.9-11.5 11.3-3.6 8.1-11.9 27.2 4.1 54.4.2.4.8.6 1.2.4s.7-.7.6-1.2c0-.1-3.6-14.3-1.9-23.5 1.3-7 4.4-10.8 6.7-13.7.8-.9 1.4-1.8 1.9-2.5 2.4-3.9 3.7-7.2 4.3-9.1 3 2.5 11.2 9 20.5 10.9 4 .8 7.9 1.4 11.7 2 6.8 1 12.7 1.9 16 3.7 4.6 2.4 9.1 15.1 5.7 32.4-.1.4.1.9.6 1.1.1.1.3.1.4.1.3 0 .6-.1.8-.4.2-.2 3.9-4.9 6-14 2.3-8.4 2.9-20.5 1.6-29.7zM88.2 26.8c10.1-2.9 24.2-1.3 32.1 3.5 6.1 3.7 10.9 8.5 14.4 13.4C117.1 34.9 97.4 32 78 35.4c-.8.1-.5 1.3.3 1.2 19.6-3.4 39.7-.3 57.3 9 .1.1.2.1.3.1 1.4 2.2 2.6 4.5 3.3 6.6-6-6.3-15.7-9.1-23.8-10.6-13.2-2.6-26.8-2.2-40-5 0-.2-.1-.3-.1-.5 0 0 .1-.1.1-.2 2.3-4.3 6.7-7.5 12.8-9.2zm-14 9.8c.1.8.3 1.5.5 2.3h-.1c-4.6 2.3-8.5 5.8-11.3 9.9.3-.8.6-1.5.9-2.1 3.2-7.2 8.3-9.5 10-10.1zM60.5 57.3c.2-.1.3-.2.4-.4 2.3-7.3 7.4-13.2 14.2-16.8.2.6.3 1.1.5 1.7-.1 0-.2.1-.3.2-12.2 10.7-17.2 26.7-13.9 42-3.4-11-2.7-19.9-.9-26.7zm4 34.8c.2 0 .3-.1.4-.2.1.5.2 1 .2 1.5-.2-.5-.4-.9-.6-1.3zM78 48.8s-1.2 4.4-4.6 10.1c-.4.7-1 1.4-1.7 2.3-2 2.5-4.9 6-6.5 11.9 2-9.2 8.8-17.9 10.9-27 .2-.8-1-1.1-1.2-.3-3 12.5-14.5 24.3-10.8 37.8.1 2.4.3 4.9.6 7.1-6.6-17-2.3-35.5 11.2-47.7.6 1.8 1.4 3.6 2.3 5.4-.1.1-.2.3-.2.4zm61.3 37.4c-.9 3.7-2 6.6-3.1 8.8 1.7-14.8-2.3-26.5-7.6-29.3-3.7-2-9.7-2.9-16.7-4-3.8-.6-7.7-1.2-11.6-2-10.7-2.2-20.3-11-20.7-11.4-1.8-3.3-3.1-6.8-3.9-10.5 10.8 2.2 21.7 2.5 32.6 3.8 10.7 1.3 25.3 4.1 31.9 13.6.1.6.2 1.2.3 1.7 1.3 8.9.8 21-1.2 29.3zM122.1 56c-13.3-4.4-28.6-2.3-40.1-11.5-.6-.5-1.5.4-.9.9 8.5 6.8 18.9 7.8 29.3 9.3 12.2 1.9 27.6 6.7 28.4 21.4 0 .8 1.3.8 1.2 0-.5-10.3-8.6-17-17.9-20.1zm5.2-2.5c-14.8-8.6-34.7-2.4-48-14.1-.6-.5-1.5.3-.9.9 13.5 11.9 33.3 5.6 48.2 14.3.8.4 1.4-.7.7-1.1zM92.5 43.3c15.9 2.2 37.3 1.2 45.6 18.2.4.7 1.4.1 1.1-.6-8.4-17.3-30-16.6-46.3-18.8-.8-.1-1.1 1.1-.4 1.2zm-13-9c11.7-5.4 24.8-5.5 36.7-.5.7.3 1.1-.9.3-1.2-12.2-5.1-25.7-4.8-37.7.7-.6.2 0 1.3.7 1z" fill="#000000" stroke-width="none" opacity="1"></path></g><g id="svga-group-glasses-single-move" transform="matrix(1,0,0,1,0,0)"><g id="svga-group-glasses-single" transform="matrix(1,0,0,1,0,0)"></g></g></g></g></g><rect id="svga-credit-rect" width="200" height="15" x="0" y="185" fill="#ecf0f1" opacity="0.5" style="display: none;"></rect><text id="svga-credit-text" font-family="Avenir Next, Roboto, Helvetica, Arial, sans-serif" font-size="10px" text-anchor="start" font-weight="400" size="10px" anchor="start" weight="400" fill="#333333" x="33.402061462402344" y="182.71133995056152" style="display: none;"><tspan id="SvgjsTspan16711" dy="13" x="33.402061462402344">Created on AvatarMaker.com</tspan></text></g></svg>