<svg xmlns="http://www.w3.org/2000/svg" version="1.1" width="600px" height="600px" viewBox="0 0 200 200" style="overflow:hidden!important;"><defs id="SvgjsDefs25425"></defs><g id="svga-group-wrapper"><g id="svga-group-backs-single"></g><g id="svga-group-humanwrap-move" transform="matrix(1,0,0,1,0,0)"><g id="svga-group-humanwrap" transform="matrix(1,0,0,1,0,0)"><g id="svga-group-hair-back-move" transform="matrix(1,0,0,1,0,0)"><g id="svga-group-hair-back" transform="matrix(1,0,0,1,0,0)"><path id="SvgjsPath26186" d="M106.94 24.3S82.78 4.67 52.57 33.86s-1.01 74.5 4.03 84.57-5.79 22.15-13.59 18.88c0 0 4.03 10.32 16.11 7.8 0 0 5.54 4.28 12.84 1.51 0 0 4.28 7.55 17.12 4.03 0 0 6.8 6.29 17.12 1.76 0 0 13.34 4.53 19.88-.76 0 0 12.33 2.77 18.12-4.28 0 0 12.33 2.27 17.87-8.05 0 0-10.32 1.01-12.58-9.06-2.27-10.07 3.02-16.61 9.31-29.45s7.63-43.21-6.72-60.67C138 23.03 120.78 21.03 106.94 24.3z" fill="#ffffff" stroke-width="none" opacity="1"></path><path id="SvgjsPath26187" d="M161.96 138.33c-.39.03-9.46.82-11.51-8.29-1.74-7.73 1.21-13.35 5.68-21.85 1.14-2.17 2.31-4.4 3.56-6.94 6.69-13.64 7.34-44.48-6.85-61.75-15.98-19.44-35.29-18.63-45.67-16.28-3.35-2.4-26.93-17.49-55.29 9.92-28.04 27.11-6.24 67.17 1.97 82.25.76 1.4 1.42 2.6 1.86 3.49 2.75 5.51.28 11.15-2.68 14.32-2.95 3.15-6.73 4.41-9.63 3.19a.983.983 0 0 0-1.08.21.99.99 0 0 0-.23 1.08c.04.11 4.38 10.84 16.81 8.5 1.39.92 6.33 3.71 12.67 1.64 1.47 1.89 6.41 6.72 17.26 3.93 1.7 1.34 8.17 5.6 17.41 1.73 1.34.42 5.95 1.75 10.81 1.75 3.28 0 6.68-.6 9.27-2.5 2.35.44 12.66 1.94 18.28-4.29 2.61.3 13.24.87 18.35-8.64a1.003 1.003 0 0 0-.99-1.47zm-35.68 12.35h-.02c-8.79-14.39-6.01-29.95 2.94-43.53 7.69-11.65 15.47-22.65 17.27-36.9 1.48-11.68-1.38-24.28-9.42-33.15-7.63-8.42-19.33-12.32-30.4-9.51-.78.2-.45 1.4.33 1.21 14.01-3.56 27.96 4.17 34.33 16.77 6.95 13.75 4.71 29.92-1.98 43.29-5.44 10.87-14.63 19.83-18.29 31.59-3.22 10.34-1.51 21.51 4.03 30.7-6.17 4.46-18.46.37-18.59.33a.86.86 0 0 0-.32-.05c-.14 0-.27.03-.4.08-9.56 4.2-15.78-1.34-16.03-1.58a.983.983 0 0 0-.94-.23c-9.6 2.64-14.02-1.15-15.45-2.83 19.14-18.95-7.66-49.08-15.14-67.15-5.88-14.2-5.58-29.87 5.1-41.76 10.02-11.16 26.18-14.06 39.85-8.51.74.3 1.07-.91.33-1.21-23.15-9.4-49.66 6.65-50.6 32.05-.51 14.29 7.37 27.01 14.22 38.95 7.52 13.09 18.3 33.52 5.47 46.6a.988.988 0 0 0-.98-.16c-6.66 2.52-11.66-1.21-11.87-1.37-.04-.03-.09-.04-.13-.06 9.1-4.79 10.11-16.67 6.76-25.9-2.5-6.88-6.88-12.89-10.48-19.21-4.19-7.36-7.76-15.14-9.67-23.42-3.66-15.89-.1-32.51 12.3-43.64 12.69-11.4 31.22-13.18 46.26-5.51.13.21.36.35.67.29 13.89-2.92 28.34.72 37.68 11.81 10.11 12 10.67 27.28 6.25 41.76-6.36 20.83-22.78 46.64-6.54 66.96-5.55 5.65-16.43 3.31-16.54 3.29zm18.09-4.29c-.23-.04-.47.01-.67.12-20.55-25.64 11.36-57.88 9.71-85.41-.67-11.08-6.17-21.72-14.87-28.63-9.34-7.42-21.53-9.2-32.99-6.9l-.03-.03C81.36 13.16 50.88 26.11 44.65 53c-3.42 14.76 1.17 29.85 8.02 42.9 4.12 7.85 9.87 15.12 12.74 23.57 3.15 9.26 1.75 21.37-8.96 24.75-.16.05-.27.15-.34.27-6.23.27-9.63-3.34-11.16-5.67 3.19.32 6.67-1.2 9.53-4.26 3.4-3.63 6.22-10.15 3.01-16.58-.46-.92-1.12-2.14-1.89-3.55-8.01-14.71-29.29-53.8-2.34-79.85 29.18-28.2 52.08-10.28 53.04-9.51.24.19.56.27.86.2 11.98-2.83 29.38-2.45 44.12 15.5 13.69 16.67 13.05 46.43 6.6 59.6-1.23 2.51-2.4 4.74-3.53 6.89-4.51 8.58-7.76 14.77-5.86 23.22 1.82 8.08 8.5 9.58 11.79 9.82-5.41 7.89-15.47 6.17-15.91 6.09z" fill="#000000" stroke-width="none" opacity="1"></path></g></g><g id="svga-group-humanbody-back"><path id="SvgjsPath25683" d="M86.5 122c0 18.8 2.7 50.3-8.1 58s-31.8 13.9-36.7 24.4-3.6 14.4-3.6 14.4h124.1s.6-8.1-4.2-15.4c-6.6-10.1-28.5-17.7-36.5-22.9-8.1-5.2-10.9-32.2-10.9-58.8l-24.1.3z" fill="#ffffff" stroke-width="none" opacity="1"></path></g><g id="svga-group-chinshadow-single"></g><g id="svga-group-humanbody-front"><path id="SvgjsPath25684" d="M163.4 220.1H37.2l-.3-.9c-.1-.5-1.3-4.7 3.6-15.3 3.4-7.3 13.6-12.4 23.5-17.4 5.1-2.5 9.9-5 13.6-7.5 8.6-6 8.1-29.8 7.7-47.1-.1-3.5-.1-6.8-.1-9.8v-1.3l26.7-.4v1.3c0 32 3.8 53.5 10.3 57.7 2.4 1.6 6 3.3 10.2 5.4 9.7 4.7 21.9 10.6 26.7 18 5 7.6 4.4 15.9 4.4 16.2l-.1 1.1zm-124.1-2.6h121.6c-.1-2.4-.6-8.2-4-13.4-4.4-6.7-16.2-12.5-25.6-17-4.3-2.1-8-3.9-10.5-5.5-9.8-6.3-11.4-38.8-11.5-58.6l-21.5.4c0 2.6.1 5.5.1 8.5.4 18.9.9 42.4-8.8 49.3-3.8 2.7-8.7 5.1-13.9 7.7-9.5 4.8-19.4 9.7-22.3 16.1-3.3 6.9-3.7 10.9-3.6 12.5z" fill="#000000" stroke-width="none" opacity="1"></path><path id="SvgjsPath25685" d="M76.8 188.7c4.8 2.3 10.4 3.9 15.7 2.9.4-.1.4-.7 0-.8-5.1-.9-10.2-1.4-15.2-3.2-.6-.2-1.1.8-.5 1.1z" fill="#000000" stroke-width="none" opacity="1"></path><path id="SvgjsPath25686" d="M108.3 191.1c2.4.3 4.9-.4 7.1-1.2 2.1-.8 4.3-1.7 5.8-3.4.5-.5-.1-1.2-.7-.9-2.1.9-3.9 2.3-6.1 3-2 .7-4.1 1-6.2 1.5-.6.1-.4.9.1 1z" fill="#000000" stroke-width="none" opacity="1"></path></g><g id="svga-group-clothes-single"><path id="SvgjsPath26119" d="M156.05 198.79s-23.03 2.08-57.59 2.27c-34.55.19-52.11-4.34-52.11-4.34s-5.48 4.72-7.93 7.55c-2.45 2.83-7.36 4.53-7.36 4.53s.57 4.91 3.4 4.53c2.83-.38 6.61-2.27 8.31-2.08 1.7.19.94 3.21 3.96 3.4s4.72-2.45 6.99-2.08c1.29.22 2.52 1.41 3.8 2.15l-.45 4.08h87.23v-2.9c.75-.43 1.49-.99 1.94-1.44.94-.94 3.96-.19 5.48.76s3.78-.94 5.29-2.83c1.51-1.89 5.48-.19 8.31-.57 2.83-.38 3.78-2.83 3.78-2.83-3.8-1.52-13.05-10.2-13.05-10.2z" fill="#ffffff" stroke-width="none" opacity="1"></path><path id="SvgjsPath26120" d="M169.44 208.05c-2.95-1.18-10.18-7.62-12.71-10-.21-.2-.49-.29-.77-.27-.23.02-23.39 2.08-57.5 2.26-33.98.21-51.68-4.26-51.85-4.31-.32-.08-.65 0-.9.21-.23.2-5.56 4.8-8.03 7.65-2.25 2.59-6.89 4.23-6.94 4.24-.44.15-.72.59-.67 1.06.04.35.44 3.41 2.19 4.78.68.53 1.48.75 2.33.63 1.4-.19 2.94-.69 4.42-1.18 1.45-.48 2.96-.97 3.65-.89.13.01.24.17.52.77.44.93 1.17 2.48 3.49 2.63 1.85.12 3.27-.66 4.42-1.29.95-.52 1.71-.93 2.46-.8.65.11 1.39.63 2.17 1.18.23.16.48.33.73.5l-.38 3.46c-.03.28.06.57.25.78s.46.33.75.33h87.23c.55 0 1-.45 1-1v-2.34c.76-.5 1.39-1.03 1.65-1.3.38-.38 2.75-.03 4.24.9.29.18.6.28.92.33a1.004 1.004 0 0 0 1.19.1c.07-.04.12-.11.18-.17 1.34-.36 2.84-1.49 4.31-3.33.6-.75 2.31-.55 3.97-.35 1.24.15 2.51.31 3.69.15 3.38-.45 4.53-3.34 4.58-3.46.17-.49-.08-1.07-.59-1.27zm-111.08 8.12c.82.23 1.69.24 2.63-.27l.69-.37c1.94-1.05 2.64-1.41 3.35-1.1.2.08.56.58.83.93.82 1.11 2.2 2.96 4.68 1.9 1.06-.46 1.74-.89 2.23-1.21.76-.49.92-.59 1.71-.43.55.11.97.38 1.44.7.85.56 1.91 1.26 3.71.8.88-.22 1.75-.7 2.59-1.16.86-.48 1.55-.83 2.11-.97.08.02.16.05.24.05.15 0 .29-.04.41-.09.2.03.37.11.53.25 2.18 1.96 6.03 2.86 7.64 1.79.18-.12.37-.25.57-.4.78-.56 1.97-1.4 2.53-1.08 1.75 1 4.51 1.69 6.53.34 1.3-.87 2.27-.75 3.46.44.82.82 1.9 1.24 3.03 1.16 1.34-.08 2.64-.82 3.57-2.01.05-.06.18-.23.63-.26 1.32-.1 3.5 1.14 4.35 1.99.34.34.76.53 1.23.62H58.17l.19-1.62zm71.37.73c0 .01.01.01.01.01.01.01.02.03.03.04.33.46.7.71 1.03.85h-10.38c1.57-.23 3.46-1.12 5.22-2.03l.45-.23c1.08-.53 2.81.11 3.64 1.36zm13.55.9h-10.77c.77-.26 1.5-.8 2.18-1.29.33-.25.65-.48.89-.62.52-.25 3.03.25 6.17 1.51.46.18.99.16 1.53.01v.39zm21.89-6.98c-.92.12-2.07-.02-3.18-.15-2.2-.27-4.47-.54-5.77 1.08-1.08 1.35-2.23 2.29-3.07 2.59-1.12-1.84-3.93-6.48-4.93-8.59a.994.994 0 0 0-1.33-.48c-.5.23-.71.83-.48 1.33.78 1.65 2.55 4.67 3.87 6.88-1.7-.55-3.74-.75-4.75.27-.94.94-2.61 1.87-3.03 1.8-2.77-1.11-6.4-2.25-7.9-1.39-.35.2-.71.46-1.09.74-.54.4-1.54 1.13-1.94 1.06a.305.305 0 0 1-.1-.07c-.34-1.16-2.46-8.33-2.74-10.17a.998.998 0 0 0-1.14-.84c-.55.08-.92.59-.84 1.14.21 1.33 1.23 5.01 1.99 7.67-.57-.22-1.17-.34-1.76-.34-.62 0-1.23.13-1.78.4l-.47.24c-4.33 2.22-5.29 1.98-5.49 1.78-1.16-1.16-3.85-2.69-5.89-2.58-.88.05-1.6.41-2.08 1.03-.57.73-1.36 1.19-2.12 1.24-.55.04-1.07-.16-1.49-.58-.72-.72-1.47-1.19-2.24-1.42l-.6-7.83a.997.997 0 1 0-1.99.15l.59 7.63c-.57.14-1.15.39-1.74.78-1.35.9-3.49.12-4.42-.41-1.68-.96-3.49.33-4.69 1.18-.18.13-.36.25-.52.36-.61.41-3.52-.1-5.2-1.61-.41-.37-.84-.59-1.28-.7.01-2.01.04-6.41.16-8.21a.99.99 0 0 0-.93-1.06c-.54-.02-1.03.38-1.06.93-.13 1.91-.15 6.49-.16 8.45-.81.25-1.6.69-2.32 1.08-.73.4-1.48.82-2.11.98-.95.24-1.4-.05-2.13-.54-.54-.36-1.22-.8-2.15-.98-1.58-.32-2.32.16-3.18.71-.46.3-1.03.66-1.94 1.05-.89.38-1.31.06-2.29-1.25-.31-.42-.63-.83-1.01-1.16.09-1.36.38-5.02 1.12-7.86a.996.996 0 0 0-.72-1.22.997.997 0 0 0-1.22.71c-.71 2.71-1.02 5.99-1.15 7.68-1.13.01-2.27.62-3.78 1.44l-.68.37c-.91.49-1.8-.08-3.16-1.04-.93-.66-1.89-1.33-2.99-1.52-1.44-.24-2.61.4-3.75 1.02-1.06.58-2.07 1.12-3.34 1.05-1.14-.07-1.41-.63-1.81-1.48-.16-.35-.36-.75-.64-1.1 1.37-1.46 4.04-4.53 5.84-8.12a.993.993 0 0 0-.45-1.34.988.988 0 0 0-1.34.45c-1.94 3.89-5.09 7.24-6.03 8.2-1.07.04-2.43.49-3.97.99-1.4.46-2.84.94-4.06 1.1-.32.04-.58-.03-.83-.22-.69-.53-1.1-1.79-1.3-2.68 1.55-.63 4.98-2.2 6.99-4.51 2.01-2.32 6.16-5.99 7.44-7.12 3.17.73 20.81 4.42 51.85 4.25 31.6-.17 53.84-1.95 57.22-2.23 1.56 1.45 8.14 7.46 11.97 9.58-.44.56-1.23 1.24-2.49 1.41z" fill="#000000" stroke-width="none" opacity="1"></path></g><g id="svga-group-head" transform="matrix(1,0,0,1,0,0)"><g id="svga-group-ears-left-move" transform="matrix(1,0,0,1,0,0)"><g id="svga-group-ears-left" transform="matrix(1,0,0,1,0,0)"><path id="SvgjsPath26008" d="M63.9 77.8s-2.5-2.4-5.4-3.5c-2.9-1.1-6.1.7-7.1 3.7-1 2.9 1.3 15.1 5 19.5s6.2 4.8 8.7 2.5c2.6-2.4 7-10.8-1.2-22.2z" fill="#ffffff" stroke-width="none" opacity="1"></path><path id="SvgjsPath26009" d="M61.8 102.3c-1.9-.1-3.8-1.5-6.1-4.2-3.9-4.7-6.3-17.1-5.2-20.5.6-1.8 1.9-3.3 3.6-4.1 1.5-.7 3.2-.8 4.8-.2 3.1 1.2 5.6 3.6 5.7 3.7l.1.1c8.7 12.2 3.5 21.2 1.1 23.5-1.2 1.1-2.4 1.6-3.7 1.6-.1.1-.2.1-.3.1zm-3.6-27.1c-1.3-.5-2.5-.2-3.2.1-1.2.6-2.1 1.6-2.6 2.9-.8 2.5 1.3 14.3 4.9 18.5 1.9 2.3 3.4 3.4 4.7 3.5.8.1 1.6-.3 2.5-1.1 2.1-1.9 6.5-9.8-1.3-20.7-.4-.3-2.6-2.2-5-3.2z" fill="#000000" stroke-width="none" opacity="1"></path><path id="SvgjsPath26010" d="M55.2 77.4c3.3.6 5.4 6.1 6 9.8.1.1.1.2.2.3.4.6-.4 1.2-.8.6-.5-.8-1-1.6-1.8-1.9-1.4-.5-2.1 1.1-1.8 2.6.4 1.9 1.6 3 2.6 4.4.1.1 0 .3-.1.2-1.7-1-4.3-4.8-3.1-7.2.9-1.7 2.3-1.4 3.4-.4-.8-2.1-1.4-4.3-3-5.9-.5-.5-1.5-1.4-2.2-1.3-1.3.2-1.3 2.1-1.3 3.4-.1 1.7.1 3.4.4 5 0 .2-.2.2-.3.1-.6-2.4-2-10.4 1.8-9.7z" fill="#000000" stroke-width="none" opacity="1"></path></g></g><g id="svga-group-ears-right-move" transform="matrix(1,0,0,1,0,0)"><g id="svga-group-ears-right" transform="matrix(1,0,0,1,0,0)"><path id="SvgjsPath26011" d="M136.1 77.8s2.5-2.4 5.4-3.5c2.9-1.1 6.1.7 7.1 3.7 1 2.9-1.3 15.1-5 19.5s-6.2 4.8-8.7 2.5c-2.6-2.4-7-10.8 1.2-22.2z" fill="#ffffff" stroke-width="none" opacity="1"></path><path id="SvgjsPath26012" d="M137.9 102.3c-1.3 0-2.5-.5-3.7-1.6-2.5-2.2-7.6-11.3 1.1-23.5l.1-.1c.1-.1 2.7-2.5 5.7-3.7 1.5-.6 3.2-.5 4.8.2 1.7.8 3 2.3 3.6 4.1 1.1 3.3-1.3 15.8-5.2 20.5-2.3 2.7-4.2 4.1-6.1 4.2-.1-.1-.2-.1-.3-.1zm-1.1-23.9c-7.8 10.9-3.4 18.8-1.3 20.7.9.8 1.7 1.2 2.5 1.1 1.3-.1 2.8-1.2 4.7-3.5 3.5-4.2 5.7-16.1 4.9-18.5-.4-1.3-1.4-2.4-2.6-2.9-.7-.3-1.9-.6-3.2-.1-2.4 1-4.6 2.9-5 3.2z" fill="#000000" stroke-width="none" opacity="1"></path><path id="SvgjsPath26013" d="M144.8 77.4c-3.3.6-5.4 6.1-6 9.8-.1.1-.1.2-.2.3-.4.6.4 1.2.8.6.5-.8 1-1.6 1.8-1.9 1.4-.5 2.1 1.1 1.8 2.6-.4 1.9-1.6 3-2.6 4.4-.1.1 0 .3.1.2 1.7-1 4.3-4.8 3.1-7.2-.9-1.7-2.3-1.4-3.4-.4.8-2.1 1.4-4.3 3-5.9.5-.5 1.5-1.4 2.2-1.3 1.3.2 1.3 2.1 1.3 3.4.1 1.7-.1 3.4-.4 5 0 .2.2.2.3.1.6-2.4 2-10.4-1.8-9.7z" fill="#000000" stroke-width="none" opacity="1"></path></g></g><g id="svga-group-faceshape-wrap" transform="matrix(1,0,0,1,0,0)"><g id="svga-group-faceshape-single"><path id="SvgjsPath25995" d="M138.2 58.2c-2-10.8-13.3-27.4-37.2-27.4S69.1 43.5 65.5 53c-3 8.1-3 21.3-3 21.3s-.1 33.5 2.1 40.5 12.7 18.4 16.7 21.5c4 3.1 27.7 3.1 32.5 2.6 4.8-.4 21.1-17.1 22.4-22.4 1.3-5.3 3.2-42.3 3.2-42.3s.2-8.3-1.2-16z" fill="#ffffff" stroke-width="none" opacity="1"></path><path id="SvgjsPath25996" d="M105.9 140.5c-8.9 0-22.1-.5-25.4-3.1-4.1-3.2-14.9-14.9-17.1-22.2-2.2-7.1-2.2-39.5-2.2-40.9 0-.5 0-13.6 3.1-21.8 5.8-15.5 17.8-23 36.7-23 10.9 0 20.5 3.4 27.7 10 5.5 5 9.6 11.9 10.8 18.5 1.4 7.7 1.2 16 1.2 16.4-.1 1.5-1.9 37.2-3.2 42.6-1.4 5.5-18 22.9-23.5 23.4-1.1 0-4.2.1-8.1.1zM101 32.1c-17.7 0-28.9 7-34.3 21.3-2.9 7.8-2.9 20.8-2.9 20.9 0 .3-.1 33.4 2.1 40.1 2.1 6.7 12.4 17.9 16.3 20.9 3.3 2.5 25.5 2.9 31.6 2.4 1.5-.1 5.8-3 11.7-9 5.1-5.1 9-10.2 9.5-12.4 1-4.1 2.5-29.3 3.2-42 0-.1.2-8.4-1.2-15.8-1.1-6-4.8-12.4-10-17-6.7-6.2-15.7-9.4-26-9.4z" fill="#000000" stroke-width="none" opacity="1"></path></g></g><g id="svga-group-mouth-single-move" transform="matrix(1,0,0,1,0,0)"><g id="svga-group-mouth-single" transform="matrix(1,0,0,1,0,0)"><path id="SvgjsPath26078" d="M112.98 118.4c-.02 0-.53-.02-.95-.22-3.72-1.8-8.31-3.34-11.63-.05-3.07-4.14-8.05-.51-11.8.92-.36.14-.75.02-1.08.1-.3.08-.3.42.09.54.02 0 .66.18 1.14.32.65 1.68 1.46 3.61 3.19 4.41 1.08.5 2.21.38 3.35.16 1.96-.38 3.8-.88 5.81-.97 1.86-.09 3.67.08 5.51.38 1.11.18 2.24.41 3.32-.03 2.02-.82 2.22-3.09 2.18-5.01.29.01.48-.02.76-.08.38-.13.42-.41.11-.47zm-12.98 0c.07.1.51.31.64.17 2.95-3.04 7.04-1.88 10.46-.29-3.8-.64-7.85-.75-10.7 2.22-.97-1.15-2.3-1.7-3.83-1.79-2.57-.15-5.31.44-7.89.82 3.59-1.39 8.47-5.02 11.32-1.13zm10.3 4.54c-1.32 1.1-2.64.71-4.23.46a25.02 25.02 0 0 0-5.67-.24c-1.79.14-3.48.6-5.24.95-3.32.65-4.82-1.45-5.9-4.16 1.46-.19 2.92-.38 4.38-.56 2.33-.28 4.95-.54 6.54 1.58.05.07.12.1.18.1.05.01.1 0 .15-.03.01 0 .02-.01.02-.01.01-.01.03 0 .04-.02 2.89-3.2 7.15-2.87 11.03-2.16.06 1.59 0 3-1.3 4.09z" fill="#000000" stroke-width="none" opacity="1"></path></g></g><g id="svga-group-eyes-left-move" transform="matrix(1,0,0,1,0,0)"><g id="svga-group-eyes-left" transform="matrix(1,0,0,1,0,0)"><g id="svga-group-eyesback-left"></g><g id="svga-group-eyesiriswrapper-left"><g id="svga-group-eyesiriscontrol-left" transform="matrix(1,0,0,1,0,0)"><g id="svga-group-eyesiris-left" transform="matrix(1,0,0,1,0,0)"><path id="SvgjsPath26040" d="M77.3 84.5c-1.4 1.8-1.2 4.1.4 5.5 1.7 1.5 4.5 1.9 6.5.1 1-1 1.7-2.4 1.4-3.7-.1-.4-.3-.9-.5-1.3-.2-.5-.5-1-.9-1.4-2-1.7-5.2-1.4-6.9.8z" fill="#ffffff" stroke-width="none" opacity="1"></path><path id="SvgjsPath26041" d="M85.8 86.3c-.1-.5-.3-.9-.6-1.3-.2-.6-.5-1-1-1.4-.9-.8-2.2-1.2-3.5-1.1-1.4.1-2.8.8-3.7 1.9-1.5 1.8-1.3 4.3.4 5.9.9.9 2.3 1.4 3.6 1.4 1.1 0 2.3-.4 3.2-1.3 1.3-1.3 1.9-2.8 1.6-4.1zm-.6-.1c-.6.1-1.2.1-1.9.2 0-.1-.1-.2-.1-.2.4-.1.7-.3 1.1-.5.2-.1.4-.1.6-.2.1.2.2.5.3.7zm-.8-1.6.3.6v.1c-.6.3-1.1.5-1.7.8-.1-.1-.1-.2-.2-.3.6-.5 1.1-.9 1.6-1.2zm-.6-.7c.2.1.3.3.4.4-.5.3-1.1.7-1.5 1.2l-.1-.1c-.1-.1-.2-.1-.2-.2.2-.3.4-.7.6-1 .1-.2.3-.4.4-.6.2.1.3.2.4.3zm-1.9.1c0-.3.1-.7.1-1 .4.1.8.2 1.2.5-.2.2-.3.4-.4.6-.2.3-.4.7-.6 1-.1-.1-.3-.1-.4-.2.1-.3.1-.6.1-.9zm-1.1-1.1h.4c.2 0 .4 0 .6.1-.1.3-.1.6-.1 1 0 .3-.1.7-.1 1-.2 0-.3-.1-.5-.1 0-.3-.1-.6-.1-.9-.1-.4-.2-.8-.2-1.1zm-4.1 3.6c.6.2 1.4.4 2 .3v.7c-.7-.1-1.3 0-2 0-.1-.4 0-.7 0-1zm0 1.2c.7-.1 1.3-.1 2-.1 0 .1.1.2.1.2-.3.1-.7.2-1 .4-.3.1-.6.2-.8.3-.1-.2-.2-.5-.3-.8zm.7 1.5c-.1-.1-.2-.3-.3-.4.3-.1.6-.2.8-.4.3-.1.6-.2.9-.4-.4.5-.9.8-1.4 1.2zm.4.5-.3-.3c.5-.3 1-.7 1.5-1.1.1.1.1.2.2.2-.2.2-.4.4-.6.7-.2.2-.4.5-.6.8 0-.1-.1-.2-.2-.3zm.5.4c.2-.2.4-.5.6-.8.2-.2.4-.4.5-.6.1.1.2.1.3.2-.2.2-.3.5-.5.8-.2.2-.3.4-.5.7-.1-.1-.2-.2-.4-.3zm.7.4c.2-.2.3-.4.4-.5l.6-.9c.1 0 .2.1.3.1-.2.5-.2 1.1-.5 1.6-.3-.1-.5-.2-.8-.3zm1 .3c.3-.5.4-1.1.5-1.6.2 0 .3.1.5.1-.1.5 0 1.1 0 1.7-.3 0-.6-.1-1-.2zm1.3.2c0-.5 0-1.1-.1-1.7.2 0 .3 0 .5-.1.1.5.3 1.1.5 1.6-.3.1-.6.1-.9.2zm3-1.6c-.4-.2-.8-.5-1.2-.8 0 .1-.1.2-.1.2.3.3.7.6 1 .8l-.2.2c-.2.2-.3.3-.5.4-.1-.2-.3-.4-.4-.6-.1-.2-.2-.3-.3-.5-.1 0-.2.1-.2.1.1.2.2.3.3.5.1.2.3.5.4.7-.2.1-.5.2-.7.3-.2-.5-.3-1.1-.6-1.6.1 0 .1 0 .1-.1l-.3-.3c-.7.2-1.6 0-2.1-.5-.4-.3-.6-.8-.5-1.3-.2-.1-.4-.3-.4-.6-.3-.1-.7-.1-1-.1-.3 0-.6-.1-.9-.2.1-.3.2-.7.4-1 .3.2.6.3.9.5.2.1.3.2.5.3 0-.1 0-.2.1-.3-.2-.1-.3-.1-.5-.2-.3-.1-.6-.3-.9-.4.1-.1.2-.2.2-.3l.6-.6c.1.2.3.4.5.6.1.1.2.3.4.4.1-.1.2-.1.2-.2l-.1-.1c-.2-.2-.3-.4-.5-.6-.1-.1-.2-.3-.3-.4.2-.2.5-.3.8-.5.1.3.2.5.4.7.1.2.3.4.4.6.1 0 .3 0 .4.1l-.6-.9c-.1-.2-.2-.5-.3-.7.3-.2.7-.2 1.1-.3 0 .3.1.7.2 1 .1.3.1.6.2.9-.2 0-.3.1-.4.1.1.1.3.2.3.3h.4c.5 0 .9.2 1.2.4.2.2.3.3.4.6.1.2.2.3.2.5.1.3 0 .6-.1.9.1.1.2.2.3.4 0 0 0-.1.1-.1.2.2.6.3.8.5.2.1.5.3.7.4-.1.5-.3.6-.4.8zm.5-.8c-.2 0-.8-.4-.9-.5-.2-.1-.3-.2-.5-.2 0 0-.1 0-.2-.1.1-.2.1-.4.2-.6.6.2 1.2.2 1.8.3-.1.4-.2.8-.4 1.1zm.4-1.3-1.8-.3v-.4c.6 0 1.3-.1 1.8-.2.1.4.1.6 0 .9zm-2.8.3h.2c.3-.9-.2-1.9-1.2-2.2-.2-.1-.4-.1-.6-.1.3.7 0 1.8-1.1 1.8h-.3c.1.6.3 1.1 1 1.4.4.2.9.2 1.2.1 0-.4.2-1 .8-1z" fill="#000000" stroke-width="none" opacity="1"></path></g></g></g><g id="svga-group-eyesfront-left"><path id="SvgjsPath26139" d="M81 74.4c-6.9 0-12.5 5.6-12.5 12.5S74.1 99.4 81 99.4s12.5-5.6 12.5-12.5S87.9 74.4 81 74.4zm4.9 17.3c-1.4 1-4.9 2.1-7.5 1.8s-5.6-3.2-6.1-4.2-.4-2-.4-2 2-3.6 4.8-4.6 5.3-1.4 7.5-.5 5.1 5.3 5.1 5.3-1.9 3.2-3.4 4.2z" fill="#ffffff" stroke-width="none" opacity="1"></path><path id="SvgjsPath26140" d="M91.4 86.8c-.1-.2-.5-.3-.6-.1-.3.6-.3 1.2-.4 1.8-.5-1.1-1.5-2.9-3.8-5.2-1.5-1.5-3.4-2.2-5.7-2.1-1.1 0-2.2.3-3.3.6-.2-.3-.5-.9-.8-1.4-.1-.3-.4-.4-.7-.3-.3.1-.4.4-.3.7.2.5.5 1 .7 1.3-.6.3-1.2.6-1.7 1l-1.2-.6c1.3-1.8 3-3.1 4.9-3.8 1.8-.6 3.5-.5 4.8.3 3.3 1.9 5.5 5.9 5.5 5.9 0 .1.1.2.2.2h.1c.1 0 .2-.2.2-.3-.1-.3-2.4-4.3-5.7-6.2-1.4-.8-3.3-.9-5.2-.3-2.1.7-3.9 2.1-5.2 4-.4-.3-.7-.5-.8-.7-.1-.2-.4-.3-.7-.2-.2.1-.3.4-.2.7.2.4.6.7 1.2 1-.3.4-.5.9-.7 1.4-.1.1 0 .3.1.3.1.1.3 0 .3-.1.2-.5.4-.9.7-1.3.3.2.6.3.9.4-.3.2-.5.5-.8.8-.1.2-.3.3-.4.5-.5-.1-1.9-.3-2.8-.9-.2-.1-.5-.1-.7.2-.1.2-.1.5.2.7.9.6 2 .8 2.7 1-.3.5-.6.9-.9 1.4-.7.1-2 .1-2.8-.3-.2-.1-.5 0-.7.2-.1.2 0 .5.2.7.7.4 1.8.5 2.5.5h.2c-.6 1.1-.8 1.9-.8 2-.1.3.1.5.3.6h.1c.2 0 .4-.1.5-.4 0 0 .2-.6.6-1.6.5.7.9 1.4 1.5 1.9-.4.2-1.1.7-1.5 1.4-.1.2-.1.5.2.7.1 0 .2.1.3.1.2 0 .3-.1.4-.2.5-.8 1.4-1.2 1.4-1.2.4.3.7.6 1.1.8-.4.3-1 .7-1.3 1.2-.2.2-.1.5.1.7.1.1.2.1.3.1.2 0 .3-.1.4-.2.3-.5 1.1-1 1.3-1.2l.1-.1c1.4.7 2.9 1 4.2 1 1.3 0 2.5-.2 3.4-.5 2.9-.9 5.4-4.3 5.9-5.1.4.9.5 1.4.5 1.4v.1c-.2.4-.5.7-.7 1.1-.1.1 0 .3.2.2 1.9-.3 2.7-3.2 2.2-4.6zm-2.8 1.1s-2.6 4-5.5 4.8c-3.2.9-7.6 1-10.7-4.2-.1-.1-.2-.2-.4-.2.5-.9 1.1-1.9 2-3 1.2-1.4 4-3 6.9-3.1 1.4-.1 3.4.2 5 1.8 1.4 1.4 2.3 2.7 2.9 3.6 0 .1-.1.2-.2.3z" fill="#000000" stroke-width="none" opacity="1"></path></g></g></g><g id="svga-group-eyes-right-move" transform="matrix(1,0,0,1,0,0)"><g id="svga-group-eyes-right" transform="matrix(1,0,0,1,0,0)"><g id="svga-group-eyesback-right"></g><g id="svga-group-eyesiriswrapper-right"><g id="svga-group-eyesiriscontrol-right" transform="matrix(1,0,0,1,0,0)"><g id="svga-group-eyesiris-right" transform="matrix(1,0,0,1,0,0)"><path id="SvgjsPath26042" d="M115.8 84.5c-1.4 1.8-1.2 4.1.4 5.5 1.7 1.5 4.5 1.9 6.5.1 1-1 1.7-2.4 1.4-3.7-.1-.4-.3-.9-.5-1.3-.2-.5-.5-1-.9-1.4-2.1-1.7-5.3-1.4-6.9.8z" fill="#ffffff" stroke-width="none" opacity="1"></path><path id="SvgjsPath26043" d="M124.2 86.3c-.1-.5-.3-.9-.6-1.3-.2-.6-.5-1-1-1.4-.9-.8-2.2-1.2-3.5-1.1-1.4.1-2.8.8-3.7 1.9-1.5 1.8-1.3 4.3.4 5.9.9.9 2.3 1.4 3.6 1.4 1.1 0 2.3-.4 3.2-1.3 1.4-1.3 1.9-2.8 1.6-4.1zm-.6-.1c-.6.1-1.2.1-1.9.2 0-.1-.1-.2-.1-.2.4-.1.7-.3 1.1-.5.2-.1.4-.1.6-.2.2.2.3.5.3.7zm-.7-1.6.3.6v.1c-.6.3-1.1.5-1.7.8-.1-.1-.1-.2-.2-.3.6-.5 1.1-.9 1.6-1.2zm-.6-.7c.2.1.3.3.4.4-.5.3-1.1.7-1.5 1.2l-.1-.1c-.1-.1-.2-.1-.2-.2.2-.3.4-.7.6-1 .1-.2.3-.4.4-.6.2.1.3.2.4.3zm-1.9.1c0-.3.1-.7.1-1 .4.1.8.2 1.2.5-.2.2-.3.4-.4.6-.2.3-.4.7-.6 1-.1-.1-.3-.1-.4-.2 0-.3.1-.6.1-.9zm-1.1-1.1h.4c.2 0 .4 0 .6.1-.1.3-.1.6-.1 1 0 .3-.1.7-.1 1-.2 0-.3-.1-.5-.1 0-.3-.1-.6-.1-.9-.1-.4-.2-.8-.2-1.1-.1 0-.1 0 0 0zm-4.1 3.6c.6.2 1.4.4 2 .3v.7c-.7-.1-1.3 0-2 0-.1-.4-.1-.7 0-1zm0 1.2c.7-.1 1.3-.1 2-.1 0 .1.1.2.1.2-.3.1-.7.2-1 .4-.3.1-.6.2-.8.3-.2-.2-.3-.5-.3-.8zm.7 1.5c-.1-.1-.2-.3-.3-.4.3-.1.6-.2.8-.4.3-.1.6-.2.9-.4-.5.5-1 .8-1.4 1.2zm.4.5-.3-.3c.5-.3 1-.7 1.5-1.1.1.1.1.2.2.2-.2.2-.4.4-.6.7-.2.2-.4.5-.6.8 0-.1-.1-.2-.2-.3zm.5.4c.2-.2.4-.5.6-.8.2-.2.4-.4.5-.6.1.1.2.1.3.2-.2.2-.3.5-.5.8-.2.2-.3.4-.5.7-.1-.1-.3-.2-.4-.3zm.7.4c.2-.2.3-.4.4-.5l.6-.9c.1 0 .2.1.3.1-.2.5-.2 1.1-.5 1.6-.3-.1-.6-.2-.8-.3zm1 .3c.3-.5.4-1.1.5-1.6.2 0 .3.1.5.1-.1.5 0 1.1 0 1.7-.3 0-.7-.1-1-.2zm1.3.2c0-.5 0-1.1-.1-1.7.2 0 .3 0 .5-.1.1.5.3 1.1.5 1.6-.3.1-.6.1-.9.2zm3-1.6c-.4-.2-.8-.5-1.2-.8 0 .1-.1.2-.1.2.3.3.7.6 1 .8l-.2.2c-.2.2-.3.3-.5.4-.1-.2-.3-.4-.4-.6-.1-.2-.2-.3-.3-.5-.1 0-.2.1-.2.1.1.2.2.3.3.5.1.2.3.5.4.7-.2.1-.5.2-.7.3-.2-.5-.3-1.1-.6-1.6.1 0 .1 0 .1-.1l-.3-.3c-.7.2-1.6 0-2.1-.5-.4-.3-.6-.8-.5-1.3-.2-.1-.4-.3-.4-.6-.3-.1-.7-.1-1-.1-.3 0-.6-.1-.9-.2.1-.3.2-.7.4-1 .3.2.6.3.9.5.2.1.3.2.5.3 0-.1 0-.2.1-.3-.2-.1-.3-.1-.5-.2-.3-.1-.6-.3-.9-.4.1-.1.2-.2.2-.3l.6-.6c.1.2.3.4.5.6.1.1.2.3.4.4.1-.1.2-.1.2-.2l-.1-.1c-.2-.2-.3-.4-.5-.6-.1-.1-.2-.3-.3-.4.2-.2.5-.3.8-.5.1.3.2.5.4.7.1.2.3.4.4.6.1 0 .3 0 .4.1l-.6-.9c-.1-.2-.2-.5-.3-.7.3-.2.7-.2 1.1-.3 0 .3.1.7.2 1 .1.3.1.6.2.9-.2 0-.3.1-.4.1.1.1.3.2.3.3h.4c.5 0 .9.2 1.2.4.2.2.3.3.4.6.1.2.2.3.2.5.1.3 0 .6-.1.9.1.1.2.2.3.4 0 0 0-.1.1-.1.2.2.6.3.8.5.2.1.5.3.7.4-.2.5-.3.6-.4.8zm.5-.8c-.2 0-.8-.4-.9-.5-.2-.1-.3-.2-.5-.2 0 0-.1 0-.2-.1.1-.2.1-.4.2-.6.6.2 1.2.2 1.8.3-.1.4-.2.8-.4 1.1zm.4-1.3-1.8-.3v-.4c.6 0 1.3-.1 1.8-.2 0 .4.1.6 0 .9zm-2.8.3h.2c.3-.9-.2-1.9-1.2-2.2-.2-.1-.4-.1-.6-.1.3.7 0 1.8-1.1 1.8h-.3c.1.6.3 1.1 1 1.4.4.2.9.2 1.2.1-.1-.4.2-1 .8-1z" fill="#000000" stroke-width="none" opacity="1"></path></g></g></g><g id="svga-group-eyesfront-right"><path id="SvgjsPath26141" d="M119 74.4c-6.9 0-12.5 5.6-12.5 12.5s5.6 12.5 12.5 12.5 12.5-5.6 12.5-12.5-5.6-12.5-12.5-12.5zm8.4 15c-.5 1-3.6 3.9-6.1 4.2-2.5.3-6-.8-7.5-1.8-1.4-1-3.4-4.2-3.4-4.2s2.9-4.5 5.1-5.3c2.2-.9 4.7-.4 7.5.5 2.8 1 4.8 4.6 4.8 4.6s.1 1-.4 2z" fill="#ffffff" stroke-width="none" opacity="1"></path><path id="SvgjsPath26144" d="M131.8 87.3c-.1-.2-.4-.3-.7-.2-.8.4-2.1.4-2.8.3-.3-.4-.5-.9-.9-1.4.7-.1 1.8-.4 2.7-1 .2-.1.3-.5.2-.7s-.5-.3-.7-.2c-1 .6-2.3.9-2.8.9-.1-.2-.2-.3-.4-.5-.2-.3-.5-.5-.8-.8.3-.1.6-.3.9-.4.2.4.5.8.7 1.3.1.1.2.2.3.1.1-.1.2-.2.1-.3-.2-.5-.4-.9-.7-1.4.5-.3 1-.7 1.2-1 .1-.2 0-.5-.2-.7-.2-.1-.5 0-.7.2-.1.2-.4.4-.8.7-1.3-1.9-3.2-3.3-5.2-4-1.9-.6-3.8-.5-5.2.3-3.3 1.9-5.6 5.9-5.7 6.2 0 .1 0 .3.2.3h.1c.1 0 .2-.1.2-.2 0 0 2.2-4 5.5-5.9 1.3-.8 3-.9 4.8-.3 1.9.6 3.7 2 4.9 3.8l-1.2.6c-.5-.4-1.1-.7-1.7-1 .2-.4.5-.9.7-1.3.1-.3 0-.5-.3-.7-.3-.1-.5 0-.7.3-.2.5-.6 1-.8 1.4a9.6 9.6 0 0 0-3.3-.6c-2.3-.1-4.3.6-5.7 2.1-3.8 3.8-4.2 6.4-4.2 6.5 0 .3.2.5.4.6.3 0 .5-.2.6-.4 0 0 .1-.5.5-1.4.5.8 3 4.2 5.9 5.1.9.3 2.1.5 3.4.5s2.8-.3 4.2-1l.1.1c.3.2 1 .7 1.3 1.2.1.1.3.2.4.2s.2 0 .3-.1c.2-.2.3-.5.1-.7-.3-.5-.9-.9-1.3-1.2.4-.2.7-.5 1.1-.8 0 0 1 .4 1.4 1.2.1.2.3.2.4.2s.2 0 .3-.1c.2-.1.3-.4.2-.7-.4-.7-1.1-1.2-1.5-1.4.5-.5 1-1.2 1.5-1.9.4.9.6 1.6.6 1.6.1.2.3.4.5.4h.1c.3-.1.4-.4.3-.6 0-.1-.3-.8-.8-2h.2c.8 0 1.8-.1 2.5-.5.3-.2.4-.5.3-.7zm-4.5 1.2c-3.1 5.1-7.6 5.1-10.7 4.2-2.9-.8-5.4-4.8-5.5-4.8l-.2-.2c.6-1 1.5-2.2 2.9-3.6 1.6-1.6 3.6-1.8 5-1.8 2.9.1 5.7 1.6 6.9 3.1.9 1 1.6 2.1 2 3-.2-.1-.3 0-.4.1z" fill="#000000" stroke-width="none" opacity="1"></path></g></g></g><g id="svga-group-facehighlight-single"></g><g id="svga-group-eyebrows-left-move" transform="matrix(1,0,0,1,0,0)"><g id="svga-group-eyebrows-left-rotate" transform="matrix(1,0,0,1,0,0)"><g id="svga-group-eyebrows-left" transform="matrix(1,0,0,1,0,0)"><path id="SvgjsPath26103" d="M77.41 73.32c1.32-.12 4.38-.67 5.89-.48 2.44.45 3.2 2.82 7.84 1.72.97-.66 2.36-3.32-1.07-3.94-3.14-.57-12.13.98-15.06 2.82-4.17 2.63-6.92 7.71-6.92 7.71 2.89-3.69 8.01-7.71 9.32-7.83z" fill="#000000" stroke-width="none" opacity="1"></path></g></g></g><g id="svga-group-eyebrows-right-move" transform="matrix(1,0,0,1,0,0)"><g id="svga-group-eyebrows-right-rotate" transform="matrix(1,0,0,1,0,0)"><g id="svga-group-eyebrows-right" transform="matrix(1,0,0,1,0,0)"><path id="SvgjsPath26104" d="M132.19 80.95s-2.89-5.01-7.14-7.52c-2.98-1.76-12-3.05-15.13-2.4-3.41.71-1.94 3.34-.96 3.97 4.67.97 5.37-1.42 7.79-1.93 1.5-.23 4.58.24 5.9.32 1.33.08 6.56 3.96 9.54 7.56z" fill="#000000" stroke-width="none" opacity="1"></path></g></g></g><g id="svga-group-nose-single-move" transform="matrix(1,0,0,1,0,0)"><g id="svga-group-nose-single" transform="matrix(1,0,0,1,0,0)"><path id="SvgjsPath26087" d="M103.8 104.3c.5 2.2-1.5 6.5-4.3 5.6-2.9-.9-4.5-4.5-3.6-7.3.4-1.3 1.2-2.6 1.5-3.9.4-1.3.3-2.6 0-3.9-.7-2.6-3-7.1.5-8.7.5-.2.1-.9-.4-.7-2.4 1.1-2.6 4.1-1.9 6.3.4 1.6 1.2 3.2 1.3 4.9.1 1.7-.7 3.1-1.3 4.6-.5 1.1-.9 2.4-.8 3.6 0 .1 0 .3.1.4-.5-.4-1.1-.5-1.7-.3-.5.2-.3 1 .2.8.3-.1.7-.1 1 .1l.1.1c-1.3.1-3.2 0-3.1-1.8.1-1.4 1.5-2.2 2.7-2.5.5-.2.3-1-.2-.8-1.6.5-3.4 1.7-3.3 3.6.1 2.1 2.3 2.4 3.9 2.3.5 0 .5-.6.2-.8.1 0 .2 0 .3-.1l.1-.1c.3.9.7 1.7 1.2 2.5 1.3 1.8 3.7 3.3 5.9 1.9 1.8-1.2 3-4.1 2.5-6.2-.3-.4-1.1-.1-.9.4z" fill="#000000" stroke-width="none" opacity="1"></path><path id="SvgjsPath26088" d="M105.7 100.6c-.5 0-.5.8 0 .8 1.3-.1 2.4.8 2.4 2.2 0 .9-.6 1.6-1.4 1.9.3-.1.3-.6-.1-.8-.6-.2-1.3-.1-1.8.4-.4.3 0 .8.4.7-.1.2 0 .6.3.7 1.7.2 3.3-1 3.4-2.8 0-1.9-1.5-3.2-3.2-3.1zm-.2 5c.2-.2.5-.2.8-.1h.2c-.3.1-.6.1-1 .1z" fill="#000000" stroke-width="none" opacity="1"></path></g></g><g id="svga-group-hair-front" transform="matrix(1,0,0,1,0,0)"><path id="SvgjsPath26184" d="M107.37 39.87s-5.95 18.57-21.67 22.38-24.53 11.91-20 30.96c0 0-8.57-13.1-7.86-29.29.71-16.19 12.14-41.91 50.48-35.48 0 0 14.53-1.67 26.43 13.1s8.33 39.05.71 55.96c0 0 4.52-23.34-5.71-28.1-10.23-4.76-23.57-13.34-22.38-29.53z" fill="#ffffff" stroke-width="none" opacity="1"></path><path id="SvgjsPath26185" d="M135.53 40.91c-11.61-14.39-25.5-13.63-27.18-13.48-15.71-2.61-28.35-.15-37.55 7.3-12.19 9.86-13.76 24.81-13.95 29.15-.05 1.21-.05 2.4-.01 3.58-.01.16-.04.3-.05.46-.01.14.03.25.08.34.72 14.22 7.68 25.01 8 25.51a1 1 0 0 0 1.81-.78c-3.95-16.62 1.81-25.52 19.26-29.75 11.28-2.73 17.63-12.6 20.5-18.51 1.11 10.55 8.65 18.96 22.89 25.59 9.41 4.38 5.2 26.78 5.16 27-.1.5.2.99.68 1.14.1.03.2.05.3.05.38 0 .75-.22.91-.59 7.46-16.57 11.72-41.43-.85-57.01zm5.22 34.93c-1.85-4.77-6.33-8.43-10.91-11.14-4.87-2.89-9.87-5.42-13.68-9.74-3.13-3.55-5.25-7.71-6.49-12.2 6.71 11.37 29.65 12.43 31.63 27.68-.11 1.79-.29 3.59-.55 5.4zm-10.09-20.42c-8.54-4.85-22.81-9.2-21.49-21.46.01-.08 0-.15-.02-.21.15-.88.29-1.77.42-2.66 3.71 14.61 25.03 14.01 31.13 26.8.47 2.7.7 5.5.72 8.35-2.01-4.69-6.15-8.21-10.76-10.82zm3.32-13.25c2.86 3.54 4.8 7.72 5.98 12.27-8.1-10.18-27.26-10.58-29.47-25.02 4.32.17 14.68 1.83 23.49 12.75zm-75.14 21.8c.01-.14.01-.29.02-.45 5.57-17.57 35.77-15.35 39.81-35.04.81.03 1.63.07 2.46.13-3.58 12.07-12.02 21.05-23.46 26.26-7.28 3.32-15.72 6.84-18.75 14.33-.12-1.7-.16-3.45-.08-5.23zm29.01-13.56c7.12-5.49 12.09-13.14 14.58-21.72.89.08 1.79.18 2.7.3-1.08 6.11-2.26 12.51-5.59 17.84-4.47 7.15-12.17 10.08-19.63 13.06-8.39 3.35-17.65 8.12-19.69 17.29-.38-1.54-.7-3.17-.94-4.86 2.3-12.9 19.59-14.99 28.57-21.91zM72.06 36.28c5.92-4.79 13.37-7.38 22.26-7.79-5.28 11.47-21.06 9.63-30.05 16.9 1.88-3.2 4.4-6.37 7.79-9.11zm-9.79 13.06C70.18 38 89.78 42.27 95.68 28.45c.57-.01 1.14-.03 1.73-.02-3.95 17.78-29.81 17.23-38.12 31.21.45-2.83 1.31-6.48 2.98-10.3zm23.2 11.94C69.23 65.22 62.31 73.3 63.65 87.15c-.85-1.89-1.77-4.22-2.58-6.85.6-16.2 20.62-18.01 31.48-24.87 9.36-5.91 11.97-16 13.81-26.27.6.09 1.19.17 1.8.27.09.01.19.02.28.01.01 0 .05-.01.12-.01-.45 3.31-.98 6.58-1.91 9.78-.1.1-.18.22-.22.36-.07.18-5.97 18.08-20.96 21.71zm44.71 7.21c-14.41-6.7-21.58-15.21-21.86-25.95 1.73 6.64 5.4 12.63 10.85 16.97 6.84 5.45 19.8 9.38 21.15 18.98-.7 3.89-1.7 7.74-2.95 11.42.44-7.5-.25-18.19-7.19-21.42z" fill="#000000" stroke-width="none" opacity="1"></path></g><g id="svga-group-glasses-single-move" transform="matrix(1,0,0,1,0,0)"><g id="svga-group-glasses-single" transform="matrix(1,0,0,1,0,0)"></g></g></g></g></g><rect id="svga-credit-rect" width="200" height="15" x="0" y="185" fill="#ecf0f1" opacity="0.5" style="display: none;"></rect><text id="svga-credit-text" font-family="Avenir Next, Roboto, Helvetica, Arial, sans-serif" font-size="10px" text-anchor="start" font-weight="400" size="10px" anchor="start" weight="400" fill="#333333" x="33.402061462402344" y="182.71133995056152" style="display: none;"><tspan id="SvgjsTspan25473" dy="13" x="33.402061462402344">Created on AvatarMaker.com</tspan></text></g></svg>