<svg xmlns="http://www.w3.org/2000/svg" version="1.1" width="600px" height="600px" viewBox="0 0 200 200" style="overflow:hidden!important;"><defs id="SvgjsDefs19470"><linearGradient id="SvgjsLinearGradient20118" x1="81.2924" y1="77.5931" x2="81.2924" y2="103.7231" gradientUnits="userSpaceOnUse" class="svga-on-canvas-glasses-gradient-single-0-null"><stop id="SvgjsStop20119" stop-opacity="1" stop-color="#000000" offset="0.004166667" ></stop><stop id="SvgjsStop20120" stop-opacity="0.9015" stop-color="#050505" offset="0.1023" ></stop><stop id="SvgjsStop20121" stop-opacity="0.7775" stop-color="#151515" offset="0.2257" ></stop><stop id="SvgjsStop20122" stop-opacity="0.64" stop-color="#2f2f2f" offset="0.3627" ></stop><stop id="SvgjsStop20123" stop-opacity="0.4926" stop-color="#535353" offset="0.5094" ></stop><stop id="SvgjsStop20124" stop-opacity="0.3374" stop-color="#818181" offset="0.664" ></stop><stop id="SvgjsStop20125" stop-opacity="0.1755" stop-color="#b9b9b9" offset="0.8253" ></stop><stop id="SvgjsStop20126" stop-opacity="0.011" stop-color="#fafafa" offset="0.989" ></stop><stop id="SvgjsStop20127" stop-opacity="0" stop-color="#ffffff" offset="1" ></stop></linearGradient><linearGradient id="SvgjsLinearGradient20129" x1="-18.0721" y1="77.5931" x2="-18.0721" y2="103.7231" gradientTransform="matrix(-1 0 0 1 100 0)" gradientUnits="userSpaceOnUse" class="svga-on-canvas-glasses-gradient-single-1-null"><stop id="SvgjsStop20130" stop-opacity="1" stop-color="#000000" offset="0.004166667" ></stop><stop id="SvgjsStop20131" stop-opacity="0.9015" stop-color="#050505" offset="0.1023" ></stop><stop id="SvgjsStop20132" stop-opacity="0.7775" stop-color="#151515" offset="0.2257" ></stop><stop id="SvgjsStop20133" stop-opacity="0.64" stop-color="#2f2f2f" offset="0.3627" ></stop><stop id="SvgjsStop20134" stop-opacity="0.4926" stop-color="#535353" offset="0.5094" ></stop><stop id="SvgjsStop20135" stop-opacity="0.3374" stop-color="#818181" offset="0.664" ></stop><stop id="SvgjsStop20136" stop-opacity="0.1755" stop-color="#b9b9b9" offset="0.8253" ></stop><stop id="SvgjsStop20137" stop-opacity="0.011" stop-color="#fafafa" offset="0.989" ></stop><stop id="SvgjsStop20138" stop-opacity="0" stop-color="#ffffff" offset="1" ></stop></linearGradient></defs><g id="svga-group-wrapper"><g id="svga-group-backs-single"></g><g id="svga-group-humanwrap-move" transform="matrix(1,0,0,1,0,0)"><g id="svga-group-humanwrap" transform="matrix(1,0,0,1,0,0)"><g id="svga-group-hair-back-move" transform="matrix(1,0,0,1,0,0)"><g id="svga-group-hair-back" transform="matrix(1,0,0,1,0,0)"></g></g><g id="svga-group-humanbody-back"><path id="SvgjsPath19728" d="M86.5 122c0 18.8 2.7 50.3-8.1 58s-31.8 13.9-36.7 24.4-3.6 14.4-3.6 14.4h124.1s.6-8.1-4.2-15.4c-6.6-10.1-28.5-17.7-36.5-22.9-8.1-5.2-10.9-32.2-10.9-58.8l-24.1.3z" fill="#ffffff" stroke-width="none" opacity="1"></path></g><g id="svga-group-chinshadow-single"></g><g id="svga-group-humanbody-front"><path id="SvgjsPath19729" d="M163.4 220.1H37.2l-.3-.9c-.1-.5-1.3-4.7 3.6-15.3 3.4-7.3 13.6-12.4 23.5-17.4 5.1-2.5 9.9-5 13.6-7.5 8.6-6 8.1-29.8 7.7-47.1-.1-3.5-.1-6.8-.1-9.8v-1.3l26.7-.4v1.3c0 32 3.8 53.5 10.3 57.7 2.4 1.6 6 3.3 10.2 5.4 9.7 4.7 21.9 10.6 26.7 18 5 7.6 4.4 15.9 4.4 16.2l-.1 1.1zm-124.1-2.6h121.6c-.1-2.4-.6-8.2-4-13.4-4.4-6.7-16.2-12.5-25.6-17-4.3-2.1-8-3.9-10.5-5.5-9.8-6.3-11.4-38.8-11.5-58.6l-21.5.4c0 2.6.1 5.5.1 8.5.4 18.9.9 42.4-8.8 49.3-3.8 2.7-8.7 5.1-13.9 7.7-9.5 4.8-19.4 9.7-22.3 16.1-3.3 6.9-3.7 10.9-3.6 12.5z" fill="#000000" stroke-width="none" opacity="1"></path><path id="SvgjsPath19730" d="M76.8 188.7c4.8 2.3 10.4 3.9 15.7 2.9.4-.1.4-.7 0-.8-5.1-.9-10.2-1.4-15.2-3.2-.6-.2-1.1.8-.5 1.1z" fill="#000000" stroke-width="none" opacity="1"></path><path id="SvgjsPath19731" d="M108.3 191.1c2.4.3 4.9-.4 7.1-1.2 2.1-.8 4.3-1.7 5.8-3.4.5-.5-.1-1.2-.7-.9-2.1.9-3.9 2.3-6.1 3-2 .7-4.1 1-6.2 1.5-.6.1-.4.9.1 1z" fill="#000000" stroke-width="none" opacity="1"></path></g><g id="svga-group-clothes-single"><path id="SvgjsPath20061" d="M156.05 198.79s-23.03 2.08-57.59 2.27c-34.55.19-52.11-4.34-52.11-4.34s-5.48 4.72-7.93 7.55c-2.45 2.83-7.36 4.53-7.36 4.53s.57 4.91 3.4 4.53c2.83-.38 6.61-2.27 8.31-2.08 1.7.19.94 3.21 3.96 3.4s4.72-2.45 6.99-2.08c1.29.22 2.52 1.41 3.8 2.15l-.45 4.08h87.23v-2.9c.75-.43 1.49-.99 1.94-1.44.94-.94 3.96-.19 5.48.76s3.78-.94 5.29-2.83c1.51-1.89 5.48-.19 8.31-.57 2.83-.38 3.78-2.83 3.78-2.83-3.8-1.52-13.05-10.2-13.05-10.2z" fill="#ffffff" stroke-width="none" opacity="1"></path><path id="SvgjsPath20062" d="M169.44 208.05c-2.95-1.18-10.18-7.62-12.71-10-.21-.2-.49-.29-.77-.27-.23.02-23.39 2.08-57.5 2.26-33.98.21-51.68-4.26-51.85-4.31-.32-.08-.65 0-.9.21-.23.2-5.56 4.8-8.03 7.65-2.25 2.59-6.89 4.23-6.94 4.24-.44.15-.72.59-.67 1.06.04.35.44 3.41 2.19 4.78.68.53 1.48.75 2.33.63 1.4-.19 2.94-.69 4.42-1.18 1.45-.48 2.96-.97 3.65-.89.13.01.24.17.52.77.44.93 1.17 2.48 3.49 2.63 1.85.12 3.27-.66 4.42-1.29.95-.52 1.71-.93 2.46-.8.65.11 1.39.63 2.17 1.18.23.16.48.33.73.5l-.38 3.46c-.03.28.06.57.25.78s.46.33.75.33h87.23c.55 0 1-.45 1-1v-2.34c.76-.5 1.39-1.03 1.65-1.3.38-.38 2.75-.03 4.24.9.29.18.6.28.92.33a1.004 1.004 0 0 0 1.19.1c.07-.04.12-.11.18-.17 1.34-.36 2.84-1.49 4.31-3.33.6-.75 2.31-.55 3.97-.35 1.24.15 2.51.31 3.69.15 3.38-.45 4.53-3.34 4.58-3.46.17-.49-.08-1.07-.59-1.27zm-111.08 8.12c.82.23 1.69.24 2.63-.27l.69-.37c1.94-1.05 2.64-1.41 3.35-1.1.2.08.56.58.83.93.82 1.11 2.2 2.96 4.68 1.9 1.06-.46 1.74-.89 2.23-1.21.76-.49.92-.59 1.71-.43.55.11.97.38 1.44.7.85.56 1.91 1.26 3.71.8.88-.22 1.75-.7 2.59-1.16.86-.48 1.55-.83 2.11-.97.08.02.16.05.24.05.15 0 .29-.04.41-.09.2.03.37.11.53.25 2.18 1.96 6.03 2.86 7.64 1.79.18-.12.37-.25.57-.4.78-.56 1.97-1.4 2.53-1.08 1.75 1 4.51 1.69 6.53.34 1.3-.87 2.27-.75 3.46.44.82.82 1.9 1.24 3.03 1.16 1.34-.08 2.64-.82 3.57-2.01.05-.06.18-.23.63-.26 1.32-.1 3.5 1.14 4.35 1.99.34.34.76.53 1.23.62H58.17l.19-1.62zm71.37.73c0 .01.01.01.01.01.01.01.02.03.03.04.33.46.7.71 1.03.85h-10.38c1.57-.23 3.46-1.12 5.22-2.03l.45-.23c1.08-.53 2.81.11 3.64 1.36zm13.55.9h-10.77c.77-.26 1.5-.8 2.18-1.29.33-.25.65-.48.89-.62.52-.25 3.03.25 6.17 1.51.46.18.99.16 1.53.01v.39zm21.89-6.98c-.92.12-2.07-.02-3.18-.15-2.2-.27-4.47-.54-5.77 1.08-1.08 1.35-2.23 2.29-3.07 2.59-1.12-1.84-3.93-6.48-4.93-8.59a.994.994 0 0 0-1.33-.48c-.5.23-.71.83-.48 1.33.78 1.65 2.55 4.67 3.87 6.88-1.7-.55-3.74-.75-4.75.27-.94.94-2.61 1.87-3.03 1.8-2.77-1.11-6.4-2.25-7.9-1.39-.35.2-.71.46-1.09.74-.54.4-1.54 1.13-1.94 1.06a.305.305 0 0 1-.1-.07c-.34-1.16-2.46-8.33-2.74-10.17a.998.998 0 0 0-1.14-.84c-.55.08-.92.59-.84 1.14.21 1.33 1.23 5.01 1.99 7.67-.57-.22-1.17-.34-1.76-.34-.62 0-1.23.13-1.78.4l-.47.24c-4.33 2.22-5.29 1.98-5.49 1.78-1.16-1.16-3.85-2.69-5.89-2.58-.88.05-1.6.41-2.08 1.03-.57.73-1.36 1.19-2.12 1.24-.55.04-1.07-.16-1.49-.58-.72-.72-1.47-1.19-2.24-1.42l-.6-7.83a.997.997 0 1 0-1.99.15l.59 7.63c-.57.14-1.15.39-1.74.78-1.35.9-3.49.12-4.42-.41-1.68-.96-3.49.33-4.69 1.18-.18.13-.36.25-.52.36-.61.41-3.52-.1-5.2-1.61-.41-.37-.84-.59-1.28-.7.01-2.01.04-6.41.16-8.21a.99.99 0 0 0-.93-1.06c-.54-.02-1.03.38-1.06.93-.13 1.91-.15 6.49-.16 8.45-.81.25-1.6.69-2.32 1.08-.73.4-1.48.82-2.11.98-.95.24-1.4-.05-2.13-.54-.54-.36-1.22-.8-2.15-.98-1.58-.32-2.32.16-3.18.71-.46.3-1.03.66-1.94 1.05-.89.38-1.31.06-2.29-1.25-.31-.42-.63-.83-1.01-1.16.09-1.36.38-5.02 1.12-7.86a.996.996 0 0 0-.72-1.22.997.997 0 0 0-1.22.71c-.71 2.71-1.02 5.99-1.15 7.68-1.13.01-2.27.62-3.78 1.44l-.68.37c-.91.49-1.8-.08-3.16-1.04-.93-.66-1.89-1.33-2.99-1.52-1.44-.24-2.61.4-3.75 1.02-1.06.58-2.07 1.12-3.34 1.05-1.14-.07-1.41-.63-1.81-1.48-.16-.35-.36-.75-.64-1.1 1.37-1.46 4.04-4.53 5.84-8.12a.993.993 0 0 0-.45-1.34.988.988 0 0 0-1.34.45c-1.94 3.89-5.09 7.24-6.03 8.2-1.07.04-2.43.49-3.97.99-1.4.46-2.84.94-4.06 1.1-.32.04-.58-.03-.83-.22-.69-.53-1.1-1.79-1.3-2.68 1.55-.63 4.98-2.2 6.99-4.51 2.01-2.32 6.16-5.99 7.44-7.12 3.17.73 20.81 4.42 51.85 4.25 31.6-.17 53.84-1.95 57.22-2.23 1.56 1.45 8.14 7.46 11.97 9.58-.44.56-1.23 1.24-2.49 1.41z" fill="#000000" stroke-width="none" opacity="1"></path></g><g id="svga-group-head" transform="matrix(1,0,0,1,0,0)"><g id="svga-group-ears-left-move" transform="matrix(1,0,0,1,0,0)"><g id="svga-group-ears-left" transform="matrix(1,0,0,1,0,0)"><path id="SvgjsPath19959" d="M64.8 86.8s-2.1-5.1-4.3-8.3c-2.2-3.2-5.5-7.6-7.6-8.7s-3.6-.4-3 2.6 3 12.6 3.6 15.6c.7 3 2.2 9.4 4.2 13.6 1.9 4.2 3.1 6.1 5.2.5 2.1-5.7 3.4-11.8 1.9-15.3z" fill="#ffffff" stroke-width="none" opacity="1"></path><path id="SvgjsPath19960" d="M56.9 102c-2-4.4-3.6-11.1-4.2-13.8-.2-1-.7-2.9-1.2-5-.9-3.9-2.1-8.7-2.4-10.7-.4-2.2.2-3.3.9-3.7.5-.4 1.6-.8 3.5.2 2.3 1.2 6.6 3.9 8.9 7.3 2.2 3.3 3.3 10 3.4 10.2 1.7 4.1 1.3 10.3-.6 15.3-1 2.8-3.3 4.7-4.5 4.8h-.1c-1.5-.1-2.5-1.9-3.7-4.6zm2.9-23.1c-3-4.5-5.7-7.6-7.2-8.4-.9-.5-1.4-.5-1.6-.3-.2.2-.4.8-.2 2 .4 1.9 1.5 6.7 2.4 10.6.5 2.1.9 4 1.2 5 .6 2.6 2.2 9.2 4.1 13.4.4.9 1.5 3.3 2 3.5.1 0 .6-.3 1.6-2.9 2.4-6.6 3.1-11.8 2-14.7-.1-.1-2.2-5.1-4.3-8.2z" fill="#000000" stroke-width="none" opacity="1"></path><path id="SvgjsPath19961" d="M51.6 73.1c3.5 4 6.5 10.6 7 16.9 0 .4-.4.5-.5.1-.1-.6-.2-1.1-.4-1.7-.3-.8-.9-.9-1.6-.2.1.5.1 1 .3 1.4.2.6.4 1.3.6 1.9.6 1.5 1.3 2.6 2 3.9.1.3 0 .7-.3.5-1.7-1.4-3.4-5.4-3.4-8.2 0-.8.3-1.6.9-1.7.4 0 .7.1.9.4-1.3-4.9-3-8.9-5.8-13 0-.2.1-.5.3-.3z" fill="#000000" stroke-width="none" opacity="1"></path></g></g><g id="svga-group-ears-right-move" transform="matrix(1,0,0,1,0,0)"><g id="svga-group-ears-right" transform="matrix(1,0,0,1,0,0)"><path id="SvgjsPath19962" d="M135.2 86.8s2.1-5.1 4.3-8.3c2.2-3.2 5.5-7.6 7.6-8.7 2.1-1.1 3.6-.4 3 2.6-.6 3-2.9 12.7-3.6 15.7-.7 3-2.2 9.4-4.2 13.6-1.9 4.2-3.1 6.1-5.2.5-2.1-5.8-3.4-11.9-1.9-15.4z" fill="#ffffff" stroke-width="none" opacity="1"></path><path id="SvgjsPath19963" d="M139.5 106.5s-.1 0 0 0c-1.3 0-3.5-1.9-4.6-4.8-1.8-5-2.3-11.2-.6-15.3.1-.2 1.2-6.9 3.4-10.2 2.3-3.4 6.6-6.1 8.9-7.3 1.9-1 3-.5 3.5-.2.6.5 1.3 1.5.9 3.7-.4 1.9-1.5 6.8-2.4 10.7-.5 2.1-.9 4-1.2 5-.6 2.7-2.2 9.4-4.2 13.8-1.3 2.8-2.3 4.6-3.7 4.6zM136 87.1c-1.2 2.8-.5 8 2 14.7 1 2.6 1.5 2.9 1.6 2.9.5-.2 1.6-2.6 2-3.5 1.9-4.2 3.5-10.8 4.1-13.4.2-1 .7-2.9 1.2-5 .9-3.9 2.1-8.7 2.4-10.6.2-1.2 0-1.8-.2-2-.2-.1-.7-.1-1.5.3-1.5.8-4.2 4-7.2 8.4-2.3 3.1-4.4 8.1-4.4 8.2z" fill="#000000" stroke-width="none" opacity="1"></path><path id="SvgjsPath19964" d="M148.4 73.1c-3.5 4-6.5 10.6-7 16.9 0 .4.4.5.5.1.1-.6.2-1.1.4-1.7.3-.8.9-.9 1.6-.2-.1.5-.1 1-.3 1.4-.2.6-.4 1.3-.6 1.9-.6 1.5-1.3 2.6-2 3.9-.1.3 0 .7.3.5 1.7-1.4 3.4-5.4 3.4-8.2 0-.8-.3-1.6-.9-1.7-.4 0-.7.1-.9.4 1.3-4.9 3-8.9 5.8-13 0-.2-.1-.5-.3-.3z" fill="#000000" stroke-width="none" opacity="1"></path></g></g><g id="svga-group-faceshape-wrap" transform="matrix(1,0,0,1,0,0)"><g id="svga-group-faceshape-single"><path id="SvgjsPath19945" d="M139.4 74.3s.2-8.5-1.2-16.1c-2-10.8-13.3-27.4-37.2-27.4-23.9 0-31.9 12.7-35.5 22.2-3 8.1-3 21.3-3 21.3s-1.4 9.4-1 14.2-6.5 53.4 29 47.7c0 0 6 7.8 18 1.6 0 0 24.3 1.9 29.1-15.8s1.8-47.7 1.8-47.7z" fill="#ffffff" stroke-width="none" opacity="1"></path><path id="SvgjsPath19946" d="M99.8 141.5c-5.3 0-8.6-2.7-9.8-3.9-8.3 1.2-15-.5-19.9-4.9-11.3-10.1-10.4-31.7-10-40.9.1-1.5.1-2.8.1-3.2-.4-4.7.8-13.3 1-14.4 0-1.3.1-13.7 3.1-21.7 5.8-15.5 17.8-23 36.7-23 10.9 0 20.5 3.4 27.7 10 5.5 5 9.6 11.9 10.8 18.5 1.4 7.4 1.2 15.4 1.2 16.3.2 2.1 2.8 30.6-1.9 48.1-2.1 7.7-8 13.1-17.3 15.5-5.9 1.5-11.4 1.4-12.8 1.3-3.3 1.7-6.3 2.3-8.9 2.3zm-8.7-6.7.5.6c.2.3 5.6 6.8 16.3 1.3l.3-.2h.4c.2 0 23.3 1.6 27.8-14.9 4.6-17.3 1.8-46.9 1.8-47.2v-.2c0-.1.2-8.4-1.2-15.9-1.1-6-4.8-12.4-10-17-6.7-6.1-15.7-9.3-26-9.3-17.7 0-28.9 7-34.3 21.3-2.9 7.8-2.9 20.8-2.9 20.9v.2c0 .1-1.4 9.3-1 13.8.1.7 0 1.8-.1 3.6-.4 8.1-1.3 29.5 9.1 38.8 4.5 4 10.7 5.4 18.5 4.2h.8z" fill="#000000" stroke-width="none" opacity="1"></path></g></g><g id="svga-group-mouth-single-move" transform="matrix(1,0,0,1,0,0)"><g id="svga-group-mouth-single" transform="matrix(1,0,0,1,0,0)"><path id="SvgjsPath20025" d="M112.49 120.48c-.67.61-1.44.8-2.25.77v-.01c-1.46-3.33-4.65-5.48-8.28-5.63-.17-.01-.23.13-.22.26a1.734 1.734 0 0 1-3.3-.17c0-.01-.01-.01-.01-.01.06-.15-.06-.38-.28-.33-3.48.78-7.44 2.4-7.82 6.45-.94.17-1.81.06-2.46-.74-.38-.48-1.06.2-.67.67.94 1.16 2.29 1.27 3.61.92-.3 1.5.42 2.96 1.76 3.8 2.32 1.46 5.22.65 7.75.55 2.6-.1 5.5.51 7.86-.92 1.43-.87 2.22-2.31 2.04-3.93 1.05.04 2.05-.21 2.95-1.02.45-.4-.23-1.07-.68-.66zM98 115.9c.66 2.01 3.29 2.09 4.14.22 3.29.2 6.12 2.13 7.54 5.08-1.44-.21-2.97-.96-4.24-1.27-1.87-.46-3.82-.65-5.74-.57-1.81.08-3.63.39-5.36.94-.98.31-2.28 1.05-3.52 1.4.41-3.62 4.03-5.07 7.18-5.8zm2.31 10.65c-1.59.06-3.18.41-4.78.29-2.31-.16-4.97-1.72-4.2-4.34.03-.01.06-.02.1-.03 2.77-1.03 5.25-2.03 8.26-2.16 2.92-.12 5.53.54 8.28 1.42.59.19 1.18.33 1.75.4.87 5.1-6.38 4.3-9.41 4.42z" fill="#000000" stroke-width="none" opacity="1"></path></g></g><g id="svga-group-eyes-left-move" transform="matrix(1,0,0,1,0,0)"><g id="svga-group-eyes-left" transform="matrix(1,0,0,1,0,0)"><g id="svga-group-eyesback-left"></g><g id="svga-group-eyesiriswrapper-left"><g id="svga-group-eyesiriscontrol-left" transform="matrix(1,0,0,1,0,0)"><g id="svga-group-eyesiris-left" transform="matrix(1,0,0,1,0,0)"><path id="SvgjsPath19991" d="M76.6 87c.3 1.1.9 2 1.7 2.7.2.2.4.3.7.4s.5.2.7.3c.5.2 1 .2 1.5.2s1-.2 1.5-.4.9-.6 1.3-1 .6-.9.8-1.4c.2-.5.2-1.1.1-1.6-.2-1.1-.7-2-1.5-2.7-.4-.3-.9-.6-1.4-.7-.5-.1-1-.2-1.5-.2s-1 .1-1.5.3c-.5.2-.9.5-1.2.9-.2.2-.4.4-.5.6s-.3.4-.3.7c-.1.2-.1.5-.2.8-.2.5-.2.8-.2 1.1-.1-.6-.1-1.2 0-1.8.1-.3.2-.6.3-.8.2-.2.3-.5.5-.7l.6-.6c.2-.2.5-.4.8-.5.5-.3 1.1-.4 1.7-.4.6 0 1.2 0 1.7.2.6.2 1.1.5 1.6.8s.8.9 1.1 1.4c.2.5.4 1.1.4 1.7v.9c0 .3-.1.6-.2.8-.2.5-.5 1-.8 1.5-.4.4-.8.8-1.3 1.1-.5.3-1 .5-1.6.6-.6.1-1.2 0-1.7-.2-.7-.3-1.2-.6-1.7-1-.4-.4-.8-.9-1-1.4s-.4-1-.4-1.6zm5 .6c.2-.2.3-.4.3-.7 0-.6-.5-1.1-1.1-1.1h-.1c0 .2.1.3.1.5 0 .3-.4.6-.7.4-.1-.1-.2-.1-.3-.2-.1.1-.1.3-.1.4 0 .6.5 1.1 1.1 1.1.1 0 .3 0 .4-.1.1-.2.3-.3.4-.3zm-1-2.3c0 .1 0 .1.1.2h.2c.8 0 1.4.6 1.4 1.4 0 .3-.1.5-.2.8.1 0 .2.1.2.2.2-.3.3-.6.3-.9 0-.9-.7-1.7-1.7-1.7h-.3c0-.1 0 0 0 0zm.5 2.9h-.3c-.8 0-1.4-.6-1.4-1.4 0-.2.1-.4.2-.6-.1-.1-.1-.2-.2-.2-.2.2-.2.6-.2.9 0 .9.7 1.7 1.7 1.7.1 0 .3 0 .4-.1-.1-.2-.1-.3-.2-.3z" fill="#000000" stroke-width="none" opacity="1"></path></g></g></g><g id="svga-group-eyesfront-left"><path id="SvgjsPath20081" d="M81.02 74.43c-6.9 0-12.5 5.6-12.5 12.5s5.6 12.5 12.5 12.5 12.5-5.6 12.5-12.5-5.6-12.5-12.5-12.5zm4.54 16.93c-3.76 1.16-8.34-.16-10.67-1.75s-3.88-4.07-3.88-4.07c7.61-1.82 11.41-.23 14.24.93 2.83 1.16 4.19 3.45 4.19 3.45s-.12.28-3.88 1.44z" fill="#ffffff" stroke-width="none" opacity="1"></path><path id="SvgjsPath20082" d="M89.88 84.61c-.14-.24-.5-.08-.44.18.26 1.17.6 2.33.69 3.53.01.12 0 .23.01.34-1.72-4.58-4.19-7.31-7.36-8.12-5.72-1.48-11.67 3.75-12.75 4.76-2.31.78-4.43.91-5.94.34a.47.47 0 0 0-.61.28c-.09.24.03.52.28.61.79.3 1.64.42 2.49.42 1.39 0 2.77-.32 3.89-.68.06.01.13.01.2-.01 1.1-.32 2.14-.56 3.14-.74-.34.21-.74.42-1.2.63a.47.47 0 0 0-.6-.06c-.13.09-.2.24-.2.39-1.01.37-2.23.64-3.63.64a.47.47 0 1 0 0 .94c1.61 0 2.99-.33 4.12-.75 2.94 3.9 6.63 5.02 9.89 5.02 3.82 0 7.03-1.52 7.72-1.88.22.29.35.49.38.53.03.05.07.08.11.11 0 .15-.01.3-.01.45.01.25.4.41.52.14.9-2.08.47-5.16-.7-7.07zm-17.02 2.32c1.58-.75 2.49-1.62 2.55-1.68 0 0 0-.01.01-.01 7.54-.73 11.74 2.56 13.51 4.47-1.75.88-10.32 4.62-16.07-2.78zm-.78-2.1c1.89-1.45 5.24-3.59 8.63-3.59.61 0 1.23.07 1.84.23 2.76.71 4.96 3.11 6.55 7.13-2.48-2.36-7.87-5.8-17.02-3.77z" fill="#000000" stroke-width="none" opacity="1"></path></g></g></g><g id="svga-group-eyes-right-move" transform="matrix(1,0,0,1,0,0)"><g id="svga-group-eyes-right" transform="matrix(1,0,0,1,0,0)"><g id="svga-group-eyesback-right"></g><g id="svga-group-eyesiriswrapper-right"><g id="svga-group-eyesiriscontrol-right" transform="matrix(1,0,0,1,0,0)"><g id="svga-group-eyesiris-right" transform="matrix(1,0,0,1,0,0)"><path id="SvgjsPath19992" d="M115 87c.3 1.1.9 2 1.7 2.7.2.2.4.3.7.4s.5.2.7.3c.5.2 1 .2 1.5.2s1-.2 1.5-.4.9-.6 1.3-1 .6-.9.8-1.4c.2-.5.2-1.1.1-1.6-.2-1.1-.7-2-1.5-2.7-.4-.3-.9-.6-1.4-.7-.5-.1-1-.2-1.5-.2s-1 .1-1.5.3c-.5.2-.9.5-1.2.9-.2.2-.4.4-.5.6s-.3.4-.3.7c-.1.2-.1.5-.2.8-.2.5-.2.8-.2 1.1-.1-.6-.1-1.2 0-1.8.1-.3.2-.6.3-.8.2-.2.3-.5.5-.7l.6-.6c.2-.2.5-.4.8-.5.5-.3 1.1-.4 1.7-.4.6 0 1.2 0 1.7.2.6.2 1.1.5 1.6.8s.8.9 1.1 1.4c.2.5.4 1.1.4 1.7v.9c0 .3-.1.6-.2.8-.2.5-.5 1-.8 1.5-.4.4-.8.8-1.3 1.1-.5.3-1 .5-1.6.6-.6.1-1.2 0-1.7-.2-.6-.2-1.1-.5-1.5-.9-.4-.4-.8-.9-1-1.4s-.6-1.1-.6-1.7zm5 .6c.2-.2.3-.4.3-.7 0-.6-.5-1.1-1.1-1.1h-.1c0 .2.1.3.1.5 0 .3-.4.6-.7.4-.1-.1-.2-.1-.3-.2-.1.1-.1.3-.1.4 0 .6.5 1.1 1.1 1.1.1 0 .3 0 .4-.1.1-.2.2-.3.4-.3zm-1-2.3c0 .1 0 .1.1.2h.2c.8 0 1.4.6 1.4 1.4 0 .3-.1.5-.2.8.1 0 .2.1.2.2.2-.3.3-.6.3-.9 0-.9-.7-1.7-1.7-1.7h-.3c0-.1 0 0 0 0zm.5 2.9h-.3c-.8 0-1.4-.6-1.4-1.4 0-.2.1-.4.2-.6-.1-.1-.1-.2-.2-.2-.2.2-.2.6-.2.9 0 .9.7 1.7 1.7 1.7.1 0 .3 0 .4-.1-.1-.2-.2-.3-.2-.3z" fill="#000000" stroke-width="none" opacity="1"></path></g></g></g><g id="svga-group-eyesfront-right"><path id="SvgjsPath20083" d="M118.98 74.43c-6.9 0-12.5 5.6-12.5 12.5s5.6 12.5 12.5 12.5 12.5-5.6 12.5-12.5-5.59-12.5-12.5-12.5zm6.4 15.19c-2.33 1.59-6.91 2.91-10.67 1.75-3.76-1.16-3.88-1.44-3.88-1.44s1.36-2.29 4.19-3.45c2.83-1.16 6.64-2.75 14.24-.93 0-.01-1.55 2.48-3.88 4.07z" fill="#ffffff" stroke-width="none" opacity="1"></path><path id="SvgjsPath20086" d="M136.79 85.93a.474.474 0 0 0-.61-.28c-1.51.57-3.63.43-5.94-.34-1.08-1.01-7.03-6.24-12.75-4.76-3.6.93-6.29 4.31-8.02 10.06a.471.471 0 0 0 .45.61c.16 0 .32-.08.4-.23.03-.05.16-.25.38-.53.69.35 3.9 1.88 7.72 1.88 3.26 0 6.95-1.12 9.89-5.02 1.13.43 2.51.75 4.12.75a.47.47 0 1 0 0-.94c-1.4 0-2.62-.28-3.63-.64 0-.15-.06-.3-.2-.39a.47.47 0 0 0-.6.06c-.46-.21-.86-.43-1.2-.63 1 .18 2.04.41 3.14.74.07.02.13.02.2.01 1.12.36 2.5.68 3.89.68.84 0 1.69-.12 2.49-.42.24-.1.36-.37.27-.61zm-11.93-.67c.07.06.97.93 2.55 1.68-5.75 7.39-14.32 3.66-16.07 2.78 1.77-1.92 5.97-5.21 13.52-4.46-.01-.01-.01-.01 0 0zm-13.69 3.33c1.59-4.02 3.79-6.42 6.55-7.13.61-.16 1.22-.23 1.84-.23 3.39 0 6.75 2.14 8.63 3.59-9.15-2.02-14.55 1.42-17.02 3.77z" fill="#000000" stroke-width="none" opacity="1"></path></g></g></g><g id="svga-group-facehighlight-single"></g><g id="svga-group-eyebrows-left-move" transform="matrix(1,0,0,1,0,0)"><g id="svga-group-eyebrows-left-rotate" transform="matrix(1,0,0,1,0,0)"><g id="svga-group-eyebrows-left" transform="matrix(1,0,0,1,0,0)"><path id="SvgjsPath20051" d="M90.6 76.2c.1 0 .2 0 .2.1l1.9 4.8c0 .1 0 .2-.1.2h-.1c-.1 0-.2-.1-.2-.1l-1.9-4.8c0-.1.1-.2.2-.2zM87 73.9c.1-.1.2-.1.3 0 1.5 1.6 2.8 3.3 3.8 5.2.1.1 0 .2-.1.2h-.1c-.1 0-.1 0-.2-.1-1.1-1.8-2.3-3.6-3.8-5.1 0 0 0-.1.1-.2zm-4.4-.9c.1-.1.2-.1.3 0 2 1.3 4 2.8 5.8 4.4.1.1.1.2 0 .3l-.1.1s-.1 0-.1-.1c-1.8-1.6-3.7-3.1-5.7-4.4-.2-.1-.3-.2-.2-.3zm-5.1-.4c0-.1.1-.2.2-.1 2.4.8 4.7 1.8 6.8 3.2.1.1.1.2.1.2 0 .1-.1.1-.2.1h-.1c-2.1-1.3-4.3-2.4-6.7-3.1 0-.1-.1-.2-.1-.3zm-3.8 1.2c0-.1.1-.2.2-.2 2.4 0 4.8.4 6.9 1.3.1 0 .1.2.1.2 0 .1-.1.1-.2.1h-.1c-2.1-.9-4.5-1.3-6.8-1.3 0 0-.1 0-.1-.1zm-4.4 1.9c-.1 0-.2-.1-.2-.1 0-.1 0-.2.2-.2 2.4-.5 4.8-.6 7.2-.5.1 0 .2.1.2.2s-.1.2-.2.2c-2.5-.2-4.9-.1-7.2.4zm-1 1.9c-.1 0-.2-.1-.2-.1 0-.1 0-.2.1-.2l4.6-1.6c.1 0 .2 0 .2.1s0 .2-.1.2l-4.6 1.6c.1 0 .1 0 0 0zm-.5 1.4c.9-.7 1.9-1.2 2.9-1.7.1 0 .2 0 .3.1 0 .1 0 .2-.1.2-1 .4-2 1-2.8 1.6H68c-.1 0-.1 0-.2-.1-.1.1-.1 0 0-.1z" fill="#000000" stroke-width="none" opacity="1"></path></g></g></g><g id="svga-group-eyebrows-right-move" transform="matrix(1,0,0,1,0,0)"><g id="svga-group-eyebrows-right-rotate" transform="matrix(1,0,0,1,0,0)"><g id="svga-group-eyebrows-right" transform="matrix(1,0,0,1,0,0)"><path id="SvgjsPath20052" d="M109.4 76.2c-.1 0-.2 0-.2.1l-1.9 4.8c0 .1 0 .2.1.2h.1c.1 0 .2-.1.2-.1l1.9-4.8c0-.1-.1-.2-.2-.2zm3.6-2.3c-.1-.1-.2-.1-.3 0-1.5 1.6-2.8 3.3-3.8 5.2-.1.1 0 .2.1.2h.1c.1 0 .1 0 .2-.1 1.1-1.8 2.3-3.6 3.8-5.1 0 0 0-.1-.1-.2zm4.4-.9c-.1-.1-.2-.1-.3 0-2 1.3-4 2.8-5.8 4.4-.1.1-.1.2 0 .3l.1.1s.1 0 .1-.1c1.8-1.6 3.7-3.1 5.7-4.4.2-.1.3-.2.2-.3zm5.1-.4c0-.1-.1-.2-.2-.1-2.4.8-4.7 1.8-6.8 3.2-.1.1-.1.2-.1.2 0 .1.1.1.2.1h.1c2.1-1.3 4.3-2.4 6.7-3.1 0-.1.1-.2.1-.3zm3.8 1.2c0-.1-.1-.2-.2-.2-2.4 0-4.8.4-6.9 1.3-.1 0-.1.2-.1.2 0 .1.1.1.2.1h.1c2.1-.9 4.5-1.3 6.8-1.3 0 0 .1 0 .1-.1zm4.4 1.9c.1 0 .2-.1.2-.1 0-.1 0-.2-.1-.2-2.4-.5-4.8-.6-7.2-.5-.1 0-.2.1-.2.2s.1.2.2.2c2.4-.2 4.8-.1 7.1.4zm.9 1.9c.1 0 .1-.1.2-.1 0-.1 0-.2-.1-.2l-4.6-1.6c-.1 0-.2 0-.2.1s0 .2.1.2l4.6 1.6zm.6 1.4c-.9-.7-1.9-1.2-2.9-1.7-.1 0-.2 0-.3.1 0 .1 0 .2.1.2 1 .4 2 1 2.9 1.6h.1c.1 0 .1 0 .1-.1.1.1.1 0 0-.1z" fill="#000000" stroke-width="none" opacity="1"></path></g></g></g><g id="svga-group-nose-single-move" transform="matrix(1,0,0,1,0,0)"><g id="svga-group-nose-single" transform="matrix(1,0,0,1,0,0)"><path id="SvgjsPath20035" d="M103.8 104.3c.5 2.2-1.5 6.5-4.3 5.6-2.9-.9-4.5-4.5-3.6-7.3.4-1.3 1.2-2.6 1.5-3.9.4-1.3.3-2.6 0-3.9-.7-2.6-3-7.1.5-8.7.5-.2.1-.9-.4-.7-2.4 1.1-2.6 4.1-1.9 6.3.4 1.6 1.2 3.2 1.3 4.9.1 1.7-.7 3.1-1.3 4.6-.5 1.1-.9 2.4-.8 3.6 0 .1 0 .3.1.4-.5-.4-1.1-.5-1.7-.3-.5.2-.3 1 .2.8.3-.1.7-.1 1 .1l.1.1c-1.3.1-3.2 0-3.1-1.8.1-1.4 1.5-2.2 2.7-2.5.5-.2.3-1-.2-.8-1.6.5-3.4 1.7-3.3 3.6.1 2.1 2.3 2.4 3.9 2.3.5 0 .5-.6.2-.8.1 0 .2 0 .3-.1l.1-.1c.3.9.7 1.7 1.2 2.5 1.3 1.8 3.7 3.3 5.9 1.9 1.8-1.2 3-4.1 2.5-6.2-.3-.4-1.1-.1-.9.4z" fill="#000000" stroke-width="none" opacity="1"></path><path id="SvgjsPath20036" d="M105.7 100.6c-.5 0-.5.8 0 .8 1.3-.1 2.4.8 2.4 2.2 0 .9-.6 1.6-1.4 1.9.3-.1.3-.6-.1-.8-.6-.2-1.3-.1-1.8.4-.4.3 0 .8.4.7-.1.2 0 .6.3.7 1.7.2 3.3-1 3.4-2.8 0-1.9-1.5-3.2-3.2-3.1zm-.2 5c.2-.2.5-.2.8-.1h.2c-.3.1-.6.1-1 .1z" fill="#000000" stroke-width="none" opacity="1"></path></g></g><g id="svga-group-hair-front" transform="matrix(1,0,0,1,0,0)"><path id="SvgjsPath20214" d="M118.4 47.9s2 11.6 1.8 17l12.5.2-.4-5.3s3.5 8.4 2.7 21.6c-.8 13.1-3.9 29-3.9 29s9.2-4.3 11.8-6.1l3.1-15.1-.4 13.5s6.1-3.9 8-5.9c0 0-1.4-17.6-2.4-25.7l4.7 15.3s-2.2-13.9-6.5-24.3-13.9-24.9-22.2-30.8-19.4-7.8-27-5.1c0 0-9-2.5-13.1-2.2-4.1.4-31.2 15.1-36.7 41.9s-4.1 30-4.1 30 3.5 3.7 4.9 4.1l1-7.4 2 10.2s12.3 6.3 17.6 7.1c0 0-6.3-15.1-6.7-27-.4-12 2-31.4 7.1-39.4 0 0-1.8 13.3-2.2 20.2 0 0 30.2 5.5 45.7 1.8.2.1 2.7-11.7 2.7-17.6z" fill="#ffffff" stroke="#000000" stroke-width="1" opacity="1"></path><path id="SvgjsPath20215" d="M89.4 26.6c-7.5 10.1-10.8 22.3-9.6 34.8.1.8 1.3.8 1.2 0-1.2-12.3 2.1-24.2 9.4-34.1.5-.7-.6-1.3-1-.7zM88.8 37c-2.7 8.6-3.4 17.3-2.1 26.2.1.8 1.3.5 1.2-.3-1.3-8.7-.6-17.2 2.1-25.5.3-.8-.9-1.2-1.2-.4zm2.8 6.3c-1.6 5.8-1.7 11.7-.4 17.5.2.8 1.4.5 1.2-.3-1.3-5.7-1.1-11.3.4-16.9.2-.8-1-1.1-1.2-.3zm3.5 4.9c-.3 3.3-.1 6.5.6 9.8.2.8 1.4.5 1.2-.3-.7-3.1-.9-6.3-.6-9.5.2-.8-1.1-.8-1.2 0zm3.8.6c-.1 3.2.1 6.4.6 9.6.1.8 1.3.5 1.2-.3-.5-3.1-.7-6.2-.5-9.3-.1-.8-1.3-.8-1.3 0zm-21.1-10c-2.3 7.1-3.6 14.3-3.8 21.8 0 .8 1.2.8 1.2 0 .2-7.3 1.4-14.5 3.7-21.4.4-.8-.8-1.1-1.1-.4zm30-2.4c.6 8.9 1.2 17.7 1.8 26.6.1.8 1.3.8 1.2 0-.6-8.9-1.2-17.7-1.8-26.6 0-.8-1.2-.8-1.2 0zm1.8-5.8c3 10.8 4.1 21.8 3.3 33-.1.8 1.2.8 1.2 0 .8-11.3-.3-22.4-3.4-33.3-.1-.8-1.3-.5-1.1.3zm8.8 7.3c2.8 8.3 4.3 16.8 4.6 25.5 0 .8 1.3.8 1.2 0-.3-8.9-1.8-17.4-4.7-25.8-.1-.8-1.3-.5-1.1.3zm7.5 8.4c.7 4.7 1.4 9.4 2 14 .1.8 1.3.5 1.2-.3-.7-4.7-1.4-9.4-2-14-.1-.8-1.3-.4-1.2.3zm1.1-7.5c9.9 14.6 14.1 32 12 49.5-.1.8 1.2.8 1.2 0 2.1-17.7-2.2-35.4-12.2-50.1-.3-.7-1.4-.1-1 .6zm-55.1-2.3C61.4 54 57.6 74.6 61.2 94.7c.1.8 1.3.5 1.2-.3-3.5-19.8.3-40.1 10.6-57.3.4-.7-.7-1.3-1.1-.6zm-10 13.4c-5.8 9.9-7.9 21-6.3 32.3.1.8 1.3.5 1.2-.3-1.6-11 .6-21.8 6.2-31.3.4-.8-.7-1.4-1.1-.7z" fill="#000000" stroke-width="none" opacity="1"></path></g><g id="svga-group-glasses-single-move" transform="matrix(1,0,0,1,0,0)"><g id="svga-group-glasses-single" transform="matrix(1,0,0,1,0,0)"><path id="SvgjsPath20117" d="M96.58 85.66c0-4.45-3.61-8.07-8.07-8.07-2.89 0-5.43 1.53-6.85 3.82 0 0-.14.17-.35.18-.24.02-.4-.19-.41-.18a8.044 8.044 0 0 0-6.85-3.82c-4.45 0-8.07 3.61-8.07 8.07 0 .36.03.72.08 1.06h-.01s.72 5.92 4.85 10.23c4.55 4.74 9.55 6.75 10.36 6.76.81-.02 5.81-2.02 10.36-6.76 4.13-4.31 4.85-10.23 4.85-10.23h-.01c.09-.35.12-.7.12-1.06z" fill="url(#SvgjsLinearGradient20118)" opacity="1"></path><path id="SvgjsPath20128" d="M102.78 85.66c0-4.45 3.61-8.07 8.07-8.07 2.89 0 5.43 1.53 6.85 3.82 0 0 .14.17.35.18.24.02.4-.19.41-.18a8.044 8.044 0 0 1 6.85-3.82c4.45 0 8.07 3.61 8.07 8.07 0 .36-.03.72-.08 1.06h.01s-.72 5.92-4.85 10.23c-4.55 4.74-9.55 6.75-10.36 6.76-.81-.02-5.81-2.02-10.36-6.76-4.13-4.31-4.85-10.23-4.85-10.23h.01c-.09-.35-.12-.7-.12-1.06z" fill="url(#SvgjsLinearGradient20129)" opacity="1"></path><path id="SvgjsPath20139" d="M133.73 84.31c-.18-1.11-.57-2.18-1.15-3.09-1.03-1.69-2.6-2.97-4.4-3.6a8.514 8.514 0 0 0-5.7-.05 8.632 8.632 0 0 0-4.4 3.46 8.468 8.468 0 0 0-4.13-3.37c-1.72-.67-3.65-.74-5.44-.22a8.54 8.54 0 0 0-4.46 3.09c-.73.95-1.25 2.09-1.51 3.33a9.672 9.672 0 0 0-5.7.04 8.24 8.24 0 0 0-1.51-3.36 8.43 8.43 0 0 0-4.46-3.09c-1.79-.52-3.72-.45-5.44.22-1.69.63-3.15 1.83-4.14 3.37a8.632 8.632 0 0 0-4.4-3.46 8.452 8.452 0 0 0-5.7.05c-1.81.64-3.37 1.92-4.4 3.6a8.28 8.28 0 0 0-1.15 3.1l-1.16-.07.26 2.17.83.03v.03l-.02.02.05.32c.7 4.31 2.59 8.18 5.32 10.9 1.41 1.43 2.99 2.73 4.71 3.88.91.6 1.78 1.11 2.65 1.55l.29.14c.82.4 1.67.81 2.67.99l.07.01.07-.01c1-.17 1.85-.59 2.67-.99l.29-.14c.86-.44 1.73-.95 2.64-1.55a29.7 29.7 0 0 0 4.69-3.9c2.73-2.73 4.61-6.6 5.3-10.9l.03-.36-.02-.01.05-.76c.9-.34 1.82-.5 2.78-.49.84.01 1.71.16 2.53.44v.05l.05.77-.04.02.05.33c.69 4.29 2.57 8.15 5.29 10.88a29.7 29.7 0 0 0 4.69 3.9c.92.6 1.78 1.11 2.65 1.55l.28.14c.82.4 1.67.81 2.67.98l.07.01.07-.01c1-.17 1.85-.59 2.67-.99l.3-.14c.86-.44 1.73-.95 2.64-1.55 1.72-1.15 3.3-2.45 4.71-3.88 2.73-2.72 4.61-6.59 5.33-10.93l.04-.33.81-.03.26-2.17-1.15.08zm-15.66 18.86c-.82-.16-1.66-.58-2.54-1.01-.82-.42-1.65-.91-2.53-1.49a29.052 29.052 0 0 1-4.57-3.72c-2.58-2.52-4.4-6.14-5.11-10.2l-.06-.75.29.14.76-1.58-.39-.19a8.11 8.11 0 0 0-.52-.22c.24-1.15.71-2.2 1.4-3.07.98-1.3 2.39-2.26 3.98-2.7 1.58-.45 3.28-.36 4.79.24 1.49.58 2.8 1.67 3.68 3.07l.05.07c.21.23.48.36.77.36.14 0 .31-.04.46-.12.06-.03.11-.07.16-.11l.29-.34a7.578 7.578 0 0 1 3.83-3.03c1.62-.58 3.41-.58 5.05.01 1.62.56 3.04 1.72 3.92 3.18.9 1.45 1.26 3.21 1.02 4.98l-.02.16c-.71 4-2.51 7.57-5.08 10.09a29.376 29.376 0 0 1-4.54 3.73c-.88.58-1.71 1.06-2.6 1.52-.83.41-1.67.83-2.49.98zM76.56 78.52c1.56.55 2.92 1.62 3.83 3.04l.28.34a.99.99 0 0 0 .61.22c.33-.02.56-.13.83-.43.89-1.4 2.2-2.49 3.69-3.07 1.51-.6 3.21-.69 4.79-.24 1.59.44 3 1.4 3.98 2.71.69.87 1.16 1.95 1.4 3.12-.14.06-.26.11-.38.17l-.39.19.76 1.58.14-.07-.05.66c-.71 4.06-2.53 7.69-5.12 10.22a29.574 29.574 0 0 1-4.57 3.71c-.89.58-1.71 1.07-2.6 1.52-.82.4-1.66.82-2.48.98-.82-.16-1.66-.57-2.54-1.01-.83-.42-1.66-.91-2.53-1.49a29.048 29.048 0 0 1-4.55-3.74c-2.56-2.51-4.36-6.09-5.07-10.08l-.03-.2c-.24-1.74.13-3.49 1.03-4.95.88-1.46 2.3-2.62 3.92-3.18 1.63-.57 3.42-.58 5.05 0z" fill="#000000" stroke-width="none" opacity="1"></path></g></g></g></g></g><rect id="svga-credit-rect" width="200" height="15" x="0" y="185" fill="#ecf0f1" opacity="0.5" style="display: none;"></rect><text id="svga-credit-text" font-family="Avenir Next, Roboto, Helvetica, Arial, sans-serif" font-size="10px" text-anchor="start" font-weight="400" size="10px" anchor="start" weight="400" fill="#333333" x="33.402061462402344" y="182.71133995056152" style="display: none;"><tspan id="SvgjsTspan19518" dy="13" x="33.402061462402344">Created on AvatarMaker.com</tspan></text></g></svg>