<svg xmlns="http://www.w3.org/2000/svg" version="1.1" width="600px" height="600px" viewBox="0 0 200 200" style="overflow:hidden!important;"><defs id="SvgjsDefs50160"></defs><g id="svga-group-wrapper"><g id="svga-group-backs-single"></g><g id="svga-group-humanwrap-move" transform="matrix(1,0,0,1,0,0)"><g id="svga-group-humanwrap" transform="matrix(1,0,0,1,0,0)"><g id="svga-group-hair-back-move" transform="matrix(1,0,0,1,0,0)"><g id="svga-group-hair-back" transform="matrix(1,0,0,1,0,0)"></g></g><g id="svga-group-humanbody-back"><path id="SvgjsPath50570" d="M77.6 118.3c0 19.3 3.4 44.1-10 51.9-13.4 7.9-31.9 11.3-37.8 22s-4.4 25.3-4.4 25.3h149.3s.7-18.9-5.1-26.4c-8.1-10.4-27.8-15.5-37.7-20.9s-13.4-25.1-13.4-52.4l-40.9.5z" fill="#ffffff" stroke-width="none" opacity="1"></path><path id="SvgjsPath50571" d="M175.8 218.7H24.4l-.1-1c-.1-.6-1.5-15.1 4.5-26 4.1-7.4 13.5-11.3 23.5-15.5 5-2.1 10.2-4.3 14.8-6.9 10.6-6.2 10.1-23.9 9.6-41-.1-3.5-.2-6.8-.2-10v-1.1l43.2-.4v1.1c0 29.9 4.2 46.7 12.8 51.4 2.9 1.6 6.7 3.2 10.8 4.9 10 4.1 21.3 8.8 27.2 16.3 6.1 7.7 5.4 26.4 5.4 27.1l-.1 1.1zm-149.3-2.2h147.1c0-4.1-.2-18.5-4.9-24.6-5.5-7-16.6-11.6-26.3-15.6-4.1-1.7-8-3.3-11-5-5.1-2.8-8.7-8.9-10.9-18.7-2-8.4-2.9-19.4-3-33.5l-38.6.4c0 2.8.1 5.7.2 8.8.5 17.8 1 36.1-10.7 43-4.7 2.7-9.9 4.9-15 7.1-9.6 4-18.7 7.8-22.4 14.5-5 8.6-4.7 20.1-4.5 23.6z" fill="#000000" stroke-width="none" opacity="1"></path><path id="SvgjsPath50572" d="M93.9 153.8c-.5 1.8-.4 3.4.5 5.2.8 1.6 2.1 2.7 3.9 2.9.4 0 .7-.5.5-.8-1.6-2.2-3.5-4.2-3.7-7.1 0-.7-1-.9-1.2-.2zm18.6 33.7c8.8.5 18.1-.7 26.6-2.9.7-.2.6-1.4-.2-1.3-8.8 1.1-17.7 2-26.5 3.3-.5.1-.3.9.1.9zm-49.4-5c3.8.9 7.6 1.9 11.5 2.8 3.6.8 7.4 2 11.1 2.1.7 0 .8-.9.2-1.2-3.5-1.4-7.5-1.7-11.2-2.5-3.8-.7-7.5-1.3-11.3-2-.5 0-.7.7-.3.8z" fill="#000000" stroke-width="none" opacity="1"></path></g><g id="svga-group-chinshadow-single"></g><g id="svga-group-humanbody-front"></g><g id="svga-group-clothes-single"><path id="SvgjsPath50702" d="M74.7 150.8s-1.1 8.9-2.1 11c0 0-1.6 5.2-11.4 8.9S37.9 180 33.6 183s-12.8 13.7-9.8 35.4h152.8s.9-16.4-2.7-24c-3.7-7.5-8.7-10.1-13.7-12.8-5-2.7-21.9-10.1-25.4-11.9s-6.4-3.7-7.8-5.5c-1.4-1.8-4.1-12.3-4.1-12.3s-2.5 1.8-7.5 3.2-10.5 1.1-12.8 3.2-1.6 10.5-1.6 10.5l-2.5-.2s0-7.1-1.1-9.6-7.8-3.4-13.7-4.8c-6-1.4-9-3.4-9-3.4z" fill="#ffffff" stroke-width="none" opacity="1"></path><path id="SvgjsPath50703" d="M174.8 193.9c-3.7-7.5-8.7-10.3-13.6-12.9l-.6-.3c-2.9-1.6-9.5-4.6-15.4-7.2-4.4-2-8.5-3.9-10-4.6-2.8-1.5-6.1-3.4-7.4-5.2-.9-1.2-2.9-8-3.9-12-.1-.3-.3-.6-.6-.7s-.7-.1-.9.1c0 0-2.5 1.8-7.2 3-1.8.5-3.7.8-5.6 1.1-3.2.5-6 .9-7.6 2.4-2.1 1.9-2.1 7.5-2 10.1h-.4c0-2.1-.2-6.9-1.2-9.1-1.2-2.5-5.8-3.5-11.2-4.7-1.1-.2-2.1-.5-3.2-.7-5.6-1.3-8.5-3.2-8.6-3.3-.3-.2-.7-.2-1-.1s-.5.4-.6.8c-.3 2.4-1.3 9.1-2 10.7v.1c0 .1-1.7 4.9-10.8 8.3-10.3 3.8-23.5 9.5-27.9 12.4-5.2 3.5-13.1 15.2-10.2 36.4.1.5.5.9 1 .9h152.8c.5 0 1-.4 1-.9-.1-.8.8-16.9-2.9-24.6zm-40.5-23.3c1.5.8 5.5 2.6 10.1 4.7 5.8 2.6 12.5 5.6 15.3 7.2l.6.3c.3.2.7.4 1 .6-3.9 4.2-6.4 11.3-7.5 20.4-.1.1-.2.3 0 .4 0 .4-.1.8-.1 1.2-.1-.1-.3-.1-.4-.1-.2-.1-.4.3-.1.4.2.1.3.1.5.2-.3 3.6-.5 7.5-.4 11.6h-52.2V209h8.7c.6 0 1-.4 1-1s-.4-1-1-1h-8.7v-11.3l7.3.2c.5 0 1-.4 1-1s-.4-1-1-1l-7.3-.2v-13.1c3.5 0 6.7.1 6.8.1.6 0 1-.4 1-1s-.4-1-1-1c-.3 0-3.4 0-6.8-.1V172c7.9 0 16.7-1.7 25.9-6.5 1.5 1.9 4.5 3.6 7.3 5.1zm-47.7-14.7c4.2.9 9.1 1.9 9.8 3.5.9 1.9 1.1 7.3 1.1 9.2 0 .5.4.9.9 1l2.5.2c.3 0 .6-.1.8-.3.2-.2.3-.5.3-.8-.3-3.3-.1-8.5 1.3-9.7 1.2-1.1 3.8-1.5 6.6-1.9 1.9-.3 3.8-.6 5.8-1.1 3.2-.9 5.4-1.9 6.7-2.6.7 2.5 2.2 7.9 3.4 10.4-5.9 3.1-11.8 4.9-17.3 5.6-.1-3.8-.2-7.6 0-11.5 0-.2-.3-.2-.3 0-.3 3.8-.4 7.7-.1 11.5-5.5.8-10.7.6-15.3-.1.2-2.2.1-4.6.1-6.8 0-.3-.4-.3-.4 0-.1 2.2-.3 4.5-.2 6.7-.6-.1-1.2-.2-1.7-.3l.1-.1c-.1-3.6-.2-7 .3-10.6 0-.3-.4-.4-.4-.1-.6 3.5-1 7.3-.3 10.8-.6-.1-1.2-.2-1.8-.4.4-3.7.5-7.6.6-11.3 0-.2-.3-.2-.4 0-.3 3.7-.7 7.5-.7 11.3-.6-.1-1.2-.3-1.8-.5.6-3.5.8-7.1 1.1-10.7 0-.2-.3-.2-.4 0-.4 3.5-1 7.1-1.2 10.6-.7-.2-1.3-.4-2-.6.1-3.4.4-6.7 1.4-10.1.1-.2-.3-.3-.4-.1-1 3.2-1.7 6.6-1.6 10-.5-.1-.9-.3-1.3-.4.1-3.9.2-7.6 1.2-11.5v-.1c.1 0 .2.1.4.1 1 .2 2.1.4 3.2.7zm-6-1.5c.7.2 1.4.4 2.2.6 0 0-.1 0-.1.1-1.1 3.6-1.8 7.7-1.3 11.4-.6-.2-1.2-.4-1.7-.6.1-3.9.2-7.7.9-11.5zm-1.4 11.3c-.7-.3-1.3-.6-1.9-.8 0 0 0-.1.1-.1.2-3.8.3-7.5.9-11.2.6.2 1.3.5 2 .7-.8 3.7-1.4 7.6-1.1 11.4zm-3.7-13.3c.6.3 1.3.7 2.3 1.1-.7 3.7-1.1 7.5-.9 11.3-.9-.4-1.6-.8-2.3-1.1.7-3.3 1.2-7 1.2-10.4 0-.2-.3-.2-.3-.1-.7 3.2-1.2 6.8-1.4 10.1-.3-.2-.7-.4-.9-.5.2-.4.3-.7.3-.8.8-1.6 1.6-7 2-9.6zm-13.9 19.2c5.9-2.2 9-5 10.6-7 2.8 1.6 13.1 6.9 26.8 7.4v6.6c-3.7 0-7.3-.1-7.7-.1-.6 0-1 .4-1 1s.4 1 1 1h2.2c-1.2.5-2.7.8-3.5-.5-1-1.6 1.1-3.4 2.2-1.7.1.2.6.1.5-.2-.3-.9-1.2-1.3-2.1-1.1-1 .2-1.5 1.2-1.5 2.1.1 2.5 3.5 3 5 1.6.1-.1.1-.2 0-.2 1.4 0 3.1 0 4.8.1v13.1l-6.8-.2c-.5-.1-1 .4-1 1s.4 1 1 1l6.8.2V207h-7.8c-.6 0-1 .4-1 1s.4 1 1 1h7.8v8.4H45.8c.4-25.4-5.6-33.1-8.6-35.4 5.7-3 16-7.3 24.4-10.4zm-37.2 43.3c2.7.7 5.4 1.3 8.2 1.9.2 0 .2-.2.1-.3-2.7-.8-5.5-1.5-8.3-2.1 0-.7-.1-1.3-.1-2 2.8.8 5.6 1.6 8.5 2 .3.1.4-.4.1-.4-2.8-.9-5.8-1.5-8.6-2.1V209c3.4.7 6.8 1.5 10.3 1.9.2 0 .3-.3 0-.4-3.4-.9-6.9-1.4-10.3-2 0-1.1.1-2.1.1-3.1 2.9.8 5.9 1.6 8.9 2.1.2 0 .3-.3.1-.4-2.9-1-5.9-1.6-8.9-2.2.1-.8.2-1.5.3-2.2 2.1.8 4.2 1.5 6.4 2 .3.1.5-.3.2-.4-2.1-.9-4.3-1.5-6.5-2.1.1-.8.2-1.5.4-2.2 2.3.4 4.6.9 7 1.1.2 0 .3-.4 0-.4-2.3-.5-4.6-.8-6.9-1.1.2-.9.4-1.7.6-2.5 2.7.8 5.4 1.5 8.1 2 .2 0 .3-.3.1-.4-2.6-.9-5.3-1.5-8-2.1.2-.7.4-1.4.7-2 2.3.7 4.6 1.4 6.9 1.9.2.1.3-.3.1-.4-2.2-.8-4.6-1.4-6.9-2 .2-.6.5-1.3.8-1.9 2.3.8 4.6 1.7 7 2.2.2 0 .3-.2.1-.3-2.2-1-4.5-1.6-6.9-2.4.3-.7.7-1.3 1-1.9 2.2.4 4.5.9 6.8 1 .2 0 .3-.3 0-.4-2.1-.5-4.4-.8-6.6-1.1.5-.7.9-1.4 1.4-2 1.9.6 3.9 1.3 5.9 1.7.3.1.4-.3.1-.4-1.8-.7-3.8-1.2-5.7-1.7.7-.8 1.3-1.5 2-2.1 1.7.5 3.3.9 5 1.1.2 0 .2-.3 0-.4-1.4-.6-3-.9-4.5-1.2.3-.2.5-.4.8-.6.1-.1.3-.2.5-.3.4.1.8.2 1.3.4.3.1.6.3.9.4 2.7 2.6 7.4 10.5 7 33.1H24.6c-.1-.8-.1-1.6-.2-2.4zm151.2 2.5h-20.5v-1.8c.9.4 1.8.7 2.7.8.2 0 .4-.3.2-.4-.9-.5-1.9-.9-2.9-1.1V212c1.6.6 3.1 1.3 4.7 1.7.1 0 .2-.2.1-.2-1.6-.7-3.2-1.3-4.8-1.9 0-.8.1-1.6.1-2.4 1.4.6 2.7 1.3 4.1 1.8.1 0 .2-.1.1-.2-1.3-.8-2.8-1.4-4.2-2 0-.7.1-1.4.1-2 1.3.6 2.6 1.1 3.9 1.4.1 0 .2-.2.1-.3-1.2-.8-2.6-1.3-4-1.8 0-.3.1-.7.1-1 1.1.5 2.3 1 3.4 1.4.2.1.4-.3.2-.4-1.1-.6-2.3-1.1-3.5-1.6.1-.6.1-1.1.2-1.7 1.1.6 2.2 1.2 3.3 1.5.1.1.2-.1.1-.2-1-.7-2.2-1.3-3.4-1.8.1-.9.3-1.7.4-2.5.8.5 1.5.9 2.3 1.2.2.1.3-.2.1-.4-.7-.6-1.6-1-2.4-1.4.1-.7.3-1.3.4-2 .9.5 1.7 1 2.7 1.4.2.1.3-.2.1-.3-.8-.6-1.8-1.1-2.7-1.5 1.3-5.4 3.4-9.6 6-12.3 3.7 2.2 7.2 4.9 9.9 10.5 3.5 6 3.3 18.8 3.1 22.4zm-82.3-21.1c.1-.2-.1-.4-.3-.3-1 .8-2.5 1-3-.4-.6-1.4.8-2.5 2.1-2.3.3.1.4-.3.1-.4-1.8-.7-3.4 1.2-2.8 2.9.5 1.6 3.1 2.2 3.9.5zM89.8 210c.7.3 1.7.4 2.3-.2.2-.2 0-.5-.2-.4-.5.2-1 .3-1.6.2-.7-.2-1.1-.8-1.1-1.5-.1-1.5 1.6-2.1 2.8-1.4.2.1.4-.2.2-.3-1.5-1.1-3.6 0-3.5 1.8-.1.7.4 1.5 1.1 1.8zm20.1-4.8c-.2 0-.3.3-.1.4.9.4 1.7 1.1 1.9 2.1.1.6.1 1.2-.2 1.7-.5.8-1.7 1.1-2.2.1-.1-.2-.5-.1-.4.2.7 1.9 2.9.9 3.4-.6.5-1.7-.6-3.8-2.4-3.9zm.4-9.9c.2-1.5-1.6-2.8-2.8-1.9-.2.1-.1.4.1.3.9-.2 2.2.4 2.1 1.5-.1 1.1-1.5 1.5-2.3 1.1-.2-.1-.4.2-.2.3 1.1.8 2.9.1 3.1-1.3zM110 180c.3-1.3-1.4-3.1-2.7-2.2-.2.1-.1.4.1.4.5 0 1 0 1.4.3.5.3.8.9.7 1.6-.3 1-1.5 1.4-2.4.9-.2-.1-.4.2-.2.3 1.1.8 2.9 0 3.1-1.3zm48.5 13.4c-.3-.1-.5.3-.2.4.9.4 1.7.9 2.6 1.1.2.1.2-.2.1-.3-.7-.5-1.6-.8-2.5-1.2zm-52.9-23.9c-.2-3.4-.6-6.6-.7-10 0-.2-.3-.2-.3 0-.2 3.3-.1 6.8.7 10.1 0 .2.3.1.3-.1zm8.1-1.7c-.4-3.3-1.2-6.6-1.8-9.9 0-.2-.3-.1-.3.1.6 3.3 1 6.6 1.9 9.8 0 .2.2.2.2 0zm3.2-.6c-.1-3.1-.8-6.2-1.3-9.2 0-.2-.4-.1-.4.1.4 3 .6 6.2 1.4 9.1.1.2.3.1.3 0zm2.5-1.4c-.2-1.4-.6-2.7-1-4.1-.1-.2-.4-.1-.4.1.3 1.3.6 2.8 1.1 4.1.1.1.3 0 .3-.1z" fill="#000000" stroke-width="none" opacity="1"></path></g><g id="svga-group-head" transform="matrix(1,0,0,1,0,0)"><g id="svga-group-ears-left-move" transform="matrix(1,0,0,1,0,0)"><g id="svga-group-ears-left" transform="matrix(1,0,0,1,0,0)"><path id="SvgjsPath50715" d="M59.9 81.9s-4.4-4.7-5.8-6.2c-1.4-1.4-3.1-4.7-5-4.1-1.9.5-1.2 2.7-1.3 5.8-.1 3.1.3 9.1 2.2 12.4 1.9 3.3 2.9 4.5 3.5 8 .6 3.5 2.8 4.2 4.1 3.2 1.3-1 4.3-7 4.4-10.2 0-3.2-1.2-7.5-2.1-8.9z" fill="#ffffff" stroke-width="none" opacity="1"></path><path id="SvgjsPath50716" d="M55.2 102.2c-.8-.3-2.3-1.3-2.8-4.2-.5-2.9-1.2-4-2.7-6.5l-.6-1.1c-2.1-3.6-2.5-10.1-2.4-13v-2c0-2-.1-4.1 2.1-4.7 2.1-.6 3.7 1.5 5 3.2.4.5.7.9 1 1.2 1.4 1.4 5.8 6.2 5.8 6.2l.1.1c.9 1.4 2.3 6 2.2 9.4-.1 3.4-3.2 9.8-4.8 11-.5.4-1.2.6-1.8.6-.4 0-.7-.1-1.1-.2zm-1.8-25.7c-.4-.4-.7-.9-1.1-1.4-.8-1.1-2.1-2.7-2.9-2.5-.6.2-.7.6-.6 2.8v2.1c-.1 3.1.3 8.9 2.1 11.9l.6 1.1c1.5 2.6 2.4 4 3 7.2.3 1.4.8 2.4 1.5 2.7.3.1.7.1 1-.1 1-.8 3.9-6.5 4-9.4.1-3-1.1-7.1-1.8-8.2-.7-.7-4.6-4.9-5.8-6.2z" fill="#000000" stroke-width="none" opacity="1"></path><path id="SvgjsPath50717" d="M48.2 76.3c.5-1.9 2.1-1 3 .4 1.9 2.6 3.2 6.6 3.6 10 0 .1-.1.2-.1.1-.1.1-.2.1-.2-.1-1.2-.5-1.6-.2-1.2.8 0 .3.1.6.3.9.2.5.6 1 .9 1.5.5.8 1.2 1.5 1.7 2.3.2.3 0 .6-.2.4-1.4-1-3.9-4.3-3.2-6.6.3-.8 1-1.1 1.5-.7-1.1-3.6-4-12-5.8-8.8-.1.1-.3 0-.3-.2z" fill="#000000" stroke-width="none" opacity="1"></path><path id="SvgjsPath50718" d="M51.1 76.8c-1 2-1.4 4.4-.9 7.1.3 1.5 2.9 9.5 4.9 8.4.2-.1.4.3.2.5-2 1.8-4.2-4.5-4.9-6.5-1.1-3.4-1.4-7.5.5-9.7.1-.1.2.1.2.2z" fill="#000000" stroke-width="none" opacity="1"></path></g></g><g id="svga-group-ears-right-move" transform="matrix(1,0,0,1,0,0)"><g id="svga-group-ears-right" transform="matrix(1,0,0,1,0,0)"><path id="SvgjsPath50719" d="M140.1 81.9s4.4-4.7 5.8-6.2c1.4-1.4 3.1-4.7 5-4.1 1.9.5 1.2 2.7 1.3 5.8s-.3 9.1-2.2 12.4c-1.9 3.3-2.9 4.5-3.5 8-.6 3.5-2.8 4.2-4.1 3.2-1.3-1-4.3-7-4.4-10.2 0-3.2 1.2-7.5 2.1-8.9z" fill="#ffffff" stroke-width="none" opacity="1"></path><path id="SvgjsPath50720" d="M143.7 102.4c-.6 0-1.3-.2-1.8-.6-1.5-1.2-4.7-7.5-4.8-11-.1-3.4 1.2-8 2.2-9.4l.1-.1s4.4-4.7 5.8-6.2c.3-.3.6-.8 1-1.2 1.3-1.7 2.9-3.8 5-3.2 2.2.6 2.1 2.7 2.1 4.7v2c.1 2.9-.2 9.4-2.4 13l-.6 1.1c-1.5 2.5-2.2 3.7-2.7 6.5-.5 2.9-2 3.9-2.8 4.2-.4.1-.7.2-1.1.2zm-2.8-19.9c-.7 1.2-1.9 5.2-1.8 8.2.1 2.9 2.9 8.6 4 9.4.3.2.6.3 1 .1.7-.3 1.3-1.3 1.5-2.7.6-3.2 1.4-4.7 3-7.2l.6-1.1c1.8-3 2.2-8.7 2.1-11.9v-2.1c.1-2.2 0-2.6-.6-2.8-.8-.2-2 1.4-2.9 2.5-.4.5-.8 1-1.1 1.4-1.3 1.5-5.2 5.7-5.8 6.2z" fill="#000000" stroke-width="none" opacity="1"></path><path id="SvgjsPath50721" d="M151.8 76.3c-.5-1.9-2.1-1-3 .4-1.9 2.6-3.2 6.6-3.6 10 0 .1.1.2.1.1.1.1.2.1.2-.1 1.2-.5 1.6-.2 1.2.8 0 .3-.1.6-.3.9-.2.5-.6 1-.9 1.5-.5.8-1.2 1.5-1.7 2.3-.2.3 0 .6.2.4 1.4-1 3.9-4.3 3.2-6.6-.3-.8-1-1.1-1.5-.7 1.1-3.6 4-12 5.8-8.8.1.1.3 0 .3-.2z" fill="#000000" stroke-width="none" opacity="1"></path><path id="SvgjsPath50722" d="M148.9 76.8c1 2 1.4 4.4.9 7.1-.3 1.5-2.9 9.5-4.9 8.4-.2-.1-.4.3-.2.5 2 1.8 4.2-4.5 4.9-6.5 1.1-3.4 1.4-7.5-.5-9.7-.1-.1-.2.1-.2.2z" fill="#000000" stroke-width="none" opacity="1"></path></g></g><g id="svga-group-faceshape-wrap" transform="matrix(1,0,0,1,0,0)"><g id="svga-group-faceshape-single"><path id="SvgjsPath50789" d="M142.4 53.6c-2.3-11.4-15.1-28.8-42.4-28.8S63.6 38.2 59.5 48.1c-2.5 6.2-3.2 15.2-3.4 19.7 0 0 .6 39.5 2 44.9 1.3 5.4 26.5 27.7 28.8 28.7 5.8 2.4 12.4 2.2 17.6 1.8 3.6-.3 7.1-1.7 9.9-4 8.5-6.8 26.7-21.7 27.6-27.5 1.1-7.2 1.7-43.9 1.7-43.9.1-3.2-.2-8.9-1.3-14.2z" fill="#ffffff" stroke-width="none" opacity="1"></path><path id="SvgjsPath50790" d="M98.8 144.7c-4.1 0-8.3-.5-12.3-2.2-2.5-1-28-23.6-29.5-29.5-1.4-5.5-2-43.6-2-45.2.2-4.8.9-13.8 3.4-20.1 6.6-16.2 20.1-24 41.5-24 12.3 0 23.2 3.6 31.3 10.4 6.3 5.2 10.9 12.5 12.2 19.3 1.1 5.5 1.3 11.4 1.4 14.4 0 1.5-.6 36.9-1.8 44.1-.7 4.5-9.8 13.7-28 28.2-3 2.4-6.7 3.9-10.5 4.2-1.7.3-3.7.4-5.7.4zM57.3 67.9c.2 13.6.9 40.5 1.9 44.6.4 1.6 4.2 6.4 13.6 15.4 7 6.6 13.5 12.1 14.5 12.5 5.5 2.3 11.7 2.2 17.1 1.7 3.4-.3 6.6-1.6 9.3-3.7 22.8-18.3 26.8-24.6 27.1-26.8 1.1-7 1.7-43.4 1.7-43.8 0-2.9-.3-8.7-1.4-14-1.3-6.4-5.6-13.1-11.5-18-7.7-6.5-18-9.9-29.9-9.9-20.3 0-33.2 7.4-39.4 22.6-2.1 6-2.8 14.7-3 19.4z" fill="#000000" stroke-width="none" opacity="1"></path></g></g><g id="svga-group-mouth-single-move" transform="matrix(1,0,0,1,0,0)"><g id="svga-group-mouth-single" transform="matrix(1,0,0,1,0,0)"><path id="SvgjsPath50668" d="M110.7 123.1c-6.9 2.5-14.2 2.4-21-.2-.4-.2-.6.5-.2.7 6.9 2.7 14.4 2.7 21.4.2.4-.2.3-.9-.2-.7zm4.5-3.6s-2.8-.5-8.3-2.7c-4.1-1.6-7.4-1.8-11.1-.4-1 .4-1.9.7-2.7 1-2.2.8-3.5 1.3-4.8 1.6-1.7.4-2.6.4-2.6.4-.2 0-.3.1-.4.3 0 .2.1.3.2.4.1 0 1.3.5 3.1.5 1 0 1.8-.1 2.6-.3.6-.1 1.2-.2 1.8-.2 1.3 0 4.1.5 5.5.9.5.2 1.1.2 1.7.2 1.1 0 2.4-.2 3.7-.7 1.9-.7 3.6-.9 4.9-.7 2.2.5 4.9.9 6.5.3.2-.1.2-.2.2-.4 0-.1-.2-.2-.3-.2zm-10-2.4 1 2.1c-.2 0-.5.1-.7.1l-1.3-2.5c.4 0 .7.1 1 .3 0-.1 0-.1 0 0zm-1 2.5-1.8-3.3c.3 0 .6.1.9.2l1.5 2.9c-.2.1-.4.2-.6.2zm-2.6-3.3 1.9 3.6c-.2.1-.4.2-.6.2l-2.1-3.8c.3-.1.5-.1.8 0zm-.1 4.1-2.2-4.1c.2 0 .5-.1.7-.1l2.2 4c-.2.1-.5.1-.7.2zm-5.6-3.3 1.5 2.9c-.3-.1-.6-.1-.9-.2l-1.2-2.4c.2-.2.4-.2.6-.3zm-.9 2.4-1.1-1.7c.2-.1.4-.2.6-.2l1 2c-.1 0-.3-.1-.5-.1zm-1.7-1.5.8 1.3c-.3 0-.7-.1-.9-.1l-.6-1c.2 0 .5-.1.7-.2zm-3.2 1.7-.3-.4c.2-.1.3-.1.5-.2l.4.5c-.1 0-.3 0-.6.1zm1.5-.3-.4-.6c.3-.1.5-.2.8-.3l.5.8c-.4.1-.7.1-.9.1 0 .1 0 0 0 0zm-3.7.4c.2 0 .4-.1.6-.1.2-.1.5-.1.7-.2l.2.3c-.2 0-.5.1-.7.1-.3-.1-.6-.1-.8-.1zm10.5.4-1.8-3.3c.2-.1.4-.2.7-.2l1.9 3.8c-.2 0-.3-.1-.5-.1-.1-.1-.2-.2-.3-.2zm1.6.3-2-4c.2 0 .4-.1.6-.1l2.2 4.1h-.8zm7-1.4-.8-1.7c.1.1.3.1.4.1.2.1.4.2.6.2l.7 1.3c-.3 0-.6 0-.9.1zm1.6 0-.5-1 .9.3.5.9c-.3-.1-.5-.1-.7-.1 0-.1-.1-.1-.2-.1zm1.9.3-.4-.7c1.2.4 2.2.7 3 .9-.9.1-1.8 0-2.6-.2z" fill="#000000" stroke-width="none" opacity="1"></path></g></g><g id="svga-group-eyes-left-move" transform="matrix(1,0,0,1,0,0)"><g id="svga-group-eyes-left" transform="matrix(1,0,0,1,0,0)"><g id="svga-group-eyesback-left"></g><g id="svga-group-eyesiriswrapper-left"><g id="svga-group-eyesiriscontrol-left" transform="matrix(1,0,0,1,0,0)"><g id="svga-group-eyesiris-left" transform="matrix(1,0,0,1,0,0)"><path id="SvgjsPath50812" d="M83.4 85c-1.1-2.1-3.5-2.9-5.7-2.2-2.4.8-4.2 3.3-3.3 5.9.5 1.4 1.6 2.6 3.1 2.9.5.1 1 .1 1.6.1.6.1 1.2 0 1.8-.2 2.5-.9 3.8-4 2.5-6.5z" fill="#ffffff" stroke-width="none" opacity="1"></path><path id="SvgjsPath50813" d="M79.4 92.1H79c-.5 0-1.1 0-1.6-.1-1.5-.3-2.8-1.6-3.3-3.2-.9-2.8 1.1-5.4 3.5-6.3 2.4-.8 5 .1 6.1 2.3.7 1.3.7 2.8.2 4.1-.5 1.3-1.6 2.4-2.9 2.8-.6.3-1.1.4-1.6.4zm-.4-.7c.6.1 1.2 0 1.7-.2 1.2-.4 2.1-1.3 2.6-2.5s.4-2.5-.2-3.6c-1-1.9-3.2-2.7-5.3-2-2.2.8-4 3.1-3.1 5.5.5 1.4 1.6 2.5 2.8 2.7.4.1.9.2 1.5.1zm2.6-5.3c0-.1 0-.1-.1-.2-.6-1.2-2.2-1.7-3.4-1.1.3.2.5.6.6.8.2.4.6 1.1.1 1.3-.4.2-1.1 0-1.4-.2-.2-.1-.4-.3-.5-.5 0 .1-.1.1-.1.2-.1.2-.1.5-.1.7-.2.7 0 1.5.6 2.1.3.2.6.4.9.4.6.3 1.3.4 2 .1-.1-.1-.2-.3-.2-.4 0-.3.2-.6.5-.7.3-.1.6 0 .8.2.3-.3.5-.8.6-1.2.1-.5 0-1-.3-1.5zm-5.2 1.3c-.5-.1-.9-.1-1.4-.2-.1 0-.1.1 0 .1.4.1 1 .3 1.4.3 0-.1.1-.2 0-.2zm-.1.9c-.2 0-.4.1-.7.1-.2.1-.5.1-.8.1-.1 0-.1.1 0 .1.5 0 1.1 0 1.5-.3.1 0 .1 0 0 0zm.4.9c-.2.1-.4.3-.6.4-.2.1-.4.2-.6.4-.1.1 0 .2.1.1.4-.3.9-.5 1.1-.9.1 0 .1-.1 0 0zm1 .7c-.3.3-.5.7-.7 1-.1.1.1.2.1.1.2-.3.5-.7.7-1 0-.1-.1-.2-.1-.1zm.9.4c-.1.4-.2.8-.2 1.2 0 .1.1.1.2 0 0-.4.1-.8.2-1.2-.1-.1-.2-.1-.2 0zm1.6.5c-.1-.2-.1-.3-.2-.5 0 0-.1 0-.1.1 0 .2.1.3.2.5s.1.4.2.6c0 .1.1.1.1 0-.1-.3-.2-.5-.2-.7zm1.3-.2-.3-.3c-.1-.1-.2-.2-.3-.4-.1-.1-.1 0-.1.1.1.1.2.3.3.4 0 .1.2.2.4.2 0 .1 0 0 0 0zm1-.8c-.1-.1-.3-.2-.5-.3l-.6-.3c-.1 0-.2.1-.1.1.2.1.4.3.6.4.2.1.4.2.6.2 0 0 .1 0 0-.1zm.6-1.4c-.2-.1-.3-.1-.5-.1s-.4-.1-.5-.2c-.1 0-.1.1-.1.1.3.1.7.3 1.1.3v-.1zm.2-1.9c-.4.1-.8.3-1.1.5-.1.1 0 .2.1.1.2-.1.4-.2.6-.2.2-.1.4-.1.6-.2 0-.1-.1-.3-.2-.2zm-.9-2.2-.1-.1s-.1 0-.1.1c0 0-.4.5-.5.5-.2.2-.3.4-.4.6-.1.1.1.1.1.1.3-.4.6-.7.9-1 .2-.1.2-.1.1-.2zm-2.1-.8c-.1.2-.1.4-.2.5-.1.2-.1.4-.2.6 0 .1.1.1.1 0 .1-.2.2-.4.2-.6.1-.2.2-.4.2-.6.1.1 0 0-.1.1zm-1.4.8c-.1-.2-.1-.3-.2-.5s-.1-.3-.2-.5c0-.1-.1-.1-.1 0-.1.3.2.8.3 1.1.1.1.3 0 .2-.1zm-1.3 0c-.1-.2-.2-.3-.3-.5 0-.1-.1 0-.1.1.1.2.2.4.2.6.1.2.2.4.3.4.1 0 .1 0 .1-.1 0-.2-.1-.4-.2-.5zm-.7 1-.3-.3c-.1-.1-.3-.2-.4-.3-.1-.1-.2 0-.1.1s.2.3.4.4c.1.1.2.2.4.3 0 0 .1-.1 0-.2zm-.8.9c-.3-.2-.7-.2-1-.3-.1 0-.1.1 0 .1.3.1.6.3.9.4.1-.1.1-.2.1-.2z" fill="#000000" stroke-width="none" opacity="1"></path></g></g></g><g id="svga-group-eyesfront-left"><path id="SvgjsPath50759" d="M79 72.1c-8.2 0-14.8 6.6-14.8 14.8s6.6 14.8 14.8 14.8 14.8-6.6 14.8-14.8c0-8.1-6.6-14.8-14.8-14.8zm9.2 21.1c-.5-.2-1.9.2-5.8.1s-7.9-1.2-11-3-3.9-6.2-3.9-6.2 4.4-.9 10.3-.6 9.1 2.3 10.1 4c1.1 1.8 2.2 5.3 2.2 5.3-.1.7-1.5.6-1.9.4z" fill="#ffffff" stroke-width="none" opacity="1"></path><path id="SvgjsPath50760" d="M90.7 92.3c-.2 0-.3.1-.5.1-.1-.2-.1-.4-.2-.7.2-.1.4-.2.6-.4.2-.2.1-.5-.2-.5-.2 0-.4.1-.6.2-.1-.1-.1-.3-.2-.5.4-.2.7-.4 1-.6.2-.2.1-.5-.2-.5-.4 0-.7.2-1.1.4-.1-.2-.2-.4-.3-.7.5-.2.9-.4 1.3-.7.2-.1 0-.5-.2-.4-.5.1-.9.3-1.4.5-.1-.1-.1-.3-.2-.4.4-.2.8-.4 1.1-.7.2-.2 0-.4-.2-.4-.4.1-.8.3-1.2.5-.1-.2-.2-.3-.3-.5.4-.2.8-.4 1.1-.7.2-.2 0-.4-.2-.4-.5.1-.9.3-1.3.5-.1-.2-.3-.4-.5-.6.5-.2.9-.4 1.4-.7.2-.1.1-.4-.1-.4-.6 0-1.2.3-1.7.6l-.3-.3c.5-.2.9-.4 1.3-.7.1-.1 0-.3-.2-.3-.5.2-1 .5-1.4.8l-.1-.1c-.1 0-.1-.1-.2-.1l.9-.6c.1-.1 0-.3-.1-.3-.5 0-1 .2-1.4.5-.1-.1-.2-.1-.4-.2l.3-.3c.1-.1 0-.4-.2-.4-.3-.1-.7.1-.9.3-4.7-1.7-13.6-1.5-17.8-.1-.3.1-.5.5-.4.8s.5.5.8.4c.1 0 .3-.1.4-.1-.1.1-.1.3-.1.5.1.4 2 8.7 15.8 8.7 1.5 0 3.2-.1 5.1-.3.4 0 .6-.4.6-.7 0-.4-.4-.6-.7-.6-17.1 2.1-19.3-6.9-19.4-7.3 0-.2-.2-.4-.4-.4 5.2-1.2 14.6-.9 17.4 1.2 3 2.3 4.3 8.5 4.4 8.6.1.3.3.5.6.5h.1c.4-.1.6-.4.5-.8 0-.1-.1-.5-.3-1 .2 0 .4-.2.5-.4.1-.1-.1-.3-.3-.3zm-24.2-5c-.2-.2-.5.1-.3.3 1.5 2 3.4 3.9 5.8 4.8.2.1.3-.2.2-.4-2-1.5-4-2.9-5.7-4.7z" fill="#000000" stroke-width="none" opacity="1"></path></g></g></g><g id="svga-group-eyes-right-move" transform="matrix(1,0,0,1,0,0)"><g id="svga-group-eyes-right" transform="matrix(1,0,0,1,0,0)"><g id="svga-group-eyesback-right"></g><g id="svga-group-eyesiriswrapper-right"><g id="svga-group-eyesiriscontrol-right" transform="matrix(1,0,0,1,0,0)"><g id="svga-group-eyesiris-right" transform="matrix(1,0,0,1,0,0)"><path id="SvgjsPath50814" d="M125.4 85c-1.1-2.1-3.5-2.9-5.7-2.2-2.4.8-4.2 3.3-3.3 5.9.5 1.4 1.6 2.6 3.1 2.9.5.1 1 .1 1.6.1.6.1 1.2 0 1.8-.2 2.6-.9 3.8-4 2.5-6.5z" fill="#ffffff" stroke-width="none" opacity="1"></path><path id="SvgjsPath50815" d="M121.4 92.1h-.4c-.5 0-1.1 0-1.6-.1-1.5-.3-2.8-1.6-3.3-3.2-.9-2.8 1.1-5.4 3.5-6.3 2.4-.8 5 .1 6.1 2.3.7 1.3.7 2.8.2 4.1-.5 1.3-1.6 2.4-2.9 2.8-.6.3-1.1.4-1.6.4zm-.4-.7c.6.1 1.2 0 1.7-.2 1.2-.4 2.1-1.3 2.6-2.5s.4-2.5-.2-3.6c-1-1.9-3.2-2.7-5.3-2-2.2.8-4 3.1-3.1 5.5.5 1.4 1.6 2.5 2.8 2.7.5.1 1 .2 1.5.1zm2.6-5.3c0-.1 0-.1-.1-.2-.6-1.2-2.2-1.7-3.4-1.1.3.2.5.6.6.8.2.4.6 1.1.1 1.3-.4.2-1.1 0-1.4-.2-.2-.1-.4-.3-.5-.5 0 .1-.1.1-.1.2-.1.2-.1.5-.1.7-.2.7 0 1.5.6 2.1.3.2.6.4.9.4.6.3 1.3.4 2 .1-.1-.1-.2-.3-.2-.4 0-.3.2-.6.5-.7.3-.1.6 0 .8.2.3-.3.5-.8.6-1.2.1-.5 0-1-.3-1.5zm-5.2 1.3c-.5-.1-.9-.1-1.4-.2-.1 0-.1.1 0 .1.4.1 1 .3 1.4.3.1-.1.1-.2 0-.2zm-.1.9c-.2 0-.4.1-.7.1-.2.1-.5.1-.8.1-.1 0-.1.1 0 .1.6 0 1.2 0 1.5-.3.1 0 .1 0 0 0zm.5.9c-.2.1-.4.3-.6.4-.2.1-.4.2-.6.4-.1.1 0 .2.1.1.4-.3.9-.5 1.1-.9.1 0 0-.1 0 0zm.9.7c-.3.3-.5.7-.7 1-.1.1.1.2.1.1.2-.3.5-.7.7-1 0-.1-.1-.2-.1-.1zm.9.4c-.1.4-.2.8-.2 1.2 0 .1.1.1.2 0 0-.4.1-.8.2-1.2 0-.1-.2-.1-.2 0zm1.6.5c-.1-.2-.1-.3-.2-.5 0 0-.1 0-.1.1 0 .2.1.3.2.5s.1.4.2.6c0 .1.1.1.1 0-.1-.3-.2-.5-.2-.7zm1.3-.2-.3-.3c-.1-.1-.2-.2-.3-.4-.1-.1-.1 0-.1.1.1.1.2.3.3.4.1.1.2.2.4.2 0 .1.1 0 0 0zm1.1-.8c-.1-.1-.3-.2-.5-.3l-.6-.3c-.1 0-.2.1-.1.1.2.1.4.3.6.4.2.1.4.2.6.2v-.1zm.5-1.4c-.2-.1-.3-.1-.5-.1s-.4-.1-.5-.2c-.1 0-.1.1-.1.1.3.1.7.3 1.1.3.1 0 .1-.1 0-.1zm.2-1.9c-.4.1-.8.3-1.1.5-.1.1 0 .2.1.1.2-.1.4-.2.6-.2.2-.1.4-.1.6-.2 0-.1-.1-.3-.2-.2zm-.8-2.2-.1-.1s-.1 0-.1.1c0 0-.4.5-.5.5-.2.2-.3.4-.4.6-.1.1.1.1.1.1.3-.4.6-.7.9-1 .1-.1.1-.1.1-.2zm-2.1-.8c-.1.2-.1.4-.2.5-.1.2-.1.4-.2.6 0 .1.1.1.1 0 .1-.2.2-.4.2-.6.1-.2.2-.4.2-.6 0 .1-.1 0-.1.1zm-1.4.8c-.1-.2-.1-.3-.2-.5s-.1-.3-.2-.5c0-.1-.1-.1-.1 0-.1.3.2.8.3 1.1.1.1.2 0 .2-.1zm-1.4 0c-.1-.2-.2-.3-.3-.5 0-.1-.1 0-.1.1.1.2.2.4.2.6.1.2.2.4.3.4.1 0 .1 0 .1-.1.1-.2-.1-.4-.2-.5zm-.6 1-.3-.3c-.1-.1-.3-.2-.4-.3-.1-.1-.2 0-.1.1s.2.3.4.4c.1.1.2.2.4.3v-.2zm-.9.9c-.3-.2-.7-.2-1-.3-.1 0-.1.1 0 .1.3.1.6.3.9.4.1-.1.2-.2.1-.2z" fill="#000000" stroke-width="none" opacity="1"></path></g></g></g><g id="svga-group-eyesfront-right"><path id="SvgjsPath50761" d="M121 72.1c-8.2 0-14.8 6.6-14.8 14.8s6.6 14.8 14.8 14.8 14.8-6.6 14.8-14.8c0-8.1-6.6-14.8-14.8-14.8zm7.6 18.2c-3.1 1.8-7.1 2.9-11 3s-5.3-.3-5.8-.1c-.5.2-1.9.3-1.9-.4 0 0 1.1-3.5 2.2-5.3s4.3-3.8 10.1-4 10.3.6 10.3.6-.8 4.4-3.9 6.2z" fill="#ffffff" stroke-width="none" opacity="1"></path><path id="SvgjsPath50764" d="M133.8 83.8c-4.8-1.6-16.1-1.7-19.7 1.1-3.4 2.6-4.8 9.1-4.8 9.3-.1.4.2.7.5.8h.1c.3 0 .6-.2.6-.5 0-.1 1.4-6.3 4.4-8.6 2.7-2.1 12.2-2.4 17.4-1.2-.2.1-.3.2-.4.4-.1.4-2.3 9.4-19.4 7.3-.4 0-.7.2-.7.6s.2.7.6.7c1.8.2 3.5.3 5.1.3 13.8 0 15.7-8.3 15.8-8.7 0-.2 0-.4-.1-.5.1 0 .3.1.4.1.3.1.7-.1.8-.4-.1-.2-.3-.6-.6-.7z" fill="#000000" stroke-width="none" opacity="1"></path></g></g></g><g id="svga-group-facehighlight-single"></g><g id="svga-group-eyebrows-left-move" transform="matrix(1,0,0,1,0,0)"><g id="svga-group-eyebrows-left-rotate" transform="matrix(1,0,0,1,0,0)"><g id="svga-group-eyebrows-left" transform="matrix(1,0,0,1,0,0)"><path id="SvgjsPath50680" d="M78.79 76.64c4.26.09 11.31.59 11.31-.88s-2.06-8.96-11.45-9.4c-9.4-.44-14.39 8.66-13.51 9.98s6.75.15 13.65.3z" fill="#ffffff" stroke-width="none" opacity="1"></path><path id="SvgjsPath50681" d="M64.71 76.63c.45.67 1.53.86 3.24.86 1 0 2.2-.07 3.62-.14 2.15-.12 4.59-.25 7.21-.2.65.01 1.37.04 2.12.06 5.04.16 8.42.2 9.39-.74.21-.2.32-.45.32-.72 0-1.54-2.08-9.45-11.94-9.91-6.49-.3-11.18 3.81-13.23 7.43-.41.73-1.3 2.51-.73 3.36zm1.08-1.7c.2-.52.52-1.18 1.04-1.94.06-.09.13-.18.2-.29l2.58 3.72c-.37.02-.73.03-1.07.04-.71-.43-1.94-1.1-2.75-1.53zm4.63 1.45-2.95-4.26c.16-.2.35-.42.55-.65l3.01 4.88-.61.03zm-.14-6.96c.5 1.29 2.11 5.22 2.76 6.82-.42.02-.84.04-1.24.07l-3.3-5.35c.5-.5 1.09-1.03 1.78-1.54zm3.49 6.79c-1.08-2.64-2.59-6.34-2.91-7.19.63-.42 1.33-.81 2.1-1.14l2.45 8.27-1.64.06zm1.28-3.68-1.45-4.89c.27-.1.54-.19.83-.27l.62 5.16zm3.41-5.66-.36 5.88-.67-5.88c.33-.01.68-.01 1.03 0zm3.99 9.36 1.71-7.99c.63.32 1.17.69 1.67 1.08l-2.9 6.92c-.17 0-.33 0-.48-.01zm4.95-5.39-3.37 5.42c-.13 0-.25 0-.37-.01l2.72-6.48c.37.36.72.71 1.02 1.07zm1.58 2.61-1.41 1.52 1.09-2.21c.12.24.23.47.32.69zm.61 2.29c-.2.27-1.08.41-2.24.48l1.91-2.05c.22.69.32 1.26.33 1.57zm-4.76.53 3.01-4.85c.15.21.28.41.41.61l-2.08 4.22c-.43.02-.88.02-1.34.02zm-4.34-.1.56-8.98c.91.19 1.73.45 2.46.77l-1.76 8.25c-.29-.01-.57-.02-.81-.03-.15 0-.3 0-.45-.01zm-1.92-.05.57-9.2c.43.03.85.07 1.24.13l-.57 9.1-1.01-.03c-.07 0-.15.01-.23 0zm-2.4.01-1.08-8.95c.52-.12 1.08-.2 1.65-.25l1.04 9.19h-.26c-.45-.01-.9 0-1.35.01zm-10.58-.53c.51.28 1.06.58 1.56.85-.83-.04-1.42-.15-1.58-.39-.04-.07-.03-.23.02-.46z" fill="#000000" stroke-width="none" opacity="1"></path></g></g></g><g id="svga-group-eyebrows-right-move" transform="matrix(1,0,0,1,0,0)"><g id="svga-group-eyebrows-right-rotate" transform="matrix(1,0,0,1,0,0)"><g id="svga-group-eyebrows-right" transform="matrix(1,0,0,1,0,0)"><path id="SvgjsPath50682" d="M121.21 76.64c-4.26.09-11.31.59-11.31-.88s2.06-8.96 11.45-9.4c9.4-.44 14.39 8.66 13.51 9.98s-6.75.15-13.65.3z" fill="#ffffff" stroke-width="none" opacity="1"></path><path id="SvgjsPath50683" d="M134.56 73.28c-2.05-3.62-6.74-7.73-13.23-7.43-9.87.46-11.94 8.37-11.94 9.91 0 .27.11.51.32.72.97.94 4.35.9 9.39.74.75-.02 1.47-.05 2.12-.06 2.62-.06 5.06.08 7.21.2 1.41.08 2.62.14 3.62.14 1.71 0 2.79-.2 3.24-.86.57-.86-.32-2.64-.73-3.36zm-3.1 3.18c-.34-.01-.7-.02-1.07-.04l2.58-3.72c.08.11.15.2.2.29.52.76.84 1.42 1.04 1.94-.81.43-2.04 1.1-2.75 1.53zm-2.49-.11 3.01-4.88c.21.23.39.45.55.65l-2.95 4.26-.61-.03zm2.52-5.39-3.3 5.35c-.41-.02-.82-.04-1.24-.07.66-1.6 2.27-5.54 2.76-6.82.7.51 1.29 1.04 1.78 1.54zm-6.9 5.19 2.45-8.27c.77.33 1.47.72 2.1 1.14-.32.85-1.83 4.55-2.91 7.19l-1.64-.06zm.98-8.79c.28.08.56.17.83.27l-1.45 4.89.62-5.16zm-3-.49-.67 5.88-.36-5.88c.35-.01.7-.01 1.03 0zm-5.49 9.38-2.9-6.92c.5-.39 1.05-.76 1.67-1.08l1.71 7.99c-.16 0-.32 0-.48.01zm-3.45-6.47 2.72 6.48c-.12 0-.25 0-.37.01l-3.37-5.42c.29-.37.64-.72 1.02-1.07zm-2.29 2.98 1.09 2.21-1.41-1.52c.09-.22.2-.45.32-.69zm-.59 1.41 1.91 2.05c-1.16-.07-2.04-.21-2.24-.48 0-.31.1-.88.33-1.57zm3.08 2.09-2.08-4.22c.13-.2.26-.41.41-.61l3.01 4.85c-.46-.01-.91-.01-1.34-.02zm5.23-.07-.81.03-1.76-8.25c.73-.32 1.55-.58 2.46-.77l.56 8.98c-.15 0-.3 0-.45.01zm2.14-.06-1.01.03-.57-9.1c.39-.06.81-.1 1.24-.13l.57 9.2c-.08 0-.16-.01-.23 0zm1.27-.02h-.26l1.04-9.19c.57.05 1.13.13 1.65.25l-1.08 8.95c-.44 0-.89-.01-1.35-.01zm11.96-.05c-.16.24-.75.35-1.58.39.5-.28 1.05-.58 1.56-.85.05.23.06.39.02.46z" fill="#000000" stroke-width="none" opacity="1"></path></g></g></g><g id="svga-group-beardwrap" transform="matrix(1,0,0,1,0,0)"><g id="svga-group-beard-single-move" transform="matrix(1,0,0,1,0,0)"><g id="svga-group-beard-single" transform="matrix(1,0,0,1,0,0)"></g></g></g><g id="svga-group-mustache-single-move" transform="matrix(1,0,0,1,0,0)"><g id="svga-group-mustache-single" transform="matrix(1,0,0,1,0,0)"></g></g><g id="svga-group-nose-single-move" transform="matrix(1,0,0,1,0,0)"><g id="svga-group-nose-single" transform="matrix(1,0,0,1,0,0)"><path id="SvgjsPath50857" d="M96.13 77.79s-5.71 19.9-6.24 24.21c-.29 2.31 5.38 2.5 5.38 2.5s-.29 6.15.48 7.11 2.5.48 3.84-.86 3.65-6.05 3.65-6.05 2.02.19 3.55-.58 2.31-2.59.86-5c-1.44-2.4-6.24-20.65-7.69-21.52s-2.19-.87-3.83.19z" fill="#ffffff" stroke-width="none" opacity="1"></path><path id="SvgjsPath50858" d="M102.52 104.6c-.71 1.64-1.4 3.33-2.54 4.72-.67.81-1.89 1.99-3.06 1.81-1.16-.18-.82-1.68-.84-2.56-.09-4.17-.11-8.35-.05-12.52.12-8.22.54-16.43 1.24-24.62.07-.87-1.29-.87-1.36 0-1.13 13.3-1.5 26.66-1.11 40 .01.22.12.49.34.59 4.5 2.05 7.15-3.45 8.57-6.74.33-.79-.84-1.48-1.19-.68z" fill="#000000" stroke-width="none" opacity="1"></path><path id="SvgjsPath50859" d="M105.15 103.66c.41-.94 1.45-1.47 2.35-.75.68.54 1.65-.41.96-.96-1.51-1.22-3.68-.81-4.49 1.02-.34.79.83 1.49 1.18.69z" fill="#000000" stroke-width="none" opacity="1"></path><path id="SvgjsPath50860" d="M91.39 103.02c.68-.26 1.37.02 1.68.68.37.8 1.54.1 1.18-.69-.54-1.17-2.01-1.77-3.21-1.31-.82.32-.47 1.63.35 1.32z" fill="#000000" stroke-width="none" opacity="1"></path></g></g><g id="svga-group-hair-front" transform="matrix(1,0,0,1,0,0)"></g><g id="svga-group-glasses-single-move" transform="matrix(1,0,0,1,0,0)"><g id="svga-group-glasses-single" transform="matrix(1,0,0,1,0,0)"></g></g></g></g></g><rect id="svga-credit-rect" width="200" height="15" x="0" y="185" fill="#ecf0f1" opacity="0.5" style="display: none;"></rect><text id="svga-credit-text" font-family="Avenir Next, Roboto, Helvetica, Arial, sans-serif" font-size="10px" text-anchor="start" font-weight="400" size="10px" anchor="start" weight="400" fill="#333333" x="33.402061462402344" y="182.71133995056152" style="display: none;"><tspan id="SvgjsTspan50213" dy="13" x="33.402061462402344">Created on AvatarMaker.com</tspan></text></g></svg>