<svg xmlns="http://www.w3.org/2000/svg" version="1.1" width="600px" height="600px" viewBox="0 0 200 200" style="overflow:hidden!important;"><defs id="SvgjsDefs64045"></defs><g id="svga-group-wrapper"><g id="svga-group-backs-single"></g><g id="svga-group-humanwrap-move" transform="matrix(1,0,0,1,0,0)"><g id="svga-group-humanwrap" transform="matrix(1,0,0,1,0,0)"><g id="svga-group-hair-back-move" transform="matrix(1,0,0,1,0,0)"><g id="svga-group-hair-back" transform="matrix(1,0,0,1,0,0)"></g></g><g id="svga-group-humanbody-back"><path id="SvgjsPath64455" d="M77.6 118.3c0 19.3 3.4 44.1-10 51.9-13.4 7.9-31.9 11.3-37.8 22s-4.4 25.3-4.4 25.3h149.3s.7-18.9-5.1-26.4c-8.1-10.4-27.8-15.5-37.7-20.9s-13.4-25.1-13.4-52.4l-40.9.5z" fill="#ffffff" stroke-width="none" opacity="1"></path><path id="SvgjsPath64456" d="M175.8 218.7H24.4l-.1-1c-.1-.6-1.5-15.1 4.5-26 4.1-7.4 13.5-11.3 23.5-15.5 5-2.1 10.2-4.3 14.8-6.9 10.6-6.2 10.1-23.9 9.6-41-.1-3.5-.2-6.8-.2-10v-1.1l43.2-.4v1.1c0 29.9 4.2 46.7 12.8 51.4 2.9 1.6 6.7 3.2 10.8 4.9 10 4.1 21.3 8.8 27.2 16.3 6.1 7.7 5.4 26.4 5.4 27.1l-.1 1.1zm-149.3-2.2h147.1c0-4.1-.2-18.5-4.9-24.6-5.5-7-16.6-11.6-26.3-15.6-4.1-1.7-8-3.3-11-5-5.1-2.8-8.7-8.9-10.9-18.7-2-8.4-2.9-19.4-3-33.5l-38.6.4c0 2.8.1 5.7.2 8.8.5 17.8 1 36.1-10.7 43-4.7 2.7-9.9 4.9-15 7.1-9.6 4-18.7 7.8-22.4 14.5-5 8.6-4.7 20.1-4.5 23.6z" fill="#000000" stroke-width="none" opacity="1"></path><path id="SvgjsPath64457" d="M93.9 153.8c-.5 1.8-.4 3.4.5 5.2.8 1.6 2.1 2.7 3.9 2.9.4 0 .7-.5.5-.8-1.6-2.2-3.5-4.2-3.7-7.1 0-.7-1-.9-1.2-.2zm18.6 33.7c8.8.5 18.1-.7 26.6-2.9.7-.2.6-1.4-.2-1.3-8.8 1.1-17.7 2-26.5 3.3-.5.1-.3.9.1.9zm-49.4-5c3.8.9 7.6 1.9 11.5 2.8 3.6.8 7.4 2 11.1 2.1.7 0 .8-.9.2-1.2-3.5-1.4-7.5-1.7-11.2-2.5-3.8-.7-7.5-1.3-11.3-2-.5 0-.7.7-.3.8z" fill="#000000" stroke-width="none" opacity="1"></path></g><g id="svga-group-chinshadow-single"></g><g id="svga-group-humanbody-front"></g><g id="svga-group-clothes-single"><path id="SvgjsPath64624" d="M63.33 170.93s-12.22 5.29-16.7 6.92c-4.48 1.63-12.63 5.91-17.11 11.2-4.48 5.29-5.09 12.63-5.7 17.92-.61 5.29.58 11.73.58 11.73h152.36s.2-14.17-2.65-22.32-5.7-9.78-14.87-15.48c-9.16-5.7-18.53-7.94-26.07-11.61 0 0-3.05 12.83-30.55 14.26-27.48 1.43-34-6.92-39.29-12.62z" fill="#ffffff" stroke-width="none" opacity="1"></path><path id="SvgjsPath64625" d="M175.06 196.05c-2.9-8.3-5.87-10.15-14.69-15.63l-.6-.37c-5.81-3.62-11.81-5.9-17.1-7.91-3.23-1.23-6.28-2.39-9.06-3.75a1.02 1.02 0 0 0-.87 0c-.27.13-.47.38-.54.67-.03.12-3.19 12.12-29.63 13.49-11.02.58-18.6-.45-24.07-2.24-.04-.14-.21-.21-.31-.1-.46-.16-.91-.31-1.34-.48.01-.02.01-.04.02-.06.08-.25-.3-.35-.39-.11 0 .01 0 .01-.01.02-6.05-2.41-9.18-5.81-11.8-8.66l-.63-.68c-.29-.31-.74-.4-1.13-.24-.12.05-12.24 5.3-16.64 6.9-3.9 1.42-12.58 5.64-17.53 11.49-4.44 5.25-5.25 12.38-5.83 17.59l-.1.86c-.62 5.38.54 11.76.59 12.02.09.47.5.82.98.82h152.36a1 1 0 0 0 1-.99c.03-.56.19-14.42-2.68-22.64zm-4.34-4.67c-.51-.5-1.02-1-1.52-1.51.1-.08.19-.16.26-.22.46.55.87 1.12 1.26 1.73zm-1.89-1.17c.98 1.01 1.94 2.08 2.94 3.08.48 1 .94 2.12 1.4 3.42l.03.11c-1.74-1.87-3.76-3.55-5.68-5.25.51-.59.95-1.04 1.31-1.36zm-66.15-5.66c23.41-1.21 29.59-10.57 31.06-13.88.7.33 1.42.64 2.15.95-1.03 1.47-3.85 5.21-8.22 8.8-3.79 3.11-12.73 6.36-23.97 7.02.1-.66.16-1.34.25-2 .03-.19-.28-.19-.3 0-.08.66-.2 1.34-.27 2.01-.68.04-1.37.06-2.07.08.11-.96.07-1.97.08-2.92l1.29-.06zm-4.2 2.99c-.61-.01-1.22-.03-1.83-.05.07-.92.03-1.87.04-2.79.62 0 1.25 0 1.9-.02-.05.93-.14 1.92-.11 2.86zm.5-2.86c.67-.01 1.35-.03 2.04-.06-.08.95-.2 1.95-.18 2.92-.6.01-1.2.02-1.82.01.06-.95-.01-1.94-.04-2.87zm-2.73.03c-.03.91-.09 1.85-.06 2.76a65.89 65.89 0 0 1-3.39-.24c.04-.87.02-1.74.01-2.6 1.1.04 2.25.07 3.44.08zm-18.35-2.47c.39.13.8.25 1.21.37-.18.58-.36 1.18-.48 1.77-.35-.11-.7-.23-1.04-.34.11-.45.11-.94.2-1.4.04-.15.08-.27.11-.4zm1.71.51c.27.07.55.15.83.22-.1.6-.25 1.24-.31 1.86-.32-.09-.63-.18-.94-.28.18-.58.31-1.19.42-1.8zm1.26.33c1.02.25 2.11.48 3.26.67-.15.66-.3 1.35-.36 2.02a66.49 66.49 0 0 1-3.1-.79c.12-.62.14-1.29.2-1.9zm3.79.76c.58.09 1.17.18 1.78.26-.23.71-.39 1.46-.38 2.16-.43-.08-.87-.17-1.3-.26l-.39-.09c.15-.67.23-1.39.29-2.07zm2.14 1.07c.05-.25.12-.5.19-.75.45.06.92.11 1.39.15-.11.77-.22 1.55-.21 2.32-.51-.08-1.03-.17-1.55-.27.07-.48.08-.98.18-1.45zm2.02-.55c.48.05.97.09 1.47.12-.21.76-.38 1.63-.34 2.42-.46-.06-.92-.13-1.38-.2.16-.75.21-1.55.25-2.34zm1.67 1.71c.05-.53.15-1.04.28-1.55l1.56.09c-.03.85-.07 1.71-.06 2.57-.6-.06-1.2-.13-1.81-.21.01-.3 0-.6.03-.9zm-13.05-3.99c-.03.09-.07.18-.09.28-.11.45-.26 1-.24 1.5-.48-.17-.95-.34-1.41-.51.21-.55.4-1.11.57-1.68.38.14.77.28 1.17.41zm-2.2 1.08c-.4-.16-.8-.32-1.18-.48.22-.56.4-1.11.61-1.67.36.16.74.32 1.13.47-.21.56-.4 1.12-.56 1.68zm-6.64-5.73c-.52.46-.95 1.02-1.3 1.62-.5-.34-.96-.67-1.4-1 .55-.48 1.12-.97 1.64-1.48.34.28.69.57 1.06.86zm.33.25c.4.3.82.6 1.26.89-.36.33-.68.72-1 1.09l-.33.39c-.45-.27-.88-.54-1.29-.82.4-.57.86-1.07 1.36-1.55zm.65 2.22c.32-.36.66-.72.93-1.12.3.19.61.39.93.58-.46.42-.86.94-1.18 1.49a30.4 30.4 0 0 1-1.01-.57c.1-.13.22-.25.33-.38zm2.29-.29c.72.41 1.49.8 2.31 1.18-.27.54-.49 1.11-.59 1.69-1.06-.47-2.05-.95-2.96-1.43.38-.52.8-.97 1.24-1.44zm-4.71-3.37c-.55.49-1.08 1.03-1.6 1.55-.67-.52-1.26-1.03-1.78-1.51.27-.35.56-.67.89-.96.27-.23.56-.42.85-.61.51.5 1.05 1.01 1.64 1.53zm-1.98-1.88c-.66.4-1.24 1.03-1.68 1.65-.67-.64-1.21-1.23-1.63-1.74.33-.23.65-.47.97-.71.31-.23.63-.45.94-.68.44.49.91.98 1.4 1.48zm-2.11-2.24.14.16c.07.08.14.15.21.23-.36.26-.71.54-1.06.8l-.81.6c-.26-.33-.48-.63-.64-.87.92-.38 1.67-.7 2.16-.92zm-34.94 21.39c3.3 2.32 6.88 4.55 10.66 6 .42.86.84 1.79 1.24 2.78-3.8-2.44-8.08-4.62-12.15-6.46-.21-.09-.38.18-.18.31 3.94 2.51 8.31 5 12.62 6.88.35.91.69 1.86 1.01 2.87-4.79-2.96-10-5.52-15.06-8.01.58-2.22 1.42-4.4 2.68-6.38 2.36 1.56 4.76 3.26 7.31 4.42.17.08.4-.15.22-.29-2.21-1.75-4.8-3.12-7.27-4.52.24-.35.49-.69.75-1.02 1.39.84 2.81 1.74 4.29 2.36 1.28 1.53 2.75 3.62 4.15 6.34-3.39-1.84-6.81-3.56-10.08-5.64-.21-.17-.41.2-.19.36zm2.17-3.83c.17-.2.36-.4.54-.6.43.32 1.27 1.01 2.32 2.12-.93-.55-1.9-1.04-2.86-1.52zm-5.05 28.02c-.09-.6-.22-1.5-.33-2.57.27.18.53.37.83.48.19.07.33-.2.2-.34-.29-.29-.68-.47-1.03-.69a.21.21 0 0 1-.06-.04c-.06-.64-.11-1.33-.15-2.05 2.35 1.98 4.97 3.93 7.81 5 .17.06.25-.19.12-.28-2.66-1.83-5.42-3.37-7.96-5.37-.05-1.15-.05-2.35.03-3.51 5.06 3.02 10.09 6.25 15.34 8.91.21.11.39-.19.19-.32-4.95-3.29-10.31-6.1-15.47-9.05-.01-.01-.02 0-.03 0 .02-.27.05-.53.08-.79l.1-.86c.28-2.47.59-5.22 1.27-7.94 4.87 2.8 9.89 5.66 15.01 7.97.1.05.2 0 .25-.07.53 1.69 1 3.52 1.41 5.51-5.55-3.1-11.15-6.03-16.6-9.31-.25-.15-.47.23-.23.39 5.33 3.59 11.04 7.02 16.97 9.57.23 1.19.43 2.43.61 3.73-5.98-3.51-12.01-6.6-17.65-10.69-.21-.15-.4.19-.2.35 5.39 4.15 11.38 8.26 17.81 10.59.03.01.05 0 .07 0 .06.46.12.92.17 1.39H25.25zm20.56 0c-2.15-19.99-10.98-28.11-13.53-30.06 4.49-4.18 10.97-7.49 14.7-8.85 2.71-.99 8.13-3.26 12.08-4.94 1.5 2.4 7.65 10.32 25.28 14.1a73.48 73.48 0 0 0 15.4 1.63c13.64 0 24.62-3.84 29.22-7.62 5-4.11 8-8.31 8.84-9.57 1.36.54 2.75 1.07 4.18 1.62 5.46 2.08 11.11 4.23 16.75 7.74l.6.37c4.04 2.51 6.74 4.2 8.76 6.08-.7.55-1.94 1.69-3.35 3.62-.1.03-.18.12-.17.23-3.01 4.21-6.75 12.03-7.84 25.65H45.81zm119.12 0c-1.79-1.72-3.73-3.28-5.65-4.85.14-.98.3-1.93.47-2.84 2.53 2.85 5.37 5.59 8.57 7.69h-3.39zm-3.55 0c-.74-.73-1.62-1.34-2.47-1.94.09-.83.19-1.64.3-2.42 1.71 1.5 3.43 3 5.24 4.36h-3.07zm-2.52-1.47c.61.52 1.24 1.03 1.9 1.47h-2.04c.04-.5.09-.99.14-1.47zm10.35 1.47c-3.34-2.56-6.52-5.13-9.35-8.27.19-.97.4-1.9.62-2.78 3.51 4.03 7.52 7.91 12.05 10.78.21.13.47-.19.27-.35-4.28-3.46-8.43-6.85-12.19-10.89-.01-.01-.01 0-.02-.01a49 49 0 0 1 .96-3.3c4 3.23 7.92 6.59 12.08 9.62.16.12.37-.15.22-.28-3.91-3.39-8.09-6.46-12.16-9.65-.01-.01-.02 0-.03-.01.5-1.48 1.02-2.81 1.56-4 3.48 3.92 7.31 7.78 11.67 10.7.18.12.39-.15.23-.29-3.99-3.56-8.02-6.94-11.7-10.83.39-.85.79-1.62 1.19-2.33 3.09 3.13 6.11 6.5 9.53 9.22.18.14.4-.07.25-.25-2.82-3.39-6.3-6.35-9.53-9.39.39-.66.76-1.26 1.13-1.79 2.55 2.64 5.08 5.41 7.93 7.66.17.13.37-.07.24-.24-2.31-2.84-5.16-5.34-7.87-7.85.32-.45.63-.85.93-1.21 2.02 1.95 4.01 4.01 6.25 5.68 2.06 6.71 2.29 16.89 2.3 20.08h-6.56z" fill="#000000" stroke-width="none" opacity="1"></path></g><g id="svga-group-head" transform="matrix(1,0,0,1,0,0)"><g id="svga-group-ears-left-move" transform="matrix(1,0,0,1,0,0)"><g id="svga-group-ears-left" transform="matrix(1,0,0,1,0,0)"><path id="SvgjsPath64634" d="M58.9 77.8s-2.5-2.4-5.4-3.5c-2.9-1.1-6.1.7-7.1 3.7-1 2.9 1.3 15.1 5 19.5s6.2 4.8 8.7 2.5c2.6-2.4 7-10.8-1.2-22.2z" fill="#ffffff" stroke-width="none" opacity="1"></path><path id="SvgjsPath64635" d="M56.8 102.3c-1.9-.1-3.8-1.5-6.1-4.2-3.9-4.7-6.3-17.1-5.2-20.5.6-1.8 1.9-3.3 3.6-4.1 1.5-.7 3.2-.8 4.8-.2 3.1 1.2 5.6 3.6 5.7 3.7l.1.1c8.7 12.2 3.5 21.2 1.1 23.5-1.2 1.1-2.4 1.6-3.7 1.6-.1.1-.2.1-.3.1zm-3.6-27.1c-1.3-.5-2.5-.2-3.2.1-1.2.6-2.1 1.6-2.6 2.9-.8 2.5 1.3 14.3 4.9 18.5 1.9 2.3 3.4 3.4 4.7 3.5.8.1 1.6-.3 2.5-1.1 2.1-1.9 6.5-9.8-1.3-20.7-.4-.3-2.6-2.2-5-3.2z" fill="#000000" stroke-width="none" opacity="1"></path><path id="SvgjsPath64636" d="M50.2 77.4c3.3.6 5.4 6.1 6 9.8.1.1.1.2.2.3.4.6-.4 1.2-.8.6-.5-.8-1-1.6-1.8-1.9-1.4-.5-2.1 1.1-1.8 2.6.4 1.9 1.6 3 2.6 4.4.1.1 0 .3-.1.2-1.7-1-4.3-4.8-3.1-7.2.9-1.7 2.3-1.4 3.4-.4-.8-2.1-1.4-4.3-3-5.9-.5-.5-1.5-1.4-2.2-1.3-1.3.2-1.3 2.1-1.3 3.4-.1 1.7.1 3.4.4 5 0 .2-.2.2-.3.1-.6-2.4-2-10.4 1.8-9.7z" fill="#000000" stroke-width="none" opacity="1"></path></g></g><g id="svga-group-ears-right-move" transform="matrix(1,0,0,1,0,0)"><g id="svga-group-ears-right" transform="matrix(1,0,0,1,0,0)"><path id="SvgjsPath64637" d="M141.1 77.8s2.5-2.4 5.4-3.5c2.9-1.1 6.1.7 7.1 3.7 1 2.9-1.3 15.1-5 19.5s-6.2 4.8-8.7 2.5c-2.6-2.4-7-10.8 1.2-22.2z" fill="#ffffff" stroke-width="none" opacity="1"></path><path id="SvgjsPath64638" d="M142.9 102.3c-1.3 0-2.5-.5-3.7-1.6-2.5-2.2-7.6-11.3 1.1-23.5l.1-.1c.1-.1 2.7-2.5 5.7-3.7 1.5-.6 3.2-.5 4.8.2 1.7.8 3 2.3 3.6 4.1 1.1 3.3-1.3 15.8-5.2 20.5-2.3 2.7-4.2 4.1-6.1 4.2-.1-.1-.2-.1-.3-.1zm-1.1-23.9c-7.8 10.9-3.4 18.8-1.3 20.7.9.8 1.7 1.2 2.5 1.1 1.3-.1 2.8-1.2 4.7-3.5 3.5-4.2 5.7-16.1 4.9-18.5-.4-1.3-1.4-2.4-2.6-2.9-.7-.3-1.9-.6-3.2-.1-2.4 1-4.6 2.9-5 3.2z" fill="#000000" stroke-width="none" opacity="1"></path><path id="SvgjsPath64639" d="M149.8 77.4c-3.3.6-5.4 6.1-6 9.8-.1.1-.1.2-.2.3-.4.6.4 1.2.8.6.5-.8 1-1.6 1.8-1.9 1.4-.5 2.1 1.1 1.8 2.6-.4 1.9-1.6 3-2.6 4.4-.1.1 0 .3.1.2 1.7-1 4.3-4.8 3.1-7.2-.9-1.7-2.3-1.4-3.4-.4.8-2.1 1.4-4.3 3-5.9.5-.5 1.5-1.4 2.2-1.3 1.3.2 1.3 2.1 1.3 3.4.1 1.7-.1 3.4-.4 5 0 .2.2.2.3.1.6-2.4 2-10.4-1.8-9.7z" fill="#000000" stroke-width="none" opacity="1"></path></g></g><g id="svga-group-faceshape-wrap" transform="matrix(1,0,0,1,0,0)"><g id="svga-group-faceshape-single"><path id="SvgjsPath64708" d="M141.7 91.8c-.3-5.4 2.1-24 2.1-24-.1-3.3-.3-8.9-1.4-14.2-2.3-11.4-15.1-28.8-42.4-28.8S63.6 38.2 59.6 48.1c-2.5 6.2-3.2 15.2-3.4 19.7 0 0 .4 17.5 1.1 23.3.7 5.8-2.7 22.4-1.7 26.4 1 4.1 26.8 16.9 31.2 21 4.4 4.1 16.3 5.1 21 2 4.7-3.1 32.9-22.4 34.6-24.1 1.7-1.5-.4-19.1-.7-24.6z" fill="#ffffff" stroke-width="none" opacity="1"></path><path id="SvgjsPath64709" d="M99.7 143.6c-5.2 0-10.9-1.5-13.7-4.1-1.7-1.6-7.4-4.7-13.4-8-12.1-6.7-17.5-10.9-18.2-13.6-.6-2.3-.5-7.3.7-13 1.1-5.1 1.3-10.8 1-13.5C55.4 85.7 55 68.7 55 68c.2-4.8.9-13.8 3.4-20.1 6.6-16.2 20.1-24 41.5-24 12.3 0 23.2 3.6 31.3 10.4 6.3 5.2 10.9 12.5 12.2 19.3 1.1 5.5 1.3 11.4 1.4 14.4v.2c0 .2-2.4 18.5-2.1 23.8.1 1.8-.3 5.3.3 8.9 1.9 11.4 1.4 15.4.1 16.7-1.1 1.1-10.4 8.5-33.4 23.3l-1.4.9c-2 1.2-5.2 1.8-8.6 1.8zM57.3 67.9c0 .9.4 17.6 1.1 23.2.4 3.1.2 8.8-1 14.3-1 4.8-1.2 10.3-.7 12 .1.2-.4 1.3 5.2 4.8 3.7 2.3 7.4 4.9 11.9 7.3 6.4 3.5 11.9 6.6 13.8 8.3 3.9 3.6 15.3 4.7 19.6 1.9l1.4-.9c27.1-17.4 32-22.1 32.9-22.9.6-1.4.2-9.8-.7-14.8-.6-3.7-.2-7.2-.3-9.1-.3-5.3 1.9-22.6 2.1-24.1 0-3-.3-8.7-1.4-13.9-1.3-6.4-5.6-13.1-11.5-18-7.7-6.5-18-9.9-29.9-9.9-20.3 0-33.2 7.4-39.4 22.6-2.2 5.8-2.9 14.5-3.1 19.2z" fill="#000000" stroke-width="none" opacity="1"></path></g></g><g id="svga-group-mouth-single-move" transform="matrix(1,0,0,1,0,0)"><g id="svga-group-mouth-single" transform="matrix(1,0,0,1,0,0)"><path id="SvgjsPath64583" d="M114.07 122.53c-2.77.92-5.12-.93-7.77-1.33-2.22-.34-3.67 1.03-5.76 1.07-2.16.04-3.87-1.48-6.13-1.2-2.67.33-4.97 2.19-7.74 1.2-.72-.26-1.03.89-.32 1.15 2.38.85 4.33-.11 6.63-.78 1.63-.48 3.04-.47 4.64.15.96.37 1.9.81 2.95.79.68-.01 1.27-.22 1.9-.46 2.01-.76 3.55-.88 5.64-.18 2.15.71 4.03 1.49 6.27.75.73-.25.42-1.41-.31-1.16z" fill="#000000" stroke-width="none" opacity="1"></path><path id="SvgjsPath64584" d="M89.08 120.01c3.33-2.12 7.22-4.39 11.15-2.37a.3.3 0 0 0 .18.03c.04.01.09 0 .13-.01 3.68-1.25 7.57-.4 10.38 2.29.28.27.7-.16.42-.42-2.94-2.82-7.07-3.75-10.93-2.45-4.09-2.02-8.13.19-11.63 2.42-.32.2-.02.72.3.51z" fill="#000000" stroke-width="none" opacity="1"></path><path id="SvgjsPath64585" d="M107.89 127.49c-5.48 1.72-11.21 1.4-16.45-.94-.35-.15-.65.36-.3.51 5.39 2.41 11.27 2.77 16.91 1 .37-.11.21-.68-.16-.57z" fill="#000000" stroke-width="none" opacity="1"></path></g></g><g id="svga-group-eyes-left-move" transform="matrix(1,0,0,1,0,0)"><g id="svga-group-eyes-left" transform="matrix(1,0,0,1,0,0)"><g id="svga-group-eyesback-left"></g><g id="svga-group-eyesiriswrapper-left"><g id="svga-group-eyesiriscontrol-left" transform="matrix(1,0,0,1,0,0)"><g id="svga-group-eyesiris-left" transform="matrix(1,0,0,1,0,0)"><path id="SvgjsPath64731" d="M83.5 85.1c-1.1-2.1-3.5-2.9-5.7-2.2-2.4.8-4.2 3.3-3.3 5.9.5 1.4 1.6 2.6 3.1 2.9.5.1 1 .1 1.6.1.6.1 1.2 0 1.8-.2 2.6-.9 3.8-4 2.5-6.5z" fill="#ffffff" stroke-width="none" opacity="1"></path><path id="SvgjsPath64732" d="M82.3 85.8c0-.1-.1-.1-.1-.2-.7-1.4-2.3-2-3.8-1.7.5 1.1.9 2.3 1 3.5 0 .2-.3.4-.5.3-.9-.7-1.8-1.6-2.3-2.6-.3.4-.5.8-.7 1.2-.1.3-.1.6-.1.9-.2.9 0 2 .8 2.7.3.3.8.5 1.2.6 1.2.6 2.7.5 3.7-.6.1-.1.1-.2.2-.2.5-.5.8-1.1 1-1.7.2-.9 0-1.6-.4-2.2zm-2.8 6.3h-.4c-.5 0-1.1 0-1.6-.1-1.4-.3-2.7-1.5-3.2-3-.9-2.7 1-5.2 3.4-6.1 2.3-.8 4.8.1 5.9 2.2.6 1.2.7 2.7.2 4-.5 1.3-1.6 2.3-2.9 2.8-.4.1-.9.2-1.4.2zm-.4-.4c.6.1 1.2 0 1.8-.2 1.2-.4 2.2-1.4 2.7-2.6.5-1.2.4-2.6-.2-3.7-1-1.9-3.4-2.8-5.5-2.1-2.3.8-4.1 3.2-3.2 5.7.5 1.4 1.7 2.6 3 2.8.4.1.9.2 1.4.1z" fill="#000000" stroke-width="none" opacity="1"></path></g></g></g><g id="svga-group-eyesfront-left"><path id="SvgjsPath64672" d="M79 72.1c-8.2 0-14.8 6.6-14.8 14.8s6.6 14.8 14.8 14.8 14.8-6.6 14.8-14.8c0-8.1-6.6-14.8-14.8-14.8zm4.1 20.6c-2.4 1.1-5.9 1.4-8.4 1.1-2.6-.4-7.1-3.6-7.1-3.6s1.2-1.7 2.2-2.7 2.7-2.5 6.4-4.3c3.7-1.8 8.6.7 9.9 1.9 1.3 1.2 2 4.4 2 4.4s-2.6 2.1-5 3.2z" fill="#ffffff" stroke-width="none" opacity="1"></path><path id="SvgjsPath64673" d="M85.6 83.8c-1.7-1.1-5-2.1-8.5-1.5.1 0 .2-.1.2-.1.2-.6.1-1.3 0-1.9 3.9-.5 7 2.3 7.7 3.1l.8-.8c-.6-.6-6.4-6.1-12.5-1.8-6 4.2-6.7 6.7-6.7 7-.1.3.1.6.4.6h.1c.2 0 .4-.1.5-.3 0 .3-.1.7-.1 1-1.9 2.1-2.6 3.1-2.6 3.1-.2.2-.1.6.1.8.1.1.2.1.3.1.2 0 .3-.1.5-.2 0 0 1.4-2 5.9-6.5C76 81.7 82.5 83 85 84.7c1.5 1 2.3 3.1 2.7 4.6-.1 0-.2-.1-.3 0-.2 0-.3.1-.6.4-6.4 6.1-13.2 3.8-17.8.7-.3-.2-.6-.1-.8.2-.2.3-.1.6.2.8 2.7 1.8 6.1 3.3 9.7 3.3 3.1 0 6.3-1.1 9.5-4.2l.2-.2.1-.1c.1.6.2.9.2 1 0 .3.3.5.6.5s.5-.3.5-.6c-.1-.3-.7-5.3-3.6-7.3zm-15.7 2.7-.6.6V86c0-.2-.2-.2-.3 0 0 .4-.1.8-.1 1.2v.3c-.2.2-.4.5-.6.7v-.5c0-.4.1-.8.1-1.2.3-.5.9-1.1 1.6-1.8-.1.6-.2 1.2-.1 1.8zm1-1.1-.2.2c0-.5-.1-1-.1-1.4.2-.2.4-.3.6-.5 0 .5.1.9.2 1.3-.3.2-.4.3-.5.4zm1.5-2.7c0 .5-.1 1 0 1.4-.2.2-.4.3-.7.5 0-.4-.1-.9-.2-1.3.3-.2.6-.5.9-.6 0-.1 0 0 0 0zm2.9 0V82c0-.1-.2-.1-.2 0v.8c-.3.1-.7.3-1 .4v-.8c0-.2-.3-.2-.3 0v1c-.3.2-.6.3-.9.5v-1.1c0-.2-.2-.2-.3-.2.4-.3.9-.7 1.4-1 1-.7 2-1.1 2.9-1.3-.1.6-.1 1.3 0 1.9 0 .1.1.1.2.1-.6 0-1.2.2-1.8.4z" fill="#000000" stroke-width="none" opacity="1"></path></g></g></g><g id="svga-group-eyes-right-move" transform="matrix(1,0,0,1,0,0)"><g id="svga-group-eyes-right" transform="matrix(1,0,0,1,0,0)"><g id="svga-group-eyesback-right"></g><g id="svga-group-eyesiriswrapper-right"><g id="svga-group-eyesiriscontrol-right" transform="matrix(1,0,0,1,0,0)"><g id="svga-group-eyesiris-right" transform="matrix(1,0,0,1,0,0)"><path id="SvgjsPath64733" d="M125.6 85.1c-1.1-2.1-3.5-2.9-5.7-2.2-2.4.8-4.2 3.3-3.3 5.9.5 1.4 1.6 2.6 3.1 2.9.5.1 1 .1 1.6.1.6.1 1.2 0 1.8-.2 2.5-.9 3.7-4 2.5-6.5z" fill="#ffffff" stroke-width="none" opacity="1"></path><path id="SvgjsPath64734" d="M124.4 85.8c0-.1-.1-.1-.1-.2-.7-1.4-2.3-2-3.8-1.7.5 1.1.9 2.3 1 3.5 0 .2-.3.4-.5.3-.9-.7-1.8-1.6-2.3-2.6-.3.4-.5.8-.7 1.2-.1.3-.1.6-.1.9-.2.9 0 2 .8 2.7.3.3.8.5 1.2.6 1.2.6 2.7.5 3.7-.6.1-.1.1-.2.2-.2.5-.5.8-1.1 1-1.7.1-.9 0-1.6-.4-2.2zm-2.8 6.3h-.4c-.5 0-1.1 0-1.6-.1-1.4-.3-2.7-1.5-3.2-3-.9-2.7 1-5.2 3.4-6.1 2.3-.8 4.8.1 5.9 2.2.6 1.2.7 2.7.2 4-.5 1.3-1.6 2.3-2.9 2.8-.4.1-.9.2-1.4.2zm-.4-.4c.6.1 1.2 0 1.8-.2 1.2-.4 2.2-1.4 2.7-2.6.5-1.2.4-2.6-.2-3.7-1-1.9-3.4-2.8-5.5-2.1-2.3.8-4.1 3.2-3.2 5.7.5 1.4 1.7 2.6 3 2.8.3.1.8.2 1.4.1z" fill="#000000" stroke-width="none" opacity="1"></path></g></g></g><g id="svga-group-eyesfront-right"><path id="SvgjsPath64674" d="M121 72.1c-8.2 0-14.8 6.6-14.8 14.8s6.6 14.8 14.8 14.8 14.8-6.6 14.8-14.8c0-8.1-6.6-14.8-14.8-14.8zm4.2 21.6c-2.6.4-6.1 0-8.4-1.1-2.4-1.1-4.9-3.4-4.9-3.4s.7-3.2 2-4.4c1.3-1.2 6.2-3.6 9.9-1.9 3.7 1.8 5.5 3.3 6.4 4.3s2.2 2.7 2.2 2.7-4.6 3.5-7.2 3.8z" fill="#ffffff" stroke-width="none" opacity="1"></path><path id="SvgjsPath64677" d="M135 92.1c-.1-.1-1.5-2.1-6-6.7-4.8-4.9-12-3.5-14.7-1.7-2.9 2-3.5 7-3.5 7.2 0 .3.2.6.5.6s.6-.2.6-.5c0 0 0-.4.2-1l.1.1c.1 0 .1.1.2.2 3.2 3.1 6.4 4.2 9.5 4.2 3.6 0 7-1.6 9.7-3.3.3-.2.3-.5.2-.8-.2-.3-.5-.3-.8-.2-4.6 3.1-11.5 5.4-17.8-.7-.3-.3-.4-.4-.6-.4h-.3c.4-1.5 1.2-3.6 2.7-4.6 2.5-1.7 8.9-3 13.3 1.5s5.9 6.5 5.9 6.5c.1.2.3.2.5.2.1 0 .2 0 .3-.1.1.1.2-.2 0-.5zm-9.1-10.6c5.7 3.9 6.3 6.3 6.3 6.3.1.3.3.4.5.4h.1c.3-.1.5-.3.4-.6-.1-.3-.7-2.8-6.7-7-6.2-4.3-11.9 1.2-12.5 1.8l.8.8c.9-.9 5.8-5.3 11.1-1.7z" fill="#000000" stroke-width="none" opacity="1"></path></g></g></g><g id="svga-group-facehighlight-single"></g><g id="svga-group-eyebrows-left-move" transform="matrix(1,0,0,1,0,0)"><g id="svga-group-eyebrows-left-rotate" transform="matrix(1,0,0,1,0,0)"><g id="svga-group-eyebrows-left" transform="matrix(1,0,0,1,0,0)"><path id="SvgjsPath64602" d="M75.77 76.12c5.55.43 12.4-2.07 13.83-3.97 1.43-1.91-.95-5.56-2.54-5.72-1.59-.16-7.63 5.25-14.15 5.41-6.52.16-9.38.16-8.43 1.11.95.94 5.09 2.69 11.29 3.17z" fill="#ffffff" stroke-width="none" opacity="1"></path><path id="SvgjsPath64603" d="M64.12 73.3c1.1 1.1 5.42 2.85 11.61 3.33.42.03.85.05 1.28.05 5.23 0 11.49-2.21 13-4.23.68-.91.72-2.25.1-3.66-.59-1.34-1.81-2.76-3-2.88-.73-.07-1.82.56-3.49 1.51-2.65 1.51-6.64 3.8-10.73 3.9l-1.22.03c-6.07.14-7.51.21-7.83 1.01-.09.21-.11.55.28.94zm2.51-.76c.82-.05 1.85-.09 3.03-.12.95.7 1.72 1.63 2.26 2.69-1.24-.23-2.32-.49-3.25-.78-.59-.7-1.28-1.3-2.04-1.79zm6.29-.2c.39-.01.78-.06 1.17-.1a9.31 9.31 0 0 1 1.15 3.32c-.89-.08-1.73-.18-2.51-.31a8.49 8.49 0 0 0-2.03-2.86c.33-.01.66-.02 1-.02l1.22-.03zm7.68 3 .64-5.46c.74-.38 1.44-.75 2.08-1.11-.49 2.15-1.07 4.3-1.76 6.39-.33.07-.65.13-.96.18zm-.71.11c-.44.06-.89.1-1.33.14.14-1.48.17-2.87-.06-4.48.69-.27 1.36-.55 2-.85l-.61 5.19zm7.08-8.52H87c-.65 2.66-1.73 5.16-3.24 7.45-.05.08-.06.17-.05.25-.45.13-.92.26-1.4.37.71-2.19 1.33-4.44 1.82-6.69h.01c1.17-.68 2.4-1.38 2.83-1.38zm1.78 1.5c-.06.03-.12.08-.15.15-.87 1.9-1.92 3.73-3.12 5.45-.29.11-.6.22-.91.33a24.28 24.28 0 0 0 3.06-7.14c.37.25.77.67 1.12 1.21zm-2.13 5.13a36.87 36.87 0 0 0 2.49-4.47l.06.12c.22.5.67 1.77.02 2.63-.41.54-1.33 1.15-2.57 1.72zm-10.68 2.05c-.16-1.21-.54-2.39-1.12-3.47 1.04-.17 2.05-.44 3.02-.79.2 1.52.17 2.85.03 4.28-.65.03-1.3.02-1.93-.02zm-10.93-2.89c.12-.03.26-.05.43-.08.64.32 1.24.72 1.78 1.19-1.08-.41-1.82-.81-2.21-1.11z" fill="#000000" stroke-width="none" opacity="1"></path></g></g></g><g id="svga-group-eyebrows-right-move" transform="matrix(1,0,0,1,0,0)"><g id="svga-group-eyebrows-right-rotate" transform="matrix(1,0,0,1,0,0)"><g id="svga-group-eyebrows-right" transform="matrix(1,0,0,1,0,0)"><path id="SvgjsPath64604" d="M124.23 76.12c-5.55.43-12.4-2.07-13.83-3.97-1.43-1.91.95-5.56 2.54-5.72 1.59-.16 7.63 5.25 14.15 5.41 6.52.16 9.38.16 8.43 1.11s-5.09 2.69-11.29 3.17z" fill="#ffffff" stroke-width="none" opacity="1"></path><path id="SvgjsPath64605" d="M136.16 72.36c-.32-.81-1.77-.87-7.83-1.01l-1.22-.03c-4.08-.1-8.08-2.38-10.73-3.9-1.66-.95-2.76-1.58-3.49-1.51-1.19.12-2.41 1.54-3 2.88-.62 1.41-.59 2.75.1 3.66 1.51 2.01 7.78 4.23 13 4.23.43 0 .86-.02 1.28-.05 6.19-.48 10.52-2.23 11.61-3.33.39-.39.37-.73.28-.94zm-4.82 1.97c-.93.28-2.01.55-3.25.78a7.542 7.542 0 0 1 2.26-2.69c1.17.03 2.21.07 3.03.12-.77.49-1.46 1.09-2.04 1.79zm-3.03-1.96c.34.01.67.02 1 .02-.87.79-1.57 1.78-2.03 2.86-.78.12-1.62.23-2.51.31a9.58 9.58 0 0 1 1.15-3.32c.39.04.78.09 1.17.1l1.22.03zm-9.85 2.8c-.7-2.09-1.28-4.24-1.76-6.39.64.36 1.33.74 2.08 1.11l.64 5.46c-.33-.06-.65-.12-.96-.18zm1.04-4.92c.64.3 1.31.59 2 .85-.23 1.61-.2 3-.06 4.48-.44-.03-.89-.08-1.33-.14l-.61-5.19zm-3.63-1.95c0 .01.01.01 0 0 .49 2.26 1.11 4.5 1.82 6.69-.48-.11-.95-.24-1.4-.37.01-.08 0-.17-.05-.25a23.576 23.576 0 0 1-3.24-7.45h.03c.43.01 1.66.71 2.84 1.38zm-3.5-1.09c.63 2.54 1.66 4.94 3.06 7.14-.32-.11-.62-.21-.91-.33a36.74 36.74 0 0 1-3.12-5.45.312.312 0 0 0-.15-.15c.35-.53.75-.95 1.12-1.21zm-1.56 4.62c-.65-.86-.2-2.13.02-2.63l.06-.12a36.87 36.87 0 0 0 2.49 4.47c-1.24-.56-2.16-1.17-2.57-1.72zm11.32 3.8c-.14-1.42-.17-2.76.03-4.28.97.34 1.99.61 3.02.79-.58 1.08-.96 2.26-1.12 3.47-.63.04-1.28.05-1.93.02zm10.65-1.79c.54-.47 1.14-.88 1.78-1.19.17.02.31.05.43.08-.39.29-1.13.69-2.21 1.11z" fill="#000000" stroke-width="none" opacity="1"></path></g></g></g><g id="svga-group-beardwrap" transform="matrix(1,0,0,1,0,0)"><g id="svga-group-beard-single-move" transform="matrix(1,0,0,1,0,0)"><g id="svga-group-beard-single" transform="matrix(1,0,0,1,0,0)"></g></g></g><g id="svga-group-mustache-single-move" transform="matrix(1,0,0,1,0,0)"><g id="svga-group-mustache-single" transform="matrix(1,0,0,1,0,0)"></g></g><g id="svga-group-nose-single-move" transform="matrix(1,0,0,1,0,0)"><g id="svga-group-nose-single" transform="matrix(1,0,0,1,0,0)"><path id="SvgjsPath64762" d="M94.63 99.18s-5.25 4.01-4.56 7.12c.69 3.11 5.39-.14 5.39-.14s1.04 2.49 3.59 2.9c2.56.41 4.15-3.11 4.15-3.11s4.84 2 6.08 1.04c1.24-.97-.07-3.04-1.17-4.84-1.11-1.79-6.3-6.98-13.48-2.97z" fill="#ffffff" stroke-width="none" opacity="1"></path><path id="SvgjsPath64763" d="M103.12 103.76c-.77 1.94-1.89 4.64-4.41 4.3-2.57-.35-2.86-3.32-3.01-5.42-.26-3.59-.31-7.2-.24-10.8.14-7.65.97-15.27 2.43-22.78.18-.95-1.27-1.36-1.46-.4-1.97 10.17-2.81 20.54-2.4 30.9.05 1.32.04 2.95.25 4.53-.33-.24-.82-.26-1.08.2-.01.02-.03.04-.04.06a.748.748 0 0 0-.56-.12c-.86.15-1.85.42-2.33 1.23-.39.65-.35 1.58.17 2.15 1.56 1.72 3.34-1.29 4.02-2.48.41 1.93 1.28 3.64 3.22 4.36 3.62 1.35 5.81-2.56 6.9-5.31.36-.93-1.1-1.32-1.46-.42zm-11.6 2.8c-.09-.04.09-.4.17-.47.13-.12.31-.19.5-.25-.22.29-.57.76-.67.72z" fill="#000000" stroke-width="none" opacity="1"></path><path id="SvgjsPath64764" d="M109.87 106.3c-.42-1.58-1.78-2.62-3.32-2.79-.34-.38-.98-.43-1.19.05-.63.19-.54 1.01-.04 1.31.34 1.78 2.09 3.04 4.02 2.36.39-.14.64-.51.53-.93zm-2.95-1.21c.4.15.76.4 1.04.74-.45-.1-.83-.35-1.04-.74z" fill="#000000" stroke-width="none" opacity="1"></path></g></g><g id="svga-group-hair-front" transform="matrix(1,0,0,1,0,0)"></g><g id="svga-group-glasses-single-move" transform="matrix(1,0,0,1,0,0)"><g id="svga-group-glasses-single" transform="matrix(1,0,0,1,0,0)"></g></g></g></g></g><rect id="svga-credit-rect" width="200" height="15" x="0" y="185" fill="#ecf0f1" opacity="0.5" style="display: none;"></rect><text id="svga-credit-text" font-family="Avenir Next, Roboto, Helvetica, Arial, sans-serif" font-size="10px" text-anchor="start" font-weight="400" size="10px" anchor="start" weight="400" fill="#333333" x="33.402061462402344" y="182.71133995056152" style="display: none;"><tspan id="SvgjsTspan64098" dy="13" x="33.402061462402344">Created on AvatarMaker.com</tspan></text></g></svg>