<svg xmlns="http://www.w3.org/2000/svg" version="1.1" width="600px" height="600px" viewBox="0 0 200 200" style="overflow:hidden!important;"><defs id="SvgjsDefs69383"></defs><g id="svga-group-wrapper"><g id="svga-group-backs-single"></g><g id="svga-group-humanwrap-move" transform="matrix(1,0,0,1,0,0)"><g id="svga-group-humanwrap" transform="matrix(1,0,0,1,0,0)"><g id="svga-group-hair-back-move" transform="matrix(1,0,0,1,0,0)"><g id="svga-group-hair-back" transform="matrix(1,0,0,1,0,0)"></g></g><g id="svga-group-humanbody-back"><path id="SvgjsPath69793" d="M77.6 118.3c0 19.3 3.4 44.1-10 51.9-13.4 7.9-31.9 11.3-37.8 22s-4.4 25.3-4.4 25.3h149.3s.7-18.9-5.1-26.4c-8.1-10.4-27.8-15.5-37.7-20.9s-13.4-25.1-13.4-52.4l-40.9.5z" fill="#ffffff" stroke-width="none" opacity="1"></path><path id="SvgjsPath69794" d="M175.8 218.7H24.4l-.1-1c-.1-.6-1.5-15.1 4.5-26 4.1-7.4 13.5-11.3 23.5-15.5 5-2.1 10.2-4.3 14.8-6.9 10.6-6.2 10.1-23.9 9.6-41-.1-3.5-.2-6.8-.2-10v-1.1l43.2-.4v1.1c0 29.9 4.2 46.7 12.8 51.4 2.9 1.6 6.7 3.2 10.8 4.9 10 4.1 21.3 8.8 27.2 16.3 6.1 7.7 5.4 26.4 5.4 27.1l-.1 1.1zm-149.3-2.2h147.1c0-4.1-.2-18.5-4.9-24.6-5.5-7-16.6-11.6-26.3-15.6-4.1-1.7-8-3.3-11-5-5.1-2.8-8.7-8.9-10.9-18.7-2-8.4-2.9-19.4-3-33.5l-38.6.4c0 2.8.1 5.7.2 8.8.5 17.8 1 36.1-10.7 43-4.7 2.7-9.9 4.9-15 7.1-9.6 4-18.7 7.8-22.4 14.5-5 8.6-4.7 20.1-4.5 23.6z" fill="#000000" stroke-width="none" opacity="1"></path><path id="SvgjsPath69795" d="M93.9 153.8c-.5 1.8-.4 3.4.5 5.2.8 1.6 2.1 2.7 3.9 2.9.4 0 .7-.5.5-.8-1.6-2.2-3.5-4.2-3.7-7.1 0-.7-1-.9-1.2-.2zm18.6 33.7c8.8.5 18.1-.7 26.6-2.9.7-.2.6-1.4-.2-1.3-8.8 1.1-17.7 2-26.5 3.3-.5.1-.3.9.1.9zm-49.4-5c3.8.9 7.6 1.9 11.5 2.8 3.6.8 7.4 2 11.1 2.1.7 0 .8-.9.2-1.2-3.5-1.4-7.5-1.7-11.2-2.5-3.8-.7-7.5-1.3-11.3-2-.5 0-.7.7-.3.8z" fill="#000000" stroke-width="none" opacity="1"></path></g><g id="svga-group-chinshadow-single"></g><g id="svga-group-humanbody-front"></g><g id="svga-group-clothes-single"><path id="SvgjsPath69930" d="M63.33 170.93s-12.22 5.29-16.7 6.92c-4.48 1.63-12.63 5.91-17.11 11.2-4.48 5.29-5.09 12.63-5.7 17.92-.61 5.29.58 11.73.58 11.73h152.36s.2-14.17-2.65-22.32-5.7-9.78-14.87-15.48c-9.16-5.7-18.53-7.94-26.07-11.61 0 0-3.05 12.83-30.55 14.26-27.48 1.43-34-6.92-39.29-12.62z" fill="#ffffff" stroke-width="none" opacity="1"></path><path id="SvgjsPath69931" d="M175.06 196.05c-2.9-8.3-5.87-10.15-14.69-15.63l-.6-.37c-5.81-3.62-11.81-5.9-17.1-7.91-3.23-1.23-6.28-2.39-9.06-3.75a1.02 1.02 0 0 0-.87 0c-.27.13-.47.38-.54.67-.03.12-3.19 12.12-29.63 13.49-11.02.58-18.6-.45-24.07-2.24-.04-.14-.21-.21-.31-.1-.46-.16-.91-.31-1.34-.48.01-.02.01-.04.02-.06.08-.25-.3-.35-.39-.11 0 .01 0 .01-.01.02-6.05-2.41-9.18-5.81-11.8-8.66l-.63-.68c-.29-.31-.74-.4-1.13-.24-.12.05-12.24 5.3-16.64 6.9-3.9 1.42-12.58 5.64-17.53 11.49-4.44 5.25-5.25 12.38-5.83 17.59l-.1.86c-.62 5.38.54 11.76.59 12.02.09.47.5.82.98.82h152.36a1 1 0 0 0 1-.99c.03-.56.19-14.42-2.68-22.64zm-4.34-4.67c-.51-.5-1.02-1-1.52-1.51.1-.08.19-.16.26-.22.46.55.87 1.12 1.26 1.73zm-1.89-1.17c.98 1.01 1.94 2.08 2.94 3.08.48 1 .94 2.12 1.4 3.42l.03.11c-1.74-1.87-3.76-3.55-5.68-5.25.51-.59.95-1.04 1.31-1.36zm-66.15-5.66c23.41-1.21 29.59-10.57 31.06-13.88.7.33 1.42.64 2.15.95-1.03 1.47-3.85 5.21-8.22 8.8-3.79 3.11-12.73 6.36-23.97 7.02.1-.66.16-1.34.25-2 .03-.19-.28-.19-.3 0-.08.66-.2 1.34-.27 2.01-.68.04-1.37.06-2.07.08.11-.96.07-1.97.08-2.92l1.29-.06zm-4.2 2.99c-.61-.01-1.22-.03-1.83-.05.07-.92.03-1.87.04-2.79.62 0 1.25 0 1.9-.02-.05.93-.14 1.92-.11 2.86zm.5-2.86c.67-.01 1.35-.03 2.04-.06-.08.95-.2 1.95-.18 2.92-.6.01-1.2.02-1.82.01.06-.95-.01-1.94-.04-2.87zm-2.73.03c-.03.91-.09 1.85-.06 2.76a65.89 65.89 0 0 1-3.39-.24c.04-.87.02-1.74.01-2.6 1.1.04 2.25.07 3.44.08zm-18.35-2.47c.39.13.8.25 1.21.37-.18.58-.36 1.18-.48 1.77-.35-.11-.7-.23-1.04-.34.11-.45.11-.94.2-1.4.04-.15.08-.27.11-.4zm1.71.51c.27.07.55.15.83.22-.1.6-.25 1.24-.31 1.86-.32-.09-.63-.18-.94-.28.18-.58.31-1.19.42-1.8zm1.26.33c1.02.25 2.11.48 3.26.67-.15.66-.3 1.35-.36 2.02a66.49 66.49 0 0 1-3.1-.79c.12-.62.14-1.29.2-1.9zm3.79.76c.58.09 1.17.18 1.78.26-.23.71-.39 1.46-.38 2.16-.43-.08-.87-.17-1.3-.26l-.39-.09c.15-.67.23-1.39.29-2.07zm2.14 1.07c.05-.25.12-.5.19-.75.45.06.92.11 1.39.15-.11.77-.22 1.55-.21 2.32-.51-.08-1.03-.17-1.55-.27.07-.48.08-.98.18-1.45zm2.02-.55c.48.05.97.09 1.47.12-.21.76-.38 1.63-.34 2.42-.46-.06-.92-.13-1.38-.2.16-.75.21-1.55.25-2.34zm1.67 1.71c.05-.53.15-1.04.28-1.55l1.56.09c-.03.85-.07 1.71-.06 2.57-.6-.06-1.2-.13-1.81-.21.01-.3 0-.6.03-.9zm-13.05-3.99c-.03.09-.07.18-.09.28-.11.45-.26 1-.24 1.5-.48-.17-.95-.34-1.41-.51.21-.55.4-1.11.57-1.68.38.14.77.28 1.17.41zm-2.2 1.08c-.4-.16-.8-.32-1.18-.48.22-.56.4-1.11.61-1.67.36.16.74.32 1.13.47-.21.56-.4 1.12-.56 1.68zm-6.64-5.73c-.52.46-.95 1.02-1.3 1.62-.5-.34-.96-.67-1.4-1 .55-.48 1.12-.97 1.64-1.48.34.28.69.57 1.06.86zm.33.25c.4.3.82.6 1.26.89-.36.33-.68.72-1 1.09l-.33.39c-.45-.27-.88-.54-1.29-.82.4-.57.86-1.07 1.36-1.55zm.65 2.22c.32-.36.66-.72.93-1.12.3.19.61.39.93.58-.46.42-.86.94-1.18 1.49a30.4 30.4 0 0 1-1.01-.57c.1-.13.22-.25.33-.38zm2.29-.29c.72.41 1.49.8 2.31 1.18-.27.54-.49 1.11-.59 1.69-1.06-.47-2.05-.95-2.96-1.43.38-.52.8-.97 1.24-1.44zm-4.71-3.37c-.55.49-1.08 1.03-1.6 1.55-.67-.52-1.26-1.03-1.78-1.51.27-.35.56-.67.89-.96.27-.23.56-.42.85-.61.51.5 1.05 1.01 1.64 1.53zm-1.98-1.88c-.66.4-1.24 1.03-1.68 1.65-.67-.64-1.21-1.23-1.63-1.74.33-.23.65-.47.97-.71.31-.23.63-.45.94-.68.44.49.91.98 1.4 1.48zm-2.11-2.24.14.16c.07.08.14.15.21.23-.36.26-.71.54-1.06.8l-.81.6c-.26-.33-.48-.63-.64-.87.92-.38 1.67-.7 2.16-.92zm-34.94 21.39c3.3 2.32 6.88 4.55 10.66 6 .42.86.84 1.79 1.24 2.78-3.8-2.44-8.08-4.62-12.15-6.46-.21-.09-.38.18-.18.31 3.94 2.51 8.31 5 12.62 6.88.35.91.69 1.86 1.01 2.87-4.79-2.96-10-5.52-15.06-8.01.58-2.22 1.42-4.4 2.68-6.38 2.36 1.56 4.76 3.26 7.31 4.42.17.08.4-.15.22-.29-2.21-1.75-4.8-3.12-7.27-4.52.24-.35.49-.69.75-1.02 1.39.84 2.81 1.74 4.29 2.36 1.28 1.53 2.75 3.62 4.15 6.34-3.39-1.84-6.81-3.56-10.08-5.64-.21-.17-.41.2-.19.36zm2.17-3.83c.17-.2.36-.4.54-.6.43.32 1.27 1.01 2.32 2.12-.93-.55-1.9-1.04-2.86-1.52zm-5.05 28.02c-.09-.6-.22-1.5-.33-2.57.27.18.53.37.83.48.19.07.33-.2.2-.34-.29-.29-.68-.47-1.03-.69a.21.21 0 0 1-.06-.04c-.06-.64-.11-1.33-.15-2.05 2.35 1.98 4.97 3.93 7.81 5 .17.06.25-.19.12-.28-2.66-1.83-5.42-3.37-7.96-5.37-.05-1.15-.05-2.35.03-3.51 5.06 3.02 10.09 6.25 15.34 8.91.21.11.39-.19.19-.32-4.95-3.29-10.31-6.1-15.47-9.05-.01-.01-.02 0-.03 0 .02-.27.05-.53.08-.79l.1-.86c.28-2.47.59-5.22 1.27-7.94 4.87 2.8 9.89 5.66 15.01 7.97.1.05.2 0 .25-.07.53 1.69 1 3.52 1.41 5.51-5.55-3.1-11.15-6.03-16.6-9.31-.25-.15-.47.23-.23.39 5.33 3.59 11.04 7.02 16.97 9.57.23 1.19.43 2.43.61 3.73-5.98-3.51-12.01-6.6-17.65-10.69-.21-.15-.4.19-.2.35 5.39 4.15 11.38 8.26 17.81 10.59.03.01.05 0 .07 0 .06.46.12.92.17 1.39H25.25zm20.56 0c-2.15-19.99-10.98-28.11-13.53-30.06 4.49-4.18 10.97-7.49 14.7-8.85 2.71-.99 8.13-3.26 12.08-4.94 1.5 2.4 7.65 10.32 25.28 14.1a73.48 73.48 0 0 0 15.4 1.63c13.64 0 24.62-3.84 29.22-7.62 5-4.11 8-8.31 8.84-9.57 1.36.54 2.75 1.07 4.18 1.62 5.46 2.08 11.11 4.23 16.75 7.74l.6.37c4.04 2.51 6.74 4.2 8.76 6.08-.7.55-1.94 1.69-3.35 3.62-.1.03-.18.12-.17.23-3.01 4.21-6.75 12.03-7.84 25.65H45.81zm119.12 0c-1.79-1.72-3.73-3.28-5.65-4.85.14-.98.3-1.93.47-2.84 2.53 2.85 5.37 5.59 8.57 7.69h-3.39zm-3.55 0c-.74-.73-1.62-1.34-2.47-1.94.09-.83.19-1.64.3-2.42 1.71 1.5 3.43 3 5.24 4.36h-3.07zm-2.52-1.47c.61.52 1.24 1.03 1.9 1.47h-2.04c.04-.5.09-.99.14-1.47zm10.35 1.47c-3.34-2.56-6.52-5.13-9.35-8.27.19-.97.4-1.9.62-2.78 3.51 4.03 7.52 7.91 12.05 10.78.21.13.47-.19.27-.35-4.28-3.46-8.43-6.85-12.19-10.89-.01-.01-.01 0-.02-.01a49 49 0 0 1 .96-3.3c4 3.23 7.92 6.59 12.08 9.62.16.12.37-.15.22-.28-3.91-3.39-8.09-6.46-12.16-9.65-.01-.01-.02 0-.03-.01.5-1.48 1.02-2.81 1.56-4 3.48 3.92 7.31 7.78 11.67 10.7.18.12.39-.15.23-.29-3.99-3.56-8.02-6.94-11.7-10.83.39-.85.79-1.62 1.19-2.33 3.09 3.13 6.11 6.5 9.53 9.22.18.14.4-.07.25-.25-2.82-3.39-6.3-6.35-9.53-9.39.39-.66.76-1.26 1.13-1.79 2.55 2.64 5.08 5.41 7.93 7.66.17.13.37-.07.24-.24-2.31-2.84-5.16-5.34-7.87-7.85.32-.45.63-.85.93-1.21 2.02 1.95 4.01 4.01 6.25 5.68 2.06 6.71 2.29 16.89 2.3 20.08h-6.56z" fill="#000000" stroke-width="none" opacity="1"></path></g><g id="svga-group-head" transform="matrix(1,0,0,1,0,0)"><g id="svga-group-ears-left-move" transform="matrix(1,0,0,1,0,0)"><g id="svga-group-ears-left" transform="matrix(1,0,0,1,0,0)"><path id="SvgjsPath69940" d="M60.8 86.8s-2.1-5.1-4.3-8.3c-2.2-3.2-5.5-7.6-7.6-8.7s-3.6-.4-3 2.6 3 12.6 3.6 15.6c.7 3 2.2 9.4 4.2 13.6 1.9 4.2 3.1 6.1 5.2.5 2.1-5.7 3.4-11.8 1.9-15.3z" fill="#ffffff" stroke-width="none" opacity="1"></path><path id="SvgjsPath69941" d="M52.9 102c-2-4.4-3.6-11.1-4.2-13.8-.2-1-.7-2.9-1.2-5-.9-3.9-2.1-8.7-2.4-10.7-.4-2.2.2-3.3.9-3.7.5-.4 1.6-.8 3.5.2 2.3 1.2 6.6 3.9 8.9 7.3 2.2 3.3 3.3 10 3.4 10.2 1.7 4.1 1.3 10.3-.6 15.3-1 2.8-3.3 4.7-4.5 4.8h-.1c-1.5-.1-2.5-1.9-3.7-4.6zm2.9-23.1c-3-4.5-5.7-7.6-7.2-8.4-.9-.5-1.4-.5-1.6-.3-.2.2-.4.8-.2 2 .4 1.9 1.5 6.7 2.4 10.6.5 2.1.9 4 1.2 5 .6 2.6 2.2 9.2 4.1 13.4.4.9 1.5 3.3 2 3.5.1 0 .6-.3 1.6-2.9 2.4-6.6 3.1-11.8 2-14.7-.1-.1-2.2-5.1-4.3-8.2z" fill="#000000" stroke-width="none" opacity="1"></path><path id="SvgjsPath69942" d="M47.6 73.1c3.5 4 6.5 10.6 7 16.9 0 .4-.4.5-.5.1-.1-.6-.2-1.1-.4-1.7-.3-.8-.9-.9-1.6-.2.1.5.1 1 .3 1.4.2.6.4 1.3.6 1.9.6 1.5 1.3 2.6 2 3.9.1.3 0 .7-.3.5-1.7-1.4-3.4-5.4-3.4-8.2 0-.8.3-1.6.9-1.7.4 0 .7.1.9.4-1.3-4.9-3-8.9-5.8-13 0-.2.1-.5.3-.3z" fill="#000000" stroke-width="none" opacity="1"></path></g></g><g id="svga-group-ears-right-move" transform="matrix(1,0,0,1,0,0)"><g id="svga-group-ears-right" transform="matrix(1,0,0,1,0,0)"><path id="SvgjsPath69943" d="M139.2 86.8s2.1-5.1 4.3-8.3c2.2-3.2 5.5-7.6 7.6-8.7 2.1-1.1 3.6-.4 3 2.6-.6 3-2.9 12.7-3.6 15.7-.7 3-2.2 9.4-4.2 13.6-1.9 4.2-3.1 6.1-5.2.5-2.1-5.8-3.4-11.9-1.9-15.4z" fill="#ffffff" stroke-width="none" opacity="1"></path><path id="SvgjsPath69944" d="M143.5 106.5s-.1 0 0 0c-1.3 0-3.5-1.9-4.6-4.8-1.8-5-2.3-11.2-.6-15.3.1-.2 1.2-6.9 3.4-10.2 2.3-3.4 6.6-6.1 8.9-7.3 1.9-1 3-.5 3.5-.2.6.5 1.3 1.5.9 3.7-.4 1.9-1.5 6.8-2.4 10.7-.5 2.1-.9 4-1.2 5-.6 2.7-2.2 9.4-4.2 13.8-1.3 2.8-2.3 4.6-3.7 4.6zM140 87.1c-1.2 2.8-.5 8 2 14.7 1 2.6 1.5 2.9 1.6 2.9.5-.2 1.6-2.6 2-3.5 1.9-4.2 3.5-10.8 4.1-13.4.2-1 .7-2.9 1.2-5 .9-3.9 2.1-8.7 2.4-10.6.2-1.2 0-1.8-.2-2-.2-.1-.7-.1-1.5.3-1.5.8-4.2 4-7.2 8.4-2.3 3.1-4.4 8.1-4.4 8.2z" fill="#000000" stroke-width="none" opacity="1"></path><path id="SvgjsPath69945" d="M152.4 73.1c-3.5 4-6.5 10.6-7 16.9 0 .4.4.5.5.1.1-.6.2-1.1.4-1.7.3-.8.9-.9 1.6-.2-.1.5-.1 1-.3 1.4-.2.6-.4 1.3-.6 1.9-.6 1.5-1.3 2.6-2 3.9-.1.3 0 .7.3.5 1.7-1.4 3.4-5.4 3.4-8.2 0-.8-.3-1.6-.9-1.7-.4 0-.7.1-.9.4 1.3-4.9 3-8.9 5.8-13 0-.2-.1-.5-.3-.3z" fill="#000000" stroke-width="none" opacity="1"></path></g></g><g id="svga-group-faceshape-wrap" transform="matrix(1,0,0,1,0,0)"><g id="svga-group-faceshape-single"><path id="SvgjsPath70008" d="M142.4 52.9c-2.3-11.1-15.1-28.1-42.4-28.1S63.6 37.9 59.5 47.5c-2.5 6.1-3.2 14.8-3.4 19.2 0 0 1.6 42.2 3.1 46 3 7.9 7.7 8.4 13.6 14.5 6.6 6.7 9.7 17 15.3 17 8.8-1.5 10.7-1.6 20 0 7.6 1.2 10.8-8.8 14.6-13.7 5.3-7 13.1-8.9 17.3-16.7 2.9-4.1 3.7-47.1 3.7-47.1.1-3-.2-8.6-1.3-13.8z" fill="#ffffff" stroke-width="none" opacity="1"></path><path id="SvgjsPath70009" d="M109.1 145.6c-.4 0-.7 0-1.1-.1-9-1.6-10.8-1.6-19.6 0-1.9.3-5.2-1-8.1-5.7-2.2-3.7-5-8.3-8.2-11.5-2.6-2.7-5.7-4.9-8.4-6.8-3.5-2.4-4.5-5.7-5.5-8.1-1.7-3.9-3-42.1-3.2-46.4.2-4.7.9-13.5 3.4-19.6C65 31.5 78.5 23.9 99.9 23.9c12.3 0 23.2 3.5 31.3 10.2 6.3 5.1 10.9 12.2 12.2 18.8 1.1 5.4 1.3 11.1 1.4 14.1-.1 4.4-.9 43.5-3.9 47.7-1.4 1.9-3.1 4.6-6.2 7-3.9 2.8-8.3 6-11.1 9.8-.9 1.3-1.9 2.9-2.9 4.7-2.6 4.7-6.8 9.4-11.6 9.4zM98 142.2c2.8 0 5.7.4 10.3 1.2 3.9.7 7.8-3.8 10.4-8.4 1-1.9 2-3.5 3-4.9 3.1-4.1 7.6-7.4 11.6-10.3 3-2.2 4.2-3.7 5.8-6.5 2-2.8 3.2-30 3.5-46.5 0-2.9-.3-8.5-1.4-13.7-1.3-6.2-5.6-12.8-11.5-17.6-7.7-6.4-18-9.7-29.9-9.7-20.3.2-33.2 7.4-39.4 22.2-2.4 5.8-3.1 14.3-3.3 18.9.6 16.9 1.9 43 3 45.6.6 2.3 1.7 4.9 4.7 7.2 2.8 1.9 5.9 4.2 8.7 7 3.4 3.4 6.2 8.2 8.5 11.9 2.7 4.4 4.3 4.8 5.9 4.6 4.6-.6 7.4-1 10.1-1z" fill="#000000" stroke-width="none" opacity="1"></path></g></g><g id="svga-group-mouth-single-move" transform="matrix(1,0,0,1,0,0)"><g id="svga-group-mouth-single" transform="matrix(1,0,0,1,0,0)"><path id="SvgjsPath69886" d="M103.79 115.87c.23-.29-.27-.58-.5-.29-1.55 2.01-4.31 2.08-6.01.24-.25-.27-.66.14-.41.41 1.98 2.14 5.16 1.93 6.92-.36z" fill="#000000" stroke-width="none" opacity="1"></path><path id="SvgjsPath69887" d="m111.32 122.04-4.72 3.94c-2.01 1.68-3.84 3.82-6.79 2.9-3.8-1.19-7.32-4.47-9.95-7.31-.25-.27-.66.14-.41.41 1.67 1.8 3.48 3.44 5.49 4.84 1.71 1.19 3.94 2.78 6.1 2.94 1.45.11 2.58-.6 3.68-1.47 2.38-1.89 4.67-3.89 7-5.84.3-.24-.11-.65-.4-.41z" fill="#000000" stroke-width="none" opacity="1"></path><path id="SvgjsPath69888" d="M112.66 118.37c-2.3.72-4.6 1.45-6.89 2.17-2.52.79-4.76 1.78-7.38.82-3.67-1.34-7.32-2.65-11.2-3.25-.73-.11-1.04 1-.31 1.11 2.14.33 4.24.87 6.31 1.51 2.07.64 4.09 1.69 6.2 2.15 1.88.41 3.61-.26 5.39-.82l8.19-2.58c.7-.23.4-1.34-.31-1.11z" fill="#000000" stroke-width="none" opacity="1"></path></g></g><g id="svga-group-eyes-left-move" transform="matrix(1,0,0,1,0,0)"><g id="svga-group-eyes-left" transform="matrix(1,0,0,1,0,0)"><g id="svga-group-eyesback-left"></g><g id="svga-group-eyesiriswrapper-left"><g id="svga-group-eyesiriscontrol-left" transform="matrix(1,0,0,1,0,0)"><g id="svga-group-eyesiris-left" transform="matrix(1,0,0,1,0,0)"><path id="SvgjsPath70049" d="M83.5 85.1c-1.1-2.1-3.5-2.9-5.7-2.2-2.4.8-4.2 3.3-3.3 5.9.5 1.4 1.6 2.6 3.1 2.9.5.1 1 .1 1.6.1.6.1 1.2 0 1.8-.2 2.6-.9 3.8-4 2.5-6.5z" fill="#ffffff" stroke-width="none" opacity="1"></path><path id="SvgjsPath70050" d="M82.3 85.8c0-.1-.1-.1-.1-.2-.7-1.4-2.3-2-3.8-1.7.5 1.1.9 2.3 1 3.5 0 .2-.3.4-.5.3-.9-.7-1.8-1.6-2.3-2.6-.3.4-.5.8-.7 1.2-.1.3-.1.6-.1.9-.2.9 0 2 .8 2.7.3.3.8.5 1.2.6 1.2.6 2.7.5 3.7-.6.1-.1.1-.2.2-.2.5-.5.8-1.1 1-1.7.2-.9 0-1.6-.4-2.2zm-2.8 6.3h-.4c-.5 0-1.1 0-1.6-.1-1.4-.3-2.7-1.5-3.2-3-.9-2.7 1-5.2 3.4-6.1 2.3-.8 4.8.1 5.9 2.2.6 1.2.7 2.7.2 4-.5 1.3-1.6 2.3-2.9 2.8-.4.1-.9.2-1.4.2zm-.4-.4c.6.1 1.2 0 1.8-.2 1.2-.4 2.2-1.4 2.7-2.6.5-1.2.4-2.6-.2-3.7-1-1.9-3.4-2.8-5.5-2.1-2.3.8-4.1 3.2-3.2 5.7.5 1.4 1.7 2.6 3 2.8.4.1.9.2 1.4.1z" fill="#000000" stroke-width="none" opacity="1"></path></g></g></g><g id="svga-group-eyesfront-left"><path id="SvgjsPath69978" d="M79 72.1c-8.2 0-14.8 6.6-14.8 14.8s6.6 14.8 14.8 14.8 14.8-6.6 14.8-14.8c0-8.1-6.6-14.8-14.8-14.8zm1.6 21.8c-5.5 1.3-10.3.4-12.2-.7-1.8-1.2-2.5-5.2-2.5-5.2 4.5-2.9 12.2-5.3 16.7-5.7s5.6 2.1 6.2 3.2c.7 1.1 1.1 6.3 1.1 6.4-.1 0-3.8.7-9.3 2z" fill="#ffffff" stroke-width="none" opacity="1"></path><path id="SvgjsPath69979" d="M89.2 85.1c-1.5-2.9-2.3-3.4-5.2-3.6-.9 0-9.5-.2-20 7-.3.2-.3.6-.2.8.2.3.6.3.8.2l.9-.6c.2 1.1 1.2 5.6 6.8 6.2.2 0 .4 0 .5.1 5.1.4 13-1.7 15.7-2.4.4-.1.7-.2.8-.2 0 .2 0 .3.1.4-.4.3-.7.6-1 .9-.2.2 0 .4.3.3.6-.2 1.1-.7 1.6-1.1l.1-.1c.1-.1.1-.1.1-.2.2-.3.2-4.8-1.3-7.7zm.1 6.4c-.1 0-.2 0-1.1.2-2.7.7-10.9 2.9-15.7 2.3-5.3-.6-5.8-5.2-5.8-5.4 0-.1-.1-.2-.2-.3 9.3-5.7 16.5-5.6 17.4-5.6 2.4.1 2.8.3 4.2 2.9 1 1.9 1.2 4.4 1.2 5.9.1 0 0 0 0 0zm-16.2 5.1c-2.1-.7-4-1.2-5.9-2.3-.2-.1-.5.2-.3.4 1.7 1.3 3.9 2.4 6.1 2.3.3 0 .3-.3.1-.4z" fill="#000000" stroke-width="none" opacity="1"></path></g></g></g><g id="svga-group-eyes-right-move" transform="matrix(1,0,0,1,0,0)"><g id="svga-group-eyes-right" transform="matrix(1,0,0,1,0,0)"><g id="svga-group-eyesback-right"></g><g id="svga-group-eyesiriswrapper-right"><g id="svga-group-eyesiriscontrol-right" transform="matrix(1,0,0,1,0,0)"><g id="svga-group-eyesiris-right" transform="matrix(1,0,0,1,0,0)"><path id="SvgjsPath70051" d="M125.6 85.1c-1.1-2.1-3.5-2.9-5.7-2.2-2.4.8-4.2 3.3-3.3 5.9.5 1.4 1.6 2.6 3.1 2.9.5.1 1 .1 1.6.1.6.1 1.2 0 1.8-.2 2.5-.9 3.7-4 2.5-6.5z" fill="#ffffff" stroke-width="none" opacity="1"></path><path id="SvgjsPath70052" d="M124.4 85.8c0-.1-.1-.1-.1-.2-.7-1.4-2.3-2-3.8-1.7.5 1.1.9 2.3 1 3.5 0 .2-.3.4-.5.3-.9-.7-1.8-1.6-2.3-2.6-.3.4-.5.8-.7 1.2-.1.3-.1.6-.1.9-.2.9 0 2 .8 2.7.3.3.8.5 1.2.6 1.2.6 2.7.5 3.7-.6.1-.1.1-.2.2-.2.5-.5.8-1.1 1-1.7.1-.9 0-1.6-.4-2.2zm-2.8 6.3h-.4c-.5 0-1.1 0-1.6-.1-1.4-.3-2.7-1.5-3.2-3-.9-2.7 1-5.2 3.4-6.1 2.3-.8 4.8.1 5.9 2.2.6 1.2.7 2.7.2 4-.5 1.3-1.6 2.3-2.9 2.8-.4.1-.9.2-1.4.2zm-.4-.4c.6.1 1.2 0 1.8-.2 1.2-.4 2.2-1.4 2.7-2.6.5-1.2.4-2.6-.2-3.7-1-1.9-3.4-2.8-5.5-2.1-2.3.8-4.1 3.2-3.2 5.7.5 1.4 1.7 2.6 3 2.8.3.1.8.2 1.4.1z" fill="#000000" stroke-width="none" opacity="1"></path></g></g></g><g id="svga-group-eyesfront-right"><path id="SvgjsPath69980" d="M121 72.1c-8.2 0-14.8 6.6-14.8 14.8s6.6 14.8 14.8 14.8 14.8-6.6 14.8-14.8c0-8.1-6.6-14.8-14.8-14.8zm9.8 21.8c-2 1-6.8 1.5-12.2-.2s-9-2.7-9-2.7c0-.2.8-5.3 1.5-6.3s2-3.5 6.5-2.7c4.4.7 12 3.7 16.2 7 0-.1-1 3.8-3 4.9z" fill="#ffffff" stroke-width="none" opacity="1"></path><path id="SvgjsPath69983" d="M135.6 89.6c-9.9-8-18.5-8.5-19.4-8.5-1.1 0-1.8 0-2.5.2-.7-.1-1.5-.2-2.2-.1-.3 0-.4.4-.1.5.3.1.7.2 1.1.2-.6.5-1.1 1.2-1.8 2.3-1.7 2.7-2.1 7.2-1.9 7.8.1.2.3.4.6.4h.2c.3-.1.4-.3.4-.6.1 0 .3.1.7.2 2.6.9 10.3 3.6 15.4 3.6h.5c5.7-.2 7-4.7 7.3-5.7.3.2.6.4.8.6.3.2.6.2.9-.1.3-.2.3-.6 0-.8zm-2.7-.1c0 .2-.8 4.7-6.2 4.9-4.9.2-12.9-2.6-15.5-3.5-.8-.3-.9-.3-1-.3h-.1c.2-1.5.6-4 1.7-5.7 1.6-2.5 2-2.7 4.4-2.6.8 0 8.1.4 16.9 6.9-.1 0-.2.1-.2.3z" fill="#000000" stroke-width="none" opacity="1"></path></g></g></g><g id="svga-group-facehighlight-single"></g><g id="svga-group-eyebrows-left-move" transform="matrix(1,0,0,1,0,0)"><g id="svga-group-eyebrows-left-rotate" transform="matrix(1,0,0,1,0,0)"><g id="svga-group-eyebrows-left" transform="matrix(1,0,0,1,0,0)"><path id="SvgjsPath69908" d="M63.17 77.98 75.4 65.9l16.47 6.47-2.53 4.02-13.47-7.38z" fill="#ffffff" stroke-width="none" opacity="1"></path><path id="SvgjsPath69909" d="M62.78 78.31c.17.2.47.24.69.09l12.44-8.79 13.19 7.23c.12.06.24.08.36.05.13-.03.24-.11.32-.22l2.53-4.03c.08-.13.1-.29.06-.44a.503.503 0 0 0-.3-.32L75.6 65.41a.51.51 0 0 0-.55.12L62.81 77.61c-.19.19-.2.5-.03.7zm10.38-8.02-1.93.44 2.27-2.24 1.17.73-1.51 1.07zm1.82-1.28-1.22-.77 1.1-1.09.65 1.47-.53.39zm3.8 1.01.38-2.09.89.35-.75 2.03-.52-.29zm.82.45.76-2.07.99.39-1.39 1.88-.36-.2zm.68.37 1.42-1.91 1.5.59-1.08 2.34-1.84-1.02zm3.7 2.02 1.39-2.5.61.24-1.05 2.78-.95-.52zm1.33.74 1.85-2.53 1.16.45-1.21 3.06-1.8-.98zm2.17 1.19 1.79-2.26-1.09 2.64-.7-.38zm2.9-2.46-1.53 2.08.95-2.3.58.22zm-1.06-.42-1.56 1.97.89-2.24.67.27zm-2.48-.97-1.3 1.77.75-1.99.55.22zm-2.89-1.13-1.14 1.34.7-1.52.44.18zm.14 2.16.44-1.93.52.21-.96 1.72zm-.51.68-1.09-.59 1.66-1.95-.57 2.54zm-5.12-2.81-.48-.26-.2-2.19 1.06.41-.38 2.04zm-.84-.46-.52-.29-.7-2.25 1.03.41.19 2.13zm10.95 6 2.14-2.92.4.15-1.94 3.09-.6-.32zm-12.45-6.83a.583.583 0 0 0-.29-.06l-.72-1.6.4-.4.47.18.67 2.17-.53-.29zm-8.16 5.41 2.8-2.77 1.65-.38-4.45 3.15z" fill="#000000" stroke-width="none" opacity="1"></path></g></g></g><g id="svga-group-eyebrows-right-move" transform="matrix(1,0,0,1,0,0)"><g id="svga-group-eyebrows-right-rotate" transform="matrix(1,0,0,1,0,0)"><g id="svga-group-eyebrows-right" transform="matrix(1,0,0,1,0,0)"><path id="SvgjsPath69910" d="m136.69 78.29-11.96-12.35-16.61 6.1 2.44 4.08 13.63-7.08z" fill="#ffffff" stroke-width="none" opacity="1"></path><path id="SvgjsPath69911" d="M137.06 77.93 125.1 65.58a.514.514 0 0 0-.55-.13l-16.61 6.1c-.15.05-.25.17-.31.31-.05.15-.04.31.05.44l2.44 4.08c.08.12.19.2.31.23.12.02.25.02.36-.05l13.34-6.94 12.24 9.07c.21.16.52.13.69-.07.19-.19.18-.5 0-.69zm-11.68-8.65 1.19-.71 2.22 2.29-1.92-.48-1.49-1.1zm-.83-.61.69-1.46 1.08 1.11-1.24.74-.53-.39zm-3.82 1.58-.7-2.04.9-.33.33 2.1-.53.27zm-.68.36-1.34-1.91 1-.37.72 2.08-.38.2zm-2.18 1.13-1.03-2.37 1.51-.56 1.38 1.95-1.86.98zm-2.82 1.47-.99-2.8.61-.23 1.34 2.53-.96.5zm-2.22 1.15-1.15-3.09 1.17-.43 1.8 2.57-1.82.95zm-1.08.56-1.03-2.67 1.74 2.3-.71.37zm-1.57-3.1.9 2.32-1.48-2.11.58-.21zm1.19-.43.84 2.26-1.51-2 .67-.26zm2.36-.87.71 2-1.26-1.8.55-.2zm2.8-1.03.67 1.53-1.11-1.37.44-.16zm-1.55.58.53-.2.39 1.94-.92-1.74zm.9-.12 1.62 1.99-1.1.57-.52-2.56zm5.37-2.19 1.07-.39-.25 2.19-.48.25-.34-2.05zm1.43-.52 1.04-.38-.75 2.23-.53.28.24-2.13zm-11.93 8.2-1.88-3.14.4-.14 2.08 2.97-.6.31zm12.65-6.57.72-2.16.48-.17.39.41-.75 1.58c-.1-.01-.19.01-.29.05l-.55.29zm4.19 2.04 1.64.42 2.74 2.83-4.38-3.25z" fill="#000000" stroke-width="none" opacity="1"></path></g></g></g><g id="svga-group-beardwrap" transform="matrix(1,0,0,1,0,0)"><g id="svga-group-beard-single-move" transform="matrix(1,0,0,1,0,0)"><g id="svga-group-beard-single" transform="matrix(1,0,0,1,0,0)"></g></g></g><g id="svga-group-mustache-single-move" transform="matrix(1,0,0,1,0,0)"><g id="svga-group-mustache-single" transform="matrix(1,0,0,1,0,0)"></g></g><g id="svga-group-nose-single-move" transform="matrix(1,0,0,1,0,0)"><g id="svga-group-nose-single" transform="matrix(1,0,0,1,0,0)"><path id="SvgjsPath70080" d="M108.85 100.61c-.46-3.63-2.9-5.31-4.72-7.83-1.72-2.38-3.75-5.05-6.38-3.11-2.21 1.63-4.16 4.3-5.52 7-1.28 2.54-2.2 6.12.22 8.06.59.47 1.13-.7.54-1.17-2.36-1.9-.06-6.01 1.15-7.91 1.18-1.85 3.19-4.95 5.19-5.34 1.55-.3 2.86 1.81 3.79 3.08.99 1.36 2.01 2.51 3.11 3.71 1.58 1.72 2.82 7.2-.61 6.5-.68-.14-.97 1.17-.29 1.31 2.37.49 3.91-1.25 3.52-4.3z" fill="#000000" stroke-width="none" opacity="1"></path><path id="SvgjsPath70081" d="M96.55 97.54c-1.69-.35-3.36 1.74-3.89 3.58-.13.46.38.78.63.46.52-.66 1.07-1.36 1.68-1.89.57-.5 1.22-.84 1.72-1.45.17-.2.1-.65-.14-.7z" fill="#000000" stroke-width="none" opacity="1"></path><path id="SvgjsPath70082" d="M106.23 102.14c.34-2.28-2.06-5.4-3.9-4.58-.17.08-.27.37-.11.54.6.66 1.36 1.08 1.95 1.75.64.72.91 1.67 1.42 2.49.17.29.59.13.64-.2z" fill="#000000" stroke-width="none" opacity="1"></path></g></g><g id="svga-group-hair-front" transform="matrix(1,0,0,1,0,0)"><path id="SvgjsPath70028" d="M108.4 21.6c-2.1-.4-4.3-.5-6.4-.6 1.5-.3 3.1-1.5 3.2-5.7.1-4.6-2.8-7.2-5.4-7.2s-6 .9-7.4 1.2c-1.4.3-5.4.2-7.3 2.1s-2.1 5-.9 7.9c.9 2.1 2.3 2.9 3.5 3.1-3.9.8-6.8 1.9-8.1 2.6-3.2 1.7-6.3 6-6.3 6s5.9 3.1 10.5 7.4S96.6 44 101.1 43s11.6-5.9 14-9.1 7.7-3.8 7.7-3.8-2.1-6.4-14.4-8.5z" fill="#ffffff" stroke-width="none" opacity="1"></path><path id="SvgjsPath70029" d="M123.8 29.8c-.1-.3-2.4-7-15.2-9.2-1.2-.2-2.4-.4-3.6-.5.8-1.1 1.2-2.7 1.2-4.8.1-2.6-.8-4.8-2.3-6.4a5.54 5.54 0 0 0-4.1-1.8c-2.4 0-5.3.7-7 1.1l-.6.1c-.3.1-.8.1-1.3.2-1.9.2-4.8.5-6.5 2.2-2.2 2.1-2.6 5.6-1.1 9 .4 1 1 1.8 1.6 2.4-2.7.7-4.8 1.5-5.8 2-3.4 1.8-6.5 6.1-6.7 6.3l-.7.9 1 .5c.1 0 5.8 3.1 10.3 7.3 3.7 3.5 9.8 5.2 14.6 5.2 1.3 0 2.4-.1 3.5-.3 4.8-1 12.2-6.2 14.6-9.5 2.1-2.8 7-3.4 7-3.4l1.2-.1-.1-1.2zm-9.5 3.5c-1.2 1.6-3.8 3.8-6.6 5.5 3.7-4 5.9-9.1 6.4-14.7 1.2.5 2.3 1 3.1 1.5-.3 2.4-1 4.6-2.2 6.7-.2.4-.4.7-.7 1zm-1.3-9.6c-.5 7.2-4.1 13.5-9.9 17.6-.2.1-.3.1-.5.2 2.8-6.2 3.2-12.9 1.1-19.5 1.5.1 3.1.3 4.6.5 1.7.4 3.3.8 4.7 1.2zM94.8 42.1c-6.9-3.3-11.8-9.3-13.5-16.8 1-.4 2.4-.9 4-1.3 1.3 7.7 5.7 14.2 12.2 18.3-.8 0-1.7-.1-2.7-.2zm-3.7-24c-.2-.8-.3-1.8-.3-2.7 0-2.2.5-4.4 2.6-5.4.7-.2 1.8-.4 2.9-.6 1.9.5 2.7 4.3 2.6 5.7-.1 2-1.4 3.8-3 4.9l-.1.1c-1.1.1-2.1.2-3.1.3-.8-.5-1.4-1.4-1.6-2.3zm11.2 3.9c2.2 6.6 1.8 13.3-1.1 19.5 1.7-6.6.9-13.4-2.3-19.4h.3c1 0 1.9.1 2.6 0h.2c.1-.1.2-.1.3-.1zm-7 .4.2-.1c.1 0 .2-.1.4-.1.5 0 1.1-.1 1.6-.1 3.3 5.9 4.1 12.5 2.5 19-4.9-5-8-11.1-9.2-18 1.9-.3 4.4-.7 4.5-.7zm-6.8 1.1c.4 0 .7 0 1-.1h.1c1.2 7 4.3 13.2 9.1 18.3-6.5-3.9-10.9-10.3-12.2-17.9.4-.1.8-.2 1.3-.3.2-.1.4 0 .7 0zm15.7-8.3c-.1 3.8-1.4 4.5-2.3 4.7h-.7c2.2-2.3 2.9-5.5 2.1-8.5.6 1.1.9 2.4.9 3.8zm-3.3-5.9c2.6 3.5 1.9 8.1-1.5 10.7-.5 0-1.1 0-1.6.1 1.7-1.7 2.6-4 2.2-6.4-.2-1.4-1-3.3-2.1-4.4.7-.2 1.3-.3 1.9-.3.4 0 .8.1 1.1.3zm-9.8 1.2c-2.1 2.8-2.2 7.8-.2 10.3-.4.1-.7.1-1 .2-1-.7-1.7-2.4-1.9-3.2-.3-.9-.3-1.9-.2-2.9.2-1.6.9-3 2-4.3.5-.1.9-.1 1.3-.1zm-5.9 8.4c-1.1-2.7-.9-5.3.6-6.8.5-.5 1.3-.9 2.2-1.1-1.4 2.2-1.9 4.9-1.1 7.5.3.9.8 2 1.5 2.8-.2 0-.4.1-.7.1-.8-.2-1.8-.8-2.5-2.5zM74.9 30.6c1-1.3 3.2-3.7 5.3-4.8 1.5 6.3 5.2 11.7 10.5 15.3-2.2-.8-4.4-1.9-6.1-3.5-3.6-3.3-7.8-5.9-9.7-7zm42.3.3c.6-1.4 1-2.9 1.2-4.4 1.5 1.1 2.4 2.1 2.9 2.9-1.1.2-2.6.7-4.1 1.5z" fill="#000000" stroke-width="none" opacity="1"></path></g><g id="svga-group-glasses-single-move" transform="matrix(1,0,0,1,0,0)"><g id="svga-group-glasses-single" transform="matrix(1,0,0,1,0,0)"></g></g></g></g></g><rect id="svga-credit-rect" width="200" height="15" x="0" y="185" fill="#ecf0f1" opacity="0.5" style="display: none;"></rect><text id="svga-credit-text" font-family="Avenir Next, Roboto, Helvetica, Arial, sans-serif" font-size="10px" text-anchor="start" font-weight="400" size="10px" anchor="start" weight="400" fill="#333333" x="33.402061462402344" y="182.71133995056152" style="display: none;"><tspan id="SvgjsTspan69436" dy="13" x="33.402061462402344">Created on AvatarMaker.com</tspan></text></g></svg>