<svg xmlns="http://www.w3.org/2000/svg" version="1.1" width="600px" height="600px" viewBox="0 0 200 200" style="overflow:hidden!important;"><defs id="SvgjsDefs50888"></defs><g id="svga-group-wrapper"><g id="svga-group-backs-single"></g><g id="svga-group-humanwrap-move" transform="matrix(1,0,0,1,0,0)"><g id="svga-group-humanwrap" transform="matrix(1,0,0,1,0,0)"><g id="svga-group-hair-back-move" transform="matrix(1,0,0,1,0,0)"><g id="svga-group-hair-back" transform="matrix(1,0,0,1,0,0)"></g></g><g id="svga-group-humanbody-back"><path id="SvgjsPath51298" d="M77.6 118.3c0 19.3 3.4 44.1-10 51.9-13.4 7.9-31.9 11.3-37.8 22s-4.4 25.3-4.4 25.3h149.3s.7-18.9-5.1-26.4c-8.1-10.4-27.8-15.5-37.7-20.9s-13.4-25.1-13.4-52.4l-40.9.5z" fill="#ffffff" stroke-width="none" opacity="1"></path><path id="SvgjsPath51299" d="M175.8 218.7H24.4l-.1-1c-.1-.6-1.5-15.1 4.5-26 4.1-7.4 13.5-11.3 23.5-15.5 5-2.1 10.2-4.3 14.8-6.9 10.6-6.2 10.1-23.9 9.6-41-.1-3.5-.2-6.8-.2-10v-1.1l43.2-.4v1.1c0 29.9 4.2 46.7 12.8 51.4 2.9 1.6 6.7 3.2 10.8 4.9 10 4.1 21.3 8.8 27.2 16.3 6.1 7.7 5.4 26.4 5.4 27.1l-.1 1.1zm-149.3-2.2h147.1c0-4.1-.2-18.5-4.9-24.6-5.5-7-16.6-11.6-26.3-15.6-4.1-1.7-8-3.3-11-5-5.1-2.8-8.7-8.9-10.9-18.7-2-8.4-2.9-19.4-3-33.5l-38.6.4c0 2.8.1 5.7.2 8.8.5 17.8 1 36.1-10.7 43-4.7 2.7-9.9 4.9-15 7.1-9.6 4-18.7 7.8-22.4 14.5-5 8.6-4.7 20.1-4.5 23.6z" fill="#000000" stroke-width="none" opacity="1"></path><path id="SvgjsPath51300" d="M93.9 153.8c-.5 1.8-.4 3.4.5 5.2.8 1.6 2.1 2.7 3.9 2.9.4 0 .7-.5.5-.8-1.6-2.2-3.5-4.2-3.7-7.1 0-.7-1-.9-1.2-.2zm18.6 33.7c8.8.5 18.1-.7 26.6-2.9.7-.2.6-1.4-.2-1.3-8.8 1.1-17.7 2-26.5 3.3-.5.1-.3.9.1.9zm-49.4-5c3.8.9 7.6 1.9 11.5 2.8 3.6.8 7.4 2 11.1 2.1.7 0 .8-.9.2-1.2-3.5-1.4-7.5-1.7-11.2-2.5-3.8-.7-7.5-1.3-11.3-2-.5 0-.7.7-.3.8z" fill="#000000" stroke-width="none" opacity="1"></path></g><g id="svga-group-chinshadow-single"></g><g id="svga-group-humanbody-front"></g><g id="svga-group-clothes-single"><path id="SvgjsPath51440" d="M51.4 218s1-21.2-3-40.2l14.1-6.3s3.3 21.9 15.1 30.3 43.4 7.6 50.9-1.3c7.4-8.9 11.1-27.9 11.1-27.9l15.4 6.3s-2.1 12-2.8 22.9-.2 16.2-.2 16.2H51.4z" fill="#ffffff" stroke-width="none" opacity="1"></path><path id="SvgjsPath51441" d="m155.4 177.9-15.4-6.3c-.3-.1-.6-.1-.9.1-.3.1-.4.4-.5.7 0 .2-3.7 18.8-10.9 27.4-7.2 8.6-38.2 9.3-49.5 1.1-11.3-8.1-14.6-29.4-14.7-29.7 0-.3-.2-.6-.5-.7-.3-.1-.6-.2-.9 0L48 176.8c-.4.2-.7.7-.6 1.1 3.9 18.6 3 39.8 3 40 0 .3.1.5.3.7.2.2.5.3.7.3h6.2c.1.1.2.1.3 0H152c.3 0 .6-.1.7-.3s.3-.5.3-.8c0-.1-.5-5.4.2-16.1.6-10.7 2.8-22.6 2.8-22.8.1-.3-.2-.8-.6-1zm-102.6-1c-1 1.3-2 2.7-2.7 4.1-.2-.9-.3-1.8-.5-2.7l3.2-1.4zm98.4 24.8c-.5 8.2-.4 13.2-.2 15.3H67c.9-1 1.9-2 2.8-3.1.1-.2-.1-.4-.2-.2-1.1 1.1-2.1 2.2-3.2 3.3h-6.5c1-1.1 2-2.3 3-3.5.1-.1-.1-.3-.2-.2-1.2 1.1-2.3 2.4-3.3 3.7h-5.5c2.2-2.6 4.5-5.2 6.5-7.9.1-.2-.2-.4-.3-.2-2.4 2.6-4.7 5.4-6.9 8.1h-.6c.1-2.1.2-7.3-.1-13.9 3-3.9 6.1-7.7 8.9-11.7.1-.1-.1-.3-.2-.2-3 3.6-5.9 7.5-8.7 11.3-.1-1.6-.2-3.3-.3-5.1 3.6-4.7 7.1-9.6 10-14.8.1-.1-.1-.2-.2-.1-3.2 4.8-6.4 9.6-9.8 14.3-.1-1.3-.2-2.7-.3-4 2.6-4.3 5.4-8.4 8.5-12.4.1-.2-.1-.4-.3-.2-3.2 3.6-5.9 7.7-8.2 11.9l-.6-5.1c.1 0 .2.1.2 0 .2-.2.4-.5.6-.7.1-.1 0-.3-.2-.2 1.3-.9 2.5-3.7 3.5-5.2 1.4-2 2.8-3.9 4.2-5.8.2-.2-.2-.4-.3-.2-2.9 3.8-5.7 7.6-8.2 11.7-.2-1.4-.4-2.9-.7-4.4 1.2-2 2.3-3.9 3.7-5.8l7.8-3.5c.9 4.9 4.8 22.2 15.2 29.7 12.2 8.8 44.4 7.9 52.2-1.5 6.5-7.8 10.1-22.8 11.1-27.1l13.6 5.6c-.6 2.8-2.3 12.9-2.8 22.1zM58 202.8c-1.9 2-3.6 4.2-5.4 6.4-.2.2.1.5.3.3 1.8-2.1 3.7-4.2 5.3-6.5.1-.2-.1-.3-.2-.2z" fill="#000000" stroke-width="none" opacity="1"></path></g><g id="svga-group-head" transform="matrix(1,0,0,1,0,0)"><g id="svga-group-ears-left-move" transform="matrix(1,0,0,1,0,0)"><g id="svga-group-ears-left" transform="matrix(1,0,0,1,0,0)"><path id="SvgjsPath51450" d="M61.8 82.4s-3.6-5.4-5.6-7.8-4.7-5-6.3-1.1c-1.6 3.9-2.5 11.6-1.6 16.9s6.8 11 9.6 11.2c2.8.2 5.7-7.6 5.9-10.3.3-2.8-.6-6.9-2-8.9z" fill="#ffffff" stroke-width="none" opacity="1"></path><path id="SvgjsPath51451" d="M47.2 90.4c-1-5.5.1-13.3 1.6-17.2.2-.6 1-2.4 2.9-2.6 2.1-.2 3.9 1.6 5.5 3.5 2.1 2.4 5.5 7.7 5.7 7.9 1.4 2.1 2.4 6.4 2.1 9.3-.2 2.4-2.4 8.8-5.2 10.6-.6.4-1.3.6-2 .5-3.6-.3-9.7-6.4-10.6-12zm8-15.4c-2.3-2.7-3.1-2.7-3.2-2.7-.1 0-.5.3-1 1.4-1.5 3.7-2.5 11.3-1.6 16.5.9 5.3 6.7 10.3 8.5 10.5 1.4-.2 4.4-6.1 4.7-9.5.2-2.6-.7-6.6-1.9-8.5 0 0-3.5-5.4-5.5-7.7z" fill="#000000" stroke-width="none" opacity="1"></path><path id="SvgjsPath51452" d="M52.9 78c2 1.3 3.6 3.5 4.3 6 0 .2-.2.2-.2.1 0 0 0-.1-.1-.1-.6-.5-1.2-1.1-1.9-1.1-1.1 0-1.1 1.4-.8 2.5.4 1.5 1.1 2.9 1.9 4.2.1.2-.1.3-.2.2-1.2-1.5-3-4.6-2.4-6.6.5-1.7 2-.9 3.1.1-.6-1.3-1.4-2.5-2.4-3.5-1.3-1.3-4.1-3.4-4.9-.9 0 .1-.2.1-.2-.1.1-2.5 2.6-1.7 3.8-.8z" fill="#000000" stroke-width="none" opacity="1"></path><path id="SvgjsPath51453" d="M56.7 92.6c1 2.5-1.2 3-2.5 1.9-2.1-1.7-3.5-5.5-3.5-8.4 0-.2.2-.2.2 0 .2 1.7.5 3.3 1.2 4.8.4.9 1 1.9 1.6 2.7.4.5.9.9 1.5 1.1 1.2 0 1.6-.7 1.3-2 0-.1.1-.2.2-.1z" fill="#000000" stroke-width="none" opacity="1"></path></g></g><g id="svga-group-ears-right-move" transform="matrix(1,0,0,1,0,0)"><g id="svga-group-ears-right" transform="matrix(1,0,0,1,0,0)"><path id="SvgjsPath51454" d="M138.2 82.4s3.6-5.4 5.6-7.8 4.7-5 6.3-1.1c1.6 3.9 2.5 11.6 1.6 16.9-.9 5.3-6.8 11-9.6 11.2-2.8.2-5.7-7.6-5.9-10.3-.3-2.8.6-6.9 2-8.9z" fill="#ffffff" stroke-width="none" opacity="1"></path><path id="SvgjsPath51455" d="M142.2 102.4c-.7 0-1.4-.1-2-.5-2.8-1.7-5-8.2-5.2-10.6-.3-2.9.7-7.1 2.1-9.3.1-.2 3.6-5.5 5.7-7.9 1.6-1.9 3.4-3.7 5.5-3.5 2 .2 2.7 2 2.9 2.6 1.6 3.9 2.6 11.8 1.6 17.2-.9 5.6-7 11.7-10.6 12zm-3-19.7c-1.2 1.9-2.1 5.8-1.9 8.5.3 3.4 3.2 9.4 4.7 9.5 1.9-.1 7.6-5.2 8.5-10.5.9-5.3-.1-12.8-1.6-16.5-.4-1.1-.9-1.4-1-1.4-.1 0-.9 0-3.2 2.7-1.9 2.3-5.4 7.7-5.5 7.7z" fill="#000000" stroke-width="none" opacity="1"></path><path id="SvgjsPath51456" d="M147.1 78c-2 1.3-3.6 3.5-4.3 6 0 .2.2.2.2.1 0 0 0-.1.1-.1.6-.5 1.2-1.1 1.9-1.1 1.1 0 1.1 1.4.8 2.5-.4 1.5-1.1 2.9-1.9 4.2-.1.2.1.3.2.2 1.2-1.5 3-4.6 2.4-6.6-.5-1.7-2-.9-3.1.1.6-1.3 1.4-2.5 2.4-3.5 1.3-1.3 4.1-3.4 4.9-.9 0 .1.2.1.2-.1-.1-2.5-2.6-1.7-3.8-.8z" fill="#000000" stroke-width="none" opacity="1"></path><path id="SvgjsPath51457" d="M143.3 92.6c-1 2.5 1.2 3 2.5 1.9 2.1-1.7 3.5-5.5 3.5-8.4 0-.2-.2-.2-.2 0-.2 1.7-.5 3.3-1.2 4.8-.4.9-1 1.9-1.6 2.7-.4.5-.9.9-1.5 1.1-1.2 0-1.6-.7-1.3-2 0-.1-.1-.2-.2-.1z" fill="#000000" stroke-width="none" opacity="1"></path></g></g><g id="svga-group-faceshape-wrap" transform="matrix(1,0,0,1,0,0)"><g id="svga-group-faceshape-single"><path id="SvgjsPath51530" d="M142.4 52.9c-2.3-11.1-15.1-28.1-42.4-28.1S63.6 37.9 59.5 47.5c-2.5 6.1-3.2 14.8-3.4 19.2 0 0 1.6 42.2 3.1 46 3 7.9 7.7 8.4 13.6 14.5 6.6 6.7 9.7 17 15.3 17 8.8-1.5 10.7-1.6 20 0 7.6 1.2 10.8-8.8 14.6-13.7 5.3-7 13.1-8.9 17.3-16.7 2.9-4.1 3.7-47.1 3.7-47.1.1-3-.2-8.6-1.3-13.8z" fill="#ffffff" stroke-width="none" opacity="1"></path><path id="SvgjsPath51531" d="M109.1 145.6c-.4 0-.7 0-1.1-.1-9-1.6-10.8-1.6-19.6 0-1.9.3-5.2-1-8.1-5.7-2.2-3.7-5-8.3-8.2-11.5-2.6-2.7-5.7-4.9-8.4-6.8-3.5-2.4-4.5-5.7-5.5-8.1-1.7-3.9-3-42.1-3.2-46.4.2-4.7.9-13.5 3.4-19.6C65 31.5 78.5 23.9 99.9 23.9c12.3 0 23.2 3.5 31.3 10.2 6.3 5.1 10.9 12.2 12.2 18.8 1.1 5.4 1.3 11.1 1.4 14.1-.1 4.4-.9 43.5-3.9 47.7-1.4 1.9-3.1 4.6-6.2 7-3.9 2.8-8.3 6-11.1 9.8-.9 1.3-1.9 2.9-2.9 4.7-2.6 4.7-6.8 9.4-11.6 9.4zM98 142.2c2.8 0 5.7.4 10.3 1.2 3.9.7 7.8-3.8 10.4-8.4 1-1.9 2-3.5 3-4.9 3.1-4.1 7.6-7.4 11.6-10.3 3-2.2 4.2-3.7 5.8-6.5 2-2.8 3.2-30 3.5-46.5 0-2.9-.3-8.5-1.4-13.7-1.3-6.2-5.6-12.8-11.5-17.6-7.7-6.4-18-9.7-29.9-9.7-20.3.2-33.2 7.4-39.4 22.2-2.4 5.8-3.1 14.3-3.3 18.9.6 16.9 1.9 43 3 45.6.6 2.3 1.7 4.9 4.7 7.2 2.8 1.9 5.9 4.2 8.7 7 3.4 3.4 6.2 8.2 8.5 11.9 2.7 4.4 4.3 4.8 5.9 4.6 4.6-.6 7.4-1 10.1-1z" fill="#000000" stroke-width="none" opacity="1"></path></g></g><g id="svga-group-mouth-single-move" transform="matrix(1,0,0,1,0,0)"><g id="svga-group-mouth-single" transform="matrix(1,0,0,1,0,0)"><path id="SvgjsPath51396" d="M103.79 115.87c.23-.29-.27-.58-.5-.29-1.55 2.01-4.31 2.08-6.01.24-.25-.27-.66.14-.41.41 1.98 2.14 5.16 1.93 6.92-.36z" fill="#000000" stroke-width="none" opacity="1"></path><path id="SvgjsPath51397" d="m111.32 122.04-4.72 3.94c-2.01 1.68-3.84 3.82-6.79 2.9-3.8-1.19-7.32-4.47-9.95-7.31-.25-.27-.66.14-.41.41 1.67 1.8 3.48 3.44 5.49 4.84 1.71 1.19 3.94 2.78 6.1 2.94 1.45.11 2.58-.6 3.68-1.47 2.38-1.89 4.67-3.89 7-5.84.3-.24-.11-.65-.4-.41z" fill="#000000" stroke-width="none" opacity="1"></path><path id="SvgjsPath51398" d="M112.66 118.37c-2.3.72-4.6 1.45-6.89 2.17-2.52.79-4.76 1.78-7.38.82-3.67-1.34-7.32-2.65-11.2-3.25-.73-.11-1.04 1-.31 1.11 2.14.33 4.24.87 6.31 1.51 2.07.64 4.09 1.69 6.2 2.15 1.88.41 3.61-.26 5.39-.82l8.19-2.58c.7-.23.4-1.34-.31-1.11z" fill="#000000" stroke-width="none" opacity="1"></path></g></g><g id="svga-group-eyes-left-move" transform="matrix(1,0,0,1,0,0)"><g id="svga-group-eyes-left" transform="matrix(1,0,0,1,0,0)"><g id="svga-group-eyesback-left"></g><g id="svga-group-eyesiriswrapper-left"><g id="svga-group-eyesiriscontrol-left" transform="matrix(1,0,0,1,0,0)"><g id="svga-group-eyesiris-left" transform="matrix(1,0,0,1,0,0)"><path id="SvgjsPath51570" d="M83.4 85c-1.1-2.1-3.5-2.9-5.7-2.2-2.4.8-4.2 3.3-3.3 5.9.5 1.4 1.6 2.6 3.1 2.9.5.1 1 .1 1.6.1.6.1 1.2 0 1.8-.2 2.5-.9 3.8-4 2.5-6.5z" fill="#ffffff" stroke-width="none" opacity="1"></path><path id="SvgjsPath51571" d="M79.4 92.1H79c-.5 0-1.1 0-1.6-.1-1.5-.3-2.8-1.6-3.3-3.2-.9-2.8 1.1-5.4 3.5-6.3 2.4-.8 5 .1 6.1 2.3.7 1.3.7 2.8.2 4.1-.5 1.3-1.6 2.4-2.9 2.8-.6.3-1.1.4-1.6.4zm-.4-.7c.6.1 1.2 0 1.7-.2 1.2-.4 2.1-1.3 2.6-2.5s.4-2.5-.2-3.6c-1-1.9-3.2-2.7-5.3-2-2.2.8-4 3.1-3.1 5.5.5 1.4 1.6 2.5 2.8 2.7.4.1.9.2 1.5.1zm2.6-5.3c0-.1 0-.1-.1-.2-.6-1.2-2.2-1.7-3.4-1.1.3.2.5.6.6.8.2.4.6 1.1.1 1.3-.4.2-1.1 0-1.4-.2-.2-.1-.4-.3-.5-.5 0 .1-.1.1-.1.2-.1.2-.1.5-.1.7-.2.7 0 1.5.6 2.1.3.2.6.4.9.4.6.3 1.3.4 2 .1-.1-.1-.2-.3-.2-.4 0-.3.2-.6.5-.7.3-.1.6 0 .8.2.3-.3.5-.8.6-1.2.1-.5 0-1-.3-1.5zm-5.2 1.3c-.5-.1-.9-.1-1.4-.2-.1 0-.1.1 0 .1.4.1 1 .3 1.4.3 0-.1.1-.2 0-.2zm-.1.9c-.2 0-.4.1-.7.1-.2.1-.5.1-.8.1-.1 0-.1.1 0 .1.5 0 1.1 0 1.5-.3.1 0 .1 0 0 0zm.4.9c-.2.1-.4.3-.6.4-.2.1-.4.2-.6.4-.1.1 0 .2.1.1.4-.3.9-.5 1.1-.9.1 0 .1-.1 0 0zm1 .7c-.3.3-.5.7-.7 1-.1.1.1.2.1.1.2-.3.5-.7.7-1 0-.1-.1-.2-.1-.1zm.9.4c-.1.4-.2.8-.2 1.2 0 .1.1.1.2 0 0-.4.1-.8.2-1.2-.1-.1-.2-.1-.2 0zm1.6.5c-.1-.2-.1-.3-.2-.5 0 0-.1 0-.1.1 0 .2.1.3.2.5s.1.4.2.6c0 .1.1.1.1 0-.1-.3-.2-.5-.2-.7zm1.3-.2-.3-.3c-.1-.1-.2-.2-.3-.4-.1-.1-.1 0-.1.1.1.1.2.3.3.4 0 .1.2.2.4.2 0 .1 0 0 0 0zm1-.8c-.1-.1-.3-.2-.5-.3l-.6-.3c-.1 0-.2.1-.1.1.2.1.4.3.6.4.2.1.4.2.6.2 0 0 .1 0 0-.1zm.6-1.4c-.2-.1-.3-.1-.5-.1s-.4-.1-.5-.2c-.1 0-.1.1-.1.1.3.1.7.3 1.1.3v-.1zm.2-1.9c-.4.1-.8.3-1.1.5-.1.1 0 .2.1.1.2-.1.4-.2.6-.2.2-.1.4-.1.6-.2 0-.1-.1-.3-.2-.2zm-.9-2.2-.1-.1s-.1 0-.1.1c0 0-.4.5-.5.5-.2.2-.3.4-.4.6-.1.1.1.1.1.1.3-.4.6-.7.9-1 .2-.1.2-.1.1-.2zm-2.1-.8c-.1.2-.1.4-.2.5-.1.2-.1.4-.2.6 0 .1.1.1.1 0 .1-.2.2-.4.2-.6.1-.2.2-.4.2-.6.1.1 0 0-.1.1zm-1.4.8c-.1-.2-.1-.3-.2-.5s-.1-.3-.2-.5c0-.1-.1-.1-.1 0-.1.3.2.8.3 1.1.1.1.3 0 .2-.1zm-1.3 0c-.1-.2-.2-.3-.3-.5 0-.1-.1 0-.1.1.1.2.2.4.2.6.1.2.2.4.3.4.1 0 .1 0 .1-.1 0-.2-.1-.4-.2-.5zm-.7 1-.3-.3c-.1-.1-.3-.2-.4-.3-.1-.1-.2 0-.1.1s.2.3.4.4c.1.1.2.2.4.3 0 0 .1-.1 0-.2zm-.8.9c-.3-.2-.7-.2-1-.3-.1 0-.1.1 0 .1.3.1.6.3.9.4.1-.1.1-.2.1-.2z" fill="#000000" stroke-width="none" opacity="1"></path></g></g></g><g id="svga-group-eyesfront-left"><path id="SvgjsPath51494" d="M79 72.1c-8.2 0-14.8 6.6-14.8 14.8s6.6 14.8 14.8 14.8 14.8-6.6 14.8-14.8c0-8.1-6.6-14.8-14.8-14.8zm5.5 21.2c-1.6 1.1-5.4 2.3-8.1 2s-6.1-3.5-6.7-4.5-.4-2.2-.4-2.2 2.1-4 5.2-5 5.8-1.5 8.2-.6c2.4.9 5.5 5.8 5.5 5.8s-2.1 3.5-3.7 4.5z" fill="#ffffff" stroke-width="none" opacity="1"></path><path id="SvgjsPath51495" d="M77.1 80.1c0 .2.3.2.4.1.1-.2.2-.5.2-.8.3-.1.7-.1 1-.1v.2c0 .2.3.2.4 0v-.2c1 0 1.9.2 2.7.6 3.3 1.9 5.7 5.8 5.9 6.3.1.2.3.4.5.4h.2s.1 0 .1-.1c0 0 .1 0 .1-.1.6-.4 1.2-.9 1.6-1.5.1-.1-.1-.3-.2-.3-.5.1-1 .5-1.4.8 0-.1-.1-.1-.1-.2.4-.3.8-.6 1.1-1.1.1-.1-.1-.3-.2-.2-.4.2-.8.6-1.1.8-.1-.2-.2-.3-.3-.5.4-.3.9-.5 1.2-.9.1-.1 0-.3-.2-.2-.5.2-.9.5-1.3.8-.1-.2-.3-.4-.5-.6.2-.1.3-.2.5-.3.2-.1.1-.5-.1-.4-.3 0-.5.1-.7.3-.1-.1-.2-.3-.4-.4.3-.2.6-.4.8-.7.1-.2-.1-.4-.3-.3-.3.2-.6.4-.8.6l-.3-.3c.2-.2.4-.4.5-.6.1-.2-.1-.5-.4-.4-.2.1-.4.3-.6.5l-.3-.3.3-.3c.1-.2-.1-.4-.3-.3-.2.1-.3.1-.4.2l-.3-.3c.1-.1.2-.2.2-.3.1-.1-.1-.3-.2-.3-.2.1-.3.1-.4.2-.4-.3-.9-.7-1.4-1-1.6-.9-3.8-1.1-5.9-.4-3.1 1-5.7 3.5-7.2 6.9-.1.2 0 .5.2.7-.2.6-.4 1.3-.3 1.9-1.3 2.1-1.8 3.8-1.9 3.9-.1.3.1.6.4.7h.2c.2 0 .4-.2.5-.4 0 0 .2-.7.7-1.7 2.7 4.3 6.2 5.5 9.2 5.5 1.4 0 2.7-.3 3.7-.6 3.2-.9 5.8-4.7 6.4-5.5.5 1 .5 1.5.6 1.5 0 .3.3.5.6.5s.5-.3.5-.6c0-.1-.4-2.9-4.6-7.1-1.6-1.6-3.7-2.4-6.2-2.3-3.1.1-6.5 1.7-8.3 3.7-.4.4-.7.9-1 1.3.1-.3.1-.6.2-.8.1-.1.2-.1.3-.3.2-.4.4-.9.6-1.3 0 .3.3.4.5.1.3-.4.4-1 .4-1.5.2-.3.5-.6.8-.9v.3c-.1.3-.2.7-.1 1 0 .2.4.4.5.1.3-.6.2-1.3.2-1.9.1-.1.3-.2.4-.3v1.4c0 .2.3.1.3 0 .2-.6.3-1.3.3-1.9.2-.2.4-.3.7-.4-.1.5-.2.9 0 1.4.1.2.4.3.5 0 .2-.6.1-1.2.2-1.7.2-.1.3-.2.5-.2-.2.5-.3 1.1-.2 1.6.1.2.4.2.4 0 .2-.6.2-1.2.3-1.8.1 0 .1-.1.2-.1s.2 0 .2-.1c-.3.1-.4.3-.3.5zm-5.3 6.3c1.3-1.6 4.3-3.2 7.5-3.3 1.5-.1 3.7.2 5.4 1.9 1.6 1.6 2.6 2.9 3.2 3.9-.1 0-.2.1-.3.2 0 0-2.8 4.3-5.9 5.2-3.4 1-8.3 1-11.7-4.5-.1-.2-.2-.2-.4-.2.5-1 1.2-2.1 2.2-3.2z" fill="#000000" stroke-width="none" opacity="1"></path></g></g></g><g id="svga-group-eyes-right-move" transform="matrix(1,0,0,1,0,0)"><g id="svga-group-eyes-right" transform="matrix(1,0,0,1,0,0)"><g id="svga-group-eyesback-right"></g><g id="svga-group-eyesiriswrapper-right"><g id="svga-group-eyesiriscontrol-right" transform="matrix(1,0,0,1,0,0)"><g id="svga-group-eyesiris-right" transform="matrix(1,0,0,1,0,0)"><path id="SvgjsPath51572" d="M125.4 85c-1.1-2.1-3.5-2.9-5.7-2.2-2.4.8-4.2 3.3-3.3 5.9.5 1.4 1.6 2.6 3.1 2.9.5.1 1 .1 1.6.1.6.1 1.2 0 1.8-.2 2.6-.9 3.8-4 2.5-6.5z" fill="#ffffff" stroke-width="none" opacity="1"></path><path id="SvgjsPath51573" d="M121.4 92.1h-.4c-.5 0-1.1 0-1.6-.1-1.5-.3-2.8-1.6-3.3-3.2-.9-2.8 1.1-5.4 3.5-6.3 2.4-.8 5 .1 6.1 2.3.7 1.3.7 2.8.2 4.1-.5 1.3-1.6 2.4-2.9 2.8-.6.3-1.1.4-1.6.4zm-.4-.7c.6.1 1.2 0 1.7-.2 1.2-.4 2.1-1.3 2.6-2.5s.4-2.5-.2-3.6c-1-1.9-3.2-2.7-5.3-2-2.2.8-4 3.1-3.1 5.5.5 1.4 1.6 2.5 2.8 2.7.5.1 1 .2 1.5.1zm2.6-5.3c0-.1 0-.1-.1-.2-.6-1.2-2.2-1.7-3.4-1.1.3.2.5.6.6.8.2.4.6 1.1.1 1.3-.4.2-1.1 0-1.4-.2-.2-.1-.4-.3-.5-.5 0 .1-.1.1-.1.2-.1.2-.1.5-.1.7-.2.7 0 1.5.6 2.1.3.2.6.4.9.4.6.3 1.3.4 2 .1-.1-.1-.2-.3-.2-.4 0-.3.2-.6.5-.7.3-.1.6 0 .8.2.3-.3.5-.8.6-1.2.1-.5 0-1-.3-1.5zm-5.2 1.3c-.5-.1-.9-.1-1.4-.2-.1 0-.1.1 0 .1.4.1 1 .3 1.4.3.1-.1.1-.2 0-.2zm-.1.9c-.2 0-.4.1-.7.1-.2.1-.5.1-.8.1-.1 0-.1.1 0 .1.6 0 1.2 0 1.5-.3.1 0 .1 0 0 0zm.5.9c-.2.1-.4.3-.6.4-.2.1-.4.2-.6.4-.1.1 0 .2.1.1.4-.3.9-.5 1.1-.9.1 0 0-.1 0 0zm.9.7c-.3.3-.5.7-.7 1-.1.1.1.2.1.1.2-.3.5-.7.7-1 0-.1-.1-.2-.1-.1zm.9.4c-.1.4-.2.8-.2 1.2 0 .1.1.1.2 0 0-.4.1-.8.2-1.2 0-.1-.2-.1-.2 0zm1.6.5c-.1-.2-.1-.3-.2-.5 0 0-.1 0-.1.1 0 .2.1.3.2.5s.1.4.2.6c0 .1.1.1.1 0-.1-.3-.2-.5-.2-.7zm1.3-.2-.3-.3c-.1-.1-.2-.2-.3-.4-.1-.1-.1 0-.1.1.1.1.2.3.3.4.1.1.2.2.4.2 0 .1.1 0 0 0zm1.1-.8c-.1-.1-.3-.2-.5-.3l-.6-.3c-.1 0-.2.1-.1.1.2.1.4.3.6.4.2.1.4.2.6.2v-.1zm.5-1.4c-.2-.1-.3-.1-.5-.1s-.4-.1-.5-.2c-.1 0-.1.1-.1.1.3.1.7.3 1.1.3.1 0 .1-.1 0-.1zm.2-1.9c-.4.1-.8.3-1.1.5-.1.1 0 .2.1.1.2-.1.4-.2.6-.2.2-.1.4-.1.6-.2 0-.1-.1-.3-.2-.2zm-.8-2.2-.1-.1s-.1 0-.1.1c0 0-.4.5-.5.5-.2.2-.3.4-.4.6-.1.1.1.1.1.1.3-.4.6-.7.9-1 .1-.1.1-.1.1-.2zm-2.1-.8c-.1.2-.1.4-.2.5-.1.2-.1.4-.2.6 0 .1.1.1.1 0 .1-.2.2-.4.2-.6.1-.2.2-.4.2-.6 0 .1-.1 0-.1.1zm-1.4.8c-.1-.2-.1-.3-.2-.5s-.1-.3-.2-.5c0-.1-.1-.1-.1 0-.1.3.2.8.3 1.1.1.1.2 0 .2-.1zm-1.4 0c-.1-.2-.2-.3-.3-.5 0-.1-.1 0-.1.1.1.2.2.4.2.6.1.2.2.4.3.4.1 0 .1 0 .1-.1.1-.2-.1-.4-.2-.5zm-.6 1-.3-.3c-.1-.1-.3-.2-.4-.3-.1-.1-.2 0-.1.1s.2.3.4.4c.1.1.2.2.4.3v-.2zm-.9.9c-.3-.2-.7-.2-1-.3-.1 0-.1.1 0 .1.3.1.6.3.9.4.1-.1.2-.2.1-.2z" fill="#000000" stroke-width="none" opacity="1"></path></g></g></g><g id="svga-group-eyesfront-right"><path id="SvgjsPath51496" d="M121 72.1c-8.2 0-14.8 6.6-14.8 14.8s6.6 14.8 14.8 14.8 14.8-6.6 14.8-14.8c0-8.1-6.6-14.8-14.8-14.8zm9.1 18.7c-.6 1-3.9 4.2-6.7 4.5s-6.6-.9-8.1-2-3.7-4.5-3.7-4.5 3.1-4.9 5.5-5.8 5.1-.5 8.2.6c3.1 1 5.2 5 5.2 5s.2 1.2-.4 2.2z" fill="#ffffff" stroke-width="none" opacity="1"></path><path id="SvgjsPath51499" d="M132.5 91.9c0-.1-1-3.2-3.6-6.2-1.8-2.1-5.2-3.6-8.3-3.7-2.5-.1-4.6.7-6.2 2.3-4.1 4.1-4.5 6.9-4.6 7.1 0 .3.2.6.5.6s.6-.2.6-.5c0 0 .1-.6.6-1.5.6.9 3.2 4.6 6.4 5.5 1 .3 2.3.6 3.7.6 3 0 6.5-1.1 9.2-5.5.5 1 .7 1.7.7 1.7.1.2.3.4.5.4h.2c.2-.2.4-.5.3-.8zm-2.6-2.1c-3.4 5.6-8.2 5.5-11.7 4.5-3.2-.9-5.9-5.2-5.9-5.2-.1-.1-.2-.2-.3-.2.6-1.1 1.6-2.4 3.2-3.9 1.7-1.7 3.9-2 5.4-1.9 3.2.1 6.2 1.8 7.5 3.3 1 1.1 1.7 2.3 2.2 3.2-.1 0-.3.1-.4.2zm-18.5-3.2h.2c.2 0 .4-.1.5-.4.1-.1.2-.4.4-.8v.3c0 .1.2.1.3 0 .1-.3.1-.6.1-.9.2-.3.5-.7.8-1.1 0 .2.1.4.2.5.1.2.4.1.4-.1 0-.4-.1-.7 0-1.1.4-.5.9-1 1.4-1.4-.1.3-.1.7 0 1.1.1.2.3.2.3-.1 0-.5 0-.9.2-1.4v-.1c.2-.1.3-.3.5-.4 0 .3-.1.6 0 .9 0 .2.3.1.3-.1v-1.1c.3-.2.5-.4.8-.5-.1.7-.2 1.4-.1 2 0 .2.3.2.3 0 .2-.7.1-1.5.2-2.2.4-.2.8-.3 1.3-.3-.2.7-.2 1.4 0 2.1.1.1.3.2.3 0 .1-.7.1-1.4.1-2.1h.8c0 .3 0 .5.1.8.1.2.3.1.3 0 .1-.2.1-.5.1-.7.4.1.9.2 1.4.3 2.8.9 5.2 3.2 6.5 6.3.1.3.4.4.7.3.3-.1.4-.4.3-.7-1.5-3.3-4.1-5.8-7.2-6.9-2.1-.7-4.3-.6-5.9.4-3.7 2.1-6.2 6.6-6.3 6.9.3 0 .5.3.7.5z" fill="#000000" stroke-width="none" opacity="1"></path></g></g></g><g id="svga-group-facehighlight-single"></g><g id="svga-group-eyebrows-left-move" transform="matrix(1,0,0,1,0,0)"><g id="svga-group-eyebrows-left-rotate" transform="matrix(1,0,0,1,0,0)"><g id="svga-group-eyebrows-left" transform="matrix(1,0,0,1,0,0)"><path id="SvgjsPath51418" d="M71.56 71.57c4.09-.17 10.75 3.28 13.7 4.98 2.94 1.7 6.34 1.7 5.89-1.02s-11.66-6.91-15.17-7.47c-3.51-.57-6.79 1.13-12.23 6.79 0 0 5.09-3.17 7.81-3.28z" fill="#ffffff" stroke-width="none" opacity="1"></path><path id="SvgjsPath51419" d="M63.35 75.18c.16.2.45.25.67.11.05-.03 5.01-3.1 7.56-3.21 3.37-.13 9.14 2.45 13.42 4.92 1.41.81 2.85 1.24 4.03 1.24.72 0 1.34-.16 1.8-.48.69-.48.98-1.3.82-2.31-.53-3.17-12.15-7.34-15.59-7.89-3.79-.61-7.23 1.27-12.68 6.94-.18.19-.19.48-.03.68zm7.74-4.08c-.56.02-1.8.07-2.68.11.59-.47 1.16-.88 1.7-1.22l2.22 1.08c-.27-.02-.54-.02-.8-.01-.13.01-.28.02-.44.04zm3.44.3a.24.24 0 0 0-.08-.06l-3.62-1.76c.47-.26.93-.46 1.38-.63l3.17 2.66c-.28-.08-.57-.14-.85-.21zm2.55.75-4.11-3.45c.58-.15 1.15-.22 1.72-.23l4.06 4.3c-.55-.21-1.11-.42-1.67-.62zm.16-3.29c0 .01 0 .01.01.02 1.26 1.57 2.93 3.66 4 5-.3-.14-.61-.28-.92-.42l-4.61-4.89c.06.01.12.01.18.01.38.05.84.15 1.34.28zm5.43 5.71c-.69-.88-3.1-3.88-4.32-5.41.62.18 1.28.4 1.96.64l3.66 5.45c-.39-.21-.83-.44-1.3-.68zm2.61 1.41L81.4 70.2c.57.21 1.15.44 1.73.68.01.01 0 .03.01.04l3.36 5.68c-.33-.14-.66-.3-.99-.49-.07-.04-.15-.09-.23-.13zm2.23.98-3.34-5.64c.63.28 1.25.56 1.83.85v.01l2.49 4.99c-.3-.05-.63-.11-.98-.21zm1.77.23-2.25-4.5c.62.33 1.19.66 1.69.98l1.05 3.45c-.16.04-.32.06-.49.07zm1.1-.38-.75-2.47c.58.47.94.91 1.01 1.28.11.69-.09 1.03-.26 1.19zm-23.63-4.18c.27-.25.53-.47.79-.69.22-.01.52-.02.84-.04-.56.22-1.11.47-1.63.73z" fill="#000000" stroke-width="none" opacity="1"></path></g></g></g><g id="svga-group-eyebrows-right-move" transform="matrix(1,0,0,1,0,0)"><g id="svga-group-eyebrows-right-rotate" transform="matrix(1,0,0,1,0,0)"><g id="svga-group-eyebrows-right" transform="matrix(1,0,0,1,0,0)"><path id="SvgjsPath51420" d="M128.44 71.57c-4.09-.17-10.75 3.28-13.7 4.98-2.94 1.7-6.34 1.7-5.89-1.02s11.66-6.91 15.17-7.47c3.51-.57 6.79 1.13 12.23 6.79 0 0-5.09-3.17-7.81-3.28z" fill="#ffffff" stroke-width="none" opacity="1"></path><path id="SvgjsPath51421" d="M136.62 74.5c-5.45-5.67-8.88-7.55-12.68-6.94-3.44.55-15.06 4.72-15.59 7.89-.17 1.01.12 1.83.82 2.31.46.32 1.08.48 1.8.48 1.18 0 2.62-.43 4.03-1.24 4.28-2.47 10.05-5.05 13.42-4.91 2.55.11 7.51 3.17 7.56 3.21.22.14.51.09.67-.11a.53.53 0 0 0-.03-.69zm-8.16-3.44c-.26-.01-.52 0-.8.01l2.22-1.08c.54.34 1.11.76 1.7 1.22-.88-.04-2.12-.09-2.68-.11-.15-.02-.3-.03-.44-.04zm-3.84.55 3.17-2.66c.45.16.91.37 1.38.63l-3.62 1.76c-.03.02-.06.04-.08.06-.28.07-.57.13-.85.21zm-3.37 1.17 4.06-4.3c.57 0 1.14.08 1.72.23l-4.11 3.45c-.56.19-1.12.4-1.67.62zm2.86-4.21c.06-.01.12-.01.18-.01l-4.61 4.89c-.31.14-.62.28-.92.42 1.07-1.34 2.74-3.43 4-5 0-.01 0-.01.01-.02.49-.12.95-.22 1.34-.28zm-8.08 6.68 3.66-5.45c.69-.24 1.35-.45 1.96-.64-1.22 1.52-3.63 4.53-4.32 5.41-.47.24-.91.47-1.3.68zm-1.54.86c-.33.19-.66.34-.99.49l3.36-5.68c.01-.01 0-.02.01-.04.58-.24 1.16-.47 1.73-.68l-3.88 5.78c-.08.04-.16.09-.23.13zm-2.99 1.05 2.49-4.99v-.01c.59-.29 1.2-.57 1.83-.85l-3.34 5.64c-.34.11-.67.17-.98.21zm-1.26-.04 1.05-3.45c.49-.32 1.07-.65 1.69-.98l-2.25 4.5c-.18-.01-.34-.03-.49-.07zm-.88-1.5c.06-.38.43-.81 1.01-1.28l-.75 2.47c-.17-.16-.37-.5-.26-1.19zm22.26-3.72c.33.01.62.03.84.04.26.22.52.44.79.69-.52-.26-1.07-.51-1.63-.73z" fill="#000000" stroke-width="none" opacity="1"></path></g></g></g><g id="svga-group-beardwrap" transform="matrix(1,0,0,1,0,0)"><g id="svga-group-beard-single-move" transform="matrix(1,0,0,1,0,0)"><g id="svga-group-beard-single" transform="matrix(1,0,0,1,0,0)"></g></g></g><g id="svga-group-mustache-single-move" transform="matrix(1,0,0,1,0,0)"><g id="svga-group-mustache-single" transform="matrix(1,0,0,1,0,0)"></g></g><g id="svga-group-nose-single-move" transform="matrix(1,0,0,1,0,0)"><g id="svga-group-nose-single" transform="matrix(1,0,0,1,0,0)"><path id="SvgjsPath51615" d="M107.12 106.28c-1.56.43-2.56 1.21-3.98 4.62s-4.33 2.34-5.76.78c-1.42-1.56-2.63-4.33-4.05-5.05-1.42-.71-2.7 0-2.77-.64s3.27-3.2 4.19-4.76c.92-1.56 1.99-4.83 2.34-6.25.36-1.42 2.98-1.85 3.84.07.85 1.92.99 4.55 2.2 6.4 1.21 1.85 4.69 3.55 4.76 4.05.08.5-.77.78-.77.78z" fill="#ffffff" stroke-width="none" opacity="1"></path><path id="SvgjsPath51616" d="M94.63 102.62c2.29-4.21 3.92-8.21 2.22-12.95-.82-2.29-1.73-4.42-1.57-6.91.17-2.61 1.28-5.02 3.08-6.9.55-.58-.33-1.46-.88-.88-2.89 3.02-4.14 7.34-3.09 11.42.64 2.5 2.07 4.79 2.05 7.44-.02 2.93-1.52 5.64-2.88 8.15-.39.71.69 1.34 1.07.63z" fill="#000000" stroke-width="none" opacity="1"></path><path id="SvgjsPath51617" d="M107.67 105.62c-1.4-.2-2.45.36-3.33 1.46-1.25 1.56-1.43 4.73-3.6 5.25-2.72.64-4.01-2.99-5.36-4.65-1.05-1.29-2.42-2.21-4.13-2.12-.8.04-.8 1.29 0 1.25 4.23-.21 4.47 6.51 8.76 6.86 1.41.11 2.56-.66 3.31-1.82.98-1.52 1.56-5.39 4.03-5.03.77.12 1.11-1.08.32-1.2z" fill="#000000" stroke-width="none" opacity="1"></path></g></g><g id="svga-group-hair-front" transform="matrix(1,0,0,1,0,0)"><path id="SvgjsPath51550" d="M99 45.7s-12.3-5.1-15.2-4.9c-6.4.3-9.6 25-9.6 25l-2.3-10.7s-3.7 13.1-3.5 19.5c0 0-3.9-9.4-3.7-15.2 0 0-5.3 18-4.7 28.3 0 0-5.9-8.4-6.4-19.7l-2.1 3.9s-1.6-8-.2-16.4 8-19.3 8-19.3L53 40.1s13.9-16.4 19.1-18c5.1-1.6 10-2.1 10-2.1s-4.3-3-3.7-3 9.4-.8 13.1.8c3.7 1.6 9.2 3.7 9.2 3.7s9-5.3 15.2-5.5l-4.9 3.9s13.7 0 18 3.1c4.3 3.1 14.4 14.2 14.4 14.2s-4.1-.8-3.5-.4 6.8 10.3 8 16.6 2.1 12.1 2.1 12.1l-3.9-3.7s.6 7.6.6 11.1-4.3 17.1-4.3 17.1-1.6-26.5-2.3-28.3l-2.7 9.4s-2.7-15.6-5.7-20.7l-2.1 12.3s-3.7-14.4-5.7-17c0 0-.6 15.3-1.8 22.9 0 0-3.7-20.5-6.2-26.2-2.4-5.7-16.9 3.3-16.9 3.3z" fill="#ffffff" stroke-width="none" opacity="1"></path><path id="SvgjsPath51551" d="M149 53.1c-1-4.9-4.7-11.9-6.9-15.3.4.1.8.2 1.2.2.4.1.9-.1 1.1-.5.2-.4.2-.8-.1-1.2-.4-.5-10.2-11.2-14.5-14.3-3.3-2.4-11.5-3-15.8-3.2l2.8-2.2c.3-.3.5-.7.3-1.1-.1-.4-.5-.7-1-.7-5.6.2-13.3 4.4-15.2 5.4-1.4-.5-5.7-2.2-8.7-3.5-3.5-1.5-10.6-1.1-13-.9h-.5c-.4 0-.9.3-1 .7-.2.6-.3.9 2.1 2.7-1.9.3-4.8.8-7.7 1.8-5.2 1.7-18.1 16.7-19.5 18.4-.3.4-.3.9 0 1.3s.9.5 1.3.2L57 39c-2.1 3.9-5.3 10.6-6.2 16.3-1.5 8.5.1 16.4.2 16.8.1.4.4.7.8.8.4.1.8-.2 1-.5l.5-.9c1.3 9.7 6 16.5 6.2 16.8.3.4.7.5 1.1.4.4-.1.7-.6.7-1-.4-6.6 1.8-16.8 3.3-22.8 1 4.9 3.1 9.9 3.2 10.2.2.4.7.7 1.1.6.5-.1.8-.5.8-1-.1-4 1.3-10.7 2.4-15.1l1.4 6.5c.1.5.5.8 1 .8s.9-.4 1-.9c1.3-9.9 4.8-24 8.7-24.2 1.9-.1 10.1 2.9 14.7 4.8.3.1.6.1.9-.1 2.8-1.7 10.8-6 14.3-4.9.6.2 1 .6 1.3 1.1 2.4 5.6 6.1 25.8 6.1 26 .1.5.5.8 1 .8s.9-.4 1-.8c.8-5.2 1.4-13.9 1.6-19 1.5 4.1 3.2 10.4 4 13.2.1.5.5.8 1 .8s.9-.4.9-.8l1.5-9.1c2.4 6.3 4.3 17.4 4.3 17.5.1.5.5.8.9.8.5 0 .9-.3 1-.7l1.3-4.6c.5 6 1.2 16.2 1.7 23.3 0 .5.4.9.9.9h.1c.4 0 .8-.3 1-.7.2-.6 4.4-13.9 4.4-17.5 0-2.2-.2-6-.4-8.6l2 1.9c.3.3.8.4 1.1.2.4-.2.6-.6.5-1-.3-.1-1.1-5.9-2.3-12.2zm-2.2 7.8c-.3-.3-.7-.4-1.1-.2-.4.2-.6.6-.6 1 0 .1.6 7.6.6 11 0 1.8-1.4 7.2-2.7 11.6-.5-8.2-1.5-21.5-1.9-23-.1-.4-.5-.7-.9-.7s-.8.3-.9.7l-1.5 5.3c-1-5.1-2.9-13.3-5.1-16.9-.2-.4-.6-.5-1-.5s-.7.4-.8.8l-1.3 7.8c-1.3-4.5-3.3-11.1-4.7-12.9-.3-.3-.7-.5-1.1-.3-.4.1-.7.5-.7.9 0 .1-.3 9-1 16.5-1.3-6.6-3.4-16.3-5-20.1-.5-1.1-1.3-1.9-2.5-2.2-4.6-1.4-13.3 3.5-15.5 4.8-2.5-1-12.4-4.9-15.1-4.8-5.5.3-8.6 12.8-10 20.5l-1.1-5.3c-.1-.5-.5-.8-.9-.8s-.9.3-1 .7-2.3 8.4-3.2 14.9c-1-3.1-2.1-7.3-2-10.3 0-.5-.3-.9-.8-1s-1 .2-1.1.7c-.4.7-4.4 14.6-4.9 24.9-1.7-3.4-4.1-9.2-4.4-16 0-.5-.3-.8-.8-.9-.4-.1-.9.1-1.1.5l-.6 1.2c-.3-3-.6-8 .2-13.1 1.4-8.1 7.8-18.8 7.9-18.9.2-.4.2-.9-.2-1.2-.3-.3-.8-.4-1.2-.1l-.6.4C63 30.5 69.5 24 72.4 23c5-1.6 9.8-2 9.8-2 .4 0 .8-.3.9-.7.1-.4 0-.8-.4-1.1-.6-.4-1.3-.9-1.9-1.4 5.1-.2 8.5.1 10.3.9 3.7 1.6 9.2 3.7 9.3 3.7.3.1.6.1.9-.1.1 0 5.8-3.4 11-4.8l-1.9 1.5c-.3.3-.5.7-.3 1.1s.5.7.9.7c3.7 0 14.1.5 17.5 2.9 3 2.2 9.1 8.5 12.2 11.8-1.2-.1-1.5.1-1.7.6-.2.4-.1.9.4 1.2.8.9 6.5 10 7.6 16 .7 3.5 1.2 6.9 1.6 9.2l-1.8-1.6zM99.2 25.6c-1.1 5-1.6 10-1.5 15.1 0 .8 1.3.8 1.3 0-.1-5 .3-9.9 1.4-14.8.2-.7-1-1.1-1.2-.3zm17.6 4.9c-4.1-.9-9.1 1-12.6 3-.7.4-.1 1.5.6 1.1 2.8-1.6 5.8-2.6 9-2.8 4.3-.3 6.3 2.9 7.1 6.8.2.8 1.4.5 1.2-.3-.5-3.1-2-7.1-5.3-7.8zm-29.3 2.8c-5-.5-7.9-.9-11.1 3.3-3 3.9-4.8 8.4-5.7 13.2-.1.8 1.1 1.1 1.2.3.7-3.9 2-7.7 4.2-11 1.3-2 2.4-3.6 4.6-4.5 2.3-.9 4.4-.4 6.8-.1.8.2.8-1.1 0-1.2zm1-6.3c-20.1-7-31.7 22.6-31.2 37.8 0 .8 1.3.8 1.3 0-.3-8.4 1.6-16.7 6-23.9 4.9-8 13.4-16.2 23.6-12.7.7.3 1-.9.3-1.2zm22-1.5c-.8.2-.4 1.5.3 1.2 15.4-5 24.1 14.4 26.5 26.5.2.8 1.4.5 1.2-.3-2.5-12.8-11.8-32.6-28-27.4z" fill="#000000" stroke-width="none" opacity="1"></path></g><g id="svga-group-glasses-single-move" transform="matrix(1,0,0,1,0,0)"><g id="svga-group-glasses-single" transform="matrix(1,0,0,1,0,0)"></g></g></g></g></g><rect id="svga-credit-rect" width="200" height="15" x="0" y="185" fill="#ecf0f1" opacity="0.5" style="display: none;"></rect><text id="svga-credit-text" font-family="Avenir Next, Roboto, Helvetica, Arial, sans-serif" font-size="10px" text-anchor="start" font-weight="400" size="10px" anchor="start" weight="400" fill="#333333" x="33.402061462402344" y="182.71133995056152" style="display: none;"><tspan id="SvgjsTspan50941" dy="13" x="33.402061462402344">Created on AvatarMaker.com</tspan></text></g></svg>