<svg xmlns="http://www.w3.org/2000/svg" version="1.1" width="600px" height="600px" viewBox="0 0 200 200" style="overflow:hidden!important;"><defs id="SvgjsDefs62559"></defs><g id="svga-group-wrapper"><g id="svga-group-backs-single"></g><g id="svga-group-humanwrap-move" transform="matrix(1,0,0,1,0,0)"><g id="svga-group-humanwrap" transform="matrix(1,0,0,1,0,0)"><g id="svga-group-hair-back-move" transform="matrix(1,0,0,1,0,0)"><g id="svga-group-hair-back" transform="matrix(1,0,0,1,0,0)"></g></g><g id="svga-group-humanbody-back"><path id="SvgjsPath62969" d="M77.6 118.3c0 19.3 3.4 44.1-10 51.9-13.4 7.9-31.9 11.3-37.8 22s-4.4 25.3-4.4 25.3h149.3s.7-18.9-5.1-26.4c-8.1-10.4-27.8-15.5-37.7-20.9s-13.4-25.1-13.4-52.4l-40.9.5z" fill="#ffffff" stroke-width="none" opacity="1"></path><path id="SvgjsPath62970" d="M175.8 218.7H24.4l-.1-1c-.1-.6-1.5-15.1 4.5-26 4.1-7.4 13.5-11.3 23.5-15.5 5-2.1 10.2-4.3 14.8-6.9 10.6-6.2 10.1-23.9 9.6-41-.1-3.5-.2-6.8-.2-10v-1.1l43.2-.4v1.1c0 29.9 4.2 46.7 12.8 51.4 2.9 1.6 6.7 3.2 10.8 4.9 10 4.1 21.3 8.8 27.2 16.3 6.1 7.7 5.4 26.4 5.4 27.1l-.1 1.1zm-149.3-2.2h147.1c0-4.1-.2-18.5-4.9-24.6-5.5-7-16.6-11.6-26.3-15.6-4.1-1.7-8-3.3-11-5-5.1-2.8-8.7-8.9-10.9-18.7-2-8.4-2.9-19.4-3-33.5l-38.6.4c0 2.8.1 5.7.2 8.8.5 17.8 1 36.1-10.7 43-4.7 2.7-9.9 4.9-15 7.1-9.6 4-18.7 7.8-22.4 14.5-5 8.6-4.7 20.1-4.5 23.6z" fill="#000000" stroke-width="none" opacity="1"></path><path id="SvgjsPath62971" d="M93.9 153.8c-.5 1.8-.4 3.4.5 5.2.8 1.6 2.1 2.7 3.9 2.9.4 0 .7-.5.5-.8-1.6-2.2-3.5-4.2-3.7-7.1 0-.7-1-.9-1.2-.2zm18.6 33.7c8.8.5 18.1-.7 26.6-2.9.7-.2.6-1.4-.2-1.3-8.8 1.1-17.7 2-26.5 3.3-.5.1-.3.9.1.9zm-49.4-5c3.8.9 7.6 1.9 11.5 2.8 3.6.8 7.4 2 11.1 2.1.7 0 .8-.9.2-1.2-3.5-1.4-7.5-1.7-11.2-2.5-3.8-.7-7.5-1.3-11.3-2-.5 0-.7.7-.3.8z" fill="#000000" stroke-width="none" opacity="1"></path></g><g id="svga-group-chinshadow-single"></g><g id="svga-group-humanbody-front"></g><g id="svga-group-clothes-single"><path id="SvgjsPath63115" d="M77.6 140.5s-8.6 2.8-13.1 5.9-5.6 10-5.6 10-2.3-3.3-4.5 1.9-1.8 5.6-4 7.9c-2.3 2.3-1 6.8-.2 7.9 0 0-4 2.8-8.4 4s-10.3 4.2-12.1 6.6-9.6 12.8-5.6 34h153.6s0-21-3-27.5-7.7-7.5-7.7-7.5-9.8-7-11.7-8.2-11-4.2-11-4.2-.5-4.2-1.2-7.2-4.6-8.1-6.6-8.4c-2.1-.4-3-2.8-5.6-7-2.6-4.2-5.8-6.5-7.3-7-1.6-.5-3.3-.2-3.3-.2s1.2 8.9 1.2 13.6-.9 7.7-4.6 12.2c-3.7 4.6-6.1 5.8-11.4 9.3s-6.3 5.4-6.3 5.4-3.2-5.1-8.8-8.6S83 166 79 162.5s-1.1-6.1-1.4-11.2c-.3-5.1 0-10.8 0-10.8z" fill="#ffffff" stroke-width="none" opacity="1"></path><path id="SvgjsPath63116" d="M175.6 190.8c-2.8-6.1-7.1-7.7-8.2-8-1.3-.9-9.8-7-11.6-8.1-1.8-1.1-8.5-3.4-10.6-4.1-.2-1.3-.6-4.3-1.2-6.6-.7-3-4.7-8.7-7.5-9.1-1.1-.2-1.8-1.3-3.3-3.9-.5-.8-1-1.6-1.6-2.6-2.6-4.2-5.9-6.8-7.9-7.4-1.8-.6-3.8-.2-3.8-.2-.5.1-.9.6-.8 1.1 0 .1 1.2 8.9 1.2 13.5 0 4.2-.7 7.1-4.3 11.6-3 3.8-5.1 5.1-9 7.6-.7.4-1.4.9-2.2 1.4-3.1 2.1-4.8 3.6-5.7 4.6-1.3-1.8-4.1-5.1-8.3-7.7-3.3-2.1-5.2-4.4-7.1-6.6-1.2-1.4-2.5-2.9-4.1-4.4-2.2-1.9-1.9-3.4-1.5-5.7.3-1.4.6-2.9.4-4.8-.3-4.9 0-10.7 0-10.7 0-.3-.1-.6-.4-.9-.3-.2-.6-.3-.9-.2-.4.1-8.8 2.9-13.4 6.1-3.5 2.4-5 6.7-5.7 9-.4-.2-.8-.3-1.3-.2-1.4.1-2.5 1.3-3.5 3.6-.7 1.7-1.2 2.9-1.5 3.8-.7 1.9-.9 2.4-2.3 3.8-2.2 2.2-1.7 6.2-.8 8.3-1.3.8-4.3 2.5-7.3 3.4-4.6 1.3-10.7 4.3-12.6 7l-.1.2c-6.4 8.9-8.3 20.6-5.6 34.6.1.5.5.8 1 .8h153.6c.6 0 1-.4 1-1 0-1.2-.1-21.6-3.1-28.2zm-33-23.6c.3 1.9.6 3.7.6 4.1 0 .2-.1.8-.6 1.6.3-1.8.2-3.8 0-5.7zm-20.7-19.4c.5.2 1.2.5 1.9.9-.2.1-.3.1-.5.1l-1.2.3c-.2-.5-.2-.9-.2-1.3zm-.1 12.5h1.5c-.6.4-1.3 1-2 1.6.2-.5.4-1 .5-1.6zm4.2-3.1c-1.2.1-2.6.4-3.8.6.1-.5.1-1 .1-1.5 1.3-.1 2.7-.3 3.9-.5 0 .5-.1 1-.2 1.4zm.1-5c.1.5.1.9.1 1.3-1.3 0-2.7.4-3.9.8 0-.5 0-1-.1-1.5 1.3-.2 2.7-.3 3.9-.6zm-3.8 3.6v-1.1c.7-.2 1.4-.3 2.2-.4.6-.1 1.2-.1 1.8-.2v1.1c-1.3 0-2.7.3-4 .6zm-.1-3.5c0-.4-.1-.8-.1-1.1.6-.1 1.1-.1 1.7-.2.6-.1 1.2-.2 1.7-.3.2.3.3.6.4 1-1.2 0-2.5.3-3.7.6zm1.9-2c-.6.1-1.3.2-1.9.4 0-.3-.1-.7-.1-1 .4-.1.9-.2 1.3-.3.3-.1.7-.1 1-.3l.9.9c-.5.1-.9.2-1.2.3zm-1.9 8c1.1-.1 2.4-.2 3.5-.4-.3.7-.9 1.3-1.6 1.8-.7 0-1.5.1-2.2.1l.3-1.5zM76 159.6c-1.2-1.1-2.3-2.2-2.7-3.1-.1-.1-.1-.2-.1-.4.9.7 1.8 1.5 2.8 2.1-.1.5-.1 1 0 1.4zm-.5-10.9c.3.4.7.7 1.1 1 0 .4 0 .9.1 1.3-.3-.2-.5-.4-.8-.6-.4-.3-.7-.6-1.1-.9.1-.2.4-.5.7-.8zm.3-.3c.2-.2.4-.3.6-.4v1c-.1-.2-.3-.4-.6-.6zm-1.4 1.5c.4.4.8.7 1.2 1 .3.3.6.6 1 .8v1c-.8-.7-1.8-1.4-2.7-2 .2-.2.3-.5.5-.8zm-.7 1.4c.9.8 1.8 1.7 2.8 2.3 0 .3-.1.6-.1.9-.4-.3-.9-.6-1.4-.9-.6-.4-1.2-.8-1.7-1.2.1-.4.3-.8.4-1.1zm-.5 1.5c.5.4 1.1.8 1.6 1.2.5.4 1 .8 1.6 1.1 0 .2-.1.4-.1.5 0 .1-.1.3-.1.4-.5-.3-1-.6-1.4-.9l-1.8-1.2c0-.3.1-.7.2-1.1zm2.7 4.8c-.9-.8-1.9-1.5-2.9-2.1v-1c.4.4.9.7 1.4 1.1.5.4 1.1.8 1.7 1.2-.1.2-.1.5-.2.8zm-22.1 4.8c.3-.9.8-2 1.5-3.7.9-2.1 1.6-2.3 1.8-2.4.3 0 .6.2.8.4.1 2.2 1.5 13.1 16.7 21.5.2.1.3.1.5.1.3 0 .7-.2.8-.5.1.2.2.5.3.7.1.1.3.1.3-.1-.2-2-.6-3.7-.3-5.7 0-.2-.3-.4-.4-.1-.2 1.2-.4 2.5-.2 3.8l-.1-.1c-.1-.1-.2-.1-.3-.2-.3-1.7-.5-3.3-.4-5 0-.3-.4-.3-.4 0-.2 1.5-.2 3.1.1 4.6-.4-.3-.9-.5-1.3-.8-.2-.5-.3-1.1-.4-1.6-.2-1.1-.1-2.1.1-3.1 0-.2-.3-.3-.3-.1-.3 1.3-.4 3 0 4.4-.4-.2-.7-.5-1-.7-.1-2.3-.2-4.5.1-6.8 0-.3-.4-.2-.4 0-.3 2.1-.4 4.2-.2 6.4-.6-.4-1.2-.9-1.7-1.4-.1-2.1-.1-4.2.3-6.4 0-.2-.2-.3-.3-.1-.5 2-.7 4-.6 6-.4-.4-.8-.8-1.2-1.1 0-1-.1-2.1 0-3.1.1-1.4.4-2.8.8-4.1.1-.2-.2-.3-.3-.1-.7 2-1.3 4.5-1 6.7-.4-.4-.7-.8-1.1-1.1-.2-1 .2-3.2.2-3.5.2-1.4.5-2.7 1-4 .1-.2-.2-.2-.3-.1-.8 2.3-1.3 4.7-1.4 7.1-.3-.3-.5-.6-.8-1 .1-.1.1-.2.1-.2.1-.1-.1-.3-.2-.2.2-2.9.8-5.8 1.8-8.5.1-.2-.2-.3-.3-.1-1 2.7-1.7 5.5-1.9 8.3-.3-.5-.6-.9-.9-1.4.7-2.8 1.1-5.7 2.1-8.5.1-.3-.3-.4-.4-.1-.9 2.5-1.8 5.3-2 8-.4-.6-.7-1.2-1-1.8.7-3 1.1-5.8 2.5-8.6.1-.2-.2-.4-.3-.2-1.3 2.4-2.4 5.3-2.6 8.1-.3-.8-.6-1.6-.8-2.2 1.2-2.8 1.9-5.8 3.1-8.6.1-.2-.2-.4-.3-.2-1.2 2.5-2.6 5.3-3.1 8-.3-1.4-.4-2.3-.4-2.6 1.2-2.5 2.1-5.1 3.3-7.6.5-.6 1.1-1.2 1.8-1.7 3.3-2.3 8.9-4.4 11.5-5.3 0 1-.1 2.4-.1 3.9-1.9.7-3.5 2.3-4.5 4.5-1.1 2.5-1.3 5.3-.5 7.1 1.1 2.4 5.2 5.4 8.7 7.8.3.2.5.3.6.4l1.5 1.8c2 2.3 4 4.8 7.6 7 5.3 3.3 8.4 8.2 8.4 8.2.2.3.5.5.9.5.3 0 .7-.2.8-.5 0 0 1.1-1.8 6-5.1.8-.5 1.5-1 2.2-1.4 3.2-2.1 5.4-3.5 7.8-6.2.2 0 .4-.1.5-.3.1-.1 5.5-6.1 8.3-7.9 3.5-2.4 3.9-5.5 3.3-9.8-.6-4.3-5-5.9-6.5-6.3-.2-1.3-.3-2.4-.4-3.2.5 0 1.2 0 1.9.2 1.4.5 4.3 2.6 6.8 6.6.6.9 1.1 1.8 1.5 2.6 0 0 0 .1.1.1l-.7-.7c-.1-.1-.3.1-.2.2.7.8 1.3 1.7 2 2.5v.1s.3 1.1.3 2.9c-.5-.8-1.1-1.6-1.4-2.5-.1-.2-.4-.1-.4.1.4 1.2.9 2.4 1.8 3.3 0 .3 0 .7-.1 1.1-.5-.7-1.1-1.3-1.5-1.9-.1-.2-.5 0-.3.2.5.7.9 1.4 1.4 2.1.1.2.2.3.3.5-.1.6-.2 1.2-.3 1.9-.5-.6-1-1.2-1.4-1.8-.1-.2-.4.1-.3.2.5.7 1 1.6 1.6 2.3-.1.5-.3 1.1-.6 1.7-.2-.4-.4-.9-.5-1.3-.1-.2-.5-.1-.4.1.2.6.4 1.4.6 2.1-.2.5-.5 1.1-.9 1.6-.1-.3-.1-.6-.1-.9 0-.3-.4-.3-.4 0 0 .5.1 1.1.1 1.6-.4.5-.8 1.1-1.2 1.6-.1-.6-.2-1.3-.3-1.9 0-.2-.4-.2-.4.1.1.8.1 1.6.2 2.3-.4.4-.8.9-1.2 1.3 0-.8-.1-1.5-.2-2.3 0-.3-.4-.3-.4 0 0 .9-.1 1.9 0 2.9-.3.3-.6.6-.9.8 0-.2 0-.5-.1-.7 0-.8-.1-1.5-.1-2.2 0-.3-.4-.3-.4 0 0 .8 0 1.5.1 2.2v1.2c-.4.4-.9.7-1.3 1.1 0-.2-.1-.4-.1-.7 0-.6 0-1.1.1-1.7 0-.3-.3-.4-.4-.1-.2.9-.4 2-.1 2.9-.3.3-.7.5-1 .8 0-.4-.1-.8-.1-1.2 0-.3-.5-.3-.5 0v1.6c-.4.3-.7.5-1.1.8 0-.4-.1-.9-.1-1.3 0-.3-.5-.3-.5 0 0 .6 0 1.1.1 1.6-.4.3-.8.5-1.1.7v-1.8c0-.3-.4-.3-.4 0 0 .6-.1 1.1-.1 1.7v.5c-.4.2-.7.4-1.1.6v-1.4c0-.3-.4-.2-.4 0-.1.5-.1 1.1-.1 1.6-.2.1-.5.2-.7.3-.1 0-.1 0-.1.1 0-.4.1-.7.1-1.1 0-.2-.4-.2-.4 0-.1.4-.1.8-.2 1.3-.3.1-.7.3-1 .4v-1.3c0-.2-.4-.2-.4 0 0 .5-.1 1-.2 1.5-.5.2-1 .4-1.4.5v-1c0-.3-.4-.3-.4 0 0 .4-.1.8-.1 1.2-.3.1-.6.2-.8.3 0-.4.1-.7.1-1.1 0-.2-.4-.3-.4-.1-.1.4-.1.9-.2 1.3-.2.1-.4.1-.4.1-.5.2-.8.7-.7 1.2.1.4.5.7 1 .7h.3c.1 0 1.5-.5 4.4-1.6v.1c0 .2.3.1.3 0s0-.1.1-.2c.4-.1.7-.3 1.1-.4 3.7-1.5 13.6-8.3 16.3-15 1.5-3.6 1.7-6.9 1.6-9 .4.2.8.4 1.2.4 1.4.2 5 4.6 5.8 7.4-.1 0-.2.1-.2.2.3 3.2.1 6.4.2 9.5-.2.2-.4.5-.6.7v-8.7c0-.2-.4-.2-.4 0-.1 3.1-.2 6.2-.2 9.3l-.5.5c0-2.4-.3-4.8-.4-7.2 0-.2-.4-.3-.4 0 .1 2.6-.1 5.2.2 7.8-.2.1-.4.3-.5.4.1-2 0-4.1-.1-6.1 0-.2-.4-.2-.4 0-.1 2.2-.4 4.5-.3 6.7-.2.2-.5.3-.7.5.2-2 .1-4 0-6 0-.2-.4-.2-.4 0 0 2.1-.2 4.3-.3 6.4-.4.2-.9.5-1.4.7.2-1.9 0-3.9 0-5.8 0-.3-.4-.3-.4 0-.1 2-.3 4.1-.2 6.1-.4.2-.8.4-1.3.6.2-1.3.2-2.7.3-4 0-.3-.4-.3-.4 0-.2 1.4-.5 2.9-.6 4.3-.4.2-.9.4-1.3.5.2-1.4.2-2.9.6-4.3.1-.3-.4-.4-.4-.1-.3 1.4-.8 3.1-.9 4.7-.5.2-.9.3-1.4.5.1-1.2 0-2.6.1-3.8 0-.3-.4-.3-.4 0-.1 1.2-.4 2.7-.3 4-.6.2-1.3.4-1.9.7 0-.4 0-.9.1-1.3.1-.9.3-1.7.6-2.5.1-.2-.3-.3-.4-.1-.5 1.2-1 2.7-1 4.1l-.9.3v-.1c.1-.7.1-1.4 0-2.1 0-.3-.5-.3-.5 0 0 .7 0 1.3-.1 2 0 .1-.1.3-.1.5-.4.1-.8.3-1.2.4.1-.6.1-1.2.1-1.8 0-.3-.4-.3-.5 0-.1.6-.2 1.3-.3 2-.5.1-1 .3-1.5.5v-1c0-.3-.5-.3-.4 0v1.2c-.5.2-1 .3-1.5.5.1-.5.3-1.1.4-1.6.1-.3-.3-.4-.4-.1-.2.6-.4 1.3-.6 1.9-.4.1-.8.2-1.2.4.1-.6.2-1.1.3-1.6.1-.3-.4-.4-.4-.1-.2.6-.4 1.3-.5 1.9-.2.1-.4.1-.6.2.1-.4.2-.9.4-1.3.1-.2-.3-.4-.4-.1-.2.5-.4 1-.6 1.6-.2.1-.3.1-.5.1 0-.2.1-.4.1-.6.1-.2-.3-.3-.3-.1-.1.3-.2.5-.3.8-.5.1-.9.3-1.3.4 0-.1-.2-.2-.3 0 0 .1-.1.1-.1.1-.8.2-1.6.4-2.2.6-1.6.4-2.7.8-3.1.9-.3.1-1.2.2-2.4.2-.2-1.3-.6-2.7-1.5-4.8-.2-.5-.8-.7-1.3-.5s-.7.8-.5 1.3c.8 1.7 1.1 2.9 1.3 3.9H101c-.3-.4-.6-.7-1-1-.2-.2-.5.1-.3.3l.7.7h-1.2c-.2-.2-.4-.5-.6-.7-.4-.6-.7-1.2-.9-1.9-.1-.3-.5-.2-.4.1.2.8.6 1.7 1.1 2.5-.4 0-.9 0-1.3-.1-.1-1.8-.1-3.5-.1-4.4 0-.6-.4-1-1-1s-1 .4-1 1c0 .4 0 2.2.1 4.3h-.2c-.3-.4-.7-.8-.9-1.3-.4-.7-.6-1.5-.7-2.3 0-.2-.4-.3-.4 0 .1 1.1.4 2.6 1.2 3.5-.5 0-.9-.1-1.4-.1-.2-.4-.5-.9-.7-1.3-.3-.7-.5-1.5-.5-2.3 0-.2-.4-.3-.4 0 0 1.1.3 2.6 1 3.6-.3 0-.5 0-.8-.1-.2-.6-.7-1.1-.9-1.7-.3-.7-.4-1.4-.4-2.1 0-.3-.4-.3-.4 0-.1 1.1.2 2.9 1.1 3.8-.4 0-.8-.1-1.3-.1-.3-.6-.8-1.2-1.1-1.8-.3-.8-.5-1.6-.5-2.4 0-.3-.4-.3-.4 0 0 1.3.3 3.1 1.3 4.1-.6-.1-1.2-.1-1.8-.2-.3-.4-.5-.9-.7-1.4-.3-.8-.4-1.6-.5-2.4 0-.3-.5-.3-.4 0 0 1.2.3 2.6.9 3.7-.4-.1-.9-.1-1.3-.2-.2-.4-.5-.9-.7-1.4-.3-.8-.5-1.5-.5-2.3 0-.3-.4-.3-.4 0 .1 1.2.3 2.5 1 3.6-.5-.1-.9-.1-1.3-.2-.4-.6-.8-1.1-1-1.7-.4-.8-.6-1.7-.8-2.6 0-.2-.4-.1-.3.1.1 1.3.5 3 1.3 4.1-.7-.1-1.3-.3-1.8-.4-1-1.4-1.8-2.7-2.2-4.5-.1-.2-.3-.1-.3.1.2 1.4.8 2.9 1.7 4.1-.2-.1-.5-.2-.6-.3-.3-.2-.8-.4-1.3-.6-.7-1.5-1.4-3-1.8-4.7-.1-.3-.5-.2-.4.1.2 1.4.6 2.9 1.3 4.1-.3-.1-.7-.3-1-.4-.8-1.6-1.6-3-1.9-4.9 0-.2-.4-.2-.4.1.2 1.5.6 3.2 1.4 4.5-.3-.1-.6-.2-.9-.4-.4-.8-.8-1.5-1.1-2.2-.4-1.1-.7-2.2-.8-3.3 0-.3-.5-.2-.5.1.2 1.6.6 3.6 1.5 5.1l-1.5-.6c-.3-.7-.7-1.3-1-2-.4-.9-.7-1.9-.9-2.9-.1-.3-.5-.2-.4.1.3 1.4.7 3.2 1.6 4.5-.2-.1-.4-.1-.5-.2-.5-.2-1-.4-1.6-.6-.9-1.5-1.5-3-1.8-4.8 0-.2-.4-.2-.4.1 0 1.5.5 3.1 1.3 4.4-.7-.3-1.4-.6-2.1-.8-.8-1.7-1.5-3.4-1.7-5.3 0-.3-.4-.3-.4 0 .1 1.7.5 3.5 1.3 5-.4-.2-.8-.3-1.2-.5-.5-.8-1-1.5-1.4-2.4-.5-1.2-.8-2.5-.9-3.8 0-.3-.4-.3-.4 0 .1 1.9.6 4.1 1.7 5.8-.6-.3-1.3-.5-1.9-.8-1.2-2.1-2.1-4-2.2-6.6 0-.3-.4-.3-.4 0 0 2.1.5 4.4 1.6 6.1-.5-.2-1.1-.5-1.6-.7-1.3-2.3-2.1-4.5-2-7.2 0-.3-.4-.3-.4 0-.2 2.3.3 4.8 1.6 6.8-.3-.2-.7-.3-1-.5-1.3-2.7-2.2-5.2-2.2-8.2 0-.3-.4-.3-.4 0-.1 2.7.5 5.6 1.9 7.9-.7-.4-1.3-.7-1.9-1-1.6-2.4-2.2-4.8-2-7.9v-.1c.8-1.9 1.1-2.7 1.9-4.7zm-3.3 5.3c-.3 2.1.2 4.4 1.3 6.3-.3-.2-.6-.4-.8-.6-.6-.7-1.5-3.7-.5-5.7zM33.2 183c.3.9.8 2.5 1.4 4.6-.7-.3-1.5-.5-2.1-.9-.7-.4-1.3-1-1.8-1.6.5-.7 1.4-1.4 2.5-2.1zm-2.8 2.5c1.1 1.3 2.7 2.5 4.4 2.6.2.8.5 1.7.7 2.7l-.1-.1c-2.4-.9-4.4-1.8-6.2-3.4l1.2-1.8zm-6.2 27.4c3.5 2.2 7.7 4.1 11.8 4.8H24.9c-.3-1.6-.5-3.2-.7-4.8zm12.9 4.8c0-.1 0-.2-.1-.3-4.5-1.5-8.6-2.9-12.8-5.1-.1-.9-.1-1.9-.2-2.8 4.6 2.7 10 5.1 15.2 6.1.2 0 .3-.2.1-.3-5.1-2.2-10.2-4.2-15.3-6.5v-2.9c3.5 2.5 7.6 4.5 11.9 5.4.3.1.4-.4.1-.5-4.2-1.6-8.2-3.2-12-5.5 0-1.2.1-2.3.3-3.4 2.9 1.7 5.9 3.1 9.1 4 .3.1.4-.4.1-.5-3.1-1.3-6.2-2.6-9.2-4.1.1-.9.3-1.8.4-2.6 3 2.4 6.6 4.4 10.4 5 .2 0 .3-.2.1-.3-3.7-1.5-7.1-3.1-10.4-5.2l.6-2.4c2.8 1.9 5.8 3.8 9 4.7.2.1.3-.2.1-.3-3-1.7-6-3.1-8.9-4.9.3-.9.5-1.7.9-2.5 2.4 1.8 5.3 3.1 8.3 3.6.3 0 .4-.3.1-.4-2.9-1-5.6-2.2-8.2-3.8.2-.6.5-1.2.8-1.8 2.2 2 4.9 3.6 7.8 3.9.2 0 .2-.2 0-.3-2.8-1.1-5.3-2.2-7.6-4.1.4-.7.7-1.4 1.1-2.1 1.7 1.8 4.1 3.1 6.5 3.3.1 0 .1 0 .2-.1 1.4 5.9 3.1 14.8 4.1 26.7h-2.5zm4.5 0C39.9 196.6 36 184.9 35 182c2.2-1.2 4.9-2.3 7-2.9 3.5-1 6.7-2.9 8.1-3.7 3.3 2.5 11.8 5.9 18.6 8.6 3.8 1.5 7.2 2.8 8.6 3.6 2.4 1.3 10.3 2.2 17.6 2.6.2 1.5.4 2.9.7 3.8.7 1.9.5 3.3-.2 7.5l-.3 1.8c-.3 1.9-.7 3.4-1.1 4.8-.7 2.6-1.3 4.6-.2 6.8.2.4.5.6.9.6.1 0 .3 0 .4-.1.5-.2.7-.8.5-1.3-.8-1.6-.3-3 .3-5.4.4-1.3.8-3 1.2-5l.3-1.8c.7-4.3 1-6.1.1-8.5-.2-.6-.4-1.8-.6-3 2.3.1 4.5.2 6.4.2 0 .5-.1 1.1-.1 1.7-.1.7-.1 1.5-.2 2.4-.2 4.4.8 10 .9 10.9l-.2 9c0 .6.4 1 1 1 .5 0 1-.4 1-1l.2-9.1v-.2c0-.1-1.1-6-.9-10.5 0-.9.1-1.7.2-2.4s.1-1.3.1-1.9c1.5 0 2.5-.1 2.9-.3.4-.1 1.5-.4 3-.9 2.4-.7 5.7-1.6 9.2-2.7.1.1.3.1.4 0l.1-.1c6.8-2.1 14.4-4.6 17.7-6.8 4.4-2.9 5.9-5.5 6.4-7 3 1 8.4 2.9 9.8 3.8 1.6 1 9.1 6.4 11.1 7.8-.6 3.2-3.3 18.3-2.9 33.6l-121.4-.2zm123.3-1.3c.9.5 1.8.9 2.8 1.3H165c0-.4 0-.9-.1-1.3zm4.4 1.3c-1.4-.7-2.9-1.4-4.4-1.9v-3.1c2.8 2 6 3.5 9.3 4 .3 0 .4-.4.1-.4-3.4-1.1-6.5-2.3-9.4-4.2 0-1.1.1-2.1.1-3.2 2.6 1.2 5.3 2.4 8 3.2.2.1.4-.3.2-.4-2.6-1.3-5.4-2.4-8.1-3.4.1-1.1.1-2.1.2-3.1 2.3 1.5 4.8 2.8 7.4 3.6.2.1.4-.3.2-.4-2.6-1.2-5.1-2.3-7.6-3.8.1-.9.1-1.8.2-2.7 1.8 1.7 4.7 2.7 7.1 2.8.2 0 .3-.3.1-.4-1.4-.4-2.8-.8-4.2-1.4-1-.5-1.9-1.1-2.9-1.7.1-.9.2-1.7.2-2.6 2.1 1.2 4.2 2.5 6.4 3.3.2.1.3-.2.1-.3-2-1.4-4.3-2.4-6.5-3.4.1-1.1.2-2.1.4-3 1.6 1.1 3.2 2.2 4.9 3.1.2.1.3-.1.1-.2-1.6-1.2-3.3-2.3-5-3.2.3-2.3.6-4.3.8-6 1 .9 2 1.8 3.1 2.5.2.1.4-.1.2-.3-.9-1-2.1-1.9-3.2-2.7.2-1.4.4-2.5.6-3.2 1.4.7 4.1 2.4 6 6.6 2.5 5.4 2.8 21.9 2.9 26.1l-7.3-.2zm-2.3-25.9c-.3-.1-.4.2-.2.4 1.2.9 2.5 1.9 3.8 2.4.2.1.5-.2.3-.4-1.2-1-2.6-1.8-3.9-2.4zm-87.4-12.2c-.1-.8-.4-1.6-.6-2.5-.2-1-.2-1.9-.1-2.9 0-.3-.4-.3-.4 0-.2 1.7-.1 4 .8 5.5.1.2.3.1.3-.1zm1.9.9c.1-1.6-.3-3.4-.5-5 0-.3-.4-.3-.4 0 .1 1.7.1 3.5.5 5.1.1.2.4.1.4-.1zm1.2.1c.1-1.3-.3-2.7-.5-4.1 0-.2-.3-.1-.3.1.1 1.3.1 2.8.5 4.1 0 .2.3.1.3-.1zm2 1c-.2-1.5-.8-2.8-1-4.3 0-.3-.4-.3-.4 0 .1 1.4.3 3.2 1.1 4.4.1.2.3.1.3-.1zm2.1.2c.1.1.2-.1.1-.2-.3-.3-.6-.6-.8-1-.2-.4-.4-.8-.4-1.2 0-.3-.5-.2-.4.1 0 .9.5 2 1.5 2.3zm2.4.7c.1.1.3 0 .3-.2-.4-.9-1.1-1.8-1.7-2.6-.2-.2-.6 0-.4.2.6.9 1.1 1.8 1.8 2.6zm19 .3c.2-.5.2-1.2.2-1.8 0-.2-.4-.2-.4 0-.1.6-.3 1.2-.1 1.8.1.1.3.1.3 0zm1.3-.4c.2-.4.2-.8.3-1.2.1-.5.2-.9.3-1.4.1-.3-.3-.4-.4-.1l-.3 1.5c-.1.4-.2.8-.1 1.2-.1.1.1.2.2 0z" fill="#000000" stroke-width="none" opacity="1"></path></g><g id="svga-group-head" transform="matrix(1,0,0,1,0,0)"><g id="svga-group-ears-left-move" transform="matrix(1,0,0,1,0,0)"><g id="svga-group-ears-left" transform="matrix(1,0,0,1,0,0)"><path id="SvgjsPath63129" d="M60.8 86.8s-2.1-5.1-4.3-8.3c-2.2-3.2-5.5-7.6-7.6-8.7s-3.6-.4-3 2.6 3 12.6 3.6 15.6c.7 3 2.2 9.4 4.2 13.6 1.9 4.2 3.1 6.1 5.2.5 2.1-5.7 3.4-11.8 1.9-15.3z" fill="#ffffff" stroke-width="none" opacity="1"></path><path id="SvgjsPath63130" d="M52.9 102c-2-4.4-3.6-11.1-4.2-13.8-.2-1-.7-2.9-1.2-5-.9-3.9-2.1-8.7-2.4-10.7-.4-2.2.2-3.3.9-3.7.5-.4 1.6-.8 3.5.2 2.3 1.2 6.6 3.9 8.9 7.3 2.2 3.3 3.3 10 3.4 10.2 1.7 4.1 1.3 10.3-.6 15.3-1 2.8-3.3 4.7-4.5 4.8h-.1c-1.5-.1-2.5-1.9-3.7-4.6zm2.9-23.1c-3-4.5-5.7-7.6-7.2-8.4-.9-.5-1.4-.5-1.6-.3-.2.2-.4.8-.2 2 .4 1.9 1.5 6.7 2.4 10.6.5 2.1.9 4 1.2 5 .6 2.6 2.2 9.2 4.1 13.4.4.9 1.5 3.3 2 3.5.1 0 .6-.3 1.6-2.9 2.4-6.6 3.1-11.8 2-14.7-.1-.1-2.2-5.1-4.3-8.2z" fill="#000000" stroke-width="none" opacity="1"></path><path id="SvgjsPath63131" d="M47.6 73.1c3.5 4 6.5 10.6 7 16.9 0 .4-.4.5-.5.1-.1-.6-.2-1.1-.4-1.7-.3-.8-.9-.9-1.6-.2.1.5.1 1 .3 1.4.2.6.4 1.3.6 1.9.6 1.5 1.3 2.6 2 3.9.1.3 0 .7-.3.5-1.7-1.4-3.4-5.4-3.4-8.2 0-.8.3-1.6.9-1.7.4 0 .7.1.9.4-1.3-4.9-3-8.9-5.8-13 0-.2.1-.5.3-.3z" fill="#000000" stroke-width="none" opacity="1"></path></g></g><g id="svga-group-ears-right-move" transform="matrix(1,0,0,1,0,0)"><g id="svga-group-ears-right" transform="matrix(1,0,0,1,0,0)"><path id="SvgjsPath63132" d="M139.2 86.8s2.1-5.1 4.3-8.3c2.2-3.2 5.5-7.6 7.6-8.7 2.1-1.1 3.6-.4 3 2.6-.6 3-2.9 12.7-3.6 15.7-.7 3-2.2 9.4-4.2 13.6-1.9 4.2-3.1 6.1-5.2.5-2.1-5.8-3.4-11.9-1.9-15.4z" fill="#ffffff" stroke-width="none" opacity="1"></path><path id="SvgjsPath63133" d="M143.5 106.5s-.1 0 0 0c-1.3 0-3.5-1.9-4.6-4.8-1.8-5-2.3-11.2-.6-15.3.1-.2 1.2-6.9 3.4-10.2 2.3-3.4 6.6-6.1 8.9-7.3 1.9-1 3-.5 3.5-.2.6.5 1.3 1.5.9 3.7-.4 1.9-1.5 6.8-2.4 10.7-.5 2.1-.9 4-1.2 5-.6 2.7-2.2 9.4-4.2 13.8-1.3 2.8-2.3 4.6-3.7 4.6zM140 87.1c-1.2 2.8-.5 8 2 14.7 1 2.6 1.5 2.9 1.6 2.9.5-.2 1.6-2.6 2-3.5 1.9-4.2 3.5-10.8 4.1-13.4.2-1 .7-2.9 1.2-5 .9-3.9 2.1-8.7 2.4-10.6.2-1.2 0-1.8-.2-2-.2-.1-.7-.1-1.5.3-1.5.8-4.2 4-7.2 8.4-2.3 3.1-4.4 8.1-4.4 8.2z" fill="#000000" stroke-width="none" opacity="1"></path><path id="SvgjsPath63134" d="M152.4 73.1c-3.5 4-6.5 10.6-7 16.9 0 .4.4.5.5.1.1-.6.2-1.1.4-1.7.3-.8.9-.9 1.6-.2-.1.5-.1 1-.3 1.4-.2.6-.4 1.3-.6 1.9-.6 1.5-1.3 2.6-2 3.9-.1.3 0 .7.3.5 1.7-1.4 3.4-5.4 3.4-8.2 0-.8-.3-1.6-.9-1.7-.4 0-.7.1-.9.4 1.3-4.9 3-8.9 5.8-13 0-.2-.1-.5-.3-.3z" fill="#000000" stroke-width="none" opacity="1"></path></g></g><g id="svga-group-faceshape-wrap" transform="matrix(1,0,0,1,0,0)"><g id="svga-group-faceshape-single"><path id="SvgjsPath63203" d="M141.7 91.8c-.3-5.4 2.1-24 2.1-24-.1-3.3-.3-8.9-1.4-14.2-2.3-11.4-15.1-28.8-42.4-28.8S63.6 38.2 59.6 48.1c-2.5 6.2-3.2 15.2-3.4 19.7 0 0 .4 17.5 1.1 23.3.7 5.8-2.7 22.4-1.7 26.4 1 4.1 26.8 16.9 31.2 21 4.4 4.1 16.3 5.1 21 2 4.7-3.1 32.9-22.4 34.6-24.1 1.7-1.5-.4-19.1-.7-24.6z" fill="#ffffff" stroke-width="none" opacity="1"></path><path id="SvgjsPath63204" d="M99.7 143.6c-5.2 0-10.9-1.5-13.7-4.1-1.7-1.6-7.4-4.7-13.4-8-12.1-6.7-17.5-10.9-18.2-13.6-.6-2.3-.5-7.3.7-13 1.1-5.1 1.3-10.8 1-13.5C55.4 85.7 55 68.7 55 68c.2-4.8.9-13.8 3.4-20.1 6.6-16.2 20.1-24 41.5-24 12.3 0 23.2 3.6 31.3 10.4 6.3 5.2 10.9 12.5 12.2 19.3 1.1 5.5 1.3 11.4 1.4 14.4v.2c0 .2-2.4 18.5-2.1 23.8.1 1.8-.3 5.3.3 8.9 1.9 11.4 1.4 15.4.1 16.7-1.1 1.1-10.4 8.5-33.4 23.3l-1.4.9c-2 1.2-5.2 1.8-8.6 1.8zM57.3 67.9c0 .9.4 17.6 1.1 23.2.4 3.1.2 8.8-1 14.3-1 4.8-1.2 10.3-.7 12 .1.2-.4 1.3 5.2 4.8 3.7 2.3 7.4 4.9 11.9 7.3 6.4 3.5 11.9 6.6 13.8 8.3 3.9 3.6 15.3 4.7 19.6 1.9l1.4-.9c27.1-17.4 32-22.1 32.9-22.9.6-1.4.2-9.8-.7-14.8-.6-3.7-.2-7.2-.3-9.1-.3-5.3 1.9-22.6 2.1-24.1 0-3-.3-8.7-1.4-13.9-1.3-6.4-5.6-13.1-11.5-18-7.7-6.5-18-9.9-29.9-9.9-20.3 0-33.2 7.4-39.4 22.6-2.2 5.8-2.9 14.5-3.1 19.2z" fill="#000000" stroke-width="none" opacity="1"></path></g></g><g id="svga-group-mouth-single-move" transform="matrix(1,0,0,1,0,0)"><g id="svga-group-mouth-single" transform="matrix(1,0,0,1,0,0)"><path id="SvgjsPath63067" d="M102.68 115.84c.3-.15.04-.6-.26-.45-1.74.85-3.69.67-5.26-.46-.27-.2-.54.26-.26.45 1.71 1.24 3.88 1.39 5.78.46z" fill="#000000" stroke-width="none" opacity="1"></path><path id="SvgjsPath63068" d="M110.61 127.19c-2.82 2.89-6.6-.25-9.77-.5-1.16-.09-2.07.2-3.12.62-1.01.41-1.97.96-3.11.89-2.25-.14-3.67-1.9-3.86-4.03-.03-.33-.55-.34-.52 0 .37 4.14 4.04 5.21 7.44 3.75 3.47-1.49 5.68.41 9.02.92 1.63.25 3.14-.08 4.3-1.27.23-.26-.14-.63-.38-.38z" fill="#000000" stroke-width="none" opacity="1"></path><path id="SvgjsPath63069" d="M111.26 119.55c-1.27 1.06-2.88 1.56-4.53 1.22-.87-.18-1.7-.9-2.63-.82-.48.04-.83.31-1.21.55-1.24.78-2.25 1.37-3.77 1.04-1.49-.32-2.49-2.01-4.08-1.48-1.13.38-1.79 1.07-3.11 1.13-1.49.07-2.87-.44-4-1.39-.51-.43-1.26.31-.74.74 1.54 1.3 3.45 1.95 5.48 1.62 1.54-.25 2.45-1.35 4.08-.56.9.44 1.52.92 2.59 1.05.94.11 1.9-.01 2.77-.39.37-.16.72-.51 1.08-.65 1.74-.67 1.74-.25 2.99.1 2.11.58 4.2-.04 5.84-1.41.49-.45-.25-1.18-.76-.75z" fill="#000000" stroke-width="none" opacity="1"></path></g></g><g id="svga-group-eyes-left-move" transform="matrix(1,0,0,1,0,0)"><g id="svga-group-eyes-left" transform="matrix(1,0,0,1,0,0)"><g id="svga-group-eyesback-left"></g><g id="svga-group-eyesiriswrapper-left"><g id="svga-group-eyesiriscontrol-left" transform="matrix(1,0,0,1,0,0)"><g id="svga-group-eyesiris-left" transform="matrix(1,0,0,1,0,0)"><path id="SvgjsPath63245" d="M75 84.3c-1.5 1.9-1.3 4.5.4 6 1.8 1.7 4.9 2.1 7.1.1 1.1-1.1 1.9-2.3 1.5-3.7-.1-.5-.7-3-2.1-3.8-2.5-1.4-5.1-.9-6.9 1.4z" fill="#ffffff" stroke-width="none" opacity="1"></path><path id="SvgjsPath63246" d="M79.1 92.1c-1.5 0-2.9-.6-3.9-1.5-1.8-1.7-2-4.4-.4-6.4 1.9-2.4 4.7-3 7.3-1.5 1.3.8 2 2.9 2.3 4.1.3 1.4-.2 2.7-1.6 4-1.2.8-2.4 1.3-3.7 1.3zm-3.9-7.6c-1.4 1.7-1.2 4.1.4 5.6 1.7 1.5 4.7 2 6.6.1 1.2-1.2 1.7-2.3 1.4-3.4-.4-1.8-1.1-3.2-2-3.6-2.2-1.4-4.6-.9-6.4 1.3zm4 6.3c-1.1 0-2.2-.4-3-1.2-1.4-1.3-1.5-3.4-.3-4.9 1.4-1.8 3.6-2.2 5.5-1.1 1 .6 1.5 2.2 1.7 3.1.2 1-.2 2-1.2 3-.8.8-1.8 1.1-2.7 1.1zm-2.9-5.7c-1 1.2-.9 3 .3 4 1.2 1.1 3.4 1.5 4.8.1.9-.8 1.2-1.7 1.1-2.4-.3-1.3-.8-2.3-1.4-2.7-1.8-.9-3.5-.5-4.8 1zm4.9 1.3c0-.2-.1-.4-.2-.6-.4-.8-1.3-1.1-2.1-.9.2.2.2.4.2.7 0 .2 0 .3-.1.4 0 .1-.1.2-.2.3-.2.2-.5.3-.8.3-.3 0-.6-.1-.8-.3l-.2-.2c-.1.2-.2.5-.2.7 0 .3.1.5.3.7 0 .2.1.3.2.4.5.9 1.6 1.1 2.5.7h.2c-.2-.3 0-.8.5-.8.2 0 .4.1.4.2.1-.1.1-.1.1-.2.4-.4.4-.9.2-1.4zm.9.9c0-.7-.2-1.9-.9-2.5-1.3-1.1-2.9-1.1-4.3.1-1.1 1-1.3 2.6-.4 3.7.6.8 1.6 1.3 2.6 1.3.5 0 1.1-.1 1.6-.5 1-.6 1.4-1.2 1.4-2.1zM81 88.7c0 .2-.2.3-.5.3-1.3.8-2.8.3-3.6-.7-.6-.8-.6-1.9 0-2.7v-.1c0-.2 0-.3.1-.4 0-.1.1-.2.2-.3.2-.2.5-.3.8-.3.2 0 .3 0 .5.1.8-.2 1.7-.1 2.4.6.4.3.7 1.1.7 2.2 0 .4-.2.9-.6 1.3z" fill="#000000" stroke-width="none" opacity="1"></path></g></g></g><g id="svga-group-eyesfront-left"><path id="SvgjsPath63167" d="M79.02 72.12c-8.18 0-14.81 6.63-14.81 14.81s6.63 14.81 14.81 14.81 14.81-6.63 14.81-14.81-6.63-14.81-14.81-14.81zm9.11 18.2c-.44.44-7.93 2.84-9.02 2.97-1.09.14-5.74 1.16-8.41.41-2.67-.74-4.27-1.7-4.27-1.7s2.9-3.76 4.78-5.26c1.88-1.5 4.58-3.55 5.13-3.55s4.68.1 6.25.65c1.57.55 4.14 2.29 4.82 3.32.68 1.01 1.16 2.72.72 3.16z" fill="#ffffff" stroke-width="none" opacity="1"></path><path id="SvgjsPath63168" d="M89.35 93c-.19-.29-.44-.54-.7-.78.05-.06.1-.11.11-.13.01-.01.02-.03.03-.05.06.04.11.08.18.11.16.07.39-.09.26-.26-.27-.38-.6-.7-.87-1.08.24-.16.4-.32.48-.47.77-1.54-1.72-5.07-3.98-6.3-.38-.21-.86-.38-1.39-.53.12-.23.23-.45.36-.66.09-.14-.13-.32-.24-.18-.18.23-.39.47-.58.72-1.08-.26-2.3-.42-3.37-.51.36-.38.66-.86.94-1.27.02-.03.02-.06.02-.09.4-.07.83-.13 1.26-.18-.16.35-.36.7-.51 1.06-.05.11.09.25.18.14.28-.33.46-.71.61-1.12.02-.04.01-.08-.02-.11 2.35-.24 4.82-.17 5.16-.12.28.05.57-.14.63-.42.06-.28-.1-.56-.39-.63-.5-.12-7.76-.35-9.99 1.35-.31.24-.77.56-1.33.96-3.3 2.33-9.45 6.67-10.89 10.65-.1.28.04.59.32.69.06.02.12.03.18.03.07 0 .14-.04.21-.06.35.29.77.53 1.13.78.5.34 1.01.71 1.57.94.19.08.32-.2.19-.33-.42-.43-.97-.77-1.47-1.11-.35-.24-.69-.51-1.06-.71.1-.25.22-.5.36-.76 1.23.98 5.02 1.97 7.57 1.97.28 0 .55-.01.8-.04 1.64-.17 10.04-1.93 12.85-3.44.04.08.08.16.12.23-.05.03-.1.06-.14.11-.04.04-3.8 4.44-6.43 5.43-.28.1-.42.42-.31.69.08.21.29.35.5.35.06 0 .13-.01.19-.04 1.19-.45 2.52-1.46 3.69-2.51.04.06.08.12.12.17.1.12.31-.01.26-.15-.03-.09-.07-.18-.12-.26l.44-.41c.13.19.27.37.47.51.11.08.22-.07.17-.17-.1-.21-.23-.41-.35-.61.17-.17.34-.33.49-.49.14.17.29.32.49.46.08.05.19-.05.13-.13-.13-.19-.24-.4-.36-.6.13-.13.26-.27.37-.39.12.19.25.37.42.51.16.14.37-.03.29-.22-.1-.23-.25-.42-.41-.61.1-.11.21-.22.29-.31.24.28.51.52.85.65.16.04.3-.14.22-.27zM79.33 81.81c.26-.08.54-.15.84-.21-.33.42-.69.82-1 1.25l-.56-.03c.27-.31.51-.67.72-1.01zm8.53 8.06c-.65.84-9.58 3.22-12.87 3.56-2.82.3-7.26-1.18-7.67-1.76 0-.01-.01-.01-.02-.02 2.18-3.1 6.7-6.35 9.25-8.15v.03c.09.27.37.42.64.35.44-.06 3.27.02 5.43.52.03.03.08.04.12.03.61.15 1.16.33 1.58.56 2.07 1.13 3.92 4.13 3.54 4.88z" fill="#000000" stroke-width="none" opacity="1"></path></g></g></g><g id="svga-group-eyes-right-move" transform="matrix(1,0,0,1,0,0)"><g id="svga-group-eyes-right" transform="matrix(1,0,0,1,0,0)"><g id="svga-group-eyesback-right"></g><g id="svga-group-eyesiriswrapper-right"><g id="svga-group-eyesiriscontrol-right" transform="matrix(1,0,0,1,0,0)"><g id="svga-group-eyesiris-right" transform="matrix(1,0,0,1,0,0)"><path id="SvgjsPath63247" d="M116.9 84.3c-1.5 1.9-1.3 4.5.4 6 1.8 1.7 4.9 2.1 7.1.1 1.1-1.1 1.9-2.3 1.5-3.7-.1-.5-.7-3-2.1-3.8-2.4-1.4-5-.9-6.9 1.4z" fill="#ffffff" stroke-width="none" opacity="1"></path><path id="SvgjsPath63248" d="M121.1 92.1c-1.5 0-2.9-.6-3.9-1.5-1.8-1.7-2-4.4-.4-6.4 1.9-2.4 4.7-3 7.3-1.5 1.3.8 2 2.9 2.3 4.1.3 1.4-.2 2.7-1.6 4-1.2.8-2.5 1.3-3.7 1.3zm-3.9-7.6c-1.4 1.7-1.2 4.1.4 5.6 1.7 1.5 4.7 2 6.6.1 1.2-1.2 1.7-2.3 1.4-3.4-.4-1.8-1.1-3.2-2-3.6-2.3-1.4-4.7-.9-6.4 1.3zm3.9 6.3c-1.1 0-2.2-.4-3-1.2-1.4-1.3-1.5-3.4-.3-4.9 1.4-1.8 3.6-2.2 5.5-1.1 1 .6 1.5 2.2 1.7 3.1.2 1-.2 2-1.2 3-.8.8-1.7 1.1-2.7 1.1zm-2.8-5.7c-1 1.2-.9 3 .3 4 1.2 1.1 3.4 1.5 4.8.1.9-.8 1.2-1.7 1.1-2.4-.3-1.3-.8-2.3-1.4-2.7-1.8-.9-3.6-.5-4.8 1zm4.9 1.3c0-.2-.1-.4-.2-.6-.4-.8-1.3-1.1-2.1-.9.2.2.2.4.2.7 0 .2 0 .3-.1.4 0 .1-.1.2-.2.3-.2.2-.5.3-.8.3-.3 0-.6-.1-.8-.3l-.2-.2c-.1.2-.2.5-.2.7 0 .3.1.5.3.7 0 .2.1.3.2.4.5.9 1.6 1.1 2.5.7h.2c-.2-.3 0-.8.5-.8.2 0 .4.1.4.2.1-.1.1-.1.1-.2.4-.4.4-.9.2-1.4zm.9.9c0-.7-.2-1.9-.9-2.5-1.3-1.1-2.9-1.1-4.3.1-1.1 1-1.3 2.6-.4 3.7.6.8 1.6 1.3 2.6 1.3.5 0 1.1-.1 1.6-.5 1-.6 1.4-1.2 1.4-2.1zm-1.1 1.4c-.1.2-.2.4-.5.4-1.3.8-2.8.3-3.6-.7-.6-.8-.6-1.9 0-2.7v-.1c0-.2 0-.3.1-.4 0-.1.1-.2.2-.3.2-.2.5-.3.8-.3.2 0 .3 0 .5.1.8-.2 1.7-.1 2.4.6.4.3.7 1.1.7 2.2 0 .3-.2.8-.6 1.2z" fill="#000000" stroke-width="none" opacity="1"></path></g></g></g><g id="svga-group-eyesfront-right"><path id="SvgjsPath63169" d="M120.98 72.12c-8.18 0-14.81 6.63-14.81 14.81s6.63 14.81 14.81 14.81 14.81-6.63 14.81-14.81-6.63-14.81-14.81-14.81zm7.55 21.59c-2.67.75-7.31-.27-8.41-.41-1.09-.14-8.58-2.53-9.02-2.97-.44-.44.03-2.15.72-3.18.68-1.03 3.25-2.77 4.82-3.32 1.57-.55 5.71-.65 6.25-.65s3.25 2.05 5.13 3.55 4.78 5.26 4.78 5.26-1.6.97-4.27 1.72z" fill="#ffffff" stroke-width="none" opacity="1"></path><path id="SvgjsPath63172" d="M133.93 93.1c-1.44-3.99-7.59-8.32-10.89-10.65-.56-.4-1.02-.72-1.33-.96-2.23-1.7-9.49-1.47-9.99-1.35-.28.07-.44.35-.38.63s.34.47.63.42c.17-.03.86-.06 1.79-.05.01.02.01.05.03.06.83.69 1.84 1.56 2.91 2.08-.15.03-.29.07-.43.1-.51-.28-1.07-.53-1.62-.76-.52-.28-1.07-.51-1.59-.77-.12-.06-.22 0-.27.09-.07.05-.1.15 0 .21.02.01.04.02.05.03.01 0 0 .01.01.01.59.41 1.2.83 1.87 1.1.21.12.42.24.63.35-.36.12-.69.25-.96.4-.04.02-.08.05-.12.07-.22-.15-.45-.28-.68-.42-.46-.27-.91-.54-1.37-.82-.22-.13-.4.2-.2.34.44.3.88.61 1.31.92.15.1.29.2.44.3-.17.12-.34.25-.51.4-.21-.16-.44-.3-.65-.44-.51-.34-1.03-.67-1.54-1.01-.2-.13-.46.19-.26.34.48.38.96.77 1.44 1.14.17.13.34.27.52.41-.16.16-.32.32-.47.49-.21-.11-.43-.22-.63-.34-.51-.28-1.02-.55-1.53-.83-.16-.09-.37.15-.21.27.45.35.89.68 1.37.98.2.12.4.26.6.38-.13.16-.26.31-.38.47-.16-.07-.32-.14-.48-.22-.37-.18-.73-.4-1.12-.53-.25-.08-.43.26-.25.43.31.3.73.51 1.12.71.12.06.23.12.35.17-.11.18-.21.35-.3.53-.34-.21-.75-.34-1.13-.45-.11-.03-.19.13-.08.19.35.18.69.41 1.03.61-.08.17-.16.35-.21.52-.12-.05-.24-.1-.37-.15-.08-.03-.14.1-.06.15.13.07.25.13.37.19-.17.58-.19 1.1.01 1.49.09.18.31.37.63.56-.03.1-.05.2-.08.31-.15-.02-.3.01-.42.12-.23.19-.25.53-.06.76.16.19 3.98 4.65 6.87 5.74.06.02.13.04.19.04.22 0 .42-.13.5-.35a.525.525 0 0 0-.31-.69c-1.03-.39-2.23-1.3-3.31-2.27 0-.04.01-.09.01-.13l.15-1.32c.03-.27-.43-.33-.47-.06-.06.36-.11.72-.17 1.07-.25-.23-.5-.47-.73-.7.02-.16.04-.33.07-.49.06-.33.15-.65.26-.97 3.64 1.23 9.28 2.39 10.59 2.53.25.03.51.04.8.04 2.56 0 6.34-.99 7.58-1.97.17.31.32.61.43.91.08.22.29.35.51.35a.518.518 0 0 0 .49-.71zm-12.87-10.75c.17.13.38.28.62.46h-.43c-.4-.34-.91-.56-1.38-.79-.26-.13-.51-.27-.77-.4.83.16 1.54.4 1.96.73zm-5.06-.21c-.56-.3-1.1-.64-1.62-1 .47.01.99.03 1.52.06.49.29.96.59 1.44.9.42.27.87.61 1.36.75.24.07.46-.26.26-.44-.38-.34-.9-.54-1.36-.75-.29-.13-.57-.27-.85-.4.44.04.88.09 1.31.15.69.44 1.46 1.05 2.26 1.41-.74.04-1.61.12-2.49.25-.56-.35-1.24-.61-1.83-.93zm-3.87 9.31c-.04.24-.09.48-.13.73-.24-.25-.43-.47-.54-.6.02-.14.03-.28.04-.41.19.09.4.18.63.28zm.67 1.45c-.01.03-.01.07-.02.1-.16-.16-.31-.32-.45-.46.06-.32.1-.64.15-.95.18.07.38.14.58.22-.11.35-.2.72-.26 1.09zm19.1-1.23c-.4.58-4.85 2.05-7.67 1.76-3.29-.34-12.21-2.71-12.87-3.56-.25-.5.51-2.02 1.66-3.31.01-.01.02-.02.03-.04.55-.61 1.18-1.17 1.84-1.53.53-.29 1.28-.51 2.09-.67.01 0 .01 0 .02.01.08.02.13-.01.17-.04 2.05-.39 4.45-.45 4.84-.4.27.07.55-.09.64-.35v-.03c2.55 1.8 7.07 5.04 9.25 8.15.02 0 .01 0 0 .01z" fill="#000000" stroke-width="none" opacity="1"></path></g></g></g><g id="svga-group-facehighlight-single"></g><g id="svga-group-eyebrows-left-move" transform="matrix(1,0,0,1,0,0)"><g id="svga-group-eyebrows-left-rotate" transform="matrix(1,0,0,1,0,0)"><g id="svga-group-eyebrows-left" transform="matrix(1,0,0,1,0,0)"><path id="SvgjsPath63093" d="M70.6 67.28s-7.13 5.85-7.29 6.25c-.16.4 6.09-1.68 8.42-1.76s16.03 5.77 16.99 5.93c.96.16 2.4-4.01 2.4-4.49s-17.96-7.7-20.52-5.93z" fill="#ffffff" stroke-width="none" opacity="1"></path><path id="SvgjsPath63094" d="m62.73 73.63.21.26c.29.33.55.27 3.24-.44 1.83-.48 4.34-1.14 5.56-1.19 1.49-.07 8.55 2.73 12.77 4.38 2.54 1 3.78 1.48 4.13 1.54.05.01.09.01.14.01.23 0 .46-.1.69-.29 1.03-.87 2.15-4.11 2.15-4.7 0-.37-.34-.54-.69-.73-1.74-.92-17.79-7.54-20.61-5.61l-.03.03c-7.23 5.93-7.38 6.31-7.44 6.45l-.12.29zm5.62-1.76-1.91-.48c.47-.39.96-.81 1.46-1.23l1.88 1.39c-.45.09-.94.2-1.43.32zm5.11-4.23.13 3.98c-.39-.11-.73-.19-1.04-.25l-1.48-3.77c.41-.14 1.19-.14 2.39.04zm.81 4.17-.14-4.06c.56.11 1.2.24 1.92.42l-1.08 3.86c-.25-.08-.48-.15-.7-.22zm1.32.43 1.09-3.9c.54.14 1.12.31 1.74.49l-2.22 3.61c-.2-.06-.41-.13-.61-.2zm1.26.44 2.24-3.64c.29.09.58.18.89.28l-1.7 3.88c-.5-.19-.97-.36-1.43-.52zm4.36-2.96c.31.1.61.21.92.31l-2.26 3.75c-.33-.12-.65-.24-.97-.36l1.71-3.9c.2.07.39.13.6.2zm-.72 4.3 2.27-3.76c.41.15.82.29 1.22.44l-1.82 3.97c-.56-.22-1.12-.44-1.67-.65zm5.43-2.59c-1.37 2.27-1.97 3.33-2.23 3.83-.31-.12-.61-.24-.91-.36l1.83-3.98c.45.18.89.34 1.31.51zm.32 4.83 1.71-4.02c.59.25 1.11.47 1.54.66l-2.2 3.77c-.32-.12-.67-.26-1.05-.41zm1.68.65 2.17-3.73c.2.1.37.18.48.25-.22.9-1.27 3.52-1.82 3.78-.12-.04-.42-.15-.83-.3zm-3.61-1.41c.37-.69 1.31-2.29 2.24-3.83.27.11.53.21.79.32l-1.72 4.03-.75-.3a9.31 9.31 0 0 1-.56-.22zM71.7 71.27c-.29.01-.64.05-1.02.11l-2.26-1.66c.73-.61 1.45-1.2 2.09-1.73l1.29 3.29c-.02-.01-.07-.01-.1-.01zm-6.88 1.51c.29-.25.63-.55 1-.86l1.17.29c-.36.09-.72.19-1.07.28-.36.09-.75.19-1.1.29z" fill="#000000" stroke-width="none" opacity="1"></path></g></g></g><g id="svga-group-eyebrows-right-move" transform="matrix(1,0,0,1,0,0)"><g id="svga-group-eyebrows-right-rotate" transform="matrix(1,0,0,1,0,0)"><g id="svga-group-eyebrows-right" transform="matrix(1,0,0,1,0,0)"><path id="SvgjsPath63095" d="M129.4 67.28s7.13 5.85 7.29 6.25-6.09-1.68-8.42-1.76c-2.32-.08-16.03 5.77-16.99 5.93-.96.16-2.4-4.01-2.4-4.49s17.96-7.7 20.52-5.93z" fill="#ffffff" stroke-width="none" opacity="1"></path><path id="SvgjsPath63096" d="M137.16 73.34c-.06-.14-.21-.52-7.44-6.45l-.03-.03c-2.81-1.93-18.86 4.69-20.61 5.61-.36.19-.69.36-.69.73 0 .59 1.12 3.83 2.15 4.7.23.19.46.29.69.29.05 0 .09 0 .14-.01.34-.06 1.58-.54 4.13-1.54 4.22-1.66 11.28-4.45 12.77-4.38 1.22.04 3.73.7 5.56 1.19 2.69.71 2.95.77 3.24.44l.21-.26-.12-.29zm-6.94-1.8 1.88-1.39c.5.42 1 .83 1.46 1.23l-1.91.48-1.43-.32zm-1.3-3.94-1.48 3.77c-.3.06-.65.14-1.04.25l.13-3.98c1.21-.18 1.99-.18 2.39-.04zm-3.88 4.43-1.08-3.86c.72-.18 1.35-.32 1.92-.42l-.14 4.06c-.23.07-.46.14-.7.22zm-1.25.42-2.22-3.61c.62-.19 1.2-.35 1.74-.49l1.09 3.9c-.19.06-.4.13-.61.2zm-2.07.74-1.7-3.88c.31-.1.6-.19.89-.28l2.24 3.64c-.46.17-.93.34-1.43.52zm-2.33-3.67 1.71 3.9c-.32.12-.64.24-.97.36l-2.26-3.75c.3-.11.61-.21.92-.31.21-.07.4-.13.6-.2zm-1.55 5.15-1.82-3.97c.4-.15.8-.29 1.22-.44l2.27 3.76c-.55.21-1.11.43-1.67.65zm-2.45-3.74 1.83 3.98c-.3.12-.6.24-.91.36-.26-.5-.86-1.56-2.23-3.83.42-.18.86-.34 1.31-.51zm-2.69 5.74-2.2-3.77c.43-.19.94-.41 1.54-.66l1.71 4.02c-.37.15-.72.29-1.05.41zm-1.46.53c-.55-.26-1.6-2.87-1.82-3.78.12-.07.28-.15.48-.25l2.17 3.73c-.4.16-.7.27-.83.3zm3.89-1.48c-.25.1-.51.2-.75.3l-1.72-4.03c.25-.1.51-.21.79-.32.93 1.54 1.88 3.14 2.24 3.83-.18.08-.37.15-.56.22zm13.06-4.45 1.29-3.29c.65.53 1.37 1.13 2.09 1.73l-2.26 1.66c-.38-.06-.73-.1-1.02-.11-.02.01-.07.01-.1.01zm5.89 1.22c-.34-.09-.7-.18-1.07-.28l1.17-.29 1 .86c-.35-.1-.74-.2-1.1-.29z" fill="#000000" stroke-width="none" opacity="1"></path></g></g></g><g id="svga-group-beardwrap" transform="matrix(1,0,0,1,0,0)"><g id="svga-group-beard-single-move" transform="matrix(1,0,0,1,0,0)"><g id="svga-group-beard-single" transform="matrix(1,0,0,1,0,0)"><path id="SvgjsPath63083" d="M58.9 90.5c-.9-2.8-4-2.4-5.1 4.1s-.9 15.9-.7 22.5 3 27.6 4.4 34c1.4 6.3 4 12.9 5.3 13.1s2.3 11.4 5.8 14.3 6.9 11.7 12.1 12.9c5.1 1.2 4.4 4.5 8.3 5.5 3.9 1 14.6 1.8 16.5-.6s8.1-3.3 11.1-6.8 13.2-11.7 15.1-18.8c1.9-7.2 5.5-4.7 8.3-29.9 0 0 4.5-4.9 5-20.5s1.7-29.5-.6-31.3-4.4-.5-5.5 2.6c-3.7 10.9-8.8 17.2-11.8 24.3s-9.1 13.8-19.4 17.2c-9.3 3-19.5-1.2-23-3.7s-13.9-12.9-19.2-23.8c-5.5-10.8-5.9-13.1-6.6-15.1z" fill="#ffffff" stroke-width="none" opacity="1"></path><path id="SvgjsPath63084" d="M144.7 88.6c-1.3-1.1-2.5-1.1-3.2-.9-1.4.3-2.5 1.7-3.2 3.7-2.2 6.6-5 11.6-7.5 15.9-1.6 2.8-3.1 5.5-4.3 8.3-2.4 5.6-7.6 13.1-19.1 16.9-9 2.9-19-1.2-22.5-3.6-3.2-2.3-13.7-12.7-19.1-23.6-4.7-9.5-5.6-12.4-6.2-14.3-.1-.3-.2-.5-.3-.8C59 89 58 88.3 57 88.3c-1.8.1-3.1 2.3-3.8 6.2-1.1 6.2-1 14.9-.7 22.6.2 6.8 3.1 27.9 4.4 34 .9 4.2 3.5 12.9 5.7 13.5.4.4.9 2.4 1.3 4.1.9 3.7 2.1 8.3 4.3 10.1 1.2 1 2.5 2.9 3.9 4.9 2.3 3.4 5 7.3 8.4 8.1 2.5.6 3.5 1.7 4.5 2.9.9 1 1.8 2.1 3.8 2.6 1.8.5 5.8 1 9.5 1 3.4 0 6.5-.5 7.6-1.8.8-1 2.6-1.8 4.5-2.6 2.3-1 5-2.1 6.6-4.1.7-.8 1.9-1.9 3.2-3.2 4.2-4.1 10.5-10.2 12-15.8 0-.1.1-.3.1-.4.1-.1.1-.1.1-.2v-.1c.5-1.7 1.1-2.8 1.9-4.1 1.9-3.4 4.3-7.5 6.2-25 .7-.9 4.6-6.2 5-20.7.1-3.4.2-6.7.4-9.9.5-13.3.7-20.3-1.2-21.8zm0 21.8c-.1 3.2-.3 6.5-.4 9.9-.2 7.4-1.4 12.4-2.5 15.6.2-3.1-.2-6.3-1.2-9.3-.1-.2-.3-.3-.5-.2-.2.1-.4.3-.3.5 1.1 3.2 1.4 6.5 1.1 9.8 0 .2.1.4.4.4h.2c-1 2.4-1.9 3.4-1.9 3.4l-.1.1v.1c-1.3 12-2.9 17.7-4.3 21.1-.1-4.3-.6-8.7-1.6-12.9-.1-.2-.3-.3-.5-.3s-.4.2-.3.4c1 4.4 1.6 9 1.6 13.5 0 .2.1.3.3.4-.5 1-.9 1.8-1.4 2.5-.3.6-.6 1.1-.9 1.8-.2-3.5-.7-6.9-1.6-10.3-.1-.2-.3-.3-.5-.3-.2.1-.4.2-.3.4 1 3.9 1.5 8 1.6 12-.1.4-.3.9-.4 1.4-.4 1.4-1 2.8-1.9 4.2.4-4.8-.1-9.6-1.3-14.2-.1-.2-.3-.3-.5-.3-.2.1-.4.2-.3.4 1.3 5.1 1.7 10.2 1.1 15.4v.1c-2.5 3.6-6.1 7-8.8 9.6-1 .9-1.8 1.8-2.5 2.5.3-1.2.3-2.5.1-3.7 0-.2-.2-.4-.5-.3-.2 0-.4.2-.3.4.3 1.6.1 3.2-.5 4.7v.2c-.5.5-1.2 1-1.8 1.4.5-2.3.5-4.6.1-6.9 0-.2-.2-.3-.5-.3-.2 0-.4.2-.3.4.4 2.4.4 4.8-.2 7.1v.2c-.8.4-1.6.8-2.4 1.1l.5-3.9c0-.2-.2-.4-.4-.4s-.4.1-.5.3l-.5 4.4c-1.9.8-3.7 1.6-4.6 2.9-1.2 1.5-7.2 1.6-11.9 1.1 0-.1 0-.2-.1-.2-2-2.2-3.1-5-3.2-7.8 0-.2-.2-.4-.4-.4s-.4.2-.4.4c.1 2.8 1.2 5.6 3.1 7.9-1.1-.1-2.1-.3-2.9-.5-1.7-.4-2.4-1.3-3.2-2.3-.7-.8-1.5-1.7-2.8-2.4l-.8-4.9c0-.2-.2-.4-.5-.3-.2 0-.4.2-.4.4l.7 4.3c-.4-.2-.8-.3-1.3-.4h.1c.2-.1.3-.3.2-.5-2.1-3-3.2-6.5-3.2-10 0-.2-.2-.4-.4-.4s-.4.2-.4.4c0 3.6 1.2 7.2 3.3 10.3-1.3-.5-2.5-1.5-3.6-2.7h.1c.1 0 .2 0 .2-.1.2-.1.2-.3.1-.5-.8-1.1-1.3-2.4-1.3-3.7 0-.2-.2-.4-.4-.4s-.4.2-.4.4c.1 1.3.5 2.6 1.2 3.7-.6-.7-1.2-1.5-1.8-2.3-1.4-4.8-2.1-9.8-2.1-14.7 0-.2-.2-.4-.4-.4s-.4.2-.4.4c0 4.3.6 8.5 1.6 12.7-1.2-1.8-2.4-3.5-3.6-4.6v-.2c-1.9-7.6-2.9-15.4-3-23.2 0-.2-.2-.4-.4-.4s-.4.2-.4.4c.1 7.5 1 15 2.7 22.3-1.6-2-2.6-5.9-3.3-8.9-.9-3.5-1.2-4.8-2.1-4.9-.9-.3-3.4-5.8-4.9-12.7-1.3-6.1-4.2-27.1-4.4-33.9-.3-7.6-.4-16.3.7-22.4.7-4.1 2.1-5.3 2.8-5.3.5 0 .9.5 1.2 1.3.1.2.2.5.3.8.4 1.2.9 2.7 2.3 5.9-.2 0-.3.1-.4.3-1.3 4.1-1.9 8.4-1.7 12.7 0 .2.2.4.4.4s.4-.2.4-.4c-.1-4.1.4-8.2 1.6-12.1.9 1.9 2 4.4 3.6 7.7 5.4 11.1 16.1 21.6 19.4 24 3.6 2.5 14.1 6.8 23.6 3.8 11.9-3.8 17.3-11.6 19.8-17.4 1.2-2.8 2.7-5.4 4.2-8.3 1.6-2.8 3.3-5.9 5-9.6l1.5 4.6c.1.2.2.3.4.3h.1c.2-.1.4-.3.3-.5l-1.6-4.9c-.1-.2-.2-.3-.4-.3.8-1.8 1.5-3.7 2.2-5.7.6-1.7 1.5-2.8 2.4-3.1.7-.2 1.4.1 2.1.7 1.3 1.4.9 11 .4 21.2zM56.6 94.6c-.2 0-.5.1-.5.3-1.3 7-1.6 14.1-.9 21.2 0 .2.2.3.4.3s.4-.2.4-.4c-.7-7-.4-14.1.9-21 .1-.2-.1-.4-.3-.4zm2.8 44.4c.1 0 .1 0 0 0 .3 0 .5-.2.4-.4-1.2-7.8-1.5-15.8-.7-23.7 0-.2-.2-.4-.4-.4s-.4.1-.5.3c-.7 7.9-.5 16 .7 23.8.1.2.3.4.5.4zm2.5-.9c0-.2-.2-.4-.4-.4s-.4.2-.4.4c-.1 7.6.6 15.3 2.1 22.9 0 .2.2.3.4.3h.1c.2 0 .4-.2.3-.4-1.5-7.6-2.2-15.2-2.1-22.8zm22.4 46.7c0-.2-.2-.4-.4-.4s-.4.2-.4.4c.3 3.6 1.6 7.1 3.9 10.1.1.1.2.2.3.2.1 0 .2 0 .2-.1.2-.1.2-.4.1-.5-2.1-2.8-3.4-6.2-3.7-9.7zm11 5.6c0-.2-.2-.4-.4-.3-.2 0-.4.2-.4.4.2 2.4 1.5 4.8 3.4 6.5.1.1.2.1.3.1.1 0 .2 0 .3-.1.2-.1.2-.4 0-.5-1.8-1.6-3-3.8-3.2-6.1zm6.4-.4c0-.2-.1-.4-.4-.4-.2 0-.4.1-.5.3-.2 1.9.2 3.9 1.2 5.6.1.1.2.2.4.2h.2c.2-.1.3-.3.2-.5-1-1.6-1.4-3.5-1.1-5.2zm5.9-6.5c-.2 0-.4.2-.4.4.1 3.2-.2 6.4-.9 9.6-.1.2.1.4.3.4h.1c.2 0 .4-.1.4-.3.7-3.2 1-6.5.9-9.8 0-.1-.2-.3-.4-.3zm10.4-10.2c-.2 0-.4.2-.4.4.6 3.7.8 7.6.5 11.3 0 .2.2.4.4.4s.4-.1.4-.4c.3-3.8.1-7.7-.5-11.5 0 0-.2-.2-.4-.2zm4.9.3c-.2 0-.4.1-.4.4l-.5 7.3c0 .2.2.4.4.4s.4-.1.4-.4l.5-7.3c0-.2-.2-.4-.4-.4zm11.7-32.5c-.2 0-.4.2-.4.4l1.2 9.9c0 .2.2.3.4.3h.1c.2 0 .4-.2.4-.4l-1.2-9.9c0-.2-.2-.3-.5-.3zm1-11.4c-.2.1-.3.3-.3.5 1.5 4 2.4 8.1 2.8 12.3 0 .2.2.3.4.3s.4-.2.4-.4c-.4-4.2-1.4-8.4-2.9-12.5 0-.1-.2-.3-.4-.2zm3.2-24.4c-.2.1-.4.2-.3.4 1.6 6 2.7 12.2 3.1 18.3 0 .2.2.3.4.3s.4-.2.4-.4c-.5-6.2-1.5-12.4-3.1-18.5-.1-.1-.3-.2-.5-.1zm3.9-14.4c-.2 0-.4.2-.4.4.6 3.3.7 6.8.5 10.1-.2-1.5-.5-3-.9-4.5-.1-.2-.3-.3-.5-.3-.2.1-.4.2-.3.4 1.1 3.8 1.5 7.7 1.5 11.6 0 .2.2.4.4.4s.4-.2.4-.4c.1-2.1-.1-4.2-.4-6.2.1 0 .1.1.2.1.2 0 .4-.2.4-.3.3-3.7.1-7.4-.5-11 .1-.1-.2-.3-.4-.3zm-81.6 36.4c.2 0 .4-.2.4-.4-.1-5.4.5-10.8 1.6-16.2 0-.2-.1-.4-.3-.4s-.5.1-.5.3c-1.2 5.4-1.7 10.8-1.6 16.3 0 .3.2.4.4.4zm-1.8 14.2c0-.2-.2-.4-.4-.4s-.4.1-.4.4c-.2 4.3.2 8.6 1.4 12.7 0 .2.2.3.4.3h.1c.2-.1.4-.2.3-.5-1.1-4.1-1.6-8.3-1.4-12.5zm4.6-16.8c-1.2 4.2-1.9 8.4-2.1 12.7 0 .2.2.4.4.4s.4-.2.4-.4c.2-4.2.9-8.4 2.1-12.6.1-.2-.1-.4-.3-.5-.2 0-.4.1-.5.4zm1.6 10.6c-.2 0-.4.1-.4.4L64 150.2c0 .2.2.4.4.4s.4-.1.4-.4l1.1-14.5c0-.2-.2-.4-.4-.4zm3.8 10.4c-.2 0-.4.2-.4.4l-.1 7.5c0 .2.2.4.4.4s.4-.2.4-.4l.1-7.5c0-.2-.2-.4-.4-.4zm1 11.4c-.2 0-.4.2-.4.4l-.1 12.8c0 .2.2.4.4.4s.4-.2.4-.4l.1-12.8c.1-.2-.1-.4-.4-.4zm4.9 9.9c0-.2-.2-.4-.4-.4s-.4.1-.4.3c-.4 4.1-.3 8.2.4 12.2 0 .2.2.3.4.3h.1c.2 0 .4-.2.4-.4-.7-4-.8-8-.5-12zm5.1 8.3c.1-.2-.1-.4-.3-.4-.2 0-.4.1-.5.3-.7 3.2-.4 6.5.7 9.6.1.2.2.3.4.3h.1c.2-.1.3-.3.3-.5-1.1-3.1-1.3-6.3-.7-9.3zm3.6 9h.1c.2-.1.3-.3.3-.5-.7-1.8-.8-3.8-.3-5.6.1-.2-.1-.4-.3-.4s-.4.1-.5.3c-.5 2-.4 4.1.3 6 .1.1.3.2.4.2zm2.9-6.1c-.2 0-.4.2-.4.4l1.1 11.1c0 .2.2.3.4.3s.4-.2.4-.4l-1.1-11.1c.1-.2-.1-.3-.4-.3zm4.7 4.3c0-.2-.2-.4-.4-.4s-.4.2-.4.4c-.1 2.6.4 5.2 1.4 7.7.1.1.2.2.4.2h.2c.2-.1.3-.3.2-.5-1-2.4-1.5-5-1.4-7.4zm4.2 1.3c-.2 0-.4.2-.4.4l.8 5.6c0 .2.2.3.4.3h.1c.2 0 .4-.2.4-.4l-.8-5.6c-.1-.2-.3-.3-.5-.3zm3.9-4.2c-.2 0-.4.2-.4.4l.5 8.7c0 .2.2.4.4.4s.4-.2.4-.4l-.5-8.7c0-.2-.2-.4-.4-.4zm4.4.8c-.2 0-.4.2-.4.4l.8 8.5c0 .2.2.3.4.3s.4-.2.4-.4l-.8-8.5c.1-.2-.1-.3-.4-.3zm5.7-2.5c-.2 0-.4.2-.4.4l.3 7.3c0 .2.2.4.4.4s.4-.2.4-.4l-.3-7.3c.1-.2-.2-.4-.4-.4zm4.4-4.1c-.2 0-.4.2-.4.4l.6 8.5c0 .2.2.4.4.4s.4-.2.4-.4l-.6-8.5c0-.2-.2-.4-.4-.4zm5.5-6.5c-.2 0-.4.2-.4.4l.8 5.8c0 .2.2.3.4.3h.1c.2 0 .4-.2.4-.4l-.8-5.8c0-.2-.2-.3-.5-.3zm3.3-5.1c-.2 0-.4.2-.4.4.6 3.3.8 6.7.5 10.1 0 .2.2.4.4.4s.4-.2.4-.4c.2-3.4 0-6.9-.6-10.2.1-.2-.1-.3-.3-.3zm2.8 3.2c.3 0 .4-.2.4-.4-.1-2.6-.6-5.1-1.4-7.6-.1-.2-.3-.3-.5-.3-.2.1-.3.3-.3.5.8 2.4 1.2 4.9 1.4 7.4 0 .2.2.4.4.4zm1.5-13.6c-.2 0-.4.2-.4.4l1 7.3c0 .2.2.3.4.3h.1c.2 0 .4-.2.4-.4l-1-7.3c-.1-.2-.3-.4-.5-.3zm2-5.4c-.2.1-.3.3-.3.5 1 2.6 1.5 5.4 1.5 8.1 0 .2.2.4.4.4s.4-.2.4-.4c0-2.9-.5-5.7-1.6-8.4.1-.1-.1-.2-.4-.2zm1.3-7.4c-.2.1-.3.3-.2.5.8 1.4 1.3 3.1 1.3 4.7 0 .2.2.4.4.4s.4-.2.4-.4c-.1-1.7-.5-3.5-1.4-5-.1-.3-.3-.3-.5-.2zm.7-10c-.2.1-.3.3-.2.5 1 2.5 1.5 5.2 1.4 7.9 0 .2.2.4.4.4s.4-.2.4-.4c.1-2.8-.4-5.6-1.5-8.2 0-.2-.3-.3-.5-.2zm3.8-2.2c.2 0 .4-.2.4-.4-.1-2.8-.8-5.6-2.1-8.2-.1-.2-.4-.3-.6-.2s-.3.3-.2.5c1.3 2.4 2 5.2 2 7.9.1.3.3.4.5.4zm5.8-30.7s.1 0 0 0c.3 0 .5-.2.4-.4l-.6-3.6c0-.2-.2-.3-.5-.3-.2 0-.4.2-.4.4l.5 3.6c.2.1.4.3.6.3zm-79 13.5c.1 0 .1 0 0 0 .3 0 .5-.1.5-.3l1.1-3.9c.1-.2-.1-.4-.3-.5-.2 0-.5.1-.5.3l-1.1 3.9c0 .3.1.5.3.5zm2.5 8c.1 0 .1 0 0 0 .3 0 .5-.1.5-.3.4-1.9 1.1-3.8 2.2-5.4.1-.2 0-.4-.2-.5s-.5 0-.6.2c-1.1 1.8-1.9 3.7-2.2 5.7 0 .1.1.3.3.3zm4.1 2c-.2-.1-.5 0-.5.2-1.2 2.8-2.1 5.8-2.5 8.8 0 .2.1.4.4.4h.1c.2 0 .4-.1.4-.3.4-2.9 1.3-5.9 2.5-8.6 0-.2-.1-.4-.4-.5zm.7 13.5c.1-.2-.1-.4-.3-.5-.2-.1-.5.1-.5.3-1 3.2-1.5 6.5-1.3 9.8 0 .2.2.4.4.4s.4-.2.4-.4c-.1-3.3.3-6.5 1.3-9.6zm3.4 16.5c-.2-.1-.4.1-.5.3-.6 2.4-.8 4.8-.6 7.1 0 .2.2.3.4.3h.1c.2 0 .4-.2.4-.4-.2-2.3-.1-4.6.5-6.9 0-.1-.1-.3-.3-.4zm3.2 7.3c-.2 0-.4.1-.4.4l-.6 7.5c0 .2.2.4.4.4s.4-.1.4-.4l.6-7.5c0-.2-.2-.4-.4-.4zm3.4 6.5c.1-.2-.1-.4-.3-.4-.2 0-.4.1-.5.3-.7 3.1-.7 6.3 0 9.4.1.2.2.3.4.3h.1c.2 0 .4-.2.3-.4-.7-3.1-.7-6.3 0-9.2zm5.2 5.6c-.2 0-.4.1-.5.3-.7 2.5-.8 5.1-.3 7.7 0 .2.2.3.4.3h.1c.2 0 .4-.2.3-.4-.5-2.4-.4-5 .3-7.4.1-.3-.1-.5-.3-.5zm3.5 2.6c-.2 0-.4.2-.4.4l.7 7c0 .2.2.3.4.3s.4-.2.4-.4l-.7-7c0-.1-.2-.3-.4-.3zm4.3 9.5s.1 0 0 0c.3 0 .5-.2.4-.4l-1.1-6.1c0-.2-.2-.3-.5-.3-.2 0-.4.2-.3.4l1.1 6.1c0 .2.2.3.4.3zm4.2.8c.3 0 .4-.2.4-.4l-.8-9.9c0-.2-.2-.4-.4-.4s-.4.2-.4.4l.8 9.9c0 .2.2.4.4.4zm4.7-2.5c.2 0 .4-.2.4-.4l-.3-5.8c0-.2-.2-.4-.4-.4s-.4.2-.4.4l.3 5.8c0 .3.2.4.4.4zm4.4-8.2c-.2 0-.4.2-.4.4v7.3c0 .2.2.4.4.4s.4-.2.4-.4v-7.3c0-.3-.2-.4-.4-.4zm2.1-5.1c-.2 0-.4.2-.4.4l.5 8.5c0 .2.2.4.4.4s.4-.2.4-.4l-.5-8.5c0-.3-.1-.4-.4-.4zm5.3-1.2c-.2 0-.4.1-.4.4l-.3 7c0 .2.2.4.4.4s.4-.2.4-.4l.3-7c0-.2-.2-.4-.4-.4zm3.4-3.4c-.2 0-.4.2-.4.4l.6 7.8c0 .2.2.4.4.4s.4-.2.4-.4l-.6-7.8c0-.3-.2-.5-.4-.4zm2.7-7.6c-.2 0-.4.2-.4.4l1 6.8c0 .2.2.3.4.3h.1c.2 0 .4-.2.4-.4l-1-6.8c0-.1-.2-.3-.5-.3zm3.7 4.9c.3 0 .4-.2.4-.4l-.4-9c0-.2-.2-.3-.4-.4-.2 0-.4.2-.4.4l.4 9c0 .3.1.4.4.4zm.8-15.3c.8 2.4 1.3 4.9 1.3 7.4 0 .2.2.4.4.4s.4-.2.4-.4c-.1-2.6-.5-5.1-1.4-7.6-.1-.2-.3-.3-.5-.2-.2 0-.3.2-.2.4zm2.7-8.7c-.2.1-.3.3-.2.5 1.3 2.7 2 5.6 2.2 8.6 0 .2.2.4.4.4s.4-.2.4-.4c-.2-3.1-.9-6-2.2-8.9-.2-.1-.4-.2-.6-.2zm1.9 2.7c.1.2.2.3.4.3h.1c.2-.1.4-.2.3-.4l-2-7.8c-.1-.2-.3-.3-.5-.3-.2.1-.4.2-.3.4l2 7.8zm1.2-8.2-1.6-6.3c-.1-.2-.3-.3-.5-.3-.2.1-.4.2-.3.4l1.6 6.3c.1.2.2.3.4.3h.1c.2 0 .4-.2.3-.4zm.8-4.9c.1.2.2.3.4.3h.1c.2-.1.4-.3.3-.5l-1.9-6.3c-.1-.2-.3-.3-.5-.3s-.4.3-.3.5l1.9 6.3zm2.4-8.5c.1.2.2.3.4.3h.1c.2-.1.4-.3.3-.5l-1.1-3.2c-.1-.2-.3-.3-.5-.2s-.4.3-.3.5l1.1 3.1zm2.7-5.9c-.1-.1-.1-.3-.2-.4-.1-.2-.3-.3-.5-.2-.2.1-.3.3-.3.5 1.9 4.7 3 9.5 3.4 14.5 0 .2.2.3.4.3s.4-.2.4-.4c-.4-4.6-1.4-9.1-3-13.4h.1c.2 0 .4-.2.4-.4 0-2-.5-3.9-1.4-5.7-.1-.2-.4-.3-.6-.2-.2.1-.3.3-.2.5 1 1.5 1.5 3.2 1.5 4.9zm-65.5 16.8s.1 0 0 0c.3 0 .5-.1.5-.3l1.8-7.2c.1-.2-.1-.4-.3-.4-.2 0-.4.1-.5.3l-1.8 7.2c-.1.2.1.4.3.4zm-.2 1.7c-.2 0-.4.1-.5.3l-.5 2.4c-.1.2.1.4.3.4h.1c.2 0 .4-.1.4-.3l.5-2.4c.1-.1 0-.3-.3-.4zm2.2 13c-.4-3.8.1-7.6 1.2-11.3.1-.2-.1-.4-.3-.5-.2-.1-.5.1-.5.3-1.2 3.8-1.6 7.6-1.2 11.5 0 .2.2.3.4.3.3.1.4-.1.4-.3zm2.4-2.3c-.2 0-.4.1-.5.3l-1.2 8.2c0 .2.1.4.4.4h.1c.2 0 .4-.1.4-.3l1.2-8.2c0-.2-.1-.4-.4-.4zm1.7 5.8c-.2 0-.4.1-.4.4l-.8 9.4c0 .2.2.4.4.4s.4-.1.4-.4l.8-9.4c0-.2-.1-.4-.4-.4zm2.4 5.9c0-.2-.2-.4-.4-.4-.3 0-.4.2-.4.4l-.3 7.8c0 .2.2.4.4.4s.4-.2.4-.4l.3-7.8zm3.4 3.7c0-.2-.2-.4-.4-.4s-.4.1-.5.3c-.4 3.5-.2 7.1.6 10.5.1.2.2.3.4.3h.1c.2 0 .4-.2.3-.4-.7-3.3-.9-6.8-.5-10.3zm4.2 4c-.2-.1-.4.1-.5.3-.8 3.1-.9 6.5-.2 9.6.1.2.2.3.4.3h.1c.2 0 .4-.2.3-.4-.7-3.1-.7-6.3.2-9.3.1-.3-.1-.5-.3-.5zm3.5 3.1c-.2 0-.4.1-.5.3l-.8 8.2c0 .2.2.4.4.4s.4-.1.4-.3l.8-8.2c.1-.2-.1-.4-.3-.4zm3.1 10.7c.2 0 .4-.2.4-.4v-7c0-.2-.2-.4-.4-.4s-.4.2-.4.4v7c0 .2.2.4.4.4zm3.8-7.4-.2 5.3c0 .2.2.4.4.4s.4-.2.4-.4l.2-5.3c0-.2-.2-.4-.4-.4s-.4.2-.4.4zm5-.5v4.1c0 .2.2.4.4.4s.4-.2.4-.4v-4.1c0-.2-.2-.4-.4-.4s-.4.2-.4.4zm4.5-2.3c-.2 0-.4.2-.4.4v3.9c0 .2.2.4.4.4s.4-.2.4-.4v-3.9c.1-.2-.1-.4-.4-.4zm5.2-1.9c-.2-.1-.5 0-.6.2l-.8 1.7c-.1.2 0 .4.2.5h.2c.2 0 .3-.1.4-.2l.8-1.7c.1-.2 0-.4-.2-.5zm-33.3-34.7c.1-.2-.1-.4-.3-.4-.2 0-.4.1-.5.3-.8 3.6-1 7.3-.8 11 0 .2.2.4.4.4s.4-.2.4-.4c-.2-3.7 0-7.4.8-10.9zm2.5 8.5c-.2 0-.4.2-.4.4l.2 12.1c0 .2.2.4.4.4s.4-.2.4-.4l-.2-12.1c0-.3-.1-.4-.4-.4zm4.3 16.6c0 .2.2.3.4.3s.4-.2.4-.4c-.3-3.3 0-6.6.9-9.8.1-.2-.1-.4-.3-.4s-.4.1-.5.3c-1 3.3-1.3 6.7-.9 10zm3.8 6.2c.3 0 .5-.2.4-.4-.5-2.3-.4-4.6.2-6.9.1-.2-.1-.4-.3-.5-.2-.1-.5.1-.5.3-.7 2.3-.8 4.8-.3 7.2.1.2.3.3.5.3zm5-5.8c-.2-.1-.5.1-.5.2-1.1 3-1.4 6.2-.9 9.4 0 .2.2.3.4.3h.1c.2 0 .4-.2.4-.4-.4-3-.1-6.1.9-9.1 0-.2-.1-.4-.4-.4zm3.6 11.9s.1 0 0 0c.3 0 .5-.2.4-.4-.7-2.9-.7-5.8-.1-8.6.1-.2-.1-.4-.3-.4-.2 0-.4.1-.5.3-.6 2.9-.5 5.9.1 8.9 0 .1.2.2.4.2zm5.2-1.2c.1 0 .1 0 0 0 .3 0 .5-.2.4-.4-.5-2.5-.7-5.1-.4-7.7 0-.2-.2-.4-.4-.4s-.4.1-.5.3c-.3 2.6-.2 5.3.4 7.9.2.1.4.3.5.3zm3.9-8.2c0-.2-.2-.4-.4-.4s-.4.1-.5.3c-.3 2.5-.1 5 .4 7.4.1.2.2.3.4.3h.1c.2 0 .4-.2.3-.4-.4-2.3-.6-4.7-.3-7.2zm3.6 7.6c.2 0 .4-.2.4-.4l.1-7.3c0-.2-.2-.4-.4-.4s-.4.2-.4.4l-.1 7.3c0 .3.2.4.4.4zm4.7-8.8c0-.2-.2-.4-.5-.3-.2 0-.4.2-.4.4.4 2.7.2 5.4-.3 8.1-.1.2.1.4.3.4h.1c.2 0 .4-.1.4-.3.6-2.8.8-5.6.4-8.3zm2.7-2.8c-.2 0-.4.2-.4.4.3 2.5.3 5 .1 7.4 0 .2.2.4.4.4h.1c.2 0 .4-.1.4-.3.3-2.5.3-5.1-.1-7.6 0-.2-.2-.3-.5-.3zm2.3-6.7c-.2 2.3.1 4.6.7 6.9.1.2.2.3.4.3h.1c.2-.1.4-.2.3-.5-.6-2.2-.8-4.4-.7-6.7 0-.2-.2-.4-.4-.4s-.3.2-.4.4zm3.3.7h.1c.2-.1.3-.3.3-.5-.8-2.2-1.1-4.6-1.1-6.9 0-.2-.2-.4-.4-.4s-.4.2-.4.4c-.1 2.4.3 4.8 1.1 7.1.1.2.2.3.4.3zm.1-6.2c0 .2.2.4.4.4s.4-.2.4-.4c-.1-2.9-.6-5.8-1.4-8.6-.1-.2-.3-.3-.5-.3s-.4.3-.3.5c.9 2.7 1.3 5.6 1.4 8.4zm2.1-7.4c.3 0 .5-.2.4-.4l-.5-3.2c0-.2-.3-.3-.5-.3s-.4.2-.3.4l.5 3.1c0 .3.2.4.4.4zM79 133.4c.3 0 .4-.2.4-.4-.1-1.6.3-3.2 1.1-4.7.1-.2 0-.4-.2-.5-.2-.1-.5 0-.6.2-.8 1.6-1.2 3.3-1.2 5 .1.2.3.4.5.4zm4.6 7.2c.2 0 .4-.2.4-.4l.2-7.3c0-.2-.2-.4-.4-.4-.3 0-.4.2-.4.4l-.2 7.3c0 .3.2.4.4.4zm5.6-7.5c-.2 0-.4.1-.5.3l-1.1 6.8c0 .2.1.4.4.4h.1c.2 0 .4-.1.4-.3l1.1-6.8c0-.2-.2-.4-.4-.4zM88 147.4c.2 0 .4-.1.4-.3l.6-4.4c0-.2-.1-.4-.4-.4-.2 0-.4.1-.5.3l-.6 4.4c0 .2.2.4.5.4-.1 0-.1 0 0 0zm-6.5 5.1c.2 0 .4-.2.4-.4v-3.4c0-.2-.2-.4-.4-.4s-.4.2-.4.4v3.4c-.1.3.1.4.4.4zm2.2 5.4c.2 0 .4-.1.4-.3l.5-3.1c0-.2-.1-.4-.3-.4-.2 0-.4.1-.5.3l-.5 3.1c-.1.1.1.3.4.4-.1 0-.1 0 0 0zM77.3 146c.3 0 .4-.2.4-.4l-.3-5.1c0-.2-.2-.4-.4-.4s-.4.2-.4.4l.3 5.1c0 .2.2.4.4.4zm14.6 2.6c.3 0 .5-.2.4-.4-.5-2.3-.4-4.8.3-7.1.1-.2-.1-.4-.3-.5-.2-.1-.5.1-.5.3-.7 2.4-.8 5-.3 7.4 0 .2.2.3.4.3zm4.9 2.5c.1 0 .1 0 0 0 .3 0 .5-.2.4-.4-.5-2.1-.4-4.3.3-6.4.1-.2-.1-.4-.3-.5-.2-.1-.5.1-.5.3-.7 2.2-.8 4.5-.3 6.7.1.1.2.3.4.3zm5.9-6.1c-.2-.1-.4.1-.5.3-.6 2.3-.7 4.6-.3 6.9 0 .2.2.3.4.3h.1c.2 0 .4-.2.4-.4-.4-2.2-.3-4.5.3-6.6 0-.3-.1-.4-.4-.5zm2.6 6.9c0 .2.2.4.4.4s.4-.2.4-.4v-6.5c0-.2-.2-.4-.4-.4s-.4.2-.4.4v6.5zm4.1-1.8c.2 0 .4-.2.4-.4l.2-5.3c0-.2-.2-.4-.4-.4-.3 0-.4.2-.4.4l-.2 5.3c0 .2.2.4.4.4zm4.7-2.2c.3 0 .4-.2.4-.4l-.2-4.4c0-.2-.2-.4-.4-.4s-.4.2-.4.4l.2 4.4c0 .3.2.4.4.4zm3.3-2.4c.3 0 .4-.2.4-.4l-.6-5.6c0-.2-.2-.4-.5-.3-.2 0-.4.2-.4.4l.6 5.6c.1.2.3.3.5.3zm.7-4.6c.3 0 .5-.2.4-.4l-.9-6.8c0-.2-.2-.3-.5-.3-.2 0-.4.2-.4.4l.9 6.8c.1.2.3.3.5.3zm.8-5.1c.2 0 .4-.2.4-.4l-.2-4.9c0-.2-.2-.3-.4-.4-.2 0-.4.2-.4.4l.2 4.9c0 .2.2.4.4.4zm-26.5.1c-.2.1-.2.4 0 .5.1.1.3.1.4.1v3.8c0 .2.2.4.4.4s.4-.2.4-.4l-.1-5.4-1.1 1zm5.8 7h.1c.2-.1.3-.3.3-.5-.8-2-.9-4.2-.4-6.3.1-.2-.1-.4-.3-.4-.2 0-.4.1-.5.3-.5 2.2-.4 4.6.5 6.7-.1.1.1.2.3.2zm4.1.9c.2 0 .4-.2.4-.4l-.3-6.5c0-.2-.2-.4-.4-.4s-.4.2-.4.4l.3 6.5c0 .2.2.4.4.4zm2.7-.5c.2 0 .4-.2.4-.4l-.1-5.8c0-.2-.2-.4-.4-.4s-.4.2-.4.4l.1 5.8c0 .3.2.4.4.4zm3-.7c.3 0 .4-.2.4-.4l-.5-6.8c0-.2-.2-.4-.4-.4s-.4.2-.4.4l.5 6.8c0 .2.2.4.4.4zm1.7-8.3c-.2 0-.4.2-.4.4l1.1 7c0 .2.2.3.4.3h.1c.2 0 .4-.2.4-.4l-1.1-7c0-.2-.3-.3-.5-.3zm4.1-.4c-.2.1-.3.3-.3.5.7 1.8 1 3.6 1 5.5 0 .2.2.4.4.4s.4-.2.4-.4c0-1.9-.3-3.9-1.1-5.7 0-.3-.2-.4-.4-.3zm2.2.4.2-2.7c0-.2-.2-.4-.4-.4s-.4.1-.4.4l-.2 2.7c0 .2.2.4.4.4.2-.1.4-.3.4-.4zm-33.3-5c-.2-.1-.5 0-.6.2l-.5 1.2c-.1.2 0 .4.2.5h.2c.2 0 .3-.1.4-.2l.5-1.2c.1-.2 0-.5-.2-.5zM67 149.1c-.2 0-.4.1-.4.4l-.3 3.6c0 .2.2.4.4.4s.4-.1.4-.4l.3-3.6c0-.2-.2-.4-.4-.4zm-2-30.8c-.2-.1-.5.1-.5.2l-1.4 3.9c-.1.2.1.4.3.5h.1c.2 0 .3-.1.4-.3l1.4-3.9c.1-.1 0-.3-.3-.4zm3.2-.7c.3 0 .5-.1.5-.3l.8-2.9c.1-.2-.1-.4-.3-.5-.2-.1-.4.1-.5.3l-.8 2.9c-.1.3 0 .5.3.5zM55.3 121c-.2 0-.4.2-.4.4l.3 6.3c0 .2.2.4.4.4s.4-.2.4-.4l-.3-6.3c0-.2-.2-.4-.4-.4zm2.2-29.8c-.2-.1-.5 0-.6.2l-1.4 2.7c-.1.2 0 .4.2.5h.2c.2 0 .3-.1.4-.2l1.4-2.7c.1-.2 0-.4-.2-.5zm68.9 81.9c-.2 0-.4.1-.5.3l-.6 4.6c0 .2.2.4.4.4h.1c.2 0 .4-.1.4-.3l.6-4.6c0-.2-.2-.4-.4-.4zm-45.2-5.6c-.2-.1-.4.1-.5.3l-.8 3.9c-.1.2.1.4.3.4h.1c.2 0 .4-.1.4-.3l.8-3.9c.1-.1-.1-.3-.3-.4zm56.2-40.2c-.2 0-.4.2-.3.4l.8 3.6c.1.2.2.3.4.3h.1c.2 0 .4-.2.3-.4l-.8-3.6c0-.2-.2-.3-.5-.3zm-63.7.5c.3 0 .5-.1.5-.3l1.1-5.1c.1-.2-.1-.4-.3-.4s-.4.1-.5.3l-1.1 5.1c-.1.2 0 .4.3.4z" fill="#000000" stroke-width="none" opacity="1"></path></g></g></g><g id="svga-group-mustache-single-move" transform="matrix(1,0,0,1,0,0)"><g id="svga-group-mustache-single" transform="matrix(1,0,0,1,0,0)"></g></g><g id="svga-group-nose-single-move" transform="matrix(1,0,0,1,0,0)"><g id="svga-group-nose-single" transform="matrix(1,0,0,1,0,0)"><path id="SvgjsPath63293" d="M98.29 76.07c1.24 0 3.23 2.15 5.13 7.2s4.72 16.97 5.05 21.02c.33 4.06.17 5.38-1.08 5.79s-3.15-1.57-3.81-1.57c-.66 0-1.66.66-2.57 1.9-.91 1.24-2.23.74-2.98-.08-.74-.83-1.41-1.66-2.23-1.66-.83 0-1.41 1.66-2.07 1.74-.66.08-1.99-.17-2.32-2.32-.33-2.15-.66-8.77.41-13.57 1.08-4.8 2.32-11.67 3.39-14.32 1.09-2.64 2.25-4.13 3.08-4.13z" fill="#ffffff" stroke-width="none" opacity="1"></path><path id="SvgjsPath63294" d="M108.65 102.92c-1.34-8.4-2.91-17.07-7.01-24.63-.97-1.68-2.69-3.61-4.65-2.06-1.3 1.02-1.93 2.86-2.47 4.35-1.3 3.56-1.98 7.33-2.66 11.04-.78 4.21-1.44 8.42-1.27 12.72.06 1.62.03 3.7.79 5.19.5.98 1.66 1.79 2.77 1.22.4-.21.58-.55.88-.86 1.28-1.28 2.05.07 2.89.91.81.81 1.85 1.29 2.87.56 1.1-.78 1.38-2.95 3.08-2.07 1.09.56 1.83 1.77 3.23 1.44 3.23-.75 1.89-5.67 1.55-7.81zm-1.17 6.4c-.9.85-1.7.08-2.44-.47-.63-.47-1.3-1-2.14-.9-.85.1-1.37.76-1.83 1.42-.43.61-.55 1.06-1.35 1.1-1.05.06-1.45-1.01-2.16-1.65-.62-.55-1.44-.97-2.27-.61-.37.16-.62.45-.87.76-.43.51-.69 1.27-1.75.58-.45-.29-.63-1.27-.72-1.75-1.3-6.93.47-14.52 1.98-21.28.58-2.58 1.39-5.63 2.46-7.77.3-.6.65-1.24 1.18-1.67 1.4-1.14 2.52.6 3.17 1.72 3.01 5.55 4.58 11.75 5.78 17.91.61 3.16 1.29 6.4 1.6 9.61.09.97.14 2.27-.64 3z" fill="#000000" stroke-width="none" opacity="1"></path></g></g><g id="svga-group-hair-front" transform="matrix(1,0,0,1,0,0)"><path id="SvgjsPath63223" d="M60.9 43.2s-3.1.8-3.3 2.9c-.2 2.1-2.3 3.9-2 6.6.3 2.7-2 6.4-1.2 8.3.8 1.8-1.1 3.7-.8 5.7.4 2-.3 3.7.3 4.6.6.8 5.9 5.9 6.4 5.2s.1-3.3.6-4.7c.6-1.4.2-4.8.9-6.3s.4-3.3 1.1-5.7.7-3 .8-5-.1-4.5-2.8-11.6z" fill="#ffffff" stroke-width="none" opacity="1"></path><path id="SvgjsPath63224" d="M139.1 43.2s3.1.8 3.3 2.9c.2 2.1 2.3 3.9 2 6.6-.3 2.7 2 6.4 1.2 8.3-.8 1.8 1.1 3.7.8 5.7-.4 2 .3 3.7-.3 4.6-.6.8-5.9 5.9-6.4 5.2s-.1-3.3-.6-4.7-.2-4.8-.9-6.3-.4-3.3-1.1-5.7c-.7-2.4-.7-3-.8-5-.1-2 .2-4.5 2.8-11.6z" fill="#ffffff" stroke-width="none" opacity="1"></path><path id="SvgjsPath63225" d="m61.9 42.9-.4-.9-.9.2c-.2 0-3.7 1-4 3.8-.1.7-.4 1.5-.9 2.2-.6 1.2-1.4 2.7-1.2 4.5.1 1.1-.3 2.4-.7 3.8-.5 1.8-1 3.5-.4 4.8.3.6 0 1.3-.3 2.3-.3.9-.7 2-.5 3.2.2.8.1 1.6.1 2.3-.1 1-.1 1.9.4 2.6.3.4 5.3 5.6 7 5.7h.1c.4 0 .7-.2 1-.4.5-.6.5-1.6.6-2.7 0-.8 0-1.7.2-2.2.3-.8.4-2 .4-3.3.1-1.1.1-2.4.4-2.9.4-.9.5-1.9.7-3 .1-.9.2-1.8.5-2.9.7-2.4.7-3.1.8-4.9v-.3c.1-2.4-.4-5.1-2.9-11.9zm-.4 19.8c-.1.9-.2 1.7-.5 2.3-.5.9-.5 2.4-.6 3.7 0 1-.1 2.1-.3 2.6-.4.9-.4 2-.4 2.9v.9c-1.4-1-4.4-3.7-4.9-4.5-.1-.2-.1-.9 0-1.4 0-.8.1-1.7-.1-2.8-.1-.6.1-1.3.4-2.2.4-1.1.9-2.4.3-3.8-.3-.6.1-2.1.5-3.4.4-1.5.9-3.1.8-4.5-.1-1.3.4-2.3 1-3.4.5-.9 1-1.9 1.1-3 .1-.8 1-1.4 1.7-1.7 2.4 6.5 2.5 8.6 2.4 10.2v.3c-.1 1.7-.1 2.3-.7 4.5-.5 1.3-.6 2.4-.7 3.3zm-2 10c-1.1-1.2-2.2-2.3-3.2-3.5-.6-.6-1.4.3-.9.9 1.1 1.2 2.2 2.3 3.2 3.5.6.6 1.4-.3.9-.9zm-.7-4.2c-.8-1-1.6-2.1-2.3-3.3-.4-.7-1.5-.1-1.1.6.7 1.2 1.6 2.4 2.5 3.5.6.7 1.5-.2.9-.8zm2-3.9c-.3-.5-.7-1-1-1.5-.4-.7-1.5 0-1.1.6.3.5.7 1 1 1.5.4.7 1.5.1 1.1-.6zm-1.1-5.5c-.7-1-1.3-2.1-1.8-3.3-.3-.7-1.5-.4-1.2.3.5 1.3 1.1 2.4 1.9 3.6.4.7 1.5.1 1.1-.6zm2.5-2.6c-.7-1-1.3-2-1.8-3-.3-.7-1.4-.1-1.1.6.5 1.1 1.1 2.1 1.8 3 .5.7 1.6.1 1.1-.6zm-1.3-7.7c-.2-.4-.4-.9-.4-1.3-.1-.8-1.3-.8-1.3 0 .1.7.2 1.3.6 2 .4.6 1.5 0 1.1-.7zm86 14.9c-.3-.9-.6-1.6-.3-2.3.6-1.3.1-3-.4-4.8-.4-1.3-.8-2.7-.7-3.8.2-1.9-.6-3.3-1.2-4.5-.4-.8-.8-1.5-.9-2.2-.3-2.8-3.9-3.8-4-3.8l-.9-.2-.3.8c-2.6 6.8-3 9.6-2.9 11.9v.3c.1 1.8.1 2.5.8 4.9.3 1.1.4 2 .5 2.9.1 1.1.2 2.1.7 3 .3.6.3 1.8.4 2.9.1 1.3.1 2.4.4 3.3.2.5.2 1.4.3 2.2 0 1.1 0 2.1.5 2.7.2.3.6.4 1 .4 1.8-.1 6.7-5.2 7-5.7.5-.7.5-1.7.4-2.6 0-.7-.1-1.5.1-2.3.2-1.1-.2-2.2-.5-3.1zm-1.6 5.6c0 .5.1 1.2 0 1.4-.5.8-3.5 3.5-4.9 4.5v-.9c0-1 0-2.1-.4-2.9-.2-.5-.3-1.6-.3-2.6-.1-1.4-.1-2.8-.6-3.7-.3-.6-.4-1.4-.5-2.3-.1-.9-.2-2-.6-3.2-.6-2.2-.6-2.7-.7-4.5v-.3c-.1-1.6.1-3.8 2.4-10.2.7.3 1.6.9 1.7 1.7.1 1.1.6 2 1.1 3 .6 1.1 1.1 2.2 1 3.4-.1 1.5.3 3 .8 4.5.4 1.4.8 2.8.5 3.4-.6 1.4-.2 2.7.3 3.8.3.8.6 1.5.4 2.2-.3 1-.2 2-.2 2.7zm-4.7 3.4c1.1-1.2 2.2-2.3 3.2-3.5.6-.6 1.4.3.9.9-1.1 1.2-2.2 2.3-3.2 3.5-.6.6-1.5-.3-.9-.9zm.6-4.2c.8-1 1.6-2.1 2.3-3.3.4-.7 1.5-.1 1.1.6-.7 1.2-1.6 2.4-2.5 3.5-.5.7-1.4-.2-.9-.8zm-1.9-3.9c.3-.5.7-1 1-1.5.4-.7 1.5 0 1.1.6-.3.5-.7 1-1 1.5-.5.7-1.6.1-1.1-.6zm1.1-5.5c.7-1 1.3-2.1 1.8-3.3.3-.7 1.5-.4 1.2.3-.5 1.3-1.1 2.4-1.9 3.6-.5.7-1.6.1-1.1-.6zm-2.5-2.6c.7-1 1.3-2 1.8-3 .3-.7 1.4-.1 1.1.6-.5 1.1-1.1 2.1-1.8 3-.5.7-1.6.1-1.1-.6zm1.2-7.7c.2-.4.4-.9.4-1.3.1-.8 1.3-.8 1.3 0-.1.7-.2 1.3-.6 2-.4.6-1.4 0-1.1-.7z" fill="#000000" stroke-width="none" opacity="1"></path></g><g id="svga-group-glasses-single-move" transform="matrix(1,0,0,1,0,0)"><g id="svga-group-glasses-single" transform="matrix(1,0,0,1,0,0)"></g></g></g></g></g><rect id="svga-credit-rect" width="200" height="15" x="0" y="185" fill="#ecf0f1" opacity="0.5" style="display: none;"></rect><text id="svga-credit-text" font-family="Avenir Next, Roboto, Helvetica, Arial, sans-serif" font-size="10px" text-anchor="start" font-weight="400" size="10px" anchor="start" weight="400" fill="#333333" x="33.402061462402344" y="182.71133995056152" style="display: none;"><tspan id="SvgjsTspan62612" dy="13" x="33.402061462402344">Created on AvatarMaker.com</tspan></text></g></svg>