<svg xmlns="http://www.w3.org/2000/svg" version="1.1" width="600px" height="600px" viewBox="0 0 200 200" style="overflow:hidden!important;"><defs id="SvgjsDefs51643"></defs><g id="svga-group-wrapper"><g id="svga-group-backs-single"></g><g id="svga-group-humanwrap-move" transform="matrix(1,0,0,1,0,0)"><g id="svga-group-humanwrap" transform="matrix(1,0,0,1,0,0)"><g id="svga-group-hair-back-move" transform="matrix(1,0,0,1,0,0)"><g id="svga-group-hair-back" transform="matrix(1,0,0,1,0,0)"></g></g><g id="svga-group-humanbody-back"><path id="SvgjsPath52053" d="M77.6 118.3c0 19.3 3.4 44.1-10 51.9-13.4 7.9-31.9 11.3-37.8 22s-4.4 25.3-4.4 25.3h149.3s.7-18.9-5.1-26.4c-8.1-10.4-27.8-15.5-37.7-20.9s-13.4-25.1-13.4-52.4l-40.9.5z" fill="#ffffff" stroke-width="none" opacity="1"></path><path id="SvgjsPath52054" d="M175.8 218.7H24.4l-.1-1c-.1-.6-1.5-15.1 4.5-26 4.1-7.4 13.5-11.3 23.5-15.5 5-2.1 10.2-4.3 14.8-6.9 10.6-6.2 10.1-23.9 9.6-41-.1-3.5-.2-6.8-.2-10v-1.1l43.2-.4v1.1c0 29.9 4.2 46.7 12.8 51.4 2.9 1.6 6.7 3.2 10.8 4.9 10 4.1 21.3 8.8 27.2 16.3 6.1 7.7 5.4 26.4 5.4 27.1l-.1 1.1zm-149.3-2.2h147.1c0-4.1-.2-18.5-4.9-24.6-5.5-7-16.6-11.6-26.3-15.6-4.1-1.7-8-3.3-11-5-5.1-2.8-8.7-8.9-10.9-18.7-2-8.4-2.9-19.4-3-33.5l-38.6.4c0 2.8.1 5.7.2 8.8.5 17.8 1 36.1-10.7 43-4.7 2.7-9.9 4.9-15 7.1-9.6 4-18.7 7.8-22.4 14.5-5 8.6-4.7 20.1-4.5 23.6z" fill="#000000" stroke-width="none" opacity="1"></path><path id="SvgjsPath52055" d="M93.9 153.8c-.5 1.8-.4 3.4.5 5.2.8 1.6 2.1 2.7 3.9 2.9.4 0 .7-.5.5-.8-1.6-2.2-3.5-4.2-3.7-7.1 0-.7-1-.9-1.2-.2zm18.6 33.7c8.8.5 18.1-.7 26.6-2.9.7-.2.6-1.4-.2-1.3-8.8 1.1-17.7 2-26.5 3.3-.5.1-.3.9.1.9zm-49.4-5c3.8.9 7.6 1.9 11.5 2.8 3.6.8 7.4 2 11.1 2.1.7 0 .8-.9.2-1.2-3.5-1.4-7.5-1.7-11.2-2.5-3.8-.7-7.5-1.3-11.3-2-.5 0-.7.7-.3.8z" fill="#000000" stroke-width="none" opacity="1"></path></g><g id="svga-group-chinshadow-single"></g><g id="svga-group-humanbody-front"></g><g id="svga-group-clothes-single"><path id="SvgjsPath52239" d="M74.7 150.8s-1.1 8.9-2.1 11c0 0-1.6 5.2-11.4 8.9S37.9 180 33.6 183s-12.8 13.7-9.8 35.4h152.8s.9-16.4-2.7-24c-3.7-7.5-8.7-10.1-13.7-12.8-5-2.7-21.9-10.1-25.4-11.9s-6.4-3.7-7.8-5.5c-1.4-1.8-4.1-12.3-4.1-12.3s-2.5 1.8-7.5 3.2-10.5 1.1-12.8 3.2-1.6 10.5-1.6 10.5l-2.5-.2s0-7.1-1.1-9.6-7.8-3.4-13.7-4.8c-6-1.4-9-3.4-9-3.4z" fill="#ffffff" stroke-width="none" opacity="1"></path><path id="SvgjsPath52240" d="M174.8 193.9c-3.7-7.5-8.7-10.3-13.6-12.9l-.6-.3c-2.9-1.6-9.5-4.6-15.4-7.2-4.4-2-8.5-3.9-10-4.6-2.8-1.5-6.1-3.4-7.4-5.2-.9-1.2-2.9-8-3.9-12-.1-.3-.3-.6-.6-.7s-.7-.1-.9.1c0 0-2.5 1.8-7.2 3-1.8.5-3.7.8-5.6 1.1-3.2.5-6 .9-7.6 2.4-2.1 1.9-2.1 7.5-2 10.1h-.4c0-2.1-.2-6.9-1.2-9.1-1.2-2.5-5.8-3.5-11.2-4.7-1.1-.2-2.1-.5-3.2-.7-5.6-1.3-8.5-3.2-8.6-3.3-.3-.2-.7-.2-1-.1s-.5.4-.6.8c-.3 2.4-1.3 9.1-2 10.7v.1c0 .1-1.7 4.9-10.8 8.3-10.3 3.8-23.5 9.5-27.9 12.4-5.2 3.5-13.1 15.2-10.2 36.4.1.5.5.9 1 .9h152.8c.5 0 1-.4 1-.9-.1-.8.8-16.9-2.9-24.6zm-40.5-23.3c1.5.8 5.5 2.6 10.1 4.7 5.8 2.6 12.5 5.6 15.3 7.2l.6.3c.3.2.7.4 1 .6-3.9 4.2-6.4 11.3-7.5 20.4-.1.1-.2.3 0 .4 0 .4-.1.8-.1 1.2-.1-.1-.3-.1-.4-.1-.2-.1-.4.3-.1.4.2.1.3.1.5.2-.3 3.6-.5 7.5-.4 11.6h-52.2V209h8.7c.6 0 1-.4 1-1s-.4-1-1-1h-8.7v-11.3l7.3.2c.5 0 1-.4 1-1s-.4-1-1-1l-7.3-.2v-13.1c3.5 0 6.7.1 6.8.1.6 0 1-.4 1-1s-.4-1-1-1c-.3 0-3.4 0-6.8-.1V172c7.9 0 16.7-1.7 25.9-6.5 1.5 1.9 4.5 3.6 7.3 5.1zm-47.7-14.7c4.2.9 9.1 1.9 9.8 3.5.9 1.9 1.1 7.3 1.1 9.2 0 .5.4.9.9 1l2.5.2c.3 0 .6-.1.8-.3.2-.2.3-.5.3-.8-.3-3.3-.1-8.5 1.3-9.7 1.2-1.1 3.8-1.5 6.6-1.9 1.9-.3 3.8-.6 5.8-1.1 3.2-.9 5.4-1.9 6.7-2.6.7 2.5 2.2 7.9 3.4 10.4-5.9 3.1-11.8 4.9-17.3 5.6-.1-3.8-.2-7.6 0-11.5 0-.2-.3-.2-.3 0-.3 3.8-.4 7.7-.1 11.5-5.5.8-10.7.6-15.3-.1.2-2.2.1-4.6.1-6.8 0-.3-.4-.3-.4 0-.1 2.2-.3 4.5-.2 6.7-.6-.1-1.2-.2-1.7-.3l.1-.1c-.1-3.6-.2-7 .3-10.6 0-.3-.4-.4-.4-.1-.6 3.5-1 7.3-.3 10.8-.6-.1-1.2-.2-1.8-.4.4-3.7.5-7.6.6-11.3 0-.2-.3-.2-.4 0-.3 3.7-.7 7.5-.7 11.3-.6-.1-1.2-.3-1.8-.5.6-3.5.8-7.1 1.1-10.7 0-.2-.3-.2-.4 0-.4 3.5-1 7.1-1.2 10.6-.7-.2-1.3-.4-2-.6.1-3.4.4-6.7 1.4-10.1.1-.2-.3-.3-.4-.1-1 3.2-1.7 6.6-1.6 10-.5-.1-.9-.3-1.3-.4.1-3.9.2-7.6 1.2-11.5v-.1c.1 0 .2.1.4.1 1 .2 2.1.4 3.2.7zm-6-1.5c.7.2 1.4.4 2.2.6 0 0-.1 0-.1.1-1.1 3.6-1.8 7.7-1.3 11.4-.6-.2-1.2-.4-1.7-.6.1-3.9.2-7.7.9-11.5zm-1.4 11.3c-.7-.3-1.3-.6-1.9-.8 0 0 0-.1.1-.1.2-3.8.3-7.5.9-11.2.6.2 1.3.5 2 .7-.8 3.7-1.4 7.6-1.1 11.4zm-3.7-13.3c.6.3 1.3.7 2.3 1.1-.7 3.7-1.1 7.5-.9 11.3-.9-.4-1.6-.8-2.3-1.1.7-3.3 1.2-7 1.2-10.4 0-.2-.3-.2-.3-.1-.7 3.2-1.2 6.8-1.4 10.1-.3-.2-.7-.4-.9-.5.2-.4.3-.7.3-.8.8-1.6 1.6-7 2-9.6zm-13.9 19.2c5.9-2.2 9-5 10.6-7 2.8 1.6 13.1 6.9 26.8 7.4v6.6c-3.7 0-7.3-.1-7.7-.1-.6 0-1 .4-1 1s.4 1 1 1h2.2c-1.2.5-2.7.8-3.5-.5-1-1.6 1.1-3.4 2.2-1.7.1.2.6.1.5-.2-.3-.9-1.2-1.3-2.1-1.1-1 .2-1.5 1.2-1.5 2.1.1 2.5 3.5 3 5 1.6.1-.1.1-.2 0-.2 1.4 0 3.1 0 4.8.1v13.1l-6.8-.2c-.5-.1-1 .4-1 1s.4 1 1 1l6.8.2V207h-7.8c-.6 0-1 .4-1 1s.4 1 1 1h7.8v8.4H45.8c.4-25.4-5.6-33.1-8.6-35.4 5.7-3 16-7.3 24.4-10.4zm-37.2 43.3c2.7.7 5.4 1.3 8.2 1.9.2 0 .2-.2.1-.3-2.7-.8-5.5-1.5-8.3-2.1 0-.7-.1-1.3-.1-2 2.8.8 5.6 1.6 8.5 2 .3.1.4-.4.1-.4-2.8-.9-5.8-1.5-8.6-2.1V209c3.4.7 6.8 1.5 10.3 1.9.2 0 .3-.3 0-.4-3.4-.9-6.9-1.4-10.3-2 0-1.1.1-2.1.1-3.1 2.9.8 5.9 1.6 8.9 2.1.2 0 .3-.3.1-.4-2.9-1-5.9-1.6-8.9-2.2.1-.8.2-1.5.3-2.2 2.1.8 4.2 1.5 6.4 2 .3.1.5-.3.2-.4-2.1-.9-4.3-1.5-6.5-2.1.1-.8.2-1.5.4-2.2 2.3.4 4.6.9 7 1.1.2 0 .3-.4 0-.4-2.3-.5-4.6-.8-6.9-1.1.2-.9.4-1.7.6-2.5 2.7.8 5.4 1.5 8.1 2 .2 0 .3-.3.1-.4-2.6-.9-5.3-1.5-8-2.1.2-.7.4-1.4.7-2 2.3.7 4.6 1.4 6.9 1.9.2.1.3-.3.1-.4-2.2-.8-4.6-1.4-6.9-2 .2-.6.5-1.3.8-1.9 2.3.8 4.6 1.7 7 2.2.2 0 .3-.2.1-.3-2.2-1-4.5-1.6-6.9-2.4.3-.7.7-1.3 1-1.9 2.2.4 4.5.9 6.8 1 .2 0 .3-.3 0-.4-2.1-.5-4.4-.8-6.6-1.1.5-.7.9-1.4 1.4-2 1.9.6 3.9 1.3 5.9 1.7.3.1.4-.3.1-.4-1.8-.7-3.8-1.2-5.7-1.7.7-.8 1.3-1.5 2-2.1 1.7.5 3.3.9 5 1.1.2 0 .2-.3 0-.4-1.4-.6-3-.9-4.5-1.2.3-.2.5-.4.8-.6.1-.1.3-.2.5-.3.4.1.8.2 1.3.4.3.1.6.3.9.4 2.7 2.6 7.4 10.5 7 33.1H24.6c-.1-.8-.1-1.6-.2-2.4zm151.2 2.5h-20.5v-1.8c.9.4 1.8.7 2.7.8.2 0 .4-.3.2-.4-.9-.5-1.9-.9-2.9-1.1V212c1.6.6 3.1 1.3 4.7 1.7.1 0 .2-.2.1-.2-1.6-.7-3.2-1.3-4.8-1.9 0-.8.1-1.6.1-2.4 1.4.6 2.7 1.3 4.1 1.8.1 0 .2-.1.1-.2-1.3-.8-2.8-1.4-4.2-2 0-.7.1-1.4.1-2 1.3.6 2.6 1.1 3.9 1.4.1 0 .2-.2.1-.3-1.2-.8-2.6-1.3-4-1.8 0-.3.1-.7.1-1 1.1.5 2.3 1 3.4 1.4.2.1.4-.3.2-.4-1.1-.6-2.3-1.1-3.5-1.6.1-.6.1-1.1.2-1.7 1.1.6 2.2 1.2 3.3 1.5.1.1.2-.1.1-.2-1-.7-2.2-1.3-3.4-1.8.1-.9.3-1.7.4-2.5.8.5 1.5.9 2.3 1.2.2.1.3-.2.1-.4-.7-.6-1.6-1-2.4-1.4.1-.7.3-1.3.4-2 .9.5 1.7 1 2.7 1.4.2.1.3-.2.1-.3-.8-.6-1.8-1.1-2.7-1.5 1.3-5.4 3.4-9.6 6-12.3 3.7 2.2 7.2 4.9 9.9 10.5 3.5 6 3.3 18.8 3.1 22.4zm-82.3-21.1c.1-.2-.1-.4-.3-.3-1 .8-2.5 1-3-.4-.6-1.4.8-2.5 2.1-2.3.3.1.4-.3.1-.4-1.8-.7-3.4 1.2-2.8 2.9.5 1.6 3.1 2.2 3.9.5zM89.8 210c.7.3 1.7.4 2.3-.2.2-.2 0-.5-.2-.4-.5.2-1 .3-1.6.2-.7-.2-1.1-.8-1.1-1.5-.1-1.5 1.6-2.1 2.8-1.4.2.1.4-.2.2-.3-1.5-1.1-3.6 0-3.5 1.8-.1.7.4 1.5 1.1 1.8zm20.1-4.8c-.2 0-.3.3-.1.4.9.4 1.7 1.1 1.9 2.1.1.6.1 1.2-.2 1.7-.5.8-1.7 1.1-2.2.1-.1-.2-.5-.1-.4.2.7 1.9 2.9.9 3.4-.6.5-1.7-.6-3.8-2.4-3.9zm.4-9.9c.2-1.5-1.6-2.8-2.8-1.9-.2.1-.1.4.1.3.9-.2 2.2.4 2.1 1.5-.1 1.1-1.5 1.5-2.3 1.1-.2-.1-.4.2-.2.3 1.1.8 2.9.1 3.1-1.3zM110 180c.3-1.3-1.4-3.1-2.7-2.2-.2.1-.1.4.1.4.5 0 1 0 1.4.3.5.3.8.9.7 1.6-.3 1-1.5 1.4-2.4.9-.2-.1-.4.2-.2.3 1.1.8 2.9 0 3.1-1.3zm48.5 13.4c-.3-.1-.5.3-.2.4.9.4 1.7.9 2.6 1.1.2.1.2-.2.1-.3-.7-.5-1.6-.8-2.5-1.2zm-52.9-23.9c-.2-3.4-.6-6.6-.7-10 0-.2-.3-.2-.3 0-.2 3.3-.1 6.8.7 10.1 0 .2.3.1.3-.1zm8.1-1.7c-.4-3.3-1.2-6.6-1.8-9.9 0-.2-.3-.1-.3.1.6 3.3 1 6.6 1.9 9.8 0 .2.2.2.2 0zm3.2-.6c-.1-3.1-.8-6.2-1.3-9.2 0-.2-.4-.1-.4.1.4 3 .6 6.2 1.4 9.1.1.2.3.1.3 0zm2.5-1.4c-.2-1.4-.6-2.7-1-4.1-.1-.2-.4-.1-.4.1.3 1.3.6 2.8 1.1 4.1.1.1.3 0 .3-.1z" fill="#000000" stroke-width="none" opacity="1"></path></g><g id="svga-group-head" transform="matrix(1,0,0,1,0,0)"><g id="svga-group-ears-left-move" transform="matrix(1,0,0,1,0,0)"><g id="svga-group-ears-left" transform="matrix(1,0,0,1,0,0)"><path id="SvgjsPath52252" d="M60.8 86.8s-2.1-5.1-4.3-8.3c-2.2-3.2-5.5-7.6-7.6-8.7s-3.6-.4-3 2.6 3 12.6 3.6 15.6c.7 3 2.2 9.4 4.2 13.6 1.9 4.2 3.1 6.1 5.2.5 2.1-5.7 3.4-11.8 1.9-15.3z" fill="#ffffff" stroke-width="none" opacity="1"></path><path id="SvgjsPath52253" d="M52.9 102c-2-4.4-3.6-11.1-4.2-13.8-.2-1-.7-2.9-1.2-5-.9-3.9-2.1-8.7-2.4-10.7-.4-2.2.2-3.3.9-3.7.5-.4 1.6-.8 3.5.2 2.3 1.2 6.6 3.9 8.9 7.3 2.2 3.3 3.3 10 3.4 10.2 1.7 4.1 1.3 10.3-.6 15.3-1 2.8-3.3 4.7-4.5 4.8h-.1c-1.5-.1-2.5-1.9-3.7-4.6zm2.9-23.1c-3-4.5-5.7-7.6-7.2-8.4-.9-.5-1.4-.5-1.6-.3-.2.2-.4.8-.2 2 .4 1.9 1.5 6.7 2.4 10.6.5 2.1.9 4 1.2 5 .6 2.6 2.2 9.2 4.1 13.4.4.9 1.5 3.3 2 3.5.1 0 .6-.3 1.6-2.9 2.4-6.6 3.1-11.8 2-14.7-.1-.1-2.2-5.1-4.3-8.2z" fill="#000000" stroke-width="none" opacity="1"></path><path id="SvgjsPath52254" d="M47.6 73.1c3.5 4 6.5 10.6 7 16.9 0 .4-.4.5-.5.1-.1-.6-.2-1.1-.4-1.7-.3-.8-.9-.9-1.6-.2.1.5.1 1 .3 1.4.2.6.4 1.3.6 1.9.6 1.5 1.3 2.6 2 3.9.1.3 0 .7-.3.5-1.7-1.4-3.4-5.4-3.4-8.2 0-.8.3-1.6.9-1.7.4 0 .7.1.9.4-1.3-4.9-3-8.9-5.8-13 0-.2.1-.5.3-.3z" fill="#000000" stroke-width="none" opacity="1"></path></g></g><g id="svga-group-ears-right-move" transform="matrix(1,0,0,1,0,0)"><g id="svga-group-ears-right" transform="matrix(1,0,0,1,0,0)"><path id="SvgjsPath52255" d="M139.2 86.8s2.1-5.1 4.3-8.3c2.2-3.2 5.5-7.6 7.6-8.7 2.1-1.1 3.6-.4 3 2.6-.6 3-2.9 12.7-3.6 15.7-.7 3-2.2 9.4-4.2 13.6-1.9 4.2-3.1 6.1-5.2.5-2.1-5.8-3.4-11.9-1.9-15.4z" fill="#ffffff" stroke-width="none" opacity="1"></path><path id="SvgjsPath52256" d="M143.5 106.5s-.1 0 0 0c-1.3 0-3.5-1.9-4.6-4.8-1.8-5-2.3-11.2-.6-15.3.1-.2 1.2-6.9 3.4-10.2 2.3-3.4 6.6-6.1 8.9-7.3 1.9-1 3-.5 3.5-.2.6.5 1.3 1.5.9 3.7-.4 1.9-1.5 6.8-2.4 10.7-.5 2.1-.9 4-1.2 5-.6 2.7-2.2 9.4-4.2 13.8-1.3 2.8-2.3 4.6-3.7 4.6zM140 87.1c-1.2 2.8-.5 8 2 14.7 1 2.6 1.5 2.9 1.6 2.9.5-.2 1.6-2.6 2-3.5 1.9-4.2 3.5-10.8 4.1-13.4.2-1 .7-2.9 1.2-5 .9-3.9 2.1-8.7 2.4-10.6.2-1.2 0-1.8-.2-2-.2-.1-.7-.1-1.5.3-1.5.8-4.2 4-7.2 8.4-2.3 3.1-4.4 8.1-4.4 8.2z" fill="#000000" stroke-width="none" opacity="1"></path><path id="SvgjsPath52257" d="M152.4 73.1c-3.5 4-6.5 10.6-7 16.9 0 .4.4.5.5.1.1-.6.2-1.1.4-1.7.3-.8.9-.9 1.6-.2-.1.5-.1 1-.3 1.4-.2.6-.4 1.3-.6 1.9-.6 1.5-1.3 2.6-2 3.9-.1.3 0 .7.3.5 1.7-1.4 3.4-5.4 3.4-8.2 0-.8-.3-1.6-.9-1.7-.4 0-.7.1-.9.4 1.3-4.9 3-8.9 5.8-13 0-.2-.1-.5-.3-.3z" fill="#000000" stroke-width="none" opacity="1"></path></g></g><g id="svga-group-faceshape-wrap" transform="matrix(1,0,0,1,0,0)"><g id="svga-group-faceshape-single"><path id="SvgjsPath52324" d="M142.1 93.8c-1.4-10 2.1-12.6 1.7-25.8-.1-3.3-.3-8.9-1.4-14.2C140.1 42.4 127.3 25 100 25S63.6 38.2 59.6 48.1c-2.5 6.2-3.2 15.2-3.4 19.7 0 0 1.6 17.4.4 21.9-1.3 7.8-3.1 20.9.7 28.2 5.7 11.7 14.9 16.5 26.3 17.7 0 0 14.4 9.8 29.5.8 0 0 15.3.6 25.5-11.8 4.5-5.3 5.4-16.9 3.5-30.8z" fill="#ffffff" stroke-width="none" opacity="1"></path><path id="SvgjsPath52325" d="M99.6 141.2c-8.5 0-15-3.8-16.3-4.6-12.8-1.4-21.6-7.3-26.9-18.2-3.8-7.2-2.4-19.2-.8-28.8 1.2-4.4-.4-21.4-.4-21.6v-.2c.2-4.8 1-13.8 3.5-20 6.5-16 20-23.8 41.3-23.8 27.4 0 41 17.7 43.4 29.6 1.1 5.6 1.3 11.5 1.4 14.4.2 6.5-.5 10.5-1.2 14-.7 3.6-1.2 6.7-.5 11.7 2.1 15 .8 26.3-3.6 31.6-9.7 11.9-23.7 12.2-26 12.2-4.8 2.7-9.6 3.7-13.9 3.7zM57.2 67.8c.1 1.4 1.6 17.6.4 22.1-1.5 9.3-2.8 20.9.7 27.5 5.1 10.4 13.2 15.9 25.6 17.2h.2l.2.1c.1.1 14.1 9.3 28.4.8l.2-.1h.3c.2 0 15 .4 24.7-11.4 4-4.8 5.1-15.8 3.2-30.1-.7-5.3-.1-8.6.6-12.4.6-3.4 1.3-7.3 1.1-13.6-.1-2.8-.3-8.6-1.4-14-2.3-11.3-15.2-28-41.4-28-20.4 0-33.3 7.4-39.5 22.6-2.4 5.9-3.1 14.6-3.3 19.3z" fill="#000000" stroke-width="none" opacity="1"></path></g></g><g id="svga-group-mouth-single-move" transform="matrix(1,0,0,1,0,0)"><g id="svga-group-mouth-single" transform="matrix(1,0,0,1,0,0)"><path id="SvgjsPath52201" d="M116.44 117.28c-3.07.92-5.96.99-9.13.84-2.84-.14-3.53 1.63-5.97 2.49-1.48.52-1.78.25-3.08-.45-.54-.3-1.04-.65-1.61-.89-.98-.41-1.93-.5-2.99-.54-3.22-.12-6.47-.04-9.69-.05-.82 0-.82 1.26 0 1.27 3.31.02 6.89-.36 10.17.06 1.97.25 3.07 1.26 4.79 1.95.82.33 1.68.55 2.55.33.68-.17 1.21-.56 1.74-1 1.54-1.29 2.79-1.98 4.87-1.83 2.98.21 5.83-.1 8.69-.96.77-.24.44-1.46-.34-1.22z" fill="#000000" stroke-width="none" opacity="1"></path><path id="SvgjsPath52202" d="M109.97 123.47c-1.64 2.42-6.83 1.59-9.43 1.62-3.14.05-6.48.19-8.86-2.2-.29-.29-.74.16-.45.45 2.75 2.76 6.6 2.42 10.21 2.37 2.84-.04 7.22.82 9.08-1.92.22-.34-.33-.66-.55-.32z" fill="#000000" stroke-width="none" opacity="1"></path><path id="SvgjsPath52203" d="M95.96 116.26c1.41.33 3.14 1.04 4.6.94 1.16-.08 2.35-1.01 3.35-1.53.36-.19.04-.74-.32-.55-1.1.58-2.34 1.48-3.6 1.4-1.26-.08-2.64-.58-3.86-.87-.4-.09-.57.52-.17.61z" fill="#000000" stroke-width="none" opacity="1"></path></g></g><g id="svga-group-eyes-left-move" transform="matrix(1,0,0,1,0,0)"><g id="svga-group-eyes-left" transform="matrix(1,0,0,1,0,0)"><g id="svga-group-eyesback-left"></g><g id="svga-group-eyesiriswrapper-left"><g id="svga-group-eyesiriscontrol-left" transform="matrix(1,0,0,1,0,0)"><g id="svga-group-eyesiris-left" transform="matrix(1,0,0,1,0,0)"><path id="SvgjsPath52384" d="M75.2 84.7c-1.5 1.9-1.3 4.5.4 6 1.8 1.7 4.9 2.1 7.1.1 1.1-1.1 1.8-2.7 1.5-4.1-.1-.5-.3-1-.6-1.4-.2-.6-.5-1.1-1-1.5-2.1-1.8-5.6-1.4-7.4.9z" fill="#ffffff" stroke-width="none" opacity="1"></path><path id="SvgjsPath52385" d="M84.4 86.7c-.1-.5-.3-1-.6-1.5-.2-.6-.6-1.1-1.1-1.6-1-.9-2.3-1.4-3.8-1.2-1.6.1-3.1.9-4 2.1-1.6 2-1.4 4.8.4 6.4 1 .9 2.5 1.5 3.9 1.5 1.2 0 2.5-.4 3.5-1.4 1.4-1.2 2.1-2.9 1.7-4.3zm-.6-.1c-.7.1-1.4.2-2 .2 0-.1-.1-.2-.1-.2.4-.1.8-.3 1.2-.5.2-.1.4-.1.6-.3.1.3.2.5.3.8zm-.9-1.8.3.6v.1c-.6.3-1.2.5-1.8.8-.1-.1-.1-.2-.2-.3.7-.3 1.2-.8 1.7-1.2zm-.6-.7c.2.2.3.3.4.5-.6.4-1.2.8-1.6 1.3l-.1-.1c-.1-.1-.2-.1-.3-.2.2-.3.5-.7.7-1.1.1-.2.3-.4.5-.7.2.1.3.2.4.3zm-2.1.1c0-.4.1-.7.1-1.1.5.1.9.3 1.3.5-.2.2-.3.5-.5.7-.2.4-.5.7-.6 1.1-.1-.1-.3-.1-.4-.2.1-.3.1-.7.1-1zM79 83h.4c.2 0 .5 0 .7.1-.1.3-.1.6-.1 1 0 .3-.1.7-.1 1.1-.2 0-.4-.1-.6-.1 0-.3-.1-.7-.2-1 0-.4-.1-.7-.1-1.1zm-4.5 3.9c.7.2 1.5.4 2.2.3 0 .2-.1.5 0 .7-.7-.1-1.5 0-2.2 0v-1zm.1 1.3c.7-.1 1.5-.1 2.2-.1 0 .1.1.2.1.3-.4.1-.7.3-1.1.4-.3.1-.6.2-.9.4-.2-.3-.3-.6-.3-1zm.7 1.7c-.1-.1-.2-.3-.3-.4.3-.1.6-.3.9-.4.3-.1.7-.3 1-.4-.5.4-1.1.8-1.6 1.2zm.5.6-.3-.3c.6-.4 1.1-.8 1.6-1.2.1.1.1.2.2.2-.2.2-.4.5-.6.7-.2.3-.4.5-.6.8-.1-.1-.2-.2-.3-.2zm.5.4c.2-.3.4-.6.7-.8.2-.2.4-.4.6-.7.1.1.2.2.3.2-.2.2-.4.6-.5.8-.2.2-.4.5-.6.7-.2 0-.3-.1-.5-.2zm.8.4c.2-.2.3-.4.5-.6.2-.3.5-.6.6-1 .1 0 .2.1.3.1-.2.6-.3 1.2-.5 1.8-.4-.1-.7-.2-.9-.3zm1.1.4c.3-.5.5-1.2.5-1.8.2 0 .4.1.6.1-.1.6 0 1.2 0 1.8-.4 0-.8 0-1.1-.1zm1.4.1c0-.6 0-1.2-.1-1.8.2 0 .4 0 .6-.1.2.6.3 1.2.5 1.7-.4.1-.7.2-1 .2zm3.2-1.7c-.5-.2-.9-.6-1.3-.9 0 .1-.1.2-.1.3.3.3.7.7 1.1.9l-.2.2c-.2.2-.4.3-.6.4-.1-.2-.3-.5-.4-.7-.1-.2-.2-.3-.3-.5-.1 0-.2.1-.3.1.1.2.2.4.3.5.1.2.3.5.5.8-.3.2-.5.3-.8.4-.2-.6-.4-1.1-.6-1.7.1 0 .1 0 .2-.1-.2-.1-.3-.2-.3-.4-.8.3-1.7 0-2.3-.5-.4-.4-.6-.9-.6-1.4-.2-.2-.4-.4-.5-.6-.4-.1-.8-.1-1.1-.1-.3-.1-.6-.1-.9-.2.1-.4.2-.8.4-1.1.3.2.7.4 1 .5.2.1.4.2.5.3 0-.1 0-.3.1-.4-.2-.1-.3-.2-.5-.2-.3-.2-.6-.3-1-.4.1-.1.2-.2.3-.4.2-.2.4-.4.6-.7.1.2.4.4.6.6.1.2.3.3.4.4.1-.1.2-.1.3-.2l-.1-.1-.6-.6c-.1-.1-.2-.3-.3-.4.3-.2.6-.4.8-.5.1.3.3.6.4.8.1.2.3.5.5.7.2 0 .3.1.4.1l-.6-.9c-.1-.2-.2-.5-.4-.8.4-.2.8-.3 1.2-.3 0 .3.1.7.2 1.1.1.3.1.7.2 1-.2 0-.3.1-.5.1.2.1.3.2.4.4h.4c.5 0 1 .2 1.3.5.2.2.3.4.4.6.1.2.2.4.2.6.1.3 0 .7-.2 1 .2.1.3.2.3.4 0 0 0-.1.1-.1.2.2.6.4.9.5.2.1.5.3.8.4 0 .2-.1.4-.3.6zm.6-.8c-.2 0-.9-.4-1-.5-.2-.1-.3-.2-.5-.2 0 0-.1 0-.2-.1.1-.2.2-.4.2-.6.6.2 1.3.3 2 .3-.2.3-.3.7-.5 1.1zm.5-1.5c-.7-.1-1.3-.2-2-.3v-.4c.7 0 1.4-.1 2-.2v.9zm-3.1.4h.2c.4-1-.2-2.1-1.3-2.4-.2-.1-.4-.1-.6-.1.4.8 0 2-1.2 2h-.3c.1.6.4 1.2 1 1.5.4.2.9.2 1.4.1-.2-.5.1-1.1.8-1.1z" fill="#000000" stroke-width="none" opacity="1"></path></g></g></g><g id="svga-group-eyesfront-left"><path id="SvgjsPath52290" d="M79 72.1c-8.2 0-14.8 6.6-14.8 14.8s6.6 14.8 14.8 14.8 14.8-6.6 14.8-14.8c0-8.1-6.6-14.8-14.8-14.8zm3.1 20.1c-5.3.7-12.6-1-14.2-1.7s-2.8-2.6 1.3-4.1 7.8-1.6 13.7-.4 7.9 3.7 7.9 3.7c-.3.4-3.4 1.9-8.7 2.5z" fill="#ffffff" stroke-width="none" opacity="1"></path><path id="SvgjsPath52291" d="M66.3 90.1c-.4-.5-.4-1.2 0-1.9 1.3-2.2 7.1-4.6 14.1-3.3 6 1.1 9.1 3 10.5 4.2.1-.1.1-.3.1-.4.1-.9-.8-2.1-2.3-3.1-3.5-2.4-9.7-3.8-14.9-1.2-.2.1-.5 0-.6-.2s0-.5.2-.6c5.5-2.8 12.1-1.3 15.8 1.3 1.9 1.3 2.9 2.7 2.7 4 0 .3-.1.6-.3.9l.2.2c.2.2.1.5-.1.6-.2.2-.5.1-.6-.1l-.1-.1c-.2.2-.5.3-.8.5-3.3 1.4-7.3 1.9-11.1 1.9-6.2 0-11.8-1.4-12.8-2.7zm14-4.3c-6.9-1.2-12.2 1.2-13.2 2.9-.3.5-.1.7-.1.8 1.3 1.7 14.2 4.1 22.7.5.2-.1.4-.2.5-.3-1.2-1-4.1-2.9-9.9-3.9z" fill="#000000" stroke-width="none" opacity="1"></path></g></g></g><g id="svga-group-eyes-right-move" transform="matrix(1,0,0,1,0,0)"><g id="svga-group-eyes-right" transform="matrix(1,0,0,1,0,0)"><g id="svga-group-eyesback-right"></g><g id="svga-group-eyesiriswrapper-right"><g id="svga-group-eyesiriscontrol-right" transform="matrix(1,0,0,1,0,0)"><g id="svga-group-eyesiris-right" transform="matrix(1,0,0,1,0,0)"><path id="SvgjsPath52386" d="M117.2 84.7c-1.5 1.9-1.3 4.5.4 6 1.8 1.7 4.9 2.1 7.1.1 1.1-1.1 1.8-2.7 1.5-4.1-.1-.5-.3-1-.6-1.4-.2-.6-.5-1.1-1-1.5-2.1-1.8-5.5-1.4-7.4.9z" fill="#ffffff" stroke-width="none" opacity="1"></path><path id="SvgjsPath52387" d="M126.5 86.7c-.1-.5-.3-1-.6-1.5-.2-.6-.6-1.1-1.1-1.6-1-.9-2.3-1.4-3.8-1.2-1.6.1-3.1.9-4 2.1-1.6 2-1.4 4.8.4 6.4 1 .9 2.5 1.5 3.9 1.5 1.2 0 2.5-.4 3.5-1.4 1.4-1.2 2-2.9 1.7-4.3zm-.7-.1c-.7.1-1.4.2-2 .2 0-.1-.1-.2-.1-.2.4-.1.8-.3 1.2-.5.2-.1.4-.1.6-.3.1.3.2.5.3.8zm-.8-1.8.3.6v.1c-.6.3-1.2.5-1.8.8-.1-.1-.1-.2-.2-.3.6-.3 1.1-.8 1.7-1.2zm-.6-.7c.2.2.3.3.4.5-.6.4-1.2.8-1.6 1.3l-.1-.1c-.1-.1-.2-.1-.3-.2.2-.3.5-.7.7-1.1.1-.2.3-.4.5-.7.1.1.2.2.4.3zm-2.1.1c0-.4.1-.7.1-1.1.5.1.9.3 1.3.5-.2.2-.3.5-.5.7-.2.4-.5.7-.6 1.1-.1-.1-.3-.1-.4-.2 0-.3 0-.7.1-1zM121 83h.4c.2 0 .5 0 .7.1-.1.3-.1.7-.1 1.1 0 .3-.1.7-.1 1.1-.2 0-.4-.1-.6-.1 0-.3-.1-.7-.2-1 0-.5 0-.8-.1-1.2zm-4.4 3.9c.7.2 1.5.4 2.2.3 0 .2-.1.5 0 .7-.7-.1-1.5 0-2.2 0-.1-.3-.1-.6 0-1zm0 1.3c.7-.1 1.5-.1 2.2-.1 0 .1.1.2.1.3-.4.1-.7.3-1.1.4-.3.1-.6.2-.9.4-.1-.3-.2-.6-.3-1zm.7 1.7c-.1-.1-.2-.3-.3-.4.3-.1.6-.3.9-.4.3-.1.7-.3 1-.4-.5.4-1.1.8-1.6 1.2zm.5.6-.3-.3c.6-.4 1.1-.8 1.6-1.2.1.1.1.2.2.2-.2.2-.4.5-.6.7-.2.3-.4.5-.6.8-.1-.1-.2-.2-.3-.2zm.5.4c.2-.3.4-.6.7-.8.2-.2.4-.4.6-.7.1.1.2.2.3.2-.2.2-.4.6-.5.8-.2.2-.4.5-.6.7-.1 0-.3-.1-.5-.2zm.8.4c.2-.2.3-.4.5-.6.2-.3.5-.6.6-1 .1 0 .2.1.3.1-.2.6-.3 1.2-.5 1.8l-.9-.3zm1.1.4c.3-.5.5-1.2.5-1.8.2 0 .4.1.6.1-.1.6 0 1.2 0 1.8-.4 0-.7 0-1.1-.1zm1.4.1c0-.6 0-1.2-.1-1.8.2 0 .4 0 .6-.1.2.6.3 1.2.5 1.7-.4.1-.7.2-1 .2zm3.3-1.7c-.5-.2-.9-.6-1.3-.9 0 .1-.1.2-.1.3.3.3.7.7 1.1.9l-.2.2c-.2.2-.4.3-.6.4-.1-.2-.3-.5-.4-.7-.1-.2-.2-.3-.3-.5-.1 0-.2.1-.3.1.1.2.2.4.3.5.1.2.3.5.5.8-.3.2-.5.3-.8.4-.2-.6-.4-1.1-.6-1.7.1 0 .1 0 .2-.1-.2-.1-.3-.2-.3-.4-.8.3-1.7 0-2.3-.5-.4-.4-.6-.9-.6-1.4-.2-.2-.4-.4-.5-.6-.4-.1-.8-.1-1.1-.1-.3-.1-.6-.1-.9-.2.1-.4.2-.8.4-1.1.3.2.7.4 1 .5.2.1.4.2.5.3 0-.1 0-.3.1-.4-.2-.1-.3-.2-.5-.2-.3-.2-.6-.3-1-.4.1-.1.2-.2.3-.4.2-.2.4-.4.6-.7.1.2.4.4.6.6.1.2.3.3.4.4.1-.1.2-.1.3-.2l-.1-.1-.6-.6c-.1-.1-.2-.3-.3-.4.3-.2.6-.4.8-.5.1.3.3.6.4.8.1.2.3.5.5.7.2 0 .3.1.4.1l-.6-.9c-.1-.2-.2-.5-.4-.8.4-.2.8-.3 1.2-.3 0 .3.1.7.2 1.1.1.3.1.7.2 1-.2 0-.3.1-.5.1.2.1.3.2.4.4h.4c.5 0 1 .2 1.3.5.2.2.3.4.4.6.1.2.2.4.2.6.1.3 0 .7-.2 1 .2.1.3.2.3.4 0 0 0-.1.1-.1.2.2.6.4.9.5.2.1.5.3.8.4 0 .2-.2.4-.3.6zm.5-.8c-.2 0-.9-.4-1-.5-.2-.1-.3-.2-.5-.2 0 0-.1 0-.2-.1.1-.2.2-.4.2-.6.6.2 1.3.3 2 .3-.1.3-.3.7-.5 1.1zm.5-1.5c-.7-.1-1.3-.2-2-.3v-.4c.7 0 1.4-.1 2-.2v.9zm-3.1.4h.2c.4-1-.2-2.1-1.3-2.4-.2-.1-.4-.1-.6-.1.4.8 0 2-1.2 2h-.3c.1.6.4 1.2 1 1.5.4.2.9.2 1.4.1-.1-.5.1-1.1.8-1.1z" fill="#000000" stroke-width="none" opacity="1"></path></g></g></g><g id="svga-group-eyesfront-right"><path id="SvgjsPath52292" d="M121 72.1c-8.2 0-14.8 6.6-14.8 14.8s6.6 14.8 14.8 14.8 14.8-6.6 14.8-14.8c0-8.1-6.6-14.8-14.8-14.8zm11 18.5c-1.6.6-8.9 2.4-14.2 1.7-5.3-.7-8.4-2.2-8.7-2.5 0 0 2-2.4 7.9-3.7 5.9-1.3 9.6-1.2 13.7.4s3 3.4 1.3 4.1z" fill="#ffffff" stroke-width="none" opacity="1"></path><path id="SvgjsPath52295" d="M133.6 88.2c-1.3-2.2-7.1-4.6-14.1-3.3-1.5.3-2.8.6-4 1-.1-.7-.3-1.4-.2-2.1.6-.2 1.2-.3 1.8-.4-.2.6-.2 1.2.1 1.8.1.2.4.1.4-.1-.1-.6-.2-1.1 0-1.7 2.8-.4 5.8-.2 8.6 1.2.2.1.5 0 .6-.2s0-.5-.2-.6c-5.5-2.8-12.1-1.3-15.8 1.3-1.9 1.3-2.9 2.7-2.7 4 0 .3.1.6.3.9l-.2.2c-.2.2-.1.5.1.6.2.2.5.1.6-.1l.1-.1c.2.2.5.3.8.5 3.3 1.4 7.3 1.9 11.1 1.9 6.2 0 11.8-1.4 12.8-2.7.4-.8.4-1.4-.1-2.1zm-18.7-4.4c-.1.7-.1 1.5.2 2.1-.5.2-1 .3-1.4.5 0-.7-.1-1.4-.1-2.1.5-.2.9-.3 1.3-.5zm-3.2 1.6c.5-.3 1-.6 1.5-.8-.1.7-.1 1.4.2 2-.7.3-1.3.5-1.8.8 0-.3-.1-.7-.1-1 0-.4.1-.7.2-1zm-1.5 1.1c.2-.2.5-.5.8-.7-.1.6-.1 1.3.4 1.7-.3.2-.6.4-.9.5-.1-.2-.2-.4-.2-.7-.1-.2-.1-.5-.1-.8zm-.9 1.4c0-.2 0-.3.1-.5l.3-.3c0 .5.1.9.3 1.3-.2.2-.5.3-.6.5 0-.4-.1-.7-.1-1zm23.6 1.6c-1.3 1.7-14.2 4.1-22.7.5-.2-.1-.4-.2-.5-.3 1.3-1 4.2-2.9 10-3.9 6.9-1.2 12.2 1.2 13.2 2.9.3.5.1.7 0 .8zm-13.1-6.3v.8c0 .1.2.1.2 0v-.8c0-.1-.2-.1-.2 0z" fill="#000000" stroke-width="none" opacity="1"></path></g></g></g><g id="svga-group-facehighlight-single"></g><g id="svga-group-eyebrows-left-move" transform="matrix(1,0,0,1,0,0)"><g id="svga-group-eyebrows-left-rotate" transform="matrix(1,0,0,1,0,0)"><g id="svga-group-eyebrows-left" transform="matrix(1,0,0,1,0,0)"><path id="SvgjsPath52217" d="M91.81 69.64c.45 2.53-1.19 6.83-1.63 7.28s-24.81-.59-25.85-1.49 1.63-6.24 1.63-6.24 21.4-.89 22.29-.89-1.63 3.57-1.63 3.57l4.01-3.12 1.18.89z" fill="#ffffff" stroke-width="none" opacity="1"></path><path id="SvgjsPath52218" d="M64.01 75.8c.56.48 5.08.94 13.44 1.36 3.11.16 6.26.27 8.64.32.9.02 1.6.03 2.16.03 2.02 0 2.13-.11 2.27-.25.6-.6 2.23-5.1 1.77-7.7a.492.492 0 0 0-.18-.3l-1.19-.89a.466.466 0 0 0-.58.01l-1.87 1.45c.61-1.2.44-1.52.37-1.65a.64.64 0 0 0-.59-.35c-.89 0-21.43.86-22.31.89-.17.01-.33.11-.41.26-.86 1.71-2.72 5.79-1.52 6.82zm10.73.27-.55-.03 1.12-6.75c.35-.01.7-.03 1.05-.04l-1.62 6.82zm2.29-6.86c.64-.03 1.27-.05 1.9-.08-.37 1.18-1.49 4.6-2.3 7.03l-1.23-.06 1.63-6.89zM73.56 76c-.23-.01-.47-.03-.7-.04l.75-6.6c.35-.01.7-.03 1.05-.04L73.56 76zm-1.34-.09c-.4-.03-.8-.05-1.18-.08l1.2-6.42.72-.03-.74 6.53zm-1.82-.13-.75-.06 1.19-6.26.74-.03-1.18 6.35zm-1.39-.11c-.18-.01-.34-.03-.51-.05l1.03-6.11.66-.03-1.18 6.19zm-1.15-.1c-.68-.07-1.29-.13-1.78-.2l1.76-5.77c.31-.01.66-.03 1.03-.04l-1.01 6.01zm13.96.82 2.45-7.47c.46-.02.89-.03 1.29-.05-.45 1.03-2.21 4.85-3.45 7.53-.09 0-.19 0-.29-.01zm-.66-.02c-.83-.03-1.69-.07-2.55-.11l2.4-7.21c.91-.04 1.78-.07 2.58-.1l-2.43 7.42zm6.73-7.58c-.23.59-.97 1.81-1.67 2.8-.08.11-.1.25-.07.38l-3 4.47c-.11 0-.23-.01-.34-.01 1.1-2.38 3.24-7.01 3.45-7.58.72-.03 1.28-.05 1.63-.06zm2.74.56L85.4 76.4c-.02.03-.02.07-.03.1-.47-.01-.96-.03-1.47-.04l2.77-4.13c.08-.01.16-.04.23-.09l3.73-2.89zm-4.52 7.17 5.03-6.79.23.17c0 .04.01.08.01.11l-3.63 6.53c-.49 0-1.04-.01-1.64-.02zm2.37.03 2.9-5.21c-.04.44-.11.9-.2 1.35l-2.25 3.86c-.14-.01-.29-.01-.45 0zm1.41-.05c-.06.01-.13.01-.21.02l.8-1.38c-.23.65-.46 1.14-.59 1.36zm-12.6-.3c1.61-4.84 2.14-6.5 2.31-7.09l.72-.03-2.38 7.15-.65-.03zm-11.03-6.54c.2-.01.52-.02.91-.04l-1.71 5.6c0 .02.01.03 0 .04-.4-.07-.7-.14-.84-.21-.31-.34.33-2.71 1.64-5.39z" fill="#000000" stroke-width="none" opacity="1"></path></g></g></g><g id="svga-group-eyebrows-right-move" transform="matrix(1,0,0,1,0,0)"><g id="svga-group-eyebrows-right-rotate" transform="matrix(1,0,0,1,0,0)"><g id="svga-group-eyebrows-right" transform="matrix(1,0,0,1,0,0)"><path id="SvgjsPath52219" d="M108.19 69.64c-.45 2.53 1.19 6.83 1.63 7.28s24.81-.59 25.85-1.49c1.04-.89-1.63-6.24-1.63-6.24s-21.4-.89-22.29-.89 1.63 3.57 1.63 3.57l-4.01-3.12-1.18.89z" fill="#ffffff" stroke-width="none" opacity="1"></path><path id="SvgjsPath52220" d="M134.47 68.98a.452.452 0 0 0-.41-.26c-.87-.04-21.42-.89-22.31-.89a.64.64 0 0 0-.59.35c-.07.14-.24.46.37 1.65l-1.87-1.45a.496.496 0 0 0-.58-.01l-1.19.89a.45.45 0 0 0-.18.3c-.46 2.6 1.17 7.11 1.77 7.7.14.14.25.25 2.27.25.56 0 1.27-.01 2.16-.03 2.38-.05 5.53-.17 8.64-.32 8.35-.42 12.88-.88 13.44-1.36 1.2-1.03-.66-5.11-1.52-6.82zm-10.83.26c.35.01.7.03 1.05.04l1.12 6.75-.55.03-1.62-6.82zm.97 6.86-1.23.06c-.81-2.43-1.94-5.85-2.3-7.03.63.03 1.27.05 1.9.08l1.63 6.89zm.73-6.79c.35.01.71.03 1.05.04l.75 6.6c-.23.01-.46.03-.7.04l-1.1-6.68zm1.7.07.72.03 1.2 6.42c-.38.03-.78.05-1.18.08l-.74-6.53zm1.37.06.74.03 1.19 6.26-.75.06-1.18-6.35zm1.4.06.66.03 1.03 6.11c-.17.02-.33.03-.51.05l-1.18-6.19zm1.31.05c.38.02.72.03 1.03.04l1.76 5.77c-.5.07-1.1.14-1.78.2l-1.01-6.01zm-13.24 6.85c-1.24-2.68-3-6.5-3.45-7.53.4.02.83.03 1.29.05l2.45 7.47c-.09.01-.19.01-.29.01zm-1.47-7.45c.8.03 1.67.07 2.58.1l2.4 7.21c-.87.04-1.72.07-2.55.11l-2.43-7.42zm-2.67-.1c.22.57 2.35 5.2 3.45 7.58-.11 0-.23.01-.34.01l-3-4.47c.03-.13.01-.27-.07-.38-.7-.99-1.44-2.21-1.67-2.8.35.01.91.03 1.63.06zm-.64 3.39c.07.05.15.08.23.09l2.77 4.13c-.51.02-1.01.03-1.47.04-.01-.03 0-.07-.03-.1l-5.23-7.05 3.73 2.89zm-.85 4.3-3.63-6.53c0-.04 0-.08.01-.11l.23-.17 5.03 6.79c-.6.01-1.15.02-1.64.02zm-1.17 0-2.25-3.86c-.09-.45-.16-.91-.2-1.35l2.9 5.21h-.45zm-1.56-1.4.8 1.38c-.08-.01-.16-.01-.21-.02-.13-.22-.36-.71-.59-1.36zm12.54 1.09-2.38-7.15.72.03c.17.58.7 2.25 2.31 7.09l-.65.03zm13.32-1.18c-.14.07-.44.14-.84.21 0-.02.01-.03 0-.04l-1.71-5.6c.39.02.7.03.91.04 1.31 2.68 1.95 5.05 1.64 5.39z" fill="#000000" stroke-width="none" opacity="1"></path></g></g></g><g id="svga-group-beardwrap" transform="matrix(1,0,0,1,0,0)"><g id="svga-group-beard-single-move" transform="matrix(1,0,0,1,0,0)"><g id="svga-group-beard-single" transform="matrix(1,0,0,1,0,0)"></g></g></g><g id="svga-group-mustache-single-move" transform="matrix(1,0,0,1,0,0)"><g id="svga-group-mustache-single" transform="matrix(1,0,0,1,0,0)"></g></g><g id="svga-group-nose-single-move" transform="matrix(1,0,0,1,0,0)"><g id="svga-group-nose-single" transform="matrix(1,0,0,1,0,0)"><path id="SvgjsPath52423" d="M107.56 107.36c.81-.3 1.49-2.07 1.08-3.48-.41-1.41-3.64-4.3-7.2-4.88-3.56-.58-10.1 0-11.84 3.15-1.74 3.15-.33 5.38 1.08 5.38s4.47-1.16 4.47-1.16 2.15 1.74 3.56 1.74 4.72-1.66 4.72-1.66 2.31 1.57 4.13.91z" fill="#ffffff" stroke-width="none" opacity="1"></path><path id="SvgjsPath52424" d="M107.91 105.78c-.8-.68-2.14-.72-3.09-.49-2.6.6-4.35 2.98-7.21 1.73-1.73-.76-3.19-2.15-5.16-2.3-.92-.07-2.33.14-2.9.97-.52.75-.06 1.53.68 1.91 1.31.67 3.15-.13 4.41-.74 1.35.73 2.59 1.71 4.16 1.92 1.54.21 2.86-.48 4.17-1.19.24-.13.47-.25.7-.37 1.15.55 3.04 1.28 4.18.46.71-.51.7-1.35.06-1.9zm-17.14.61c.31-.46 1.31-.38 2-.23-.11.03-.22.07-.33.1-.19.05-1.64.09-1.67.13z" fill="#000000" stroke-width="none" opacity="1"></path><path id="SvgjsPath52425" d="M95.63 96.37c-.15-7.79.12-15.57.8-23.33.08-.87-1.28-.86-1.36 0-.68 7.76-.95 15.54-.8 23.33.02.87 1.38.88 1.36 0z" fill="#000000" stroke-width="none" opacity="1"></path></g></g><g id="svga-group-hair-front" transform="matrix(1,0,0,1,0,0)"><path id="SvgjsPath52363" d="M108.4 21.6c-2.1-.4-4.3-.5-6.4-.6 1.5-.3 3.1-1.5 3.2-5.7.1-4.6-2.8-7.2-5.4-7.2s-6 .9-7.4 1.2c-1.4.3-5.4.2-7.3 2.1s-2.1 5-.9 7.9c.9 2.1 2.3 2.9 3.5 3.1-3.9.8-6.8 1.9-8.1 2.6-3.2 1.7-6.3 6-6.3 6s5.9 3.1 10.5 7.4S96.6 44 101.1 43s11.6-5.9 14-9.1 7.7-3.8 7.7-3.8-2.1-6.4-14.4-8.5z" fill="#ffffff" stroke-width="none" opacity="1"></path><path id="SvgjsPath52364" d="M123.8 29.8c-.1-.3-2.4-7-15.2-9.2-1.2-.2-2.4-.4-3.6-.5.8-1.1 1.2-2.7 1.2-4.8.1-2.6-.8-4.8-2.3-6.4a5.54 5.54 0 0 0-4.1-1.8c-2.4 0-5.3.7-7 1.1l-.6.1c-.3.1-.8.1-1.3.2-1.9.2-4.8.5-6.5 2.2-2.2 2.1-2.6 5.6-1.1 9 .4 1 1 1.8 1.6 2.4-2.7.7-4.8 1.5-5.8 2-3.4 1.8-6.5 6.1-6.7 6.3l-.7.9 1 .5c.1 0 5.8 3.1 10.3 7.3 3.7 3.5 9.8 5.2 14.6 5.2 1.3 0 2.4-.1 3.5-.3 4.8-1 12.2-6.2 14.6-9.5 2.1-2.8 7-3.4 7-3.4l1.2-.1-.1-1.2zm-9.5 3.5c-1.2 1.6-3.8 3.8-6.6 5.5 3.7-4 5.9-9.1 6.4-14.7 1.2.5 2.3 1 3.1 1.5-.3 2.4-1 4.6-2.2 6.7-.2.4-.4.7-.7 1zm-1.3-9.6c-.5 7.2-4.1 13.5-9.9 17.6-.2.1-.3.1-.5.2 2.8-6.2 3.2-12.9 1.1-19.5 1.5.1 3.1.3 4.6.5 1.7.4 3.3.8 4.7 1.2zM94.8 42.1c-6.9-3.3-11.8-9.3-13.5-16.8 1-.4 2.4-.9 4-1.3 1.3 7.7 5.7 14.2 12.2 18.3-.8 0-1.7-.1-2.7-.2zm-3.7-24c-.2-.8-.3-1.8-.3-2.7 0-2.2.5-4.4 2.6-5.4.7-.2 1.8-.4 2.9-.6 1.9.5 2.7 4.3 2.6 5.7-.1 2-1.4 3.8-3 4.9l-.1.1c-1.1.1-2.1.2-3.1.3-.8-.5-1.4-1.4-1.6-2.3zm11.2 3.9c2.2 6.6 1.8 13.3-1.1 19.5 1.7-6.6.9-13.4-2.3-19.4h.3c1 0 1.9.1 2.6 0h.2c.1-.1.2-.1.3-.1zm-7 .4.2-.1c.1 0 .2-.1.4-.1.5 0 1.1-.1 1.6-.1 3.3 5.9 4.1 12.5 2.5 19-4.9-5-8-11.1-9.2-18 1.9-.3 4.4-.7 4.5-.7zm-6.8 1.1c.4 0 .7 0 1-.1h.1c1.2 7 4.3 13.2 9.1 18.3-6.5-3.9-10.9-10.3-12.2-17.9.4-.1.8-.2 1.3-.3.2-.1.4 0 .7 0zm15.7-8.3c-.1 3.8-1.4 4.5-2.3 4.7h-.7c2.2-2.3 2.9-5.5 2.1-8.5.6 1.1.9 2.4.9 3.8zm-3.3-5.9c2.6 3.5 1.9 8.1-1.5 10.7-.5 0-1.1 0-1.6.1 1.7-1.7 2.6-4 2.2-6.4-.2-1.4-1-3.3-2.1-4.4.7-.2 1.3-.3 1.9-.3.4 0 .8.1 1.1.3zm-9.8 1.2c-2.1 2.8-2.2 7.8-.2 10.3-.4.1-.7.1-1 .2-1-.7-1.7-2.4-1.9-3.2-.3-.9-.3-1.9-.2-2.9.2-1.6.9-3 2-4.3.5-.1.9-.1 1.3-.1zm-5.9 8.4c-1.1-2.7-.9-5.3.6-6.8.5-.5 1.3-.9 2.2-1.1-1.4 2.2-1.9 4.9-1.1 7.5.3.9.8 2 1.5 2.8-.2 0-.4.1-.7.1-.8-.2-1.8-.8-2.5-2.5zM74.9 30.6c1-1.3 3.2-3.7 5.3-4.8 1.5 6.3 5.2 11.7 10.5 15.3-2.2-.8-4.4-1.9-6.1-3.5-3.6-3.3-7.8-5.9-9.7-7zm42.3.3c.6-1.4 1-2.9 1.2-4.4 1.5 1.1 2.4 2.1 2.9 2.9-1.1.2-2.6.7-4.1 1.5z" fill="#000000" stroke-width="none" opacity="1"></path></g><g id="svga-group-glasses-single-move" transform="matrix(1,0,0,1,0,0)"><g id="svga-group-glasses-single" transform="matrix(1,0,0,1,0,0)"><path id="SvgjsPath52338" d="M95.7 85.68c0-1.25-1.22-3.22-8.01-4.18s-18.03.35-19.51.7c-1.48.35-2.79 2.79-2.79 4.53 0 1.74.96 7.14 6.01 9.41s13.85 1.22 17.34-.35c3.47-1.58 6.96-4.1 6.96-10.11z" fill="#ffffff" stroke-width="none" opacity="0.44"></path><path id="SvgjsPath52339" d="M104.51 85.68c0-1.25 1.22-3.22 8.01-4.18 6.8-.96 18.03.35 19.51.7 1.48.35 2.79 2.79 2.79 4.53 0 1.74-.96 7.14-6.01 9.41-5.05 2.27-13.85 1.22-17.34-.35-3.47-1.58-6.96-4.1-6.96-10.11z" fill="#ffffff" stroke-width="none" opacity="0.44"></path><path id="SvgjsPath52340" d="M137.39 84.12c-.07-.2-1.78-.11-2.51-.07-.61-1.25-1.57-2.33-2.67-2.59-1.57-.37-12.82-1.69-19.79-.71-6.34.89-8.24 2.74-8.59 4.32-2.91-.98-5.96-.45-7.47-.07-.4-1.57-2.34-3.37-8.58-4.25-6.97-.98-18.22.34-19.79.71-1.1.26-2.06 1.34-2.67 2.59-.73-.05-2.44-.14-2.51.07-.09.26-.09 1.8.09 2.15.12.24 1.07.14 1.76.06-.01.13-.03.27-.03.39 0 2.49 1.35 7.8 6.45 10.09 2.17.97 5.03 1.36 7.89 1.36 3.95 0 7.9-.74 10.06-1.71 3.29-1.48 7.04-3.95 7.38-9.92 1.22-.34 4.51-1.05 7.39.13.38 5.88 4.1 8.32 7.37 9.8 2.16.97 6.11 1.71 10.06 1.71 2.86 0 5.72-.39 7.89-1.36 5.11-2.29 6.45-7.6 6.45-10.09 0-.13-.02-.26-.03-.39.69.08 1.64.18 1.76-.06.18-.36.18-1.91.09-2.16zM88.42 95.1c-3.52 1.58-12.09 2.43-16.72.35-4.57-2.05-5.57-6.99-5.57-8.72 0-1.53 1.18-3.56 2.21-3.8 1.09-.26 7.46-1.02 13.4-1.02 2.08 0 4.11.09 5.84.34 6.84.96 7.37 2.88 7.37 3.44 0 5.7-3.3 7.96-6.53 9.41zm40.09.35c-4.64 2.08-13.21 1.23-16.72-.35-3.23-1.45-6.53-3.71-6.53-9.42 0-.56.53-2.48 7.37-3.44 1.73-.24 3.76-.34 5.84-.34 5.94 0 12.31.77 13.4 1.02 1.03.24 2.21 2.27 2.21 3.8 0 1.73-1 6.68-5.57 8.73z" fill="#000000" stroke-width="none" opacity="1"></path></g></g></g></g></g><rect id="svga-credit-rect" width="200" height="15" x="0" y="185" fill="#ecf0f1" opacity="0.5" style="display: none;"></rect><text id="svga-credit-text" font-family="Avenir Next, Roboto, Helvetica, Arial, sans-serif" font-size="10px" text-anchor="start" font-weight="400" size="10px" anchor="start" weight="400" fill="#333333" x="33.402061462402344" y="182.71133995056152" style="display: none;"><tspan id="SvgjsTspan51696" dy="13" x="33.402061462402344">Created on AvatarMaker.com</tspan></text></g></svg>