<svg xmlns="http://www.w3.org/2000/svg" version="1.1" width="600px" height="600px" viewBox="0 0 200 200" style="overflow:hidden!important;"><defs id="SvgjsDefs44587"></defs><g id="svga-group-wrapper"><g id="svga-group-backs-single"></g><g id="svga-group-humanwrap-move" transform="matrix(1,0,0,1,0,0)"><g id="svga-group-humanwrap" transform="matrix(1,0,0,1,0,0)"><g id="svga-group-hair-back-move" transform="matrix(1,0,0,1,0,0)"><g id="svga-group-hair-back" transform="matrix(1,0,0,1,0,0)"></g></g><g id="svga-group-humanbody-back"><path id="SvgjsPath44997" d="M77.6 118.3c0 19.3 3.4 44.1-10 51.9-13.4 7.9-31.9 11.3-37.8 22s-4.4 25.3-4.4 25.3h149.3s.7-18.9-5.1-26.4c-8.1-10.4-27.8-15.5-37.7-20.9s-13.4-25.1-13.4-52.4l-40.9.5z" fill="#ffffff" stroke-width="none" opacity="1"></path><path id="SvgjsPath44998" d="M175.8 218.7H24.4l-.1-1c-.1-.6-1.5-15.1 4.5-26 4.1-7.4 13.5-11.3 23.5-15.5 5-2.1 10.2-4.3 14.8-6.9 10.6-6.2 10.1-23.9 9.6-41-.1-3.5-.2-6.8-.2-10v-1.1l43.2-.4v1.1c0 29.9 4.2 46.7 12.8 51.4 2.9 1.6 6.7 3.2 10.8 4.9 10 4.1 21.3 8.8 27.2 16.3 6.1 7.7 5.4 26.4 5.4 27.1l-.1 1.1zm-149.3-2.2h147.1c0-4.1-.2-18.5-4.9-24.6-5.5-7-16.6-11.6-26.3-15.6-4.1-1.7-8-3.3-11-5-5.1-2.8-8.7-8.9-10.9-18.7-2-8.4-2.9-19.4-3-33.5l-38.6.4c0 2.8.1 5.7.2 8.8.5 17.8 1 36.1-10.7 43-4.7 2.7-9.9 4.9-15 7.1-9.6 4-18.7 7.8-22.4 14.5-5 8.6-4.7 20.1-4.5 23.6z" fill="#000000" stroke-width="none" opacity="1"></path><path id="SvgjsPath44999" d="M93.9 153.8c-.5 1.8-.4 3.4.5 5.2.8 1.6 2.1 2.7 3.9 2.9.4 0 .7-.5.5-.8-1.6-2.2-3.5-4.2-3.7-7.1 0-.7-1-.9-1.2-.2zm18.6 33.7c8.8.5 18.1-.7 26.6-2.9.7-.2.6-1.4-.2-1.3-8.8 1.1-17.7 2-26.5 3.3-.5.1-.3.9.1.9zm-49.4-5c3.8.9 7.6 1.9 11.5 2.8 3.6.8 7.4 2 11.1 2.1.7 0 .8-.9.2-1.2-3.5-1.4-7.5-1.7-11.2-2.5-3.8-.7-7.5-1.3-11.3-2-.5 0-.7.7-.3.8z" fill="#000000" stroke-width="none" opacity="1"></path></g><g id="svga-group-chinshadow-single"></g><g id="svga-group-humanbody-front"></g><g id="svga-group-clothes-single"><path id="SvgjsPath45136" d="M63.33 170.93s-12.22 5.29-16.7 6.92c-4.48 1.63-12.63 5.91-17.11 11.2-4.48 5.29-5.09 12.63-5.7 17.92-.61 5.29.58 11.73.58 11.73h152.36s.2-14.17-2.65-22.32-5.7-9.78-14.87-15.48c-9.16-5.7-18.53-7.94-26.07-11.61 0 0-3.05 12.83-30.55 14.26-27.48 1.43-34-6.92-39.29-12.62z" fill="#ffffff" stroke-width="none" opacity="1"></path><path id="SvgjsPath45137" d="M175.06 196.05c-2.9-8.3-5.87-10.15-14.69-15.63l-.6-.37c-5.81-3.62-11.81-5.9-17.1-7.91-3.23-1.23-6.28-2.39-9.06-3.75a1.02 1.02 0 0 0-.87 0c-.27.13-.47.38-.54.67-.03.12-3.19 12.12-29.63 13.49-11.02.58-18.6-.45-24.07-2.24-.04-.14-.21-.21-.31-.1-.46-.16-.91-.31-1.34-.48.01-.02.01-.04.02-.06.08-.25-.3-.35-.39-.11 0 .01 0 .01-.01.02-6.05-2.41-9.18-5.81-11.8-8.66l-.63-.68c-.29-.31-.74-.4-1.13-.24-.12.05-12.24 5.3-16.64 6.9-3.9 1.42-12.58 5.64-17.53 11.49-4.44 5.25-5.25 12.38-5.83 17.59l-.1.86c-.62 5.38.54 11.76.59 12.02.09.47.5.82.98.82h152.36a1 1 0 0 0 1-.99c.03-.56.19-14.42-2.68-22.64zm-4.34-4.67c-.51-.5-1.02-1-1.52-1.51.1-.08.19-.16.26-.22.46.55.87 1.12 1.26 1.73zm-1.89-1.17c.98 1.01 1.94 2.08 2.94 3.08.48 1 .94 2.12 1.4 3.42l.03.11c-1.74-1.87-3.76-3.55-5.68-5.25.51-.59.95-1.04 1.31-1.36zm-66.15-5.66c23.41-1.21 29.59-10.57 31.06-13.88.7.33 1.42.64 2.15.95-1.03 1.47-3.85 5.21-8.22 8.8-3.79 3.11-12.73 6.36-23.97 7.02.1-.66.16-1.34.25-2 .03-.19-.28-.19-.3 0-.08.66-.2 1.34-.27 2.01-.68.04-1.37.06-2.07.08.11-.96.07-1.97.08-2.92l1.29-.06zm-4.2 2.99c-.61-.01-1.22-.03-1.83-.05.07-.92.03-1.87.04-2.79.62 0 1.25 0 1.9-.02-.05.93-.14 1.92-.11 2.86zm.5-2.86c.67-.01 1.35-.03 2.04-.06-.08.95-.2 1.95-.18 2.92-.6.01-1.2.02-1.82.01.06-.95-.01-1.94-.04-2.87zm-2.73.03c-.03.91-.09 1.85-.06 2.76a65.89 65.89 0 0 1-3.39-.24c.04-.87.02-1.74.01-2.6 1.1.04 2.25.07 3.44.08zm-18.35-2.47c.39.13.8.25 1.21.37-.18.58-.36 1.18-.48 1.77-.35-.11-.7-.23-1.04-.34.11-.45.11-.94.2-1.4.04-.15.08-.27.11-.4zm1.71.51c.27.07.55.15.83.22-.1.6-.25 1.24-.31 1.86-.32-.09-.63-.18-.94-.28.18-.58.31-1.19.42-1.8zm1.26.33c1.02.25 2.11.48 3.26.67-.15.66-.3 1.35-.36 2.02a66.49 66.49 0 0 1-3.1-.79c.12-.62.14-1.29.2-1.9zm3.79.76c.58.09 1.17.18 1.78.26-.23.71-.39 1.46-.38 2.16-.43-.08-.87-.17-1.3-.26l-.39-.09c.15-.67.23-1.39.29-2.07zm2.14 1.07c.05-.25.12-.5.19-.75.45.06.92.11 1.39.15-.11.77-.22 1.55-.21 2.32-.51-.08-1.03-.17-1.55-.27.07-.48.08-.98.18-1.45zm2.02-.55c.48.05.97.09 1.47.12-.21.76-.38 1.63-.34 2.42-.46-.06-.92-.13-1.38-.2.16-.75.21-1.55.25-2.34zm1.67 1.71c.05-.53.15-1.04.28-1.55l1.56.09c-.03.85-.07 1.71-.06 2.57-.6-.06-1.2-.13-1.81-.21.01-.3 0-.6.03-.9zm-13.05-3.99c-.03.09-.07.18-.09.28-.11.45-.26 1-.24 1.5-.48-.17-.95-.34-1.41-.51.21-.55.4-1.11.57-1.68.38.14.77.28 1.17.41zm-2.2 1.08c-.4-.16-.8-.32-1.18-.48.22-.56.4-1.11.61-1.67.36.16.74.32 1.13.47-.21.56-.4 1.12-.56 1.68zm-6.64-5.73c-.52.46-.95 1.02-1.3 1.62-.5-.34-.96-.67-1.4-1 .55-.48 1.12-.97 1.64-1.48.34.28.69.57 1.06.86zm.33.25c.4.3.82.6 1.26.89-.36.33-.68.72-1 1.09l-.33.39c-.45-.27-.88-.54-1.29-.82.4-.57.86-1.07 1.36-1.55zm.65 2.22c.32-.36.66-.72.93-1.12.3.19.61.39.93.58-.46.42-.86.94-1.18 1.49a30.4 30.4 0 0 1-1.01-.57c.1-.13.22-.25.33-.38zm2.29-.29c.72.41 1.49.8 2.31 1.18-.27.54-.49 1.11-.59 1.69-1.06-.47-2.05-.95-2.96-1.43.38-.52.8-.97 1.24-1.44zm-4.71-3.37c-.55.49-1.08 1.03-1.6 1.55-.67-.52-1.26-1.03-1.78-1.51.27-.35.56-.67.89-.96.27-.23.56-.42.85-.61.51.5 1.05 1.01 1.64 1.53zm-1.98-1.88c-.66.4-1.24 1.03-1.68 1.65-.67-.64-1.21-1.23-1.63-1.74.33-.23.65-.47.97-.71.31-.23.63-.45.94-.68.44.49.91.98 1.4 1.48zm-2.11-2.24.14.16c.07.08.14.15.21.23-.36.26-.71.54-1.06.8l-.81.6c-.26-.33-.48-.63-.64-.87.92-.38 1.67-.7 2.16-.92zm-34.94 21.39c3.3 2.32 6.88 4.55 10.66 6 .42.86.84 1.79 1.24 2.78-3.8-2.44-8.08-4.62-12.15-6.46-.21-.09-.38.18-.18.31 3.94 2.51 8.31 5 12.62 6.88.35.91.69 1.86 1.01 2.87-4.79-2.96-10-5.52-15.06-8.01.58-2.22 1.42-4.4 2.68-6.38 2.36 1.56 4.76 3.26 7.31 4.42.17.08.4-.15.22-.29-2.21-1.75-4.8-3.12-7.27-4.52.24-.35.49-.69.75-1.02 1.39.84 2.81 1.74 4.29 2.36 1.28 1.53 2.75 3.62 4.15 6.34-3.39-1.84-6.81-3.56-10.08-5.64-.21-.17-.41.2-.19.36zm2.17-3.83c.17-.2.36-.4.54-.6.43.32 1.27 1.01 2.32 2.12-.93-.55-1.9-1.04-2.86-1.52zm-5.05 28.02c-.09-.6-.22-1.5-.33-2.57.27.18.53.37.83.48.19.07.33-.2.2-.34-.29-.29-.68-.47-1.03-.69a.21.21 0 0 1-.06-.04c-.06-.64-.11-1.33-.15-2.05 2.35 1.98 4.97 3.93 7.81 5 .17.06.25-.19.12-.28-2.66-1.83-5.42-3.37-7.96-5.37-.05-1.15-.05-2.35.03-3.51 5.06 3.02 10.09 6.25 15.34 8.91.21.11.39-.19.19-.32-4.95-3.29-10.31-6.1-15.47-9.05-.01-.01-.02 0-.03 0 .02-.27.05-.53.08-.79l.1-.86c.28-2.47.59-5.22 1.27-7.94 4.87 2.8 9.89 5.66 15.01 7.97.1.05.2 0 .25-.07.53 1.69 1 3.52 1.41 5.51-5.55-3.1-11.15-6.03-16.6-9.31-.25-.15-.47.23-.23.39 5.33 3.59 11.04 7.02 16.97 9.57.23 1.19.43 2.43.61 3.73-5.98-3.51-12.01-6.6-17.65-10.69-.21-.15-.4.19-.2.35 5.39 4.15 11.38 8.26 17.81 10.59.03.01.05 0 .07 0 .06.46.12.92.17 1.39H25.25zm20.56 0c-2.15-19.99-10.98-28.11-13.53-30.06 4.49-4.18 10.97-7.49 14.7-8.85 2.71-.99 8.13-3.26 12.08-4.94 1.5 2.4 7.65 10.32 25.28 14.1a73.48 73.48 0 0 0 15.4 1.63c13.64 0 24.62-3.84 29.22-7.62 5-4.11 8-8.31 8.84-9.57 1.36.54 2.75 1.07 4.18 1.62 5.46 2.08 11.11 4.23 16.75 7.74l.6.37c4.04 2.51 6.74 4.2 8.76 6.08-.7.55-1.94 1.69-3.35 3.62-.1.03-.18.12-.17.23-3.01 4.21-6.75 12.03-7.84 25.65H45.81zm119.12 0c-1.79-1.72-3.73-3.28-5.65-4.85.14-.98.3-1.93.47-2.84 2.53 2.85 5.37 5.59 8.57 7.69h-3.39zm-3.55 0c-.74-.73-1.62-1.34-2.47-1.94.09-.83.19-1.64.3-2.42 1.71 1.5 3.43 3 5.24 4.36h-3.07zm-2.52-1.47c.61.52 1.24 1.03 1.9 1.47h-2.04c.04-.5.09-.99.14-1.47zm10.35 1.47c-3.34-2.56-6.52-5.13-9.35-8.27.19-.97.4-1.9.62-2.78 3.51 4.03 7.52 7.91 12.05 10.78.21.13.47-.19.27-.35-4.28-3.46-8.43-6.85-12.19-10.89-.01-.01-.01 0-.02-.01a49 49 0 0 1 .96-3.3c4 3.23 7.92 6.59 12.08 9.62.16.12.37-.15.22-.28-3.91-3.39-8.09-6.46-12.16-9.65-.01-.01-.02 0-.03-.01.5-1.48 1.02-2.81 1.56-4 3.48 3.92 7.31 7.78 11.67 10.7.18.12.39-.15.23-.29-3.99-3.56-8.02-6.94-11.7-10.83.39-.85.79-1.62 1.19-2.33 3.09 3.13 6.11 6.5 9.53 9.22.18.14.4-.07.25-.25-2.82-3.39-6.3-6.35-9.53-9.39.39-.66.76-1.26 1.13-1.79 2.55 2.64 5.08 5.41 7.93 7.66.17.13.37-.07.24-.24-2.31-2.84-5.16-5.34-7.87-7.85.32-.45.63-.85.93-1.21 2.02 1.95 4.01 4.01 6.25 5.68 2.06 6.71 2.29 16.89 2.3 20.08h-6.56z" fill="#000000" stroke-width="none" opacity="1"></path></g><g id="svga-group-head" transform="matrix(1,0,0,1,0,0)"><g id="svga-group-ears-left-move" transform="matrix(1,0,0,1,0,0)"><g id="svga-group-ears-left" transform="matrix(1,0,0,1,0,0)"><path id="SvgjsPath45146" d="M58.9 77.8s-2.5-2.4-5.4-3.5c-2.9-1.1-6.1.7-7.1 3.7-1 2.9 1.3 15.1 5 19.5s6.2 4.8 8.7 2.5c2.6-2.4 7-10.8-1.2-22.2z" fill="#ffffff" stroke-width="none" opacity="1"></path><path id="SvgjsPath45147" d="M56.8 102.3c-1.9-.1-3.8-1.5-6.1-4.2-3.9-4.7-6.3-17.1-5.2-20.5.6-1.8 1.9-3.3 3.6-4.1 1.5-.7 3.2-.8 4.8-.2 3.1 1.2 5.6 3.6 5.7 3.7l.1.1c8.7 12.2 3.5 21.2 1.1 23.5-1.2 1.1-2.4 1.6-3.7 1.6-.1.1-.2.1-.3.1zm-3.6-27.1c-1.3-.5-2.5-.2-3.2.1-1.2.6-2.1 1.6-2.6 2.9-.8 2.5 1.3 14.3 4.9 18.5 1.9 2.3 3.4 3.4 4.7 3.5.8.1 1.6-.3 2.5-1.1 2.1-1.9 6.5-9.8-1.3-20.7-.4-.3-2.6-2.2-5-3.2z" fill="#000000" stroke-width="none" opacity="1"></path><path id="SvgjsPath45148" d="M50.2 77.4c3.3.6 5.4 6.1 6 9.8.1.1.1.2.2.3.4.6-.4 1.2-.8.6-.5-.8-1-1.6-1.8-1.9-1.4-.5-2.1 1.1-1.8 2.6.4 1.9 1.6 3 2.6 4.4.1.1 0 .3-.1.2-1.7-1-4.3-4.8-3.1-7.2.9-1.7 2.3-1.4 3.4-.4-.8-2.1-1.4-4.3-3-5.9-.5-.5-1.5-1.4-2.2-1.3-1.3.2-1.3 2.1-1.3 3.4-.1 1.7.1 3.4.4 5 0 .2-.2.2-.3.1-.6-2.4-2-10.4 1.8-9.7z" fill="#000000" stroke-width="none" opacity="1"></path></g></g><g id="svga-group-ears-right-move" transform="matrix(1,0,0,1,0,0)"><g id="svga-group-ears-right" transform="matrix(1,0,0,1,0,0)"><path id="SvgjsPath45149" d="M141.1 77.8s2.5-2.4 5.4-3.5c2.9-1.1 6.1.7 7.1 3.7 1 2.9-1.3 15.1-5 19.5s-6.2 4.8-8.7 2.5c-2.6-2.4-7-10.8 1.2-22.2z" fill="#ffffff" stroke-width="none" opacity="1"></path><path id="SvgjsPath45150" d="M142.9 102.3c-1.3 0-2.5-.5-3.7-1.6-2.5-2.2-7.6-11.3 1.1-23.5l.1-.1c.1-.1 2.7-2.5 5.7-3.7 1.5-.6 3.2-.5 4.8.2 1.7.8 3 2.3 3.6 4.1 1.1 3.3-1.3 15.8-5.2 20.5-2.3 2.7-4.2 4.1-6.1 4.2-.1-.1-.2-.1-.3-.1zm-1.1-23.9c-7.8 10.9-3.4 18.8-1.3 20.7.9.8 1.7 1.2 2.5 1.1 1.3-.1 2.8-1.2 4.7-3.5 3.5-4.2 5.7-16.1 4.9-18.5-.4-1.3-1.4-2.4-2.6-2.9-.7-.3-1.9-.6-3.2-.1-2.4 1-4.6 2.9-5 3.2z" fill="#000000" stroke-width="none" opacity="1"></path><path id="SvgjsPath45151" d="M149.8 77.4c-3.3.6-5.4 6.1-6 9.8-.1.1-.1.2-.2.3-.4.6.4 1.2.8.6.5-.8 1-1.6 1.8-1.9 1.4-.5 2.1 1.1 1.8 2.6-.4 1.9-1.6 3-2.6 4.4-.1.1 0 .3.1.2 1.7-1 4.3-4.8 3.1-7.2-.9-1.7-2.3-1.4-3.4-.4.8-2.1 1.4-4.3 3-5.9.5-.5 1.5-1.4 2.2-1.3 1.3.2 1.3 2.1 1.3 3.4.1 1.7-.1 3.4-.4 5 0 .2.2.2.3.1.6-2.4 2-10.4-1.8-9.7z" fill="#000000" stroke-width="none" opacity="1"></path></g></g><g id="svga-group-faceshape-wrap" transform="matrix(1,0,0,1,0,0)"><g id="svga-group-faceshape-single"><path id="SvgjsPath45214" d="M141.7 91.8c-.3-5.4 2.1-24 2.1-24-.1-3.3-.3-8.9-1.4-14.2-2.3-11.4-15.1-28.8-42.4-28.8S63.6 38.2 59.6 48.1c-2.5 6.2-3.2 15.2-3.4 19.7 0 0 .4 17.5 1.1 23.3.7 5.8-2.7 22.4-1.7 26.4 1 4.1 26.8 16.9 31.2 21 4.4 4.1 16.3 5.1 21 2 4.7-3.1 32.9-22.4 34.6-24.1 1.7-1.5-.4-19.1-.7-24.6z" fill="#ffffff" stroke-width="none" opacity="1"></path><path id="SvgjsPath45215" d="M99.7 143.6c-5.2 0-10.9-1.5-13.7-4.1-1.7-1.6-7.4-4.7-13.4-8-12.1-6.7-17.5-10.9-18.2-13.6-.6-2.3-.5-7.3.7-13 1.1-5.1 1.3-10.8 1-13.5C55.4 85.7 55 68.7 55 68c.2-4.8.9-13.8 3.4-20.1 6.6-16.2 20.1-24 41.5-24 12.3 0 23.2 3.6 31.3 10.4 6.3 5.2 10.9 12.5 12.2 19.3 1.1 5.5 1.3 11.4 1.4 14.4v.2c0 .2-2.4 18.5-2.1 23.8.1 1.8-.3 5.3.3 8.9 1.9 11.4 1.4 15.4.1 16.7-1.1 1.1-10.4 8.5-33.4 23.3l-1.4.9c-2 1.2-5.2 1.8-8.6 1.8zM57.3 67.9c0 .9.4 17.6 1.1 23.2.4 3.1.2 8.8-1 14.3-1 4.8-1.2 10.3-.7 12 .1.2-.4 1.3 5.2 4.8 3.7 2.3 7.4 4.9 11.9 7.3 6.4 3.5 11.9 6.6 13.8 8.3 3.9 3.6 15.3 4.7 19.6 1.9l1.4-.9c27.1-17.4 32-22.1 32.9-22.9.6-1.4.2-9.8-.7-14.8-.6-3.7-.2-7.2-.3-9.1-.3-5.3 1.9-22.6 2.1-24.1 0-3-.3-8.7-1.4-13.9-1.3-6.4-5.6-13.1-11.5-18-7.7-6.5-18-9.9-29.9-9.9-20.3 0-33.2 7.4-39.4 22.6-2.2 5.8-2.9 14.5-3.1 19.2z" fill="#000000" stroke-width="none" opacity="1"></path></g></g><g id="svga-group-mouth-single-move" transform="matrix(1,0,0,1,0,0)"><g id="svga-group-mouth-single" transform="matrix(1,0,0,1,0,0)"><path id="SvgjsPath45090" d="M99.76 118.09c1.76-.02 3.34-1.08 3.54-2.9.04-.35-.5-.34-.54 0-.33 3.05-5.99 2.84-5.2.45.11-.33-.41-.47-.52-.14-.55 1.67 1.33 2.61 2.72 2.59z" fill="#000000" stroke-width="none" opacity="1"></path><path id="SvgjsPath45091" d="M113.76 120.49c-3.42 3.69-8.99-.47-13.01-.72-1.86-.11-3.76.17-5.5.83-1.79.68-6.07 3.82-7.12.57-.21-.66-1.26-.38-1.04.29.52 1.59 2.02 2.34 3.65 2.17 1.09-.12 2.08-.67 3.03-1.16 1.76-.91 3.54-1.53 5.53-1.63 4.82-.24 11.13 4.83 15.23.41.47-.5-.3-1.27-.77-.76z" fill="#000000" stroke-width="none" opacity="1"></path><path id="SvgjsPath45092" d="M107.57 128.43c-1.59 1.45-5 1.06-7.03 1.2-1.82.13-5.14.99-6.53-.57-.23-.26-.61.12-.38.38 1.58 1.79 4.87.87 6.91.73 2.26-.16 5.61.28 7.41-1.36.26-.23-.12-.61-.38-.38z" fill="#000000" stroke-width="none" opacity="1"></path></g></g><g id="svga-group-eyes-left-move" transform="matrix(1,0,0,1,0,0)"><g id="svga-group-eyes-left" transform="matrix(1,0,0,1,0,0)"><g id="svga-group-eyesback-left"></g><g id="svga-group-eyesiriswrapper-left"><g id="svga-group-eyesiriscontrol-left" transform="matrix(1,0,0,1,0,0)"><g id="svga-group-eyesiris-left" transform="matrix(1,0,0,1,0,0)"><path id="SvgjsPath45253" d="M75 84.3c-1.5 1.9-1.3 4.5.4 6 1.8 1.7 4.9 2.1 7.1.1 1.1-1.1 1.9-2.3 1.5-3.7-.1-.5-.7-3-2.1-3.8-2.5-1.4-5.1-.9-6.9 1.4z" fill="#ffffff" stroke-width="none" opacity="1"></path><path id="SvgjsPath45254" d="M79.1 92.1c-1.5 0-2.9-.6-3.9-1.5-1.8-1.7-2-4.4-.4-6.4 1.9-2.4 4.7-3 7.3-1.5 1.3.8 2 2.9 2.3 4.1.3 1.4-.2 2.7-1.6 4-1.2.8-2.4 1.3-3.7 1.3zm-3.9-7.6c-1.4 1.7-1.2 4.1.4 5.6 1.7 1.5 4.7 2 6.6.1 1.2-1.2 1.7-2.3 1.4-3.4-.4-1.8-1.1-3.2-2-3.6-2.2-1.4-4.6-.9-6.4 1.3zm4 6.3c-1.1 0-2.2-.4-3-1.2-1.4-1.3-1.5-3.4-.3-4.9 1.4-1.8 3.6-2.2 5.5-1.1 1 .6 1.5 2.2 1.7 3.1.2 1-.2 2-1.2 3-.8.8-1.8 1.1-2.7 1.1zm-2.9-5.7c-1 1.2-.9 3 .3 4 1.2 1.1 3.4 1.5 4.8.1.9-.8 1.2-1.7 1.1-2.4-.3-1.3-.8-2.3-1.4-2.7-1.8-.9-3.5-.5-4.8 1zm4.9 1.3c0-.2-.1-.4-.2-.6-.4-.8-1.3-1.1-2.1-.9.2.2.2.4.2.7 0 .2 0 .3-.1.4 0 .1-.1.2-.2.3-.2.2-.5.3-.8.3-.3 0-.6-.1-.8-.3l-.2-.2c-.1.2-.2.5-.2.7 0 .3.1.5.3.7 0 .2.1.3.2.4.5.9 1.6 1.1 2.5.7h.2c-.2-.3 0-.8.5-.8.2 0 .4.1.4.2.1-.1.1-.1.1-.2.4-.4.4-.9.2-1.4zm.9.9c0-.7-.2-1.9-.9-2.5-1.3-1.1-2.9-1.1-4.3.1-1.1 1-1.3 2.6-.4 3.7.6.8 1.6 1.3 2.6 1.3.5 0 1.1-.1 1.6-.5 1-.6 1.4-1.2 1.4-2.1zM81 88.7c0 .2-.2.3-.5.3-1.3.8-2.8.3-3.6-.7-.6-.8-.6-1.9 0-2.7v-.1c0-.2 0-.3.1-.4 0-.1.1-.2.2-.3.2-.2.5-.3.8-.3.2 0 .3 0 .5.1.8-.2 1.7-.1 2.4.6.4.3.7 1.1.7 2.2 0 .4-.2.9-.6 1.3z" fill="#000000" stroke-width="none" opacity="1"></path></g></g></g><g id="svga-group-eyesfront-left"><path id="SvgjsPath45184" d="M79 72.1c-8.2 0-14.8 6.6-14.8 14.8s6.6 14.8 14.8 14.8 14.8-6.6 14.8-14.8c0-8.1-6.6-14.8-14.8-14.8zm4.1 22.2c-3.7-.2-6.6-1.6-9.8-3.7-3.1-2.1-5.2-7.2-4-8.6 1.3-1.4 3.3-1.8 10-.3s8 5.7 8.6 7.4c.5 1.7.5 5 .5 5s-1.6.4-5.3.2z" fill="#ffffff" stroke-width="none" opacity="1"></path><path id="SvgjsPath45185" d="M86 84.7c-2.4-2.8-8.5-4.6-12.6-4.6-2.2 0-3.8.5-4.7 1.5-.5.6-1 1.6-.4 3.3 1.1 3.5 5.9 8.1 9.5 9.1 3.5 1 7 1.2 8.8 1.1h.2c-1.7.5-3.3 1.2-4.9 1.9-.2.1-.1.4.2.4 1.8-.3 3.9-1 5.6-1.9.2-.1.2-.4 0-.5.1 0 .1 0 .2-.1.3-.1.4-.4.3-.7v-.1h.2c.3 0 .6-.2.6-.5.1-.2.4-5-3-8.9zm1.7 9h-.2c-.5.2-4.8.3-9.4-.9-3.3-.9-7.8-5.2-8.7-8.3-.3-1-.2-1.7.2-2.3.6-.7 2-1.1 3.8-1.1 4.3 0 9.8 2 11.7 4.2 3.1 3.5 2.7 8 2.7 8 0 .1 0 .2.1.3 0 .2-.1.1-.2.1zm-2 2.8c-2.1.8-4.2 1.4-6.4 2.2-.2.1-.2.4.1.4 2.3-.3 4.5-1.1 6.5-2.2.2-.1 0-.5-.2-.4z" fill="#000000" stroke-width="none" opacity="1"></path></g></g></g><g id="svga-group-eyes-right-move" transform="matrix(1,0,0,1,0,0)"><g id="svga-group-eyes-right" transform="matrix(1,0,0,1,0,0)"><g id="svga-group-eyesback-right"></g><g id="svga-group-eyesiriswrapper-right"><g id="svga-group-eyesiriscontrol-right" transform="matrix(1,0,0,1,0,0)"><g id="svga-group-eyesiris-right" transform="matrix(1,0,0,1,0,0)"><path id="SvgjsPath45255" d="M116.9 84.3c-1.5 1.9-1.3 4.5.4 6 1.8 1.7 4.9 2.1 7.1.1 1.1-1.1 1.9-2.3 1.5-3.7-.1-.5-.7-3-2.1-3.8-2.4-1.4-5-.9-6.9 1.4z" fill="#ffffff" stroke-width="none" opacity="1"></path><path id="SvgjsPath45256" d="M121.1 92.1c-1.5 0-2.9-.6-3.9-1.5-1.8-1.7-2-4.4-.4-6.4 1.9-2.4 4.7-3 7.3-1.5 1.3.8 2 2.9 2.3 4.1.3 1.4-.2 2.7-1.6 4-1.2.8-2.5 1.3-3.7 1.3zm-3.9-7.6c-1.4 1.7-1.2 4.1.4 5.6 1.7 1.5 4.7 2 6.6.1 1.2-1.2 1.7-2.3 1.4-3.4-.4-1.8-1.1-3.2-2-3.6-2.3-1.4-4.7-.9-6.4 1.3zm3.9 6.3c-1.1 0-2.2-.4-3-1.2-1.4-1.3-1.5-3.4-.3-4.9 1.4-1.8 3.6-2.2 5.5-1.1 1 .6 1.5 2.2 1.7 3.1.2 1-.2 2-1.2 3-.8.8-1.7 1.1-2.7 1.1zm-2.8-5.7c-1 1.2-.9 3 .3 4 1.2 1.1 3.4 1.5 4.8.1.9-.8 1.2-1.7 1.1-2.4-.3-1.3-.8-2.3-1.4-2.7-1.8-.9-3.6-.5-4.8 1zm4.9 1.3c0-.2-.1-.4-.2-.6-.4-.8-1.3-1.1-2.1-.9.2.2.2.4.2.7 0 .2 0 .3-.1.4 0 .1-.1.2-.2.3-.2.2-.5.3-.8.3-.3 0-.6-.1-.8-.3l-.2-.2c-.1.2-.2.5-.2.7 0 .3.1.5.3.7 0 .2.1.3.2.4.5.9 1.6 1.1 2.5.7h.2c-.2-.3 0-.8.5-.8.2 0 .4.1.4.2.1-.1.1-.1.1-.2.4-.4.4-.9.2-1.4zm.9.9c0-.7-.2-1.9-.9-2.5-1.3-1.1-2.9-1.1-4.3.1-1.1 1-1.3 2.6-.4 3.7.6.8 1.6 1.3 2.6 1.3.5 0 1.1-.1 1.6-.5 1-.6 1.4-1.2 1.4-2.1zm-1.1 1.4c-.1.2-.2.4-.5.4-1.3.8-2.8.3-3.6-.7-.6-.8-.6-1.9 0-2.7v-.1c0-.2 0-.3.1-.4 0-.1.1-.2.2-.3.2-.2.5-.3.8-.3.2 0 .3 0 .5.1.8-.2 1.7-.1 2.4.6.4.3.7 1.1.7 2.2 0 .3-.2.8-.6 1.2z" fill="#000000" stroke-width="none" opacity="1"></path></g></g></g><g id="svga-group-eyesfront-right"><path id="SvgjsPath45186" d="M121 72.1c-8.2 0-14.8 6.6-14.8 14.8s6.6 14.8 14.8 14.8 14.8-6.6 14.8-14.8c0-8.1-6.6-14.8-14.8-14.8zm6.4 18.5c-3 2.3-5.9 3.8-9.5 4.2s-5.4 0-5.4 0-.1-3.3.3-5 1.6-6 8.2-7.8 8.6-1.5 10-.2-.5 6.5-3.6 8.8z" fill="#ffffff" stroke-width="none" opacity="1"></path><path id="SvgjsPath45189" d="M131.5 81.3c-.9-.9-2.5-1.3-4.8-1.2-4.1.2-10.1 2.4-12.3 5.3-3.2 4.1-2.5 8.8-2.5 9 0 .3.3.5.6.5.1 0 .1 0 .2-.1v.1c-.1.3.1.6.4.7.2.1.7.1 1.3.1 1.9 0 5.3-.4 8.7-1.5 3.6-1.2 8.1-6 9-9.6.5-1.8 0-2.8-.6-3.3zm-.4 3c-.8 3.2-5 7.7-8.3 8.8-4.5 1.5-8.8 1.6-9.3 1.4h-.2c-.1 0-.2 0-.3.1 0-.1.1-.2.1-.3 0 0-.6-4.5 2.3-8.2 1.8-2.4 7.2-4.6 11.5-4.9 1.9-.1 3.2.2 3.9.9.4.5.5 1.2.3 2.2zm-18.6 11.6c-.3-.3-.7-.7-.9-1.1-.2-.2-.5 0-.4.2.4.8 1 1.8 1.9 2.1.2.1.4-.2.3-.4-.2-.3-.6-.5-.9-.8z" fill="#000000" stroke-width="none" opacity="1"></path></g></g></g><g id="svga-group-facehighlight-single"></g><g id="svga-group-eyebrows-left-move" transform="matrix(1,0,0,1,0,0)"><g id="svga-group-eyebrows-left-rotate" transform="matrix(1,0,0,1,0,0)"><g id="svga-group-eyebrows-left" transform="matrix(1,0,0,1,0,0)"><path id="SvgjsPath45114" d="M90.49 68.58c2.18 1.95.79 6.2-1.27 7.47-2.07 1.27-24.64.48-25.6-.48-.95-.95 20.67-12.55 26.87-6.99z" fill="#ffffff" stroke-width="none" opacity="1"></path><path id="SvgjsPath45115" d="M63.26 75.94c.85.85 9.96 1.15 12.73 1.22 1.18.03 2.9.07 4.72.07 3.69 0 7.81-.14 8.78-.74 1.35-.83 2.42-2.75 2.59-4.65.14-1.5-.31-2.79-1.25-3.64-3.27-2.93-10.08-1.38-15.21.43-5.81 2.05-11.11 5.04-12.21 6.2-.57.6-.26 1-.15 1.11zm9.05.07-5.45-2.29c.73-.42 1.59-.87 2.53-1.33l4.46 3.68-1.54-.06zm-.99-4.54 2.37 3.57-3.62-2.99c.4-.19.82-.38 1.25-.58zm5.67-2.22 1.4 5.48-3.14-4.88c.57-.21 1.15-.41 1.74-.6zm5.38-1.37c.48-.08.94-.14 1.38-.19l.31 8.46c-.79.03-1.68.04-2.66.05l-2.16-7.63c1.06-.28 2.11-.52 3.13-.69zm4.45-.21-1.63 8.44c-.15.01-.3.01-.45.02l-.31-8.49c.88-.06 1.68-.05 2.39.03zm.68.1c.58.11 1.09.27 1.55.49l-1.91 7.71c-.36.04-.77.07-1.24.1l1.6-8.3zm2.65 1.19c.07.07.13.15.19.22l-1.74 3.74 1.07-4.32c.17.12.33.23.48.36zm-1.2 6.66c-.14.09-.47.17-.97.25l2.79-5.99c.24.53.35 1.16.29 1.87-.14 1.58-1.03 3.2-2.11 3.87zm-9.48.58-1.83-7.16c.31-.1.63-.19.94-.28l2.11 7.45c-.39-.01-.8-.01-1.22-.01zm-4.26-.08-3.26-4.93c.85-.37 1.74-.74 2.65-1.09l3.91 6.09c-.7-.01-1.43-.02-2.2-.04l-1.1-.03zm-10.83-.8c.34-.29.94-.69 1.74-1.17l4.17 1.75c-2.91-.17-5.01-.39-5.91-.58z" fill="#000000" stroke-width="none" opacity="1"></path></g></g></g><g id="svga-group-eyebrows-right-move" transform="matrix(1,0,0,1,0,0)"><g id="svga-group-eyebrows-right-rotate" transform="matrix(1,0,0,1,0,0)"><g id="svga-group-eyebrows-right" transform="matrix(1,0,0,1,0,0)"><path id="SvgjsPath45116" d="M109.51 68.58c-2.18 1.95-.79 6.2 1.27 7.47 2.07 1.27 24.64.48 25.6-.48.95-.95-20.67-12.55-26.87-6.99z" fill="#ffffff" stroke-width="none" opacity="1"></path><path id="SvgjsPath45117" d="M136.58 74.83c-1.1-1.16-6.39-4.15-12.21-6.2-5.14-1.81-11.95-3.36-15.21-.43-.94.84-1.38 2.14-1.25 3.64.17 1.91 1.24 3.82 2.59 4.65.97.6 5.09.74 8.78.74 1.82 0 3.53-.03 4.72-.07 2.77-.07 11.88-.38 12.73-1.22.12-.11.43-.51-.15-1.11zm-10.43 1.24 4.46-3.68c.94.47 1.8.92 2.53 1.33l-5.45 2.29-1.54.06zm3.79-4.02-3.62 2.99 2.37-3.57c.42.2.84.39 1.25.58zm-5.19-2.2-3.14 4.88 1.4-5.48c.59.19 1.17.39 1.74.6zm-3.99-1.28-2.16 7.63c-.98-.01-1.87-.02-2.66-.05l.31-8.46c.44.05.9.11 1.38.19 1.02.17 2.07.41 3.13.69zm-5.2-.93-.31 8.49c-.15-.01-.31-.01-.45-.02l-1.63-8.44c.72-.08 1.52-.09 2.39-.03zm-1.46 8.43c-.47-.03-.88-.06-1.24-.1l-1.91-7.71c.46-.22.97-.38 1.55-.49l1.6 8.3zm-3.77-7.46 1.07 4.32-1.74-3.74c.06-.07.12-.16.19-.22.15-.14.31-.25.48-.36zm-1.39 3.14c-.06-.71.05-1.34.29-1.87l2.79 5.99c-.5-.08-.83-.16-.97-.25-1.08-.67-1.97-2.29-2.11-3.87zm10.37 4.45 2.11-7.45c.32.09.63.18.94.28l-1.83 7.16c-.42.01-.83.01-1.22.01zm4.38-.05c-.77.02-1.5.03-2.2.04l3.91-6.09c.91.35 1.8.72 2.65 1.09l-3.26 4.93-1.1.03zm6.02-.25 4.17-1.75c.79.47 1.39.88 1.74 1.17-.9.19-3 .41-5.91.58z" fill="#000000" stroke-width="none" opacity="1"></path></g></g></g><g id="svga-group-beardwrap" transform="matrix(1,0,0,1,0,0)"><g id="svga-group-beard-single-move" transform="matrix(1,0,0,1,0,0)"><g id="svga-group-beard-single" transform="matrix(1,0,0,1,0,0)"></g></g></g><g id="svga-group-mustache-single-move" transform="matrix(1,0,0,1,0,0)"><g id="svga-group-mustache-single" transform="matrix(1,0,0,1,0,0)"></g></g><g id="svga-group-nose-single-move" transform="matrix(1,0,0,1,0,0)"><g id="svga-group-nose-single" transform="matrix(1,0,0,1,0,0)"><path id="SvgjsPath45301" d="M107.56 107.36c.81-.3 1.49-2.07 1.08-3.48-.41-1.41-3.64-4.3-7.2-4.88-3.56-.58-10.1 0-11.84 3.15-1.74 3.15-.33 5.38 1.08 5.38s4.47-1.16 4.47-1.16 2.15 1.74 3.56 1.74 4.72-1.66 4.72-1.66 2.31 1.57 4.13.91z" fill="#ffffff" stroke-width="none" opacity="1"></path><path id="SvgjsPath45302" d="M107.91 105.78c-.8-.68-2.14-.72-3.09-.49-2.6.6-4.35 2.98-7.21 1.73-1.73-.76-3.19-2.15-5.16-2.3-.92-.07-2.33.14-2.9.97-.52.75-.06 1.53.68 1.91 1.31.67 3.15-.13 4.41-.74 1.35.73 2.59 1.71 4.16 1.92 1.54.21 2.86-.48 4.17-1.19.24-.13.47-.25.7-.37 1.15.55 3.04 1.28 4.18.46.71-.51.7-1.35.06-1.9zm-17.14.61c.31-.46 1.31-.38 2-.23-.11.03-.22.07-.33.1-.19.05-1.64.09-1.67.13z" fill="#000000" stroke-width="none" opacity="1"></path><path id="SvgjsPath45303" d="M95.63 96.37c-.15-7.79.12-15.57.8-23.33.08-.87-1.28-.86-1.36 0-.68 7.76-.95 15.54-.8 23.33.02.87 1.38.88 1.36 0z" fill="#000000" stroke-width="none" opacity="1"></path></g></g><g id="svga-group-hair-front" transform="matrix(1,0,0,1,0,0)"><path id="SvgjsPath45234" d="M93.6 38.4s1.2 3.3 5.6 3.1 7.6 4.9 5 8c0 0 9.4-4.3 9-9.9 0 0 2.2 8.7 11.4 4.7 0 0 1 3.3 4 4.1 0 0-.8 8.7 4.8 10.5 5.6 1.7 9.4 7.6 8 11.1s-5.4 3.3-5.4 3.3 3.8 1.6 7.4.2c0 0-4.6 9.7-3 13.6s4.4 6.4 4 9.1-3.8 4.7-3.8 4.7 4.8-.2 7.2-3.3-.5-10.8 1.1-13.9 7.6-1.1 9-9.6c.9-4.9-4.7-6.6-5.7-9.7s-.1-5.4 1.3-8.1-1.2-12.2-3.4-14.4c0 0-.3 3.7-3 4.5-2.8.8-4.8-2.5-3.8-4.7 1-2.1 2.4-5.4.7-8.5-1.8-3.1-7.6-3.3-8.8-4.5s-3.8-8.2-6.4-9.9c-2.6-1.7-6.2-.6-9-.8-2.8-.2-7.8-2.5-7.4-4.5s3.8-4.7 5-2.7c0 0-4.2-4.7-8-2.9s-6.2 5-5.6 8.2c0 0-3.6 1.4-7.8-.6-4.2-1.9-8.4-3.1-11-.4s-.8 4.9-2.4 5.6-6.4 1.2-10.6-.2c-4.2-1.4-10.2 1-11.6 3.5 0 0 4.8-1.9 6 .4s-2.8 6.8-6.8 6-7.4 2.3-7.6 5.2 1 5.2-1.2 6.8-4 1.7-2.8 5.6 4.6 7.8 2 10.9c-2.6 3.1-6.8-3.7-6.8-3.7s-2.4 3.1-1 6.2 5 4.1 5 4.1-6 5.4-4.6 10.9c1.4 5.4 8.4 7.8 8.4 7.8s-2.4-4.3-.6-6.4c1.8-2.1 4.8-1.7 5.2 3.1.4 4.9-4 11.1-4 11.1s6.5-2.2 9.4-4.9c4-3.8 6.8-15.1 2.2-20s-3.8-10.4-.2-11c5.9-1 6 5.1 6 5.1s5.1-4.3 3.6-8.2-5.1-4.9-5.1-4.9 5.7-4 8.5.5 2 7 2 7 4.6-3.6 4.6-5.7-.4-7 2.2-6.6S88 47 90.6 46c2.4-.9 3-7.6 3-7.6z" fill="#ffffff" stroke-width="none" opacity="1"></path><path id="SvgjsPath45235" d="M155.3 66.6c-1-.9-2-1.8-2.3-2.8-.9-2.8 0-4.8 1.3-7.4 1.7-3.3-1.3-13.3-3.6-15.5-.3-.3-.7-.4-1.1-.2-.4.1-.6.5-.6.9 0 0-.3 3-2.3 3.6-1.1.3-1.8-.3-2.1-.7-.6-.8-.9-1.8-.5-2.6 1-2 2.7-5.8.6-9.5-1.3-2.3-4.4-3.2-6.7-3.9-.9-.3-2-.6-2.3-.8-.3-.3-1-1.7-1.7-2.9-1.3-2.6-3-5.9-4.9-7.1-2.1-1.4-4.6-1.2-6.8-1-1 .1-1.9.1-2.7.1-2.1-.1-5.3-1.6-6.3-2.8-.2-.2-.2-.4-.2-.4.2-1 1.7-2.4 2.7-2.6h.3l.3.3c.3.4.9.4 1.3.1.4-.3.5-.9.3-1.3-.2-.3-.4-.6-.7-.8-1.4-1.3-5-4.2-8.5-2.5-3.9 1.8-6.3 5.1-6.2 8.3-1.2.2-3.6.5-6.3-.8-4-1.8-8.9-3.5-12.1-.2-1.7 1.8-1.8 3.4-1.9 4.5-.1.8-.1.9-.2.9-1.3.6-5.7 1.1-9.8-.2-4.6-1.5-11.1 1-12.7 4-.2.4-.2.8.1 1.1.3.3.7.4 1.1.3 1.2-.5 4.1-1.2 4.7-.1.3.5 0 1.4-.7 2.3-1 1.4-3 2.6-5 2.3-2.1-.4-4.3.1-6 1.4-1.6 1.2-2.6 3-2.7 4.7-.1 1 0 1.8.1 2.6.1 1.8.2 2.7-.8 3.4-.3.2-.7.5-1 .7-2 1.3-3.3 2.4-2.2 6.1.4 1.2.9 2.3 1.4 3.4 1.4 3 2.1 4.9.8 6.6-.4.4-.7.5-.9.5-1.3-.1-3.3-2.4-4.3-4-.2-.3-.5-.5-.8-.5s-.6.1-.8.4c-.1.1-2.7 3.6-1.1 7.2 1 2.2 2.8 3.4 4.1 4-1.8 2-4.9 6.3-3.8 10.7 1.5 5.9 8.7 8.4 9 8.5.4.1.8 0 1.1-.3s.3-.8.1-1.1c-.5-1-1.8-4-.7-5.3.6-.7 1.3-1 1.9-.8.8.3 1.4 1.5 1.6 3.4.4 4.4-3.8 10.3-3.8 10.4-.2.4-.2.8 0 1.2.3.3.7.5 1.1.4.3-.1 6.7-2.3 9.8-5.2 4.5-4.2 7.2-16.2 2.3-21.4-2.9-3.1-3.3-5.9-2.8-7.4.3-.9.9-1.4 1.8-1.6 1.4-.2 2.6 0 3.4.7 1.4 1.2 1.5 3.5 1.5 3.5 0 .4.2.7.6.9s.8.1 1.1-.1c.2-.2 5.7-4.9 3.8-9.4-1-2.4-2.6-3.8-3.8-4.6 1-.4 2.2-.7 3.3-.5.9.2 1.6.7 2.1 1.6 2.5 3.9 1.9 6.2 1.9 6.2-.1.4 0 .9.4 1.1.4.3.8.2 1.2 0 .8-.6 5-4 5-6.5v-.8c0-1.3-.1-4.1.7-4.7 0 0 .1-.1.4-.1.8.1 1.4.7 2 1.3.9.9 2.2 2.1 4.2 1.4 2-.8 3-3.9 3.5-6.2 1 .9 2.6 1.7 5 1.6 2.1-.1 3.7 1.3 4.4 2.7.3.6.9 2.2-.3 3.6-.3.4-.3.9 0 1.2.3.4.8.5 1.2.3.3-.2 6.8-3.2 8.9-7.7.7 1.1 1.7 2.2 3.2 2.9 2.1 1 4.5 1 7.3 0 .5 1.1 1.6 2.7 3.5 3.5-.1 2.3.2 9.1 5.5 10.7 2.9.9 5.6 3.2 6.9 5.9.7 1.5.9 2.8.5 3.9-1.1 2.8-4.3 2.7-4.4 2.7-.5 0-.9.3-1 .8s.1 1 .6 1.1c.1.1 2.9 1.2 6 .7-1.3 3.2-3.5 9.3-2.2 12.5.6 1.5 1.4 2.9 2.2 4.1 1.1 1.8 2 3.2 1.8 4.5-.3 1.8-2.5 3.5-3.3 3.9-.4.2-.6.7-.5 1.1s.5.7 1 .7c.2 0 5.3-.3 7.9-3.7 1.5-2 1.3-5.2 1-8.4-.2-2.2-.4-4.5.2-5.7.4-.7 1.2-1.1 2.5-1.6 2.4-1 5.6-2.3 6.7-8.3.3-3.5-2-5.7-3.8-7.4zm1.5 7.1c-.9 4.9-3.2 5.8-5.4 6.7-1.4.5-2.8 1.1-3.5 2.6-.9 1.7-.6 4.1-.4 6.8.2 2.6.5 5.6-.6 7-.7 1-1.8 1.6-2.8 2 .6-.8 1-1.6 1.2-2.6.3-2-.8-3.8-2-5.9-.7-1.2-1.4-2.4-2-3.8-1.2-2.8 1.7-10.2 3-12.8.2-.4.1-.8-.2-1.1-.2-.2-.5-.3-.7-.3-.1 0-.2 0-.4.1-.9.4-1.9.5-2.8.5.8-.6 1.6-1.4 2.1-2.7.6-1.5.4-3.5-.5-5.5-1.5-3.2-4.6-5.8-8.1-6.9-4.5-1.4-4.1-8.7-4.1-9.4 2.1 0 4.3-.9 5.6-2.4 2.9-3.2 1.3-9.5-3.7-8.3-.8.2-.4 1.4.3 1.2 2-.5 3.8 1.1 3.8 3.2 0 1.8-1.3 3.4-2.7 4.3-1.5.9-3.5 1.1-5.1.4-1.6-1-2.2-2.9-2.2-2.9-.1-.3-.3-.5-.5-.6-.3-.1-.6-.1-.8 0-2.6 1.1-4.8 1.3-6.5.5-2.6-1.3-3.5-4.4-3.5-4.5-.1-.5-.6-.8-1.1-.7s-.9.5-.8 1.1c.2 3-3.3 5.9-6 7.6.1-1-.1-2-.6-3-1.2-2.4-3.7-3.9-6.3-3.8h-.7c-.8-.2-1.6-.5-2.1-.9-2-1.7-2-4.4-2.8-6.7-.7-1.9-2-3.5-3.9-4.4-4-1.8-8.3.7-8.4 5.1 0 .8 1.2.8 1.3 0 .1-3.7 4.4-5.1 7.1-3.5 2.3 1.3 2.9 3.3 3.3 5.7.1.6.2 1.1.3 1.6-.4.1-.6.4-.7.8-.2 2.5-1.2 6.4-2.5 6.9-.8.3-1.2 0-2.1-.9-.8-.7-1.7-1.6-3.1-1.9-.8-.1-1.5.1-2 .6-1.4 1.3-1.4 4.2-1.3 6.3v.8c0 .7-1.2 2.2-2.6 3.5-.2-1.3-.7-3.1-2.1-5.4-.8-1.4-2-2.2-3.4-2.5-3.1-.6-6.3 1.6-6.5 1.7-.3.2-.5.6-.4 1s.3.7.7.8c.1 0 3.1.9 4.5 4.3.8 1.9-.6 4.2-2 5.8-.3-1-.8-2.1-1.8-2.9-1.3-1.1-2.9-1.4-5-1.1-1.6.3-2.9 1.3-3.4 2.9-.7 2.2-.1 4.9 1.7 7.5-1.5-.9-3.2-1.5-5-1.6-4.3-.2-8.4 3.3-6.5 7.8.3.7 1.4.1 1.1-.6-2.7-6.1 5.9-6.5 9.1-4.9 2.2 1.2 3.8 3.1 4.7 5.3.9 5-1.2 11.8-4.1 14.5-1.6 1.5-4.3 2.8-6.3 3.7 1.3-2.4 2.9-6 2.6-9.1-.3-3.7-2-4.8-2.9-5.1-1.3-.4-2.9.1-4 1.4-1.2 1.5-1 3.5-.5 5.1-2-1.1-4.7-3.1-5.5-6.1-1.2-4.8 4.2-9.8 4.3-9.9.3-.2.4-.6.3-1-.1-.4-.4-.6-.7-.7 0 0-3.1-.9-4.3-3.5-.6-1.4-.3-2.9.2-3.9 1.1 1.4 3 3.5 4.9 3.6.7.1 1.7-.1 2.6-1.2 2.3-2.7.8-5.9-.5-8.7-.5-1-1-2.1-1.3-3.1-.8-2.5-.2-2.8 1.3-3.8.3-.2.7-.4 1.1-.7 2-1.4 1.8-3.3 1.7-5.2-.1-.7-.1-1.5-.1-2.3.1-1.1.8-2.4 2-3.3 1.3-1 2.9-1.4 4.4-1.1 2.9.6 5.6-1.1 7-3 1.2-1.5 1.5-3.2.8-4.4-.6-1.2-1.8-1.6-3.1-1.7 2.2-1 5.1-1.5 7.5-.8 4.5 1.5 9.5 1 11.3.1 1.2-.6 1.3-1.7 1.4-2.6.1-1 .1-2 1.3-3.2 1.8-1.9 4.8-1.7 9.8.6 3.7 1.7 6.9 1.1 8.1.8.4 2.2 1 4.4 2.5 6.2 2.4 2.9 12.5 3.9 10.8 8.8-.3.8.9 1.1 1.2.3 1.1-3-.8-5.2-3.5-6.4-2.3-1-5-1.1-7-3-1.8-1.8-2.5-4.4-2.9-6.9v-.3c-.5-2.6 1.6-5.5 5-7.1 1.6-.7 3.3 0 4.6.8-1.4.8-2.7 2.3-3 3.7-.1.5-.1 1.2.6 2 1.4 1.9 5.2 3.4 7.7 3.6.9.1 2 0 3-.1 2-.2 4-.3 5.5.7 1.4 1 3 4.1 4.2 6.4.9 1.8 1.5 2.9 2 3.4.6.6 1.7.9 3.1 1.3 2 .6 4.6 1.3 5.5 2.9 1.5 2.5.4 5.3-.7 7.6-.7 1.5-.4 3.4.8 4.7 1.1 1.3 2.6 1.8 4.2 1.3 1.7-.5 2.7-1.8 3.2-3 .8 1.6 1.5 4 2 6.1 0 1.5-.2 2.9-.9 4.3-1 2.2-2.8 3.7-5.3 3.7-2.2 0-6.3-3.2-3.3-5.3.6-.5 0-1.6-.6-1.1-4.1 3 .6 8.1 4.5 7.7 2.9-.3 4.7-1.8 5.7-3.8-1.4 2.7-2.4 5.3-1.3 8.7.5 1.4 1.6 2.5 2.8 3.6.9 1.9 2.5 3.4 2.1 5.9zM68.7 32.1c.4 5.8-6.6 6.9-9.4 10.8-1.5 2.1-1.8 4.6-.3 6.8.5.7 1.5 0 1.1-.6-3.4-5 3.8-8 6.7-10.4 2.1-1.7 3.4-3.8 3.2-6.5-.1-.9-1.4-.9-1.3-.1z" fill="#000000" stroke-width="none" opacity="1"></path></g><g id="svga-group-glasses-single-move" transform="matrix(1,0,0,1,0,0)"><g id="svga-group-glasses-single" transform="matrix(1,0,0,1,0,0)"></g></g></g></g></g><rect id="svga-credit-rect" width="200" height="15" x="0" y="185" fill="#ecf0f1" opacity="0.5" style="display: none;"></rect><text id="svga-credit-text" font-family="Avenir Next, Roboto, Helvetica, Arial, sans-serif" font-size="10px" text-anchor="start" font-weight="400" size="10px" anchor="start" weight="400" fill="#333333" x="33.402061462402344" y="182.71133995056152" style="display: none;"><tspan id="SvgjsTspan44640" dy="13" x="33.402061462402344">Created on AvatarMaker.com</tspan></text></g></svg>