<svg xmlns="http://www.w3.org/2000/svg" version="1.1" width="600px" height="600px" viewBox="0 0 200 200" style="overflow:hidden!important;"><defs id="SvgjsDefs43055"></defs><g id="svga-group-wrapper"><g id="svga-group-backs-single"></g><g id="svga-group-humanwrap-move" transform="matrix(1,0,0,1,0,0)"><g id="svga-group-humanwrap" transform="matrix(1,0,0,1,0,0)"><g id="svga-group-hair-back-move" transform="matrix(1,0,0,1,0,0)"><g id="svga-group-hair-back" transform="matrix(1,0,0,1,0,0)"></g></g><g id="svga-group-humanbody-back"><path id="SvgjsPath43465" d="M77.6 118.3c0 19.3 3.4 44.1-10 51.9-13.4 7.9-31.9 11.3-37.8 22s-4.4 25.3-4.4 25.3h149.3s.7-18.9-5.1-26.4c-8.1-10.4-27.8-15.5-37.7-20.9s-13.4-25.1-13.4-52.4l-40.9.5z" fill="#ffffff" stroke-width="none" opacity="1"></path><path id="SvgjsPath43466" d="M175.8 218.7H24.4l-.1-1c-.1-.6-1.5-15.1 4.5-26 4.1-7.4 13.5-11.3 23.5-15.5 5-2.1 10.2-4.3 14.8-6.9 10.6-6.2 10.1-23.9 9.6-41-.1-3.5-.2-6.8-.2-10v-1.1l43.2-.4v1.1c0 29.9 4.2 46.7 12.8 51.4 2.9 1.6 6.7 3.2 10.8 4.9 10 4.1 21.3 8.8 27.2 16.3 6.1 7.7 5.4 26.4 5.4 27.1l-.1 1.1zm-149.3-2.2h147.1c0-4.1-.2-18.5-4.9-24.6-5.5-7-16.6-11.6-26.3-15.6-4.1-1.7-8-3.3-11-5-5.1-2.8-8.7-8.9-10.9-18.7-2-8.4-2.9-19.4-3-33.5l-38.6.4c0 2.8.1 5.7.2 8.8.5 17.8 1 36.1-10.7 43-4.7 2.7-9.9 4.9-15 7.1-9.6 4-18.7 7.8-22.4 14.5-5 8.6-4.7 20.1-4.5 23.6z" fill="#000000" stroke-width="none" opacity="1"></path><path id="SvgjsPath43467" d="M93.9 153.8c-.5 1.8-.4 3.4.5 5.2.8 1.6 2.1 2.7 3.9 2.9.4 0 .7-.5.5-.8-1.6-2.2-3.5-4.2-3.7-7.1 0-.7-1-.9-1.2-.2zm18.6 33.7c8.8.5 18.1-.7 26.6-2.9.7-.2.6-1.4-.2-1.3-8.8 1.1-17.7 2-26.5 3.3-.5.1-.3.9.1.9zm-49.4-5c3.8.9 7.6 1.9 11.5 2.8 3.6.8 7.4 2 11.1 2.1.7 0 .8-.9.2-1.2-3.5-1.4-7.5-1.7-11.2-2.5-3.8-.7-7.5-1.3-11.3-2-.5 0-.7.7-.3.8z" fill="#000000" stroke-width="none" opacity="1"></path></g><g id="svga-group-chinshadow-single"></g><g id="svga-group-humanbody-front"></g><g id="svga-group-clothes-single"><path id="SvgjsPath43605" d="M74.7 150.8s-1.1 8.9-2.1 11c0 0-1.6 5.2-11.4 8.9S37.9 180 33.6 183s-12.8 13.7-9.8 35.4h152.8s.9-16.4-2.7-24c-3.7-7.5-8.7-10.1-13.7-12.8-5-2.7-21.9-10.1-25.4-11.9s-6.4-3.7-7.8-5.5c-1.4-1.8-4.1-12.3-4.1-12.3s-2.5 1.8-7.5 3.2-10.5 1.1-12.8 3.2-1.6 10.5-1.6 10.5l-2.5-.2s0-7.1-1.1-9.6-7.8-3.4-13.7-4.8c-6-1.4-9-3.4-9-3.4z" fill="#ffffff" stroke-width="none" opacity="1"></path><path id="SvgjsPath43606" d="M174.8 193.9c-3.7-7.5-8.7-10.3-13.6-12.9l-.6-.3c-2.9-1.6-9.5-4.6-15.4-7.2-4.4-2-8.5-3.9-10-4.6-2.8-1.5-6.1-3.4-7.4-5.2-.9-1.2-2.9-8-3.9-12-.1-.3-.3-.6-.6-.7s-.7-.1-.9.1c0 0-2.5 1.8-7.2 3-1.8.5-3.7.8-5.6 1.1-3.2.5-6 .9-7.6 2.4-2.1 1.9-2.1 7.5-2 10.1h-.4c0-2.1-.2-6.9-1.2-9.1-1.2-2.5-5.8-3.5-11.2-4.7-1.1-.2-2.1-.5-3.2-.7-5.6-1.3-8.5-3.2-8.6-3.3-.3-.2-.7-.2-1-.1s-.5.4-.6.8c-.3 2.4-1.3 9.1-2 10.7v.1c0 .1-1.7 4.9-10.8 8.3-10.3 3.8-23.5 9.5-27.9 12.4-5.2 3.5-13.1 15.2-10.2 36.4.1.5.5.9 1 .9h152.8c.5 0 1-.4 1-.9-.1-.8.8-16.9-2.9-24.6zm-40.5-23.3c1.5.8 5.5 2.6 10.1 4.7 5.8 2.6 12.5 5.6 15.3 7.2l.6.3c.3.2.7.4 1 .6-3.9 4.2-6.4 11.3-7.5 20.4-.1.1-.2.3 0 .4 0 .4-.1.8-.1 1.2-.1-.1-.3-.1-.4-.1-.2-.1-.4.3-.1.4.2.1.3.1.5.2-.3 3.6-.5 7.5-.4 11.6h-52.2V209h8.7c.6 0 1-.4 1-1s-.4-1-1-1h-8.7v-11.3l7.3.2c.5 0 1-.4 1-1s-.4-1-1-1l-7.3-.2v-13.1c3.5 0 6.7.1 6.8.1.6 0 1-.4 1-1s-.4-1-1-1c-.3 0-3.4 0-6.8-.1V172c7.9 0 16.7-1.7 25.9-6.5 1.5 1.9 4.5 3.6 7.3 5.1zm-47.7-14.7c4.2.9 9.1 1.9 9.8 3.5.9 1.9 1.1 7.3 1.1 9.2 0 .5.4.9.9 1l2.5.2c.3 0 .6-.1.8-.3.2-.2.3-.5.3-.8-.3-3.3-.1-8.5 1.3-9.7 1.2-1.1 3.8-1.5 6.6-1.9 1.9-.3 3.8-.6 5.8-1.1 3.2-.9 5.4-1.9 6.7-2.6.7 2.5 2.2 7.9 3.4 10.4-5.9 3.1-11.8 4.9-17.3 5.6-.1-3.8-.2-7.6 0-11.5 0-.2-.3-.2-.3 0-.3 3.8-.4 7.7-.1 11.5-5.5.8-10.7.6-15.3-.1.2-2.2.1-4.6.1-6.8 0-.3-.4-.3-.4 0-.1 2.2-.3 4.5-.2 6.7-.6-.1-1.2-.2-1.7-.3l.1-.1c-.1-3.6-.2-7 .3-10.6 0-.3-.4-.4-.4-.1-.6 3.5-1 7.3-.3 10.8-.6-.1-1.2-.2-1.8-.4.4-3.7.5-7.6.6-11.3 0-.2-.3-.2-.4 0-.3 3.7-.7 7.5-.7 11.3-.6-.1-1.2-.3-1.8-.5.6-3.5.8-7.1 1.1-10.7 0-.2-.3-.2-.4 0-.4 3.5-1 7.1-1.2 10.6-.7-.2-1.3-.4-2-.6.1-3.4.4-6.7 1.4-10.1.1-.2-.3-.3-.4-.1-1 3.2-1.7 6.6-1.6 10-.5-.1-.9-.3-1.3-.4.1-3.9.2-7.6 1.2-11.5v-.1c.1 0 .2.1.4.1 1 .2 2.1.4 3.2.7zm-6-1.5c.7.2 1.4.4 2.2.6 0 0-.1 0-.1.1-1.1 3.6-1.8 7.7-1.3 11.4-.6-.2-1.2-.4-1.7-.6.1-3.9.2-7.7.9-11.5zm-1.4 11.3c-.7-.3-1.3-.6-1.9-.8 0 0 0-.1.1-.1.2-3.8.3-7.5.9-11.2.6.2 1.3.5 2 .7-.8 3.7-1.4 7.6-1.1 11.4zm-3.7-13.3c.6.3 1.3.7 2.3 1.1-.7 3.7-1.1 7.5-.9 11.3-.9-.4-1.6-.8-2.3-1.1.7-3.3 1.2-7 1.2-10.4 0-.2-.3-.2-.3-.1-.7 3.2-1.2 6.8-1.4 10.1-.3-.2-.7-.4-.9-.5.2-.4.3-.7.3-.8.8-1.6 1.6-7 2-9.6zm-13.9 19.2c5.9-2.2 9-5 10.6-7 2.8 1.6 13.1 6.9 26.8 7.4v6.6c-3.7 0-7.3-.1-7.7-.1-.6 0-1 .4-1 1s.4 1 1 1h2.2c-1.2.5-2.7.8-3.5-.5-1-1.6 1.1-3.4 2.2-1.7.1.2.6.1.5-.2-.3-.9-1.2-1.3-2.1-1.1-1 .2-1.5 1.2-1.5 2.1.1 2.5 3.5 3 5 1.6.1-.1.1-.2 0-.2 1.4 0 3.1 0 4.8.1v13.1l-6.8-.2c-.5-.1-1 .4-1 1s.4 1 1 1l6.8.2V207h-7.8c-.6 0-1 .4-1 1s.4 1 1 1h7.8v8.4H45.8c.4-25.4-5.6-33.1-8.6-35.4 5.7-3 16-7.3 24.4-10.4zm-37.2 43.3c2.7.7 5.4 1.3 8.2 1.9.2 0 .2-.2.1-.3-2.7-.8-5.5-1.5-8.3-2.1 0-.7-.1-1.3-.1-2 2.8.8 5.6 1.6 8.5 2 .3.1.4-.4.1-.4-2.8-.9-5.8-1.5-8.6-2.1V209c3.4.7 6.8 1.5 10.3 1.9.2 0 .3-.3 0-.4-3.4-.9-6.9-1.4-10.3-2 0-1.1.1-2.1.1-3.1 2.9.8 5.9 1.6 8.9 2.1.2 0 .3-.3.1-.4-2.9-1-5.9-1.6-8.9-2.2.1-.8.2-1.5.3-2.2 2.1.8 4.2 1.5 6.4 2 .3.1.5-.3.2-.4-2.1-.9-4.3-1.5-6.5-2.1.1-.8.2-1.5.4-2.2 2.3.4 4.6.9 7 1.1.2 0 .3-.4 0-.4-2.3-.5-4.6-.8-6.9-1.1.2-.9.4-1.7.6-2.5 2.7.8 5.4 1.5 8.1 2 .2 0 .3-.3.1-.4-2.6-.9-5.3-1.5-8-2.1.2-.7.4-1.4.7-2 2.3.7 4.6 1.4 6.9 1.9.2.1.3-.3.1-.4-2.2-.8-4.6-1.4-6.9-2 .2-.6.5-1.3.8-1.9 2.3.8 4.6 1.7 7 2.2.2 0 .3-.2.1-.3-2.2-1-4.5-1.6-6.9-2.4.3-.7.7-1.3 1-1.9 2.2.4 4.5.9 6.8 1 .2 0 .3-.3 0-.4-2.1-.5-4.4-.8-6.6-1.1.5-.7.9-1.4 1.4-2 1.9.6 3.9 1.3 5.9 1.7.3.1.4-.3.1-.4-1.8-.7-3.8-1.2-5.7-1.7.7-.8 1.3-1.5 2-2.1 1.7.5 3.3.9 5 1.1.2 0 .2-.3 0-.4-1.4-.6-3-.9-4.5-1.2.3-.2.5-.4.8-.6.1-.1.3-.2.5-.3.4.1.8.2 1.3.4.3.1.6.3.9.4 2.7 2.6 7.4 10.5 7 33.1H24.6c-.1-.8-.1-1.6-.2-2.4zm151.2 2.5h-20.5v-1.8c.9.4 1.8.7 2.7.8.2 0 .4-.3.2-.4-.9-.5-1.9-.9-2.9-1.1V212c1.6.6 3.1 1.3 4.7 1.7.1 0 .2-.2.1-.2-1.6-.7-3.2-1.3-4.8-1.9 0-.8.1-1.6.1-2.4 1.4.6 2.7 1.3 4.1 1.8.1 0 .2-.1.1-.2-1.3-.8-2.8-1.4-4.2-2 0-.7.1-1.4.1-2 1.3.6 2.6 1.1 3.9 1.4.1 0 .2-.2.1-.3-1.2-.8-2.6-1.3-4-1.8 0-.3.1-.7.1-1 1.1.5 2.3 1 3.4 1.4.2.1.4-.3.2-.4-1.1-.6-2.3-1.1-3.5-1.6.1-.6.1-1.1.2-1.7 1.1.6 2.2 1.2 3.3 1.5.1.1.2-.1.1-.2-1-.7-2.2-1.3-3.4-1.8.1-.9.3-1.7.4-2.5.8.5 1.5.9 2.3 1.2.2.1.3-.2.1-.4-.7-.6-1.6-1-2.4-1.4.1-.7.3-1.3.4-2 .9.5 1.7 1 2.7 1.4.2.1.3-.2.1-.3-.8-.6-1.8-1.1-2.7-1.5 1.3-5.4 3.4-9.6 6-12.3 3.7 2.2 7.2 4.9 9.9 10.5 3.5 6 3.3 18.8 3.1 22.4zm-82.3-21.1c.1-.2-.1-.4-.3-.3-1 .8-2.5 1-3-.4-.6-1.4.8-2.5 2.1-2.3.3.1.4-.3.1-.4-1.8-.7-3.4 1.2-2.8 2.9.5 1.6 3.1 2.2 3.9.5zM89.8 210c.7.3 1.7.4 2.3-.2.2-.2 0-.5-.2-.4-.5.2-1 .3-1.6.2-.7-.2-1.1-.8-1.1-1.5-.1-1.5 1.6-2.1 2.8-1.4.2.1.4-.2.2-.3-1.5-1.1-3.6 0-3.5 1.8-.1.7.4 1.5 1.1 1.8zm20.1-4.8c-.2 0-.3.3-.1.4.9.4 1.7 1.1 1.9 2.1.1.6.1 1.2-.2 1.7-.5.8-1.7 1.1-2.2.1-.1-.2-.5-.1-.4.2.7 1.9 2.9.9 3.4-.6.5-1.7-.6-3.8-2.4-3.9zm.4-9.9c.2-1.5-1.6-2.8-2.8-1.9-.2.1-.1.4.1.3.9-.2 2.2.4 2.1 1.5-.1 1.1-1.5 1.5-2.3 1.1-.2-.1-.4.2-.2.3 1.1.8 2.9.1 3.1-1.3zM110 180c.3-1.3-1.4-3.1-2.7-2.2-.2.1-.1.4.1.4.5 0 1 0 1.4.3.5.3.8.9.7 1.6-.3 1-1.5 1.4-2.4.9-.2-.1-.4.2-.2.3 1.1.8 2.9 0 3.1-1.3zm48.5 13.4c-.3-.1-.5.3-.2.4.9.4 1.7.9 2.6 1.1.2.1.2-.2.1-.3-.7-.5-1.6-.8-2.5-1.2zm-52.9-23.9c-.2-3.4-.6-6.6-.7-10 0-.2-.3-.2-.3 0-.2 3.3-.1 6.8.7 10.1 0 .2.3.1.3-.1zm8.1-1.7c-.4-3.3-1.2-6.6-1.8-9.9 0-.2-.3-.1-.3.1.6 3.3 1 6.6 1.9 9.8 0 .2.2.2.2 0zm3.2-.6c-.1-3.1-.8-6.2-1.3-9.2 0-.2-.4-.1-.4.1.4 3 .6 6.2 1.4 9.1.1.2.3.1.3 0zm2.5-1.4c-.2-1.4-.6-2.7-1-4.1-.1-.2-.4-.1-.4.1.3 1.3.6 2.8 1.1 4.1.1.1.3 0 .3-.1z" fill="#000000" stroke-width="none" opacity="1"></path></g><g id="svga-group-head" transform="matrix(1,0,0,1,0,0)"><g id="svga-group-ears-left-move" transform="matrix(1,0,0,1,0,0)"><g id="svga-group-ears-left" transform="matrix(1,0,0,1,0,0)"><path id="SvgjsPath43618" d="M59.9 81.9s-4.4-4.7-5.8-6.2c-1.4-1.4-3.1-4.7-5-4.1-1.9.5-1.2 2.7-1.3 5.8-.1 3.1.3 9.1 2.2 12.4 1.9 3.3 2.9 4.5 3.5 8 .6 3.5 2.8 4.2 4.1 3.2 1.3-1 4.3-7 4.4-10.2 0-3.2-1.2-7.5-2.1-8.9z" fill="#ffffff" stroke-width="none" opacity="1"></path><path id="SvgjsPath43619" d="M55.2 102.2c-.8-.3-2.3-1.3-2.8-4.2-.5-2.9-1.2-4-2.7-6.5l-.6-1.1c-2.1-3.6-2.5-10.1-2.4-13v-2c0-2-.1-4.1 2.1-4.7 2.1-.6 3.7 1.5 5 3.2.4.5.7.9 1 1.2 1.4 1.4 5.8 6.2 5.8 6.2l.1.1c.9 1.4 2.3 6 2.2 9.4-.1 3.4-3.2 9.8-4.8 11-.5.4-1.2.6-1.8.6-.4 0-.7-.1-1.1-.2zm-1.8-25.7c-.4-.4-.7-.9-1.1-1.4-.8-1.1-2.1-2.7-2.9-2.5-.6.2-.7.6-.6 2.8v2.1c-.1 3.1.3 8.9 2.1 11.9l.6 1.1c1.5 2.6 2.4 4 3 7.2.3 1.4.8 2.4 1.5 2.7.3.1.7.1 1-.1 1-.8 3.9-6.5 4-9.4.1-3-1.1-7.1-1.8-8.2-.7-.7-4.6-4.9-5.8-6.2z" fill="#000000" stroke-width="none" opacity="1"></path><path id="SvgjsPath43620" d="M48.2 76.3c.5-1.9 2.1-1 3 .4 1.9 2.6 3.2 6.6 3.6 10 0 .1-.1.2-.1.1-.1.1-.2.1-.2-.1-1.2-.5-1.6-.2-1.2.8 0 .3.1.6.3.9.2.5.6 1 .9 1.5.5.8 1.2 1.5 1.7 2.3.2.3 0 .6-.2.4-1.4-1-3.9-4.3-3.2-6.6.3-.8 1-1.1 1.5-.7-1.1-3.6-4-12-5.8-8.8-.1.1-.3 0-.3-.2z" fill="#000000" stroke-width="none" opacity="1"></path><path id="SvgjsPath43621" d="M51.1 76.8c-1 2-1.4 4.4-.9 7.1.3 1.5 2.9 9.5 4.9 8.4.2-.1.4.3.2.5-2 1.8-4.2-4.5-4.9-6.5-1.1-3.4-1.4-7.5.5-9.7.1-.1.2.1.2.2z" fill="#000000" stroke-width="none" opacity="1"></path></g></g><g id="svga-group-ears-right-move" transform="matrix(1,0,0,1,0,0)"><g id="svga-group-ears-right" transform="matrix(1,0,0,1,0,0)"><path id="SvgjsPath43622" d="M140.1 81.9s4.4-4.7 5.8-6.2c1.4-1.4 3.1-4.7 5-4.1 1.9.5 1.2 2.7 1.3 5.8s-.3 9.1-2.2 12.4c-1.9 3.3-2.9 4.5-3.5 8-.6 3.5-2.8 4.2-4.1 3.2-1.3-1-4.3-7-4.4-10.2 0-3.2 1.2-7.5 2.1-8.9z" fill="#ffffff" stroke-width="none" opacity="1"></path><path id="SvgjsPath43623" d="M143.7 102.4c-.6 0-1.3-.2-1.8-.6-1.5-1.2-4.7-7.5-4.8-11-.1-3.4 1.2-8 2.2-9.4l.1-.1s4.4-4.7 5.8-6.2c.3-.3.6-.8 1-1.2 1.3-1.7 2.9-3.8 5-3.2 2.2.6 2.1 2.7 2.1 4.7v2c.1 2.9-.2 9.4-2.4 13l-.6 1.1c-1.5 2.5-2.2 3.7-2.7 6.5-.5 2.9-2 3.9-2.8 4.2-.4.1-.7.2-1.1.2zm-2.8-19.9c-.7 1.2-1.9 5.2-1.8 8.2.1 2.9 2.9 8.6 4 9.4.3.2.6.3 1 .1.7-.3 1.3-1.3 1.5-2.7.6-3.2 1.4-4.7 3-7.2l.6-1.1c1.8-3 2.2-8.7 2.1-11.9v-2.1c.1-2.2 0-2.6-.6-2.8-.8-.2-2 1.4-2.9 2.5-.4.5-.8 1-1.1 1.4-1.3 1.5-5.2 5.7-5.8 6.2z" fill="#000000" stroke-width="none" opacity="1"></path><path id="SvgjsPath43624" d="M151.8 76.3c-.5-1.9-2.1-1-3 .4-1.9 2.6-3.2 6.6-3.6 10 0 .1.1.2.1.1.1.1.2.1.2-.1 1.2-.5 1.6-.2 1.2.8 0 .3-.1.6-.3.9-.2.5-.6 1-.9 1.5-.5.8-1.2 1.5-1.7 2.3-.2.3 0 .6.2.4 1.4-1 3.9-4.3 3.2-6.6-.3-.8-1-1.1-1.5-.7 1.1-3.6 4-12 5.8-8.8.1.1.3 0 .3-.2z" fill="#000000" stroke-width="none" opacity="1"></path><path id="SvgjsPath43625" d="M148.9 76.8c1 2 1.4 4.4.9 7.1-.3 1.5-2.9 9.5-4.9 8.4-.2-.1-.4.3-.2.5 2 1.8 4.2-4.5 4.9-6.5 1.1-3.4 1.4-7.5-.5-9.7-.1-.1-.2.1-.2.2z" fill="#000000" stroke-width="none" opacity="1"></path></g></g><g id="svga-group-faceshape-wrap" transform="matrix(1,0,0,1,0,0)"><g id="svga-group-faceshape-single"><path id="SvgjsPath43696" d="M141.7 91.8c-.3-5.4 2.1-24 2.1-24-.1-3.3-.3-8.9-1.4-14.2-2.3-11.4-15.1-28.8-42.4-28.8S63.6 38.2 59.6 48.1c-2.5 6.2-3.2 15.2-3.4 19.7 0 0 .4 17.5 1.1 23.3.7 5.8-2.7 22.4-1.7 26.4 1 4.1 26.8 16.9 31.2 21 4.4 4.1 16.3 5.1 21 2 4.7-3.1 32.9-22.4 34.6-24.1 1.7-1.5-.4-19.1-.7-24.6z" fill="#ffffff" stroke-width="none" opacity="1"></path><path id="SvgjsPath43697" d="M99.7 143.6c-5.2 0-10.9-1.5-13.7-4.1-1.7-1.6-7.4-4.7-13.4-8-12.1-6.7-17.5-10.9-18.2-13.6-.6-2.3-.5-7.3.7-13 1.1-5.1 1.3-10.8 1-13.5C55.4 85.7 55 68.7 55 68c.2-4.8.9-13.8 3.4-20.1 6.6-16.2 20.1-24 41.5-24 12.3 0 23.2 3.6 31.3 10.4 6.3 5.2 10.9 12.5 12.2 19.3 1.1 5.5 1.3 11.4 1.4 14.4v.2c0 .2-2.4 18.5-2.1 23.8.1 1.8-.3 5.3.3 8.9 1.9 11.4 1.4 15.4.1 16.7-1.1 1.1-10.4 8.5-33.4 23.3l-1.4.9c-2 1.2-5.2 1.8-8.6 1.8zM57.3 67.9c0 .9.4 17.6 1.1 23.2.4 3.1.2 8.8-1 14.3-1 4.8-1.2 10.3-.7 12 .1.2-.4 1.3 5.2 4.8 3.7 2.3 7.4 4.9 11.9 7.3 6.4 3.5 11.9 6.6 13.8 8.3 3.9 3.6 15.3 4.7 19.6 1.9l1.4-.9c27.1-17.4 32-22.1 32.9-22.9.6-1.4.2-9.8-.7-14.8-.6-3.7-.2-7.2-.3-9.1-.3-5.3 1.9-22.6 2.1-24.1 0-3-.3-8.7-1.4-13.9-1.3-6.4-5.6-13.1-11.5-18-7.7-6.5-18-9.9-29.9-9.9-20.3 0-33.2 7.4-39.4 22.6-2.2 5.8-2.9 14.5-3.1 19.2z" fill="#000000" stroke-width="none" opacity="1"></path></g></g><g id="svga-group-mouth-single-move" transform="matrix(1,0,0,1,0,0)"><g id="svga-group-mouth-single" transform="matrix(1,0,0,1,0,0)"><path id="SvgjsPath43563" d="M113.27 122.43c-2.62.42-5.31.26-7.82-.65-1.69-.61-3.35-2.05-5.19-2.2-1.91-.16-3.79 1.13-5.56 1.64-2.74.78-5.59.87-8.39.41-.65-.11-.94.89-.28 1 2.15.36 4.29.43 6.45.12 1.21-.17 2.39-.46 3.54-.86 1.5-.52 3.03-1.56 4.7-1.17 1.17.27 2.25 1.15 3.34 1.63.91.4 1.86.72 2.84.94 2.21.5 4.43.51 6.66.15.64-.11.36-1.12-.29-1.01z" fill="#000000" stroke-width="none" opacity="1"></path><path id="SvgjsPath43564" d="M107.52 127.22c-4.26 3.92-10.88 3.14-14.69-.94-.23-.25-.6.12-.37.37 4.01 4.3 10.95 5.06 15.42.94.26-.23-.11-.6-.36-.37z" fill="#000000" stroke-width="none" opacity="1"></path><path id="SvgjsPath43565" d="M96.74 114.85a7.15 7.15 0 0 1 2.93 2.29c.08.1.23.19.36.09l3.48-2.64a17.6 17.6 0 0 1 4.08 2.39c.26.2.63-.16.37-.37a18.914 18.914 0 0 0-4.48-2.6c-.16-.07-.28.04-.3.18l-3.24 2.46c-.8-.99-1.75-1.74-2.93-2.25-.32-.14-.58.31-.27.45z" fill="#000000" stroke-width="none" opacity="1"></path></g></g><g id="svga-group-eyes-left-move" transform="matrix(1,0,0,1,0,0)"><g id="svga-group-eyes-left" transform="matrix(1,0,0,1,0,0)"><g id="svga-group-eyesback-left"></g><g id="svga-group-eyesiriswrapper-left"><g id="svga-group-eyesiriscontrol-left" transform="matrix(1,0,0,1,0,0)"><g id="svga-group-eyesiris-left" transform="matrix(1,0,0,1,0,0)"><path id="SvgjsPath43736" d="M75 84.3c-1.5 1.9-1.3 4.5.4 6 1.8 1.7 4.9 2.1 7.1.1 1.1-1.1 1.9-2.3 1.5-3.7-.1-.5-.7-3-2.1-3.8-2.5-1.4-5.1-.9-6.9 1.4z" fill="#ffffff" stroke-width="none" opacity="1"></path><path id="SvgjsPath43737" d="M79.1 92.1c-1.5 0-2.9-.6-3.9-1.5-1.8-1.7-2-4.4-.4-6.4 1.9-2.4 4.7-3 7.3-1.5 1.3.8 2 2.9 2.3 4.1.3 1.4-.2 2.7-1.6 4-1.2.8-2.4 1.3-3.7 1.3zm-3.9-7.6c-1.4 1.7-1.2 4.1.4 5.6 1.7 1.5 4.7 2 6.6.1 1.2-1.2 1.7-2.3 1.4-3.4-.4-1.8-1.1-3.2-2-3.6-2.2-1.4-4.6-.9-6.4 1.3zm4 6.3c-1.1 0-2.2-.4-3-1.2-1.4-1.3-1.5-3.4-.3-4.9 1.4-1.8 3.6-2.2 5.5-1.1 1 .6 1.5 2.2 1.7 3.1.2 1-.2 2-1.2 3-.8.8-1.8 1.1-2.7 1.1zm-2.9-5.7c-1 1.2-.9 3 .3 4 1.2 1.1 3.4 1.5 4.8.1.9-.8 1.2-1.7 1.1-2.4-.3-1.3-.8-2.3-1.4-2.7-1.8-.9-3.5-.5-4.8 1zm4.9 1.3c0-.2-.1-.4-.2-.6-.4-.8-1.3-1.1-2.1-.9.2.2.2.4.2.7 0 .2 0 .3-.1.4 0 .1-.1.2-.2.3-.2.2-.5.3-.8.3-.3 0-.6-.1-.8-.3l-.2-.2c-.1.2-.2.5-.2.7 0 .3.1.5.3.7 0 .2.1.3.2.4.5.9 1.6 1.1 2.5.7h.2c-.2-.3 0-.8.5-.8.2 0 .4.1.4.2.1-.1.1-.1.1-.2.4-.4.4-.9.2-1.4zm.9.9c0-.7-.2-1.9-.9-2.5-1.3-1.1-2.9-1.1-4.3.1-1.1 1-1.3 2.6-.4 3.7.6.8 1.6 1.3 2.6 1.3.5 0 1.1-.1 1.6-.5 1-.6 1.4-1.2 1.4-2.1zM81 88.7c0 .2-.2.3-.5.3-1.3.8-2.8.3-3.6-.7-.6-.8-.6-1.9 0-2.7v-.1c0-.2 0-.3.1-.4 0-.1.1-.2.2-.3.2-.2.5-.3.8-.3.2 0 .3 0 .5.1.8-.2 1.7-.1 2.4.6.4.3.7 1.1.7 2.2 0 .4-.2.9-.6 1.3z" fill="#000000" stroke-width="none" opacity="1"></path></g></g></g><g id="svga-group-eyesfront-left"><path id="SvgjsPath43662" d="M79 72.1c-8.2 0-14.8 6.6-14.8 14.8s6.6 14.8 14.8 14.8 14.8-6.6 14.8-14.8c0-8.1-6.6-14.8-14.8-14.8zM84.4 93c-4.5 1.4-10-.2-12.8-2.1C68.9 89 67 86 67 86c9.1-2.2 13.6-.3 17 1.1s5 4.1 5 4.1-.1.4-4.6 1.8z" fill="#ffffff" stroke-width="none" opacity="1"></path><path id="SvgjsPath43663" d="M90.3 92.1c-2.1-6.9-5.3-10.9-9.6-12-7.4-1.9-15.1 5.6-15.4 5.9-.2.2-.2.5-.1.7s.4.3.6.3c12.7-3.7 19.6 1.4 22.2 4.1-2.2 1.1-13 5.7-19.8-4.2-.2-.3-.5-.3-.8-.1-.3.2-.3.5-.1.8 3.6 5.2 8.2 6.7 12.3 6.7 4.5 0 8.4-1.8 9.2-2.2.3.4.5.6.5.6.1.2.3.3.5.3h.2c.3-.3.4-.6.3-.9zM69.1 85c.4-.3.8-.8.9-.8.4-.4.9-.7 1.3-1.1.4-.2.9-.5 1.3-.7-.5.4-1 .9-1.5 1.3-.4.4-.8.8-1.1 1.2-.3 0-.6 0-.9.1zm1.8-.3.7-.7c.6-.5 1.1-1.1 1.5-1.7.1-.1 0-.2-.1-.2.8-.4 1.7-.7 2.6-.9-.6.4-1.2.9-1.7 1.4-.7.6-1.3 1.2-1.9 1.9-.4.1-.7.1-1.1.2zm3.6-.2c.9-.8 1.9-1.6 2.6-2.6.1-.2-.1-.4-.3-.3-1.2.8-2.2 1.9-3.2 2.9h-.9c.5-.4.9-.9 1.4-1.3.8-.7 1.6-1.3 2.3-2v-.1c.6-.1 1.2-.2 1.8-.2.7 0 1.5.1 2.2.3 3.3.9 5.9 3.7 7.8 8.5-2.2-2.2-6.6-5.2-13.7-5.2z" fill="#000000" stroke-width="none" opacity="1"></path></g></g></g><g id="svga-group-eyes-right-move" transform="matrix(1,0,0,1,0,0)"><g id="svga-group-eyes-right" transform="matrix(1,0,0,1,0,0)"><g id="svga-group-eyesback-right"></g><g id="svga-group-eyesiriswrapper-right"><g id="svga-group-eyesiriscontrol-right" transform="matrix(1,0,0,1,0,0)"><g id="svga-group-eyesiris-right" transform="matrix(1,0,0,1,0,0)"><path id="SvgjsPath43738" d="M116.9 84.3c-1.5 1.9-1.3 4.5.4 6 1.8 1.7 4.9 2.1 7.1.1 1.1-1.1 1.9-2.3 1.5-3.7-.1-.5-.7-3-2.1-3.8-2.4-1.4-5-.9-6.9 1.4z" fill="#ffffff" stroke-width="none" opacity="1"></path><path id="SvgjsPath43739" d="M121.1 92.1c-1.5 0-2.9-.6-3.9-1.5-1.8-1.7-2-4.4-.4-6.4 1.9-2.4 4.7-3 7.3-1.5 1.3.8 2 2.9 2.3 4.1.3 1.4-.2 2.7-1.6 4-1.2.8-2.5 1.3-3.7 1.3zm-3.9-7.6c-1.4 1.7-1.2 4.1.4 5.6 1.7 1.5 4.7 2 6.6.1 1.2-1.2 1.7-2.3 1.4-3.4-.4-1.8-1.1-3.2-2-3.6-2.3-1.4-4.7-.9-6.4 1.3zm3.9 6.3c-1.1 0-2.2-.4-3-1.2-1.4-1.3-1.5-3.4-.3-4.9 1.4-1.8 3.6-2.2 5.5-1.1 1 .6 1.5 2.2 1.7 3.1.2 1-.2 2-1.2 3-.8.8-1.7 1.1-2.7 1.1zm-2.8-5.7c-1 1.2-.9 3 .3 4 1.2 1.1 3.4 1.5 4.8.1.9-.8 1.2-1.7 1.1-2.4-.3-1.3-.8-2.3-1.4-2.7-1.8-.9-3.6-.5-4.8 1zm4.9 1.3c0-.2-.1-.4-.2-.6-.4-.8-1.3-1.1-2.1-.9.2.2.2.4.2.7 0 .2 0 .3-.1.4 0 .1-.1.2-.2.3-.2.2-.5.3-.8.3-.3 0-.6-.1-.8-.3l-.2-.2c-.1.2-.2.5-.2.7 0 .3.1.5.3.7 0 .2.1.3.2.4.5.9 1.6 1.1 2.5.7h.2c-.2-.3 0-.8.5-.8.2 0 .4.1.4.2.1-.1.1-.1.1-.2.4-.4.4-.9.2-1.4zm.9.9c0-.7-.2-1.9-.9-2.5-1.3-1.1-2.9-1.1-4.3.1-1.1 1-1.3 2.6-.4 3.7.6.8 1.6 1.3 2.6 1.3.5 0 1.1-.1 1.6-.5 1-.6 1.4-1.2 1.4-2.1zm-1.1 1.4c-.1.2-.2.4-.5.4-1.3.8-2.8.3-3.6-.7-.6-.8-.6-1.9 0-2.7v-.1c0-.2 0-.3.1-.4 0-.1.1-.2.2-.3.2-.2.5-.3.8-.3.2 0 .3 0 .5.1.8-.2 1.7-.1 2.4.6.4.3.7 1.1.7 2.2 0 .3-.2.8-.6 1.2z" fill="#000000" stroke-width="none" opacity="1"></path></g></g></g><g id="svga-group-eyesfront-right"><path id="SvgjsPath43664" d="M121 72.1c-8.2 0-14.8 6.6-14.8 14.8s6.6 14.8 14.8 14.8 14.8-6.6 14.8-14.8c0-8.1-6.6-14.8-14.8-14.8zm6.8 18.8c-2.8 1.9-8.3 3.5-12.8 2.1s-4.6-1.7-4.6-1.7 1.6-2.7 5-4.1 7.9-3.3 17-1.1c.1-.1-1.8 2.9-4.6 4.8z" fill="#ffffff" stroke-width="none" opacity="1"></path><path id="SvgjsPath43667" d="M134.2 85.9c-.3-.3-8.1-7.8-15.4-5.9-4.3 1.1-7.5 5.2-9.6 12-.1.3.1.6.3.7h.2c.2 0 .4-.1.5-.3 0 0 .2-.3.5-.6.8.4 4.7 2.2 9.2 2.2 4.1 0 8.7-1.5 12.3-6.7.2-.3.1-.6-.1-.8s-.6-.1-.8.1c-6.8 10-17.6 5.3-19.8 4.2 2.6-2.7 9.5-7.9 22.2-4.1.2.1.5 0 .6-.3.1 0 .1-.3-.1-.5zm-21.6 2.6c-.1.1-.3.2-.4.3.1-.6.2-1.2.2-1.8.1-.1.1-.2.2-.3 0 .6-.1 1.2 0 1.8zm.6-.4v-2.2c.1-.2.2-.3.3-.5-.1.8-.1 1.6.2 2.4-.2.1-.4.2-.5.3zm1-.7c.1-1 0-2 0-2.9.3-.4.7-.7 1-1.1-.1 1.1-.2 2.3.1 3.4-.4.2-.8.4-1.1.6zm1.4-.8c.1-1.2 0-2.4 0-3.6.3-.2.6-.5.9-.7 0 1.1 0 2.2.2 3.2 0 .2.3.1.3 0 .1-1.1-.1-2.1-.2-3.2 0-.1-.1-.1-.1-.1.5-.3 1-.6 1.5-.8 0 1.3 0 2.7.4 4-1.1.4-2.1.8-3 1.2zm3.4-1.3c.1-1.3-.2-2.7-.6-4 .2-.1.4-.1.6-.2.7-.2 1.5-.3 2.2-.3 4.1 0 8.1 2.6 10.3 4.3-5.1-1.1-9.3-.7-12.5.2z" fill="#000000" stroke-width="none" opacity="1"></path></g></g></g><g id="svga-group-facehighlight-single"></g><g id="svga-group-eyebrows-left-move" transform="matrix(1,0,0,1,0,0)"><g id="svga-group-eyebrows-left-rotate" transform="matrix(1,0,0,1,0,0)"><g id="svga-group-eyebrows-left" transform="matrix(1,0,0,1,0,0)"><path id="SvgjsPath43583" d="M75.77 76.12c5.55.43 12.4-2.07 13.83-3.97 1.43-1.91-.95-5.56-2.54-5.72-1.59-.16-7.63 5.25-14.15 5.41-6.52.16-9.38.16-8.43 1.11.95.94 5.09 2.69 11.29 3.17z" fill="#ffffff" stroke-width="none" opacity="1"></path><path id="SvgjsPath43584" d="M64.12 73.3c1.1 1.1 5.42 2.85 11.61 3.33.42.03.85.05 1.28.05 5.23 0 11.49-2.21 13-4.23.68-.91.72-2.25.1-3.66-.59-1.34-1.81-2.76-3-2.88-.73-.07-1.82.56-3.49 1.51-2.65 1.51-6.64 3.8-10.73 3.9l-1.22.03c-6.07.14-7.51.21-7.83 1.01-.09.21-.11.55.28.94zm2.51-.76c.82-.05 1.85-.09 3.03-.12.95.7 1.72 1.63 2.26 2.69-1.24-.23-2.32-.49-3.25-.78-.59-.7-1.28-1.3-2.04-1.79zm6.29-.2c.39-.01.78-.06 1.17-.1a9.31 9.31 0 0 1 1.15 3.32c-.89-.08-1.73-.18-2.51-.31a8.49 8.49 0 0 0-2.03-2.86c.33-.01.66-.02 1-.02l1.22-.03zm7.68 3 .64-5.46c.74-.38 1.44-.75 2.08-1.11-.49 2.15-1.07 4.3-1.76 6.39-.33.07-.65.13-.96.18zm-.71.11c-.44.06-.89.1-1.33.14.14-1.48.17-2.87-.06-4.48.69-.27 1.36-.55 2-.85l-.61 5.19zm7.08-8.52H87c-.65 2.66-1.73 5.16-3.24 7.45-.05.08-.06.17-.05.25-.45.13-.92.26-1.4.37.71-2.19 1.33-4.44 1.82-6.69h.01c1.17-.68 2.4-1.38 2.83-1.38zm1.78 1.5c-.06.03-.12.08-.15.15-.87 1.9-1.92 3.73-3.12 5.45-.29.11-.6.22-.91.33a24.28 24.28 0 0 0 3.06-7.14c.37.25.77.67 1.12 1.21zm-2.13 5.13a36.87 36.87 0 0 0 2.49-4.47l.06.12c.22.5.67 1.77.02 2.63-.41.54-1.33 1.15-2.57 1.72zm-10.68 2.05c-.16-1.21-.54-2.39-1.12-3.47 1.04-.17 2.05-.44 3.02-.79.2 1.52.17 2.85.03 4.28-.65.03-1.3.02-1.93-.02zm-10.93-2.89c.12-.03.26-.05.43-.08.64.32 1.24.72 1.78 1.19-1.08-.41-1.82-.81-2.21-1.11z" fill="#000000" stroke-width="none" opacity="1"></path></g></g></g><g id="svga-group-eyebrows-right-move" transform="matrix(1,0,0,1,0,0)"><g id="svga-group-eyebrows-right-rotate" transform="matrix(1,0,0,1,0,0)"><g id="svga-group-eyebrows-right" transform="matrix(1,0,0,1,0,0)"><path id="SvgjsPath43585" d="M124.23 76.12c-5.55.43-12.4-2.07-13.83-3.97-1.43-1.91.95-5.56 2.54-5.72 1.59-.16 7.63 5.25 14.15 5.41 6.52.16 9.38.16 8.43 1.11s-5.09 2.69-11.29 3.17z" fill="#ffffff" stroke-width="none" opacity="1"></path><path id="SvgjsPath43586" d="M136.16 72.36c-.32-.81-1.77-.87-7.83-1.01l-1.22-.03c-4.08-.1-8.08-2.38-10.73-3.9-1.66-.95-2.76-1.58-3.49-1.51-1.19.12-2.41 1.54-3 2.88-.62 1.41-.59 2.75.1 3.66 1.51 2.01 7.78 4.23 13 4.23.43 0 .86-.02 1.28-.05 6.19-.48 10.52-2.23 11.61-3.33.39-.39.37-.73.28-.94zm-4.82 1.97c-.93.28-2.01.55-3.25.78a7.542 7.542 0 0 1 2.26-2.69c1.17.03 2.21.07 3.03.12-.77.49-1.46 1.09-2.04 1.79zm-3.03-1.96c.34.01.67.02 1 .02-.87.79-1.57 1.78-2.03 2.86-.78.12-1.62.23-2.51.31a9.58 9.58 0 0 1 1.15-3.32c.39.04.78.09 1.17.1l1.22.03zm-9.85 2.8c-.7-2.09-1.28-4.24-1.76-6.39.64.36 1.33.74 2.08 1.11l.64 5.46c-.33-.06-.65-.12-.96-.18zm1.04-4.92c.64.3 1.31.59 2 .85-.23 1.61-.2 3-.06 4.48-.44-.03-.89-.08-1.33-.14l-.61-5.19zm-3.63-1.95c0 .01.01.01 0 0 .49 2.26 1.11 4.5 1.82 6.69-.48-.11-.95-.24-1.4-.37.01-.08 0-.17-.05-.25a23.576 23.576 0 0 1-3.24-7.45h.03c.43.01 1.66.71 2.84 1.38zm-3.5-1.09c.63 2.54 1.66 4.94 3.06 7.14-.32-.11-.62-.21-.91-.33a36.74 36.74 0 0 1-3.12-5.45.312.312 0 0 0-.15-.15c.35-.53.75-.95 1.12-1.21zm-1.56 4.62c-.65-.86-.2-2.13.02-2.63l.06-.12a36.87 36.87 0 0 0 2.49 4.47c-1.24-.56-2.16-1.17-2.57-1.72zm11.32 3.8c-.14-1.42-.17-2.76.03-4.28.97.34 1.99.61 3.02.79-.58 1.08-.96 2.26-1.12 3.47-.63.04-1.28.05-1.93.02zm10.65-1.79c.54-.47 1.14-.88 1.78-1.19.17.02.31.05.43.08-.39.29-1.13.69-2.21 1.11z" fill="#000000" stroke-width="none" opacity="1"></path></g></g></g><g id="svga-group-beardwrap" transform="matrix(1,0,0,1,0,0)"><g id="svga-group-beard-single-move" transform="matrix(1,0,0,1,0,0)"><g id="svga-group-beard-single" transform="matrix(1,0,0,1,0,0)"></g></g></g><g id="svga-group-mustache-single-move" transform="matrix(1,0,0,1,0,0)"><g id="svga-group-mustache-single" transform="matrix(1,0,0,1,0,0)"></g></g><g id="svga-group-nose-single-move" transform="matrix(1,0,0,1,0,0)"><g id="svga-group-nose-single" transform="matrix(1,0,0,1,0,0)"><path id="SvgjsPath43784" d="M94.63 99.18s-5.25 4.01-4.56 7.12c.69 3.11 5.39-.14 5.39-.14s1.04 2.49 3.59 2.9c2.56.41 4.15-3.11 4.15-3.11s4.84 2 6.08 1.04c1.24-.97-.07-3.04-1.17-4.84-1.11-1.79-6.3-6.98-13.48-2.97z" fill="#ffffff" stroke-width="none" opacity="1"></path><path id="SvgjsPath43785" d="M103.12 103.76c-.77 1.94-1.89 4.64-4.41 4.3-2.57-.35-2.86-3.32-3.01-5.42-.26-3.59-.31-7.2-.24-10.8.14-7.65.97-15.27 2.43-22.78.18-.95-1.27-1.36-1.46-.4-1.97 10.17-2.81 20.54-2.4 30.9.05 1.32.04 2.95.25 4.53-.33-.24-.82-.26-1.08.2-.01.02-.03.04-.04.06a.748.748 0 0 0-.56-.12c-.86.15-1.85.42-2.33 1.23-.39.65-.35 1.58.17 2.15 1.56 1.72 3.34-1.29 4.02-2.48.41 1.93 1.28 3.64 3.22 4.36 3.62 1.35 5.81-2.56 6.9-5.31.36-.93-1.1-1.32-1.46-.42zm-11.6 2.8c-.09-.04.09-.4.17-.47.13-.12.31-.19.5-.25-.22.29-.57.76-.67.72z" fill="#000000" stroke-width="none" opacity="1"></path><path id="SvgjsPath43786" d="M109.87 106.3c-.42-1.58-1.78-2.62-3.32-2.79-.34-.38-.98-.43-1.19.05-.63.19-.54 1.01-.04 1.31.34 1.78 2.09 3.04 4.02 2.36.39-.14.64-.51.53-.93zm-2.95-1.21c.4.15.76.4 1.04.74-.45-.1-.83-.35-1.04-.74z" fill="#000000" stroke-width="none" opacity="1"></path></g></g><g id="svga-group-hair-front" transform="matrix(1,0,0,1,0,0)"><path id="SvgjsPath43716" d="M99 45.7s-12.3-5.1-15.2-4.9c-6.4.3-9.6 25-9.6 25l-2.3-10.7s-3.7 13.1-3.5 19.5c0 0-3.9-9.4-3.7-15.2 0 0-5.3 18-4.7 28.3 0 0-5.9-8.4-6.4-19.7l-2.1 3.9s-1.6-8-.2-16.4 8-19.3 8-19.3L53 40.1s13.9-16.4 19.1-18c5.1-1.6 10-2.1 10-2.1s-4.3-3-3.7-3 9.4-.8 13.1.8c3.7 1.6 9.2 3.7 9.2 3.7s9-5.3 15.2-5.5l-4.9 3.9s13.7 0 18 3.1c4.3 3.1 14.4 14.2 14.4 14.2s-4.1-.8-3.5-.4 6.8 10.3 8 16.6 2.1 12.1 2.1 12.1l-3.9-3.7s.6 7.6.6 11.1-4.3 17.1-4.3 17.1-1.6-26.5-2.3-28.3l-2.7 9.4s-2.7-15.6-5.7-20.7l-2.1 12.3s-3.7-14.4-5.7-17c0 0-.6 15.3-1.8 22.9 0 0-3.7-20.5-6.2-26.2-2.4-5.7-16.9 3.3-16.9 3.3z" fill="#ffffff" stroke-width="none" opacity="1"></path><path id="SvgjsPath43717" d="M149 53.1c-1-4.9-4.7-11.9-6.9-15.3.4.1.8.2 1.2.2.4.1.9-.1 1.1-.5.2-.4.2-.8-.1-1.2-.4-.5-10.2-11.2-14.5-14.3-3.3-2.4-11.5-3-15.8-3.2l2.8-2.2c.3-.3.5-.7.3-1.1-.1-.4-.5-.7-1-.7-5.6.2-13.3 4.4-15.2 5.4-1.4-.5-5.7-2.2-8.7-3.5-3.5-1.5-10.6-1.1-13-.9h-.5c-.4 0-.9.3-1 .7-.2.6-.3.9 2.1 2.7-1.9.3-4.8.8-7.7 1.8-5.2 1.7-18.1 16.7-19.5 18.4-.3.4-.3.9 0 1.3s.9.5 1.3.2L57 39c-2.1 3.9-5.3 10.6-6.2 16.3-1.5 8.5.1 16.4.2 16.8.1.4.4.7.8.8.4.1.8-.2 1-.5l.5-.9c1.3 9.7 6 16.5 6.2 16.8.3.4.7.5 1.1.4.4-.1.7-.6.7-1-.4-6.6 1.8-16.8 3.3-22.8 1 4.9 3.1 9.9 3.2 10.2.2.4.7.7 1.1.6.5-.1.8-.5.8-1-.1-4 1.3-10.7 2.4-15.1l1.4 6.5c.1.5.5.8 1 .8s.9-.4 1-.9c1.3-9.9 4.8-24 8.7-24.2 1.9-.1 10.1 2.9 14.7 4.8.3.1.6.1.9-.1 2.8-1.7 10.8-6 14.3-4.9.6.2 1 .6 1.3 1.1 2.4 5.6 6.1 25.8 6.1 26 .1.5.5.8 1 .8s.9-.4 1-.8c.8-5.2 1.4-13.9 1.6-19 1.5 4.1 3.2 10.4 4 13.2.1.5.5.8 1 .8s.9-.4.9-.8l1.5-9.1c2.4 6.3 4.3 17.4 4.3 17.5.1.5.5.8.9.8.5 0 .9-.3 1-.7l1.3-4.6c.5 6 1.2 16.2 1.7 23.3 0 .5.4.9.9.9h.1c.4 0 .8-.3 1-.7.2-.6 4.4-13.9 4.4-17.5 0-2.2-.2-6-.4-8.6l2 1.9c.3.3.8.4 1.1.2.4-.2.6-.6.5-1-.3-.1-1.1-5.9-2.3-12.2zm-2.2 7.8c-.3-.3-.7-.4-1.1-.2-.4.2-.6.6-.6 1 0 .1.6 7.6.6 11 0 1.8-1.4 7.2-2.7 11.6-.5-8.2-1.5-21.5-1.9-23-.1-.4-.5-.7-.9-.7s-.8.3-.9.7l-1.5 5.3c-1-5.1-2.9-13.3-5.1-16.9-.2-.4-.6-.5-1-.5s-.7.4-.8.8l-1.3 7.8c-1.3-4.5-3.3-11.1-4.7-12.9-.3-.3-.7-.5-1.1-.3-.4.1-.7.5-.7.9 0 .1-.3 9-1 16.5-1.3-6.6-3.4-16.3-5-20.1-.5-1.1-1.3-1.9-2.5-2.2-4.6-1.4-13.3 3.5-15.5 4.8-2.5-1-12.4-4.9-15.1-4.8-5.5.3-8.6 12.8-10 20.5l-1.1-5.3c-.1-.5-.5-.8-.9-.8s-.9.3-1 .7-2.3 8.4-3.2 14.9c-1-3.1-2.1-7.3-2-10.3 0-.5-.3-.9-.8-1s-1 .2-1.1.7c-.4.7-4.4 14.6-4.9 24.9-1.7-3.4-4.1-9.2-4.4-16 0-.5-.3-.8-.8-.9-.4-.1-.9.1-1.1.5l-.6 1.2c-.3-3-.6-8 .2-13.1 1.4-8.1 7.8-18.8 7.9-18.9.2-.4.2-.9-.2-1.2-.3-.3-.8-.4-1.2-.1l-.6.4C63 30.5 69.5 24 72.4 23c5-1.6 9.8-2 9.8-2 .4 0 .8-.3.9-.7.1-.4 0-.8-.4-1.1-.6-.4-1.3-.9-1.9-1.4 5.1-.2 8.5.1 10.3.9 3.7 1.6 9.2 3.7 9.3 3.7.3.1.6.1.9-.1.1 0 5.8-3.4 11-4.8l-1.9 1.5c-.3.3-.5.7-.3 1.1s.5.7.9.7c3.7 0 14.1.5 17.5 2.9 3 2.2 9.1 8.5 12.2 11.8-1.2-.1-1.5.1-1.7.6-.2.4-.1.9.4 1.2.8.9 6.5 10 7.6 16 .7 3.5 1.2 6.9 1.6 9.2l-1.8-1.6zM99.2 25.6c-1.1 5-1.6 10-1.5 15.1 0 .8 1.3.8 1.3 0-.1-5 .3-9.9 1.4-14.8.2-.7-1-1.1-1.2-.3zm17.6 4.9c-4.1-.9-9.1 1-12.6 3-.7.4-.1 1.5.6 1.1 2.8-1.6 5.8-2.6 9-2.8 4.3-.3 6.3 2.9 7.1 6.8.2.8 1.4.5 1.2-.3-.5-3.1-2-7.1-5.3-7.8zm-29.3 2.8c-5-.5-7.9-.9-11.1 3.3-3 3.9-4.8 8.4-5.7 13.2-.1.8 1.1 1.1 1.2.3.7-3.9 2-7.7 4.2-11 1.3-2 2.4-3.6 4.6-4.5 2.3-.9 4.4-.4 6.8-.1.8.2.8-1.1 0-1.2zm1-6.3c-20.1-7-31.7 22.6-31.2 37.8 0 .8 1.3.8 1.3 0-.3-8.4 1.6-16.7 6-23.9 4.9-8 13.4-16.2 23.6-12.7.7.3 1-.9.3-1.2zm22-1.5c-.8.2-.4 1.5.3 1.2 15.4-5 24.1 14.4 26.5 26.5.2.8 1.4.5 1.2-.3-2.5-12.8-11.8-32.6-28-27.4z" fill="#000000" stroke-width="none" opacity="1"></path></g><g id="svga-group-glasses-single-move" transform="matrix(1,0,0,1,0,0)"><g id="svga-group-glasses-single" transform="matrix(1,0,0,1,0,0)"></g></g></g></g></g><rect id="svga-credit-rect" width="200" height="15" x="0" y="185" fill="#ecf0f1" opacity="0.5" style="display: none;"></rect><text id="svga-credit-text" font-family="Avenir Next, Roboto, Helvetica, Arial, sans-serif" font-size="10px" text-anchor="start" font-weight="400" size="10px" anchor="start" weight="400" fill="#333333" x="33.402061462402344" y="182.71133995056152" style="display: none;"><tspan id="SvgjsTspan43108" dy="13" x="33.402061462402344">Created on AvatarMaker.com</tspan></text></g></svg>