<svg xmlns="http://www.w3.org/2000/svg" version="1.1" width="600px" height="600px" viewBox="0 0 200 200" style="overflow:hidden!important;"><defs id="SvgjsDefs33560"></defs><g id="svga-group-wrapper"><g id="svga-group-backs-single"></g><g id="svga-group-humanwrap-move" transform="matrix(1,0,0,1,0,0)"><g id="svga-group-humanwrap" transform="matrix(1,0,0,1,0,0)"><g id="svga-group-hair-back-move" transform="matrix(1,0,0,1,0,0)"><g id="svga-group-hair-back" transform="matrix(1,0,0,1,0,0)"></g></g><g id="svga-group-humanbody-back"><path id="SvgjsPath33970" d="M77.6 118.3c0 19.3 3.4 44.1-10 51.9-13.4 7.9-31.9 11.3-37.8 22s-4.4 25.3-4.4 25.3h149.3s.7-18.9-5.1-26.4c-8.1-10.4-27.8-15.5-37.7-20.9s-13.4-25.1-13.4-52.4l-40.9.5z" fill="#ffffff" stroke-width="none" opacity="1"></path><path id="SvgjsPath33971" d="M175.8 218.7H24.4l-.1-1c-.1-.6-1.5-15.1 4.5-26 4.1-7.4 13.5-11.3 23.5-15.5 5-2.1 10.2-4.3 14.8-6.9 10.6-6.2 10.1-23.9 9.6-41-.1-3.5-.2-6.8-.2-10v-1.1l43.2-.4v1.1c0 29.9 4.2 46.7 12.8 51.4 2.9 1.6 6.7 3.2 10.8 4.9 10 4.1 21.3 8.8 27.2 16.3 6.1 7.7 5.4 26.4 5.4 27.1l-.1 1.1zm-149.3-2.2h147.1c0-4.1-.2-18.5-4.9-24.6-5.5-7-16.6-11.6-26.3-15.6-4.1-1.7-8-3.3-11-5-5.1-2.8-8.7-8.9-10.9-18.7-2-8.4-2.9-19.4-3-33.5l-38.6.4c0 2.8.1 5.7.2 8.8.5 17.8 1 36.1-10.7 43-4.7 2.7-9.9 4.9-15 7.1-9.6 4-18.7 7.8-22.4 14.5-5 8.6-4.7 20.1-4.5 23.6z" fill="#000000" stroke-width="none" opacity="1"></path><path id="SvgjsPath33972" d="M93.9 153.8c-.5 1.8-.4 3.4.5 5.2.8 1.6 2.1 2.7 3.9 2.9.4 0 .7-.5.5-.8-1.6-2.2-3.5-4.2-3.7-7.1 0-.7-1-.9-1.2-.2zm18.6 33.7c8.8.5 18.1-.7 26.6-2.9.7-.2.6-1.4-.2-1.3-8.8 1.1-17.7 2-26.5 3.3-.5.1-.3.9.1.9zm-49.4-5c3.8.9 7.6 1.9 11.5 2.8 3.6.8 7.4 2 11.1 2.1.7 0 .8-.9.2-1.2-3.5-1.4-7.5-1.7-11.2-2.5-3.8-.7-7.5-1.3-11.3-2-.5 0-.7.7-.3.8z" fill="#000000" stroke-width="none" opacity="1"></path></g><g id="svga-group-chinshadow-single"></g><g id="svga-group-humanbody-front"></g><g id="svga-group-clothes-single"><path id="SvgjsPath34106" d="M100.6 206.74s-20.29-15.02-23.95-18.87c-3.65-3.86-12.18-17.45-12.18-17.45s-15.22 6.49-20.9 8.52c-5.68 2.03-13.8 8.12-15.42 12.38-1.62 4.26-4.26 8.52-4.46 16.84-.2 8.32 0 10.55 0 10.55H176.7s.61-15.63-2.44-21.72c-3.04-6.09-1.62-8.12-14.21-15.42-12.58-7.31-23.54-10.35-23.54-10.35s-10.35 15.83-16.84 21.31c-6.49 5.48-19.07 14.21-19.07 14.21z" fill="#ffffff" stroke-width="none" opacity="1"></path><path id="SvgjsPath34107" d="M175.16 196.55c-.57-1.13-.97-2.1-1.35-3.04-1.67-4.04-2.77-6.72-13.24-12.8-12.55-7.29-23.67-10.42-23.78-10.45a.978.978 0 0 0-1.1.42c-.1.16-10.35 15.77-16.65 21.09-5.59 4.71-15.86 11.95-18.41 13.74-3.33-2.48-20.03-14.94-23.24-18.33-3.54-3.74-11.97-17.16-12.06-17.3-.26-.42-.79-.58-1.24-.39-.15.07-15.26 6.51-20.85 8.5-5.81 2.07-14.25 8.32-16.02 12.96-.31.8-.65 1.6-1 2.43-.18-.05-.37.22-.2.35.01.01.02.02.04.03-1.53 3.58-3.2 7.68-3.36 14.36-.2 8.28 0 10.57 0 10.67.05.51.48.91 1 .91h153c.54 0 .98-.42 1-.96.03-.64.58-15.95-2.54-22.19zm-34.96-23.07c-.23.38-.55.9-.93 1.51-.76-.83-1.63-1.61-2.48-2.37.05-.08.11-.16.15-.23.67.21 1.79.56 3.26 1.09zm-4.31 6.79c-.01-.01-.01-.03-.02-.04-.83-.7-1.78-1.38-2.77-1.83-.15-.07-.33.12-.19.25.8.74 1.79 1.36 2.75 1.86.03.01.05.01.08.01-.9 1.37-1.87 2.8-2.87 4.21-.54-1.3-1.21-2.55-1.89-3.8 1.1-1.49 2.11-2.91 3-4.18.88.77 1.75 1.62 2.7 2.33-.26.38-.52.78-.79 1.19zm-9.9 12.87c-.6-1.15-1.45-2.22-2.2-3.27.45-.5.91-1.02 1.38-1.56.35.55.69 1.1 1.05 1.64.38.59.75 1.22 1.18 1.79-.26.28-.52.56-.77.81-.19.18-.41.38-.64.59zm1.75-1.79c-.37-.62-.82-1.22-1.23-1.8-.36-.52-.72-1.04-1.09-1.55.37-.44.75-.89 1.12-1.34.24.51.51 1.01.81 1.49.4.63.87 1.4 1.47 1.92-.36.45-.72.88-1.08 1.28zm1.4-1.66c-.42-.62-.97-1.17-1.37-1.79-.34-.53-.64-1.07-.92-1.63.39-.48.78-.97 1.16-1.46.66 1.23 1.36 2.45 2.14 3.6-.33.44-.67.86-1.01 1.28zm1.27-1.62c-.61-1.26-1.33-2.48-2.07-3.67.36-.46.72-.93 1.07-1.4.65 1.22 1.33 2.45 2.11 3.58-.37.51-.74 1.01-1.11 1.49zm1.42-1.91c-.62-1.22-1.36-2.41-2.1-3.58.31-.42.63-.83.93-1.24.59 1.29 1.18 2.59 1.92 3.78-.25.35-.5.7-.75 1.04zm5.12-7.52c-.86-.81-1.83-1.52-2.73-2.25.37-.52.71-1.02 1.02-1.47.82.83 1.72 1.6 2.71 2.17-.31.49-.65 1.01-1 1.55zm1.2-1.87c-.91-.73-1.81-1.45-2.64-2.25.39-.58.73-1.08 1.01-1.5.81.82 1.62 1.64 2.5 2.36-.27.43-.56.89-.87 1.39zm-14.65 13.41c.7 1.08 1.38 2.24 2.22 3.2-.41.36-.87.75-1.38 1.16-.74-.95-1.6-1.84-2.39-2.74.5-.5 1.02-1.05 1.55-1.62zm-3.18 3.12c.42-.36.87-.76 1.32-1.2.74.91 1.47 1.9 2.28 2.77-1.99 1.56-4.56 3.38-7.31 5.23-.41-.94-.89-1.85-1.38-2.75 1.86-1.43 3.63-2.83 5.09-4.05zm-11.43 11.83c-.28-.79-.67-1.55-1.07-2.3.61-.44 1.24-.9 1.89-1.37.41.79.94 1.55 1.6 2.12-.82.53-1.63 1.05-2.42 1.55zm2.87-1.84c-.61-.69-1.18-1.36-1.64-2.13.84-.61 1.69-1.25 2.55-1.89.35.9.83 1.85 1.5 2.45-.8.53-1.61 1.05-2.41 1.57zm2.82-1.84c-.27-.47-.65-.9-.93-1.37-.21-.36-.4-.73-.57-1.11.59-.44 1.18-.88 1.76-1.33.43.92.87 1.85 1.37 2.72-.54.37-1.08.73-1.63 1.09zm-50.5-29.79c1.84 2.9 8.61 13.48 11.84 16.89 3.67 3.88 23.25 18.38 24.08 18.99.34.25.81.26 1.17.02.06-.04 2.71-1.88 6.19-4.39.35.75.73 1.5 1.18 2.18-4.19 2.66-7.77 4.83-9.08 5.62-3.44-2.23-22.71-14.84-26.18-19.14-3.39-4.2-11.46-15.48-13.51-18.35 1.88-.79 3.44-1.45 4.31-1.82zm-5.56 3.52c-.43-.22-.86-.43-1.29-.63.22-.09.43-.18.65-.27.15.2.37.51.64.9zm-33.93 39.87c.5.46 1.09.86 1.6 1.26.59.47 1.19.96 1.81 1.4h-3.37c-.02-.56-.04-1.42-.04-2.66zm151.14 2.66H28.6c-.7-.66-1.47-1.25-2.22-1.84-.56-.45-1.15-1-1.79-1.39 0-.54 0-1.15.01-1.82 2.11 1.55 4.28 3.08 6.54 4.35.13.07.28-.11.16-.21-2.09-1.73-4.39-3.26-6.69-4.72.01-.92.03-1.95.05-3.1 2.41 1.49 5.02 3.11 7.64 4.1.16.06.22-.17.11-.26-2.28-1.72-5.15-3.11-7.74-4.37 0-.09 0-.17.01-.26.02-.83.07-1.62.13-2.37 2.29 1.42 4.64 3.02 7.11 3.98.14.05.27-.16.15-.25-2.14-1.67-4.78-2.88-7.22-4.15.09-.85.2-1.66.33-2.42 1.17.69 2.35 1.38 3.54 2.04 1.37.77 2.74 1.69 4.24 2.18.12.04.23-.13.13-.22-1.21-1.01-2.71-1.68-4.1-2.43-1.24-.67-2.49-1.33-3.74-1.98.19-1 .42-1.92.67-2.79 2.07 1.31 4.26 2.74 6.51 3.62.16.06.31-.19.17-.29-1.94-1.51-4.32-2.66-6.54-3.79.2-.63.4-1.24.62-1.82 2.19 1.39 4.56 2.82 6.93 3.73.23.09.32-.24.16-.37-2.04-1.5-4.56-2.72-6.91-3.81.27-.7.55-1.37.82-2.02.71.51 1.43 1 2.19 1.45 1.3.78 2.77 1.74 4.28 2.01.19.03.28-.19.13-.3-1.21-.92-2.77-1.47-4.09-2.23-.78-.45-1.54-.93-2.28-1.42.04-.09.08-.19.12-.28.3-.71.59-1.4.86-2.08 1.88 1.33 4 2.59 6.02 3.53.25.12.43-.2.21-.36-1.79-1.37-3.94-2.66-6.01-3.7.24-.61.64-1.26 1.15-1.94 1.95 1.16 4.1 2.36 6.23 3.13.19.07.28-.2.13-.3-1.86-1.24-4.08-2.24-6.15-3.11.42-.53.9-1.07 1.44-1.61 2.12 1.58 4.44 3.02 6.93 3.89.26.09.43-.32.19-.45-2.32-1.21-4.61-2.36-6.81-3.75.46-.45.96-.9 1.48-1.35 1.99 1.49 4.16 2.89 6.48 3.7.27.09.43-.31.19-.45-2.09-1.22-4.21-2.31-6.22-3.63.59-.49 1.22-.97 1.85-1.44 1.8 1.39 3.77 2.72 5.85 3.49.22.08.32-.24.15-.36-1.76-1.26-3.67-2.32-5.51-3.49.7-.5 1.42-.98 2.14-1.42 2.36 1.28 4.87 2.82 7.41 3.58.16.05.23-.17.11-.26-2.06-1.5-4.68-2.54-7.06-3.6.81-.49 1.61-.93 2.39-1.32 2.14 1.26 4.3 2.59 6.57 3.52.23.09.33-.25.16-.37-1.9-1.32-4.07-2.37-6.17-3.42.65-.3 1.27-.57 1.86-.78.32-.11.68-.25 1.06-.39 2.07 1.3 4.17 2.63 6.37 3.64.27.12.47-.22.23-.4-1.86-1.32-3.92-2.41-5.96-3.48.89-.34 1.89-.73 2.96-1.16 1.16.59 2.34 1.14 3.49 1.74 1.46.77 2.86 1.68 4.35 2.39.18.08.41-.15.23-.29-2.11-1.67-4.81-3.12-7.43-4.1.78-.31 1.59-.64 2.41-.98 2.51 1.68 5.08 3.51 7.8 4.7.16.07.38-.14.21-.27-2.2-1.83-4.84-3.26-7.37-4.69l1.68-.69c2.61 1.75 5.29 3.66 8.1 4.92.19.08.43-.16.24-.31-2.3-1.89-5.06-3.38-7.69-4.88.66-.27 1.32-.55 1.96-.81.99.56 1.97 1.15 2.96 1.72 3.1 4.33 9.33 12.96 12.22 16.54 3.99 4.95 26.24 19.3 27.18 19.91a1.002 1.002 0 0 0 1.05.02c.92-.55 22.54-13.52 28.08-19.06 5.07-5.07 12.57-17.29 14.07-19.77 4.35 1.64 10.67 4.33 17.44 8.26 9.89 5.74 10.83 8.03 12.4 11.83.38.93.82 1.98 1.41 3.17 2.49 4.91 2.45 16.78 2.38 20.24z" fill="#000000" stroke-width="none" opacity="1"></path></g><g id="svga-group-head" transform="matrix(1,0,0,1,0,0)"><g id="svga-group-ears-left-move" transform="matrix(1,0,0,1,0,0)"><g id="svga-group-ears-left" transform="matrix(1,0,0,1,0,0)"><path id="SvgjsPath34116" d="M57.9 81.4s-3-4.7-6.1-5.6-6.6 2.1-6.1 7.8c.6 5.7 8.7 18.9 15.9 19.7 6.2.7-1.1-18.5-3.7-21.9z" fill="#ffffff" stroke-width="none" opacity="1"></path><path id="SvgjsPath34117" d="M61.5 104.2c-7.7-.8-16.1-14.5-16.7-20.4-.3-3.4.8-6.4 3-7.9 1.3-.9 2.9-1.2 4.4-.8 3.3.9 6.2 5.3 6.6 5.9 2.1 2.7 8.5 18 5.5 22-.5.7-1.4 1.1-2.3 1.1-.3.1-.4.1-.5.1zM48.9 77.1c-1.7 1.1-2.5 3.6-2.3 6.4.5 5.4 8.5 18.3 15 18.9.4 0 .7 0 .9-.3 2.1-2.9-3.2-17.2-5.5-20.3v-.1c-.8-1.2-3.3-4.6-5.5-5.2-.2-.1-.5-.1-.7-.1-.7.2-1.3.4-1.9.7z" fill="#000000" stroke-width="none" opacity="1"></path><path id="SvgjsPath34118" d="M50.5 79.3c2.6 1.4 5 5.6 6.2 9.6v.1c0 .3-.2.4-.3.1-.4-1.2-1-1.2-1.7 0-.2.7-.1 1.5.1 2.3.2.7.5 1.4.8 1.9.6 1.2 1.4 2 2.1 3 .2.3 0 .7-.2.5-1.6-1-3.9-4.6-3.4-7.6.2-1.4 1.1-2.2 1.8-1.7-.9-2.1-1.9-3.9-3.2-5.4-.7-.8-2.3-2.7-3.1-2.3-1.5.6-.7 4.6-.5 6.4 0 .3-.2.4-.3.1-1-2.9-1.1-8.5 1.7-7z" fill="#000000" stroke-width="none" opacity="1"></path><path id="SvgjsPath34119" d="M56.9 97.8c-2.8-.9-4.8-4.6-6-8.8-.7-2.5-2.1-8.3.6-8.2.2 0 .3.5.1.6-2.5 1.1.2 8.9 1 10.7 1.1 2.6 2.5 4.3 4.3 5.2.2.2.2.6 0 .5z" fill="#000000" stroke-width="none" opacity="1"></path></g></g><g id="svga-group-ears-right-move" transform="matrix(1,0,0,1,0,0)"><g id="svga-group-ears-right" transform="matrix(1,0,0,1,0,0)"><path id="SvgjsPath34120" d="M142.1 81.4s3-4.7 6.1-5.6 6.6 2.1 6.1 7.8c-.6 5.7-8.7 18.9-15.9 19.7-6.2.7 1.1-18.5 3.7-21.9z" fill="#ffffff" stroke-width="none" opacity="1"></path><path id="SvgjsPath34121" d="M138.1 104.2c-1 0-1.8-.4-2.3-1.1-2.9-4 3.4-19.3 5.5-22 .4-.6 3.3-5.1 6.6-5.9 1.5-.4 3-.1 4.4.8 2.2 1.5 3.3 4.4 3 7.9-.6 5.9-9 19.6-16.7 20.4-.2-.1-.3-.1-.5-.1zm11.1-27.6c-.2 0-.5 0-.7.1-2.2.6-4.7 3.9-5.5 5.2v.1c-2.4 3-7.7 17.4-5.5 20.3.2.3.4.4.9.3 6.5-.7 14.5-13.6 15-18.9.3-2.9-.6-5.3-2.3-6.4-.6-.5-1.2-.7-1.9-.7z" fill="#000000" stroke-width="none" opacity="1"></path><path id="SvgjsPath34122" d="M149.5 79.3c-2.6 1.4-5 5.6-6.2 9.6v.1c0 .3.2.4.3.1.4-1.2 1-1.2 1.7 0 .2.7.1 1.5-.1 2.3-.2.7-.5 1.4-.8 1.9-.6 1.2-1.4 2-2.1 3-.2.3 0 .7.2.5 1.6-1 3.9-4.6 3.4-7.6-.2-1.4-1.1-2.2-1.8-1.7.9-2.1 1.9-3.9 3.2-5.4.7-.8 2.3-2.7 3.1-2.3 1.5.6.7 4.6.5 6.4 0 .3.2.4.3.1 1-2.9 1.1-8.5-1.7-7z" fill="#000000" stroke-width="none" opacity="1"></path><path id="SvgjsPath34123" d="M143.1 97.8c2.8-.9 4.8-4.6 6-8.8.7-2.5 2.1-8.3-.6-8.2-.2 0-.3.5-.1.6 2.5 1.1-.2 8.9-1 10.7-1.1 2.6-2.5 4.3-4.3 5.2-.2.2-.2.6 0 .5z" fill="#000000" stroke-width="none" opacity="1"></path></g></g><g id="svga-group-faceshape-wrap" transform="matrix(1,0,0,1,0,0)"><g id="svga-group-faceshape-single"><path id="SvgjsPath34196" d="M142.4 54.1c-2.3-11.6-15.1-29.3-42.4-29.3S63.6 38.4 59.6 48.5c-3.5 8.6-3.4 22.8-3.4 22.8s.5 30.4 11.4 49.3c10.6 18.2 32.9 33.9 52.7 12.6 24.5-26.5 23.5-61.8 23.5-61.8s.2-9.1-1.4-17.3z" fill="#ffffff" stroke-width="none" opacity="1"></path><path id="SvgjsPath34197" d="M99.6 144.6c-.9 0-1.9-.1-2.9-.2-13.2-1.5-24.2-13-30.2-23.3C55.6 102.2 55 72.6 55 71.3c0-.6 0-14.5 3.5-23.3 6.6-16.5 20.1-24.4 41.5-24.4 12.3 0 23.2 3.7 31.3 10.6 6.3 5.3 10.9 12.7 12.2 19.6 1.6 8 1.4 16.8 1.4 17.5 0 .7.1 9.3-2.6 21.2-2.6 11.2-8.4 27.5-21.2 41.4-6.6 7.2-13.8 10.7-21.5 10.7zM100 26c-20.3 0-33.2 7.5-39.4 23-3.3 8.3-3.3 22.2-3.3 22.3 0 .3.6 30.3 11.3 48.7 5.7 9.7 16.2 20.7 28.5 22.2 8 .9 15.6-2.4 22.4-9.9 12.5-13.5 18.1-29.4 20.7-40.2 2.8-11.9 2.6-20.6 2.6-20.7 0-.1.2-9-1.4-17-1.3-6.5-5.6-13.3-11.5-18.3C122.1 29.5 111.8 26 100 26z" fill="#000000" stroke-width="none" opacity="1"></path></g></g><g id="svga-group-mouth-single-move" transform="matrix(1,0,0,1,0,0)"><g id="svga-group-mouth-single" transform="matrix(1,0,0,1,0,0)"><path id="SvgjsPath34068" d="M116.39 119.06c-.48.32-.96.58-1.44.79-4.68-1.1-8.95-3.9-13.82-4.09-5.63-.22-9.84 4.92-15.37 4.6-.54-.31-1.06-.72-1.54-1.23-.51-.55-1.33.27-.82.82 3.99 4.34 10.34 1.66 15.19.91 6.23-.96 12.57 3.08 18.39-.79.62-.42.04-1.43-.59-1.01zm-4.57 1.54c.2-.27.41-.54.61-.81a.3.3 0 0 0 .04-.08l.63.21-.46.58c-.27.04-.54.08-.82.1zm-1.07.03c.27-.38.59-.72.96-1.02.05-.04.08-.09.09-.14.04.01.08.03.12.04-.28.37-.56.75-.85 1.12h-.32zm-1.27-.06c.31-.53.63-1.06.94-1.59.01-.01.01-.02.01-.03.27.1.54.21.8.31-.46.39-.86.84-1.17 1.35-.2-.01-.39-.02-.58-.04zm-1.55-.18c.45-.55.9-1.1 1.34-1.65.06-.07.08-.15.07-.22l.54.21-1.05 1.77c-.29-.03-.59-.07-.9-.11zm-1.34-.22c.39-.61.79-1.22 1.18-1.82.2-.32-.3-.61-.5-.29-.43.67-.87 1.34-1.3 2.01-.27-.05-.54-.09-.81-.14.4-.77.91-1.47 1.54-2.09.1-.09.1-.21.06-.3.71.25 1.41.52 2.11.8-.53.65-1.06 1.3-1.59 1.96-.24-.05-.47-.09-.69-.13zm-3.06-.49c.54-.75 1.09-1.5 1.63-2.24.22-.3-.28-.59-.5-.29-.6.82-1.19 1.64-1.79 2.46-.33-.04-.66-.06-1-.08.57-.97 1.24-1.87 2.02-2.68.04-.04.06-.09.07-.13.79.18 1.58.42 2.37.68a.21.21 0 0 0-.06.04c-.72.7-1.29 1.51-1.72 2.4-.33-.06-.68-.11-1.02-.16zm10.17.43c.1.03.2.06.31.09-.16.05-.32.09-.48.13.05-.08.11-.15.17-.22zm-18.15.21c1.01-1.34 2.14-2.58 3.34-3.75a.19.19 0 0 0 .07-.11c.34-.06.68-.1 1.02-.12l-.02.02c-.91 1.19-1.82 2.39-2.73 3.58-.55.12-1.11.25-1.68.38zm-1.9.43c.88-1.12 1.79-2.22 2.64-3.37.05-.06.06-.12.05-.18.53-.21 1.08-.39 1.64-.54-1.19 1.2-2.31 2.47-3.29 3.85-.35.09-.69.17-1.04.24zm-1.92.35c.63-.79 1.28-1.57 1.9-2.36.08-.1.08-.2.04-.3.57-.29 1.14-.57 1.72-.83-.86 1.11-1.75 2.2-2.6 3.32-.36.06-.71.12-1.06.17zm-1.48.15c.4-.51.81-1.02 1.21-1.53a.32.32 0 0 0 .07-.22c.41-.19.81-.39 1.22-.6-.61.77-1.24 1.52-1.84 2.29-.22.03-.44.05-.66.06zm-.92.01c.21-.32.39-.66.61-.98.03-.04.04-.08.05-.12.19-.07.38-.15.57-.23-.35.44-.7.88-1.05 1.33h-.18zm-1.07-.08c.09-.13.17-.26.26-.39.04-.06.05-.12.04-.17.2-.05.39-.11.59-.17-.16.27-.32.53-.51.77a4.04 4.04 0 0 1-.38-.04zm-.44-.4c-.06.1-.13.19-.19.29-.21-.05-.43-.11-.63-.17.28-.03.55-.07.82-.12zm10.27-1.01c.79-1.04 1.58-2.08 2.38-3.12.1-.13.06-.26-.04-.34.44-.01.87 0 1.3.03-.73 1.07-1.47 2.14-2.2 3.2-.47.06-.95.14-1.44.23zm2.18-.27c.66-.95 1.31-1.91 1.97-2.86.06-.08.06-.17.03-.24.36.04.72.1 1.08.17-.83.89-1.54 1.86-2.13 2.91-.32 0-.63.01-.95.02z" fill="#000000" stroke-width="none" opacity="1"></path><path id="SvgjsPath34069" d="M109.44 123.87c-5.5 2.1-11.36 2.23-16.95.38-.36-.12-.51.44-.15.56 5.68 1.89 11.67 1.76 17.26-.38.34-.13.19-.69-.16-.56z" fill="#000000" stroke-width="none" opacity="1"></path></g></g><g id="svga-group-eyes-left-move" transform="matrix(1,0,0,1,0,0)"><g id="svga-group-eyes-left" transform="matrix(1,0,0,1,0,0)"><g id="svga-group-eyesback-left"></g><g id="svga-group-eyesiriswrapper-left"><g id="svga-group-eyesiriscontrol-left" transform="matrix(1,0,0,1,0,0)"><g id="svga-group-eyesiris-left" transform="matrix(1,0,0,1,0,0)"><path id="SvgjsPath34236" d="M83.4 85c-1.1-2.1-3.5-2.9-5.7-2.2-2.4.8-4.2 3.3-3.3 5.9.5 1.4 1.6 2.6 3.1 2.9.5.1 1 .1 1.6.1.6.1 1.2 0 1.8-.2 2.5-.9 3.8-4 2.5-6.5z" fill="#ffffff" stroke-width="none" opacity="1"></path><path id="SvgjsPath34237" d="M79.4 92.1H79c-.5 0-1.1 0-1.6-.1-1.5-.3-2.8-1.6-3.3-3.2-.9-2.8 1.1-5.4 3.5-6.3 2.4-.8 5 .1 6.1 2.3.7 1.3.7 2.8.2 4.1-.5 1.3-1.6 2.4-2.9 2.8-.6.3-1.1.4-1.6.4zm-.4-.7c.6.1 1.2 0 1.7-.2 1.2-.4 2.1-1.3 2.6-2.5s.4-2.5-.2-3.6c-1-1.9-3.2-2.7-5.3-2-2.2.8-4 3.1-3.1 5.5.5 1.4 1.6 2.5 2.8 2.7.4.1.9.2 1.5.1zm2.6-5.3c0-.1 0-.1-.1-.2-.6-1.2-2.2-1.7-3.4-1.1.3.2.5.6.6.8.2.4.6 1.1.1 1.3-.4.2-1.1 0-1.4-.2-.2-.1-.4-.3-.5-.5 0 .1-.1.1-.1.2-.1.2-.1.5-.1.7-.2.7 0 1.5.6 2.1.3.2.6.4.9.4.6.3 1.3.4 2 .1-.1-.1-.2-.3-.2-.4 0-.3.2-.6.5-.7.3-.1.6 0 .8.2.3-.3.5-.8.6-1.2.1-.5 0-1-.3-1.5zm-5.2 1.3c-.5-.1-.9-.1-1.4-.2-.1 0-.1.1 0 .1.4.1 1 .3 1.4.3 0-.1.1-.2 0-.2zm-.1.9c-.2 0-.4.1-.7.1-.2.1-.5.1-.8.1-.1 0-.1.1 0 .1.5 0 1.1 0 1.5-.3.1 0 .1 0 0 0zm.4.9c-.2.1-.4.3-.6.4-.2.1-.4.2-.6.4-.1.1 0 .2.1.1.4-.3.9-.5 1.1-.9.1 0 .1-.1 0 0zm1 .7c-.3.3-.5.7-.7 1-.1.1.1.2.1.1.2-.3.5-.7.7-1 0-.1-.1-.2-.1-.1zm.9.4c-.1.4-.2.8-.2 1.2 0 .1.1.1.2 0 0-.4.1-.8.2-1.2-.1-.1-.2-.1-.2 0zm1.6.5c-.1-.2-.1-.3-.2-.5 0 0-.1 0-.1.1 0 .2.1.3.2.5s.1.4.2.6c0 .1.1.1.1 0-.1-.3-.2-.5-.2-.7zm1.3-.2-.3-.3c-.1-.1-.2-.2-.3-.4-.1-.1-.1 0-.1.1.1.1.2.3.3.4 0 .1.2.2.4.2 0 .1 0 0 0 0zm1-.8c-.1-.1-.3-.2-.5-.3l-.6-.3c-.1 0-.2.1-.1.1.2.1.4.3.6.4.2.1.4.2.6.2 0 0 .1 0 0-.1zm.6-1.4c-.2-.1-.3-.1-.5-.1s-.4-.1-.5-.2c-.1 0-.1.1-.1.1.3.1.7.3 1.1.3v-.1zm.2-1.9c-.4.1-.8.3-1.1.5-.1.1 0 .2.1.1.2-.1.4-.2.6-.2.2-.1.4-.1.6-.2 0-.1-.1-.3-.2-.2zm-.9-2.2-.1-.1s-.1 0-.1.1c0 0-.4.5-.5.5-.2.2-.3.4-.4.6-.1.1.1.1.1.1.3-.4.6-.7.9-1 .2-.1.2-.1.1-.2zm-2.1-.8c-.1.2-.1.4-.2.5-.1.2-.1.4-.2.6 0 .1.1.1.1 0 .1-.2.2-.4.2-.6.1-.2.2-.4.2-.6.1.1 0 0-.1.1zm-1.4.8c-.1-.2-.1-.3-.2-.5s-.1-.3-.2-.5c0-.1-.1-.1-.1 0-.1.3.2.8.3 1.1.1.1.3 0 .2-.1zm-1.3 0c-.1-.2-.2-.3-.3-.5 0-.1-.1 0-.1.1.1.2.2.4.2.6.1.2.2.4.3.4.1 0 .1 0 .1-.1 0-.2-.1-.4-.2-.5zm-.7 1-.3-.3c-.1-.1-.3-.2-.4-.3-.1-.1-.2 0-.1.1s.2.3.4.4c.1.1.2.2.4.3 0 0 .1-.1 0-.2zm-.8.9c-.3-.2-.7-.2-1-.3-.1 0-.1.1 0 .1.3.1.6.3.9.4.1-.1.1-.2.1-.2z" fill="#000000" stroke-width="none" opacity="1"></path></g></g></g><g id="svga-group-eyesfront-left"><path id="SvgjsPath34160" d="M79 72.1c-8.2 0-14.8 6.6-14.8 14.8s6.6 14.8 14.8 14.8 14.8-6.6 14.8-14.8c0-8.1-6.6-14.8-14.8-14.8zm8.5 19.6c-2.4 0-20 0-20.7-1-.7-.9.8-3.4 2.9-4.7 2.1-1.3 4.9-3 8.8-3.2s10.3 1.1 12.6 7.6c.3.8-1.2 1.3-3.6 1.3z" fill="#ffffff" stroke-width="none" opacity="1"></path><path id="SvgjsPath34161" d="M91.8 90.1c-2.6-5.7-6.5-7.9-13.8-7.9-5.6.1-11.4 4.6-11.8 7.4-.1.9.3 1.5 1.1 1.8 1.8.5 8 .7 14.2.7 3 0 6 0 8.4-.1h.4c.3 0 .5-.2.5-.5s-.2-.5-.5-.5h-.4c-12.1.2-20.4 0-22.2-.6-.4-.1-.5-.3-.4-.6.3-2.1 5.5-6.4 10.8-6.5 6.9-.1 10.3 1.9 12.8 7.2.1.3.4.4.7.3.2-.1.3-.4.2-.7zm-21.3-6.4c1.5-1.1 6.1-4.3 11.4-3 5.1 1.3 8.1 5 8.1 5.1.1.1.3.2.4.2s.2 0 .3-.1c.2-.2.3-.5.1-.7-.1-.2-3.2-4.1-8.7-5.4-5.7-1.4-10.7 2-12.3 3.1-.2.2-.3.5-.1.7.2.2.5.3.8.1z" fill="#000000" stroke-width="none" opacity="1"></path></g></g></g><g id="svga-group-eyes-right-move" transform="matrix(1,0,0,1,0,0)"><g id="svga-group-eyes-right" transform="matrix(1,0,0,1,0,0)"><g id="svga-group-eyesback-right"></g><g id="svga-group-eyesiriswrapper-right"><g id="svga-group-eyesiriscontrol-right" transform="matrix(1,0,0,1,0,0)"><g id="svga-group-eyesiris-right" transform="matrix(1,0,0,1,0,0)"><path id="SvgjsPath34238" d="M125.4 85c-1.1-2.1-3.5-2.9-5.7-2.2-2.4.8-4.2 3.3-3.3 5.9.5 1.4 1.6 2.6 3.1 2.9.5.1 1 .1 1.6.1.6.1 1.2 0 1.8-.2 2.6-.9 3.8-4 2.5-6.5z" fill="#ffffff" stroke-width="none" opacity="1"></path><path id="SvgjsPath34239" d="M121.4 92.1h-.4c-.5 0-1.1 0-1.6-.1-1.5-.3-2.8-1.6-3.3-3.2-.9-2.8 1.1-5.4 3.5-6.3 2.4-.8 5 .1 6.1 2.3.7 1.3.7 2.8.2 4.1-.5 1.3-1.6 2.4-2.9 2.8-.6.3-1.1.4-1.6.4zm-.4-.7c.6.1 1.2 0 1.7-.2 1.2-.4 2.1-1.3 2.6-2.5s.4-2.5-.2-3.6c-1-1.9-3.2-2.7-5.3-2-2.2.8-4 3.1-3.1 5.5.5 1.4 1.6 2.5 2.8 2.7.5.1 1 .2 1.5.1zm2.6-5.3c0-.1 0-.1-.1-.2-.6-1.2-2.2-1.7-3.4-1.1.3.2.5.6.6.8.2.4.6 1.1.1 1.3-.4.2-1.1 0-1.4-.2-.2-.1-.4-.3-.5-.5 0 .1-.1.1-.1.2-.1.2-.1.5-.1.7-.2.7 0 1.5.6 2.1.3.2.6.4.9.4.6.3 1.3.4 2 .1-.1-.1-.2-.3-.2-.4 0-.3.2-.6.5-.7.3-.1.6 0 .8.2.3-.3.5-.8.6-1.2.1-.5 0-1-.3-1.5zm-5.2 1.3c-.5-.1-.9-.1-1.4-.2-.1 0-.1.1 0 .1.4.1 1 .3 1.4.3.1-.1.1-.2 0-.2zm-.1.9c-.2 0-.4.1-.7.1-.2.1-.5.1-.8.1-.1 0-.1.1 0 .1.6 0 1.2 0 1.5-.3.1 0 .1 0 0 0zm.5.9c-.2.1-.4.3-.6.4-.2.1-.4.2-.6.4-.1.1 0 .2.1.1.4-.3.9-.5 1.1-.9.1 0 0-.1 0 0zm.9.7c-.3.3-.5.7-.7 1-.1.1.1.2.1.1.2-.3.5-.7.7-1 0-.1-.1-.2-.1-.1zm.9.4c-.1.4-.2.8-.2 1.2 0 .1.1.1.2 0 0-.4.1-.8.2-1.2 0-.1-.2-.1-.2 0zm1.6.5c-.1-.2-.1-.3-.2-.5 0 0-.1 0-.1.1 0 .2.1.3.2.5s.1.4.2.6c0 .1.1.1.1 0-.1-.3-.2-.5-.2-.7zm1.3-.2-.3-.3c-.1-.1-.2-.2-.3-.4-.1-.1-.1 0-.1.1.1.1.2.3.3.4.1.1.2.2.4.2 0 .1.1 0 0 0zm1.1-.8c-.1-.1-.3-.2-.5-.3l-.6-.3c-.1 0-.2.1-.1.1.2.1.4.3.6.4.2.1.4.2.6.2v-.1zm.5-1.4c-.2-.1-.3-.1-.5-.1s-.4-.1-.5-.2c-.1 0-.1.1-.1.1.3.1.7.3 1.1.3.1 0 .1-.1 0-.1zm.2-1.9c-.4.1-.8.3-1.1.5-.1.1 0 .2.1.1.2-.1.4-.2.6-.2.2-.1.4-.1.6-.2 0-.1-.1-.3-.2-.2zm-.8-2.2-.1-.1s-.1 0-.1.1c0 0-.4.5-.5.5-.2.2-.3.4-.4.6-.1.1.1.1.1.1.3-.4.6-.7.9-1 .1-.1.1-.1.1-.2zm-2.1-.8c-.1.2-.1.4-.2.5-.1.2-.1.4-.2.6 0 .1.1.1.1 0 .1-.2.2-.4.2-.6.1-.2.2-.4.2-.6 0 .1-.1 0-.1.1zm-1.4.8c-.1-.2-.1-.3-.2-.5s-.1-.3-.2-.5c0-.1-.1-.1-.1 0-.1.3.2.8.3 1.1.1.1.2 0 .2-.1zm-1.4 0c-.1-.2-.2-.3-.3-.5 0-.1-.1 0-.1.1.1.2.2.4.2.6.1.2.2.4.3.4.1 0 .1 0 .1-.1.1-.2-.1-.4-.2-.5zm-.6 1-.3-.3c-.1-.1-.3-.2-.4-.3-.1-.1-.2 0-.1.1s.2.3.4.4c.1.1.2.2.4.3v-.2zm-.9.9c-.3-.2-.7-.2-1-.3-.1 0-.1.1 0 .1.3.1.6.3.9.4.1-.1.2-.2.1-.2z" fill="#000000" stroke-width="none" opacity="1"></path></g></g></g><g id="svga-group-eyesfront-right"><path id="SvgjsPath34162" d="M121 72.1c-8.2 0-14.8 6.6-14.8 14.8s6.6 14.8 14.8 14.8 14.8-6.6 14.8-14.8c0-8.1-6.6-14.8-14.8-14.8zm-8.5 19.6c-2.4 0-3.9-.5-3.6-1.3 2.3-6.5 8.7-7.8 12.6-7.6 3.9.2 6.7 1.9 8.8 3.2 2.1 1.3 3.6 3.7 2.9 4.7-.7.9-18.3 1-20.7 1z" fill="#ffffff" stroke-width="none" opacity="1"></path><path id="SvgjsPath34165" d="M122 82.3c-7.3-.1-11.1 2.1-13.8 7.9-.1.3 0 .6.3.7s.6 0 .7-.3c2.5-5.4 5.9-7.3 12.8-7.2 5.3.1 10.5 4.4 10.8 6.5.1.4-.1.5-.4.6-1.8.5-10.1.7-22.2.6h-.4c-.3 0-.5.2-.5.5s.2.5.5.5h.4c2.4 0 5.4.1 8.4.1 6.1 0 12.4-.1 14.2-.7.8-.3 1.3-.9 1.1-1.8-.5-2.8-6.3-7.3-11.9-7.4zM109.6 86c.2 0 .3-.1.4-.2 0 0 3-3.8 8.1-5.1 5.3-1.3 9.9 1.9 11.4 3 .2.2.6.1.7-.1.2-.2.1-.6-.1-.7-1.6-1.1-6.5-4.6-12.3-3.1-5.5 1.4-8.6 5.3-8.7 5.4-.2.2-.1.5.1.7.1.1.3.1.4.1z" fill="#000000" stroke-width="none" opacity="1"></path></g></g></g><g id="svga-group-facehighlight-single"></g><g id="svga-group-eyebrows-left-move" transform="matrix(1,0,0,1,0,0)"><g id="svga-group-eyebrows-left-rotate" transform="matrix(1,0,0,1,0,0)"><g id="svga-group-eyebrows-left" transform="matrix(1,0,0,1,0,0)"><path id="SvgjsPath34084" d="M77.95 68.12c6.67.2 11.31 4.29 12.62 7.38 1.31 3.09-2.02 3.93-5 1.79s-7.97-3.69-12.86-2.38c-4.88 1.31-5.36 4.4-7.62 3.93-2.26-.48-1.31-4.76 1.31-7.14 2.62-2.39 7.5-3.69 11.55-3.58z" fill="#ffffff" stroke-width="none" opacity="1"></path><path id="SvgjsPath34085" d="M63.4 77.81c.23.83.79 1.39 1.59 1.55.2.04.39.06.57.06 1.03 0 1.76-.64 2.59-1.36 1.02-.89 2.28-1.99 4.71-2.64 4.95-1.33 9.78.41 12.4 2.3 1.95 1.4 4.16 1.71 5.37.74.4-.32 1.25-1.27.44-3.17-1.52-3.59-6.63-7.52-13.1-7.71-4.48-.13-9.38 1.39-11.92 3.71-1.96 1.78-3.15 4.7-2.65 6.52zm1.04-1.67L66 77.89l-1.52-.27c-.01-.03-.03-.06-.04-.1-.11-.37-.09-.85 0-1.38zm2.2-3.92 1.88 3.96-3.83-.96a7.909 7.909 0 0 1 1.95-3zm2.54 3.67-1.49-3.14 3.48 2.1c-.78.32-1.44.67-1.99 1.04zm2.26-1.72-4.14-2.5c1.05-.81 2.4-1.49 3.93-2l.21 4.5zm5.13-5.49-1.38 4.68-3.06-3.96c1.42-.39 2.93-.65 4.44-.72zm4.27.35-2.35 4.2-.99-4.56c.14 0 .29-.01.44-.01 1.02.03 1.99.17 2.9.37zm1.44 5.95 2.78-2.9-1.14 3.6c-.51-.25-1.06-.49-1.64-.7zm-.19-.84-.19-4.85c1.28.37 2.43.88 3.43 1.48l-3.24 3.37zm-.7.53c-.81-.25-1.66-.46-2.56-.59l2.37-4.22.19 4.81zm6.93-1.5-3.52 2.14 1.29-4.05c.87.6 1.61 1.25 2.23 1.91zm1.62 2.28-2.56 1.47 1.59-2.98c.42.52.74 1.03.97 1.51zm-2.46 2.23 2.73-1.56c.15.5.2 1.13-.27 1.5-.46.38-1.4.43-2.46.06zm-2.69-1.53 3.24-1.96-1.61 3.01c-.18-.1-.36-.21-.53-.34-.34-.25-.71-.48-1.1-.71zm-8.36-2.26c-.21 0-.43.01-.65.02L77 69.77l.91 4.19c-.49-.05-.98-.07-1.48-.07zm-3.86.5c-.14.04-.26.08-.4.12l-.19-4.13 2.78 3.6c-.72.08-1.45.21-2.19.41zm-5.14 2.87c-.22.19-.41.36-.59.5l-1.42-1.61 2.57.64c-.21.16-.39.32-.56.47z" fill="#000000" stroke-width="none" opacity="1"></path></g></g></g><g id="svga-group-eyebrows-right-move" transform="matrix(1,0,0,1,0,0)"><g id="svga-group-eyebrows-right-rotate" transform="matrix(1,0,0,1,0,0)"><g id="svga-group-eyebrows-right" transform="matrix(1,0,0,1,0,0)"><path id="SvgjsPath34086" d="M122.05 68.12c-6.67.2-11.31 4.29-12.62 7.38-1.31 3.09 2.02 3.93 5 1.79s7.97-3.69 12.86-2.38 5.36 4.4 7.62 3.93c2.26-.48 1.31-4.76-1.31-7.14-2.62-2.39-7.5-3.69-11.55-3.58z" fill="#ffffff" stroke-width="none" opacity="1"></path><path id="SvgjsPath34087" d="M133.96 71.3c-2.55-2.32-7.45-3.84-11.92-3.71-6.47.19-11.58 4.11-13.1 7.71-.8 1.9.04 2.85.44 3.17 1.21.97 3.42.66 5.37-.74 2.63-1.89 7.45-3.63 12.4-2.3 2.43.65 3.7 1.75 4.71 2.64.83.72 1.56 1.36 2.59 1.36.18 0 .37-.02.57-.06.8-.17 1.36-.72 1.59-1.55.49-1.83-.7-4.75-2.65-6.52zm1.6 6.23c-.01.04-.03.06-.04.1l-1.52.26 1.55-1.76c.1.54.12 1.02.01 1.4zm-.25-2.31-3.83.96 1.88-3.96c.93.88 1.58 1.98 1.95 3zm-6.49-.36 3.48-2.1-1.49 3.14c-.54-.38-1.2-.73-1.99-1.04zm-.05-5.18c1.53.51 2.88 1.19 3.93 2l-4.14 2.5.21-4.5zm-.9-.28-3.06 3.96-1.38-4.68c1.51.07 3.02.33 4.44.72zm-5.8-.74c.14 0 .29.01.44.01l-.99 4.56-2.35-4.2c.9-.2 1.87-.34 2.9-.37zm-5.99 7.02-1.14-3.6 2.78 2.9c-.58.21-1.13.45-1.64.7zm-1.4-4.91c1-.6 2.15-1.11 3.43-1.48l-.19 4.85-3.24-3.37zm4.12-.91 2.37 4.22c-.89.14-1.75.34-2.56.59l.19-4.81zm-4.88 1.4 1.29 4.05-3.52-2.14c.61-.66 1.35-1.31 2.23-1.91zm-2.89 2.67 1.59 2.98-2.56-1.47c.23-.47.55-.98.97-1.51zm-.98 3.69c-.47-.37-.41-1-.27-1.5l2.73 1.56c-1.05.37-1.99.32-2.46-.06zm4.07-.77c-.18.13-.36.24-.53.34l-1.61-3.01 3.24 1.96c-.4.24-.77.47-1.1.71zm7.97-2.89.91-4.19 1.22 4.14c-.22-.01-.43-.02-.65-.02-.5 0-.99.02-1.48.07zm3.15.02 2.78-3.6-.19 4.13c-.13-.04-.26-.09-.4-.12a14.5 14.5 0 0 0-2.19-.41zm6.78 2.81 2.57-.64-1.42 1.61c-.18-.14-.37-.31-.59-.5-.18-.15-.36-.31-.56-.47z" fill="#000000" stroke-width="none" opacity="1"></path></g></g></g><g id="svga-group-beardwrap" transform="matrix(1,0,0,1,0,0)"><g id="svga-group-beard-single-move" transform="matrix(1,0,0,1,0,0)"><g id="svga-group-beard-single" transform="matrix(1,0,0,1,0,0)"></g></g></g><g id="svga-group-mustache-single-move" transform="matrix(1,0,0,1,0,0)"><g id="svga-group-mustache-single" transform="matrix(1,0,0,1,0,0)"></g></g><g id="svga-group-nose-single-move" transform="matrix(1,0,0,1,0,0)"><g id="svga-group-nose-single" transform="matrix(1,0,0,1,0,0)"><path id="SvgjsPath34281" d="M107.12 106.28c-1.56.43-2.56 1.21-3.98 4.62s-4.33 2.34-5.76.78c-1.42-1.56-2.63-4.33-4.05-5.05-1.42-.71-2.7 0-2.77-.64s3.27-3.2 4.19-4.76c.92-1.56 1.99-4.83 2.34-6.25.36-1.42 2.98-1.85 3.84.07.85 1.92.99 4.55 2.2 6.4 1.21 1.85 4.69 3.55 4.76 4.05.08.5-.77.78-.77.78z" fill="#ffffff" stroke-width="none" opacity="1"></path><path id="SvgjsPath34282" d="M94.63 102.62c2.29-4.21 3.92-8.21 2.22-12.95-.82-2.29-1.73-4.42-1.57-6.91.17-2.61 1.28-5.02 3.08-6.9.55-.58-.33-1.46-.88-.88-2.89 3.02-4.14 7.34-3.09 11.42.64 2.5 2.07 4.79 2.05 7.44-.02 2.93-1.52 5.64-2.88 8.15-.39.71.69 1.34 1.07.63z" fill="#000000" stroke-width="none" opacity="1"></path><path id="SvgjsPath34283" d="M107.67 105.62c-1.4-.2-2.45.36-3.33 1.46-1.25 1.56-1.43 4.73-3.6 5.25-2.72.64-4.01-2.99-5.36-4.65-1.05-1.29-2.42-2.21-4.13-2.12-.8.04-.8 1.29 0 1.25 4.23-.21 4.47 6.51 8.76 6.86 1.41.11 2.56-.66 3.31-1.82.98-1.52 1.56-5.39 4.03-5.03.77.12 1.11-1.08.32-1.2z" fill="#000000" stroke-width="none" opacity="1"></path></g></g><g id="svga-group-hair-front" transform="matrix(1,0,0,1,0,0)"><path id="SvgjsPath34216" d="M126.1 44.8s-4.2 10.9-22.1 17.7c0 0-1.2-.2 2.3-4 3.5-3.7-9.5 5.6-13.2 6.3-3.7.7 7.4-9.3 7.4-9.3S82.8 67.3 81 66.4c-1.9-.9 7.4-8.4 7.4-8.4S74 68.2 71.9 68.7 80 57.5 80 57.5s-11.2 7.9-13.9 15.8c-2.8 7.9-4.4 7-4.4 3.5s1.9-10 1.9-10-4.2 5.1-3.5 15.6.9 16.3-.7 13.7c-1.6-2.6-4-17.4-4-17.4s1.2 11.9-.7 10.9c-1.9-.9-6-18.6-6-24.4s1.4-15.3 4-19.8c0 0-3.3 6.5-5.6 9.3s2.6-12.3 6.7-17.2 12.6-10.2 12.6-10.2-11.2 5.3-8.8 2.6c2.3-2.8 20.9-18.1 50.4-10.7 0 0-6-3.5-9.3-5.6s10.7.2 14.9 2.8c4.2 2.6 8.1 8.4 8.1 8.4s13.9.7 19.5 3.5-7 .2-11.4.9c0 0 11.2 5.6 15.8 9.5s7.7 10.9 5.6 10.2-6.3-5.8-6.3-5.8 4 7.9 5.6 16.5 2.3 15.8.9 19.8-3.5-12.8-3.5-12.8.5 11.4-1.9 19.5c-2.3 8.1-5.3 11.9-5.8 8.6s2.1-9.5 2.1-14.9S140 68 140 68s.7 8.8-1.2 6.3c-1.9-2.6-4-8.4-6.3-13-2.2-4.7-5.7-4.9-6.4-16.5z" fill="#ffffff" stroke-width="none" opacity="1"></path><path id="SvgjsPath34217" d="M151.5 59.4c-.8-4.3-2.2-8.4-3.4-11.4 1 .9 2 1.6 2.8 1.9.9.3 1.5-.1 1.8-.6 1.1-2-2.8-8.3-6.4-11.3-3.1-2.6-8.8-5.9-12.5-7.8 1.1.1 2.4.2 3.5.2 4.5.4 6 .5 6.3-.8.3-1.1-1-1.8-1.9-2.2-5.2-2.6-16.9-3.4-19.4-3.6-1-1.4-4.4-6-8.2-8.3-2.7-1.6-15.4-5.1-16.7-3.1-.2.2-.6 1.1.8 2 1.1.7 2.6 1.7 4.1 2.5C73.2 12.2 57 29 56.8 29.2c-.8.9-.6 1.6-.3 2 .3.3.6.7 2.5.3-2.1 1.7-4.3 3.6-5.9 5.4-3.4 4-8.2 16.4-7.5 18.4.1.4.5.7.9.8.7.1 1.2-.5 1.4-.7.3-.4.6-.8 1-1.3-.8 4-1.1 8.2-1.1 11.1 0 5.1 4 24 6.6 25.3.5.2 1 .2 1.4-.1.3-.2.5-.5.7-1.1.7 3.2 1.5 6.2 2.2 7.3.5.7.9 1.1 1.5 1.1.1 0 .3 0 .4-.1 1.3-.4 1.6-1.9.7-15.3-.3-1.1-.3-2.2-.3-3.2.3.8.7 1.2 1.4 1.3 1.1.2 2.5-.5 4.7-6.7.8-2.3 2.5-4.7 4.3-6.9-1 1.6-.8 2-.6 2.3.2.3.7.7 1.3.5 1-.2 4.4-2.3 7.9-4.7-.2.4-.3.8-.3 1.1.1.5.3.9.8 1.1 1.2.6 5.3-1.3 12.4-5.7-2 2.4-1.7 3.1-1.5 3.5.2.3.6.9 1.8.7 2-.4 5.9-2.7 9.4-4.8.2-.1.5-.3.7-.4-.6 1-.6 1.6-.5 2 .2.5.6.8.9.9h.5c12.5-4.7 18.5-11.4 21-15.3.8 6.1 2.5 8.4 4.3 10.5.7 1 1.4 1.8 2.1 3.1.9 1.8 1.7 3.7 2.5 5.6 1.3 3.1 2.6 5.9 3.8 7.6.7 1 1.5.9 1.8.8.2-.1.6-.2.9-1 .3 1.7.6 3.5.6 5.2 0 2.6-.6 5.5-1.2 8-.6 2.8-1.1 5.2-.9 7 .2 1.7 1.1 2 1.6 2 2.9.2 5.4-8 6.1-10.5.8-3 1.3-6.3 1.6-9.4.9 3.9 1.7 4 2.2 4 .4 0 1.1-.1 1.5-1.3 1.6-3.6 1.3-10-.6-20.2zm-.6 18.2c-.6-2.4-1.4-7-1.9-11.1-.1-.5-.5-.9-1.1-.9-.5 0-.9.5-.9 1 0 .1.4 11.3-1.8 19.2-1.4 5-3 7.9-3.9 8.8-.2-1.4.3-3.8.9-6.3.6-2.6 1.2-5.6 1.2-8.4 0-5.5-2.3-11.9-2.4-12.2-.1-.4-.5-.7-.9-.7h-.2c-.5.1-.8.6-.8 1.1.1 1.6.2 3.5.1 4.7-.9-1.6-2-3.9-3-6.4-.8-1.9-1.7-3.8-2.6-5.6-.7-1.4-1.5-2.4-2.3-3.4-1.9-2.4-3.7-4.7-4.1-12.7 0-.5-.4-.9-.8-.9-.5-.1-.9.2-1.1.6 0 .1-3.9 9.7-19.4 16.3.3-.4.7-.9 1.3-1.5.5-.5 1.3-1.4.6-2.2-.7-.9-1.4-.5-6 2.2-2.5 1.5-5.7 3.4-7.7 4.2 1.4-1.7 4.4-4.7 7.2-7.2.4-.4.4-.9.1-1.4-.3-.4-.9-.5-1.3-.2-7 4.7-14.8 9.4-17.7 10.6 1.1-1.5 4.1-4.2 6.8-6.4.4-.3.5-1 .2-1.4s-.9-.5-1.4-.2c-5.1 3.6-10.8 7.5-13.9 9.3 1.6-2.1 4.3-5.5 6.9-8.3.3-.4.3-1 0-1.3-.3-.4-.9-.4-1.3-.1-.7.3-11.7 8.1-14.5 16.2-1.1 3.2-1.9 4.6-2.4 5.1-.1-.3-.1-.7-.1-1.3 0-3.3 1.8-9.7 1.8-9.7.1-.5-.1-.9-.5-1.2-.4-.2-.9-.1-1.2.3-.2.2-4.4 5.5-3.7 16.3.2 3.3.6 8.7.5 11.6-1.1-3.3-2.4-10.7-3.2-15.5-.1-.5-.6-.9-1.1-.8s-.9.6-.9 1.1c.3 3.3.5 7.2.3 9.1-1.7-3.8-5-17.4-5-22.6 0-5.6 1.2-13.7 3.3-18.2.3-.6.5-1.1.6-1.1.2-.5.1-1.1-.4-1.3-.5-.3-1.1-.1-1.3.4l-.6 1.2c-.6 1.2-1.7 3.3-2.9 5.1 1.3-4 3.9-10.3 6.3-13 4-4.7 12.2-10 12.3-10 .4-.3.6-.9.3-1.3-.3-.5-.8-.6-1.3-.4-2.1 1-4.5 2-6.2 2.7 5.6-4.9 23.1-15.2 48-8.9.5.1 1-.1 1.2-.6s0-1-.4-1.2c-.1 0-4.2-2.4-7.4-4.4 3.4.4 9.5 1.8 12 3.3 3.9 2.4 7.8 8 7.8 8.1.2.3.5.4.8.4.1 0 11.5.6 17.6 2.7-.6 0-1.2-.1-1.8-.1-2.8-.2-5.9-.5-7.8-.2-.4.1-.8.4-.8.8s.2.9.5 1c.1.1 11.1 5.6 15.6 9.4 3.1 2.6 5.1 6.3 5.7 8.1-1.5-1-3.7-3.5-5-5-.3-.4-.9-.5-1.3-.2s-.6.8-.4 1.3c0 .1 3.9 7.9 5.5 16.2 1.5 8 1.9 13.8 1.3 17.4zm-30.7-37.4c-3.5 4.5-7.9 8-13.1 10.4-.7.3-.1 1.4.6 1.1 5.3-2.4 9.8-6 13.4-10.6.5-.7-.4-1.6-.9-.9zm-5.8-2.3c-4.5 4.5-9.7 7.9-15.5 10.3-.7.3-.4 1.5.3 1.2 6.1-2.5 11.4-6 16.1-10.6.5-.6-.3-1.5-.9-.9zm-14.6 3.2c-6.2 4.2-12.7 8-19.4 11.3-.7.4-.1 1.4.6 1.1 6.8-3.3 13.2-7 19.4-11.3.7-.5.1-1.6-.6-1.1zm-20.6 7.6c-6.1 4-11.3 9-15.5 15-.5.7.6 1.3 1.1.6 4-5.8 9.1-10.7 15-14.5.7-.5.1-1.6-.6-1.1zM64 55.2c-2.5 4-4.6 8.1-6.4 12.5-.3.7.9 1.1 1.2.3 1.7-4.3 3.8-8.3 6.2-12.2.5-.7-.6-1.3-1-.6zm-9.1 7c-1 4.5-1.3 9.1-.9 13.7.1.8 1.3.8 1.3 0-.4-4.5-.1-9 .9-13.4.1-.7-1.1-1-1.3-.3zm50.6-24.7c-.7.4-.1 1.5.6 1.1 3.6-2.1 6.6-5 8.8-8.4.4-.7-.6-1.3-1.1-.6-2.1 3.2-4.9 5.8-8.3 7.9zM86 44.4c6.1-2.8 11.4-6.6 16-11.5.6-.6-.3-1.5-.9-.9-4.5 4.8-9.8 8.6-15.8 11.3-.6.3 0 1.4.7 1.1zm-5.6-6.3c-5.1 3.2-9.9 6.7-14.5 10.7-.6.5.3 1.4.9.9 4.5-3.9 9.2-7.3 14.2-10.5.7-.4.1-1.5-.6-1.1zm-11.2-3c.7-.4.1-1.5-.6-1.1-6.7 4.2-11.4 10.4-13.7 18-.2.8 1 1.1 1.2.3 2.1-7.2 6.7-13.2 13.1-17.2zm3.6-6.5c4-2.6 8.4-4.4 13.1-5.4.8-.2.5-1.4-.3-1.2-4.8 1-9.3 2.9-13.4 5.5-.7.4-.1 1.5.6 1.1zm10.7 2.6c3-1.7 6.3-2.8 9.7-3.3.8-.1.5-1.3-.3-1.2-3.6.5-6.9 1.7-10 3.5-.7.3-.1 1.4.6 1zm16.9-6.7c3.7.1 7.2.8 10.6 2 .8.3 1.1-.9.3-1.2-3.6-1.3-7.2-1.9-11-2.1-.7 0-.7 1.3.1 1.3zm24.8 7.6c-.5 2.8-1.3 5.5-2.4 8.1-.3.7.9 1.1 1.2.3 1.1-2.6 1.9-5.3 2.4-8.1.1-.8-1.1-1.1-1.2-.3zm4.3 4.6c.1-.8-1.2-.8-1.3 0-.3 3.7.1 7.2 1.1 10.8.2.8 1.4.4 1.2-.3-1-3.5-1.3-7-1-10.5zm4.4 17.2c-.3-.7-1.5-.4-1.2.3 1 2.5 2.4 4.9 4.1 7 .5.6 1.4-.3.9-.9-1.6-1.9-2.9-4-3.8-6.4zm2.1-4.6c-1.9-2.6-3-5.5-3.5-8.7-.1-.8-1.3-.5-1.2.3.5 3.3 1.7 6.3 3.6 9 .5.7 1.6.1 1.1-.6zm3.5 5.1c-.4-.7-1.5-.1-1.1.6 1.6 2.5 2.9 5 4.1 7.7.3.7 1.4.1 1.1-.6-1.2-2.7-2.6-5.3-4.1-7.7zm4.4 13.6c.1 2.1.3 4.1.4 6.2 0 .8 1.3.8 1.3 0-.1-2.1-.3-4.1-.4-6.2-.1-.8-1.3-.8-1.3 0zm-2.1-21.4c-1-1.7-1.9-3.5-2.9-5.2-.4-.7-1.5-.1-1.1.6 1 1.7 1.9 3.5 2.9 5.2.4.7 1.5.1 1.1-.6zm2.4 9.7c1.1 2.4 1.8 4.8 2.3 7.4.1.8 1.3.5 1.2-.3-.4-2.7-1.2-5.2-2.4-7.7-.4-.7-1.5-.1-1.1.6z" fill="#000000" stroke-width="none" opacity="1"></path></g><g id="svga-group-glasses-single-move" transform="matrix(1,0,0,1,0,0)"><g id="svga-group-glasses-single" transform="matrix(1,0,0,1,0,0)"></g></g></g></g></g><rect id="svga-credit-rect" width="200" height="15" x="0" y="185" fill="#ecf0f1" opacity="0.5" style="display: none;"></rect><text id="svga-credit-text" font-family="Avenir Next, Roboto, Helvetica, Arial, sans-serif" font-size="10px" text-anchor="start" font-weight="400" size="10px" anchor="start" weight="400" fill="#333333" x="33.402061462402344" y="182.71133995056152" style="display: none;"><tspan id="SvgjsTspan33613" dy="13" x="33.402061462402344">Created on AvatarMaker.com</tspan></text></g></svg>