<svg xmlns="http://www.w3.org/2000/svg" version="1.1" width="600px" height="600px" viewBox="0 0 200 200" style="overflow:hidden!important;"><defs id="SvgjsDefs27569"></defs><g id="svga-group-wrapper"><g id="svga-group-backs-single"></g><g id="svga-group-humanwrap-move" transform="matrix(1,0,0,1,0,0)"><g id="svga-group-humanwrap" transform="matrix(1,0,0,1,0,0)"><g id="svga-group-hair-back-move" transform="matrix(1,0,0,1,0,0)"><g id="svga-group-hair-back" transform="matrix(1,0,0,1,0,0)"><path id="SvgjsPath28226" d="M140.4 90.8s1.1 10.6-7.4 32.3-12.6 27.9-27.2 36-16 15.2-23.7 27.7c-6.9 11.2-21.5 17.6-21.5 17.6s1.8-6-6.7-23.1-6.7-25.9-.7-39.7 39.4-73.4 49.3-77.7 33-2.9 37.9 26.9z" fill="#000000" stroke-width="none" opacity="1"></path><path id="SvgjsPath28227" d="M132.6 105.5c-2.5 21.2-15.4 37.9-33.9 48.5-14.9 8.5-35 18.3-35.5 37.6.1 0 .2-.1.3-.1.3-.1.6-.2.8-.3-.2.1-.4.2-.6.2.2-.1.5-.1.7-.2.9-23.2 29.9-31 45.5-43 13.5-10.4 22-26.1 23.9-42.9-.4.1-.8.1-1.2.2zm-7.3 16.7c-6.9 23.9-35.6 27.1-53 40.3-6.3 4.8-11.7 12.1-13.7 19.8.4-15.3 13.9-27.4 26.2-35.6 13.1-8.7 27.4-16.4 35-30.7.4-.7-.7-1.3-1.1-.6-9.3 17.4-28.2 24.6-43 36.3-8.1 6.4-15.2 15.1-17.6 24.9.1-5.3 1.1-10.7 3.2-15.8 4.4-10.9 12.6-18.4 22.3-24.5 7.8-4.9 16-9.1 22.8-15.4 4.8-4.4 8.7-9.6 11.7-15.3-.5 0-1 .1-1.5.1-4.5 8.1-10.8 14.9-18.5 20.2-8.4 5.8-17.9 10.1-25.6 17-11.7 10.3-16.9 25.3-15.2 40-2.1-6.8-2.7-14-.8-21.1 2.8-10.3 10.1-18.7 17.5-26 8.7-8.7 18.9-17.6 24.4-28.6-.4 0-.9.1-1.3.1-7.3 14.4-22.9 24.9-32.8 37.4-5.2 6.6-9.2 14.2-10.1 22.7-.7 7 .8 13.9 3.4 20.3 0 .2.1.3.1.5 0 1.9.2 3.8.8 5.7.8-.6 1.8-1.1 2.8-1.5-.5-1-1-2-1.5-3.1-.2-.9-.5-1.8-.7-2.7.2-4.6 1.8-9.3 4.4-13.3 5.8-8.8 15.3-14.1 24.6-18.6 15.2-7.3 33.2-14.4 38.3-32.2.3-.8-.9-1.1-1.1-.3zm-66.6 25.7c6.6-8.3 15.5-15 17.6-26 .2-.8-1.1-1.1-1.2-.3-2.6 13.4-15.5 20.3-21.6 31.9-4.9 9.5-5.6 20.5-2.2 30.6.2.8 1.5.4 1.2-.3-4.1-12.4-1.9-25.7 6.2-35.9zm29.4 18c-7.9 4-13.5 11.2-15.6 19.8-.2.8 1 1.1 1.2.3 2-8.4 7.3-15.2 15-19.1.7-.3.1-1.4-.6-1z" fill="#ffffff" stroke-width="none" opacity="1"></path></g></g><g id="svga-group-humanbody-back"><path id="SvgjsPath27827" d="M86.5 122c0 18.8 2.7 50.3-8.1 58s-31.8 13.9-36.7 24.4-3.6 14.4-3.6 14.4h124.1s.6-8.1-4.2-15.4c-6.6-10.1-28.5-17.7-36.5-22.9-8.1-5.2-10.9-32.2-10.9-58.8l-24.1.3z" fill="#ffffff" stroke-width="none" opacity="1"></path></g><g id="svga-group-chinshadow-single"></g><g id="svga-group-humanbody-front"><path id="SvgjsPath27828" d="M163.4 220.1H37.2l-.3-.9c-.1-.5-1.3-4.7 3.6-15.3 3.4-7.3 13.6-12.4 23.5-17.4 5.1-2.5 9.9-5 13.6-7.5 8.6-6 8.1-29.8 7.7-47.1-.1-3.5-.1-6.8-.1-9.8v-1.3l26.7-.4v1.3c0 32 3.8 53.5 10.3 57.7 2.4 1.6 6 3.3 10.2 5.4 9.7 4.7 21.9 10.6 26.7 18 5 7.6 4.4 15.9 4.4 16.2l-.1 1.1zm-124.1-2.6h121.6c-.1-2.4-.6-8.2-4-13.4-4.4-6.7-16.2-12.5-25.6-17-4.3-2.1-8-3.9-10.5-5.5-9.8-6.3-11.4-38.8-11.5-58.6l-21.5.4c0 2.6.1 5.5.1 8.5.4 18.9.9 42.4-8.8 49.3-3.8 2.7-8.7 5.1-13.9 7.7-9.5 4.8-19.4 9.7-22.3 16.1-3.3 6.9-3.7 10.9-3.6 12.5z" fill="#000000" stroke-width="none" opacity="1"></path><path id="SvgjsPath27829" d="M76.8 188.7c4.8 2.3 10.4 3.9 15.7 2.9.4-.1.4-.7 0-.8-5.1-.9-10.2-1.4-15.2-3.2-.6-.2-1.1.8-.5 1.1z" fill="#000000" stroke-width="none" opacity="1"></path><path id="SvgjsPath27830" d="M108.3 191.1c2.4.3 4.9-.4 7.1-1.2 2.1-.8 4.3-1.7 5.8-3.4.5-.5-.1-1.2-.7-.9-2.1.9-3.9 2.3-6.1 3-2 .7-4.1 1-6.2 1.5-.6.1-.4.9.1 1z" fill="#000000" stroke-width="none" opacity="1"></path></g><g id="svga-group-clothes-single"><path id="SvgjsPath28169" d="M35.41 220.36s-1.42-6.88 2.61-14.95 8.07-12.34 37.02-25.39c0 0 6.64 8.54 23.49 8.78s24.92-8.78 24.92-8.78 16.61 7.59 20.65 10.2 12.1 6.88 16.14 12.34 3.28 17.8 3.28 17.8H35.41z" fill="#ffffff" stroke-width="none" opacity="1"></path><path id="SvgjsPath28170" d="M161.04 201.97c-3.42-4.63-9.47-8.33-13.89-11.03-.93-.57-1.79-1.09-2.51-1.56-4.05-2.62-20.09-9.96-20.77-10.27-.4-.18-.87-.08-1.16.24-.08.09-7.99 8.67-24.16 8.45-16.11-.23-22.66-8.32-22.72-8.4-.28-.36-.78-.49-1.2-.3-28.99 13.07-33.31 17.47-37.5 25.86-4.14 8.28-2.76 15.31-2.7 15.6.1.46.51.8.98.8h128.11c.53 0 .97-.41 1-.94.03-.52.73-12.77-3.48-18.45zm-1.6 1.19c.04.06.08.13.13.19-1.01-.51-2.1-.88-3.19-1.19.86-.59 1.46-.74 1.48-.74l-.03-.15c.58.6 1.13 1.24 1.61 1.89zm-13.33-10.51c3.13 1.91 7.1 4.34 10.25 7.19-2.36 1.11-7.69 5.18-8.69 19.52H52.95c-1.33-10.1-3.49-15.72-5.39-18.83.15-.03.14-.28-.01-.3l-.2-.03c-.85-1.32-1.63-2.14-2.26-2.65 4.25-3.76 11.36-7.85 25.22-14.27 1.74 2.41 8.22 9.42 25.7 11.15 1.49.15 2.93.22 4.31.22 16.2 0 25.4-9.37 27.34-11.57 5.21 2.44 13.3 6.31 15.9 7.99.73.47 1.6 1 2.55 1.58zm3.63 25.9c1 .28 2 .56 3.01.81h-3.07c.02-.27.03-.55.06-.81zM38.72 206.27c3.12 1.49 6.63 2.74 10.09 2.79.03 0 .05-.02.07-.03.29 1.01.57 2.11.83 3.32-4.28-.75-8.11-1.54-12.12-3.34.31-.89.69-1.8 1.13-2.74zm4.15-6.52c.7.3 1.43.54 2.18.69.73.95 1.59 2.39 2.46 4.54-2.35-.62-4.67-1.22-6.94-2.12.66-1.07 1.41-2.09 2.3-3.11zm1.54-.08c-.39-.09-.78-.19-1.17-.32.12-.13.25-.27.38-.4.21.16.47.39.79.72zm34.58-15.06c-.41.39-.75.88-1.1 1.32-.21.27-.42.54-.62.82-.58-.36-1.11-.72-1.59-1.07.61-.7 1.29-1.34 1.99-1.95.41.28.84.57 1.32.88zm1.56.92c-.5.74-.94 1.52-1.38 2.29-.58-.3-1.11-.6-1.61-.91.25-.29.5-.57.75-.87.34-.4.71-.8.99-1.25.39.25.81.5 1.25.74zm2.65 1.27c-.55.7-1.04 1.45-1.54 2.19-.75-.31-1.44-.64-2.09-.97.49-.74.98-1.5 1.41-2.28.69.37 1.42.72 2.22 1.06zm1.91.75c-.46.73-.84 1.53-1.21 2.3-.64-.22-1.24-.45-1.82-.69.54-.71 1.11-1.42 1.6-2.16.45.18.93.37 1.43.55zm8.08 4.51c.28-.84.58-1.69.76-2.55.46.05.94.1 1.42.13-.3.85-.53 1.73-.73 2.61-.5-.05-.98-.12-1.45-.19zm-.37-.05c-1.69-.26-3.26-.57-4.71-.92.33-.78.67-1.59.93-2.4 1.4.33 2.92.59 4.55.78-.31.82-.54 1.69-.77 2.54zm-5.14-1.03c-.55-.14-1.09-.29-1.61-.44.4-.76.8-1.54 1.1-2.34.43.12.88.24 1.34.36-.32.79-.58 1.62-.83 2.42zm-2.03-.56c-.47-.14-.93-.29-1.37-.44.43-.75.87-1.52 1.2-2.31.41.14.82.28 1.26.41-.42.74-.77 1.54-1.09 2.34zm31.24-4.56c.41.71.82 1.43 1.26 2.12-.78.44-1.62.88-2.51 1.29-.35-.76-.73-1.52-1.1-2.27-.02-.03-.04-.04-.06-.06a30.4 30.4 0 0 0 2.41-1.08zm2.46-1.37c.28.33.56.67.84 1 .23.26.45.53.68.79-.71.49-1.49.99-2.33 1.48-.41-.71-.85-1.39-1.3-2.08.77-.4 1.47-.8 2.11-1.19zm1.89-1.26c.23.35.47.69.74 1.01.19.23.41.5.65.75-.4.32-.84.65-1.31.98-.25-.28-.53-.55-.78-.83l-.84-.87c.57-.36 1.08-.7 1.54-1.04zm1.65-1.3c.2.22.4.44.61.65.29.3.57.63.88.93-.37.34-.8.7-1.27 1.09-.2-.19-.41-.38-.58-.58-.31-.35-.6-.71-.88-1.09.49-.37.9-.71 1.24-1zm-8.61 5.23c.32.76.63 1.53.97 2.29-3.94 1.78-8.9 3.15-14.82 3.18.14-.95.19-1.93.04-2.86 5.62-.16 10.21-1.29 13.8-2.73 0 .03 0 .08.01.12zm9.4-5.94c.47.22 1.19.55 2.07.96-.26.27-.58.59-.98.96-.29-.32-.61-.62-.91-.93-.2-.2-.41-.4-.61-.61.17-.13.31-.27.43-.38zm-23.59 8.55c-.05.96-.05 1.91-.12 2.86-.73 0-1.48-.03-2.24-.08.12-.58.18-1.18.09-1.77-.02-.15-.27-.15-.29 0-.08.59-.14 1.16-.24 1.73-.36-.03-.72-.05-1.09-.08-.39-.04-.76-.08-1.14-.13.25-.87.48-1.74.63-2.63.91.06 1.85.11 2.82.12.55.02 1.06-.01 1.58-.02zm-22.73-6.28c-.76.54-1.41 1.21-2 1.94-.73-.55-1.34-1.08-1.83-1.56.74-.55 1.51-1.11 2.14-1.77.45.41 1.01.88 1.69 1.39zm-2.58-2.26c.17.18.4.41.66.65-.78.49-1.49 1.11-2.19 1.72-.45-.46-.81-.86-1.07-1.19.85-.38 1.71-.77 2.6-1.18zm-34.45 22.02c2.36 1.04 4.83 1.94 7.39 2.28.36.94.72 2 1.07 3.2-3.4-.85-6.65-1.49-9.9-2.83.01-.01.01-.03.02-.04.46-.92.93-1.78 1.42-2.61zm-4.15 13.45c2.58 1.32 5.43 2.39 8.29 2.63.19.02.22-.27.04-.32-2.87-.83-5.61-1.55-8.32-2.77.04-.89.13-1.91.32-3.02 4.1 2.29 9.02 4.24 13.74 4.2.14 0 .17-.21.03-.25-4.81-1.23-9.2-2.15-13.69-4.39.19-1.04.47-2.16.85-3.33 3.71 2 8.12 3.44 12.36 3.35.41 1.92.79 4.1 1.12 6.57H36.28c-.06-.61-.12-1.52-.1-2.67zm126.38 2.66h-7.79c-1.64-.49-3.32-.85-4.99-1.23.09-.98.21-1.91.34-2.78 2.84 1.28 5.93 2.15 9.01 2.42.21.02.24-.31.05-.36-3.05-.79-6-1.63-8.96-2.64.15-.89.32-1.72.5-2.5 2.27.81 4.55 1.5 6.93 1.99.21.04.3-.26.09-.32-2.32-.65-4.63-1.34-6.9-2.13.22-.88.47-1.69.72-2.43 2.57.87 5.17 1.73 7.81 2.33.22.05.29-.25.09-.33-2.51-.99-5.13-1.74-7.73-2.47.27-.71.55-1.36.83-1.95 2.33.81 4.7 1.65 7.09 2.17.26.06.35-.29.11-.39-2.23-.92-4.62-1.58-6.97-2.23.39-.74.79-1.38 1.18-1.92 2.01.72 4.05 1.57 6.12 2.04.22.05.39-.28.16-.39-1.9-.87-3.98-1.43-5.98-2.06.55-.69 1.08-1.22 1.56-1.62 1.47.47 2.85 1.1 4.27 1.68 2.49 4.55 2.53 12.42 2.46 15.12z" fill="#000000" stroke-width="none" opacity="1"></path></g><g id="svga-group-head" transform="matrix(1,0,0,1,0,0)"><g id="svga-group-ears-left-move" transform="matrix(1,0,0,1,0,0)"><g id="svga-group-ears-left" transform="matrix(1,0,0,1,0,0)"><path id="SvgjsPath28052" d="M63.9 77.8s-2.5-2.4-5.4-3.5c-2.9-1.1-6.1.7-7.1 3.7-1 2.9 1.3 15.1 5 19.5s6.2 4.8 8.7 2.5c2.6-2.4 7-10.8-1.2-22.2z" fill="#ffffff" stroke-width="none" opacity="1"></path><path id="SvgjsPath28053" d="M61.8 102.3c-1.9-.1-3.8-1.5-6.1-4.2-3.9-4.7-6.3-17.1-5.2-20.5.6-1.8 1.9-3.3 3.6-4.1 1.5-.7 3.2-.8 4.8-.2 3.1 1.2 5.6 3.6 5.7 3.7l.1.1c8.7 12.2 3.5 21.2 1.1 23.5-1.2 1.1-2.4 1.6-3.7 1.6-.1.1-.2.1-.3.1zm-3.6-27.1c-1.3-.5-2.5-.2-3.2.1-1.2.6-2.1 1.6-2.6 2.9-.8 2.5 1.3 14.3 4.9 18.5 1.9 2.3 3.4 3.4 4.7 3.5.8.1 1.6-.3 2.5-1.1 2.1-1.9 6.5-9.8-1.3-20.7-.4-.3-2.6-2.2-5-3.2z" fill="#000000" stroke-width="none" opacity="1"></path><path id="SvgjsPath28054" d="M55.2 77.4c3.3.6 5.4 6.1 6 9.8.1.1.1.2.2.3.4.6-.4 1.2-.8.6-.5-.8-1-1.6-1.8-1.9-1.4-.5-2.1 1.1-1.8 2.6.4 1.9 1.6 3 2.6 4.4.1.1 0 .3-.1.2-1.7-1-4.3-4.8-3.1-7.2.9-1.7 2.3-1.4 3.4-.4-.8-2.1-1.4-4.3-3-5.9-.5-.5-1.5-1.4-2.2-1.3-1.3.2-1.3 2.1-1.3 3.4-.1 1.7.1 3.4.4 5 0 .2-.2.2-.3.1-.6-2.4-2-10.4 1.8-9.7z" fill="#000000" stroke-width="none" opacity="1"></path></g></g><g id="svga-group-ears-right-move" transform="matrix(1,0,0,1,0,0)"><g id="svga-group-ears-right" transform="matrix(1,0,0,1,0,0)"><path id="SvgjsPath28055" d="M136.1 77.8s2.5-2.4 5.4-3.5c2.9-1.1 6.1.7 7.1 3.7 1 2.9-1.3 15.1-5 19.5s-6.2 4.8-8.7 2.5c-2.6-2.4-7-10.8 1.2-22.2z" fill="#ffffff" stroke-width="none" opacity="1"></path><path id="SvgjsPath28056" d="M137.9 102.3c-1.3 0-2.5-.5-3.7-1.6-2.5-2.2-7.6-11.3 1.1-23.5l.1-.1c.1-.1 2.7-2.5 5.7-3.7 1.5-.6 3.2-.5 4.8.2 1.7.8 3 2.3 3.6 4.1 1.1 3.3-1.3 15.8-5.2 20.5-2.3 2.7-4.2 4.1-6.1 4.2-.1-.1-.2-.1-.3-.1zm-1.1-23.9c-7.8 10.9-3.4 18.8-1.3 20.7.9.8 1.7 1.2 2.5 1.1 1.3-.1 2.8-1.2 4.7-3.5 3.5-4.2 5.7-16.1 4.9-18.5-.4-1.3-1.4-2.4-2.6-2.9-.7-.3-1.9-.6-3.2-.1-2.4 1-4.6 2.9-5 3.2z" fill="#000000" stroke-width="none" opacity="1"></path><path id="SvgjsPath28057" d="M144.8 77.4c-3.3.6-5.4 6.1-6 9.8-.1.1-.1.2-.2.3-.4.6.4 1.2.8.6.5-.8 1-1.6 1.8-1.9 1.4-.5 2.1 1.1 1.8 2.6-.4 1.9-1.6 3-2.6 4.4-.1.1 0 .3.1.2 1.7-1 4.3-4.8 3.1-7.2-.9-1.7-2.3-1.4-3.4-.4.8-2.1 1.4-4.3 3-5.9.5-.5 1.5-1.4 2.2-1.3 1.3.2 1.3 2.1 1.3 3.4.1 1.7-.1 3.4-.4 5 0 .2.2.2.3.1.6-2.4 2-10.4-1.8-9.7z" fill="#000000" stroke-width="none" opacity="1"></path></g></g><g id="svga-group-faceshape-wrap" transform="matrix(1,0,0,1,0,0)"><g id="svga-group-faceshape-single"><path id="SvgjsPath28039" d="M138.2 58.2c-2-10.8-13.3-27.4-37.2-27.4S69.1 43.5 65.5 53c-3 8.1-3 21.3-3 21.3s3 33.8 5.2 39.8c2.1 5.9 18.2 24.2 20.8 25.9 2.5 1.7 17.4 3 19.1 2.5 1.7-.4 26.3-26.3 27.6-29.7 1.3-3.4 4.4-32.9 4.3-38.5-.1 0 .1-8.4-1.3-16.1z" fill="#ffffff" stroke-width="none" opacity="1"></path><path id="SvgjsPath28040" d="M106.3 143.9c-4.4 0-16.1-1.1-18.6-2.8-2.8-1.8-19.1-20.3-21.3-26.5-2.2-6-5.1-38.7-5.2-40.1v-.1c0-.6 0-13.6 3.1-21.8 5.8-15.5 17.8-23 36.7-23 10.9 0 20.5 3.4 27.7 10 5.5 5 9.6 11.9 10.8 18.5 1.4 7.6 1.2 15.7 1.2 16.4.1 6-3.1 35.4-4.4 38.9-.9 2.4-10 12.3-13.9 16.4-3.3 3.5-6.6 6.9-9.1 9.4-4.5 4.4-5 4.6-5.4 4.7h-1.6zM63.8 74.3c.1 1.6 3.1 33.8 5.1 39.4 2 5.6 18 23.7 20.3 25.2 2.1 1.4 15.8 2.7 18 2.4 2.6-1.7 25.7-26 26.8-28.9 1.2-3.1 4.3-32.6 4.2-38 0-.1.2-8.4-1.2-15.9-1.1-6-4.8-12.4-10-17-6.7-6.1-15.7-9.3-26-9.3-17.7 0-28.9 7-34.3 21.3-2.8 7.5-2.9 19.9-2.9 20.8z" fill="#000000" stroke-width="none" opacity="1"></path></g></g><g id="svga-group-mouth-single-move" transform="matrix(1,0,0,1,0,0)"><g id="svga-group-mouth-single" transform="matrix(1,0,0,1,0,0)"><path id="SvgjsPath28130" d="M113.77 117.76c-.37.06-.74.14-1.11.21-2.95-1-5.96-1.67-9.06-2.03-.11-.01-.16.04-.2.12-1.14.59-2.28 1.18-3.43 1.78-1.21-.44-2.36-1-3.45-1.67-.12-.08-.24-.02-.3.07l-8.19 2.31c-.03.01-.03.03-.05.04-.44-.04-.88-.09-1.32-.12-.63-.04-.63.94 0 .98.52.03 1.03.08 1.55.14 3.7 3.09 7.35 7.51 12.61 7.33 5.19-.18 8.91-4.27 12.02-7.98.4-.08.79-.15 1.19-.22.62-.13.36-1.07-.26-.96zm-17.32-1.09c1.09.65 2.23 1.2 3.42 1.64.03.01.04-.01.07 0 .06.03.13.03.21-.01 1.19-.62 2.38-1.24 3.58-1.85 2.71.32 5.35.9 7.94 1.72-3.46.71-6.98 1.58-10.47 1.8-4.03.25-8-.73-11.99-1.25 2.41-.69 4.83-1.37 7.24-2.05zm4.37 9.75c-4.89.13-8.3-3.75-11.73-6.74 4.11.52 8.2 1.56 12.35 1.25 3.56-.27 7.12-1.14 10.64-1.85-2.92 3.46-6.46 7.21-11.26 7.34z" fill="#000000" stroke-width="none" opacity="1"></path></g></g><g id="svga-group-eyes-left-move" transform="matrix(1,0,0,1,0,0)"><g id="svga-group-eyes-left" transform="matrix(1,0,0,1,0,0)"><g id="svga-group-eyesback-left"></g><g id="svga-group-eyesiriswrapper-left"><g id="svga-group-eyesiriscontrol-left" transform="matrix(1,0,0,1,0,0)"><g id="svga-group-eyesiris-left" transform="matrix(1,0,0,1,0,0)"><path id="SvgjsPath28084" d="M84.8 88.9c1-1.8.1-4.4-1.6-5.6-1.8-1.2-4.3-.8-5.8 1.2-.8 1.1-1.1 2.5-.6 3.7.2.4.7 1.7 1.8 2.3 2.3 1.2 5.1.6 6.2-1.6z" fill="#ffffff" stroke-width="none" opacity="1"></path><path id="SvgjsPath28085" d="M83.4 83.1c-2-1.3-4.7-.8-6.2 1.2-.9 1.2-1.1 2.8-.6 4 .2.4.8 1.8 1.9 2.4.8.4 1.6.6 2.4.6 1.7 0 3.2-.8 4-2.4 1.2-1.8.4-4.6-1.5-5.8zm-6.2 5c-.4-1-.2-2.4.5-3.4.8-1.1 2-1.7 3.3-1.7.2 0 .4 0 .6.1.1 0 .1.1.2.1h.4c0 .1.1.1.1.2s.2.1.2.1c.1-.1.1-.1.2-.1s.2.1.3.1c.1.1.1.2.2.3 0 .1.1.1.1.1.2 0 .2.1.3.2.1.1.1.2.1.3 0 .1.1.1.2.1h.3c.2.2.2.4.1.7 0 .1 0 .2.1.2.2 0 .3.2.4.4 0 .1-.1.2-.1.3 0 .1 0 .2.1.2.1.1.5.8.2.9-.1 0-.1.1-.1.2.1.1.2.3.2.4 0 .1 0 .2-.1.3l-.2.2c-.1 0-.1.1-.1.1.1.3 0 .5-.2.6h-.2c-.1 0-.2.1-.2.2.1.4-.2.6-.6.6-.1 0-.1.1-.1.1v.2c-.2.3-.4.2-.7.1-.1-.1-.2 0-.2.2v.2c-.1.1-.3.1-.4 0-.1-.1-.2-.1-.3.1-.1.1-.2.1-.4 0-.1-.1-.1-.1-.2 0l-.2.2c-.1 0-.2.1-.2 0s-.1-.1-.2-.1c-.1.1-.2.1-.2.1-.1 0-.2 0-.3-.1l-.1-.1c0-.1-.2-.1-.2 0-.1-.1-.2-.1-.3-.3l-.1-.1c-.2 0-.3-.1-.4-.1l-.1-.1c0-.1-.1-.1-.2-.2h-.2c-.8-.8-1.2-1.5-1.3-1.8zm1.6-2.5c-.2-.3-.6-.5-.9-.5-.1 0-.1.1 0 .1.2.1.3.1.4.2s.3.2.4.3l.1-.1zm.3-2c0-.1-.1 0 0 0 0 .5.3.9.6 1.3 0 0 .1 0 .1-.1-.2-.4-.4-.9-.7-1.2zm1.7 0c0-.1 0 0 0 0 0 .3 0 .6.1.8 0 .1.1 0 .1 0 0-.3-.1-.6-.2-.8zm2.5.5c-.3.2-.5.5-.7.8-.1.1 0 .2.1.1.3-.2.6-.5.6-.9.1.1.1 0 0 0zm.9 3h-.3c-.1 0-.2 0-.3-.1-.1 0-.2.1-.1.2.2.1.5.2.7.1.1-.1.1-.2 0-.2zm.1.9c-.2-.1-.5-.1-.8-.2-.1 0-.1.1 0 .1.3.1.6.1.8.1.1.1.1 0 0 0zm-4.1 1.6c0-.1-.1-.1-.1 0v.4c0 .1-.1.2-.1.3 0 .1.1.1.1.1.1-.2.1-.6.1-.8zm-1.7-1c-.1 0-.1.1-.2.1s-.1.1-.2.1-.1.1 0 .1.2 0 .3-.1c.1.1.2 0 .1-.2.1.1.1 0 0 0zm-.9-1.4c-.2 0-.4 0-.6.1-.1 0-.1.1 0 .1.2-.1.4-.1.6-.2zm4.8.8c.2 0 .4.1.4.3.6-.8.6-2-.2-2.8-.5-.5-1.3-.7-2-.6-.1 0-.2.1-.3.1.5.5.3 1.6-.6 1.6-.3 0-.5-.1-.6-.2-.2.6-.2 1.2.2 1.8.6.9 1.8 1.3 2.8.8-.4-.3-.3-1 .3-1z" fill="#000000" stroke-width="none" opacity="1"></path></g></g></g><g id="svga-group-eyesfront-left"><path id="SvgjsPath28185" d="M81.02 74.43c-6.9 0-12.5 5.6-12.5 12.5s5.6 12.5 12.5 12.5 12.5-5.6 12.5-12.5-5.6-12.5-12.5-12.5zm6.92 16.9c-.4-.18-1.61.18-4.87.09s-6.62-.98-9.25-2.5c-2.64-1.52-3.31-5.23-3.31-5.23s3.71-.72 8.67-.54 7.65 1.92 8.54 3.4c.89 1.48 1.83 4.43 1.83 4.43-.05.57-1.21.53-1.61.35z" fill="#ffffff" stroke-width="none" opacity="1"></path><path id="SvgjsPath28186" d="M90.45 92.29c.37-1.74.34-3.67-.41-5.27-.09-.19-.39-.09-.38.1.04.89.08 1.74.08 2.59-.63-1.8-1.72-4.14-3.36-5.41-1.79-1.38-5.88-1.92-9.75-1.85a.507.507 0 0 0-.3-.17c-2.87-.49-3.07-1.83-3.07-1.84a.536.536 0 0 0-.58-.51c-.3.02-.53.27-.51.58 0 .07.1 1.24 1.69 2.11-.42.04-.84.09-1.23.15-3.29.01-4.07-1.65-4.11-1.72a.557.557 0 0 0-.71-.29c-.28.12-.41.43-.29.71.03.07.55 1.25 2.38 1.89l-.1.03-.13.06c-.07.04-1.77 1.13-3.67-.2a.546.546 0 1 0-.62.9c2.31 1.61 4.42.5 4.83.25.09-.03.18-.05.27-.08-.09.12-.13.27-.09.43.07.33 1.68 7.29 13.26 7.29 1.29 0 2.71-.09 4.27-.28.3-.04.51-.31.47-.61a.542.542 0 0 0-.61-.47c-14.42 1.79-16.26-5.83-16.33-6.16a.511.511 0 0 0-.31-.37c4.36-1.03 12.29-.75 14.6 1.03 2.53 1.95 3.65 7.15 3.67 7.21.02.1.08.19.15.26l-.03.22c-.09.49.62.7.76.21.06-.2.11-.4.15-.6 0-.07.01-.13.01-.19z" fill="#000000" stroke-width="none" opacity="1"></path></g></g></g><g id="svga-group-eyes-right-move" transform="matrix(1,0,0,1,0,0)"><g id="svga-group-eyes-right" transform="matrix(1,0,0,1,0,0)"><g id="svga-group-eyesback-right"></g><g id="svga-group-eyesiriswrapper-right"><g id="svga-group-eyesiriscontrol-right" transform="matrix(1,0,0,1,0,0)"><g id="svga-group-eyesiris-right" transform="matrix(1,0,0,1,0,0)"><path id="SvgjsPath28086" d="M123.3 88.9c1-1.8.1-4.4-1.6-5.6-1.8-1.2-4.3-.8-5.8 1.2-.8 1.1-1.1 2.5-.6 3.7.2.4.7 1.7 1.8 2.3 2.3 1.2 5 .6 6.2-1.6z" fill="#ffffff" stroke-width="none" opacity="1"></path><path id="SvgjsPath28087" d="M121.9 83.1c-2-1.3-4.7-.8-6.2 1.2-.9 1.2-1.1 2.8-.6 4 .2.4.8 1.8 1.9 2.4.8.4 1.6.6 2.4.6 1.7 0 3.2-.8 4-2.4 1.1-1.8.4-4.6-1.5-5.8zm-6.3 5c-.4-1-.2-2.4.5-3.4.8-1.1 2-1.7 3.3-1.7.2 0 .4 0 .6.1.1 0 .1.1.2.1h.4c0 .1.1.1.1.2s.2.1.2.1c.1-.1.1-.1.2-.1s.2.1.3.1c.1.1.1.2.2.3 0 .1.1.1.1.1.2 0 .2.1.3.2.1.1.1.2.1.3 0 .1.1.1.2.1h.3c.2.2.2.4.1.7 0 .1 0 .2.1.2.2 0 .3.2.4.4 0 .1-.1.2-.1.3 0 .1 0 .2.1.2.1.1.5.8.2.9-.1 0-.1.1-.1.2.1.1.2.3.2.4 0 .1 0 .2-.1.3l-.2.2c-.1 0-.1.1-.1.1.1.3 0 .5-.2.6h-.2c-.1 0-.2.1-.2.2.1.4-.2.6-.6.6-.1 0-.1.1-.1.1v.2c-.2.3-.4.2-.7.1-.1-.1-.2 0-.2.2v.2c-.1.1-.3.1-.4 0-.1-.1-.2-.1-.3.1-.1.1-.2.1-.4 0-.1-.1-.1-.1-.2 0l-.2.2c-.1 0-.2.1-.2 0s-.1-.1-.2-.1c-.1.1-.2.1-.2.1-.1 0-.2 0-.3-.1l-.1-.1c0-.1-.2-.1-.2 0-.1-.1-.2-.1-.3-.3l-.1-.1c-.2 0-.3-.1-.4-.1l-.1-.1c0-.1-.1-.1-.2-.2h-.2c-.8-.8-1.1-1.5-1.3-1.8zm1.6-2.5c-.2-.3-.6-.5-.9-.5-.1 0-.1.1 0 .1.2.1.3.1.4.2s.3.2.4.3c.1 0 .2-.1.1-.1zm.4-2c-.1-.1-.1 0 0 0 0 .5.3.9.6 1.3 0 0 .1 0 .1-.1-.2-.4-.5-.9-.7-1.2zm1.7 0c0-.1-.1 0 0 0 0 .3 0 .6.1.8 0 .1.1 0 .1 0 0-.3-.1-.6-.2-.8zm2.5.5c-.3.2-.5.5-.7.8-.1.1 0 .2.1.1.2-.2.5-.5.6-.9.1.1.1 0 0 0zm.9 3h-.3c-.1 0-.2 0-.3-.1-.1 0-.2.1-.1.2.2.1.5.2.7.1.1-.1.1-.2 0-.2zm.1.9c-.2-.1-.5-.1-.8-.2-.1 0-.1.1 0 .1.3.1.6.1.8.1.1.1.1 0 0 0zm-4.2 1.6c0-.1-.1-.1-.1 0v.4c0 .1-.1.2-.1.3 0 .1.1.1.1.1.2-.2.2-.6.1-.8zm-1.6-1c-.1 0-.1.1-.2.1s-.1.1-.2.1-.1.1 0 .1.2 0 .3-.1c.1.1.1 0 .1-.2.1.1.1 0 0 0zm-.9-1.4c-.2 0-.4 0-.6.1-.1 0-.1.1 0 .1.2-.1.4-.1.6-.2zm4.7.8c.2 0 .4.1.4.3.6-.8.6-2-.2-2.8-.5-.5-1.3-.7-2-.6-.1 0-.2.1-.3.1.5.5.3 1.6-.6 1.6-.3 0-.5-.1-.6-.2-.2.6-.2 1.2.2 1.8.6.9 1.8 1.3 2.8.8-.3-.3-.2-1 .3-1z" fill="#000000" stroke-width="none" opacity="1"></path></g></g></g><g id="svga-group-eyesfront-right"><path id="SvgjsPath28187" d="M118.98 74.43c-6.9 0-12.5 5.6-12.5 12.5s5.6 12.5 12.5 12.5 12.5-5.6 12.5-12.5-5.59-12.5-12.5-12.5zm6.93 14.74c-2.64 1.52-5.99 2.41-9.25 2.5s-4.47-.27-4.87-.09c-.4.18-1.56.22-1.61-.36 0 0 .94-2.95 1.83-4.43s3.58-3.22 8.54-3.4c4.96-.18 8.67.54 8.67.54s-.67 3.72-3.31 5.24z" fill="#ffffff" stroke-width="none" opacity="1"></path><path id="SvgjsPath28190" d="M134.5 83.64a.546.546 0 0 0-.76-.14c-1.9 1.32-3.6.24-3.67.2l-.13-.06-.1-.03c1.82-.64 2.35-1.82 2.38-1.89a.553.553 0 0 0-.29-.71.536.536 0 0 0-.71.29c-.03.07-.81 1.73-4.11 1.72-.4-.06-.81-.11-1.23-.15 1.59-.87 1.69-2.05 1.69-2.11.02-.3-.21-.56-.51-.58a.536.536 0 0 0-.58.51c0 .01-.2 1.35-3.07 1.84-.12.02-.22.09-.3.17-3.87-.07-7.96.47-9.75 1.85-2.84 2.19-4.02 7.61-4.07 7.84-.06.3.13.58.42.65a.545.545 0 0 0 .64-.42c.01-.05 1.14-5.26 3.67-7.21 2.31-1.78 10.24-2.06 14.6-1.03-.15.07-.28.2-.31.37-.07.33-1.91 7.95-16.33 6.16a.55.55 0 0 0-.61.47c-.04.3.18.57.47.61 1.56.19 2.98.28 4.27.28 11.58 0 13.19-6.96 13.26-7.29a.577.577 0 0 0-.09-.43c.09.03.18.05.27.08.41.25 2.52 1.36 4.83-.25.23-.15.29-.49.12-.74z" fill="#000000" stroke-width="none" opacity="1"></path></g></g></g><g id="svga-group-facehighlight-single"></g><g id="svga-group-eyebrows-left-move" transform="matrix(1,0,0,1,0,0)"><g id="svga-group-eyebrows-left-rotate" transform="matrix(1,0,0,1,0,0)"><g id="svga-group-eyebrows-left" transform="matrix(1,0,0,1,0,0)"><path id="SvgjsPath28147" d="M91.32 71.42c-.19 1.6-1.13 4.23-2.63 4.89-1.5.66-8.46 1.69-13.35 1.32-4.89-.38-8.08-2.26-7.89-2.73.19-.47 5.92-.19 8.46-.66S87 72.27 89.16 71.33c2.16-.94 2.16.09 2.16.09z" fill="#ffffff" stroke-width="none" opacity="1"></path><path id="SvgjsPath28148" d="M67.08 75.33c.5.81 3.68 2.43 8.23 2.78.75.06 1.54.08 2.34.08 4.65 0 9.91-.86 11.23-1.44 1.76-.77 2.72-3.64 2.92-5.27v-.06a.94.94 0 0 0-.44-.77c-.5-.33-1.28-.25-2.4.24-1.9.83-9.15 2.15-12.24 2.72l-.91.17c-1.19.22-3.13.27-4.84.32-3.19.08-3.77.14-3.97.64-.04.09-.09.32.08.59zm3.92-.28c.18 0 .37-.01.55-.01l1.9 1.87c-.51-.09-1-.19-1.46-.3-.01-.01 0-.01-.01-.02l-1.88-1.51c.31-.02.61-.02.9-.03zm7.66 2.16-1.57-2.7c.37-.07.78-.14 1.23-.22l1.18 2.89c-.28.02-.56.03-.84.03zm6.61-.61c-.27.04-.56.09-.85.13l-.31-3.57c.49-.1.96-.21 1.42-.31l-.26 3.75zm.91-3.91c.54-.13 1.04-.25 1.5-.38l-1.1 4.06c-.21.04-.43.08-.65.12l.25-3.8zm-2.4 4.12-.78.09c-.1-.68-.33-2.1-.54-3.41l1.02-.21.3 3.53zm-1.41.17c-.24.02-.49.05-.73.07l-.81-3.22c.33-.06.67-.13 1.01-.2.19 1.19.43 2.68.53 3.35zm-1.38.11-.81.06-1.21-2.98c.4-.07.81-.15 1.23-.23l.79 3.15zm8.36-5.32c.13-.05.24-.1.34-.14-.4 1-1.22 2.98-1.84 4.45-.17.05-.36.1-.58.14l1.12-4.11c.39-.12.72-.23.96-.34zm-.66 3.98c1.16-2.77 1.6-3.87 1.77-4.32.24-.03.34.01.37.03-.19 1.45-1.01 3.6-2.14 4.29zM76.7 77.21l-1.81-2.35c.41-.04.79-.09 1.11-.15l.42-.08 1.5 2.59c-.41.01-.82 0-1.22-.01zm-2.18-.16L72.44 75c.57-.02 1.14-.05 1.68-.08l1.74 2.25-.47-.03c-.3-.02-.58-.05-.87-.09zm-6.21-1.89c.23-.02.52-.04.82-.05l1.25 1c-.94-.33-1.66-.68-2.07-.95z" fill="#000000" stroke-width="none" opacity="1"></path></g></g></g><g id="svga-group-eyebrows-right-move" transform="matrix(1,0,0,1,0,0)"><g id="svga-group-eyebrows-right-rotate" transform="matrix(1,0,0,1,0,0)"><g id="svga-group-eyebrows-right" transform="matrix(1,0,0,1,0,0)"><path id="SvgjsPath28149" d="M108.68 71.42c.19 1.6 1.13 4.23 2.63 4.89 1.5.66 8.46 1.69 13.35 1.32 4.89-.38 8.08-2.26 7.89-2.73-.19-.47-5.92-.19-8.46-.66s-11.09-1.97-13.25-2.91c-2.16-.94-2.16.09-2.16.09z" fill="#ffffff" stroke-width="none" opacity="1"></path><path id="SvgjsPath28150" d="M132.99 74.72c-.2-.5-.78-.55-3.97-.64-1.71-.05-3.66-.1-4.84-.32l-.91-.17c-3.09-.57-10.34-1.89-12.24-2.72-1.12-.49-1.9-.56-2.4-.24-.32.21-.44.55-.44.77v.06c.19 1.63 1.15 4.5 2.92 5.27 1.33.58 6.58 1.44 11.23 1.44.81 0 1.6-.03 2.34-.08 4.54-.35 7.72-1.97 8.23-2.78.18-.25.13-.48.08-.59zm-3.1.35-1.88 1.51c-.01 0 0 .01-.01.02-.45.11-.94.21-1.46.3l1.9-1.87c.18.01.37.01.55.01.3.02.6.02.9.03zm-9.39 2.11 1.18-2.89c.44.08.85.16 1.23.22l-1.57 2.7c-.28 0-.56-.01-.84-.03zm-6.03-4.33c.46.1.93.21 1.42.31l-.31 3.57c-.29-.04-.58-.08-.85-.13l-.26-3.75zm-.39 3.64c-.23-.04-.45-.08-.65-.12l-1.1-4.06c.45.12.96.25 1.5.38l.25 3.8zm2.44-3.2 1.02.21c-.21 1.31-.44 2.73-.54 3.41-.27-.03-.53-.06-.78-.09l.3-3.53zm1.65.33c.34.07.68.13 1.01.2l-.81 3.22c-.25-.02-.49-.04-.73-.07.09-.66.33-2.15.53-3.35zm1.64.32c.42.08.83.16 1.23.23l-1.21 2.98c-.27-.02-.54-.03-.81-.06l.79-3.15zm-8.21-1.83 1.12 4.11c-.22-.05-.41-.1-.58-.14a323.8 323.8 0 0 1-1.84-4.45c.11.04.22.08.34.14.25.11.58.22.96.34zm-2.44-.66c.03-.02.13-.05.37-.03.17.45.61 1.55 1.77 4.32-1.12-.68-1.94-2.83-2.14-4.29zm12.92 5.77 1.5-2.59.42.08c.33.06.7.11 1.11.15l-1.81 2.35c-.4.01-.81.02-1.22.01zm2.54-.07-.47.03 1.74-2.25c.54.04 1.11.06 1.68.08l-2.08 2.05c-.3.03-.58.06-.87.09zm5-1.04 1.25-1c.3.01.59.03.82.05-.41.27-1.13.62-2.07.95z" fill="#000000" stroke-width="none" opacity="1"></path></g></g></g><g id="svga-group-nose-single-move" transform="matrix(1,0,0,1,0,0)"><g id="svga-group-nose-single" transform="matrix(1,0,0,1,0,0)"><path id="SvgjsPath28139" d="M106.8 102.1c-.6-.5-1.4.3-.8.8 2.5 2.2-1.2 4.8-3.4 2.9-.3-.3-.7-.2-.9.1-1.3 1.8-3.9 1.8-5.4.3-.03-.05-.06-.1-.1-.2-.6-1-.7-2.1-.1-3.1.4-.7-.6-1.3-1-.6-.7 1.2-.8 2.6-.2 3.8-.9.5-1.9.6-2.9.1-1.4-.7-1.5-2.4-.4-3.5.5-.5-.3-1.4-.8-.8-1.3 1.3-1.5 3.4-.1 4.8 1.3 1.2 3.3 1.3 4.8.4 1.9 1.9 5 1.8 6.8-.1 1.4.9 3.4.9 4.7-.2 1.5-1.2 1.2-3.4-.2-4.7z" fill="#000000" stroke-width="none" opacity="1"></path></g></g><g id="svga-group-hair-front" transform="matrix(1,0,0,1,0,0)"><path id="SvgjsPath28224" d="M120.3 47.2s-13.7 2.7-26.7.6-20 5.8-22.8 12.4-1.5 19.1 2.1 34c3.6 14.9 3 27.6-5.2 38.8s-17.4 18.2-15.8 35.2c1.2 13.1 9.7 18.5 11.8 26.7 2.1 8.2-7.3 15.8-7.3 15.8s4.5-12.1-2.1-19.7c-6.7-7.6-10.9-14-10.9-28.2 0-14.3 9.7-32.8 11.5-43.4s-1.2-39.2-2.7-52.2 2.1-27.9 20-39.5 51.9-10.3 56.8 10.6c0 0 5.8 2.7 9.4 9.1 3.6 6.4 4.6 19.4 3.9 25.2 0 0-3 3-3.3 7-.3 3.9-2.1 7.3-2.1 7.3s-3-4.6-2.4-13.7-2.4-16.7-6.1-20.6-8.1-5.4-8.1-5.4z" fill="#ffffff" stroke-width="none" opacity="1"></path><path id="SvgjsPath28225" d="M139.4 47c-3.2-5.6-7.9-8.5-9.4-9.3-1.8-6.9-6.7-12.2-14.3-15.3-12.9-5.2-31.7-3.3-43.8 4.5C56.3 37 49.4 50.5 51.4 67.3c3 26.1 4 44.5 2.7 51.9-.7 4-2.5 9.2-4.5 14.8-3.3 9.3-7 19.8-7 28.8 0 15 4.8 21.7 11.2 28.9 6.2 7 2 18.6 1.9 18.7l-1.3 3.4 2.8-2.3c.4-.3 9.9-8.1 7.6-16.8-.9-3.4-2.8-6.4-4.9-9.5-2.9-4.4-6.2-9.5-7-17.1-1.2-13.4 4.4-20.4 10.9-28.5 1.5-1.9 3.1-3.9 4.7-6.1 3.7-5.1 6-10.7 7-17 .1-.1.2-.2.2-.5 0-.2 0-.5-.1-.8.8-6.4.2-13.4-1.8-21.4-3.9-15.8-4.6-27.4-2.2-33.4 1.4-3.4 7-14.2 21.7-11.8 12.2 2 24.7-.2 26.8-.6.9.4 4.6 1.9 7.5 5.1 3.1 3.3 6.4 10.5 5.8 19.9-.6 9.3 2.5 14.1 2.6 14.3l.9 1.4.8-1.4c.1-.1 1.9-3.6 2.2-7.7.3-3.5 3-6.3 3.1-6.3l.2-.2v-.3c.9-5.6 0-19.1-3.8-25.8zm-16.1-1.3c5.6-.7 10 2.8 13.1 7.1 1.3 1.9 2.3 4 4.3 5 .8 4.4 1 9.1.9 12.5-6.4-8.1-7.8-21.8-19.5-23.8.4-.3.8-.6 1.2-.8zm17.1 10.4c-1.7-1.3-2.7-3.7-4-5.3-1-1.3-2.1-2.4-3.4-3.4-2.4-1.9-5.1-2.9-8-3 .5-.4 1-.9 1.5-1.4 3.6.3 6.5 2.9 10.1 3.4.4.5.7 1 1 1.6 1.3 2.1 2.2 5 2.8 8.1zm-4.8-11.2c-2.8-.7-5.2-2.5-8-3.1.6-.7 1.1-1.5 1.6-2.3 1 .6 3.8 2.4 6.4 5.4zm-7.4-6.1c-.2.3-.4.7-.7 1 .1-1 .2-2 .1-3 .2.6.4 1.2.6 1.9v.1zm-3-6.9c1.4 3.1 1.7 6.5.8 9.8-.2.1-.2.2-.3.4-.5.5-1.1 1.1-1.7 1.5.1-8.5-4.1-15.8-10.6-20 .5.2 1.1.4 1.6.6 3.3 1.5 7.3 3.8 10.2 7.7zM51.5 134.8c2-5.7 3.9-11 4.6-15.2 1.7-9.7-.6-33.9-2.7-52.5-.5-4.3-.4-8.4.3-12.2-.4 8.2 1.5 16.6 4.1 24.4 4 12 9.7 24.3 6 37.1-1.9 6.8-6.5 12.3-10.1 18.2-3 4.9-5.3 10-7.2 15.3 1.4-5 3.2-10.3 5-15.1zm15.5-2.3c-1.5 2.1-3.1 4.1-4.7 6-6.8 8.4-12.6 15.7-11.3 29.9.8 8.1 4.2 13.4 7.3 18 2 3 3.8 5.8 4.6 8.9 1.2 4.8-1.9 9.5-4.4 12.2.9-4.4 1.4-11.7-3.3-17.1-6.2-7.1-10.7-13.2-10.7-27.6v-1.7c2.3-9.8 5.8-18.9 11.2-27.5 3.5-5.4 7.4-10.6 9.2-16.9 3-10.6-.1-21.1-3.7-31.1-4.4-12.4-8.8-25.9-5.1-38.9 3.2-7 8.7-13 16.7-18.1C80 24 89.7 21.5 99 21.5c2.4 0 4.8.2 7 .5 9.9 2.5 17 11.5 16.5 22.6-.5.3-.9.6-1.4.9-7.7-21.4-35.6-25.5-50.7-9.3-20.9 22.5 0 50.1 3.6 75.2-.1 8.1-2.4 14.9-7 21.1zm5-38c.8 3.3 1.4 6.3 1.7 9.3-5.2-20-17.7-40.4-7.2-59.9 5.2-9.7 15.8-17 27.1-16.8 11.7.3 22.6 7.8 26.5 18.9-.3.1-.5.2-.8.3-1.2.2-3.8.6-7 .9-3.7-12.6-17.1-20-29.6-15.1-5.3 2.1-8.8 5.5-11.2 9.7-1.1 2-1.9 4.2-2.5 6.5-.2.5-.5 2-.5 2.1-1.3 6.7-.9 14.1-.1 20.7.1 6.3 1.4 14.1 3.6 23.4zm-2.1-34.6c-.4 1-.8 2.3-1 3.6-.1-2.5-.2-4.9 0-7.4.1 0 .1-.1.2-.2.9-2 2.7-2.9 4.7-2.3-2.1 2.4-3.3 4.9-3.9 6.3zm4.8-7.3c-2-.8-4.1-.5-5.5 1 .1-1 .5-3 .5-3.1 1.3-6.3 9-7.1 13-3-3.5 1.1-6.1 3-8 5.1zm9.2-5.5c-3.3-3.9-9.3-4.5-12.9-1.5.4-1 .8-2 1.4-2.9.1 0 .1-.1.2-.2 6.6-9.7 20.7-6.2 23.4 4.6-.7-.1-1.4-.2-2.2-.3-3.8-.6-7.1-.4-9.9.3zm13.4.2C95.2 37.5 84.8 33.2 77 37.1c.9-.8 1.8-1.5 2.9-2.1C92 27.7 107 34.3 111 47.4c-3.9.3-8.8.4-13.7-.1zM137 84.6c-.8-2.1-1.8-5.8-1.4-11.2.8 1.4 1.8 2.8 3 3.9-.2.7-.4 1.5-.5 2.4-.1 1.8-.6 3.6-1.1 4.9zm2.1-8.6c-1.7-1.6-2.8-3.6-3.4-5.8-.2-8.4-3.3-14.8-6.4-18.2-1.1-1.2-2.3-2.2-3.5-3 8.1 4.3 9.7 16.3 15.8 23.1v.2c-.5.5-1.7 1.9-2.5 3.7z" fill="#000000" stroke-width="none" opacity="1"></path></g><g id="svga-group-glasses-single-move" transform="matrix(1,0,0,1,0,0)"><g id="svga-group-glasses-single" transform="matrix(1,0,0,1,0,0)"></g></g></g></g></g><rect id="svga-credit-rect" width="200" height="15" x="0" y="185" fill="#ecf0f1" opacity="0.5" style="display: none;"></rect><text id="svga-credit-text" font-family="Avenir Next, Roboto, Helvetica, Arial, sans-serif" font-size="10px" text-anchor="start" font-weight="400" size="10px" anchor="start" weight="400" fill="#333333" x="33.402061462402344" y="182.71133995056152" style="display: none;"><tspan id="SvgjsTspan27617" dy="13" x="33.402061462402344">Created on AvatarMaker.com</tspan></text></g></svg>