<svg xmlns="http://www.w3.org/2000/svg" version="1.1" width="600px" height="600px" viewBox="0 0 200 200" style="overflow:hidden!important;"><defs id="SvgjsDefs23193"></defs><g id="svga-group-wrapper"><g id="svga-group-backs-single"></g><g id="svga-group-humanwrap-move" transform="matrix(1,0,0,1,0,0)"><g id="svga-group-humanwrap" transform="matrix(1,0,0,1,0,0)"><g id="svga-group-hair-back-move" transform="matrix(1,0,0,1,0,0)"><g id="svga-group-hair-back" transform="matrix(1,0,0,1,0,0)"><path id="SvgjsPath23872" d="M81.5 113.2c-.2-1.7-1.2-2.7-1.8-4.3-.8-2.2-.1-3.6.2-5.9.4-3.4-1.7-5.8-1.8-9 0-3.7 2.3-7.2 2.5-11 .2-3.6-.8-7.3-2.8-10.3-2.7-4-8.1-7.4-13-6.4-.8-.9-2.5-1.2-3.5-.3-2 1.7-2.9 3.9-2.5 6.6.4 2.6 1.1 3.4-.5 5.8-.6.9-1.6 1.6-2.2 2.5-.9 1.4-1.2 2.9-.6 4.3-1.5 1.5-2.8 3.1-4.4 4.5-1 1-1.9 1.7-2.2 3.2-.4 2.4 1.4 4.2-.1 6.6-.8 1.3-2.4 2.1-3.1 3.6-.6 1.2-.6 2.5-.3 3.8.6 2.5 1.8 3.6.3 6.3-.8 1.4-2.2 2.3-2.4 4.1-.2 2.1 2.1 4.8.7 6.7-.3.4.2 1 .7.8 3.7-1.2 2.2-4.1 2.8-7 .5-2.3 2.2-3 3.1-5.1.8-1.9 0-3.2-.3-5-.6-3.7 1.4-4.1 3-6.8.9-1.5.8-2.6.8-4.3 0-2.2-.1-2.5 1.3-4.2.5-.6 1.2-1.1 1.7-1.8.1-.2.2-.4.3-.5 0 .5 0 1 .1 1.3l-.5.5c-1.3 1.6-2.2 2.8-1.2 5 .2.5.6.8 1 1.1-.2 1-.8 1.7-1.9 2.2-1.3.8-1.8 2.8-.5 4 .2.2.4.3.5.5-.5.9-.7 1.8-.4 2.9-1 1-2.3 2-2.5 3.3-.2 1 .2 1.8.5 2.7.9 2.1 1.3 1.2 0 3.4-1.2 2-1.5 2.6-.7 4.8.7 1.7.8 2 .5 3.8-.2 1.2-.3 2 0 3.3.3 1.1 1.9.9 2-.3 0-.6.3-1.2.6-1.7.1 1.7 1 2.7 2.6 3.1.1 0 .3.1.4.1-.1 1.4.3 2.5 1.8 3.1.7.3 1.5-.7 1-1.3-.1-.2-.2-.4-.2-.6.1.1.2.1.2.2 1.4 1 2.8 1.1 3.9.7v.1c-.2.9.7 1.4 1.4 1.1 1 .7 2.2 1.1 3.2.9.4.4 1.2.3 1.6-.2.5-.8 1.8-1.1 2.5-1.9.3-.4.5-.9.7-1.4.4.9.9 1.6.9 1.6-1.1 1.6 1.4 3.5 2.7 2.1 1.2-1.3 1.5-2.3 1.1-4-.1-.6-.4-.9-.7-1.1.5-.2.9-.6 1.1-1.1.7-2.7 1.6-3.8 1.5-6.6-.2-3 1.3-5.6.9-8.5zm-23.6-1.6c-.1.4-.2.7-.4 1-.7-.9-1.2-.3-.1-1.2.1-.1.3-.2.4-.3 0 .1.1.3.1.5zm-1.3 9.7c0 .1-.1.2-.1.3v.1c-.1.3-.2.6-.3.8-.3-.8-.8-1.5-.8-2.2 0-.4.1-.8.3-1.1.8.7 1 1.4.9 2.1zm107.8 4.7c1.3.7-.9-7.1-.9-6.8.2-2.1 2.3-2.6.8-5-.9-1.4-2-1-2-2.7 0-.9 1.3-2.2 1.4-3.3.3-2.3-.7-3.8-2.5-5.2-1.9-1.4-2.9-.8-2.7-3.9.1-1.4.7-2.5.5-4-.4-3.2-2.6-3.8-4.9-5.3-1.4-.3-2.4-1.1-3.1-2.5.1-.7.1-1.4 0-2.1-.2-1.2-.7-2-1.6-2.7-3-2.4-6.9-.8-9.6-4.3-.2-.3-.6-.5-.9-.7-.7-2.9-2.4-5.3-5.2-6.8-3.6-1.9-10.9-1.8-14.4 1.3-1 .6-1.9 1.4-2.6 2.5-.7 1.1-.8 2-.9 3.2-.1 1.1.3 2.4-.2 3.4-.3.7-1.2 1.2-1.6 1.8-2 3.3.1 5.8.8 9 1.1 4.7-2.7 8.2-.8 13.1 1 2.7 1.5 4.9 1.3 7.8-.1 1-.1 1.8 0 2.5-.4.6-.6 1.2-.7 1.8-.1 1.1.5 1.9 1.1 2.8 1 1.8 2.9 1 2.1 4.5-.2.8-1.2 1.7-1.6 2.5-.5 1-.7 2-.6 3.2.1 1.3 2.5 4.2 1.5 5.3-1.3 1.5.3 3.4 2 2.6 1.6-.7 2.3-1.6 2.5-2.6.3.4.8.6 1.4.6h.1l.2.2c.8.8 1.8.4 2.2-.4.2.4.4.8.6 1.3.6 1.1 2.2.5 2.2-.6.1-.8.2-1.6.4-2.3.2.2.4.4.8.5l.7.3c.7.3 1.3-.1 1.6-.6.6.9 1.7 1.6 3 1.7.8.1 1.2-.9.9-1.5-.3-.7-.2-1.2.1-1.7.1.1.3.3.6.4.7.5 1.5-.1 1.7-.8.6 0 1.2-.1 2.2-.2.8-.1 1.2-.8 1.3-1.5.6.7 1.1 1.3.9 2-.2.8.9 1.6 1.4.8.9-1 1.1-1.8.8-3.1-.4-1.4-1.2-1.8-1.1-3.3 0-.4.3-.8.6-1.2.1.1.2.2.3.4 0 .1.5.2.6.1-.1.3-.6 1-.6 1.2 0 .4 1.1 5.4 2.4 3.4-.4.6 0 1.5.7 1.7.2.1.4.1.5.1.6.2 1.4-.1 1.7-.7l.3-.6c.4-.8.3-1.6-.3-2.2-.4-.4-1.2-1.4-1.3-1.2.1-.6.9-1.4.9-2.1-.1-1.8-1.4-2.1-2.4-2.7.9-1.2 1.8-2.5 2.7-3.7.7-1 .1-2.2-.7-2.8-.4-.3-4.8-2-4.8-1.9-.1-.3 2.2-3.4 2.3-4.2.4-2.5-1.1-4.2-3-5.3 1-1.4 1.7-2.9 1.7-4.6.7.5 2.6 1.5 2.4 1 .3.8-.6 2.3-.3 3.4.4 1.2 1.1 1.5 1.8 2.4 1 1.2 1.1.5 1.1 2.1 0 .6-.6 1.2-.8 1.7-.3 1.3-.3 2.4.3 3.6.5 1 2 1.6 2.2 2.5.2 1-1.1 2.6-1.1 3.7 0 .9.3 1.6.8 2.4.3.5 1.1.6 1.3 1 .7 1.2.2 1.8.4 2.8.2 1.3-.2 1.4.4 2.5.4.9 1.8.4 1.8-.5-.1-2.5 2.1-3.7 1.2-6.3-.5-1.5-1.5-1.5-1.2-3.6.2-1.1.9-2 .8-3.2-.1-.9-.6-1.5-1-2.3-.4-.9-.9-.7-.9-1.9 0-.3.9-1.8 1.1-2.3.3-1.1.4-2.3-.1-3.3-.5-1.3-2-1.6-2.5-2.7-.9-1.7.8-3.6-1-5.4-.8-.9-2.4-1-3-1.9-.6-1-.2-2.7-.7-3.9-.5-1.2-1.5-1.9-2.6-2.6-2-1.3-2.1-1.4-2.6-3.8l-.3-.9c.8.1 1.6.2 2.1.6 1.3.9.7 2 1.3 3.6.5 1.5 1.5 2.4 2.9 3.2 2.4 1.4 4.8 1 4.6 4.6-.1 3-.9 5.3 1.8 7.5 1.1.9 3.4 1.3 3.6 2.9.1.9-1.5 2.7-1.5 4 0 1.1.2 2.3 1.1 3.2 1.4 1.4 1.6.4 1.7 2.3.1 1.1-.8 1.7-.4 2.9.5 1.3 1.3 1.5 1.6 2.8.5 2.2-.6 3.9 2 4.7 1.3.8 2-1.1.9-1.7zm-24.5 1.6c-.2-.2-.3-.4-.5-.7-.2-.5-.4-.7-.5-.8.1 0 .3-.1.4-.7.1-.5.6-.8.9-1.3.3.2.5.4.6.7.3.3-.6 1.7-.9 2.8zm5-7.8-1.2 1.7-.1-.1c-1.2-1.5-1.4-.5-1-2.1.8.1 1.6.3 2.3.5zm-1.6-23.1c-1.1-1.1-2.2-1.7-3-2.5v-.7c.1.1.2.2.4.3 1.9 1.3 2.2 1.3 2.6 2.9z" fill="#000000" stroke-width="none" opacity="1"></path></g></g><g id="svga-group-humanbody-back"><path id="SvgjsPath23451" d="M86.5 122c0 18.8 2.7 50.3-8.1 58s-31.8 13.9-36.7 24.4-3.6 14.4-3.6 14.4h124.1s.6-8.1-4.2-15.4c-6.6-10.1-28.5-17.7-36.5-22.9-8.1-5.2-10.9-32.2-10.9-58.8l-24.1.3z" fill="#ffffff" stroke-width="none" opacity="1"></path></g><g id="svga-group-chinshadow-single"></g><g id="svga-group-humanbody-front"><path id="SvgjsPath23452" d="M163.4 220.1H37.2l-.3-.9c-.1-.5-1.3-4.7 3.6-15.3 3.4-7.3 13.6-12.4 23.5-17.4 5.1-2.5 9.9-5 13.6-7.5 8.6-6 8.1-29.8 7.7-47.1-.1-3.5-.1-6.8-.1-9.8v-1.3l26.7-.4v1.3c0 32 3.8 53.5 10.3 57.7 2.4 1.6 6 3.3 10.2 5.4 9.7 4.7 21.9 10.6 26.7 18 5 7.6 4.4 15.9 4.4 16.2l-.1 1.1zm-124.1-2.6h121.6c-.1-2.4-.6-8.2-4-13.4-4.4-6.7-16.2-12.5-25.6-17-4.3-2.1-8-3.9-10.5-5.5-9.8-6.3-11.4-38.8-11.5-58.6l-21.5.4c0 2.6.1 5.5.1 8.5.4 18.9.9 42.4-8.8 49.3-3.8 2.7-8.7 5.1-13.9 7.7-9.5 4.8-19.4 9.7-22.3 16.1-3.3 6.9-3.7 10.9-3.6 12.5z" fill="#000000" stroke-width="none" opacity="1"></path><path id="SvgjsPath23453" d="M76.8 188.7c4.8 2.3 10.4 3.9 15.7 2.9.4-.1.4-.7 0-.8-5.1-.9-10.2-1.4-15.2-3.2-.6-.2-1.1.8-.5 1.1z" fill="#000000" stroke-width="none" opacity="1"></path><path id="SvgjsPath23454" d="M108.3 191.1c2.4.3 4.9-.4 7.1-1.2 2.1-.8 4.3-1.7 5.8-3.4.5-.5-.1-1.2-.7-.9-2.1.9-3.9 2.3-6.1 3-2 .7-4.1 1-6.2 1.5-.6.1-.4.9.1 1z" fill="#000000" stroke-width="none" opacity="1"></path></g><g id="svga-group-clothes-single"><path id="SvgjsPath23808" d="M83.8 167.6s-3.1 3.3-4.9 5.2-2.5 3.6-2.5 3.6v2.2s-6.5 5.1-11.4 6.3c-4.9 1.3-20.3 10.3-20.3 10.3s-9.6 9.1-8.7 24.3h127.9s1.1-11.4-4.9-18.7-34.2-19.9-34.6-21c-.4-1.1-.5-3.6-3.4-6.5s-5.1-6.7-6-7.1c0 0 1.6 6 1.6 9.8s.5 6.5-1.6 7.6-9.8 4.5-10.7 5.8-1.1 4.5-2.2 7.2c0 0-2.9-6.5-5.4-7.4s-5.6-.4-7.4-2.2-5.3-9.1-5.3-12c0-2.9-.2-7.4-.2-7.4z" fill="#ffffff" stroke-width="none" opacity="1"></path><path id="SvgjsPath23809" d="M159.8 200.3c-4.2-5.1-18.4-12.4-27.7-17.3-2.9-1.5-5.8-3-6.6-3.6-.1-.5-.2-1-.2-1.4h-.2c-.4-1.4-1.2-3.3-3.3-5.4-1.4-1.4-2.7-3.1-3.8-4.5-1.3-1.7-1.9-2.5-2.6-2.8-.3-.1-.8-.1-1 .2-.3.2-.4.6-.3 1 0 .1 1.6 5.9 1.6 9.5v1.9c.1 2.8.1 4.2-1.1 4.8l-1.8.9c-2.1 1-3.8 1.9-5.2 2.6-.2 0-.3.1-.4.1v.1c-2 1.1-3.3 1.9-3.7 2.5-.6.8-.9 2.2-1.2 3.7-.1.5-.2.9-.3 1.4-1.2-2.1-3-5-4.9-5.7-1.1-.4-2.2-.5-3.2-.7-1.6-.2-3-.4-3.8-1.3-1.7-1.7-5-8.9-5-11.4 0-2.9-.2-7.4-.2-7.5 0-.4-.3-.8-.7-.9-.4-.1-.8 0-1.1.2 0 0-3.1 3.3-4.9 5.3-1.9 2.1-2.7 3.8-2.7 3.9-.1.1-.1.3-.1.4v1.7c-1.4 1.1-6.7 4.8-10.7 5.9-5 1.3-19.9 10.1-20.5 10.4-.1 0-.1.1-.2.1-.4.4-9.9 9.6-9 25.1 0 .5.5.9 1 .9h127.9c.5 0 .9-.4 1-.9 0-.3 1-11.7-5.1-19.2zm-8.1 17.2c.9.4 1.9.7 2.9 1.1h-2.9v-1.1zm9.4-10.9c-2.7-1.5-5.4-3-8-4.7.1-.6.2-1.1.4-1.7 2.1 1.2 4.1 2.4 6.3 3.5.4.9.9 1.9 1.3 2.9zm-8.1-4.3c2.6 1.9 5.3 3.6 8.3 4.9.3.9.6 1.8.8 2.6-3.2-1.5-6.4-2.9-9.5-4.7.1-1 .2-1.9.4-2.8zm6.2.6c-1.9-1.1-3.8-2-5.6-3.1.2-.6.4-1.2.6-1.9 1.1.8 2 1.5 2.8 2.2-.8-.5-1.6-.9-2.4-1.3-.2-.1-.3.2-.1.3 1.1.6 2.1 1.3 3.3 1.7.2.2.4.4.6.7.2.5.5.9.8 1.4zm-6.8-6.1c-1.1 2.9-1.6 6.1-1.9 8.9l-.3 2.4c-.4 2.9-.5 8.2-.4 10.5h-44c0-4.4-2.2-8.7-1.8-13 .5-4.7 4.3-7.5 5.1-12 1.8-.8 3.5-1.9 4.9-3.2.2.2.3.4.5.6 1.2 1.4 2.7 3.1 4.7 4.9 3.4 3.3 8.6 5.2 8.8 5.3.1 0 .2.1.4.1s.5-.1.6-.2c.3-.2.4-.6.3-1 0-.1-1.9-8.9-2.6-12.4-.4-1.9-.6-3.9-.8-5.7 1.1.6 2.8 1.5 5.4 2.8 5.9 3.1 14.9 7.8 21.1 12zm-53.1 7.1c-.2-1.1-.1-1.2.7-1.9.3-.2.6-.6 1-1 1.4-1.5 2-3.1 2.1-4.1.3-.7.5-1.5.7-2.3 1.6 0 3.2-.3 4.7-.9-1.2 3.7-4.4 6.4-5.1 10.3-.8 4.9 1.7 9.6 1.6 14.5h-4.8c0-2.5-.5-12.6-.9-14.6zm6.6-14.5c.6-.4 1.4-.8 2.3-1.3h.9c.1 1.4.2 2.9.5 4.2-.5.2-.9.4-1.4.6.1-1.4-.2-2.9-.3-4.3 0-.2-.4-.2-.4 0 .1.7.1 1.5.1 2.3-.2-.3-.5-.6-.9-.6-.2 0-.4.1-.5.1-.1-.2-.2-.6-.3-1zm7.5.5s0-.1 0 0c0-.1 0-.1 0 0zm-.5-.6c0 .3.1.6.1.9-.2.2-.5.4-.8.6-.1-.8-.3-1.5-.3-2.2.2.1.4.2.5.3.2 0 .3.2.5.4zm-3 2.9c0-1.4-.2-2.7-.4-4.1.3 0 .6 0 .9.1.1 1.1.2 2.4.6 3.4-.4.2-.7.4-1.1.6zm1.4-.8c0-1.1-.3-2.1-.5-3.2.3 0 .5.1.7.1 0 .9.1 1.8.4 2.6-.2.2-.4.4-.6.5zm-4.7 1.2c.5 0 .9-.3 1-.7 0 .4.1.8.2 1.2-.4.2-.9.3-1.3.4 0-.3 0-.6-.1-1 .1.1.2.1.2.1zm7-7.2c.7-.4 1.4-.6 1.8-.9 2.4-1.2 2.3-3.7 2.2-6.6V176c0-1.8-.3-4.1-.7-6 .9 1.3 2.1 2.7 3.4 4 2.2 2.2 2.7 4.1 3 5.4.1.3.1.6.2.8 0 .1 0 .1.1.1.1.5.1 1.1.2 1.7.2 1.8.5 3.9.9 5.9.5 2.5 1.6 7.7 2.2 10.6-1.7-.8-4.4-2.3-6.3-4.1-1.9-1.8-3.4-3.5-4.5-4.8-.9-1-1.6-1.8-2.1-2.3-.5-.4-1.3-.8-2.1-.9.5-.4 1.2-.7 1.7-1zm-7.9 4.2c0 .4.1.8.1 1.2-.2.2-.2.4-.2.7 0 .4.2.6.4.8.1.4.1.9.2 1.3l-1.2.3c0-.5-.1-.9-.2-1.4s-.1-.9-.3-1.4c.1-.5.3-.9.5-1.1.2-.1.4-.2.7-.4zm-1.4 2.6c0 .1 0 .2.1.3.1.5.2 1 .3 1.4-.3.1-.6.1-.8.2.1-.4.2-.8.3-1.1 0-.2.1-.5.1-.8zm-4.9 1.7c0-.1 0-.2-.1-.3.1.1.1.2.2.3h-.1zm-1-1.6c.2.6.3 1.1.6 1.7h-1.1c-.1-1-.4-2.1-.7-3.1.4.3.8.8 1.2 1.4zm-1.7-1.9c.2 1.1.4 2.3.7 3.4-.3 0-.6 0-.9-.1-.2-1.2-.5-2.5-.7-3.7.2.1.4.1.6.2 0 .1.2.2.3.2zm-1.6 3.2c-.1-.5-.3-1-.4-1.5-.2-.8-.2-1.5-.3-2.3.3 0 .6.1.8.1.1 1.2.3 2.6.7 3.8-.2 0-.5 0-.8-.1zm-1.1-3.8c0 1.2.1 2.6.6 3.8-.5-.1-.9-.2-1.4-.3-.2-1.2-.4-2.4-.4-3.6.3 0 .5.1.8.1.1-.1.3-.1.4 0zm-5.4.7c0 .4.1.9.2 1.3-.3-.1-.7-.3-1-.4.3-.3.5-.6.8-.9zm.3-.4c.2-.3.4-.5.6-.7.1 1 .2 2 .6 2.9l-.9-.3c0-.6-.1-1.3-.3-1.9zm1.5 2.3c0-1.1-.3-2.3-.5-3.4l.1-.1c.3.1.5.2.8.3.1 1.2.2 2.4.5 3.6-.3-.2-.6-.3-.9-.4zm1.1.4c0-1.2-.1-2.3-.3-3.5.4.1.7.2 1.1.2-.1 1.2 0 2.5.5 3.6-.4-.1-.8-.2-1.3-.3zm-11.8-19.3c.9-1 2.2-2.4 3.2-3.5.1 1.5.1 3.5.1 5 0 3.1 3.3 10.5 5.4 12.7-1 1.1-3.3 3.9-5.1 5.6-1.5 1.4-5.2 4.2-7.6 6 .6-3.3 1.6-9.1 1.9-11.8.3-2.5.2-6.1.2-8.6v-2.6h-.2c.4-.7 1.1-1.7 2.1-2.8zm-14.5 12.4c3.8-1 8.5-4.2 10.7-5.7 0 2.3 0 5.1-.2 7-.4 3.8-2.3 14.1-2.3 14.2-.1.4.1.8.4 1 .2.1.3.1.5.1s.4-.1.6-.2c.3-.2 7.4-5.4 9.8-7.7.9-.8 1.9-1.9 2.8-2.9 2.3 1.3 4.9 2.1 7.5 2.5.1.1.2.1.2 0 .3.1.7.1 1 .1.1.1.1.3.2.4.1.1.3 0 .2-.1 0-.1 0-.2-.1-.3.3 0 .7 0 1 .1 0 .1 0 .1.1.2s.3.1.3 0v-.1h1.9c.4.8.8 1.6 1.2 2.3-.1.5-.5 1.7-1.6 2.8-.3.3-.6.6-.9.8-1 .9-1.7 1.7-1.3 3.8.3 1.6.7 9.7.9 14.3H53.6c-.1-2.1-.5-7.9-1.5-13.4-1.1-6.3-2.3-9.6-3-11.3 4.9-2.7 12.9-7 16.1-7.9zM47 218.5c-3.4-1.2-6.7-2.6-9.8-4.3.2-1.8.5-3.5 1-5 3.9 2.5 8.1 4.7 12.5 6.2.2.1.3-.3.2-.4-4.2-1.9-8.4-3.9-12.5-6.2.7-2.4 1.6-4.5 2.6-6.3 2.9 2.1 6.2 4.2 9.8 5.1.2 1.1.3 2.2.5 3.3 0 0 0-.1-.1-.1-3.9-1.5-7.7-2.9-11.4-5-.1-.1-.2.1-.1.2 3.4 2.3 7.3 4.3 11.4 5.1.1 0 .2 0 .2-.1.4 3.4.6 6.2.7 7.7h-5v-.2zm-4.6-18.7c2.3 1.8 4.9 3.4 7.6 4.5.1.4.2.9.2 1.3.1.5.2.9.2 1.4-3.3-1.5-6.4-2.9-9.4-4.9.5-.9.9-1.7 1.4-2.3zm1.4-2c1.8 1.1 3.6 2.2 5.4 3.1.2.8.4 1.8.6 2.8-2.5-1.3-4.9-2.6-7.2-4.2.5-.7.9-1.3 1.2-1.7zm4.4-.7c-.7-.5-1.5-.9-2.2-1.4.4-.2.9-.5 1.5-.8.2.5.4 1.2.7 2.2zm-2.9-1c.1 0 .2-.1.3-.1 1 .6 1.9 1.3 2.9 1.9.2.7.4 1.5.6 2.4-1.6-1-3.3-1.9-5-2.8.6-.8 1-1.2 1.2-1.4zm-8.4 20.6c1.3.6 2.7 1.1 4.1 1.6.1 0 .2-.1.1-.2-1.3-.7-2.8-1.3-4.2-1.9 0-.6.1-1.1.1-1.7 2.9 1.8 6 3.2 9.4 4.1h-9.5v-1.9zm126 1.9h-7.1c-1.3-.6-2.7-1.1-4.1-1.5 0-1 0-2.1.1-3.4 2.5 1.4 5.1 2.8 7.9 3.7.2.1.3-.2.1-.3-2.7-1.3-5.4-2.5-8-3.8 0-1 .1-2 .1-2.9 2.9 2.1 6.2 3.9 9.6 4.9.2.1.3-.2.1-.3-3.4-1.4-6.6-2.9-9.6-5h-.1c.1-.6.1-1.1.2-1.6 0-.2.1-.5.1-.8 3.2 1.8 6.5 3.7 9.8 5.2.2.1.4-.2.2-.3-3.2-2-6.6-3.7-9.9-5.4.1-.4.1-.8.2-1.2 0-.2 0-.3.1-.5 2.9 1.9 6.1 3.6 9.4 4.5.1 0 .1 0 .1-.1.9 3.8.9 7.2.8 8.8zm-61.8-15.8c.6 0 1.1.5 1.1 1.1s-.5 1.1-1.1 1.1-1.1-.5-1.1-1.1.5-1.1 1.1-1.1zm.9 12.4c.6 0 1.1.5 1.1 1.1s-.5 1.1-1.1 1.1-1.1-.5-1.1-1.1.5-1.1 1.1-1.1zm-64.4-3.3c-.2-.1-.3.2-.2.3 3.9 2.3 8.1 4.4 12.4 5.8.2.1.3-.2.1-.3-4.1-1.9-8.2-3.7-12.3-5.8z" fill="#0e0f0f" stroke-width="none" opacity="1"></path></g><g id="svga-group-head" transform="matrix(1,0,0,1,0,0)"><g id="svga-group-ears-left-move" transform="matrix(1,0,0,1,0,0)"><g id="svga-group-ears-left" transform="matrix(1,0,0,1,0,0)"><path id="SvgjsPath23676" d="M63.9 77.8s-2.5-2.4-5.4-3.5c-2.9-1.1-6.1.7-7.1 3.7-1 2.9 1.3 15.1 5 19.5s6.2 4.8 8.7 2.5c2.6-2.4 7-10.8-1.2-22.2z" fill="#ffffff" stroke-width="none" opacity="1"></path><path id="SvgjsPath23677" d="M61.8 102.3c-1.9-.1-3.8-1.5-6.1-4.2-3.9-4.7-6.3-17.1-5.2-20.5.6-1.8 1.9-3.3 3.6-4.1 1.5-.7 3.2-.8 4.8-.2 3.1 1.2 5.6 3.6 5.7 3.7l.1.1c8.7 12.2 3.5 21.2 1.1 23.5-1.2 1.1-2.4 1.6-3.7 1.6-.1.1-.2.1-.3.1zm-3.6-27.1c-1.3-.5-2.5-.2-3.2.1-1.2.6-2.1 1.6-2.6 2.9-.8 2.5 1.3 14.3 4.9 18.5 1.9 2.3 3.4 3.4 4.7 3.5.8.1 1.6-.3 2.5-1.1 2.1-1.9 6.5-9.8-1.3-20.7-.4-.3-2.6-2.2-5-3.2z" fill="#000000" stroke-width="none" opacity="1"></path><path id="SvgjsPath23678" d="M55.2 77.4c3.3.6 5.4 6.1 6 9.8.1.1.1.2.2.3.4.6-.4 1.2-.8.6-.5-.8-1-1.6-1.8-1.9-1.4-.5-2.1 1.1-1.8 2.6.4 1.9 1.6 3 2.6 4.4.1.1 0 .3-.1.2-1.7-1-4.3-4.8-3.1-7.2.9-1.7 2.3-1.4 3.4-.4-.8-2.1-1.4-4.3-3-5.9-.5-.5-1.5-1.4-2.2-1.3-1.3.2-1.3 2.1-1.3 3.4-.1 1.7.1 3.4.4 5 0 .2-.2.2-.3.1-.6-2.4-2-10.4 1.8-9.7z" fill="#000000" stroke-width="none" opacity="1"></path></g></g><g id="svga-group-ears-right-move" transform="matrix(1,0,0,1,0,0)"><g id="svga-group-ears-right" transform="matrix(1,0,0,1,0,0)"><path id="SvgjsPath23679" d="M136.1 77.8s2.5-2.4 5.4-3.5c2.9-1.1 6.1.7 7.1 3.7 1 2.9-1.3 15.1-5 19.5s-6.2 4.8-8.7 2.5c-2.6-2.4-7-10.8 1.2-22.2z" fill="#ffffff" stroke-width="none" opacity="1"></path><path id="SvgjsPath23680" d="M137.9 102.3c-1.3 0-2.5-.5-3.7-1.6-2.5-2.2-7.6-11.3 1.1-23.5l.1-.1c.1-.1 2.7-2.5 5.7-3.7 1.5-.6 3.2-.5 4.8.2 1.7.8 3 2.3 3.6 4.1 1.1 3.3-1.3 15.8-5.2 20.5-2.3 2.7-4.2 4.1-6.1 4.2-.1-.1-.2-.1-.3-.1zm-1.1-23.9c-7.8 10.9-3.4 18.8-1.3 20.7.9.8 1.7 1.2 2.5 1.1 1.3-.1 2.8-1.2 4.7-3.5 3.5-4.2 5.7-16.1 4.9-18.5-.4-1.3-1.4-2.4-2.6-2.9-.7-.3-1.9-.6-3.2-.1-2.4 1-4.6 2.9-5 3.2z" fill="#000000" stroke-width="none" opacity="1"></path><path id="SvgjsPath23681" d="M144.8 77.4c-3.3.6-5.4 6.1-6 9.8-.1.1-.1.2-.2.3-.4.6.4 1.2.8.6.5-.8 1-1.6 1.8-1.9 1.4-.5 2.1 1.1 1.8 2.6-.4 1.9-1.6 3-2.6 4.4-.1.1 0 .3.1.2 1.7-1 4.3-4.8 3.1-7.2-.9-1.7-2.3-1.4-3.4-.4.8-2.1 1.4-4.3 3-5.9.5-.5 1.5-1.4 2.2-1.3 1.3.2 1.3 2.1 1.3 3.4.1 1.7-.1 3.4-.4 5 0 .2.2.2.3.1.6-2.4 2-10.4-1.8-9.7z" fill="#000000" stroke-width="none" opacity="1"></path></g></g><g id="svga-group-faceshape-wrap" transform="matrix(1,0,0,1,0,0)"><g id="svga-group-faceshape-single"><path id="SvgjsPath23663" d="M139.4 74.3s.2-8.5-1.2-16.1c-2-10.8-13.3-27.4-37.2-27.4S69.1 43.5 65.5 53c-3 8.1-3 21.3-3 21.3s-1.4 30 .8 33.7c2.3 3.7 11.2 9.7 16.6 20.9 3.2 6.7 4.9 15.4 18.9 14.6s16-1.7 17.2-3.7c1.1-2 6-13.7 9.1-18.3 3.1-4.6 11.2-11.2 13.2-14 2-2.8 1.1-33.2 1.1-33.2z" fill="#ffffff" stroke-width="none" opacity="1"></path><path id="SvgjsPath23664" d="M96.9 144.9c-11.4 0-14.3-6.7-16.9-12.7l-1.2-2.7c-3.5-7.2-8.6-12.3-12.2-15.9-1.9-1.9-3.5-3.5-4.3-4.8-2.4-3.9-1.3-29.3-1-34.5 0-.9 0-13.7 3.1-21.8 5.8-15.5 17.8-23 36.7-23 10.9 0 20.5 3.4 27.7 10 5.5 5 9.6 11.9 10.8 18.5 1.4 7.5 1.2 15.7 1.2 16.4 0 .6.2 7.9.2 15.5-.1 16.3-1.1 17.8-1.6 18.4-.9 1.4-3 3.3-5.3 5.6-2.9 2.8-6.1 5.9-7.8 8.4-2.1 3-5 9.5-7 13.8-1 2.2-1.7 3.7-2.1 4.4-1.5 2.6-3.9 3.5-18.2 4.4h-2.1zM101 32.1c-17.7 0-28.9 7-34.3 21.3-2.9 7.8-2.9 20.8-2.9 20.9v.1c-.7 14.4-.7 30.8.7 33 .7 1.1 2.2 2.6 3.9 4.3 3.8 3.8 9 9 12.7 16.6.4.9.9 1.9 1.3 2.8 2.6 6 5.1 11.7 16.4 11.1 13.9-.8 15.3-1.7 16.1-3.1.3-.6 1.1-2.3 2-4.2 2.1-4.6 5-11 7.2-14.2 1.8-2.7 5.2-5.9 8.2-8.8 2.2-2.1 4.2-4.1 5-5.2 1.1-1.8 1.3-17.9.9-32.4 0-.1.2-8.4-1.2-15.9-1.1-6-4.8-12.4-10-17-6.7-6.1-15.7-9.3-26-9.3z" fill="#000000" stroke-width="none" opacity="1"></path></g></g><g id="svga-group-mouth-single-move" transform="matrix(1,0,0,1,0,0)"><g id="svga-group-mouth-single" transform="matrix(1,0,0,1,0,0)"><path id="SvgjsPath23750" d="M112.55 119.81c-.05-.18-.25-.3-.39-.13-.02.03-.05.06-.08.09-4.23.26-7.29-3.68-11.5-4.01-1.63-.13-3.3.13-4.81.77-2.34.99-4.19 3.45-7 2.91a.228.228 0 0 0-.2.05c-.13.05-.24.18-.14.34.64 1.04 1.65 1.74 2.83 2.22 0 .03-.02.06 0 .09 3.39 8.34 16.23 8.14 19.32-.32.01-.03-.01-.05 0-.07.63-.4 1.21-.9 1.73-1.5h.08c.24-.02.29-.31.16-.44zm-20.68 2.46c.82.27 1.71.45 2.6.58-.28.37-.51.78-.63 1.24-.08.31.4.44.48.13.13-.49.36-.93.71-1.3 1.08.12 2.15.18 3.13.22v.45c0 .32.5.32.5 0v-.43c.39.02.77.03 1.11.05.38.02.76.04 1.15.07v.03c.24.49.36 1.01.37 1.56.01.32.5.32.5 0-.01-.55-.14-1.07-.35-1.57.56.03 1.13.05 1.71.05.16.3.27.61.31.95.03.32.53.32.5 0-.03-.34-.13-.65-.27-.96 2.17-.02 4.36-.28 6.21-1.22-3.18 7.45-14.73 7.61-18.03.15zm15.36.24c.33-.39.54-.87.58-1.41.03-.32-.47-.32-.5 0-.04.55-.32 1.06-.77 1.39-.06.04-.09.1-.1.16-1.42.21-2.9.22-4.34.17.09-.36.18-.72.28-1.08.08-.31-.4-.44-.48-.13l-.3 1.2c-.37-.01-.73-.03-1.09-.05-.27-.01-.54-.04-.81-.06-.04-.49.01-.97.15-1.45.09-.31-.39-.44-.48-.13-.15.5-.2 1.02-.17 1.54-.7-.05-1.41-.09-2.11-.16-.56-.8-.79-1.7-.68-2.67.04-.32-.46-.31-.5 0-.11.92.1 1.81.56 2.59-.85-.1-1.69-.2-2.54-.33-1.76-.28-3.62-.67-4.76-2.1 1.49.12 2.72-.47 4.01-1.32 2.1-1.4 4.14-2.51 6.76-2.44 4.34.11 7.45 4.05 11.68 4.06-1.22 1.23-2.75 1.88-4.39 2.22z" fill="#000000" stroke-width="none" opacity="1"></path></g></g><g id="svga-group-eyes-left-move" transform="matrix(1,0,0,1,0,0)"><g id="svga-group-eyes-left" transform="matrix(1,0,0,1,0,0)"><g id="svga-group-eyesback-left"></g><g id="svga-group-eyesiriswrapper-left"><g id="svga-group-eyesiriscontrol-left" transform="matrix(1,0,0,1,0,0)"><g id="svga-group-eyesiris-left" transform="matrix(1,0,0,1,0,0)"><path id="SvgjsPath23708" d="M77.1 84.1c-1.4 1.8-1.2 4.1.4 5.5 1.7 1.5 4.5 1.9 6.5.1 1-1 1.7-2.1 1.4-3.4-.1-.4-.6-2.8-1.9-3.5-2.3-1.3-4.7-.8-6.4 1.3z" fill="#ffffff" stroke-width="none" opacity="1"></path><path id="SvgjsPath23709" d="M80.9 91.2c-1.3 0-2.7-.5-3.6-1.4-1.7-1.5-1.8-4.1-.4-5.9 1.7-2.2 4.3-2.7 6.7-1.4 1.2.7 1.8 2.6 2.1 3.7.3 1.2-.2 2.4-1.5 3.7-1 .9-2.2 1.3-3.3 1.3zm-3.6-6.9c-1.3 1.6-1.1 3.8.3 5.1 1.6 1.4 4.2 1.8 6.1.1 1.1-1.1 1.6-2.1 1.3-3.1-.4-1.7-1-2.9-1.8-3.3-2.1-1.3-4.3-.8-5.9 1.2zm3.6 5.7c-1 0-2-.4-2.7-1.1-1.3-1.2-1.4-3.1-.3-4.5 1.3-1.7 3.2-2.1 5-1 .9.5 1.4 2 1.6 2.8.2.9-.2 1.9-1.1 2.8-.7.7-1.6 1-2.5 1zm-2.6-5.1c-.9 1.2-.8 2.7.2 3.7 1.1 1 3.1 1.3 4.4.1.8-.8 1.1-1.5 1-2.2-.3-1.2-.8-2.1-1.3-2.4-1.5-1-3.1-.7-4.3.8zm4.5 1.2c0-.2-.1-.4-.2-.6-.4-.7-1.2-1-1.9-.9.1.2.2.4.2.6 0 .1 0 .3-.1.4 0 .1-.1.2-.2.3-.2.2-.4.3-.7.3-.3 0-.5-.1-.7-.3-.1-.1-.1-.1-.1-.2-.1.2-.2.4-.2.7 0 .2.1.5.2.7 0 .1.1.3.2.4.5.8 1.5 1 2.3.6h.1c-.2-.3 0-.8.4-.8.2 0 .3.1.4.2.1-.1.1-.1.1-.2.4-.3.4-.8.2-1.2zm.8.8c0-.6-.2-1.8-.8-2.3-1.2-1-2.7-1-3.9.1-1 .9-1.2 2.3-.4 3.4.5.7 1.5 1.2 2.4 1.2.5 0 1-.1 1.4-.4.9-.7 1.4-1.3 1.3-2zm-1 1.2c-.1.2-.2.3-.4.3-1.2.8-2.6.2-3.3-.7-.6-.7-.5-1.7 0-2.4v-.1c0-.1 0-.3.1-.4 0-.1.1-.2.2-.3.2-.2.4-.3.7-.3.2 0 .3 0 .4.1.8-.2 1.6 0 2.2.5.4.3.6 1 .6 2 .1.5-.1.9-.5 1.3z" fill="#000000" stroke-width="none" opacity="1"></path></g></g></g><g id="svga-group-eyesfront-left"><path id="SvgjsPath23827" d="M81.02 74.43c-6.9 0-12.5 5.6-12.5 12.5s5.6 12.5 12.5 12.5 12.5-5.6 12.5-12.5-5.6-12.5-12.5-12.5zm4.54 16.93c-3.76 1.16-8.34-.16-10.67-1.75s-3.88-4.07-3.88-4.07c7.61-1.82 11.41-.23 14.24.93 2.83 1.16 4.19 3.45 4.19 3.45s-.12.28-3.88 1.44z" fill="#ffffff" stroke-width="none" opacity="1"></path><path id="SvgjsPath23828" d="M89.88 84.61c-.14-.24-.5-.08-.44.18.26 1.17.6 2.33.69 3.53.01.12 0 .23.01.34-1.72-4.58-4.19-7.31-7.36-8.12-5.72-1.48-11.67 3.75-12.75 4.76-2.31.78-4.43.91-5.94.34a.47.47 0 0 0-.61.28c-.09.24.03.52.28.61.79.3 1.64.42 2.49.42 1.39 0 2.77-.32 3.89-.68.06.01.13.01.2-.01 1.1-.32 2.14-.56 3.14-.74-.34.21-.74.42-1.2.63a.47.47 0 0 0-.6-.06c-.13.09-.2.24-.2.39-1.01.37-2.23.64-3.63.64a.47.47 0 1 0 0 .94c1.61 0 2.99-.33 4.12-.75 2.94 3.9 6.63 5.02 9.89 5.02 3.82 0 7.03-1.52 7.72-1.88.22.29.35.49.38.53.03.05.07.08.11.11 0 .15-.01.3-.01.45.01.25.4.41.52.14.9-2.08.47-5.16-.7-7.07zm-17.02 2.32c1.58-.75 2.49-1.62 2.55-1.68 0 0 0-.01.01-.01 7.54-.73 11.74 2.56 13.51 4.47-1.75.88-10.32 4.62-16.07-2.78zm-.78-2.1c1.89-1.45 5.24-3.59 8.63-3.59.61 0 1.23.07 1.84.23 2.76.71 4.96 3.11 6.55 7.13-2.48-2.36-7.87-5.8-17.02-3.77z" fill="#000000" stroke-width="none" opacity="1"></path></g></g></g><g id="svga-group-eyes-right-move" transform="matrix(1,0,0,1,0,0)"><g id="svga-group-eyes-right" transform="matrix(1,0,0,1,0,0)"><g id="svga-group-eyesback-right"></g><g id="svga-group-eyesiriswrapper-right"><g id="svga-group-eyesiriscontrol-right" transform="matrix(1,0,0,1,0,0)"><g id="svga-group-eyesiris-right" transform="matrix(1,0,0,1,0,0)"><path id="SvgjsPath23710" d="M115.5 84.1c-1.4 1.8-1.2 4.1.4 5.5 1.7 1.5 4.5 1.9 6.5.1 1-1 1.7-2.1 1.4-3.4-.1-.4-.6-2.8-1.9-3.5-2.3-1.3-4.7-.8-6.4 1.3z" fill="#ffffff" stroke-width="none" opacity="1"></path><path id="SvgjsPath23711" d="M119.3 91.2c-1.3 0-2.7-.5-3.6-1.4-1.7-1.5-1.8-4.1-.4-5.9 1.7-2.2 4.3-2.7 6.7-1.4 1.2.7 1.8 2.6 2.1 3.7.3 1.2-.2 2.4-1.5 3.7-1 .9-2.2 1.3-3.3 1.3zm-3.5-6.9c-1.3 1.6-1.1 3.8.3 5.1 1.6 1.4 4.2 1.8 6.1.1 1.1-1.1 1.6-2.1 1.3-3.1-.4-1.7-1-2.9-1.8-3.3-2.2-1.3-4.4-.8-5.9 1.2zm3.5 5.7c-1 0-2-.4-2.7-1.1-1.3-1.2-1.4-3.1-.3-4.5 1.3-1.7 3.2-2.1 5-1 .9.5 1.4 2 1.6 2.8.2.9-.2 1.9-1.1 2.8-.7.7-1.6 1-2.5 1zm-2.6-5.1c-.9 1.2-.8 2.7.2 3.7 1.1 1 3.1 1.3 4.4.1.8-.8 1.1-1.5 1-2.2-.3-1.2-.8-2.1-1.3-2.4-1.5-1-3.1-.7-4.3.8zm4.5 1.2c0-.2-.1-.4-.2-.6-.4-.7-1.2-1-1.9-.9.1.2.2.4.2.6 0 .1 0 .3-.1.4 0 .1-.1.2-.2.3-.2.2-.4.3-.7.3-.3 0-.5-.1-.7-.3-.1-.1-.1-.1-.1-.2-.1.2-.2.4-.2.7 0 .2.1.5.2.7 0 .1.1.3.2.4.5.8 1.5 1 2.3.6h.1c-.2-.3 0-.8.4-.8.2 0 .3.1.4.2.1-.1.1-.1.1-.2.4-.3.4-.8.2-1.2zm.8.8c0-.6-.2-1.8-.8-2.3-1.2-1-2.7-1-3.9.1-1 .9-1.2 2.3-.4 3.4.5.7 1.5 1.2 2.4 1.2.5 0 1-.1 1.4-.4 1-.7 1.4-1.3 1.3-2zm-1 1.2c-.1.2-.2.3-.4.3-1.2.8-2.6.2-3.3-.7-.6-.7-.5-1.7 0-2.4v-.1c0-.1 0-.3.1-.4 0-.1.1-.2.2-.3.2-.2.4-.3.7-.3.2 0 .3 0 .4.1.8-.2 1.6 0 2.2.5.4.3.6 1 .6 2 .1.5-.1.9-.5 1.3z" fill="#000000" stroke-width="none" opacity="1"></path></g></g></g><g id="svga-group-eyesfront-right"><path id="SvgjsPath23829" d="M118.98 74.43c-6.9 0-12.5 5.6-12.5 12.5s5.6 12.5 12.5 12.5 12.5-5.6 12.5-12.5-5.59-12.5-12.5-12.5zm6.4 15.19c-2.33 1.59-6.91 2.91-10.67 1.75-3.76-1.16-3.88-1.44-3.88-1.44s1.36-2.29 4.19-3.45c2.83-1.16 6.64-2.75 14.24-.93 0-.01-1.55 2.48-3.88 4.07z" fill="#ffffff" stroke-width="none" opacity="1"></path><path id="SvgjsPath23832" d="M136.79 85.93a.474.474 0 0 0-.61-.28c-1.51.57-3.63.43-5.94-.34-1.08-1.01-7.03-6.24-12.75-4.76-3.6.93-6.29 4.31-8.02 10.06a.471.471 0 0 0 .45.61c.16 0 .32-.08.4-.23.03-.05.16-.25.38-.53.69.35 3.9 1.88 7.72 1.88 3.26 0 6.95-1.12 9.89-5.02 1.13.43 2.51.75 4.12.75a.47.47 0 1 0 0-.94c-1.4 0-2.62-.28-3.63-.64 0-.15-.06-.3-.2-.39a.47.47 0 0 0-.6.06c-.46-.21-.86-.43-1.2-.63 1 .18 2.04.41 3.14.74.07.02.13.02.2.01 1.12.36 2.5.68 3.89.68.84 0 1.69-.12 2.49-.42.24-.1.36-.37.27-.61zm-11.93-.67c.07.06.97.93 2.55 1.68-5.75 7.39-14.32 3.66-16.07 2.78 1.77-1.92 5.97-5.21 13.52-4.46-.01-.01-.01-.01 0 0zm-13.69 3.33c1.59-4.02 3.79-6.42 6.55-7.13.61-.16 1.22-.23 1.84-.23 3.39 0 6.75 2.14 8.63 3.59-9.15-2.02-14.55 1.42-17.02 3.77z" fill="#000000" stroke-width="none" opacity="1"></path></g></g></g><g id="svga-group-facehighlight-single"></g><g id="svga-group-eyebrows-left-move" transform="matrix(1,0,0,1,0,0)"><g id="svga-group-eyebrows-left-rotate" transform="matrix(1,0,0,1,0,0)"><g id="svga-group-eyebrows-left" transform="matrix(1,0,0,1,0,0)"><path id="SvgjsPath23786" d="M91.6 74.24c0 1.8-.36 3.43-1.86 3.5s-19.06-.07-20.48-.36-1.07-4.57-.71-4.92 18.41-.93 20.98-.57c2.57.35 2.07 1.2 2.07 2.35z" fill="#ffffff" stroke-width="none" opacity="1"></path><path id="SvgjsPath23787" d="M68.06 76.5c.28.92.76 1.2 1.12 1.27 1.21.24 13.33.38 18.44.38 1.09 0 1.86-.01 2.14-.02 1.49-.07 2.24-1.38 2.24-3.9 0-.16.01-.31.02-.45.02-.37.02-.7-.07-1v-.01c-.19-.62-.76-1.07-2.37-1.29-1.4-.19-7.01-.11-11.39.01-9.54.28-9.82.55-9.94.67-.42.44-.61 2.97-.19 4.34zm.76-3.71c.17-.03.51-.07.95-.1l1.5 4.42c-.37-.01-.69-.03-.97-.04-.32-.84-1.32-3.39-1.55-3.97.02-.14.05-.24.07-.31zm7.45 4.44c-.37-.01-.73-.01-1.08-.02l-1.07-4.76 1.44-.06.71 4.84zm-.16-4.85.91-.03c.22 1.79.51 4.15.59 4.91-.27 0-.53-.01-.79-.01l-.71-4.87zm-1.47 4.82-1.22-.03-1.43-4.62c.5-.03 1.03-.05 1.59-.07l1.06 4.72zm-1.8-.04-.99-.03-1.52-4.48c.33-.02.7-.04 1.1-.07l1.41 4.58zm6.89-4.89.28 5.02-1.85-.03c-.09-.84-.44-3.69-.59-4.94.71-.01 1.43-.03 2.16-.05zm6.41-.1c.62 0 1.18.01 1.67.02l-.72 5.15H85.8l.34-5.17zm-.88 5.17c-.5 0-1.02-.01-1.56-.01l.07-5.14c.64-.01 1.25-.01 1.83-.01l-.34 5.16zm-2.1-.02c-.35 0-.71-.01-1.08-.01l-.1-5.1c.42-.01.84-.02 1.25-.02l-.07 5.13zm-1.61-.01c-.33 0-.66-.01-1-.01l-.28-5.04 1.17-.03.11 5.08zm9.67-4.03-1.8 4.06c-.15 0-.34.01-.56.01l1.38-4.92c.77.19.96.45.98.85zm-1.18 3.99 1.13-2.55c-.08 1.86-.61 2.41-1.13 2.55zm-2.4.08.72-5.14c.49.02.88.04 1.12.08.09.01.16.03.24.04l-1.42 5.02h-.66zm-19-3.07c.4 1.03.83 2.13 1.07 2.74-.16-.01-.29-.03-.37-.04-.15-.03-.29-.17-.4-.43-.26-.58-.33-1.48-.3-2.27z" fill="#000000" stroke-width="none" opacity="1"></path></g></g></g><g id="svga-group-eyebrows-right-move" transform="matrix(1,0,0,1,0,0)"><g id="svga-group-eyebrows-right-rotate" transform="matrix(1,0,0,1,0,0)"><g id="svga-group-eyebrows-right" transform="matrix(1,0,0,1,0,0)"><path id="SvgjsPath23788" d="M108.4 74.24c0 1.8.36 3.43 1.86 3.5s19.06-.07 20.48-.36 1.07-4.57.71-4.92-18.41-.93-20.98-.57c-2.57.35-2.07 1.2-2.07 2.35z" fill="#ffffff" stroke-width="none" opacity="1"></path><path id="SvgjsPath23789" d="M131.74 72.17c-.12-.12-.39-.39-9.94-.67-4.38-.13-9.99-.21-11.39-.01-1.6.22-2.18.68-2.37 1.29v.01c-.09.3-.1.63-.07 1 .01.15.02.3.02.45 0 2.52.75 3.83 2.24 3.9.28.01 1.05.02 2.14.02 5.11 0 17.23-.14 18.44-.38.36-.07.84-.35 1.12-1.27.43-1.38.24-3.91-.19-4.34zm-.49.92c-.23.58-1.23 3.14-1.55 3.98-.28.02-.6.03-.97.04l1.5-4.42c.45.04.78.07.95.1.02.07.05.17.07.3zm-6.82-.69 1.44.06-1.07 4.76c-.35.01-.71.01-1.08.02l.71-4.84zm-1.25 4.84c-.26 0-.53.01-.79.01.08-.76.37-3.12.59-4.91l.91.03-.71 4.87zm3.24-4.76c.57.02 1.1.05 1.59.07l-1.43 4.62-1.22.03 1.06-4.72zm2.15.1c.4.02.77.04 1.1.07l-1.52 4.48-.99.03 1.41-4.58zm-6.13-.25c-.15 1.24-.51 4.1-.59 4.94l-1.85.03.28-5.02c.72.01 1.44.03 2.16.05zm-8.25 5.01h-1.29l-.72-5.15c.49-.01 1.05-.02 1.67-.02l.34 5.17zm.21-5.16c.58 0 1.18.01 1.83.01l.07 5.14c-.54 0-1.06.01-1.56.01l-.34-5.16zm2.37.02c.41.01.82.01 1.25.02l-.1 5.1c-.36 0-.72.01-1.08.01l-.07-5.13zm1.79.03 1.17.03-.28 5.04c-.33 0-.67.01-1 .01l.11-5.08zm-8.8.2 1.38 4.92c-.23 0-.41 0-.56-.01l-1.8-4.06c.02-.4.21-.66.98-.85zm-.93 2.3 1.13 2.55c-.52-.15-1.05-.7-1.13-2.55zm2.87 2.62-1.42-5.02c.08-.01.15-.03.24-.04.24-.03.63-.06 1.12-.08l.72 5.14h-.66zm19.36-.8c-.12.25-.25.4-.4.43-.07.01-.2.03-.37.04.24-.61.67-1.71 1.07-2.74.03.79-.04 1.69-.3 2.27z" fill="#000000" stroke-width="none" opacity="1"></path></g></g></g><g id="svga-group-nose-single-move" transform="matrix(1,0,0,1,0,0)"><g id="svga-group-nose-single" transform="matrix(1,0,0,1,0,0)"><path id="SvgjsPath23767" d="M106.2 104.7c-.4-.6-1.2 0-.9.5.7 1.2 1.5 2.6 1.5 4.1.1 2.1-2.3 2.6-3.6 1.2-.2-.2-.7-.2-.8.1-1.2 2.2-3.7 2.4-5.1.2-.2-.3-.6-.3-.8-.1-1.2 1.2-3.4.8-3.6-1.1-.2-1.3.5-2.8 1.1-4 .3-.6-.6-1.1-.9-.5-.8 1.7-2 4.4-.7 6.1 1.1 1.4 3 1.5 4.4.6 1.7 2.1 4.6 2.1 6.2-.1 1.4 1 3.5 1 4.5-.6 1.2-2-.3-4.8-1.3-6.4z" fill="#000000" stroke-width="none" opacity="1"></path><path id="SvgjsPath23768" d="M96.7 105.9c-.9-2.1-1.2-4.5-.8-6.8.4-2.1 1.4-4 1.4-6.2 0-1.1-.2-2.2-.2-3.3 0-1.1.4-2.1.5-3.2.1-1.9-.7-3.7-1.5-5.4-.3-.6-1.2-.1-.9.5.5 1 1 2 1.2 3.1.3 1.3 0 2.5-.2 3.8-.3 2.1.3 4.2-.2 6.3-.5 1.9-1.2 3.6-1.3 5.6-.1 2 .2 3.9 1 5.7.3.8 1.3.6 1-.1z" fill="#000000" stroke-width="none" opacity="1"></path><path id="SvgjsPath23769" d="M102.6 89.6c0 1.1-.2 2.2-.2 3.3 0 2.1 1 3.9 1.4 6 .5 2.4.2 4.8-.7 7-.2.6.8.9 1 .3.7-1.8 1.1-3.8 1-5.7-.1-2-.9-3.7-1.3-5.6-.5-2.1.2-4.2-.2-6.3-.2-1.2-.5-2.3-.3-3.5s.8-2.3 1.3-3.4c.3-.6-.6-1.1-.9-.5-.8 1.6-1.6 3.3-1.5 5.1 0 1 .4 2.1.4 3.3z" fill="#000000" stroke-width="none" opacity="1"></path></g></g><g id="svga-group-hair-front" transform="matrix(1,0,0,1,0,0)"><path id="SvgjsPath23870" d="M176.3 114.9c-1.2.3-1.9-.3-2.2-1.8l.9-1.2c.5-1 .6-1.8.6-2.8 0-.8-.5-1.5-1.1-1.8 1.4-3.2-.1-4.7-1.1-7.9-.8-2.6.4-4.4-2-6.5-.7-.6-1-.3-1.6-1.1-.3-.4-.2-1.2-.4-1.7-.4-.8-1.6-1.8-1.9-2.5-.5-1.4.5-3-.1-4.6-.5-1.3-1.6-1.7-1.7-3.2-.2-2.4 1.1-4.2-1-6.2-1.8-1.7-1.7-.6-1.9-3.4-.1-1.1.1-1.9-.5-2.9-.9-1.3-2-.7-3-1.5s-.4-1.3-.5-2.8c-.2-2.8-1.4-2.9-3.1-3.8-.1-2.2 0-3.9-1.4-5.2.3-1.2.2-2.5-.8-3.6-.7-.8-1.8-.7-2.5-1.1-.1 0-.1-.1-.1-.1 0-.1-.1-.4-.1-.7-.6-2-.9-3.1-3-3.6-1.6-.4-2.2.5-3.5-1.1-.3-.4-.1-1.6-.5-2.2-.9-1.3-1.9-.9-2.9-.9-.3-.8-.6-1.4-1.6-2-.2-.2-.5-.3-.8-.3-.3-.7-.7-1.3-1.7-1.7-.2 0-.6-.1-1-.1-.2-.8-.3-1.5-1.3-2.1-.1-.1-.3-.1-.5-.2-.9-1-1.9-1.2-3-1-.2-1.5-1.4-2.8-3.1-2.3-2.9.8-2.3-.4-4.3-1.7-1.7-1.1-2.9.1-4.3-.4-.8-.3-1.6-1.5-2.7-1.8-1.4-.4-2.7.7-3.9.4-1-.3-1.4-1.6-2.7-1.8-.7-.1-2.7.7-2.8 1.2-.5-.5-1.1-1.2-1.8-1.2-1.2 0-2.3 1-3.3 1.8-.6-.8-1.4-1.4-2.5-1.4-.4-.6-1.1-1.1-2.1-1.2-.7-.1-1.4 0-2.1.3-.7-.8-1.7-1.2-2.8-.9-.7.2-1.1.4-1.7.8l-.4.4c-.4-.2-.9-.4-1.4-.5-.9-.1-1.7.1-2.4.4-.2-.1-.4-.2-.7-.3-1.2-.2-2.3-.3-3.4.1-.6.2-1 .6-1.4 1-.2 0-.3-.1-.5-.1-.7-.1-1.4-.1-2 .2-.5.2-1.3.9-1.5 1.5 0 .1 0 .1-.1.2-.2-.1-.3-.2-.5-.3-2.1-1-3.9.9-4.4 2.9-.5-.1-1 0-1.5.4-1 .9-2.2 1.1-3.5.9-1.8-.4-3.2.8-3.3 2.6-.1 1.5-1.8.3-3.2 1-1.4.7-1.5 1.9-2 3.1-.5 1.3 1 .1.1.9-.3.2-1.4.2-1.8.4-1.1.6-1.6 1.6-1.8 2.7-.1.5 0 .9 0 1.4.1.9.1 1.5.3 1.4-.7.4-2 .5-2.7 1.2-1.1 1.1-1.5 2.6-1.3 4-.8.3-1.6.4-2.6.6-1.2.2-1.7 1.7-1.5 2.7.1.5 1.4 2.6 1.3 2.8-.2 1.1-1.4.9-2.2 1.5-.9.8-1.3 4.6-2.2 4.5-.9-.1-1.4.8-1.5 1.5-.2 1.4 1.8 3.6-.5 4.1-1.2.3-1.9 1.9-1.2 3 1.5 2.3-1.1 2.5-1.6 4.5-.2.7 0 1.6.3 2.2.3.5.4.8.6.9-.9.4-2.2.4-2.9 1.5-.6.9-.3 4.6-.7 4.6-1.8.1-3.3 2.1-2.2 3.8.5.6.9 1.2 1.2 1.9-2 .2-3.1 2.1-2.2 3.9l1.3.7c-1.7-.3-3.5 1.1-2.9 2.9.3 1.1.8 1.9 1.2 2.8-.7.4-1.5.7-1.9 1.6-.6 1.4.9 3.9-.9 4.6-.8.3-1.1 1.1-.8 1.8.5 1.1.8 2 .6 3.3-.1.6-.9 1.1-.8 1.8 0 1.5.2 2.2 1.6 2.7 1.3.6 2.8-.9 1.6-2.1.4.4 1.1-3.8 1.1-3.9-.1-.6-.5-1.1-1-1.6 1.4-.5 2.5-1.3 2.8-3 .1-.4.1-1.8-.3-1.9.4-.2 1.2-.5 1.8-.8-.7.9-.6 2.5.1 3.4-1.6 1.2-1.9 4.5.7 4.9 1.1.2 1.3.4 1 1-1.2.5-2 2-.8 3.1.1.1.2.2.3.2.1.1.1.2.2.3-.2.1-.4.1-.6.3-.6.4-1.2 1.1-1.4 1.8-.2.8-.1 1.6.3 2.3.4.6 1 1.3 1.8 1.4 0 .2 0 .3-.1.5-.2 2.3 3.2 3.1 4.3 1.2.3-.8.8-1.4 1.6-1.8 2.1-.2 3.4-2.2 2.4-4.1.1-.8.2-1.7.3-2.5.7-.7.9-1.6.8-2.5.2.8.6 1.5 1.2 2-1.7.8-2.6 3.6-.4 4.6.1 0 .2.1.2.1-.1.1-.2.1-.2.2-1.7 1.1-1.6 3.2 0 4.3-.1.3-.2.6-.4.9-1.9 1.3-.8 5 1.7 4 3-1.2 4.1-3.9 3.3-6.4.4-.3.9-.7 1.4-1.2.9-.8.8-2.2 0-3.1 0 0 0-.1-.1-.1.4-.3.8-.6 1.3-.9.2-.1.3-.3.4-.5.2.6.6 1.1 1.1 1.4.1.1.2.2.3.2-.5.3-1 .6-1.4 1.4-.7 1.2-.2 3.1 1.1 3.7-1.5 1-1 3.4.5 4.2-.3 1.7 1.2 3.9 3.2 3.1.7-.3 1.4-.6 2.2-.9 2.3-.9 2.5-3.4.6-4.9l-.9-.6c.3-.9.3-1.9 0-2.8.1-.1.2-.1.3-.2.7-.6 1.1-1.2 1.3-2.1.3-1.5-.2-2.5-1-3.4 1-.7 1.9-1.5 1.9-3.2 0-1.5-.7-2.6-1.8-3.5.4-.5.8-1.1.8-1.6.2-1.4-.1-2.2-.9-3.3-.2-.2-.9-1.1-1.5-1.4.6-1 1.4-3.1 1.2-4.2-.2-1.2-.8-2.2-1.6-3.1 1.5-1.8 1.5-4.4.2-6.5 1.6-1.8 1.8-4.3.9-6.5.4-.3.8-.8 1.1-1.2-.2.5-.2.9-.2 1.5.2 2 1.2 3.7 1.1 5.8-.1 1.7-.6 1.5-.1 3.2.1.3.5.5.6.8.5 1.2 1 2.4.7 4.1-.2 1.2-1.2 2-1 3.4.1 1.2.6 1.2 1.1 2.3.8 1.6.4 1.2-.3 3.1-.8 2.2-.3 2.3.8 3.9.8-.1 1.1.3.9 1.1.1.4.1.9-.1 1.3 0 .5-.2.8-.1 1.2.2.7.3 1.1.6 1.4-.8 1.6-1 3-.2 4.8.2.4.9.6 1 0 .1-1.6.7-3 1.8-4.3.5-.6.5-1.6-.2-2-.8-.4.3-2.8.2-3.5-.1-.7-.6-1.2-1-1.8-1-1.3-1.4.1-.4-2 .4-.8 1.2-1.3 1.3-2.3.3-2.9-2.9-2.2-2.2-5.4.7-3.1 1.8-3.1.4-6.2-1.1-2.5-.1-4-.5-6.6-.1-.6-.8-.9-.9-1.5-.4-1.2.1-2.8.5-4 .3-.9 1-1.6.8-2.6-.1-.8-.6-1-.9-1.6-.1-.2-.8-.2-.9-.4-.4-1.1 1-2.6 1.2-3.7.1-.4.1-.7.2-1.1.4.1.9-.2.9-.7 0-1.1 0-2.1.1-3.1.1-.8.1-1.6.2-2.4.2.7.4 1.3.7 2 .3.7 1.3.2 1.2-.5-.2-1.3-.3-2.6-.3-4 .3 1.6.7 3.2 1.3 4.8.2.6 1.3.6 1.2-.2-.3-3.5-.8-6.6-.6-9.9-.1 3.3.1 6.4.7 9.2.2.8 1.3.6 1.3-.2.1-1.6.1-3.2.2-4.9.2 1.7.5 3.4.9 4.8.2.8 1.4.6 1.4-.2.1-1.2 0-2.5 0-3.7.2 1.4.5 2.8.9 4.1.2.7 1.3.6 1.3-.2 0-1.8 0-3.5-.1-5.3.3 1.7.6 3.4 1.2 5 .2.6 1.1.4 1-.3-.2-1.4-.4-2.7-.5-4.1l.2.2c.1 1.4.2 2.7.4 4 .1.8 1.5.6 1.5-.2-.1-1.2-.1-2.4 0-3.6.1 1.5.3 3.1.5 4.5.1.7 1.2.5 1.2-.2v-2c.1.8.2 1.6.4 2.4.1.5.9.4.9-.1.1-1.9.3-3.9.5-5.8 0 1.8 0 3.6.1 5.3.1.7.9.6 1 0l.3-2.4v3.6c0 .6.9.7 1 .1.1-.3.1-.6.1-.8v.2c0 .5.8.7.9.1.1-.2.1-.5.2-.8 0 .4 0 .8.1 1.1 0 .4.7.6.8.1l.3-2.1c0 .5 0 1 .1 1.5 0 .4.7.6.8.1l.3-2.1c0 .8 0 1.5.1 2.2 0 .4.7.6.8.1.7-4.7.8-9.5.8-14.2.1-1.3.1-2.5 0-3.8 0-.8.1-1.7.1-2.6 0-.2.1-.4.1-.5.4 7 0 13.9 0 21.1 0 .4.7.6.8.1 1.3-7.8 2.1-16.4.9-24.5.5 2 1 4.1 1.6 6.1.1.8.2 1.5.3 2.3.5 5.2.1 10.5.5 15.7 0 .5.8.6.9.1.9-3.7 1-7.6.8-11.5.1-.1.1-.2.1-.3l-.3-3.9v-.2l-.3-4.2.6 2.7c1.1 5.6 1.7 11.3 2.4 17 .1 1.1 1.7 1.1 1.7 0 0-.8-.1-1.6-.1-2.4h.1c.1.8.2 1.6.2 2.4.1.5.7.5.8 0 .5-4.1.6-8.4.3-12.7 0-.8.1-1.6.1-2.5v.1c.1.8.1 1.6.1 2.4.2 4.4-.3 8.8.2 13.1.1.4.7.6.8.1.3-1.2.6-2.5.7-3.9.1.9.3 1.8.4 2.7.1.7 1.1.5 1.1-.2v-4.8c.2 1 .3 2 .6 3 .1.6 1 .4 1-.1.2-6.6-.4-15.2-2.2-22.2.8 2.5 1.4 5.1 1.8 7.7.9 5.5.9 11.1 1 16.7 0 .5.7.6.8.1.5-2.1.8-4.2.9-6.4.2 1.9.4 3.8.5 5.8 0 .2.2.4.4.4.1.4.8.4.9-.1.1-1.2.3-2.3.4-3.5.2 0 .4 0 .6-.1.1 1.3.1 2.6.2 3.9 0 .6 1.1.8 1.2.2 0-.2 0-.4.1-.6.1 1 .2 2.1.3 3.1.1.5.7.5.8 0v-.4c.1.3.6.4.7 0 1-5.2 1-11 .3-16.6.1 0 .1 0 .1-.1.1.8.3 1.6.3 2.3.5 4.6.4 9 .2 13.5 0 .7 1.1.8 1.2.2 1.2-4.1 1.1-8.4.7-12.7.8 3.4 1.6 6.8 2.1 10.3v.4c0 .3.2.4.4.4 0 .3.1.5.1.8 0 .2.2.4.3.4v.1c0 .6.7.6.9.1.6-1.6 1-3.3 1.3-5 0 1.7.1 3.4.1 5.1 0 .5.7.6.8.1.1-.5.2-1.1.3-1.6v.8c0 .7 1 .8 1.2.2 0-.2.1-.3.1-.5.1 1.8.3 3.6.4 5.3 0 .5.6.6.8.2 0 .6.8.7 1 .1.2-.7.4-1.3.6-2l.3 6.3c0 .6 1 .8 1.1.2.1-.4.1-.9.2-1.3V77c0 .4.3.6.6.7.2.3.5.4.4 1.1-.1.1-.2.2-.3.4-.3.5-.4 1.2-.4 1.8v.1c-.9 2.2-1.2 2.1-1 4.4.2.4.6.7.9.9-.1.9-.5 1.7-1.1 2.4-.2.5-.4 1-.5 1.6-.2 1.2.7 1.6.3 3.2-.3 1-1.2 1-1.4 2.2-.2 1.3.2 2.3 1 3.1-1.1 1.8-1.2 3.8.4 5.5.5.5 1.4 0 1.2-.7-.5-1.4-.4-2.8.5-4.2.4-.6.4-1.2-.2-1.6-2.7-2 .9-2.7 1-3.9 0-.4-.2-2.4-.2-2.6.2-1.4.9-2.4 1.3-3.6.1.2.2.4.2.7 0 .6-.6.9-.7 1.6-.2 1.1-.5 1.5-.2 2.6.2.9 1.3 1.5 1.5 2.2.3.9-.1.9-.6 2.1-.4.9-.7 1.7-.5 2.7.1.7.4 1.4.8 1.9.3.3.5.5.7.6l-.1.1c-1.5 2.1-1.6 4.5-.4 6.3-.7.9-1.2 1.9-1.2 3.2 0 .7.3 1.6.6 2.2.1.1.4.6.8.9-.1.3-.2.6-.2.9-.2.8-.3 1-.2 1.8.1 1.1.6 2 1.2 2.7-.8 1.6-.8 3.5.1 5.1-.8 1.4-.8 3.1.1 4.5-.8 2.5 2.6 4.4 4.1 2 .2-.4.5-.8.7-1.2.5-.8.4-2.2-.4-2.8-.1-.1-.2-.3-.3-.4 1.5-1.1 1.5-3 0-4.1 0-.4 0-.8.1-1.2 1.6-1.1 1.4-3 0-4.1-.9-.7.3-2.6.1-3.7-.2-1.3-2.4-2.8-.9-3.9.2-.1.3-.3.5-.4.3.4.5.9.7 1.5.2.7 1 1 1.6.7-.6 1-1 2.1-.5 3.5.2.7.7 1.2 1.2 1.6-.4.9-.7 2.3-.6 2.9.2 1.2.9 2 1.7 2.6-.3 1.7-.9 2.9.8 4.5.6.6 2.1 1.6 3 1.6 1.5-.1 2.5-1.7 1.7-3-.9-1.7-.7-2.8-.5-4.7.1-1.1-.9-2-1.8-2.4 1.1.4 1.4-2.1 1.1-3.2-.1-.5-1-1.3-1.1-1.6 0-.3 1-1.5 1.3-2.1.1-.2.2-.5.3-.7.4.9 1 1.7 1.1 2.7.1 1.6-.9 2.7-.1 4.4.2.5 1 1 1.3 1.5-.1 0-.2.2-.2.9-.1 1.5-.5 2.2.4 3.7.3.6.8.9 1.4 1.1-.1.8.3 1.5 1 2 .5.3.9.6 1.2.7.1.5.4.9.9 1.4.3.3.7.4 1.1.1 1.1-.6 1.3-1.1 1.6-2.3.2-.8-.1-1.8-.9-2.2h-.1c.1-.2.3-.4.4-.6.7-.9.9-2.7-.4-3.2-.1-.1-.2-.1-.3-.2.1-.3.2-.5.2-.8.1-.6.1-1.2-.1-1.8.2-.4.4-.9.5-1.4.2.3.6.6.9.8-.1.2-.1.6-.3 1.2-.3 1.7.4 3.4 2 4.2.3.1.6.2 1 .2.1.2.3.4.4.6.4.4 4.2 1.9 4.1.6 0 1 1.2 1.8 2.1 1.2.1-.1.3-.2.4-.3.6-.5.9-1.1.8-1.9-.1-.8-.5-1.3-.9-1.7v-.4c0-.9-.2-1.8-.6-2.6-.2-.4-.8-.8-.9-1.2v-.1c.5.4.8.1.9-.8.1-.1.1-.2.1-.3.9.8 2.1 1 3.3 1-.6 1.3 1.2 2.7 2.2 1.5.9-1.1 1.2-1.9 1.3-3.2.8-.5 0-1.2-.8-1.2zm-135-23c-.1 1.3 0 4.2-1.5 4.8-.5.2-1 .6-1.4 1 .3-.8.4-1.8.3-2.8 1.9-1.3 2.3-3.7 1.5-6.1.6-.4 1.1-1 1.5-1.6.2.7.6 1.3.9 2.1.1.2.2.4.3.5-.9.4-1.6 1.1-1.6 2.1zm1.7-9c-.3.5-.3 1-.3 1.5-.2.1-.3.3-.4.5 0-.6-.4-1.3-.4-1.8.1-.1.2-.2.4-.3.4-.3.8-.4 1.2-.6-.3.2-.4.5-.5.7zm3.2-8c-.2.1-.3.2-.5.3.3-.9.4-1.6.4-2.3.2.2.3.5.5.7-.1.5-.3.9-.4 1.3zm.3-8.8c-.1-.1-.2-.3-.3-.4 2-.5 2-2.8 3.4-4.4-.3 1-.4 2-.3 3-.5.2-1 .3-1.4.6-.6.3-1 .8-1.4 1.2zm1.3 46.5c-.1-.2-.2-.5-.3-.7 0-.4.1-.8.1-1.1.4-.5.7-1.1.8-1.7.2.2.4.3.7.4l.1.1c-1.2.6-1.6 1.8-1.4 3zm1.8-9c-1.1.5-1.8 1.6-2 2.8-.2-.2-.3-.3-.5-.4 0-.4 0-.8-.1-1.2 2.6-1 2.9-4.7 0-5.6.7-.8 1.3-1.5 2-2.3-.1 1.1.2 2.3 1.1 3.1-.8 1-1 2.4-.5 3.6zm1.4-9.4c.2-1-.2-1.9-1.3-2.4 0 0 .5-.5 1.2-1.1-.2 1.1 0 2.3.9 3.1-.3.2-.5.3-.8.4zm2.3-11-.2-.2c-.1-.4-.2-.7-.3-1.1 0 0 0-.1.1-.1.2.3.5.6.9.8h.1l-.6.6zm3.7 23.2c.2.2.3.3.5.4.1.1.1.1.2.1-.6.5-1 1.1-1.3 2.1 0-.5-.1-1-.2-1.5.3-.3.5-.7.8-1.1zm-.1 7.4-.3.3c-.1-.2-.1-.3-.2-.5-.4-.5-.7-.9-1.1-1.3.5-.7.8-1.5.9-2.3.1.9.5 1.9 1.4 2.3.3.1.5.2.8.4-.5.3-.9.6-1.5 1.1zM136.8 85l-.3.9c-.1-.1-.1-.2-.1-.3 0-.5.1-1 .3-1.5.1 0 .2.1.3.1-.1.3-.1.5-.2.8zm12.5 6.3c.1.1.2.1.2.1.1.4-.5 1.4-1 2.2v-.1c-.1-.7.7-1.4.8-2.2zm2.2 18.1c-.3-.5-.9-.9-1.5-1.2-.6-.2-1-.3-1.2-.4.2-.1.4-.2.4-.8-.1-.8.5-1.2.3-2.2-.1-.6-.7-1.5-1.1-1.9-.3-.3-.5-.4-.6-.6.3-1.1.8-2.2 1.1-3.4.8 1 .9.6.9 1.8.1 1.5-.8 2.6.1 4.1.4.6 2.5 2.1 2.4 1.7 0 .1-.6 1.8-.8 2.9zm6.4-39.7c.9.6.9.9.9 1.6-.2-.2-.5-.4-.8-.8-.2-.3-.3-.6-.4-.9.2 0 .3 0 .3.1zm-.5 30.4c-.3-.7-.2-1.3.1-2 .4.2.8.3 1.2.5.1.1.2.1.2.1v.6c.1 1.2-.1 2.1.2 3.1-.5-.8-1.3-1.4-1.7-2.3zm2.8 8c-.2 1.7.8 3.1.7 4.6 0 .3-.1.6-.1.9-1.2-1.8-2.9-2.1-2.1-5.6.4-1.7 1.5-2.6 1.1-4.5 0-.1 0-.1-.1-.1.1.1.2.3.3.4.6.7 1.2.9 1.3 1.2.1.6-1 2.4-1.1 3.1zm.7-26.8c-.2-.5.1-2.4-.2-3.3-.5-1.3-1.2-.9-1.3-2.7 0-.2.1-.4.2-.6.1.2.2.3.4.5.8 1 1.2.4 1.8 1.8.5 1.2.1 1.4.2 2.5 0 1.2.4 2.2.8 3.1-.7-.4-1.7-.8-1.9-1.3zm2.4 3.8c-.1-.4-.1-.8-.1-1.2.2.7.4 1.3.5 2.1-.1-.3-.3-.5-.4-.9zm2.2 9.4c-.3-1-.5-1.9-.6-2.8 0-.1 0-.4.1-.7.2.5.4 1 .7 1.7.2.7.3 1.2.5 1.6-.3 0-.5.1-.7.2zm4.6 17.9c0 .2-.1.3-.1.5-.5-.6-.8-.1-1-.7v-.1h1.2c-.1-.1-.1.1-.1.3z" fill="#000000" stroke-width="none" opacity="1"></path><path id="SvgjsPath23871" d="M91.1 36c-1.1 7.7-1.5 15.3-1.6 23.1 0 .2-.3.2-.3 0-.5-7.7.3-15.5 1.7-23.1 0-.1.2-.1.2 0zm-4.6 3.7c-1.4 4.2-2.5 8.5-2.9 12.9 0 .2.3.2.3 0 .7-4.4 1.6-8.6 2.9-12.8.1-.2-.2-.3-.3-.1zm-3.3 1.1c-1.7 5.2-2.6 10.5-2.3 16.1 0 .1.2.1.2 0 0-5.5.7-10.8 2.3-16 0-.2-.1-.2-.2-.1zm-.7-4.3c.1-.2-.2-.2-.3-.1-3.6 8.9-6.8 18.3-4.8 28 0 .1.3.1.3 0-1.2-9.8 1.5-18.8 4.8-27.9zm-5.6 6c-2.7 5.2-4.7 10.7-5.2 16.6 0 .2.3.2.3 0 1-5.8 2.5-11.2 5.1-16.5.2-.1-.1-.3-.2-.1zm-7.4 5c-1 5.3-1.5 10.7-1.2 16.1 0 .1.2.1.2 0 0-5.4.3-10.7 1.3-16 .1-.2-.2-.3-.3-.1zM101.3 36c2.3 6.3 3.8 12.8 5.2 19.4 0 .1.3.1.3 0-.9-6.7-2.8-13.2-5.3-19.4 0-.2-.2-.1-.2 0zm3.6 2.6c1.1 4.2 1.8 8.5 2.5 12.8 0 .2.4.2.4 0-.3-4.4-1.3-8.7-2.5-12.8-.1-.3-.4-.2-.4 0zm8.3 1.2c1.8 5.6 2.8 11.2 3.5 17 0 .2.4.2.3 0-.3-5.8-1.6-11.6-3.6-17.1 0-.2-.3-.1-.2.1zm3.9 7c.3 3.2.5 6.4 1.1 9.6 0 .2.4.2.4 0-.2-3.2-.8-6.4-1.2-9.6-.1-.2-.3-.2-.3 0zm7.3 2.6c.8 2.7 1.5 5.4 2.4 8 0 .1.2.1.2 0-.7-2.7-1.5-5.3-2.3-8-.1-.2-.3-.2-.3 0zm5.8.1c1.1 4 1.9 8 2.8 12.1 0 .2.4.2.4-.1-.5-4.1-1.6-8.2-3-12.1-.1-.1-.3 0-.2.1zM95.5 27.2c0-.1 0 0 0 0-.7 1-1.6 2.3-3 1.9-.7-.2-1.3-.8-1.9-1.1-.8-.4-1.5-.4-2.1.3-.9 1.2-.9 2.9-2.9 2.5-1.1-.2-2.1-.9-3.3-.9-2.5.1-1.8 4.9-4.7 3.5-.7-.3-1.5-1.1-2.4-.6-1 .5-.7 2.1-1.8 2.7-1.6.9-4.4-.5-5.6 1.2-.8 1.1.1 2.6-1.3 3.4-.9.5-2.1.5-2.9 1.2-.8.7-.4 1.4-.3 2.3.4 2.3-1.8 1.8-3.2 2.4-.8.4-1.1 1-1.1 1.8 0 .5.1 1 .2 1.6.1.7.1 1.1-.6 1.7-.4.3-.9.3-1.2.6-.7.5-1.1 1.3-1.2 2.1-.1.5-.1 1 .1 1.5 0 0 .2.7.2.6v.2s-.1 0-.2.1c-.8.5-1.4.5-1.8 1.5-.6 1.4 1.1 2.8-.2 4-1.5 1.4-3.7 1.6-3.5 4.1 0 .6.2 1.3.3 1.9.1 1.2-.3 1.7-1.4 2.2-.7.3-1.3.7-1.2 1.6.2 1.3 1.5 2.2 1.5 3.6 0 1.2-1.1 2.3-1.8 3.2-.5.7-1.1 1.5-1 2.3.1 1.6 2.1 2.3 1 4-.7 1.1-1.9 1.8-2.4 3-.2.5-.2 1-.2 1.5.1 1 .8 1.6 1 2.5.5 2.3-3.7 2.4-3.4 5 .2 1.5 2.2 3.6-.1 4.5-.7.3-1.6.6-1.4 1.5.2 1.1 1.8 1.5 2.1 2.6.3 1.4-1.8 2-2.5 2.8-.6.6-.7 1.4-.2 2.1.4.7 2.9 2 2.4 2.9-.2.3-.9.6-1.1 1-.3.5-.6 1.1-.7 1.7-.1 1.1.1 2 .8 2.8.1.1.2 0 .2-.2-1.4-1.7-.8-4.3 1.2-5.2l.1-.1c-.3-1-1-1.5-1.7-2.1-.4-.3-.8-.7-1-1.1-.5-1.1.5-1.8 1.3-2.4 1.4-.9 2.3-1.9.9-3.4-.3-.3-.7-.6-.9-.9-.8-1.1.2-1.5 1.1-2 .7-.3 1-.8 1-1.6-.1-1.3-1.4-2.5-1-3.9.3-1.2 1.8-1.6 2.6-2.3.5-.4.8-.9.8-1.5 0-.8-.6-1.4-.9-2.1-.4-1.3.1-2.5 1-3.5.6-.7 1.6-1.4 1.8-2.4.3-1.3-.9-1.8-1.3-2.9-.6-2.1 2.5-3.7 2.8-5.8.1-1-.4-1.8-.9-2.6-.2-.3-.4-.7-.5-1.1-.2-1 .5-1.2 1.2-1.6.4-.2.8-.3 1-.7.6-.9.2-2 0-3-.3-2 .6-2.8 2.3-3.8.7-.4 1.5-.9 1.7-1.7.1-.5 0-.8-.2-1.3-.3-.8-.5-1.4 0-2.1.5-.7 1.2-1.1 2.1-1 .1 0 .1-.1.1-.2-.9-1.2-.8-3 .3-4.1.7-.7 1.9-.7 2.2-1.8.2-1-.4-2-.1-3 .4-1.4 2-1.2 3.1-1.6.5-.2 1-.4 1.2-.9.5-1.3-1-2.6.6-3.5 1.3-.8 3.3-.6 3.5-2.6.1-.8 0-1.7.8-2.2.5-.3 1.1-.3 1.6-.3.9 0 1.8.1 2.6-.1.5-.1 1.1-.3 1.4-.8.3-.3.3-.7.5-1 .3-.8.5-1.4 1.6-1.2.3.1.7.3 1 .5 1.4.8 2.4.5 3-1 .5-1.2.9-2.5 2.5-2.3 1 .2 1.9.7 3 .9.7.1 1.3-.1 1.8-.6 1-1.1 1-3.5 3.2-2.2.8.5 1.7 1.3 2.7 1 .5-.1.9-.5 1.2-.8l.3-.3c.1-.2.3-.4.4-.6.7-.1 1.1.2 1.4.7 0 .1.1.1.1 0-.7-.5-1.1-.8-1.7-1zM62.4 55.9c.5-.4 1-.5 1.6-.9 1.4-.9.7-2.8.7-4.1 0-.7.1-1.2.5-1.7.5-.5 1.2-.5 1.9-.8.6-.2 1.1-.5 1.2-1.2.1-.5 0-1 0-1.5 0-.8.3-1.6.8-2.3.9-1.4 2.5-2.2 4.1-2.2.1 0 .1-.1.1-.1-.1-.3-.2-.6-.3-.8-.3-1.5.2-2.1 1.6-1.8 0 .1.1 0 0 0-1-.9-2 .4-1.9 1.4 0 .7.5 1-.2 1.2-.5.1-.9.2-1.4.4-.8.4-1.5.9-2 1.6-.5.7-.9 1.5-1 2.3v.7c0 .8.1.7-.4 1.4s-.4.6-1.1.8c-.3.1-.6.1-.9.3-1.5.6-1.3 2.1-1.1 3.5.1 1.4.1 2.5-1.4 3-.6.2-1.3.4-1.5 1.1-.2.6.2 1.2.5 1.8.2.4.9 1.3.3 1.8-.2.2-.9.2-1.2.4-1.6 1-1.6 2.7-.7 4.1.3.4.4.3.1.7-.3.5-1 .8-1.5 1.2-.5.4-1.1.9-1.4 1.6-.7 2.1 2.9 3.2 1 5.2-.9 1-2.5 1.7-1.6 3.3.5.9 1.5 1.4 1.7 2.4.3 1.2-.6 2.1-1.2 3-.9 1.2-1.4 2.3-.2 3.6 1 1 1.4 1.8.7 3.1-.4.8-1.1 1.5-1.6 2.3-.9 1.3-1.2 2.5-.2 3.8 2.3 3.3-3.1 2.9-2.5 5.6.1.7.7.9 1.2 1.2.2.1.5.2.7.3.3.4.3 1.2 0 1.5-.3.3-.8.5-1.2.6-1.4.8-1.8 1.8-.8 3 .9 1.2 1.8 2.1.8 3.6-.5.8-1.3 1.4-1.9 2.2-.4.5-.7 1.1-.6 1.8.1.4.3.8.5 1.2.1.2.3.4.4.6.3.3.2.7-.1 1.1 0 .5-.2.8-.6 1-1 1-1.4 2.5-.1 3.5.1.1.2-.1.1-.2-.8-.6-1-1.7-.5-2.6.4-.6 1.1-.6 1.5-1.2.6-.8-.2-1.6-.6-2.3-1.6-2.7 1.8-3.6 2.4-5.9.2-.8-.1-1.4-.5-2.1-.3-.4-.8-.8-1.1-1.3-.6-1.2.2-1.8 1.1-2.3 1.1-.6 2.7-1.7.9-2.7-1-.5-2-.9-1.1-2.3.4-.6 1.2-.9 1.7-1.3.8-.6 1.3-1.4.9-2.4-.2-.5-.7-.9-.9-1.4-.4-.8-.2-1.5.2-2.3.5-1 1.3-1.8 1.9-2.7.4-.6.7-1.4.5-2.1-.3-1.3-2.2-1.8-1.8-3.3.5-1.7 3-3 2-5-.7-1.4-2.9-2.4-1.2-4.1.7-.7 1.9-1.3 1.8-2.5-.1-1.3-1.7-1.9-1.7-3.3 0-1.6 2.3-2.5 3.3-3.6 0 0 .1-.1 0-.2-1.9-1.5-1-4.4 1.5-4.5.1 0 .1 0 .1-.1.2-.7-.1-1.3-.5-2-.1-.2-.2-.3-.3-.5-.1-.8-.1-1.1.5-1.6zm-1.7 68.5c.6-.8.9-1.6.1-2.5-.6-.6-2.1-.9-1.1-1.9.4-.3.9-.4 1.2-.9.4-.5.2-1.1-.3-1.4-.2-.1-.4-.2-.7-.2-.9-.3-1.1-1.8-.4-2.4.5-.5 1.1-.9 1.4-1.5.6-1.2-.3-2.3-1.2-3-.4-.3-1.2-1-1.2-1.5 0-.3.4-.7.7-.9.4-.4.8-.7 1.1-1.1.4-.7.2-1.3-.4-1.7-.1-.1-.3-.1-.4-.2-.1-.1-.2-.1-.4-.2-.1-.5-.2-1.1-.3-1.6.1-.4.6-.8.8-1.2.2-.5.3-1 .2-1.4-.1-.7-.5-1-.9-1.5-.3-.3-.4-.1-.2-.7s.6-1.2.8-1.7c.1-.1-.1-.2-.2-.1-.4.8-.8 1.5-1.1 2.3 0 .1 0 .2.1.2 1.3.5 1.7 1.9 1 3.1-.3.5-.8 1-.9 1.6-.2 1 .7 1.1 1.3 1.7 2.1 1.8-2.9 2.8-.8 4.7.6.6 1.5.9 1.9 1.8.7 1.5-.5 2.1-1.3 3-.5.6-1.1 1.5-.5 2.2.2.2.5.3.7.5.2.1.8.2 1 .4.7.8 0 1.1-.4 1.5-.6.4-1.3.7-1.3 1.4v.1c.7.3 1.5.6 1.9 1.3.6.9-.1 1.4-.5 2.2-.2.3-.4.5-.4.9.1 1.1 1.6 1.4 1.9 2.4 0 .1.1 0 .1 0-.3-1.8-2.5-1.9-1.3-3.7zm8.2-30.7c0-.1 0-.2-.1-.2-2.3 0-.6-3.5-.8-4.6-.1-.6-.4-.9-.8-1.2-.5-.5-.9-.9-.7-1.7.1-.4.3-.8.4-1.1.3-.8.6-1.6.1-2.4-.4-.6-.9-.8-1.2-1.5-.4-1.1-.1-2.3.8-3.1.1-.1 0-.2-.1-.2-1-.2-1.7-.9-2-1.9-.3-1.3.4-1.8 1-2.7.7-1.2-.8-2-.4-3.3.3-1 1.4-1.8 1.4-2.9 0-.5-.3-.9-.5-1.3-.7-1.4-.5-2.8.8-3.8.1-.1 0-.2-.1-.1-1.2.8-1.7 2.3-1.1 3.7.2.5.7 1 .7 1.6 0 .6-.3 1.1-.6 1.5-.4.6-.9 1.2-.9 1.9-.1 1.2 1.2 1.5.4 2.9-.3.6-.8.9-.9 1.6-.1.6 0 1.2.4 1.8.3.6.8.8 1.3 1.2.1.1.1.1.2.1 0 0-.1.1-.1.3-.1.2-.3.5-.4.8-.2.7-.3 1.5 0 2.1.4 1 1.6 1.5 1.5 2.6-.1.9-.7 1.6-.8 2.5 0 .5.1.8.4 1.2.5.6 1.1 1 1.2 1.9.1.7-.4 1.5-.5 2.2 0 .5 0 1.1.3 1.5.2.4.8.6.8.8 0 .2-.7 1.1-.8 1.4-.2.4-.3.8-.3 1.2-.1.5 0 1 .2 1.5.3.7.6.7.6 1.7 0 .9-.4 1.2-.6 1.9-.1.3-.1.6-.1 1 .2 1.4 1.9 3 .7 4.4-.1.1 0 .2.1.1.5-.5.6-1.1.5-1.8-.1-.5-.3-.9-.5-1.3-.2-.5-.6-1.2-.6-1.8 0-.5.3-1 .6-1.5.4-.7.4-1.3 0-2-.5-.9-.8-1.6-.5-2.6.1-.9.6-1.7 1-2.4zm-17 2.5c-.1 0-.1.2 0 .2 1.1-.4 1.1-1.5.8-2.5-.2-.8-.7-1.6-.2-2.5.5-.8.7-.5 1.2-1 .3-.3.4-.5.3-1-.2-.9-.9-1.5-.9-2.5 0-1.4.9-1.8 1.7-2.7.7-.8.5-1.6 0-2.5-.3-.6-.7-1.1-1-1.7-.2-.6-.4-1.2-.1-1.8.2-.4.7-.7 1-1 .7-.7.4-1.4-.1-2.1-.5-.6-1-1.1-.6-2 .2-.4.5-.7.8-.9.4-.3.8-.6 1-1.1.1-.3.2-.6.1-.9.1-.2 0-.2-.2-.4-.6-1-.6-2.1.7-2.6.1 0 .1-.2 0-.1-.9.2-1.4 1.2-1.2 2.1.2.9 1.2 1.6.3 2.5-.4.4-1 .8-1.3 1.2-.6.8-.2 1.5.3 2.2.6.7.8 1.4.1 2.2-.2.2-.5.4-.7.6-.3.4-.4.8-.4 1.2.1 1.3 1.2 2.2 1.6 3.4.3 1.3-.6 1.6-1.3 2.4-.4.5-.6 1-.7 1.7-.1.6 0 1.2.2 1.8l.3.6c.3.8.1 1.3-.5 1.5-.2.2-.3.2-.6.5-1 1.5 1.4 4.5-.6 5.2zM43 80.5c.1 0 .1-.1.1-.2-.3-1-.6-2.1-.4-3.1.3-1.2 1.4-2.5 2.8-1.8.1 0 .2 0 .2-.1-.3-.9-.5-1.8-.5-2.7 0-.5.1-1.1.4-1.5.5-.8 1.2-.7 1.9-1.1.5-.3.6-.7.7-1.2.2-1 .2-2 .6-3 .5-1.1 1.4-1.8 2.2-2.7.4-.4.6-.9.6-1.5s-.3-1.2-.5-1.8c-.2-1 .2-1.4.9-2.2l.5-.5c.8-1.6-1.3-3.5.6-4.7 1.2-.8 2.4-.7 2.4-2.5 0-1-.3-2 .5-2.9.5-.6 1.3-1 2-1.3 1.1-.5 2.3-1.1 2.8-2.2.4-.9.3-2 .6-2.9.5-1.4 1.8-1.5 3-1.9.5-.2 1-.4 1.3-.8.2-.3.3-.6.3-1v-.8c0-1.1.5-1.5 1.6-1.2 0 0 .1 0 .1-.1-.4-.6-1.2-.3-1.6.2-.3.4-.2.9-.3 1.4-.2 1.6-1.2 1.8-2.5 2.2-1.2.3-2.1.8-2.3 2.1-.2.8-.1 1.7-.5 2.5-.4.9-1.2 1.4-2 1.8-1 .6-2.3 1-3 2-1 1.4.3 3.3-1.2 4.5-.9.7-2.2.5-2.4 2-.1.6.1 1.1.2 1.7.1.5.3 1.1.1 1.5-.2.6-.9.9-1.3 1.3-.7.9 0 2 .2 2.9.4 1.5-.7 2-1.6 2.9-.5.6-.9 1.2-1.2 1.9-.3.7-.4 1.4-.5 2.2-.1.9-.2 1.4-1.1 1.8-.3.2-.7.2-1 .4-.9.7-1 1.9-.9 3 0 .2.5 1.6.4 1.7-.1 0-1-.1-1.2 0-1.2.4-1.7 1.6-1.7 2.8 0 .6.6 2 .3 2.4-.1.1-1.2.4-1.4.6-.9.6-1.5 1.7-1.6 2.8-.1.6 0 1.2.2 1.7.3.8 0 .5-.7.9-1.2.6-1.8 2-1.5 3.4.3 1.4 1.2 2.6 0 3.8-.5.5-1.1.7-1.3 1.5-.3.9.1 1.8 0 2.7-.1 1.5-.7 2.7-1.7 3.8-.1.1 0 .2.1.1.9-.9 1.6-2 1.8-3.3.1-.7 0-1.3 0-1.9-.1-.7-.1-1.4.5-2 .2-.3.5-.4.8-.6.8-.8.9-1.5.6-2.5-.2-.7-.6-1.4-.6-2.1-.1-1.5 1.1-2.7 2.5-2.8.1 0 .2-.1.1-.2-1.3-2.1.1-5.2 2.6-5.4zM92.8 32c-1.2.4-2-1.5-3 0-.6.9-.5 1.9-1.8 2.3-.7.2-1.5.2-2.2.5-.4.2-.6.5-.9.8-.1.1-.2.3-.2.4-.6.3-1.1.2-1.6-.2-.3-.1-.3-.2-.6-.2-1-.2-2 .4-2.4 1.3 0 .1.1.1.2.1.7-1.2 1.8-1.3 3-.7.4.2.6.4 1.1.3.3-.1.5-.5.7-.7.6-.9 1.3-.9 2.3-1.1.9-.2 1.7-.3 2.2-1.2.2-.3.2-.7.4-1 .1-.7.7-.9 1.6-.6.1.1.3.2.4.2.4.1.5.3 1 .1 0-.1-.1-.3-.2-.3zm16-.8c-.4-.6-.3-1.2-1-1.6-.5-.3-1.1-.3-1.6-.1-.4.1-.8.3-1.1.5-.1.1-.7.6-.8.6 0 0-.4-.9-.6-1-.5-.4-1.1-.6-1.7-.6-1.6.1-2.5 1.7-3.2 2.9 0 .1.1.2.1.1.5-.9 1-1.9 2-2.5 1.2-.6 3.1-.2 3.1 1.4 0 .1.1.1.2.1.7-.6 1.6-1.4 2.6-1.3.8 0 1.2.7 1.6 1.4.1.1.1.3.2.4.6.8 1.7.2 2.5.6.1 0 .2-.1.1-.1-.7-.6-1.9 0-2.4-.8zM136.2 49c.3 1.3 1.1 1.6 2.3 1.6.6 0 1.2 0 1.7.2.7.3 1.1 1 1.4 1.7.6 1.1 1.1 2.3 1.7 3.4.1.1.2 0 .2-.1-.4-.9-.8-1.7-1.2-2.6-.4-.8-.7-1.8-1.4-2.3-1.5-1.2-4 .5-4.5-2.2-.2-1.3-.5-2.1-1.9-2.3-1-.1-2.1.1-2.8-.8-.6-.7-.2-2-.5-2.8-1.1-2.3-4.2-.1-6-.7-1.7-.5-.8-3-2.3-3.8-1.2-.6-2.5-.1-3.7.2-2.6.7-2.2-2.6-4.1-3.4-1.2-.4-2.5-.1-3.2.9-.1.1 0 .2.1.1 1.4-1.8 3.7-1 4.5.8.4.9.8 2 1.9 2 1.7.1 3.7-1.7 5 .2.7 1 .2 2.5 1.5 3.1 2.4 1 5.9-2.3 6.3 2 .1.9.2 1.8 1.2 2.2.6.2 1.2.2 1.7.2.8.1 1.4.3 1.8 1.1.3.3.2.8.3 1.3zm5.1 75.7c0-.7.2-1.3.3-2 0-.4 0-.6-.2-1-.6-1-1.2-.6-1-2.4.1-.6.4-1.1.3-1.8 0-.6-.2-1.2-.4-1.8-.5-1.6-1.3-3.8.4-4.9.1-.1.1-.2 0-.2-2.8-.6 0-4.6.1-6.1 0-.7-.2-1.1-.6-1.6-.5-.6-.5-.5-.5-1.4 0-.7 0-.7.3-1.2.2-.4.4-.8.5-1.2.2-.8-.1-1.5-.4-2.2-.5-1.5-.4-2.5.3-3.9.5-1.1.9-2.3-.1-3.2-.5-.4-1.3-.9-1.2-1.8 0-.4.5-1 .7-1.4.3-.6.5-1.2.3-1.9s-.8-1.2-1.1-1.9c-.7-1.3 0-2.2.7-3.3.7-1 .9-1.9-.2-2.7-.9-.8-.9-1.4-.4-2.5.1-.4.3-.7.4-1.1.1-.7-.1-1.3-.5-1.9-.3-.4-1.9-1.5-1.9-1.9 0-.1.5-.5.7-.7.2-.3.4-.7.5-1.1.4-1.7-.8-3.1-2.4-3.5-.1 0-.1.1 0 .1 2.5.6 3.1 3.7.8 5.1-.1 0-.1.2 0 .2 1.5 1 3 2.2 2.3 4.2-.3.8-.9 1.6-.4 2.4.1.2.3.4.5.5.9.8 1 1.4.4 2.5-.4.7-1 1.4-1.1 2.2-.1.8.3 1.4.7 2 .3.5.7 1 .8 1.6.1.9-.4 1.6-.7 2.3-.2.5-.4 1-.2 1.5.1.3.3.5.5.7.3.2.7.4 1 .7.5.6.4 1.1.2 1.7-.3 1-.9 1.8-1 2.8-.1 1 .4 1.9.6 2.9.5 1.6-.7 2.2-.9 3.6-.2 1 .6 1.4 1 2.1 1.2 2.1-1.9 4.3-.7 6.6.1.2.8.8.8.8s-.5.6-.6.8c-.2.3-.2.7-.3 1.1-.1 1.3.4 2.4.7 3.6.2.6.2 1.1.2 1.8-.1.6-.3 1.1-.4 1.7 0 .3-.1.6 0 .9.2.5.7.8 1 1.2.5.7.2 1.4 0 2.2-.2 1.2.2 2.3.9 3.2.1.1.4 0 .3-.1-.6-.7-.9-1.5-1-2.3zm8.5-6.6c-.6-1.3-1.2-2.1-.8-3.6.4-1.3 1.2-2.7.7-4.1-.2-.6-.6-.8-1.1-1.1-1.2-.7-1.2-1.5-.7-2.7.4-.8 1-1.7.9-2.6-.2-1.4-2-1.2-2.5-2.3-.8-2 1.9-4.4.4-6.3-.3-.4-.8-.6-1.3-.8-1.7-.8-1.3-2.2-.6-3.6.4-.9 1-2.2.3-3.2-.3-.4-.7-.5-1.1-.6-1.7-.6-1.3-2.2-.5-3.4.6-1 1.7-2.1 1.4-3.4-.1-.4-.3-.7-.6-1-.5-.4-.7-.4-1.2-1-.6-.6-.7-.6-.4-1.3.1-.3.3-.7.5-1 .5-.8 1.2-2 .5-2.9-.5-.7-1.6-.5-2-1.2-.5-.9.5-2.2.7-3 .3-1.1-.1-2.1-.9-2.8-.6-.5-1.1-.5-1.8-.7-.5-.1-.4.1-.2-.6.1-.5.3-.9.4-1.4.2-1.2-.2-2.8-1.5-3.3-.3-.1-.6-.1-.8-.1-1.8-.6-1-1.8-.5-2.7.3-.5.7-1.2.4-1.8-.2-.7-1.2-1.1-1.7-.5 0 .1 0 .2.1.1h1.1v1.7c-.1.2-.3.5-.4.7-.2.3-.3.6-.4 1-.1.5-.1 1.1.3 1.5.6.6 1.6.2 2.3.8 1.4 1.3.6 3.4.1 4.8 0 .1.1.2.2.2 1.1-.3 2.3.3 2.9 1.3.6 1 .2 1.9-.2 2.9-.3.8-.6 1.6-.2 2.4.2.3.4.4.7.6.6.4 1.2-.7 1.5 1.1.1.4-.2 1-.3 1.4-.4.8-1.2 1.7-1 2.7.3 1.2 1.9 1.1 2.4 2.2.6 1.3-1.3 3-1.8 4.1-.3.7-.5 1.5-.2 2.2.1.3.3.5.6.7.3.2.4.1.7.3 1.1.4 1.4 1.1 1.1 2.2-.4 1.7-2.4 3.9 0 5.1.7.3 1.4.5 1.7 1.2.2.6.2 1.2 0 1.7-.2.9-.6 1.8-.8 2.8-.1.6-.1 1.3.3 1.8.8 1 2.6.8 2.2 2.5-.2 1.2-1.8 2.9-1 4.2.5.7 1.4.7 1.8 1.4.5.9.2 2.1-.2 3-.5 1.3-.9 2.4-.3 3.7.4.9 1 1.6 1 2.6 0 .8-.3 1.6-.5 2.3-.3 1.1-.5 2.1.2 3.1.1.1.3 0 .2-.1-1-1.6.2-3.3.4-5-.1-1.1-.2-1.7-.5-2.2zm7.6 1.8c-.9-1-.2-1.8-.5-2.9-.3-1.4-2-1.7-1.7-3.4.2-1.2 1-2.2 1.3-3.4.2-.8.1-1.5-.4-2.1-.2-.3-.5-.4-.7-.7-.8-1.1-.4-1.8.1-2.8.3-.6.6-1.1.7-1.8 0-.4 0-.9-.3-1.3-.4-.5-.9-.4-1.4-.7-1.7-1.2.1-3.6.3-5 .1-.8-.1-1.6-.8-2-.6-.4-1.2-.1-1.8-.9-.3-.4-.3-.9-.3-1.4 0-.9.4-1.7.6-2.6.2-.9.4-2-.3-2.8-.3-.4-.7-.6-1.1-.9-1-.8-1-1.7-.7-2.8.3-.9.8-1.9.8-2.9-.1-1.1-1-1.2-1.8-1.7-2.2-1.3.9-4.7-1.1-6.2-.5-.4-1.2-.5-1.7-.8-1.4-.8-.9-2-.7-3.2.1-1.1-.1-1.8-1-2.4-.6-.4-1.4-.6-1.9-1.1-.9-1 .3-2.1.4-3.1.1-1.1-.5-2-1.4-2.5-.1-.1-.2.1-.1.1 1.2.7 1.5 2 1 3.2-.2.5-.6.9-.5 1.5.1.8.8 1.2 1.4 1.5.6.3 1.4.6 1.7 1.3.5.9 0 1.9-.1 2.8-.1.8.1 1.5.8 2 .5.3 1.2.4 1.7.7.9.5 1 1.5.8 2.4-.1.9-.5 1.9-.3 2.8.2 1.1 1 1.1 1.8 1.6 1.4.9.3 2.7 0 3.8-.2.8-.4 1.6.1 2.3.2.3.5.5.8.7.4.3.9.5 1.2 1.1.4.7.2 1.6 0 2.3-.3 1.1-.8 2.1-.6 3.3.1.4.2.8.5 1.1.4.4.9.4 1.4.6 3 1.6-1.6 5.2.9 7.2.7.5 1.4-.4 1.6 1.4.1.5-.2 1.1-.4 1.6s-.6 1-.7 1.6c-.4 1.7 1.2 1.8 1.6 3.2.6 2.1-2.5 4.3-1 6.3.2.3.5.5.7.7.4.5.7 1.1.7 1.7 0 .6-.2 1.2.1 1.8.1.2.3.3.4.5.7.9.6 1.5.5 2.5-.1 1-.3 2-.4 3 0 .1.2.2.2 0 .2-1 .3-1.9.4-2.9.1-.5.3-1.2.2-1.7-.3-.1-.6-.3-1-.6zm15.4-10c-.2-.7-.5-1.3-.5-2 0-.8.4-1.4.5-2.2 0-.6-.1-.8-.5-1.1.1.1.2.5.1 1.4 0 .3-.2.6-.3.9-.6 2.1 2.3 5.8-.2 7.2-.2.1 0 .3.1.2 1.7-.9 1.2-2.9.8-4.4zm-.6-5.3-.1-.1c-.5-.5-.9.6-1.1-1 0-.2.1-.6.2-.8.1-.3.2-.6.2-1 0-.7-.3-1.1-.8-1.6-.7-.5-1.3-1-1-2 .1-.5.4-.9.7-1.4.3-.5.6-1.1.5-1.8-.1-.7-.6-1-1.2-1.3-.7-.4-1.3-.5-1.6-1.4-.2-.6-.1-1.4-.1-2 0-.8-.1-1.4-.7-2-.7-.7-1.2-1.2-1-2.3.1-.5.2-1 .1-1.5-.2-.8-1-1.1-1.3-1.8-.6-1 .1-2.3.2-3.3.1-.7-.1-1.3-.6-1.8s-1.3-.8-1.5-1.7c-.2-.7.1-1.4.3-2 .2-.7.3-1.4-.2-2-.3-.3-.7-.4-1-.6-.9-.5-1.3-1.1-1.7-2.1-.3-.8-.7-1.6-1.4-2.1-.2-.2-.8-.2-1-.4-.5-.4-.3-2.2-.3-2.7 0-.1-.1-.1-.1-.1-1.4.1-2.5-.9-2.8-2.2-.3-1 0-1.8 0-2.8 0-.8-.2-1.4-1.1-1.5-1.2-.2-3.2.9-3.7-1-.2-1 .2-2.3-.7-3.2-1-1-2.8-.4-3.2-2.1-.2-1 .1-2.1-.4-3.1-.3-.7-.9-.9-1.6-.9-.3 0-.6.1-.9.2-1.1.1-1.6-.5-1.9-1.3-.3-1-.5-2-.8-3l-.1-.1c-2 0-3.6-1.6-3.6-3.7 0-.1-.1-.2-.2-.1-.7.3-1.5.7-2.2.6-.5 0-.8-.1-1.1-.5-.6-.3-.8-.8-.7-1.5-.1-.4-.2-.7-.6-.9-1.5-1-3.1 1.2-4.6 0-.9-.7-1.2-2-2.4-2.3-.9-.2-1.8.4-2.7.2-1.4-.3-2.3-1.6-2.4-2.9 0-.1-.1-.1-.1-.1-.5.2-1.1.4-1.6.5-.7.1-.4.2-.7-.3-.2-.6-.3-1.1-.8-1.5-1.1-.9-2.6-.6-3.5.4-.1.1 0 .2.1.1 1.5-1.7 4.2-.5 3.9 1.7 0 .1.1.1.1.1.4-.1 1.6-.8 2-.6.4.1.3.5.5.9.3.9 1.1 1.7 2 2 1.2.4 2.7-.5 3.7.2.8.6 1.1 1.6 1.9 2.1.8.5 1.6.2 2.5-.1 1.2-.4 1.7-.5 2.5 1.1.2.5.2.9.7 1.3.5.4 1.2.5 1.8.4.2 0 1.4-.5 1.6-.5.2.1.3.9.4 1.2.3.9 1 1.7 1.9 2.1.3.2.7.2 1 .4.4.2.3-.2.7.4.3.4.3 1.2.4 1.6.2.7.3 1.9 1 2.3 1.1.7 2.6-.9 3.5.4.9 1.4-.3 3.5 1.2 4.5.4.2.8.3 1.2.5 1.1.3 1.6.8 1.8 2 .1.8-.1 1.8.5 2.4.5.6 1.4.5 2.1.4 1.2-.2 2-.5 2.2 1.5 0 .6-.1 1.1 0 1.7.1 1.1.6 2.1 1.5 2.7.3.2 1.1.3 1.4.5.6.5.3 2.1.3 2.7 0 .1.1.1.1.1 2.3-.2 2.2 3.2 3.7 4.2.6.4 1.3.5 1.6 1.2.2.5 0 1.2-.2 1.6-.2.7-.4 1.4-.2 2 .2.7.8 1 1.2 1.4 1.2 1.1.7 2.2.5 3.6-.1.6-.1 1.1.1 1.6.1.2.3.4.5.6.7.7 1 1.4.8 2.4-.1.6-.2 1.1 0 1.7.1.3.4.5.6.7.7.6.9 1.2 1 2.1 0 1.6-.1 2.6 1.5 3.4.6.3 1.2.5 1.4 1.2.2.6-.2 1.2-.4 1.7-.3.6-.7 1.2-.8 1.9 0 .4.1.8.3 1.1.2.2.4.4.7.6.8.7 1 1.2.8 2.2-.1.5-.4 1.1-.1 1.6.1.2.3.3.5.4.5.8.8.5.9.6zm-5.3 12.9c-.5-.4-1.2-1-1.2-1.8 0-.4.4-.9.5-1.3.4-1.1.2-2-.4-3-.4-.6-.8-1.1-1.1-1.7-.5-1 .2-1.7.5-2.7.1-.4.1-.8-.1-1.2l-.6-.6c-.6-.7-.7-1.4-.5-2.2.3-1.1 1.1-2.4.5-3.5-.2-.4-.5-.6-.9-.8-.6-.3-1.2-.3-1.5-1.1-.2-.6.1-1.4.3-2 .5-1.1 1.3-2.3.5-3.5-.9-1.4-2.9-1.4-2.7-3.5.1-1 .8-2.3.1-3.2-.6-.8-1.7-.7-2.6-.7-.5 0-.8 0-1.2-.4-.3-.4-.1-.5 0-1 .2-.6.4-1.3.3-2-.1-1-.8-1.5-1.7-1.7-.7-.2-.9-.1-1.4-.7-.5-.6-.4-.8-.2-1.5.2-.5.5-1.1.5-1.7 0-1.5-1.7-1.2-2.3-2.3-.7-1.3 1.1-2.5.8-3.8-.4-1.5-2.7-.8-2.7-2.7 0-1 .7-2.3.1-3.2-.2-.3-.5-.3-.9-.5-.8-.4.3.7-1-.8-.7-.8-.7-.6-.4-1.4.1-.2.2-.5.2-.7.1-.7-.2-1.6-1-1.5-.1 0-.1.1 0 .1 1.8-.2-.1 3.1.5 4 .2.4.6.3 1 .5.7.2 1.5.2 1.6 1.1 0 .3-.1.7-.1 1-.1.8-.5 1.9 0 2.6.3.5.8.5 1.3.7 1.6.7 1.1 1.6.6 2.8-.3.8-.7 1.6 0 2.3.5.6 1.5.6 1.9 1.3.4.8-.2 1.7-.4 2.5s-.2 1.5.6 2c.9.5 2.3.1 2.7 1.4.3 1-.2 2.2-.7 3v.2c.6.9 1.6.7 2.5.7 1.5 0 2 .9 1.7 2.3-.1.6-.3 1.2-.3 1.9.1 1.3 1.3 1.7 2.2 2.4 2 1.6-.4 3.6-.4 5.5 0 .4.1.8.3 1 .6.8 1.7.5 2.1 1.5.6 1.7-1.1 3.1-.5 4.8.1.2.2.4.3.5.6.7.7.4.8 1.5.1.9 0 .7-.3 1.5-.1.3-.2.6-.2.9.1 1.2 1.1 2.1 1.6 3.1.6 1.2 0 2.1-.3 3.3-.2.5-.2 1 0 1.5.4.7 1.4 1 1.9 1.7.9 1.1 1.2 2.5 1 3.9 0 .2.2.3.3.1.2-1.3 0-2.6-.7-3.7-.1-.4-.5-.8-.9-1.2z" fill="#ffffff" stroke-width="none" opacity="1"></path></g><g id="svga-group-glasses-single-move" transform="matrix(1,0,0,1,0,0)"><g id="svga-group-glasses-single" transform="matrix(1,0,0,1,0,0)"></g></g></g></g></g><rect id="svga-credit-rect" width="200" height="15" x="0" y="185" fill="#ecf0f1" opacity="0.5" style="display: none;"></rect><text id="svga-credit-text" font-family="Avenir Next, Roboto, Helvetica, Arial, sans-serif" font-size="10px" text-anchor="start" font-weight="400" size="10px" anchor="start" weight="400" fill="#333333" x="33.402061462402344" y="182.71133995056152" style="display: none;"><tspan id="SvgjsTspan23241" dy="13" x="33.402061462402344">Created on AvatarMaker.com</tspan></text></g></svg>