<svg xmlns="http://www.w3.org/2000/svg" version="1.1" width="600px" height="600px" viewBox="0 0 200 200" style="overflow:hidden!important;"><defs id="SvgjsDefs12986"></defs><g id="svga-group-wrapper"><g id="svga-group-backs-single"></g><g id="svga-group-humanwrap-move" transform="matrix(1,0,0,1,0,0)"><g id="svga-group-humanwrap" transform="matrix(1,0,0,1,0,0)"><g id="svga-group-hair-back-move" transform="matrix(1,0,0,1,0,0)"><g id="svga-group-hair-back" transform="matrix(1,0,0,1,0,0)"><path id="SvgjsPath13665" d="M63.2 87.4s1.7 33.2 1 54.5c-.7 21.3-2.3 31.2-7.3 39.9-5 8.6-11.3 16.9-11.3 20.6s110.3-.7 110.3-.7-12.6-7.3-15.6-29.6-.7-84-.3-90.7-66.5-43.8-76.8 6z" fill="#000000" stroke-width="none" opacity="1"></path><path id="SvgjsPath13666" d="M70.7 107c-.1-.8-1.3-.8-1.2 0 3.1 30.4 6 64.9-15.6 89.7-.5.6.3 1.5.9.9 21.7-25.1 19-59.8 15.9-90.6zm5.8 13.4c-.1-.8-1.3-.5-1.2.3 0 .3.1.6.1.9-.3 0-.7.2-.7.6 1.7 29.5 3 61-13.7 87-.4.7.7 1.3 1.1.6 15.3-23.8 15.6-52.3 14.2-79.7 2 20.3.6 40.6-4 60.5-.2.8 1 1.1 1.2.3 5.6-23.1 6.5-46.9 3-70.5zm3.7 10.3c2.7 21.8.9 43.8-5.3 64.8-.2.8 1 1.1 1.2.3 6.2-21.2 8-43.2 5.3-65.2-.1-.7-1.3-.7-1.2.1zm6.6 6.8c.3 12.1-.4 24.1-2 36-.1.8 1.2.8 1.2 0 1.6-11.9 2.2-23.9 2-36 0-.8-1.2-.8-1.2 0zm31.6-17c.1-.8-1.2-.8-1.2 0-2.4 23.4-.3 46.9 6.4 69.5.2.8 1.4.4 1.2-.3-6.7-22.5-8.8-45.9-6.4-69.2zm28.5 80.6c-8.3-14.8-8.7-32.1-9.3-48.6-.6-17.3-.6-34.7.1-52 0-.8-1.2-.8-1.2 0-.7 18.7-.7 37.3.1 56 .7 15.5 1.5 31.5 9.3 45.3.3.6 1.3 0 1-.7zm-12.4-94.6c.1-.8-1.2-.8-1.2 0-2.8 32.2-5.4 65.6 6.8 96.3.3.7 1.5.4 1.2-.3-12.2-30.7-9.6-63.9-6.8-96zm-6.5 10.2c.1-.8-1.2-.8-1.2 0-2.1 27.9 1.1 55.8 9.3 82.5.2.8 1.4.4 1.2-.3-8.3-26.6-11.4-54.4-9.3-82.2zm-2.9 5c.1-.8-1.2-.8-1.2 0-2.7 28.2.9 56.5 10.7 83 .3.8 1.5.4 1.2-.3-9.8-26.5-13.4-54.6-10.7-82.7zm-56.8-16.6c-.1-.8-1.3-.8-1.2 0C69 139.2 70.5 178 45 204.5c-.6.6.3 1.5.9.9 25.7-26.8 24.4-65.8 22.4-100.3z" fill="#ffffff" stroke-width="none" opacity="1"></path></g></g><g id="svga-group-humanbody-back"><path id="SvgjsPath13244" d="M86.5 122c0 18.8 2.7 50.3-8.1 58s-31.8 13.9-36.7 24.4-3.6 14.4-3.6 14.4h124.1s.6-8.1-4.2-15.4c-6.6-10.1-28.5-17.7-36.5-22.9-8.1-5.2-10.9-32.2-10.9-58.8l-24.1.3z" fill="#ffffff" stroke-width="none" opacity="1"></path></g><g id="svga-group-chinshadow-single"></g><g id="svga-group-humanbody-front"><path id="SvgjsPath13245" d="M163.4 220.1H37.2l-.3-.9c-.1-.5-1.3-4.7 3.6-15.3 3.4-7.3 13.6-12.4 23.5-17.4 5.1-2.5 9.9-5 13.6-7.5 8.6-6 8.1-29.8 7.7-47.1-.1-3.5-.1-6.8-.1-9.8v-1.3l26.7-.4v1.3c0 32 3.8 53.5 10.3 57.7 2.4 1.6 6 3.3 10.2 5.4 9.7 4.7 21.9 10.6 26.7 18 5 7.6 4.4 15.9 4.4 16.2l-.1 1.1zm-124.1-2.6h121.6c-.1-2.4-.6-8.2-4-13.4-4.4-6.7-16.2-12.5-25.6-17-4.3-2.1-8-3.9-10.5-5.5-9.8-6.3-11.4-38.8-11.5-58.6l-21.5.4c0 2.6.1 5.5.1 8.5.4 18.9.9 42.4-8.8 49.3-3.8 2.7-8.7 5.1-13.9 7.7-9.5 4.8-19.4 9.7-22.3 16.1-3.3 6.9-3.7 10.9-3.6 12.5z" fill="#000000" stroke-width="none" opacity="1"></path><path id="SvgjsPath13246" d="M76.8 188.7c4.8 2.3 10.4 3.9 15.7 2.9.4-.1.4-.7 0-.8-5.1-.9-10.2-1.4-15.2-3.2-.6-.2-1.1.8-.5 1.1z" fill="#000000" stroke-width="none" opacity="1"></path><path id="SvgjsPath13247" d="M108.3 191.1c2.4.3 4.9-.4 7.1-1.2 2.1-.8 4.3-1.7 5.8-3.4.5-.5-.1-1.2-.7-.9-2.1.9-3.9 2.3-6.1 3-2 .7-4.1 1-6.2 1.5-.6.1-.4.9.1 1z" fill="#000000" stroke-width="none" opacity="1"></path></g><g id="svga-group-clothes-single"><path id="SvgjsPath13601" d="M83.8 167.6s-3.1 3.3-4.9 5.2-2.5 3.6-2.5 3.6v2.2s-6.5 5.1-11.4 6.3c-4.9 1.3-20.3 10.3-20.3 10.3s-9.6 9.1-8.7 24.3h127.9s1.1-11.4-4.9-18.7-34.2-19.9-34.6-21c-.4-1.1-.5-3.6-3.4-6.5s-5.1-6.7-6-7.1c0 0 1.6 6 1.6 9.8s.5 6.5-1.6 7.6-9.8 4.5-10.7 5.8-1.1 4.5-2.2 7.2c0 0-2.9-6.5-5.4-7.4s-5.6-.4-7.4-2.2-5.3-9.1-5.3-12c0-2.9-.2-7.4-.2-7.4z" fill="#ffffff" stroke-width="none" opacity="1"></path><path id="SvgjsPath13602" d="M159.8 200.3c-4.2-5.1-18.4-12.4-27.7-17.3-2.9-1.5-5.8-3-6.6-3.6-.1-.5-.2-1-.2-1.4h-.2c-.4-1.4-1.2-3.3-3.3-5.4-1.4-1.4-2.7-3.1-3.8-4.5-1.3-1.7-1.9-2.5-2.6-2.8-.3-.1-.8-.1-1 .2-.3.2-.4.6-.3 1 0 .1 1.6 5.9 1.6 9.5v1.9c.1 2.8.1 4.2-1.1 4.8l-1.8.9c-2.1 1-3.8 1.9-5.2 2.6-.2 0-.3.1-.4.1v.1c-2 1.1-3.3 1.9-3.7 2.5-.6.8-.9 2.2-1.2 3.7-.1.5-.2.9-.3 1.4-1.2-2.1-3-5-4.9-5.7-1.1-.4-2.2-.5-3.2-.7-1.6-.2-3-.4-3.8-1.3-1.7-1.7-5-8.9-5-11.4 0-2.9-.2-7.4-.2-7.5 0-.4-.3-.8-.7-.9-.4-.1-.8 0-1.1.2 0 0-3.1 3.3-4.9 5.3-1.9 2.1-2.7 3.8-2.7 3.9-.1.1-.1.3-.1.4v1.7c-1.4 1.1-6.7 4.8-10.7 5.9-5 1.3-19.9 10.1-20.5 10.4-.1 0-.1.1-.2.1-.4.4-9.9 9.6-9 25.1 0 .5.5.9 1 .9h127.9c.5 0 .9-.4 1-.9 0-.3 1-11.7-5.1-19.2zm-8.1 17.2c.9.4 1.9.7 2.9 1.1h-2.9v-1.1zm9.4-10.9c-2.7-1.5-5.4-3-8-4.7.1-.6.2-1.1.4-1.7 2.1 1.2 4.1 2.4 6.3 3.5.4.9.9 1.9 1.3 2.9zm-8.1-4.3c2.6 1.9 5.3 3.6 8.3 4.9.3.9.6 1.8.8 2.6-3.2-1.5-6.4-2.9-9.5-4.7.1-1 .2-1.9.4-2.8zm6.2.6c-1.9-1.1-3.8-2-5.6-3.1.2-.6.4-1.2.6-1.9 1.1.8 2 1.5 2.8 2.2-.8-.5-1.6-.9-2.4-1.3-.2-.1-.3.2-.1.3 1.1.6 2.1 1.3 3.3 1.7.2.2.4.4.6.7.2.5.5.9.8 1.4zm-6.8-6.1c-1.1 2.9-1.6 6.1-1.9 8.9l-.3 2.4c-.4 2.9-.5 8.2-.4 10.5h-44c0-4.4-2.2-8.7-1.8-13 .5-4.7 4.3-7.5 5.1-12 1.8-.8 3.5-1.9 4.9-3.2.2.2.3.4.5.6 1.2 1.4 2.7 3.1 4.7 4.9 3.4 3.3 8.6 5.2 8.8 5.3.1 0 .2.1.4.1s.5-.1.6-.2c.3-.2.4-.6.3-1 0-.1-1.9-8.9-2.6-12.4-.4-1.9-.6-3.9-.8-5.7 1.1.6 2.8 1.5 5.4 2.8 5.9 3.1 14.9 7.8 21.1 12zm-53.1 7.1c-.2-1.1-.1-1.2.7-1.9.3-.2.6-.6 1-1 1.4-1.5 2-3.1 2.1-4.1.3-.7.5-1.5.7-2.3 1.6 0 3.2-.3 4.7-.9-1.2 3.7-4.4 6.4-5.1 10.3-.8 4.9 1.7 9.6 1.6 14.5h-4.8c0-2.5-.5-12.6-.9-14.6zm6.6-14.5c.6-.4 1.4-.8 2.3-1.3h.9c.1 1.4.2 2.9.5 4.2-.5.2-.9.4-1.4.6.1-1.4-.2-2.9-.3-4.3 0-.2-.4-.2-.4 0 .1.7.1 1.5.1 2.3-.2-.3-.5-.6-.9-.6-.2 0-.4.1-.5.1-.1-.2-.2-.6-.3-1zm7.5.5s0-.1 0 0c0-.1 0-.1 0 0zm-.5-.6c0 .3.1.6.1.9-.2.2-.5.4-.8.6-.1-.8-.3-1.5-.3-2.2.2.1.4.2.5.3.2 0 .3.2.5.4zm-3 2.9c0-1.4-.2-2.7-.4-4.1.3 0 .6 0 .9.1.1 1.1.2 2.4.6 3.4-.4.2-.7.4-1.1.6zm1.4-.8c0-1.1-.3-2.1-.5-3.2.3 0 .5.1.7.1 0 .9.1 1.8.4 2.6-.2.2-.4.4-.6.5zm-4.7 1.2c.5 0 .9-.3 1-.7 0 .4.1.8.2 1.2-.4.2-.9.3-1.3.4 0-.3 0-.6-.1-1 .1.1.2.1.2.1zm7-7.2c.7-.4 1.4-.6 1.8-.9 2.4-1.2 2.3-3.7 2.2-6.6V176c0-1.8-.3-4.1-.7-6 .9 1.3 2.1 2.7 3.4 4 2.2 2.2 2.7 4.1 3 5.4.1.3.1.6.2.8 0 .1 0 .1.1.1.1.5.1 1.1.2 1.7.2 1.8.5 3.9.9 5.9.5 2.5 1.6 7.7 2.2 10.6-1.7-.8-4.4-2.3-6.3-4.1-1.9-1.8-3.4-3.5-4.5-4.8-.9-1-1.6-1.8-2.1-2.3-.5-.4-1.3-.8-2.1-.9.5-.4 1.2-.7 1.7-1zm-7.9 4.2c0 .4.1.8.1 1.2-.2.2-.2.4-.2.7 0 .4.2.6.4.8.1.4.1.9.2 1.3l-1.2.3c0-.5-.1-.9-.2-1.4s-.1-.9-.3-1.4c.1-.5.3-.9.5-1.1.2-.1.4-.2.7-.4zm-1.4 2.6c0 .1 0 .2.1.3.1.5.2 1 .3 1.4-.3.1-.6.1-.8.2.1-.4.2-.8.3-1.1 0-.2.1-.5.1-.8zm-4.9 1.7c0-.1 0-.2-.1-.3.1.1.1.2.2.3h-.1zm-1-1.6c.2.6.3 1.1.6 1.7h-1.1c-.1-1-.4-2.1-.7-3.1.4.3.8.8 1.2 1.4zm-1.7-1.9c.2 1.1.4 2.3.7 3.4-.3 0-.6 0-.9-.1-.2-1.2-.5-2.5-.7-3.7.2.1.4.1.6.2 0 .1.2.2.3.2zm-1.6 3.2c-.1-.5-.3-1-.4-1.5-.2-.8-.2-1.5-.3-2.3.3 0 .6.1.8.1.1 1.2.3 2.6.7 3.8-.2 0-.5 0-.8-.1zm-1.1-3.8c0 1.2.1 2.6.6 3.8-.5-.1-.9-.2-1.4-.3-.2-1.2-.4-2.4-.4-3.6.3 0 .5.1.8.1.1-.1.3-.1.4 0zm-5.4.7c0 .4.1.9.2 1.3-.3-.1-.7-.3-1-.4.3-.3.5-.6.8-.9zm.3-.4c.2-.3.4-.5.6-.7.1 1 .2 2 .6 2.9l-.9-.3c0-.6-.1-1.3-.3-1.9zm1.5 2.3c0-1.1-.3-2.3-.5-3.4l.1-.1c.3.1.5.2.8.3.1 1.2.2 2.4.5 3.6-.3-.2-.6-.3-.9-.4zm1.1.4c0-1.2-.1-2.3-.3-3.5.4.1.7.2 1.1.2-.1 1.2 0 2.5.5 3.6-.4-.1-.8-.2-1.3-.3zm-11.8-19.3c.9-1 2.2-2.4 3.2-3.5.1 1.5.1 3.5.1 5 0 3.1 3.3 10.5 5.4 12.7-1 1.1-3.3 3.9-5.1 5.6-1.5 1.4-5.2 4.2-7.6 6 .6-3.3 1.6-9.1 1.9-11.8.3-2.5.2-6.1.2-8.6v-2.6h-.2c.4-.7 1.1-1.7 2.1-2.8zm-14.5 12.4c3.8-1 8.5-4.2 10.7-5.7 0 2.3 0 5.1-.2 7-.4 3.8-2.3 14.1-2.3 14.2-.1.4.1.8.4 1 .2.1.3.1.5.1s.4-.1.6-.2c.3-.2 7.4-5.4 9.8-7.7.9-.8 1.9-1.9 2.8-2.9 2.3 1.3 4.9 2.1 7.5 2.5.1.1.2.1.2 0 .3.1.7.1 1 .1.1.1.1.3.2.4.1.1.3 0 .2-.1 0-.1 0-.2-.1-.3.3 0 .7 0 1 .1 0 .1 0 .1.1.2s.3.1.3 0v-.1h1.9c.4.8.8 1.6 1.2 2.3-.1.5-.5 1.7-1.6 2.8-.3.3-.6.6-.9.8-1 .9-1.7 1.7-1.3 3.8.3 1.6.7 9.7.9 14.3H53.6c-.1-2.1-.5-7.9-1.5-13.4-1.1-6.3-2.3-9.6-3-11.3 4.9-2.7 12.9-7 16.1-7.9zM47 218.5c-3.4-1.2-6.7-2.6-9.8-4.3.2-1.8.5-3.5 1-5 3.9 2.5 8.1 4.7 12.5 6.2.2.1.3-.3.2-.4-4.2-1.9-8.4-3.9-12.5-6.2.7-2.4 1.6-4.5 2.6-6.3 2.9 2.1 6.2 4.2 9.8 5.1.2 1.1.3 2.2.5 3.3 0 0 0-.1-.1-.1-3.9-1.5-7.7-2.9-11.4-5-.1-.1-.2.1-.1.2 3.4 2.3 7.3 4.3 11.4 5.1.1 0 .2 0 .2-.1.4 3.4.6 6.2.7 7.7h-5v-.2zm-4.6-18.7c2.3 1.8 4.9 3.4 7.6 4.5.1.4.2.9.2 1.3.1.5.2.9.2 1.4-3.3-1.5-6.4-2.9-9.4-4.9.5-.9.9-1.7 1.4-2.3zm1.4-2c1.8 1.1 3.6 2.2 5.4 3.1.2.8.4 1.8.6 2.8-2.5-1.3-4.9-2.6-7.2-4.2.5-.7.9-1.3 1.2-1.7zm4.4-.7c-.7-.5-1.5-.9-2.2-1.4.4-.2.9-.5 1.5-.8.2.5.4 1.2.7 2.2zm-2.9-1c.1 0 .2-.1.3-.1 1 .6 1.9 1.3 2.9 1.9.2.7.4 1.5.6 2.4-1.6-1-3.3-1.9-5-2.8.6-.8 1-1.2 1.2-1.4zm-8.4 20.6c1.3.6 2.7 1.1 4.1 1.6.1 0 .2-.1.1-.2-1.3-.7-2.8-1.3-4.2-1.9 0-.6.1-1.1.1-1.7 2.9 1.8 6 3.2 9.4 4.1h-9.5v-1.9zm126 1.9h-7.1c-1.3-.6-2.7-1.1-4.1-1.5 0-1 0-2.1.1-3.4 2.5 1.4 5.1 2.8 7.9 3.7.2.1.3-.2.1-.3-2.7-1.3-5.4-2.5-8-3.8 0-1 .1-2 .1-2.9 2.9 2.1 6.2 3.9 9.6 4.9.2.1.3-.2.1-.3-3.4-1.4-6.6-2.9-9.6-5h-.1c.1-.6.1-1.1.2-1.6 0-.2.1-.5.1-.8 3.2 1.8 6.5 3.7 9.8 5.2.2.1.4-.2.2-.3-3.2-2-6.6-3.7-9.9-5.4.1-.4.1-.8.2-1.2 0-.2 0-.3.1-.5 2.9 1.9 6.1 3.6 9.4 4.5.1 0 .1 0 .1-.1.9 3.8.9 7.2.8 8.8zm-61.8-15.8c.6 0 1.1.5 1.1 1.1s-.5 1.1-1.1 1.1-1.1-.5-1.1-1.1.5-1.1 1.1-1.1zm.9 12.4c.6 0 1.1.5 1.1 1.1s-.5 1.1-1.1 1.1-1.1-.5-1.1-1.1.5-1.1 1.1-1.1zm-64.4-3.3c-.2-.1-.3.2-.2.3 3.9 2.3 8.1 4.4 12.4 5.8.2.1.3-.2.1-.3-4.1-1.9-8.2-3.7-12.3-5.8z" fill="#0e0f0f" stroke-width="none" opacity="1"></path></g><g id="svga-group-head" transform="matrix(1,0,0,1,0,0)"><g id="svga-group-ears-left-move" transform="matrix(1,0,0,1,0,0)"><g id="svga-group-ears-left" transform="matrix(1,0,0,1,0,0)"><path id="SvgjsPath13474" d="M64.8 86.8s-2.1-5.1-4.3-8.3c-2.2-3.2-5.5-7.6-7.6-8.7s-3.6-.4-3 2.6 3 12.6 3.6 15.6c.7 3 2.2 9.4 4.2 13.6 1.9 4.2 3.1 6.1 5.2.5 2.1-5.7 3.4-11.8 1.9-15.3z" fill="#ffffff" stroke-width="none" opacity="1"></path><path id="SvgjsPath13475" d="M56.9 102c-2-4.4-3.6-11.1-4.2-13.8-.2-1-.7-2.9-1.2-5-.9-3.9-2.1-8.7-2.4-10.7-.4-2.2.2-3.3.9-3.7.5-.4 1.6-.8 3.5.2 2.3 1.2 6.6 3.9 8.9 7.3 2.2 3.3 3.3 10 3.4 10.2 1.7 4.1 1.3 10.3-.6 15.3-1 2.8-3.3 4.7-4.5 4.8h-.1c-1.5-.1-2.5-1.9-3.7-4.6zm2.9-23.1c-3-4.5-5.7-7.6-7.2-8.4-.9-.5-1.4-.5-1.6-.3-.2.2-.4.8-.2 2 .4 1.9 1.5 6.7 2.4 10.6.5 2.1.9 4 1.2 5 .6 2.6 2.2 9.2 4.1 13.4.4.9 1.5 3.3 2 3.5.1 0 .6-.3 1.6-2.9 2.4-6.6 3.1-11.8 2-14.7-.1-.1-2.2-5.1-4.3-8.2z" fill="#000000" stroke-width="none" opacity="1"></path><path id="SvgjsPath13476" d="M51.6 73.1c3.5 4 6.5 10.6 7 16.9 0 .4-.4.5-.5.1-.1-.6-.2-1.1-.4-1.7-.3-.8-.9-.9-1.6-.2.1.5.1 1 .3 1.4.2.6.4 1.3.6 1.9.6 1.5 1.3 2.6 2 3.9.1.3 0 .7-.3.5-1.7-1.4-3.4-5.4-3.4-8.2 0-.8.3-1.6.9-1.7.4 0 .7.1.9.4-1.3-4.9-3-8.9-5.8-13 0-.2.1-.5.3-.3z" fill="#000000" stroke-width="none" opacity="1"></path></g></g><g id="svga-group-ears-right-move" transform="matrix(1,0,0,1,0,0)"><g id="svga-group-ears-right" transform="matrix(1,0,0,1,0,0)"><path id="SvgjsPath13477" d="M135.2 86.8s2.1-5.1 4.3-8.3c2.2-3.2 5.5-7.6 7.6-8.7 2.1-1.1 3.6-.4 3 2.6-.6 3-2.9 12.7-3.6 15.7-.7 3-2.2 9.4-4.2 13.6-1.9 4.2-3.1 6.1-5.2.5-2.1-5.8-3.4-11.9-1.9-15.4z" fill="#ffffff" stroke-width="none" opacity="1"></path><path id="SvgjsPath13478" d="M139.5 106.5s-.1 0 0 0c-1.3 0-3.5-1.9-4.6-4.8-1.8-5-2.3-11.2-.6-15.3.1-.2 1.2-6.9 3.4-10.2 2.3-3.4 6.6-6.1 8.9-7.3 1.9-1 3-.5 3.5-.2.6.5 1.3 1.5.9 3.7-.4 1.9-1.5 6.8-2.4 10.7-.5 2.1-.9 4-1.2 5-.6 2.7-2.2 9.4-4.2 13.8-1.3 2.8-2.3 4.6-3.7 4.6zM136 87.1c-1.2 2.8-.5 8 2 14.7 1 2.6 1.5 2.9 1.6 2.9.5-.2 1.6-2.6 2-3.5 1.9-4.2 3.5-10.8 4.1-13.4.2-1 .7-2.9 1.2-5 .9-3.9 2.1-8.7 2.4-10.6.2-1.2 0-1.8-.2-2-.2-.1-.7-.1-1.5.3-1.5.8-4.2 4-7.2 8.4-2.3 3.1-4.4 8.1-4.4 8.2z" fill="#000000" stroke-width="none" opacity="1"></path><path id="SvgjsPath13479" d="M148.4 73.1c-3.5 4-6.5 10.6-7 16.9 0 .4.4.5.5.1.1-.6.2-1.1.4-1.7.3-.8.9-.9 1.6-.2-.1.5-.1 1-.3 1.4-.2.6-.4 1.3-.6 1.9-.6 1.5-1.3 2.6-2 3.9-.1.3 0 .7.3.5 1.7-1.4 3.4-5.4 3.4-8.2 0-.8-.3-1.6-.9-1.7-.4 0-.7.1-.9.4 1.3-4.9 3-8.9 5.8-13 0-.2-.1-.5-.3-.3z" fill="#000000" stroke-width="none" opacity="1"></path></g></g><g id="svga-group-faceshape-wrap" transform="matrix(1,0,0,1,0,0)"><g id="svga-group-faceshape-single"><path id="SvgjsPath13461" d="M138.2 58.2c-2-10.8-13.3-27.4-37.2-27.4S69.1 43.5 65.5 53c-3 8.1-3 21.3-3 21.3s3 33.8 5.2 39.8c2.1 5.9 18.2 24.2 20.8 25.9 2.5 1.7 17.4 3 19.1 2.5 1.7-.4 26.3-26.3 27.6-29.7 1.3-3.4 4.4-32.9 4.3-38.5-.1 0 .1-8.4-1.3-16.1z" fill="#ffffff" stroke-width="none" opacity="1"></path><path id="SvgjsPath13462" d="M106.3 143.9c-4.4 0-16.1-1.1-18.6-2.8-2.8-1.8-19.1-20.3-21.3-26.5-2.2-6-5.1-38.7-5.2-40.1v-.1c0-.6 0-13.6 3.1-21.8 5.8-15.5 17.8-23 36.7-23 10.9 0 20.5 3.4 27.7 10 5.5 5 9.6 11.9 10.8 18.5 1.4 7.6 1.2 15.7 1.2 16.4.1 6-3.1 35.4-4.4 38.9-.9 2.4-10 12.3-13.9 16.4-3.3 3.5-6.6 6.9-9.1 9.4-4.5 4.4-5 4.6-5.4 4.7h-1.6zM63.8 74.3c.1 1.6 3.1 33.8 5.1 39.4 2 5.6 18 23.7 20.3 25.2 2.1 1.4 15.8 2.7 18 2.4 2.6-1.7 25.7-26 26.8-28.9 1.2-3.1 4.3-32.6 4.2-38 0-.1.2-8.4-1.2-15.9-1.1-6-4.8-12.4-10-17-6.7-6.1-15.7-9.3-26-9.3-17.7 0-28.9 7-34.3 21.3-2.8 7.5-2.9 19.9-2.9 20.8z" fill="#000000" stroke-width="none" opacity="1"></path></g></g><g id="svga-group-mouth-single-move" transform="matrix(1,0,0,1,0,0)"><g id="svga-group-mouth-single" transform="matrix(1,0,0,1,0,0)"><path id="SvgjsPath13544" d="M114.35 121.31c-.22.11-.44.19-.66.28-3.57-1.77-7.08-3.68-10.51-5.71-.04-.14-.18-.26-.34-.17-1.1.6-2.21 1.19-3.31 1.79-.02-.01-.02-.03-.04-.04l-2.43-.99c.06-.18-.13-.41-.35-.29a43.686 43.686 0 0 0-7.65 5.34c-.83-.16-1.65-.38-2.46-.67-.59-.21-.85.73-.26.94 1.15.41 2.32.7 3.5.86 2.82 2.94 6.19 6.18 10.56 6.03 4.15-.15 7.24-3.51 10.51-5.65 1.31 0 2.62-.23 3.94-.88.56-.27.06-1.12-.5-.84zM96.6 116.8c.92.38 1.84.75 2.76 1.13.06.03.11.01.16-.01.07.04.14.06.23.01 1.04-.56 2.07-1.12 3.11-1.68 3.32 1.97 6.72 3.82 10.18 5.54-4.09 1.13-8.32-1.32-12.49-1.26-1.98.03-3.86.66-5.79 1.02-1.71.32-3.4.33-5.07.07 2.13-1.83 4.44-3.44 6.91-4.82zm-6 5.94c.96.09 1.93.09 2.9-.01 2.62-.27 5.1-1.32 7.77-1.19 3 .14 5.9 1.28 8.8 1.47-2.76 1.93-5.4 4.57-8.82 5.09-4.36.66-7.81-2.44-10.65-5.36z" fill="#000000" stroke-width="none" opacity="1"></path></g></g><g id="svga-group-eyes-left-move" transform="matrix(1,0,0,1,0,0)"><g id="svga-group-eyes-left" transform="matrix(1,0,0,1,0,0)"><g id="svga-group-eyesback-left"></g><g id="svga-group-eyesiriswrapper-left"><g id="svga-group-eyesiriscontrol-left" transform="matrix(1,0,0,1,0,0)"><g id="svga-group-eyesiris-left" transform="matrix(1,0,0,1,0,0)"><path id="SvgjsPath13506" d="M84.8 84.7c-1-1.9-3.2-2.7-5.2-2-2.2.8-3.8 3-3.1 5.4.4 1.2 1.5 2.4 2.8 2.7.4.1.9.1 1.4.1.5.1 1.1 0 1.7-.2 2.4-.9 3.6-3.7 2.4-6z" fill="#ffffff" stroke-width="none" opacity="1"></path><path id="SvgjsPath13507" d="M81.1 91.2h-.4c-.5 0-1 0-1.5-.1-1.3-.3-2.5-1.4-3-2.9-.9-2.6 1-4.9 3.2-5.7 2.2-.8 4.6.1 5.6 2.1.6 1.2.7 2.6.2 3.8-.5 1.2-1.5 2.2-2.7 2.6-.4.1-.9.2-1.4.2zm-.3-.6c.5.1 1.1 0 1.6-.2 1.1-.4 1.9-1.2 2.4-2.3.4-1.1.4-2.3-.2-3.3-.9-1.7-3-2.5-4.9-1.8-2 .7-3.6 2.8-2.9 5 .4 1.2 1.5 2.3 2.6 2.5.4.1.9.1 1.4.1zm2.4-4.8c0-.1 0-.1-.1-.1-.6-1.1-2-1.5-3.1-1 .2.2.4.5.6.7.2.3.5 1 .1 1.2-.4.2-1 0-1.3-.2-.2-.1-.3-.3-.5-.5 0 .1-.1.1-.1.2-.1.2-.1.4-.1.6-.2.7 0 1.4.5 1.9.2.2.5.3.8.4.6.3 1.2.4 1.8.1-.1-.1-.2-.2-.2-.4 0-.3.2-.6.5-.7.3-.1.6 0 .7.2.3-.3.5-.7.6-1.1.1-.4 0-.9-.2-1.3zm-4.8 1.1c-.4-.1-.9-.1-1.3-.2-.1 0-.1.1 0 .1.4.1.9.3 1.3.2.1 0 .1-.1 0-.1zm-.1.8c-.2 0-.4.1-.6.1-.2 0-.5.1-.7.1-.1 0-.1.1 0 .1.4 0 1 0 1.3-.3.1.1.1 0 0 0zm.4.8c-.2.1-.3.2-.5.3-.2.1-.4.2-.5.3-.1 0 0 .2.1.1.3 0 .7-.3.9-.7.1.1.1 0 0 0zm.9.7c-.3.3-.4.6-.6.9-.1.1.1.2.1.1.2-.3.5-.6.6-1h-.1zm.8.4c-.1.3-.1.7-.2 1.1 0 .1.1.1.1 0 0-.4.1-.7.1-1.1.1-.1 0-.1 0 0zm1.4.4c-.1-.1-.1-.3-.2-.4 0 0-.1 0-.1.1 0 .2.1.3.2.4.1.2.1.3.2.5 0 .1.1 0 .1 0-.1-.2-.1-.4-.2-.6zm1.3-.2-.3-.3-.3-.3c0-.1-.1 0-.1.1.1.1.2.2.3.4.1 0 .2.2.4.1 0 .1 0 .1 0 0zm.9-.7c-.1-.1-.3-.2-.5-.3-.2-.1-.3-.2-.5-.3-.1 0-.2.1-.1.1.2.1.3.2.5.3.2.1.3.2.5.2.1.1.2.1.1 0zm.5-1.3c-.1-.1-.3-.1-.4-.1-.2 0-.3-.1-.5-.1-.1 0-.1.1-.1.1.3.1.7.3 1 .2.1.1.1 0 0-.1zm.2-1.7c-.3.1-.8.3-1 .5-.1.1 0 .1.1.1.2-.1.3-.2.5-.2.2-.1.3-.1.5-.2.1-.1 0-.2-.1-.2zm-.8-2-.1-.1s-.1 0-.1.1c0 0-.4.4-.4.5-.1.2-.2.3-.4.5-.1.1.1.1.1.1l.9-.9c.1-.1.1-.1 0-.2zm-1.9-.8c-.1.1-.1.3-.2.5s-.1.4-.2.6c0 .1.1.1.1 0 .1-.2.2-.3.2-.5.1-.2.2-.4.1-.5.2-.1.1-.1 0-.1zm-1.3.8c-.1-.2-.1-.3-.2-.5 0-.2-.1-.3-.1-.4 0-.1-.1 0-.1 0 0 .3.2.7.3 1 0 .1.2 0 .1-.1zm-1.2 0c-.1-.2-.2-.3-.3-.5 0-.1-.1 0-.1 0 .1.2.1.3.2.5.1.1.2.3.3.4.1 0 .1 0 .1-.1 0 0-.1-.2-.2-.3zm-.6.9-.3-.3c-.1-.1-.2-.2-.4-.3-.1-.1-.2 0-.1.1l.3.3c.2.1.3.3.5.2 0 .2 0 .1 0 0zm-.8.8-.9-.3c-.1 0-.1.1 0 .1.3.1.6.3.9.3 0 0 .1-.1 0-.1z" fill="#000000" stroke-width="none" opacity="1"></path></g></g></g><g id="svga-group-eyesfront-left"><path id="SvgjsPath13620" d="M81 74.4c-6.9 0-12.5 5.6-12.5 12.5S74.1 99.4 81 99.4s12.5-5.6 12.5-12.5S87.9 74.4 81 74.4zm7.1 16.1c-2.1 0-17.3 0-17.9-.9-.6-.8.7-2.9 2.5-4s4.2-2.6 7.6-2.8c3.4-.2 8.9 1 10.9 6.6.3.7-1.1 1.1-3.1 1.1z" fill="#ffffff" stroke-width="none" opacity="1"></path><path id="SvgjsPath13621" d="M73.1 83.4c1.3-.9 5.4-3.8 10.1-2.6 4.5 1.1 7.1 4.4 7.2 4.5 0 .1.1.1.2.1h.1c.1-.1.1-.2 0-.3-.1-.1-2.8-3.5-7.4-4.6-4.9-1.2-9.1 1.7-10.5 2.7-.1.1-.1.2-.1.3.1 0 .3 0 .4-.1zm18.6 5.8c-2.3-5-5.6-6.9-11.9-6.8-2.8 0-5.6 1.4-7.6 2.9h-.1c-.1 0-1.4-.2-2.1-1.8-.1-.2-.4-.3-.6-.2-.2.1-.3.4-.2.6.7 1.3 1.6 1.9 2.3 2.1l-.7.7h-.1c-.5 0-2.1 0-2.6-.6-.2-.2-.4-.2-.6 0s-.2.4 0 .6c.7.7 2 .9 2.7.9-.3.4-.4.8-.5 1.2v.5c-.3.1-.7.2-1.3.4-.4 0-.5.3-.4.5s.2.3.4.3h.2c.8-.3 1.2-.4 1.4-.5.1.1.3.2.5.3 1.5.5 7 .6 12.3.6 2.6 0 5.2 0 7.3-.1h.3c.2 0 .4-.2.4-.4s-.2-.4-.4-.4h-.3c-10.5.2-17.7 0-19.3-.5-.3-.1-.4-.2-.4-.6.3-1.8 4.8-5.6 9.4-5.6 6-.1 9 1.6 11.1 6.3.1.2.4.3.6.2s.3-.4.2-.6zm-1.1 2.4c-4.2.9-8 1.8-12.3 1.9-.2 0-.2.3 0 .3 4 .4 8.8 0 12.5-1.8.2-.1.1-.4-.2-.4z" fill="#000000" stroke-width="none" opacity="1"></path></g></g></g><g id="svga-group-eyes-right-move" transform="matrix(1,0,0,1,0,0)"><g id="svga-group-eyes-right" transform="matrix(1,0,0,1,0,0)"><g id="svga-group-eyesback-right"></g><g id="svga-group-eyesiriswrapper-right"><g id="svga-group-eyesiriscontrol-right" transform="matrix(1,0,0,1,0,0)"><g id="svga-group-eyesiris-right" transform="matrix(1,0,0,1,0,0)"><path id="SvgjsPath13508" d="M123.2 84.7c-1-1.9-3.2-2.7-5.2-2-2.2.8-3.8 3-3.1 5.4.4 1.2 1.5 2.4 2.8 2.7.4.1.9.1 1.4.1.5.1 1.1 0 1.7-.2 2.5-.9 3.6-3.7 2.4-6z" fill="#ffffff" stroke-width="none" opacity="1"></path><path id="SvgjsPath13509" d="M119.6 91.2h-.4c-.5 0-1 0-1.5-.1-1.3-.3-2.5-1.4-3-2.9-.9-2.6 1-4.9 3.2-5.7 2.2-.8 4.6.1 5.6 2.1.6 1.2.7 2.6.2 3.8-.5 1.2-1.5 2.2-2.7 2.6-.5.1-.9.2-1.4.2zm-.4-.6c.5.1 1.1 0 1.6-.2 1.1-.4 1.9-1.2 2.4-2.3.4-1.1.4-2.3-.2-3.3-.9-1.7-3-2.5-4.9-1.8-2 .7-3.6 2.8-2.9 5 .4 1.2 1.5 2.3 2.6 2.5.5.1 1 .1 1.4.1zm2.4-4.8c0-.1 0-.1-.1-.1-.6-1.1-2-1.5-3.1-1 .2.2.4.5.6.7.2.3.5 1 .1 1.2-.4.2-1 0-1.3-.2-.2-.1-.3-.3-.5-.5 0 .1-.1.1-.1.2-.1.2-.1.4-.1.6-.2.7 0 1.4.5 1.9.2.2.5.3.8.4.6.3 1.2.4 1.8.1-.1-.1-.2-.2-.2-.4 0-.3.2-.6.5-.7.3-.1.6 0 .7.2.3-.3.5-.7.6-1.1.2-.4.1-.9-.2-1.3zm-4.7 1.1c-.4-.1-.9-.1-1.3-.2-.1 0-.1.1 0 .1.4.1.9.3 1.3.2v-.1zm-.1.8c-.2 0-.4.1-.6.1-.2 0-.5.1-.7.1-.1 0-.1.1 0 .1.4 0 1 0 1.3-.3.1.1 0 0 0 0zm.4.8c-.2.1-.3.2-.5.3-.2.1-.4.2-.5.3-.1 0 0 .2.1.1.3 0 .7-.3.9-.7.1.1 0 0 0 0zm.8.7c-.3.3-.4.6-.6.9-.1.1.1.2.1.1.2-.3.5-.6.6-1h-.1zm.9.4c-.1.3-.1.7-.2 1.1 0 .1.1.1.1 0 0-.4.1-.7.1-1.1.1-.1 0-.1 0 0zm1.4.4c-.1-.1-.1-.3-.2-.4 0 0-.1 0-.1.1 0 .2.1.3.2.4.1.2.1.3.2.5 0 .1.1 0 .1 0-.1-.2-.1-.4-.2-.6zm1.2-.2-.3-.3-.3-.3c0-.1-.1 0-.1.1.1.1.2.2.3.4.1 0 .2.2.4.1 0 .1.1.1 0 0zm1-.7c-.1-.1-.3-.2-.5-.3-.2-.1-.3-.2-.5-.3-.1 0-.2.1-.1.1.2.1.3.2.5.3.2.1.3.2.5.2.1.1.1.1.1 0zm.5-1.3c-.1-.1-.3-.1-.4-.1-.2 0-.3-.1-.5-.1-.1 0-.1.1-.1.1.3.1.7.3 1 .2v-.1zm.2-1.7c-.3.1-.8.3-1 .5-.1.1 0 .1.1.1.2-.1.3-.2.5-.2.2-.1.3-.1.5-.2.1-.1 0-.2-.1-.2zm-.8-2-.1-.1s-.1 0-.1.1c0 0-.4.4-.4.5-.1.2-.2.3-.4.5-.1.1.1.1.1.1l.9-.9v-.2zm-1.9-.8c-.1.1-.1.3-.2.5s-.1.4-.2.6c0 .1.1.1.1 0 .1-.2.2-.3.2-.5.1-.2.2-.4.1-.5.1-.1 0-.1 0-.1zm-1.3.8c-.1-.2-.1-.3-.2-.5 0-.2-.1-.3-.1-.4 0-.1-.1 0-.1 0 0 .3.2.7.3 1 0 .1.1 0 .1-.1zm-1.2 0c-.1-.2-.2-.3-.3-.5 0-.1-.1 0-.1 0 .1.2.1.3.2.5.1.1.2.3.3.4.1 0 .1 0 .1-.1 0 0-.1-.2-.2-.3zm-.6.9-.3-.3c-.1-.1-.2-.2-.4-.3-.1-.1-.2 0-.1.1l.3.3c.2.1.3.3.5.2 0 .2 0 .1 0 0zm-.8.8-.9-.3c-.1 0-.1.1 0 .1.3.1.6.3.9.3v-.1z" fill="#000000" stroke-width="none" opacity="1"></path></g></g></g><g id="svga-group-eyesfront-right"><path id="SvgjsPath13622" d="M119 74.4c-6.9 0-12.5 5.6-12.5 12.5s5.6 12.5 12.5 12.5 12.5-5.6 12.5-12.5-5.6-12.5-12.5-12.5zm-7.2 16.1c-2.1 0-3.4-.4-3.1-1.1 2-5.6 7.5-6.8 10.9-6.6 3.4.2 5.8 1.7 7.6 2.8 1.8 1.1 3.1 3.2 2.5 4-.6.9-15.9.9-17.9.9z" fill="#ffffff" stroke-width="none" opacity="1"></path><path id="SvgjsPath13625" d="M109.3 85.4c.1 0 .1 0 .2-.1 0 0 2.7-3.4 7.2-4.5 4.7-1.2 8.8 1.7 10.1 2.6.1.1.2 0 .3-.1.1-.1 0-.2-.1-.3-1.4-1-5.6-3.9-10.5-2.7-4.7 1.2-7.3 4.5-7.4 4.6s-.1.2 0 .3l.2.2zm23.3.6c-.2-.2-.5-.2-.6 0-.6.6-2.1.6-2.6.6h-.1c-.2-.2-.4-.5-.7-.7.6-.2 1.6-.8 2.3-2.1.1-.2 0-.5-.2-.6s-.5 0-.6.2c-.8 1.6-2.1 1.7-2.1 1.8h-.1c-2-1.6-4.8-2.9-7.6-2.9-6.3-.1-9.6 1.8-11.9 6.8-.1.2 0 .5.2.6s.5 0 .6-.2c2.1-4.7 5.1-6.4 11.1-6.3 4.6.1 9.1 3.8 9.4 5.6 0 .3-.1.5-.4.6-1.5.5-8.8.6-19.3.5h-.3c-.2 0-.4.2-.4.4s.2.4.4.4h.3c2.1 0 4.7.1 7.3.1 5.3 0 10.8-.1 12.3-.6.2-.1.4-.1.5-.3.2 0 .6.1 1.4.5h.2c.2 0 .3-.1.4-.3.1-.2 0-.5-.2-.6-.6-.2-1-.4-1.3-.4v-.5c-.1-.4-.2-.8-.5-1.2.8 0 2.1-.2 2.7-.9 0 0 0-.3-.2-.5zm-23.9 5.1c-.2-.1-.4.2-.2.3.8.6 1.5 1.1 2.5 1.3.2 0 .3-.2.1-.3-.8-.5-1.6-.8-2.4-1.3z" fill="#000000" stroke-width="none" opacity="1"></path></g></g></g><g id="svga-group-facehighlight-single"></g><g id="svga-group-eyebrows-left-move" transform="matrix(1,0,0,1,0,0)"><g id="svga-group-eyebrows-left-rotate" transform="matrix(1,0,0,1,0,0)"><g id="svga-group-eyebrows-left" transform="matrix(1,0,0,1,0,0)"><path id="SvgjsPath13577" d="M71.16 71.28c1.43-2.03 1.67-2.83 5.05-2.38 3.38.45 13.82 3.73 14.66 4.23.84.51.59 4.51-.29 4.85-.88.35-12.51-5.46-15.15-6.03-2.64-.58-3.74.65-7.85 5.21l3.58-5.88z" fill="#ffffff" stroke-width="none" opacity="1"></path><path id="SvgjsPath13578" d="M67.28 77.56c.2.15.48.12.65-.06 4.22-4.7 5.08-5.57 7.38-5.06 1.13.25 4.08 1.54 7.05 2.85.05.03.09.06.13.06l.42.18c3.99 1.77 5.96 2.6 6.98 2.86.06.03.12.04.18.04.24.05.43.07.57.04.04-.01.08-.01.11-.03.77-.3 1-1.71 1.08-2.52.06-.61.16-2.65-.71-3.18-.91-.55-11.41-3.84-14.84-4.3-3.27-.44-3.92.29-5.19 2.13-.1.14-.2.29-.31.45-.01.01-.01.02-.02.02l-3.59 5.89c-.13.2-.09.48.11.63zm5.06-7.13c.21-.29.43-.51.65-.69l1.69 1.62c-.29-.02-.56-.01-.83.01l-1.51-.94zm6.13-.59 2.76 3.88c-2.28-1.01-4.29-1.84-5.4-2.15l-2.25-2.15c.11-.04.23-.09.37-.11.51-.09 1.2-.06 2.2.08.59.06 1.4.24 2.32.45zm9.31 6.74c-.74-.31-1.58-.66-2.41-1.03l-2.11-4.41c.88.25 1.73.51 2.55.77l1.97 4.67zm-1.18-4.43c.56.18 1.07.34 1.55.5l1.33 4.6c-.26-.09-.54-.2-.87-.33l-2.01-4.77zm3.81 5.37c-.05 0-.12-.02-.19-.04l-1.33-4.58c.92.31 1.56.55 1.72.65.12.09.32.76.28 1.9-.05 1.18-.32 1.9-.48 2.07zm-7.1-2.89c-.32-.14-.63-.28-.93-.41l-2.95-4.15c.95.24 1.97.52 3 .82l2.04 4.26c-.39-.18-.79-.35-1.16-.52zm-12.87-1.26 1.11-1.83c.11-.15.21-.3.31-.44.04-.06.07-.09.11-.14l.99.62c-.79.29-1.57.87-2.52 1.79z" fill="#000000" stroke-width="none" opacity="1"></path></g></g></g><g id="svga-group-eyebrows-right-move" transform="matrix(1,0,0,1,0,0)"><g id="svga-group-eyebrows-right-rotate" transform="matrix(1,0,0,1,0,0)"><g id="svga-group-eyebrows-right" transform="matrix(1,0,0,1,0,0)"><path id="SvgjsPath13579" d="M128.83 71.24c-1.44-2.03-1.69-2.82-5.06-2.35-3.37.47-13.8 3.8-14.64 4.31-.84.52-.56 4.51.31 4.85.89.34 12.49-5.52 15.12-6.11s3.75.63 7.87 5.18l-3.6-5.88z" fill="#ffffff" stroke-width="none" opacity="1"></path><path id="SvgjsPath13580" d="m132.85 76.86-3.62-5.87c-.01-.01-.01-.02-.02-.02-.11-.16-.21-.31-.31-.45-1.29-1.83-1.93-2.56-5.2-2.1-3.43.48-13.91 3.82-14.82 4.38-.87.54-.76 2.57-.7 3.19.08.81.33 2.22 1.09 2.51.03.01.07.02.11.03.14.02.31.01.57-.05.06 0 .12-.01.18-.04 1.02-.27 2.99-1.12 6.97-2.9.14-.06.27-.13.42-.18.05-.01.1-.02.13-.06 2.96-1.33 5.91-2.63 7.03-2.88 2.3-.52 3.17.35 7.41 5.03.16.18.44.21.65.06.19-.16.24-.44.11-.65zm-6.72-5.51c-.27-.02-.54-.03-.83-.01l1.68-1.62c.22.18.43.4.66.69l-1.51.94zm-2.29-1.99c1-.14 1.68-.17 2.19-.09.14.02.25.07.37.11l-2.24 2.16c-1.11.32-3.1 1.16-5.39 2.18l2.74-3.89c.92-.21 1.73-.39 2.33-.47zm-9.65 2.58c.81-.26 1.67-.52 2.54-.78l-2.09 4.41c-.84.38-1.66.73-2.41 1.05l1.96-4.68zm-2.8 5.02c-.32.13-.61.24-.87.33l1.31-4.61c.47-.16.99-.33 1.55-.51l-1.99 4.79zm-2.27-1.45c-.05-1.14.15-1.81.27-1.9.16-.1.8-.34 1.71-.66l-1.31 4.59c-.07.02-.14.03-.19.04-.15-.17-.42-.9-.48-2.07zm6.42-.33 2.01-4.27c1.03-.3 2.06-.59 3-.83l-2.93 4.16c-.31.14-.61.27-.93.41l-1.15.53zm11.48-3.63.99-.63c.03.05.07.09.11.14.1.14.21.29.31.44l1.12 1.82c-.95-.91-1.73-1.49-2.53-1.77z" fill="#000000" stroke-width="none" opacity="1"></path></g></g></g><g id="svga-group-nose-single-move" transform="matrix(1,0,0,1,0,0)"><g id="svga-group-nose-single" transform="matrix(1,0,0,1,0,0)"><path id="SvgjsPath13559" d="M95.4 104.4c1.9-3.5 3.3-6.9 1.9-10.9-.7-1.9-1.4-3.7-1.3-5.8.1-2.2 1.1-4.2 2.6-5.8.5-.5-.3-1.2-.7-.7-2.4 2.5-3.5 6.2-2.6 9.6.5 2.1 1.7 4 1.7 6.2 0 2.5-1.3 4.7-2.4 6.8-.4.7.5 1.2.8.6z" fill="#000000" stroke-width="none" opacity="1"></path><path id="SvgjsPath13560" d="M106.3 106.9c-1.2-.2-2.1.3-2.8 1.2-1 1.3-1.2 4-3 4.4-2.3.5-3.4-2.5-4.5-3.9-.9-1.1-2-1.9-3.5-1.8-.7 0-.7 1.1 0 1 3.5-.2 3.7 5.5 7.3 5.8 1.2.1 2.1-.6 2.8-1.5.8-1.3 1.3-4.5 3.4-4.2.7.1 1-.9.3-1z" fill="#000000" stroke-width="none" opacity="1"></path></g></g><g id="svga-group-hair-front" transform="matrix(1,0,0,1,0,0)"><path id="SvgjsPath13663" d="M63.6 85.3s.7-2.7 3.6-12.3c3.1-10.3 9.6-19.5 20.2-23.6s25.8-2.2 32.2 2.2 11.6 9.9 13.5 16.6c1.9 6.7 2.2 16.8 4.6 18.3 0 0 3.4-8.4 3.6-15.2.2-6.7 0-13.7-4.3-22.9-4.3-9.1-13.5-15.4-24.5-18.5s-25.5-.2-31.8 2.5c-6.3 2.6-12.8 9.1-16.8 18.8S61.2 74 61.4 75.9c.3 1.9 2.2 9.4 2.2 9.4z" fill="#000000" stroke-width="none" opacity="1"></path><path id="SvgjsPath13664" d="M94.5 45.5c-.8-4.7-.9-9.3-.4-14 .1-.8-1.2-.8-1.2 0-.5 4.8-.4 9.6.4 14.4.1.7 1.4.4 1.2-.4zm-7.9 2.6c-.7-5.4-.3-10.7 1.2-15.9.2-.8-1-1.1-1.2-.3-1.6 5.4-2 10.9-1.2 16.6.1.7 1.3.4 1.2-.4zm-3.7 1c-.6-5.6.4-11.6 2.8-16.7.3-.7-.7-1.4-1.1-.6-2.5 5.3-3.6 11.5-2.9 17.3.1.8 1.3.8 1.2 0zm-10.1 6.3c-.1-4.6.9-9.1 2.8-13.3.3-.7-.7-1.4-1.1-.6-2.1 4.4-3.1 9-3 13.9 0 .8 1.3.8 1.3 0zm-7.2 16C64 58.7 67.8 45.9 76.8 36.7c.6-.6-.3-1.5-.9-.9-9.2 9.4-13.2 22.6-11.6 35.6.1.8 1.3.8 1.3 0zm40.6-39.2c.3 4 .5 8 .8 12 .1.8 1.3.8 1.2 0-.3-4-.5-8-.8-12-.1-.7-1.3-.7-1.2 0zm3.9-.2c1.4 4.8 2.2 9.7 2.2 14.7 0 .8 1.3.8 1.2 0-.1-5.1-.9-10.1-2.3-15-.1-.8-1.3-.5-1.1.3zm12.3 19.8c.2-6-.7-11.8-2.6-17.4-.3-.8-1.5-.4-1.2.3 1.9 5.5 2.8 11.2 2.6 17.1-.1.7 1.1.7 1.2 0zm4.4 2.6c.4-5 .1-10-1-15-.2-.8-1.4-.5-1.2.3 1.1 4.8 1.3 9.7.9 14.6 0 .9 1.2.9 1.3.1zm8.1 11.4c.5-6.7-.6-13.2-3.3-19.4-.3-.7-1.4-.1-1.1.6 2.6 6 3.6 12.3 3.2 18.7-.1.9 1.2.9 1.2.1zm3.4 14c.7-6.5.7-13 0-19.5-.1-.8-1.3-.8-1.2 0 .7 6.5.7 13 0 19.5-.1.8 1.1.8 1.2 0zm-70-13.5c-.8-11 2.4-21.5 9.2-30.2.5-.6-.4-1.5-.9-.9-7 9-10.4 19.8-9.6 31.1.1.8 1.4.8 1.3 0zm11.2-14.7c.4-6.9 2.4-13.4 5.9-19.4.4-.7-.7-1.3-1.1-.6-3.6 6.2-5.6 12.9-6.1 20 0 .8 1.2.8 1.3 0zM122 35.4c4.8 7.2 7.5 15.2 8 23.8.1.8 1.3.8 1.2 0-.5-8.9-3.2-17.1-8.2-24.5-.4-.6-1.5 0-1 .7z" fill="#ffffff" stroke-width="none" opacity="1"></path></g><g id="svga-group-glasses-single-move" transform="matrix(1,0,0,1,0,0)"><g id="svga-group-glasses-single" transform="matrix(1,0,0,1,0,0)"></g></g></g></g></g><rect id="svga-credit-rect" width="200" height="15" x="0" y="185" fill="#ecf0f1" opacity="0.5" style="display: none;"></rect><text id="svga-credit-text" font-family="Avenir Next, Roboto, Helvetica, Arial, sans-serif" font-size="10px" text-anchor="start" font-weight="400" size="10px" anchor="start" weight="400" fill="#333333" x="33.402061462402344" y="182.71133995056152" style="display: none;"><tspan id="SvgjsTspan13034" dy="13" x="33.402061462402344">Created on AvatarMaker.com</tspan></text></g></svg>