<svg xmlns="http://www.w3.org/2000/svg" version="1.1" width="600px" height="600px" viewBox="0 0 200 200" style="overflow:hidden!important;"><defs id="SvgjsDefs13698"></defs><g id="svga-group-wrapper"><g id="svga-group-backs-single"></g><g id="svga-group-humanwrap-move" transform="matrix(1,0,0,1,0,0)"><g id="svga-group-humanwrap" transform="matrix(1,0,0,1,0,0)"><g id="svga-group-hair-back-move" transform="matrix(1,0,0,1,0,0)"><g id="svga-group-hair-back" transform="matrix(1,0,0,1,0,0)"><path id="SvgjsPath14443" d="M106.94 24.3S82.78 4.67 52.57 33.86s-1.01 74.5 4.03 84.57-5.79 22.15-13.59 18.88c0 0 4.03 10.32 16.11 7.8 0 0 5.54 4.28 12.84 1.51 0 0 4.28 7.55 17.12 4.03 0 0 6.8 6.29 17.12 1.76 0 0 13.34 4.53 19.88-.76 0 0 12.33 2.77 18.12-4.28 0 0 12.33 2.27 17.87-8.05 0 0-10.32 1.01-12.58-9.06-2.27-10.07 3.02-16.61 9.31-29.45s7.63-43.21-6.72-60.67C138 23.03 120.78 21.03 106.94 24.3z" fill="#ffffff" stroke-width="none" opacity="1"></path><path id="SvgjsPath14444" d="M161.96 138.33c-.39.03-9.46.82-11.51-8.29-1.74-7.73 1.21-13.35 5.68-21.85 1.14-2.17 2.31-4.4 3.56-6.94 6.69-13.64 7.34-44.48-6.85-61.75-15.98-19.44-35.29-18.63-45.67-16.28-3.35-2.4-26.93-17.49-55.29 9.92-28.04 27.11-6.24 67.17 1.97 82.25.76 1.4 1.42 2.6 1.86 3.49 2.75 5.51.28 11.15-2.68 14.32-2.95 3.15-6.73 4.41-9.63 3.19a.983.983 0 0 0-1.08.21.99.99 0 0 0-.23 1.08c.04.11 4.38 10.84 16.81 8.5 1.39.92 6.33 3.71 12.67 1.64 1.47 1.89 6.41 6.72 17.26 3.93 1.7 1.34 8.17 5.6 17.41 1.73 1.34.42 5.95 1.75 10.81 1.75 3.28 0 6.68-.6 9.27-2.5 2.35.44 12.66 1.94 18.28-4.29 2.61.3 13.24.87 18.35-8.64a1.003 1.003 0 0 0-.99-1.47zm-35.68 12.35h-.02c-8.79-14.39-6.01-29.95 2.94-43.53 7.69-11.65 15.47-22.65 17.27-36.9 1.48-11.68-1.38-24.28-9.42-33.15-7.63-8.42-19.33-12.32-30.4-9.51-.78.2-.45 1.4.33 1.21 14.01-3.56 27.96 4.17 34.33 16.77 6.95 13.75 4.71 29.92-1.98 43.29-5.44 10.87-14.63 19.83-18.29 31.59-3.22 10.34-1.51 21.51 4.03 30.7-6.17 4.46-18.46.37-18.59.33a.86.86 0 0 0-.32-.05c-.14 0-.27.03-.4.08-9.56 4.2-15.78-1.34-16.03-1.58a.983.983 0 0 0-.94-.23c-9.6 2.64-14.02-1.15-15.45-2.83 19.14-18.95-7.66-49.08-15.14-67.15-5.88-14.2-5.58-29.87 5.1-41.76 10.02-11.16 26.18-14.06 39.85-8.51.74.3 1.07-.91.33-1.21-23.15-9.4-49.66 6.65-50.6 32.05-.51 14.29 7.37 27.01 14.22 38.95 7.52 13.09 18.3 33.52 5.47 46.6a.988.988 0 0 0-.98-.16c-6.66 2.52-11.66-1.21-11.87-1.37-.04-.03-.09-.04-.13-.06 9.1-4.79 10.11-16.67 6.76-25.9-2.5-6.88-6.88-12.89-10.48-19.21-4.19-7.36-7.76-15.14-9.67-23.42-3.66-15.89-.1-32.51 12.3-43.64 12.69-11.4 31.22-13.18 46.26-5.51.13.21.36.35.67.29 13.89-2.92 28.34.72 37.68 11.81 10.11 12 10.67 27.28 6.25 41.76-6.36 20.83-22.78 46.64-6.54 66.96-5.55 5.65-16.43 3.31-16.54 3.29zm18.09-4.29c-.23-.04-.47.01-.67.12-20.55-25.64 11.36-57.88 9.71-85.41-.67-11.08-6.17-21.72-14.87-28.63-9.34-7.42-21.53-9.2-32.99-6.9l-.03-.03C81.36 13.16 50.88 26.11 44.65 53c-3.42 14.76 1.17 29.85 8.02 42.9 4.12 7.85 9.87 15.12 12.74 23.57 3.15 9.26 1.75 21.37-8.96 24.75-.16.05-.27.15-.34.27-6.23.27-9.63-3.34-11.16-5.67 3.19.32 6.67-1.2 9.53-4.26 3.4-3.63 6.22-10.15 3.01-16.58-.46-.92-1.12-2.14-1.89-3.55-8.01-14.71-29.29-53.8-2.34-79.85 29.18-28.2 52.08-10.28 53.04-9.51.24.19.56.27.86.2 11.98-2.83 29.38-2.45 44.12 15.5 13.69 16.67 13.05 46.43 6.6 59.6-1.23 2.51-2.4 4.74-3.53 6.89-4.51 8.58-7.76 14.77-5.86 23.22 1.82 8.08 8.5 9.58 11.79 9.82-5.41 7.89-15.47 6.17-15.91 6.09z" fill="#000000" stroke-width="none" opacity="1"></path></g></g><g id="svga-group-humanbody-back"><path id="SvgjsPath13956" d="M86.5 122c0 18.8 2.7 50.3-8.1 58s-31.8 13.9-36.7 24.4-3.6 14.4-3.6 14.4h124.1s.6-8.1-4.2-15.4c-6.6-10.1-28.5-17.7-36.5-22.9-8.1-5.2-10.9-32.2-10.9-58.8l-24.1.3z" fill="#ffffff" stroke-width="none" opacity="1"></path></g><g id="svga-group-chinshadow-single"></g><g id="svga-group-humanbody-front"><path id="SvgjsPath13957" d="M163.4 220.1H37.2l-.3-.9c-.1-.5-1.3-4.7 3.6-15.3 3.4-7.3 13.6-12.4 23.5-17.4 5.1-2.5 9.9-5 13.6-7.5 8.6-6 8.1-29.8 7.7-47.1-.1-3.5-.1-6.8-.1-9.8v-1.3l26.7-.4v1.3c0 32 3.8 53.5 10.3 57.7 2.4 1.6 6 3.3 10.2 5.4 9.7 4.7 21.9 10.6 26.7 18 5 7.6 4.4 15.9 4.4 16.2l-.1 1.1zm-124.1-2.6h121.6c-.1-2.4-.6-8.2-4-13.4-4.4-6.7-16.2-12.5-25.6-17-4.3-2.1-8-3.9-10.5-5.5-9.8-6.3-11.4-38.8-11.5-58.6l-21.5.4c0 2.6.1 5.5.1 8.5.4 18.9.9 42.4-8.8 49.3-3.8 2.7-8.7 5.1-13.9 7.7-9.5 4.8-19.4 9.7-22.3 16.1-3.3 6.9-3.7 10.9-3.6 12.5z" fill="#000000" stroke-width="none" opacity="1"></path><path id="SvgjsPath13958" d="M76.8 188.7c4.8 2.3 10.4 3.9 15.7 2.9.4-.1.4-.7 0-.8-5.1-.9-10.2-1.4-15.2-3.2-.6-.2-1.1.8-.5 1.1z" fill="#000000" stroke-width="none" opacity="1"></path><path id="SvgjsPath13959" d="M108.3 191.1c2.4.3 4.9-.4 7.1-1.2 2.1-.8 4.3-1.7 5.8-3.4.5-.5-.1-1.2-.7-.9-2.1.9-3.9 2.3-6.1 3-2 .7-4.1 1-6.2 1.5-.6.1-.4.9.1 1z" fill="#000000" stroke-width="none" opacity="1"></path></g><g id="svga-group-clothes-single"><path id="SvgjsPath14385" d="M83.8 167.6s-3.1 3.3-4.9 5.2-2.5 3.6-2.5 3.6v2.2s-6.5 5.1-11.4 6.3c-4.9 1.3-20.3 10.3-20.3 10.3s-9.6 9.1-8.7 24.3h127.9s1.1-11.4-4.9-18.7-34.2-19.9-34.6-21c-.4-1.1-.5-3.6-3.4-6.5s-5.1-6.7-6-7.1c0 0 1.6 6 1.6 9.8s.5 6.5-1.6 7.6-9.8 4.5-10.7 5.8-1.1 4.5-2.2 7.2c0 0-2.9-6.5-5.4-7.4s-5.6-.4-7.4-2.2-5.3-9.1-5.3-12c0-2.9-.2-7.4-.2-7.4z" fill="#ffffff" stroke-width="none" opacity="1"></path><path id="SvgjsPath14386" d="M159.8 200.3c-4.2-5.1-18.4-12.4-27.7-17.3-2.9-1.5-5.8-3-6.6-3.6-.1-.5-.2-1-.2-1.4h-.2c-.4-1.4-1.2-3.3-3.3-5.4-1.4-1.4-2.7-3.1-3.8-4.5-1.3-1.7-1.9-2.5-2.6-2.8-.3-.1-.8-.1-1 .2-.3.2-.4.6-.3 1 0 .1 1.6 5.9 1.6 9.5v1.9c.1 2.8.1 4.2-1.1 4.8l-1.8.9c-2.1 1-3.8 1.9-5.2 2.6-.2 0-.3.1-.4.1v.1c-2 1.1-3.3 1.9-3.7 2.5-.6.8-.9 2.2-1.2 3.7-.1.5-.2.9-.3 1.4-1.2-2.1-3-5-4.9-5.7-1.1-.4-2.2-.5-3.2-.7-1.6-.2-3-.4-3.8-1.3-1.7-1.7-5-8.9-5-11.4 0-2.9-.2-7.4-.2-7.5 0-.4-.3-.8-.7-.9-.4-.1-.8 0-1.1.2 0 0-3.1 3.3-4.9 5.3-1.9 2.1-2.7 3.8-2.7 3.9-.1.1-.1.3-.1.4v1.7c-1.4 1.1-6.7 4.8-10.7 5.9-5 1.3-19.9 10.1-20.5 10.4-.1 0-.1.1-.2.1-.4.4-9.9 9.6-9 25.1 0 .5.5.9 1 .9h127.9c.5 0 .9-.4 1-.9 0-.3 1-11.7-5.1-19.2zm-8.1 17.2c.9.4 1.9.7 2.9 1.1h-2.9v-1.1zm9.4-10.9c-2.7-1.5-5.4-3-8-4.7.1-.6.2-1.1.4-1.7 2.1 1.2 4.1 2.4 6.3 3.5.4.9.9 1.9 1.3 2.9zm-8.1-4.3c2.6 1.9 5.3 3.6 8.3 4.9.3.9.6 1.8.8 2.6-3.2-1.5-6.4-2.9-9.5-4.7.1-1 .2-1.9.4-2.8zm6.2.6c-1.9-1.1-3.8-2-5.6-3.1.2-.6.4-1.2.6-1.9 1.1.8 2 1.5 2.8 2.2-.8-.5-1.6-.9-2.4-1.3-.2-.1-.3.2-.1.3 1.1.6 2.1 1.3 3.3 1.7.2.2.4.4.6.7.2.5.5.9.8 1.4zm-6.8-6.1c-1.1 2.9-1.6 6.1-1.9 8.9l-.3 2.4c-.4 2.9-.5 8.2-.4 10.5h-44c0-4.4-2.2-8.7-1.8-13 .5-4.7 4.3-7.5 5.1-12 1.8-.8 3.5-1.9 4.9-3.2.2.2.3.4.5.6 1.2 1.4 2.7 3.1 4.7 4.9 3.4 3.3 8.6 5.2 8.8 5.3.1 0 .2.1.4.1s.5-.1.6-.2c.3-.2.4-.6.3-1 0-.1-1.9-8.9-2.6-12.4-.4-1.9-.6-3.9-.8-5.7 1.1.6 2.8 1.5 5.4 2.8 5.9 3.1 14.9 7.8 21.1 12zm-53.1 7.1c-.2-1.1-.1-1.2.7-1.9.3-.2.6-.6 1-1 1.4-1.5 2-3.1 2.1-4.1.3-.7.5-1.5.7-2.3 1.6 0 3.2-.3 4.7-.9-1.2 3.7-4.4 6.4-5.1 10.3-.8 4.9 1.7 9.6 1.6 14.5h-4.8c0-2.5-.5-12.6-.9-14.6zm6.6-14.5c.6-.4 1.4-.8 2.3-1.3h.9c.1 1.4.2 2.9.5 4.2-.5.2-.9.4-1.4.6.1-1.4-.2-2.9-.3-4.3 0-.2-.4-.2-.4 0 .1.7.1 1.5.1 2.3-.2-.3-.5-.6-.9-.6-.2 0-.4.1-.5.1-.1-.2-.2-.6-.3-1zm7.5.5s0-.1 0 0c0-.1 0-.1 0 0zm-.5-.6c0 .3.1.6.1.9-.2.2-.5.4-.8.6-.1-.8-.3-1.5-.3-2.2.2.1.4.2.5.3.2 0 .3.2.5.4zm-3 2.9c0-1.4-.2-2.7-.4-4.1.3 0 .6 0 .9.1.1 1.1.2 2.4.6 3.4-.4.2-.7.4-1.1.6zm1.4-.8c0-1.1-.3-2.1-.5-3.2.3 0 .5.1.7.1 0 .9.1 1.8.4 2.6-.2.2-.4.4-.6.5zm-4.7 1.2c.5 0 .9-.3 1-.7 0 .4.1.8.2 1.2-.4.2-.9.3-1.3.4 0-.3 0-.6-.1-1 .1.1.2.1.2.1zm7-7.2c.7-.4 1.4-.6 1.8-.9 2.4-1.2 2.3-3.7 2.2-6.6V176c0-1.8-.3-4.1-.7-6 .9 1.3 2.1 2.7 3.4 4 2.2 2.2 2.7 4.1 3 5.4.1.3.1.6.2.8 0 .1 0 .1.1.1.1.5.1 1.1.2 1.7.2 1.8.5 3.9.9 5.9.5 2.5 1.6 7.7 2.2 10.6-1.7-.8-4.4-2.3-6.3-4.1-1.9-1.8-3.4-3.5-4.5-4.8-.9-1-1.6-1.8-2.1-2.3-.5-.4-1.3-.8-2.1-.9.5-.4 1.2-.7 1.7-1zm-7.9 4.2c0 .4.1.8.1 1.2-.2.2-.2.4-.2.7 0 .4.2.6.4.8.1.4.1.9.2 1.3l-1.2.3c0-.5-.1-.9-.2-1.4s-.1-.9-.3-1.4c.1-.5.3-.9.5-1.1.2-.1.4-.2.7-.4zm-1.4 2.6c0 .1 0 .2.1.3.1.5.2 1 .3 1.4-.3.1-.6.1-.8.2.1-.4.2-.8.3-1.1 0-.2.1-.5.1-.8zm-4.9 1.7c0-.1 0-.2-.1-.3.1.1.1.2.2.3h-.1zm-1-1.6c.2.6.3 1.1.6 1.7h-1.1c-.1-1-.4-2.1-.7-3.1.4.3.8.8 1.2 1.4zm-1.7-1.9c.2 1.1.4 2.3.7 3.4-.3 0-.6 0-.9-.1-.2-1.2-.5-2.5-.7-3.7.2.1.4.1.6.2 0 .1.2.2.3.2zm-1.6 3.2c-.1-.5-.3-1-.4-1.5-.2-.8-.2-1.5-.3-2.3.3 0 .6.1.8.1.1 1.2.3 2.6.7 3.8-.2 0-.5 0-.8-.1zm-1.1-3.8c0 1.2.1 2.6.6 3.8-.5-.1-.9-.2-1.4-.3-.2-1.2-.4-2.4-.4-3.6.3 0 .5.1.8.1.1-.1.3-.1.4 0zm-5.4.7c0 .4.1.9.2 1.3-.3-.1-.7-.3-1-.4.3-.3.5-.6.8-.9zm.3-.4c.2-.3.4-.5.6-.7.1 1 .2 2 .6 2.9l-.9-.3c0-.6-.1-1.3-.3-1.9zm1.5 2.3c0-1.1-.3-2.3-.5-3.4l.1-.1c.3.1.5.2.8.3.1 1.2.2 2.4.5 3.6-.3-.2-.6-.3-.9-.4zm1.1.4c0-1.2-.1-2.3-.3-3.5.4.1.7.2 1.1.2-.1 1.2 0 2.5.5 3.6-.4-.1-.8-.2-1.3-.3zm-11.8-19.3c.9-1 2.2-2.4 3.2-3.5.1 1.5.1 3.5.1 5 0 3.1 3.3 10.5 5.4 12.7-1 1.1-3.3 3.9-5.1 5.6-1.5 1.4-5.2 4.2-7.6 6 .6-3.3 1.6-9.1 1.9-11.8.3-2.5.2-6.1.2-8.6v-2.6h-.2c.4-.7 1.1-1.7 2.1-2.8zm-14.5 12.4c3.8-1 8.5-4.2 10.7-5.7 0 2.3 0 5.1-.2 7-.4 3.8-2.3 14.1-2.3 14.2-.1.4.1.8.4 1 .2.1.3.1.5.1s.4-.1.6-.2c.3-.2 7.4-5.4 9.8-7.7.9-.8 1.9-1.9 2.8-2.9 2.3 1.3 4.9 2.1 7.5 2.5.1.1.2.1.2 0 .3.1.7.1 1 .1.1.1.1.3.2.4.1.1.3 0 .2-.1 0-.1 0-.2-.1-.3.3 0 .7 0 1 .1 0 .1 0 .1.1.2s.3.1.3 0v-.1h1.9c.4.8.8 1.6 1.2 2.3-.1.5-.5 1.7-1.6 2.8-.3.3-.6.6-.9.8-1 .9-1.7 1.7-1.3 3.8.3 1.6.7 9.7.9 14.3H53.6c-.1-2.1-.5-7.9-1.5-13.4-1.1-6.3-2.3-9.6-3-11.3 4.9-2.7 12.9-7 16.1-7.9zM47 218.5c-3.4-1.2-6.7-2.6-9.8-4.3.2-1.8.5-3.5 1-5 3.9 2.5 8.1 4.7 12.5 6.2.2.1.3-.3.2-.4-4.2-1.9-8.4-3.9-12.5-6.2.7-2.4 1.6-4.5 2.6-6.3 2.9 2.1 6.2 4.2 9.8 5.1.2 1.1.3 2.2.5 3.3 0 0 0-.1-.1-.1-3.9-1.5-7.7-2.9-11.4-5-.1-.1-.2.1-.1.2 3.4 2.3 7.3 4.3 11.4 5.1.1 0 .2 0 .2-.1.4 3.4.6 6.2.7 7.7h-5v-.2zm-4.6-18.7c2.3 1.8 4.9 3.4 7.6 4.5.1.4.2.9.2 1.3.1.5.2.9.2 1.4-3.3-1.5-6.4-2.9-9.4-4.9.5-.9.9-1.7 1.4-2.3zm1.4-2c1.8 1.1 3.6 2.2 5.4 3.1.2.8.4 1.8.6 2.8-2.5-1.3-4.9-2.6-7.2-4.2.5-.7.9-1.3 1.2-1.7zm4.4-.7c-.7-.5-1.5-.9-2.2-1.4.4-.2.9-.5 1.5-.8.2.5.4 1.2.7 2.2zm-2.9-1c.1 0 .2-.1.3-.1 1 .6 1.9 1.3 2.9 1.9.2.7.4 1.5.6 2.4-1.6-1-3.3-1.9-5-2.8.6-.8 1-1.2 1.2-1.4zm-8.4 20.6c1.3.6 2.7 1.1 4.1 1.6.1 0 .2-.1.1-.2-1.3-.7-2.8-1.3-4.2-1.9 0-.6.1-1.1.1-1.7 2.9 1.8 6 3.2 9.4 4.1h-9.5v-1.9zm126 1.9h-7.1c-1.3-.6-2.7-1.1-4.1-1.5 0-1 0-2.1.1-3.4 2.5 1.4 5.1 2.8 7.9 3.7.2.1.3-.2.1-.3-2.7-1.3-5.4-2.5-8-3.8 0-1 .1-2 .1-2.9 2.9 2.1 6.2 3.9 9.6 4.9.2.1.3-.2.1-.3-3.4-1.4-6.6-2.9-9.6-5h-.1c.1-.6.1-1.1.2-1.6 0-.2.1-.5.1-.8 3.2 1.8 6.5 3.7 9.8 5.2.2.1.4-.2.2-.3-3.2-2-6.6-3.7-9.9-5.4.1-.4.1-.8.2-1.2 0-.2 0-.3.1-.5 2.9 1.9 6.1 3.6 9.4 4.5.1 0 .1 0 .1-.1.9 3.8.9 7.2.8 8.8zm-61.8-15.8c.6 0 1.1.5 1.1 1.1s-.5 1.1-1.1 1.1-1.1-.5-1.1-1.1.5-1.1 1.1-1.1zm.9 12.4c.6 0 1.1.5 1.1 1.1s-.5 1.1-1.1 1.1-1.1-.5-1.1-1.1.5-1.1 1.1-1.1zm-64.4-3.3c-.2-.1-.3.2-.2.3 3.9 2.3 8.1 4.4 12.4 5.8.2.1.3-.2.1-.3-4.1-1.9-8.2-3.7-12.3-5.8z" fill="#0e0f0f" stroke-width="none" opacity="1"></path></g><g id="svga-group-head" transform="matrix(1,0,0,1,0,0)"><g id="svga-group-ears-left-move" transform="matrix(1,0,0,1,0,0)"><g id="svga-group-ears-left" transform="matrix(1,0,0,1,0,0)"><path id="SvgjsPath14281" d="M63.9 77.8s-2.5-2.4-5.4-3.5c-2.9-1.1-6.1.7-7.1 3.7-1 2.9 1.3 15.1 5 19.5s6.2 4.8 8.7 2.5c2.6-2.4 7-10.8-1.2-22.2z" fill="#ffffff" stroke-width="none" opacity="1"></path><path id="SvgjsPath14282" d="M61.8 102.3c-1.9-.1-3.8-1.5-6.1-4.2-3.9-4.7-6.3-17.1-5.2-20.5.6-1.8 1.9-3.3 3.6-4.1 1.5-.7 3.2-.8 4.8-.2 3.1 1.2 5.6 3.6 5.7 3.7l.1.1c8.7 12.2 3.5 21.2 1.1 23.5-1.2 1.1-2.4 1.6-3.7 1.6-.1.1-.2.1-.3.1zm-3.6-27.1c-1.3-.5-2.5-.2-3.2.1-1.2.6-2.1 1.6-2.6 2.9-.8 2.5 1.3 14.3 4.9 18.5 1.9 2.3 3.4 3.4 4.7 3.5.8.1 1.6-.3 2.5-1.1 2.1-1.9 6.5-9.8-1.3-20.7-.4-.3-2.6-2.2-5-3.2z" fill="#000000" stroke-width="none" opacity="1"></path><path id="SvgjsPath14283" d="M55.2 77.4c3.3.6 5.4 6.1 6 9.8.1.1.1.2.2.3.4.6-.4 1.2-.8.6-.5-.8-1-1.6-1.8-1.9-1.4-.5-2.1 1.1-1.8 2.6.4 1.9 1.6 3 2.6 4.4.1.1 0 .3-.1.2-1.7-1-4.3-4.8-3.1-7.2.9-1.7 2.3-1.4 3.4-.4-.8-2.1-1.4-4.3-3-5.9-.5-.5-1.5-1.4-2.2-1.3-1.3.2-1.3 2.1-1.3 3.4-.1 1.7.1 3.4.4 5 0 .2-.2.2-.3.1-.6-2.4-2-10.4 1.8-9.7z" fill="#000000" stroke-width="none" opacity="1"></path></g></g><g id="svga-group-ears-right-move" transform="matrix(1,0,0,1,0,0)"><g id="svga-group-ears-right" transform="matrix(1,0,0,1,0,0)"><path id="SvgjsPath14284" d="M136.1 77.8s2.5-2.4 5.4-3.5c2.9-1.1 6.1.7 7.1 3.7 1 2.9-1.3 15.1-5 19.5s-6.2 4.8-8.7 2.5c-2.6-2.4-7-10.8 1.2-22.2z" fill="#ffffff" stroke-width="none" opacity="1"></path><path id="SvgjsPath14285" d="M137.9 102.3c-1.3 0-2.5-.5-3.7-1.6-2.5-2.2-7.6-11.3 1.1-23.5l.1-.1c.1-.1 2.7-2.5 5.7-3.7 1.5-.6 3.2-.5 4.8.2 1.7.8 3 2.3 3.6 4.1 1.1 3.3-1.3 15.8-5.2 20.5-2.3 2.7-4.2 4.1-6.1 4.2-.1-.1-.2-.1-.3-.1zm-1.1-23.9c-7.8 10.9-3.4 18.8-1.3 20.7.9.8 1.7 1.2 2.5 1.1 1.3-.1 2.8-1.2 4.7-3.5 3.5-4.2 5.7-16.1 4.9-18.5-.4-1.3-1.4-2.4-2.6-2.9-.7-.3-1.9-.6-3.2-.1-2.4 1-4.6 2.9-5 3.2z" fill="#000000" stroke-width="none" opacity="1"></path><path id="SvgjsPath14286" d="M144.8 77.4c-3.3.6-5.4 6.1-6 9.8-.1.1-.1.2-.2.3-.4.6.4 1.2.8.6.5-.8 1-1.6 1.8-1.9 1.4-.5 2.1 1.1 1.8 2.6-.4 1.9-1.6 3-2.6 4.4-.1.1 0 .3.1.2 1.7-1 4.3-4.8 3.1-7.2-.9-1.7-2.3-1.4-3.4-.4.8-2.1 1.4-4.3 3-5.9.5-.5 1.5-1.4 2.2-1.3 1.3.2 1.3 2.1 1.3 3.4.1 1.7-.1 3.4-.4 5 0 .2.2.2.3.1.6-2.4 2-10.4-1.8-9.7z" fill="#000000" stroke-width="none" opacity="1"></path></g></g><g id="svga-group-faceshape-wrap" transform="matrix(1,0,0,1,0,0)"><g id="svga-group-faceshape-single"><path id="SvgjsPath14268" d="M138.2 58.2c-2-10.8-13.3-27.4-37.2-27.4S69.1 43.5 65.5 53c-3 8.1-3 21.3-3 21.3s3 33.8 5.2 39.8c2.1 5.9 18.2 24.2 20.8 25.9 2.5 1.7 17.4 3 19.1 2.5 1.7-.4 26.3-26.3 27.6-29.7 1.3-3.4 4.4-32.9 4.3-38.5-.1 0 .1-8.4-1.3-16.1z" fill="#ffffff" stroke-width="none" opacity="1"></path><path id="SvgjsPath14269" d="M106.3 143.9c-4.4 0-16.1-1.1-18.6-2.8-2.8-1.8-19.1-20.3-21.3-26.5-2.2-6-5.1-38.7-5.2-40.1v-.1c0-.6 0-13.6 3.1-21.8 5.8-15.5 17.8-23 36.7-23 10.9 0 20.5 3.4 27.7 10 5.5 5 9.6 11.9 10.8 18.5 1.4 7.6 1.2 15.7 1.2 16.4.1 6-3.1 35.4-4.4 38.9-.9 2.4-10 12.3-13.9 16.4-3.3 3.5-6.6 6.9-9.1 9.4-4.5 4.4-5 4.6-5.4 4.7h-1.6zM63.8 74.3c.1 1.6 3.1 33.8 5.1 39.4 2 5.6 18 23.7 20.3 25.2 2.1 1.4 15.8 2.7 18 2.4 2.6-1.7 25.7-26 26.8-28.9 1.2-3.1 4.3-32.6 4.2-38 0-.1.2-8.4-1.2-15.9-1.1-6-4.8-12.4-10-17-6.7-6.1-15.7-9.3-26-9.3-17.7 0-28.9 7-34.3 21.3-2.8 7.5-2.9 19.9-2.9 20.8z" fill="#000000" stroke-width="none" opacity="1"></path></g></g><g id="svga-group-mouth-single-move" transform="matrix(1,0,0,1,0,0)"><g id="svga-group-mouth-single" transform="matrix(1,0,0,1,0,0)"><path id="SvgjsPath14345" d="M111.66 121.52c-.08.1-.16.18-.25.26-.64-1.77-1.43-3.67-3.08-4.7-2.15-1.33-4.67-.5-6.96-.16-2.09.31-3.67-.36-5.68-.59-.93-.11-1.82.01-2.7.37-2.32.95-3.7 3.14-4.92 5.21-.07-.04-.14-.08-.2-.13-.42-.34-1.03.26-.6.6.59.47 1.25.71 1.94.79.01.01 0 .03.02.04 3.11 2.87 7.3 3.7 11.43 3.43 2.32-.16 4.68-.55 6.93-1.14 1.37-.36 2.56-1 3.01-2.35.69-.19 1.31-.57 1.79-1.2.34-.43-.4-.86-.73-.43zm-18.05-4.58c2.21-.66 4.3.67 6.53.56 2.35-.11 4.78-1.27 7.11-.46 2.17.76 3.1 3.02 3.81 5.02-1.69 1.09-4.58-.11-6.25-1.12.24-.12.49-.25.72-.39.47-.27.05-1.01-.43-.74-3.6 2.08-7.94 2.19-11.63.28-.49-.25-.92.48-.43.74.29.15.58.28.87.41-1.63.72-3.88 1.55-5.46.87 1.24-2.08 2.69-4.44 5.16-5.17zm11.86 8.59c-2.02.4-4.06.72-6.12.74-3.43.04-6.82-.82-9.46-3.06 1.76-.02 3.66-.87 5.14-1.55 2.9.94 6.01.84 8.84-.3l.01.01c1.55 1.05 4.11 2.2 6.2 1.89-.76 1.65-2.96 1.94-4.61 2.27z" fill="#000000" stroke-width="none" opacity="1"></path></g></g><g id="svga-group-eyes-left-move" transform="matrix(1,0,0,1,0,0)"><g id="svga-group-eyes-left" transform="matrix(1,0,0,1,0,0)"><g id="svga-group-eyesback-left"></g><g id="svga-group-eyesiriswrapper-left"><g id="svga-group-eyesiriscontrol-left" transform="matrix(1,0,0,1,0,0)"><g id="svga-group-eyesiris-left" transform="matrix(1,0,0,1,0,0)"><path id="SvgjsPath14313" d="M77.3 84.3c-1.4 1.8-1.2 4.1.4 5.5 1.7 1.5 4.5 1.9 6.5.1 1-1 1.7-2.4 1.4-3.7-.1-.4-.3-.9-.5-1.3-.2-.5-.5-1-.9-1.4-2-1.7-5.2-1.3-6.9.8z" fill="#ffffff" stroke-width="none" opacity="1"></path><path id="SvgjsPath14314" d="M81.8 89c0-.1-.1-.1-.1-.2 0-.2 0-.3.1-.5s.4-.4.7-.4c.2 0 .3.1.5.2l.2.2c.3-.3.5-.8.5-1.3s-.2-.9-.5-1.2c-.2-.6-.7-1.1-1.4-1.3-.4-.1-.8-.1-1.2 0 .3.7 0 1.7-1 1.7-.3 0-.5-.1-.7-.2-.4.9-.2 2 .6 2.7.6.5 1.5.6 2.3.3zm-.7 2.4c-1.3 0-2.7-.5-3.6-1.4-1.7-1.5-1.8-4.1-.4-5.9.9-1.1 2.2-1.8 3.7-1.9 1.3-.1 2.6.3 3.5 1.1.4.4.8.9 1 1.4.2.4.4.9.6 1.3.3 1.3-.3 2.9-1.4 4-1.2 1-2.3 1.4-3.4 1.4zm-3.6-6.9c-1.3 1.6-1.1 3.8.3 5.1 1.6 1.4 4.2 1.8 6.1.1 1-1 1.5-2.4 1.3-3.5-.1-.4-.3-.8-.5-1.2v-.1c-.2-.5-.5-.9-.8-1.2-.8-.7-1.9-1.1-3.1-1-1.3.2-2.5.8-3.3 1.8z" fill="#000000" stroke-width="none" opacity="1"></path></g></g></g><g id="svga-group-eyesfront-left"><path id="SvgjsPath14404" d="M81 74.4c-6.9 0-12.5 5.6-12.5 12.5S74.1 99.4 81 99.4s12.5-5.6 12.5-12.5S87.9 74.4 81 74.4zm1.8 17.3c-4.1 1.3-7.8.9-9.3.1S71.2 88 71.2 88c3.2-2.5 9-4.7 12.3-5.3 3.4-.6 4.4 1.3 4.9 2.1.6.8 1.2 4.7 1.2 4.8.1 0-2.7.8-6.8 2.1z" fill="#ffffff" stroke-width="none" opacity="1"></path><path id="SvgjsPath14405" d="M91.8 83.7c-.1-.3-.5-.3-.5 0-.3 1.3-.3 2.7-.7 4-.1.5-.3 1-.6 1.5-.1-1.3-.5-3.3-1.4-4.6-.1-.2-.2-.3-.3-.5l2.2-1.5c.2-.1.3-.4.1-.6-.1-.2-.4-.3-.6-.1l-2.2 1.5c-.3-.4-.7-.7-1.1-.9l1.3-1.9c.1-.2.1-.5-.1-.6s-.5-.1-.6.1l-1.4 2.2c-.4 0-.8-.1-1.3 0h-.5c.1-.5.1-1.2.2-1.8 0-.3-.1-.5-.4-.5s-.5.1-.5.4c-.1.4-.2 1.5-.3 2.1-.7.1-1.7.3-2.8.6l-.2-1.4c0-.3-.3-.4-.5-.4-.3 0-.4.3-.4.5l.2 1.6c-1.1.4-2.4.9-3.8 1.6l-.9-1.7c-.1-.2-.4-.3-.6-.2-.2.1-.3.4-.2.6l.9 1.7c-.6.3-1.1.6-1.7 1l-.7-.7c-.2-.2-.5-.2-.7 0s-.2.5 0 .7l.6.6c-.8.6-1.7 1.2-2.5 1.9-.2.2-.2.4-.1.6.2.2.4.2.6.1.2-.2.4-.3.6-.5 0 .2.2.6.4 1.1l-2.4.8c-.2.1-.3.4-.2.6.1.2.2.3.4.3h.2l2.5-1.1c.1.2.3.4.5.6l-2 1.3c-.2.1-.3.4-.1.6.1.1.2.2.4.2.1 0 .2 0 .3-.1L73 92c.3.2.6.4 1 .6l-1.4 1.6c-.2.2-.2.5 0 .7.1.1.2.1.3.1.1 0 .3-.1.3-.2l1.6-1.8c.5.1 1 .2 1.6.2h.4c3.9 0 9.8-2 11.7-2.7.3-.1.5-.2.6-.2 0 .2.1.3.2.4-.1.3-.2.5-.3.8-.1.3.3.4.5.3 1.8-1.8 2.9-5.7 2.3-8.1zm-2.6 5.6c-.1 0-.1 0-.8.2-2 .7-8.1 2.8-11.8 2.7-4.1-.2-4.7-3.6-4.7-3.7s-.1-.2-.1-.3C78.5 83.3 84 83 84.7 83c1.8-.1 2.1.1 3.4 2 .6 1.3 1 3.2 1.1 4.3 0 .1 0 0 0 0z" fill="#000000" stroke-width="none" opacity="1"></path></g></g></g><g id="svga-group-eyes-right-move" transform="matrix(1,0,0,1,0,0)"><g id="svga-group-eyes-right" transform="matrix(1,0,0,1,0,0)"><g id="svga-group-eyesback-right"></g><g id="svga-group-eyesiriswrapper-right"><g id="svga-group-eyesiriscontrol-right" transform="matrix(1,0,0,1,0,0)"><g id="svga-group-eyesiris-right" transform="matrix(1,0,0,1,0,0)"><path id="SvgjsPath14315" d="M115.8 84.3c-1.4 1.8-1.2 4.1.4 5.5 1.7 1.5 4.5 1.9 6.5.1 1-1 1.7-2.4 1.4-3.7-.1-.4-.3-.9-.5-1.3-.2-.5-.5-1-.9-1.4-2.1-1.7-5.3-1.3-6.9.8z" fill="#ffffff" stroke-width="none" opacity="1"></path><path id="SvgjsPath14316" d="M120.2 89c0-.1-.1-.1-.1-.2 0-.2 0-.3.1-.5s.4-.4.7-.4c.2 0 .3.1.5.2l.2.2c.3-.3.5-.8.5-1.3s-.2-.9-.5-1.2c-.2-.6-.7-1.1-1.4-1.3-.4-.1-.8-.1-1.2 0 .3.7 0 1.7-1 1.7-.3 0-.5-.1-.7-.2-.4.9-.2 2 .6 2.7.7.5 1.6.6 2.3.3zm-.7 2.4c-1.3 0-2.7-.5-3.6-1.4-1.7-1.5-1.8-4.1-.4-5.9.9-1.1 2.2-1.8 3.7-1.9 1.3-.1 2.6.3 3.5 1.1.4.4.8.9 1 1.4.2.4.4.9.6 1.3.3 1.3-.3 2.9-1.4 4-1.1 1-2.2 1.4-3.4 1.4zm-3.5-6.9c-1.3 1.6-1.1 3.8.3 5.1 1.6 1.4 4.2 1.8 6.1.1 1-1 1.5-2.4 1.3-3.5-.1-.4-.3-.8-.5-1.2v-.1c-.2-.5-.5-.9-.8-1.2-.8-.7-1.9-1.1-3.1-1-1.3.2-2.5.8-3.3 1.8z" fill="#000000" stroke-width="none" opacity="1"></path></g></g></g><g id="svga-group-eyesfront-right"><path id="SvgjsPath14406" d="M119 74.4c-6.9 0-12.5 5.6-12.5 12.5s5.6 12.5 12.5 12.5 12.5-5.6 12.5-12.5-5.6-12.5-12.5-12.5zm7.8 17.5c-1.5.8-5.2 1.2-9.3-.1-4.1-1.3-6.9-2.1-6.9-2.1 0-.1.6-4 1.2-4.8s1.6-2.6 4.9-2.1c3.4.6 9.1 2.8 12.3 5.3.1 0-.7 3-2.2 3.8z" fill="#ffffff" stroke-width="none" opacity="1"></path><path id="SvgjsPath14409" d="m131.5 91-2.4-1.1c.2-.5.3-.9.4-1.1.2.2.4.3.6.5.2.2.5.1.6-.1.2-.2.1-.5-.1-.6-.9-.7-1.7-1.3-2.5-1.9l.6-.6c.2-.2.2-.5 0-.7s-.5-.2-.7 0l-.7.7c-.6-.4-1.2-.7-1.7-1l.9-1.7c.1-.2 0-.5-.2-.6s-.5 0-.6.2l-.9 1.7c-1.4-.7-2.7-1.2-3.8-1.6l.2-1.6c0-.3-.1-.5-.4-.5s-.5.1-.5.4l-.2 1.4c-1.1-.3-2.1-.5-2.8-.6-.1-.6-.2-1.7-.3-2.1 0-.3-.3-.4-.5-.4-.3 0-.4.3-.4.5.1.7.2 1.4.2 1.8h-1.8l-1.4-2.2c-.1-.2-.4-.3-.6-.1-.2.1-.3.4-.1.6l1.3 1.9c-.4.2-.7.5-1.1.9l-2.2-1.5c-.2-.1-.5-.1-.6.1s-.1.5.1.6L112 84c-.1.2-.2.3-.3.5-1.3 2.1-1.6 5.5-1.4 5.9.1.2.2.3.4.3h.1c.2-.1.3-.3.3-.5.1 0 .3.1.6.2 2 .7 7.8 2.7 11.7 2.7h.4c.6 0 1.2-.1 1.6-.2l1.6 1.8c.1.1.2.2.3.2.1 0 .2 0 .3-.1.2-.2.2-.5 0-.7l-1.4-1.6c.4-.2.7-.4 1-.6l2.2 1.4c.1.1.2.1.3.1.2 0 .3-.1.4-.2.1-.2.1-.5-.1-.6l-2-1.3c.2-.2.3-.4.5-.6l2.5 1.1h.2c.2 0 .3-.1.4-.3.2-.2.1-.4-.1-.5zm-7.7 1.3c-3.7.1-9.8-2-11.8-2.7-.6-.2-.7-.2-.8-.2.1-1.1.5-3 1.3-4.3 1.2-1.9 1.6-2 3.4-2 .6 0 6.1.3 12.9 5.2-.1.1-.1.1-.1.3-.2.1-.8 3.5-4.9 3.7z" fill="#000000" stroke-width="none" opacity="1"></path></g></g></g><g id="svga-group-facehighlight-single"></g><g id="svga-group-eyebrows-left-move" transform="matrix(1,0,0,1,0,0)"><g id="svga-group-eyebrows-left-rotate" transform="matrix(1,0,0,1,0,0)"><g id="svga-group-eyebrows-left" transform="matrix(1,0,0,1,0,0)"><path id="SvgjsPath14375" d="M90.6 76.2c.1 0 .2 0 .2.1l1.9 4.8c0 .1 0 .2-.1.2h-.1c-.1 0-.2-.1-.2-.1l-1.9-4.8c0-.1.1-.2.2-.2zM87 73.9c.1-.1.2-.1.3 0 1.5 1.6 2.8 3.3 3.8 5.2.1.1 0 .2-.1.2h-.1c-.1 0-.1 0-.2-.1-1.1-1.8-2.3-3.6-3.8-5.1 0 0 0-.1.1-.2zm-4.4-.9c.1-.1.2-.1.3 0 2 1.3 4 2.8 5.8 4.4.1.1.1.2 0 .3l-.1.1s-.1 0-.1-.1c-1.8-1.6-3.7-3.1-5.7-4.4-.2-.1-.3-.2-.2-.3zm-5.1-.4c0-.1.1-.2.2-.1 2.4.8 4.7 1.8 6.8 3.2.1.1.1.2.1.2 0 .1-.1.1-.2.1h-.1c-2.1-1.3-4.3-2.4-6.7-3.1 0-.1-.1-.2-.1-.3zm-3.8 1.2c0-.1.1-.2.2-.2 2.4 0 4.8.4 6.9 1.3.1 0 .1.2.1.2 0 .1-.1.1-.2.1h-.1c-2.1-.9-4.5-1.3-6.8-1.3 0 0-.1 0-.1-.1zm-4.4 1.9c-.1 0-.2-.1-.2-.1 0-.1 0-.2.2-.2 2.4-.5 4.8-.6 7.2-.5.1 0 .2.1.2.2s-.1.2-.2.2c-2.5-.2-4.9-.1-7.2.4zm-1 1.9c-.1 0-.2-.1-.2-.1 0-.1 0-.2.1-.2l4.6-1.6c.1 0 .2 0 .2.1s0 .2-.1.2l-4.6 1.6c.1 0 .1 0 0 0zm-.5 1.4c.9-.7 1.9-1.2 2.9-1.7.1 0 .2 0 .3.1 0 .1 0 .2-.1.2-1 .4-2 1-2.8 1.6H68c-.1 0-.1 0-.2-.1-.1.1-.1 0 0-.1z" fill="#000000" stroke-width="none" opacity="1"></path></g></g></g><g id="svga-group-eyebrows-right-move" transform="matrix(1,0,0,1,0,0)"><g id="svga-group-eyebrows-right-rotate" transform="matrix(1,0,0,1,0,0)"><g id="svga-group-eyebrows-right" transform="matrix(1,0,0,1,0,0)"><path id="SvgjsPath14376" d="M109.4 76.2c-.1 0-.2 0-.2.1l-1.9 4.8c0 .1 0 .2.1.2h.1c.1 0 .2-.1.2-.1l1.9-4.8c0-.1-.1-.2-.2-.2zm3.6-2.3c-.1-.1-.2-.1-.3 0-1.5 1.6-2.8 3.3-3.8 5.2-.1.1 0 .2.1.2h.1c.1 0 .1 0 .2-.1 1.1-1.8 2.3-3.6 3.8-5.1 0 0 0-.1-.1-.2zm4.4-.9c-.1-.1-.2-.1-.3 0-2 1.3-4 2.8-5.8 4.4-.1.1-.1.2 0 .3l.1.1s.1 0 .1-.1c1.8-1.6 3.7-3.1 5.7-4.4.2-.1.3-.2.2-.3zm5.1-.4c0-.1-.1-.2-.2-.1-2.4.8-4.7 1.8-6.8 3.2-.1.1-.1.2-.1.2 0 .1.1.1.2.1h.1c2.1-1.3 4.3-2.4 6.7-3.1 0-.1.1-.2.1-.3zm3.8 1.2c0-.1-.1-.2-.2-.2-2.4 0-4.8.4-6.9 1.3-.1 0-.1.2-.1.2 0 .1.1.1.2.1h.1c2.1-.9 4.5-1.3 6.8-1.3 0 0 .1 0 .1-.1zm4.4 1.9c.1 0 .2-.1.2-.1 0-.1 0-.2-.1-.2-2.4-.5-4.8-.6-7.2-.5-.1 0-.2.1-.2.2s.1.2.2.2c2.4-.2 4.8-.1 7.1.4zm.9 1.9c.1 0 .1-.1.2-.1 0-.1 0-.2-.1-.2l-4.6-1.6c-.1 0-.2 0-.2.1s0 .2.1.2l4.6 1.6zm.6 1.4c-.9-.7-1.9-1.2-2.9-1.7-.1 0-.2 0-.3.1 0 .1 0 .2.1.2 1 .4 2 1 2.9 1.6h.1c.1 0 .1 0 .1-.1.1.1.1 0 0-.1z" fill="#000000" stroke-width="none" opacity="1"></path></g></g></g><g id="svga-group-nose-single-move" transform="matrix(1,0,0,1,0,0)"><g id="svga-group-nose-single" transform="matrix(1,0,0,1,0,0)"><path id="SvgjsPath14356" d="M106.2 104.7c-.4-.6-1.2 0-.9.5.7 1.2 1.5 2.6 1.5 4.1.1 2.1-2.3 2.6-3.6 1.2-.2-.2-.7-.2-.8.1-1.2 2.2-3.7 2.4-5.1.2-.2-.3-.6-.3-.8-.1-1.2 1.2-3.4.8-3.6-1.1-.2-1.3.5-2.8 1.1-4 .3-.6-.6-1.1-.9-.5-.8 1.7-2 4.4-.7 6.1 1.1 1.4 3 1.5 4.4.6 1.7 2.1 4.6 2.1 6.2-.1 1.4 1 3.5 1 4.5-.6 1.2-2-.3-4.8-1.3-6.4z" fill="#000000" stroke-width="none" opacity="1"></path><path id="SvgjsPath14357" d="M96.7 105.9c-.9-2.1-1.2-4.5-.8-6.8.4-2.1 1.4-4 1.4-6.2 0-1.1-.2-2.2-.2-3.3 0-1.1.4-2.1.5-3.2.1-1.9-.7-3.7-1.5-5.4-.3-.6-1.2-.1-.9.5.5 1 1 2 1.2 3.1.3 1.3 0 2.5-.2 3.8-.3 2.1.3 4.2-.2 6.3-.5 1.9-1.2 3.6-1.3 5.6-.1 2 .2 3.9 1 5.7.3.8 1.3.6 1-.1z" fill="#000000" stroke-width="none" opacity="1"></path><path id="SvgjsPath14358" d="M102.6 89.6c0 1.1-.2 2.2-.2 3.3 0 2.1 1 3.9 1.4 6 .5 2.4.2 4.8-.7 7-.2.6.8.9 1 .3.7-1.8 1.1-3.8 1-5.7-.1-2-.9-3.7-1.3-5.6-.5-2.1.2-4.2-.2-6.3-.2-1.2-.5-2.3-.3-3.5s.8-2.3 1.3-3.4c.3-.6-.6-1.1-.9-.5-.8 1.6-1.6 3.3-1.5 5.1 0 1 .4 2.1.4 3.3z" fill="#000000" stroke-width="none" opacity="1"></path></g></g><g id="svga-group-hair-front" transform="matrix(1,0,0,1,0,0)"><path id="SvgjsPath14441" d="M107.37 39.87s-5.95 18.57-21.67 22.38-24.53 11.91-20 30.96c0 0-8.57-13.1-7.86-29.29.71-16.19 12.14-41.91 50.48-35.48 0 0 14.53-1.67 26.43 13.1s8.33 39.05.71 55.96c0 0 4.52-23.34-5.71-28.1-10.23-4.76-23.57-13.34-22.38-29.53z" fill="#ffffff" stroke-width="none" opacity="1"></path><path id="SvgjsPath14442" d="M135.53 40.91c-11.61-14.39-25.5-13.63-27.18-13.48-15.71-2.61-28.35-.15-37.55 7.3-12.19 9.86-13.76 24.81-13.95 29.15-.05 1.21-.05 2.4-.01 3.58-.01.16-.04.3-.05.46-.01.14.03.25.08.34.72 14.22 7.68 25.01 8 25.51a1 1 0 0 0 1.81-.78c-3.95-16.62 1.81-25.52 19.26-29.75 11.28-2.73 17.63-12.6 20.5-18.51 1.11 10.55 8.65 18.96 22.89 25.59 9.41 4.38 5.2 26.78 5.16 27-.1.5.2.99.68 1.14.1.03.2.05.3.05.38 0 .75-.22.91-.59 7.46-16.57 11.72-41.43-.85-57.01zm5.22 34.93c-1.85-4.77-6.33-8.43-10.91-11.14-4.87-2.89-9.87-5.42-13.68-9.74-3.13-3.55-5.25-7.71-6.49-12.2 6.71 11.37 29.65 12.43 31.63 27.68-.11 1.79-.29 3.59-.55 5.4zm-10.09-20.42c-8.54-4.85-22.81-9.2-21.49-21.46.01-.08 0-.15-.02-.21.15-.88.29-1.77.42-2.66 3.71 14.61 25.03 14.01 31.13 26.8.47 2.7.7 5.5.72 8.35-2.01-4.69-6.15-8.21-10.76-10.82zm3.32-13.25c2.86 3.54 4.8 7.72 5.98 12.27-8.1-10.18-27.26-10.58-29.47-25.02 4.32.17 14.68 1.83 23.49 12.75zm-75.14 21.8c.01-.14.01-.29.02-.45 5.57-17.57 35.77-15.35 39.81-35.04.81.03 1.63.07 2.46.13-3.58 12.07-12.02 21.05-23.46 26.26-7.28 3.32-15.72 6.84-18.75 14.33-.12-1.7-.16-3.45-.08-5.23zm29.01-13.56c7.12-5.49 12.09-13.14 14.58-21.72.89.08 1.79.18 2.7.3-1.08 6.11-2.26 12.51-5.59 17.84-4.47 7.15-12.17 10.08-19.63 13.06-8.39 3.35-17.65 8.12-19.69 17.29-.38-1.54-.7-3.17-.94-4.86 2.3-12.9 19.59-14.99 28.57-21.91zM72.06 36.28c5.92-4.79 13.37-7.38 22.26-7.79-5.28 11.47-21.06 9.63-30.05 16.9 1.88-3.2 4.4-6.37 7.79-9.11zm-9.79 13.06C70.18 38 89.78 42.27 95.68 28.45c.57-.01 1.14-.03 1.73-.02-3.95 17.78-29.81 17.23-38.12 31.21.45-2.83 1.31-6.48 2.98-10.3zm23.2 11.94C69.23 65.22 62.31 73.3 63.65 87.15c-.85-1.89-1.77-4.22-2.58-6.85.6-16.2 20.62-18.01 31.48-24.87 9.36-5.91 11.97-16 13.81-26.27.6.09 1.19.17 1.8.27.09.01.19.02.28.01.01 0 .05-.01.12-.01-.45 3.31-.98 6.58-1.91 9.78-.1.1-.18.22-.22.36-.07.18-5.97 18.08-20.96 21.71zm44.71 7.21c-14.41-6.7-21.58-15.21-21.86-25.95 1.73 6.64 5.4 12.63 10.85 16.97 6.84 5.45 19.8 9.38 21.15 18.98-.7 3.89-1.7 7.74-2.95 11.42.44-7.5-.25-18.19-7.19-21.42z" fill="#000000" stroke-width="none" opacity="1"></path></g><g id="svga-group-glasses-single-move" transform="matrix(1,0,0,1,0,0)"><g id="svga-group-glasses-single" transform="matrix(1,0,0,1,0,0)"></g></g></g></g></g><rect id="svga-credit-rect" width="200" height="15" x="0" y="185" fill="#ecf0f1" opacity="0.5" style="display: none;"></rect><text id="svga-credit-text" font-family="Avenir Next, Roboto, Helvetica, Arial, sans-serif" font-size="10px" text-anchor="start" font-weight="400" size="10px" anchor="start" weight="400" fill="#333333" x="33.402061462402344" y="182.71133995056152" style="display: none;"><tspan id="SvgjsTspan13746" dy="13" x="33.402061462402344">Created on AvatarMaker.com</tspan></text></g></svg>