<svg xmlns="http://www.w3.org/2000/svg" version="1.1" width="600px" height="600px" viewBox="0 0 200 200" style="overflow:hidden!important;"><defs id="SvgjsDefs20938"></defs><g id="svga-group-wrapper"><g id="svga-group-backs-single"></g><g id="svga-group-humanwrap-move" transform="matrix(1,0,0,1,0,0)"><g id="svga-group-humanwrap" transform="matrix(1,0,0,1,0,0)"><g id="svga-group-hair-back-move" transform="matrix(1,0,0,1,0,0)"><g id="svga-group-hair-back" transform="matrix(1,0,0,1,0,0)"><path id="SvgjsPath21607" d="M136 67.2c0-.5-.4-.9-.9-1-6.9-.7-67.1-6.3-71.3 5.9-2.3 6.8-1.8 28-1.2 40.1.7 14.1 2 31.6 2.9 33.1.1.2.4.5.7.6.8.2 21.9 4.1 28.4 4.1h.6c5.4-.3 21.7-.8 21.9-.8.5 0 .9-.4 1-.9l.3-3.2.8 2.8c.1.4.5.7 1 .7 4.1 0 11-.8 11.3-.8.4 0 .7-.3.8-.7 4.7-14.7 3.7-77.3 3.7-79.9z" fill="#000000" stroke-width="none" opacity="1"></path></g></g><g id="svga-group-humanbody-back"><path id="SvgjsPath21196" d="M86.5 122c0 18.8 2.7 50.3-8.1 58s-31.8 13.9-36.7 24.4-3.6 14.4-3.6 14.4h124.1s.6-8.1-4.2-15.4c-6.6-10.1-28.5-17.7-36.5-22.9-8.1-5.2-10.9-32.2-10.9-58.8l-24.1.3z" fill="#ffffff" stroke-width="none" opacity="1"></path></g><g id="svga-group-chinshadow-single"></g><g id="svga-group-humanbody-front"><path id="SvgjsPath21197" d="M163.4 220.1H37.2l-.3-.9c-.1-.5-1.3-4.7 3.6-15.3 3.4-7.3 13.6-12.4 23.5-17.4 5.1-2.5 9.9-5 13.6-7.5 8.6-6 8.1-29.8 7.7-47.1-.1-3.5-.1-6.8-.1-9.8v-1.3l26.7-.4v1.3c0 32 3.8 53.5 10.3 57.7 2.4 1.6 6 3.3 10.2 5.4 9.7 4.7 21.9 10.6 26.7 18 5 7.6 4.4 15.9 4.4 16.2l-.1 1.1zm-124.1-2.6h121.6c-.1-2.4-.6-8.2-4-13.4-4.4-6.7-16.2-12.5-25.6-17-4.3-2.1-8-3.9-10.5-5.5-9.8-6.3-11.4-38.8-11.5-58.6l-21.5.4c0 2.6.1 5.5.1 8.5.4 18.9.9 42.4-8.8 49.3-3.8 2.7-8.7 5.1-13.9 7.7-9.5 4.8-19.4 9.7-22.3 16.1-3.3 6.9-3.7 10.9-3.6 12.5z" fill="#000000" stroke-width="none" opacity="1"></path><path id="SvgjsPath21198" d="M76.8 188.7c4.8 2.3 10.4 3.9 15.7 2.9.4-.1.4-.7 0-.8-5.1-.9-10.2-1.4-15.2-3.2-.6-.2-1.1.8-.5 1.1z" fill="#000000" stroke-width="none" opacity="1"></path><path id="SvgjsPath21199" d="M108.3 191.1c2.4.3 4.9-.4 7.1-1.2 2.1-.8 4.3-1.7 5.8-3.4.5-.5-.1-1.2-.7-.9-2.1.9-3.9 2.3-6.1 3-2 .7-4.1 1-6.2 1.5-.6.1-.4.9.1 1z" fill="#000000" stroke-width="none" opacity="1"></path></g><g id="svga-group-clothes-single"><path id="SvgjsPath21544" d="M35.41 220.36s-1.42-6.88 2.61-14.95 8.07-12.34 37.02-25.39c0 0 6.64 8.54 23.49 8.78s24.92-8.78 24.92-8.78 16.61 7.59 20.65 10.2 12.1 6.88 16.14 12.34 3.28 17.8 3.28 17.8H35.41z" fill="#ffffff" stroke-width="none" opacity="1"></path><path id="SvgjsPath21545" d="M161.04 201.97c-3.42-4.63-9.47-8.33-13.89-11.03-.93-.57-1.79-1.09-2.51-1.56-4.05-2.62-20.09-9.96-20.77-10.27-.4-.18-.87-.08-1.16.24-.08.09-7.99 8.67-24.16 8.45-16.11-.23-22.66-8.32-22.72-8.4-.28-.36-.78-.49-1.2-.3-28.99 13.07-33.31 17.47-37.5 25.86-4.14 8.28-2.76 15.31-2.7 15.6.1.46.51.8.98.8h128.11c.53 0 .97-.41 1-.94.03-.52.73-12.77-3.48-18.45zm-1.6 1.19c.04.06.08.13.13.19-1.01-.51-2.1-.88-3.19-1.19.86-.59 1.46-.74 1.48-.74l-.03-.15c.58.6 1.13 1.24 1.61 1.89zm-13.33-10.51c3.13 1.91 7.1 4.34 10.25 7.19-2.36 1.11-7.69 5.18-8.69 19.52H52.95c-1.33-10.1-3.49-15.72-5.39-18.83.15-.03.14-.28-.01-.3l-.2-.03c-.85-1.32-1.63-2.14-2.26-2.65 4.25-3.76 11.36-7.85 25.22-14.27 1.74 2.41 8.22 9.42 25.7 11.15 1.49.15 2.93.22 4.31.22 16.2 0 25.4-9.37 27.34-11.57 5.21 2.44 13.3 6.31 15.9 7.99.73.47 1.6 1 2.55 1.58zm3.63 25.9c1 .28 2 .56 3.01.81h-3.07c.02-.27.03-.55.06-.81zM38.72 206.27c3.12 1.49 6.63 2.74 10.09 2.79.03 0 .05-.02.07-.03.29 1.01.57 2.11.83 3.32-4.28-.75-8.11-1.54-12.12-3.34.31-.89.69-1.8 1.13-2.74zm4.15-6.52c.7.3 1.43.54 2.18.69.73.95 1.59 2.39 2.46 4.54-2.35-.62-4.67-1.22-6.94-2.12.66-1.07 1.41-2.09 2.3-3.11zm1.54-.08c-.39-.09-.78-.19-1.17-.32.12-.13.25-.27.38-.4.21.16.47.39.79.72zm34.58-15.06c-.41.39-.75.88-1.1 1.32-.21.27-.42.54-.62.82-.58-.36-1.11-.72-1.59-1.07.61-.7 1.29-1.34 1.99-1.95.41.28.84.57 1.32.88zm1.56.92c-.5.74-.94 1.52-1.38 2.29-.58-.3-1.11-.6-1.61-.91.25-.29.5-.57.75-.87.34-.4.71-.8.99-1.25.39.25.81.5 1.25.74zm2.65 1.27c-.55.7-1.04 1.45-1.54 2.19-.75-.31-1.44-.64-2.09-.97.49-.74.98-1.5 1.41-2.28.69.37 1.42.72 2.22 1.06zm1.91.75c-.46.73-.84 1.53-1.21 2.3-.64-.22-1.24-.45-1.82-.69.54-.71 1.11-1.42 1.6-2.16.45.18.93.37 1.43.55zm8.08 4.51c.28-.84.58-1.69.76-2.55.46.05.94.1 1.42.13-.3.85-.53 1.73-.73 2.61-.5-.05-.98-.12-1.45-.19zm-.37-.05c-1.69-.26-3.26-.57-4.71-.92.33-.78.67-1.59.93-2.4 1.4.33 2.92.59 4.55.78-.31.82-.54 1.69-.77 2.54zm-5.14-1.03c-.55-.14-1.09-.29-1.61-.44.4-.76.8-1.54 1.1-2.34.43.12.88.24 1.34.36-.32.79-.58 1.62-.83 2.42zm-2.03-.56c-.47-.14-.93-.29-1.37-.44.43-.75.87-1.52 1.2-2.31.41.14.82.28 1.26.41-.42.74-.77 1.54-1.09 2.34zm31.24-4.56c.41.71.82 1.43 1.26 2.12-.78.44-1.62.88-2.51 1.29-.35-.76-.73-1.52-1.1-2.27-.02-.03-.04-.04-.06-.06a30.4 30.4 0 0 0 2.41-1.08zm2.46-1.37c.28.33.56.67.84 1 .23.26.45.53.68.79-.71.49-1.49.99-2.33 1.48-.41-.71-.85-1.39-1.3-2.08.77-.4 1.47-.8 2.11-1.19zm1.89-1.26c.23.35.47.69.74 1.01.19.23.41.5.65.75-.4.32-.84.65-1.31.98-.25-.28-.53-.55-.78-.83l-.84-.87c.57-.36 1.08-.7 1.54-1.04zm1.65-1.3c.2.22.4.44.61.65.29.3.57.63.88.93-.37.34-.8.7-1.27 1.09-.2-.19-.41-.38-.58-.58-.31-.35-.6-.71-.88-1.09.49-.37.9-.71 1.24-1zm-8.61 5.23c.32.76.63 1.53.97 2.29-3.94 1.78-8.9 3.15-14.82 3.18.14-.95.19-1.93.04-2.86 5.62-.16 10.21-1.29 13.8-2.73 0 .03 0 .08.01.12zm9.4-5.94c.47.22 1.19.55 2.07.96-.26.27-.58.59-.98.96-.29-.32-.61-.62-.91-.93-.2-.2-.41-.4-.61-.61.17-.13.31-.27.43-.38zm-23.59 8.55c-.05.96-.05 1.91-.12 2.86-.73 0-1.48-.03-2.24-.08.12-.58.18-1.18.09-1.77-.02-.15-.27-.15-.29 0-.08.59-.14 1.16-.24 1.73-.36-.03-.72-.05-1.09-.08-.39-.04-.76-.08-1.14-.13.25-.87.48-1.74.63-2.63.91.06 1.85.11 2.82.12.55.02 1.06-.01 1.58-.02zm-22.73-6.28c-.76.54-1.41 1.21-2 1.94-.73-.55-1.34-1.08-1.83-1.56.74-.55 1.51-1.11 2.14-1.77.45.41 1.01.88 1.69 1.39zm-2.58-2.26c.17.18.4.41.66.65-.78.49-1.49 1.11-2.19 1.72-.45-.46-.81-.86-1.07-1.19.85-.38 1.71-.77 2.6-1.18zm-34.45 22.02c2.36 1.04 4.83 1.94 7.39 2.28.36.94.72 2 1.07 3.2-3.4-.85-6.65-1.49-9.9-2.83.01-.01.01-.03.02-.04.46-.92.93-1.78 1.42-2.61zm-4.15 13.45c2.58 1.32 5.43 2.39 8.29 2.63.19.02.22-.27.04-.32-2.87-.83-5.61-1.55-8.32-2.77.04-.89.13-1.91.32-3.02 4.1 2.29 9.02 4.24 13.74 4.2.14 0 .17-.21.03-.25-4.81-1.23-9.2-2.15-13.69-4.39.19-1.04.47-2.16.85-3.33 3.71 2 8.12 3.44 12.36 3.35.41 1.92.79 4.1 1.12 6.57H36.28c-.06-.61-.12-1.52-.1-2.67zm126.38 2.66h-7.79c-1.64-.49-3.32-.85-4.99-1.23.09-.98.21-1.91.34-2.78 2.84 1.28 5.93 2.15 9.01 2.42.21.02.24-.31.05-.36-3.05-.79-6-1.63-8.96-2.64.15-.89.32-1.72.5-2.5 2.27.81 4.55 1.5 6.93 1.99.21.04.3-.26.09-.32-2.32-.65-4.63-1.34-6.9-2.13.22-.88.47-1.69.72-2.43 2.57.87 5.17 1.73 7.81 2.33.22.05.29-.25.09-.33-2.51-.99-5.13-1.74-7.73-2.47.27-.71.55-1.36.83-1.95 2.33.81 4.7 1.65 7.09 2.17.26.06.35-.29.11-.39-2.23-.92-4.62-1.58-6.97-2.23.39-.74.79-1.38 1.18-1.92 2.01.72 4.05 1.57 6.12 2.04.22.05.39-.28.16-.39-1.9-.87-3.98-1.43-5.98-2.06.55-.69 1.08-1.22 1.56-1.62 1.47.47 2.85 1.1 4.27 1.68 2.49 4.55 2.53 12.42 2.46 15.12z" fill="#000000" stroke-width="none" opacity="1"></path></g><g id="svga-group-head" transform="matrix(1,0,0,1,0,0)"><g id="svga-group-ears-left-move" transform="matrix(1,0,0,1,0,0)"><g id="svga-group-ears-left" transform="matrix(1,0,0,1,0,0)"><path id="SvgjsPath21421" d="M64.4 81.9s-4.4-4.7-5.8-6.2c-1.4-1.4-3.1-4.7-5-4.1-1.9.5-1.2 2.7-1.3 5.8-.1 3.1.3 9.1 2.2 12.4s2.9 4.5 3.5 8 2.8 4.2 4.1 3.2 4.3-7 4.4-10.2c0-3.2-1.2-7.5-2.1-8.9z" fill="#ffffff" stroke-width="none" opacity="1"></path><path id="SvgjsPath21422" d="M59.7 102.2c-.8-.3-2.3-1.3-2.8-4.2-.5-2.9-1.2-4-2.7-6.5l-.6-1.1c-2.1-3.6-2.5-10.1-2.4-13v-2c0-2-.1-4.1 2.1-4.7 2.1-.6 3.7 1.5 5 3.2.4.5.7.9 1 1.2 1.4 1.4 5.8 6.2 5.8 6.2l.1.1c.9 1.4 2.3 6 2.2 9.4-.1 3.4-3.2 9.8-4.8 11-.5.4-1.2.6-1.8.6-.4 0-.7-.1-1.1-.2zm-1.8-25.7c-.4-.4-.7-.9-1.1-1.4-.8-1.1-2.1-2.7-2.9-2.5-.6.2-.7.6-.6 2.8v2.1c-.1 3.1.3 8.9 2.1 11.9l.6 1.1c1.5 2.6 2.4 4 3 7.2.3 1.4.8 2.4 1.5 2.7.3.1.7.1 1-.1 1-.8 3.9-6.5 4-9.4.1-3-1.1-7.1-1.8-8.2-.7-.7-4.6-4.9-5.8-6.2z" fill="#000000" stroke-width="none" opacity="1"></path><path id="SvgjsPath21423" d="M52.7 76.3c.5-1.9 2.1-1 3 .4 1.9 2.6 3.2 6.6 3.6 10 0 .1-.1.2-.1.1-.1.1-.2.1-.2-.1-1.2-.5-1.6-.2-1.2.8 0 .3.1.6.3.9.2.5.6 1 .9 1.5.5.8 1.2 1.5 1.7 2.3.2.3 0 .6-.2.4-1.4-1-3.9-4.3-3.2-6.6.3-.8 1-1.1 1.5-.7-1.1-3.6-4-12-5.8-8.8-.1.1-.3 0-.3-.2z" fill="#000000" stroke-width="none" opacity="1"></path><path id="SvgjsPath21424" d="M55.6 76.8c-1 2-1.4 4.4-.9 7.1.3 1.5 2.9 9.5 4.9 8.4.2-.1.4.3.2.5-2 1.8-4.2-4.5-4.9-6.5-1.1-3.4-1.4-7.5.5-9.7.1-.1.2.1.2.2z" fill="#000000" stroke-width="none" opacity="1"></path></g></g><g id="svga-group-ears-right-move" transform="matrix(1,0,0,1,0,0)"><g id="svga-group-ears-right" transform="matrix(1,0,0,1,0,0)"><path id="SvgjsPath21425" d="M137.1 81.9s4.4-4.7 5.8-6.2c1.4-1.4 3.1-4.7 5-4.1 1.9.5 1.2 2.7 1.3 5.8s-.3 9.1-2.2 12.4c-1.9 3.3-2.9 4.5-3.5 8-.6 3.5-2.8 4.2-4.1 3.2-1.3-1-4.3-7-4.4-10.2 0-3.2 1.2-7.5 2.1-8.9z" fill="#ffffff" stroke-width="none" opacity="1"></path><path id="SvgjsPath21426" d="M140.7 102.4c-.6 0-1.3-.2-1.8-.6-1.5-1.2-4.7-7.5-4.8-11-.1-3.4 1.2-8 2.2-9.4l.1-.1s4.4-4.7 5.8-6.2c.3-.3.6-.8 1-1.2 1.3-1.7 2.9-3.8 5-3.2 2.2.6 2.1 2.7 2.1 4.7v2c.1 2.9-.2 9.4-2.4 13l-.6 1.1c-1.5 2.5-2.2 3.7-2.7 6.5-.5 2.9-2 3.9-2.8 4.2-.4.1-.7.2-1.1.2zm-2.8-19.9c-.7 1.2-1.9 5.2-1.8 8.2.1 2.9 2.9 8.6 4 9.4.3.2.6.3 1 .1.7-.3 1.3-1.3 1.5-2.7.6-3.2 1.4-4.7 3-7.2l.6-1.1c1.8-3 2.2-8.7 2.1-11.9v-2.1c.1-2.2 0-2.6-.6-2.8-.8-.2-2 1.4-2.9 2.5-.4.5-.8 1-1.1 1.4-1.3 1.5-5.2 5.7-5.8 6.2z" fill="#000000" stroke-width="none" opacity="1"></path><path id="SvgjsPath21427" d="M148.8 76.3c-.5-1.9-2.1-1-3 .4-1.9 2.6-3.2 6.6-3.6 10 0 .1.1.2.1.1.1.1.2.1.2-.1 1.2-.5 1.6-.2 1.2.8 0 .3-.1.6-.3.9-.2.5-.6 1-.9 1.5-.5.8-1.2 1.5-1.7 2.3-.2.3 0 .6.2.4 1.4-1 3.9-4.3 3.2-6.6-.3-.8-1-1.1-1.5-.7 1.1-3.6 4-12 5.8-8.8.1.1.3 0 .3-.2z" fill="#000000" stroke-width="none" opacity="1"></path><path id="SvgjsPath21428" d="M145.9 76.8c1 2 1.4 4.4.9 7.1-.3 1.5-2.9 9.5-4.9 8.4-.2-.1-.4.3-.2.5 2 1.8 4.2-4.5 4.9-6.5 1.1-3.4 1.4-7.5-.5-9.7-.1-.1-.2.1-.2.2z" fill="#000000" stroke-width="none" opacity="1"></path></g></g><g id="svga-group-faceshape-wrap" transform="matrix(1,0,0,1,0,0)"><g id="svga-group-faceshape-single"><path id="SvgjsPath21408" d="M139.4 74.3s.2-8.5-1.2-16.1c-2-10.8-13.3-27.4-37.2-27.4S69.1 43.5 65.5 53c-3 8.1-3 21.3-3 21.3s-1.4 34.3 1.9 45.5c0 0 8.7 12.8 34.4 22.7 0 0 33.3-10.9 39.9-23.9 0 0 1.2-34.6.7-44.3z" fill="#ffffff" stroke-width="none" opacity="1"></path><path id="SvgjsPath21409" d="m98.7 143.9-.4-.2c-25.8-9.9-34.6-22.6-35-23.1l-.1-.2-.1-.2c-3.3-11.2-2-44.1-1.9-45.9 0-.9 0-13.6 3.1-21.8 5.8-15.5 17.8-23 36.7-23 10.9 0 20.5 3.4 27.7 10 5.5 5 9.6 11.9 10.8 18.5 1.4 7.5 1.2 15.6 1.2 16.3.5 9.7-.7 42.9-.7 44.3v.3l-.1.3c-6.8 13.4-39.3 24.1-40.7 24.6l-.5.1zm-33.2-24.6c1.1 1.5 10.2 12.9 33.3 21.9 3.9-1.3 32.5-11.4 38.6-22.9.1-3.4 1.2-34.8.7-43.8 0-.1.2-8.4-1.2-15.9-1.1-6-4.8-12.4-10-17-6.7-6.1-15.7-9.3-26-9.3-17.7 0-28.9 7-34.3 21.3-2.9 7.8-2.9 20.8-2.9 20.9v.1c.1.1-1.3 33.6 1.8 44.7z" fill="#000000" stroke-width="none" opacity="1"></path></g></g><g id="svga-group-mouth-single-move" transform="matrix(1,0,0,1,0,0)"><g id="svga-group-mouth-single" transform="matrix(1,0,0,1,0,0)"><path id="SvgjsPath21497" d="M112.98 118.4c-.02 0-.53-.02-.95-.22-3.72-1.8-8.31-3.34-11.63-.05-3.07-4.14-8.05-.51-11.8.92-.36.14-.75.02-1.08.1-.3.08-.3.42.09.54.02 0 .66.18 1.14.32.65 1.68 1.46 3.61 3.19 4.41 1.08.5 2.21.38 3.35.16 1.96-.38 3.8-.88 5.81-.97 1.86-.09 3.67.08 5.51.38 1.11.18 2.24.41 3.32-.03 2.02-.82 2.22-3.09 2.18-5.01.29.01.48-.02.76-.08.38-.13.42-.41.11-.47zm-12.98 0c.07.1.51.31.64.17 2.95-3.04 7.04-1.88 10.46-.29-3.8-.64-7.85-.75-10.7 2.22-.97-1.15-2.3-1.7-3.83-1.79-2.57-.15-5.31.44-7.89.82 3.59-1.39 8.47-5.02 11.32-1.13zm10.3 4.54c-1.32 1.1-2.64.71-4.23.46a25.02 25.02 0 0 0-5.67-.24c-1.79.14-3.48.6-5.24.95-3.32.65-4.82-1.45-5.9-4.16 1.46-.19 2.92-.38 4.38-.56 2.33-.28 4.95-.54 6.54 1.58.05.07.12.1.18.1.05.01.1 0 .15-.03.01 0 .02-.01.02-.01.01-.01.03 0 .04-.02 2.89-3.2 7.15-2.87 11.03-2.16.06 1.59 0 3-1.3 4.09z" fill="#000000" stroke-width="none" opacity="1"></path></g></g><g id="svga-group-eyes-left-move" transform="matrix(1,0,0,1,0,0)"><g id="svga-group-eyes-left" transform="matrix(1,0,0,1,0,0)"><g id="svga-group-eyesback-left"></g><g id="svga-group-eyesiriswrapper-left"><g id="svga-group-eyesiriscontrol-left" transform="matrix(1,0,0,1,0,0)"><g id="svga-group-eyesiris-left" transform="matrix(1,0,0,1,0,0)"><path id="SvgjsPath21459" d="M84.8 84.7c-1-1.9-3.2-2.7-5.2-2-2.2.8-3.8 3-3.1 5.4.4 1.2 1.5 2.4 2.8 2.7.4.1.9.1 1.4.1.5.1 1.1 0 1.7-.2 2.4-.9 3.6-3.7 2.4-6z" fill="#ffffff" stroke-width="none" opacity="1"></path><path id="SvgjsPath21460" d="M81.1 91.2h-.4c-.5 0-1 0-1.5-.1-1.3-.3-2.5-1.4-3-2.9-.9-2.6 1-4.9 3.2-5.7 2.2-.8 4.6.1 5.6 2.1.6 1.2.7 2.6.2 3.8-.5 1.2-1.5 2.2-2.7 2.6-.4.1-.9.2-1.4.2zm-.3-.6c.5.1 1.1 0 1.6-.2 1.1-.4 1.9-1.2 2.4-2.3.4-1.1.4-2.3-.2-3.3-.9-1.7-3-2.5-4.9-1.8-2 .7-3.6 2.8-2.9 5 .4 1.2 1.5 2.3 2.6 2.5.4.1.9.1 1.4.1zm2.4-4.8c0-.1 0-.1-.1-.1-.6-1.1-2-1.5-3.1-1 .2.2.4.5.6.7.2.3.5 1 .1 1.2-.4.2-1 0-1.3-.2-.2-.1-.3-.3-.5-.5 0 .1-.1.1-.1.2-.1.2-.1.4-.1.6-.2.7 0 1.4.5 1.9.2.2.5.3.8.4.6.3 1.2.4 1.8.1-.1-.1-.2-.2-.2-.4 0-.3.2-.6.5-.7.3-.1.6 0 .7.2.3-.3.5-.7.6-1.1.1-.4 0-.9-.2-1.3zm-4.8 1.1c-.4-.1-.9-.1-1.3-.2-.1 0-.1.1 0 .1.4.1.9.3 1.3.2.1 0 .1-.1 0-.1zm-.1.8c-.2 0-.4.1-.6.1-.2 0-.5.1-.7.1-.1 0-.1.1 0 .1.4 0 1 0 1.3-.3.1.1.1 0 0 0zm.4.8c-.2.1-.3.2-.5.3-.2.1-.4.2-.5.3-.1 0 0 .2.1.1.3 0 .7-.3.9-.7.1.1.1 0 0 0zm.9.7c-.3.3-.4.6-.6.9-.1.1.1.2.1.1.2-.3.5-.6.6-1h-.1zm.8.4c-.1.3-.1.7-.2 1.1 0 .1.1.1.1 0 0-.4.1-.7.1-1.1.1-.1 0-.1 0 0zm1.4.4c-.1-.1-.1-.3-.2-.4 0 0-.1 0-.1.1 0 .2.1.3.2.4.1.2.1.3.2.5 0 .1.1 0 .1 0-.1-.2-.1-.4-.2-.6zm1.3-.2-.3-.3-.3-.3c0-.1-.1 0-.1.1.1.1.2.2.3.4.1 0 .2.2.4.1 0 .1 0 .1 0 0zm.9-.7c-.1-.1-.3-.2-.5-.3-.2-.1-.3-.2-.5-.3-.1 0-.2.1-.1.1.2.1.3.2.5.3.2.1.3.2.5.2.1.1.2.1.1 0zm.5-1.3c-.1-.1-.3-.1-.4-.1-.2 0-.3-.1-.5-.1-.1 0-.1.1-.1.1.3.1.7.3 1 .2.1.1.1 0 0-.1zm.2-1.7c-.3.1-.8.3-1 .5-.1.1 0 .1.1.1.2-.1.3-.2.5-.2.2-.1.3-.1.5-.2.1-.1 0-.2-.1-.2zm-.8-2-.1-.1s-.1 0-.1.1c0 0-.4.4-.4.5-.1.2-.2.3-.4.5-.1.1.1.1.1.1l.9-.9c.1-.1.1-.1 0-.2zm-1.9-.8c-.1.1-.1.3-.2.5s-.1.4-.2.6c0 .1.1.1.1 0 .1-.2.2-.3.2-.5.1-.2.2-.4.1-.5.2-.1.1-.1 0-.1zm-1.3.8c-.1-.2-.1-.3-.2-.5 0-.2-.1-.3-.1-.4 0-.1-.1 0-.1 0 0 .3.2.7.3 1 0 .1.2 0 .1-.1zm-1.2 0c-.1-.2-.2-.3-.3-.5 0-.1-.1 0-.1 0 .1.2.1.3.2.5.1.1.2.3.3.4.1 0 .1 0 .1-.1 0 0-.1-.2-.2-.3zm-.6.9-.3-.3c-.1-.1-.2-.2-.4-.3-.1-.1-.2 0-.1.1l.3.3c.2.1.3.3.5.2 0 .2 0 .1 0 0zm-.8.8-.9-.3c-.1 0-.1.1 0 .1.3.1.6.3.9.3 0 0 .1-.1 0-.1z" fill="#000000" stroke-width="none" opacity="1"></path></g></g></g><g id="svga-group-eyesfront-left"><path id="SvgjsPath21560" d="M81 74.4c-6.9 0-12.5 5.6-12.5 12.5S74.1 99.4 81 99.4s12.5-5.6 12.5-12.5S87.9 74.4 81 74.4zm4.9 17.3c-1.4 1-4.9 2.1-7.5 1.8s-5.6-3.2-6.1-4.2-.4-2-.4-2 2-3.6 4.8-4.6 5.3-1.4 7.5-.5 5.1 5.3 5.1 5.3-1.9 3.2-3.4 4.2z" fill="#ffffff" stroke-width="none" opacity="1"></path><path id="SvgjsPath21561" d="M91.4 86.8c-.1-.2-.5-.3-.6-.1-.3.6-.3 1.2-.4 1.8-.5-1.1-1.5-2.9-3.8-5.2-1.5-1.5-3.4-2.2-5.7-2.1-1.1 0-2.2.3-3.3.6-.2-.3-.5-.9-.8-1.4-.1-.3-.4-.4-.7-.3-.3.1-.4.4-.3.7.2.5.5 1 .7 1.3-.6.3-1.2.6-1.7 1l-1.2-.6c1.3-1.8 3-3.1 4.9-3.8 1.8-.6 3.5-.5 4.8.3 3.3 1.9 5.5 5.9 5.5 5.9 0 .1.1.2.2.2h.1c.1 0 .2-.2.2-.3-.1-.3-2.4-4.3-5.7-6.2-1.4-.8-3.3-.9-5.2-.3-2.1.7-3.9 2.1-5.2 4-.4-.3-.7-.5-.8-.7-.1-.2-.4-.3-.7-.2-.2.1-.3.4-.2.7.2.4.6.7 1.2 1-.3.4-.5.9-.7 1.4-.1.1 0 .3.1.3.1.1.3 0 .3-.1.2-.5.4-.9.7-1.3.3.2.6.3.9.4-.3.2-.5.5-.8.8-.1.2-.3.3-.4.5-.5-.1-1.9-.3-2.8-.9-.2-.1-.5-.1-.7.2-.1.2-.1.5.2.7.9.6 2 .8 2.7 1-.3.5-.6.9-.9 1.4-.7.1-2 .1-2.8-.3-.2-.1-.5 0-.7.2-.1.2 0 .5.2.7.7.4 1.8.5 2.5.5h.2c-.6 1.1-.8 1.9-.8 2-.1.3.1.5.3.6h.1c.2 0 .4-.1.5-.4 0 0 .2-.6.6-1.6.5.7.9 1.4 1.5 1.9-.4.2-1.1.7-1.5 1.4-.1.2-.1.5.2.7.1 0 .2.1.3.1.2 0 .3-.1.4-.2.5-.8 1.4-1.2 1.4-1.2.4.3.7.6 1.1.8-.4.3-1 .7-1.3 1.2-.2.2-.1.5.1.7.1.1.2.1.3.1.2 0 .3-.1.4-.2.3-.5 1.1-1 1.3-1.2l.1-.1c1.4.7 2.9 1 4.2 1 1.3 0 2.5-.2 3.4-.5 2.9-.9 5.4-4.3 5.9-5.1.4.9.5 1.4.5 1.4v.1c-.2.4-.5.7-.7 1.1-.1.1 0 .3.2.2 1.9-.3 2.7-3.2 2.2-4.6zm-2.8 1.1s-2.6 4-5.5 4.8c-3.2.9-7.6 1-10.7-4.2-.1-.1-.2-.2-.4-.2.5-.9 1.1-1.9 2-3 1.2-1.4 4-3 6.9-3.1 1.4-.1 3.4.2 5 1.8 1.4 1.4 2.3 2.7 2.9 3.6 0 .1-.1.2-.2.3z" fill="#000000" stroke-width="none" opacity="1"></path></g></g></g><g id="svga-group-eyes-right-move" transform="matrix(1,0,0,1,0,0)"><g id="svga-group-eyes-right" transform="matrix(1,0,0,1,0,0)"><g id="svga-group-eyesback-right"></g><g id="svga-group-eyesiriswrapper-right"><g id="svga-group-eyesiriscontrol-right" transform="matrix(1,0,0,1,0,0)"><g id="svga-group-eyesiris-right" transform="matrix(1,0,0,1,0,0)"><path id="SvgjsPath21461" d="M123.2 84.7c-1-1.9-3.2-2.7-5.2-2-2.2.8-3.8 3-3.1 5.4.4 1.2 1.5 2.4 2.8 2.7.4.1.9.1 1.4.1.5.1 1.1 0 1.7-.2 2.5-.9 3.6-3.7 2.4-6z" fill="#ffffff" stroke-width="none" opacity="1"></path><path id="SvgjsPath21462" d="M119.6 91.2h-.4c-.5 0-1 0-1.5-.1-1.3-.3-2.5-1.4-3-2.9-.9-2.6 1-4.9 3.2-5.7 2.2-.8 4.6.1 5.6 2.1.6 1.2.7 2.6.2 3.8-.5 1.2-1.5 2.2-2.7 2.6-.5.1-.9.2-1.4.2zm-.4-.6c.5.1 1.1 0 1.6-.2 1.1-.4 1.9-1.2 2.4-2.3.4-1.1.4-2.3-.2-3.3-.9-1.7-3-2.5-4.9-1.8-2 .7-3.6 2.8-2.9 5 .4 1.2 1.5 2.3 2.6 2.5.5.1 1 .1 1.4.1zm2.4-4.8c0-.1 0-.1-.1-.1-.6-1.1-2-1.5-3.1-1 .2.2.4.5.6.7.2.3.5 1 .1 1.2-.4.2-1 0-1.3-.2-.2-.1-.3-.3-.5-.5 0 .1-.1.1-.1.2-.1.2-.1.4-.1.6-.2.7 0 1.4.5 1.9.2.2.5.3.8.4.6.3 1.2.4 1.8.1-.1-.1-.2-.2-.2-.4 0-.3.2-.6.5-.7.3-.1.6 0 .7.2.3-.3.5-.7.6-1.1.2-.4.1-.9-.2-1.3zm-4.7 1.1c-.4-.1-.9-.1-1.3-.2-.1 0-.1.1 0 .1.4.1.9.3 1.3.2v-.1zm-.1.8c-.2 0-.4.1-.6.1-.2 0-.5.1-.7.1-.1 0-.1.1 0 .1.4 0 1 0 1.3-.3.1.1 0 0 0 0zm.4.8c-.2.1-.3.2-.5.3-.2.1-.4.2-.5.3-.1 0 0 .2.1.1.3 0 .7-.3.9-.7.1.1 0 0 0 0zm.8.7c-.3.3-.4.6-.6.9-.1.1.1.2.1.1.2-.3.5-.6.6-1h-.1zm.9.4c-.1.3-.1.7-.2 1.1 0 .1.1.1.1 0 0-.4.1-.7.1-1.1.1-.1 0-.1 0 0zm1.4.4c-.1-.1-.1-.3-.2-.4 0 0-.1 0-.1.1 0 .2.1.3.2.4.1.2.1.3.2.5 0 .1.1 0 .1 0-.1-.2-.1-.4-.2-.6zm1.2-.2-.3-.3-.3-.3c0-.1-.1 0-.1.1.1.1.2.2.3.4.1 0 .2.2.4.1 0 .1.1.1 0 0zm1-.7c-.1-.1-.3-.2-.5-.3-.2-.1-.3-.2-.5-.3-.1 0-.2.1-.1.1.2.1.3.2.5.3.2.1.3.2.5.2.1.1.1.1.1 0zm.5-1.3c-.1-.1-.3-.1-.4-.1-.2 0-.3-.1-.5-.1-.1 0-.1.1-.1.1.3.1.7.3 1 .2v-.1zm.2-1.7c-.3.1-.8.3-1 .5-.1.1 0 .1.1.1.2-.1.3-.2.5-.2.2-.1.3-.1.5-.2.1-.1 0-.2-.1-.2zm-.8-2-.1-.1s-.1 0-.1.1c0 0-.4.4-.4.5-.1.2-.2.3-.4.5-.1.1.1.1.1.1l.9-.9v-.2zm-1.9-.8c-.1.1-.1.3-.2.5s-.1.4-.2.6c0 .1.1.1.1 0 .1-.2.2-.3.2-.5.1-.2.2-.4.1-.5.1-.1 0-.1 0-.1zm-1.3.8c-.1-.2-.1-.3-.2-.5 0-.2-.1-.3-.1-.4 0-.1-.1 0-.1 0 0 .3.2.7.3 1 0 .1.1 0 .1-.1zm-1.2 0c-.1-.2-.2-.3-.3-.5 0-.1-.1 0-.1 0 .1.2.1.3.2.5.1.1.2.3.3.4.1 0 .1 0 .1-.1 0 0-.1-.2-.2-.3zm-.6.9-.3-.3c-.1-.1-.2-.2-.4-.3-.1-.1-.2 0-.1.1l.3.3c.2.1.3.3.5.2 0 .2 0 .1 0 0zm-.8.8-.9-.3c-.1 0-.1.1 0 .1.3.1.6.3.9.3v-.1z" fill="#000000" stroke-width="none" opacity="1"></path></g></g></g><g id="svga-group-eyesfront-right"><path id="SvgjsPath21562" d="M119 74.4c-6.9 0-12.5 5.6-12.5 12.5s5.6 12.5 12.5 12.5 12.5-5.6 12.5-12.5-5.6-12.5-12.5-12.5zm8.4 15c-.5 1-3.6 3.9-6.1 4.2-2.5.3-6-.8-7.5-1.8-1.4-1-3.4-4.2-3.4-4.2s2.9-4.5 5.1-5.3c2.2-.9 4.7-.4 7.5.5 2.8 1 4.8 4.6 4.8 4.6s.1 1-.4 2z" fill="#ffffff" stroke-width="none" opacity="1"></path><path id="SvgjsPath21565" d="M131.8 87.3c-.1-.2-.4-.3-.7-.2-.8.4-2.1.4-2.8.3-.3-.4-.5-.9-.9-1.4.7-.1 1.8-.4 2.7-1 .2-.1.3-.5.2-.7s-.5-.3-.7-.2c-1 .6-2.3.9-2.8.9-.1-.2-.2-.3-.4-.5-.2-.3-.5-.5-.8-.8.3-.1.6-.3.9-.4.2.4.5.8.7 1.3.1.1.2.2.3.1.1-.1.2-.2.1-.3-.2-.5-.4-.9-.7-1.4.5-.3 1-.7 1.2-1 .1-.2 0-.5-.2-.7-.2-.1-.5 0-.7.2-.1.2-.4.4-.8.7-1.3-1.9-3.2-3.3-5.2-4-1.9-.6-3.8-.5-5.2.3-3.3 1.9-5.6 5.9-5.7 6.2 0 .1 0 .3.2.3h.1c.1 0 .2-.1.2-.2 0 0 2.2-4 5.5-5.9 1.3-.8 3-.9 4.8-.3 1.9.6 3.7 2 4.9 3.8l-1.2.6c-.5-.4-1.1-.7-1.7-1 .2-.4.5-.9.7-1.3.1-.3 0-.5-.3-.7-.3-.1-.5 0-.7.3-.2.5-.6 1-.8 1.4a9.6 9.6 0 0 0-3.3-.6c-2.3-.1-4.3.6-5.7 2.1-3.8 3.8-4.2 6.4-4.2 6.5 0 .3.2.5.4.6.3 0 .5-.2.6-.4 0 0 .1-.5.5-1.4.5.8 3 4.2 5.9 5.1.9.3 2.1.5 3.4.5s2.8-.3 4.2-1l.1.1c.3.2 1 .7 1.3 1.2.1.1.3.2.4.2s.2 0 .3-.1c.2-.2.3-.5.1-.7-.3-.5-.9-.9-1.3-1.2.4-.2.7-.5 1.1-.8 0 0 1 .4 1.4 1.2.1.2.3.2.4.2s.2 0 .3-.1c.2-.1.3-.4.2-.7-.4-.7-1.1-1.2-1.5-1.4.5-.5 1-1.2 1.5-1.9.4.9.6 1.6.6 1.6.1.2.3.4.5.4h.1c.3-.1.4-.4.3-.6 0-.1-.3-.8-.8-2h.2c.8 0 1.8-.1 2.5-.5.3-.2.4-.5.3-.7zm-4.5 1.2c-3.1 5.1-7.6 5.1-10.7 4.2-2.9-.8-5.4-4.8-5.5-4.8l-.2-.2c.6-1 1.5-2.2 2.9-3.6 1.6-1.6 3.6-1.8 5-1.8 2.9.1 5.7 1.6 6.9 3.1.9 1 1.6 2.1 2 3-.2-.1-.3 0-.4.1z" fill="#000000" stroke-width="none" opacity="1"></path></g></g></g><g id="svga-group-facehighlight-single"></g><g id="svga-group-eyebrows-left-move" transform="matrix(1,0,0,1,0,0)"><g id="svga-group-eyebrows-left-rotate" transform="matrix(1,0,0,1,0,0)"><g id="svga-group-eyebrows-left" transform="matrix(1,0,0,1,0,0)"><path id="SvgjsPath21530" d="M67.91 80.49c.74-.79 7.31-7.74 9.7-8.5 2.59-.84 13.23 3.48 14.66 5.16.65.76.77 1.59.35 2.25-.3.48-.86.82-1.49.93-.28.05-.56.05-.85.01-.83-.13-2.77-1.44-5.88-3.6-1.62-1.13-3.15-2.19-3.81-2.51-1.38-.67-2.63-.83-3.44-.44-1.32.64-6.59 5.53-8.5 7.36-.2.19-.51.2-.71.01a.466.466 0 0 1-.03-.67z" fill="#000000" stroke-width="none" opacity="1"></path></g></g></g><g id="svga-group-eyebrows-right-move" transform="matrix(1,0,0,1,0,0)"><g id="svga-group-eyebrows-right-rotate" transform="matrix(1,0,0,1,0,0)"><g id="svga-group-eyebrows-right" transform="matrix(1,0,0,1,0,0)"><path id="SvgjsPath21531" d="M132.07 80.55c-.74-.79-7.27-7.78-9.66-8.55-2.59-.85-13.25 3.41-14.68 5.08-.65.76-.78 1.58-.36 2.25.3.49.86.82 1.49.93.28.05.56.06.85.02.83-.12 2.78-1.43 5.9-3.57 1.63-1.12 3.16-2.17 3.82-2.49 1.39-.66 2.64-.82 3.45-.42 1.32.65 6.56 5.56 8.47 7.4.2.19.51.2.71.02.18-.17.19-.47.01-.67z" fill="#000000" stroke-width="none" opacity="1"></path></g></g></g><g id="svga-group-nose-single-move" transform="matrix(1,0,0,1,0,0)"><g id="svga-group-nose-single" transform="matrix(1,0,0,1,0,0)"><path id="SvgjsPath21506" d="M101.9 106.4c-.5 1.3-1.1 2.6-2 3.7-.5.6-1.5 1.5-2.4 1.4s-.6-1.3-.6-2c-.1-3.2-.1-6.5 0-9.7.1-6.4.4-12.7 1-19.1.1-.7-1-.7-1.1 0-.9 10.3-1.2 20.7-.9 31 0 .2.1.4.3.5 3.5 1.6 5.5-2.7 6.6-5.2.2-.7-.7-1.2-.9-.6z" fill="#000000" stroke-width="none" opacity="1"></path><path id="SvgjsPath21507" d="M103.9 105.6c.3-.7 1.1-1.1 1.8-.6.5.4 1.3-.3.7-.7-1.2-.9-2.8-.6-3.5.8-.2.6.7 1.2 1 .5z" fill="#000000" stroke-width="none" opacity="1"></path><path id="SvgjsPath21508" d="M93.2 105.1c.5-.2 1.1 0 1.3.5.3.6 1.2.1.9-.5-.4-.9-1.6-1.4-2.5-1-.6.3-.3 1.3.3 1z" fill="#000000" stroke-width="none" opacity="1"></path></g></g><g id="svga-group-hair-front" transform="matrix(1,0,0,1,0,0)"><path id="SvgjsPath21605" d="M100.8 46.7S85.5 41.2 82.5 42 71 66.6 70.5 73.2s-1.4 34.2-.6 42.7 6.8 34.7 6.8 34.7-6.3-9.9-7.9-15.1c0 0 .8 9.3 2.2 12.9 0 0-8.5-2.2-10.9-3 0 0-3-12.3-4.4-21.6 0 0 .5 13.7.8 18.3 0 0-3.3-11.5-3.3-30.1s3.3-46.2 7.7-59.4 13.1-23 16.4-25.4 22.2 1.1 22.2 1.1 12.3-3.3 17-3.3 19.7 16.7 22.4 20.5c2.7 3.8 5.5 30.1 5.5 39.4s-1.6 51.2 0 60.5l-4.1-14.5-3 18.3-1.1-17.8-1.9 18.1-6.6 1.1s3.3-23.8 3.8-43.2c.6-19.4-3-46.8-3.8-53.3s-10.7-14.2-12-14.2-14.9 6.8-14.9 6.8z" fill="#ffffff" stroke-width="none" opacity="1"></path><path id="SvgjsPath21606" d="M145 97.5c.1-5.7.2-10.1.2-12.5 0-9-2.7-35.8-5.7-40-1.7-2.4-17.6-20.9-23.2-20.9-4.4 0-15.3 2.8-17 3.3-3.7-.7-19.3-3.4-22.7-.9S64.3 39 59.9 52.4c-4.6 13.8-7.7 42-7.7 59.7 0 18.5 3.2 29.9 3.3 30.4.1.5.6.8 1.1.7.5-.1.9-.5.8-1-.1-1.1-.1-2.6-.2-4.4 1 4.5 1.8 7.9 1.8 7.9.1.3.3.6.7.7 2.5.8 10.7 2.9 11 3 .4.1.8 0 1-.3s.3-.7.2-1c-.5-1.4-1-3.7-1.3-6 2.3 4.5 5.1 8.9 5.3 9.1.2.3.5.5.8.5.1 0 .3 0 .4-.1.4-.2.7-.7.6-1.1-.1-.3-6-26.3-6.8-34.6-.8-8.3 0-35.7.6-42.5.5-6.9 8.8-29.3 11.2-30.4 2-.5 11.9 2.5 17.7 4.6.3.1.5.1.8 0 6.1-3.1 13.1-6.5 14.3-6.7 1.6.5 10.3 7.5 11.1 13.3l.1.8c2.8 22.4 4.1 40 3.7 52.4-.5 19.2-3.8 42.9-3.8 43.1 0 .3.1.6.3.9.2.2.6.3.9.3l6.6-1.1c.4-.1.8-.4.8-.9l.7-6.2.4 5.9c0 .5.4.9.9.9s1-.3 1-.8l2.3-13.9 2.9 10.2c.1.5.7.8 1.2.7.5-.1.9-.6.8-1.1-1.4-7-.8-31.6-.4-47.9zm-2-.1c-.3 11.7-.7 27.8-.4 38.5l-1.5-5.3c-.1-.4-.5-.8-1-.7-.5 0-.9.4-.9.8l-1.6 9.6-.6-8.9c0-.5-.5-.9-1-.9s-.9.4-1 .9l-1.8 17.3-4.5.8c.7-5.3 3.2-25.4 3.7-42 .4-12.5-.9-30.2-3.7-52.7l-.1-.8c-.9-6.8-10.8-15.1-13-15.1-1.4 0-9.7 4.1-14.8 6.8-3.3-1.2-15.5-5.3-18.5-4.5C78.4 42.3 70 67 69.5 73.3c-.7 6.7-1.5 34.2-.7 42.7.6 6 3.7 20.6 5.5 28.8-1.8-3.1-3.8-7-4.7-9.6-.2-.5-.7-.8-1.2-.7s-.8.6-.8 1.1c0 .3.6 7.1 1.7 11.4-2.4-.6-6.6-1.7-8.6-2.4-.6-2.5-3-12.9-4.2-21-.1-.5-.5-.9-1.1-.8-.5.1-.9.5-.9 1v.1c-.3-3.5-.5-7.5-.5-11.9 0-19.6 3.5-46.7 7.6-59 4.3-12.9 12.8-22.5 16.1-25 2.1-1.6 14.2-.1 21.4 1.3h.4c.1 0 12.2-3.2 16.7-3.2.6 0 1.5.4 2.6 1.1-5.2-.5-11.1 2.7-15.8 4.7-.7.3-.1 1.4.6 1.1 5.2-2.2 12.3-6.3 17.8-3.8 5.8 4.8 14 13.7 16.4 17 2.5 3.5 5.3 29.5 5.3 38.8.2 2.3 0 6.8-.1 12.4zM99.9 31.8v10.9c0 .8 1.2.8 1.2 0V31.8c.1-.8-1.2-.8-1.2 0zM98 41.5c-4.9-1.2-10.1-2.6-15.2-3-3.2-.3-5 .6-6.7 3.3-5.3 8-6.1 19.5-7.9 28.7-4.1 20.9-6.3 42.5-.4 63.3.2.8 1.4.4 1.2-.3-5.1-18-4.1-36.7-1-54.9 1.4-8.4 3.1-16.9 5.1-25.2 1.5-6.2 2.9-13.5 11.5-13.3 4.3.1 9 1.7 13.2 2.7.6.1 1-1.1.2-1.3zm26.6-2.3c-2.3-2.1-4.9-3.9-8.1-3.4-4.4.7-9.1 3.1-13.2 4.9-.7.3-.1 1.4.6 1.1 4.4-1.9 12-6.3 17-3.8 3.7 1.8 6.4 5.9 8.1 9.5 4.1 8.4 4.4 18.4 5.2 27.5 1.6 17.9 1.9 35.9 1.1 53.9 0 .8 1.2.8 1.2 0 1-22.3.5-45-2.6-67.2-.8-8.2-3-16.8-9.3-22.5zM64.5 77.9c1.1-9.5 2.6-19.2 5.7-28.3 1.8-5.3 3.9-13.2 10.6-14.2 5.1-.7 11.3 1.2 16.2 2.3.8.2 1.1-1 .3-1.2-7.1-1.5-18.4-5.5-23.5 1.7-5.9 8.3-7.7 20.4-9.2 30.1-3.6 22.7-3.5 45.8.1 68.4.1.8 1.3.5 1.2-.3-3.1-19.3-3.6-39-1.4-58.5zm61.3-42.7c-6.6-4.1-14.7-4.9-21.2-.2-.7.5 0 1.5.6 1.1 8.6-6.2 19.2-2 25.9 5 6.6 6.9 6.8 17.3 7.5 26.2 1.5 17.4 2 34.8 1.6 52.3 0 .8 1.2.8 1.2 0 .3-11.3.2-22.6-.4-33.9-.5-10.6-.9-21.6-2.9-32.1-1.4-8-5.3-14.1-12.3-18.4zm-55.5 6.2c2.2-3.2 4.8-7.9 8.3-9.9 4.5-2.6 11.8.5 16.4 1.9.8.2 1.1-1 .3-1.2-6.9-2.1-14.5-5.4-20.1.6-5.7 6.2-10.4 14-12.6 22.2-2.4 9-3.2 18.8-4.2 28.1-1.2 11.1-1.9 22.3-1.2 33.5 0 .8 1.3.8 1.2 0-1.1-17.6.9-35.5 3.6-52.9 1.4-8.2 3.8-15.5 8.3-22.3z" fill="#000000" stroke-width="none" opacity="1"></path></g><g id="svga-group-glasses-single-move" transform="matrix(1,0,0,1,0,0)"><g id="svga-group-glasses-single" transform="matrix(1,0,0,1,0,0)"></g></g></g></g></g><rect id="svga-credit-rect" width="200" height="15" x="0" y="185" fill="#ecf0f1" opacity="0.5" style="display: none;"></rect><text id="svga-credit-text" font-family="Avenir Next, Roboto, Helvetica, Arial, sans-serif" font-size="10px" text-anchor="start" font-weight="400" size="10px" anchor="start" weight="400" fill="#333333" x="33.402061462402344" y="182.71133995056152" style="display: none;"><tspan id="SvgjsTspan20986" dy="13" x="33.402061462402344">Created on AvatarMaker.com</tspan></text></g></svg>